<?xml version="1.0" encoding="UTF-8"?>
<svg width="408px" height="458px" viewBox="0 0 408 458" version="1.1" xmlns="http://www.w3.org/2000/svg" xmlns:xlink="http://www.w3.org/1999/xlink">
    <title>Group 2</title>
    <g id="Page-1" stroke="none" stroke-width="1" fill="none" fill-rule="evenodd">
        <g id="baloon-16" transform="translate(-296.000000, -171.000000)">
            <g id="Group-2" transform="translate(296.015663, 171.727685)">
                <g id="Group" transform="translate(203.984337, 228.272315) rotate(-142.000000) translate(-203.984337, -228.272315) translate(120.472337, 3.837315)">
                    <path d="M83.512,203.073 C55.274,203.073 1.13686838e-13,144.996 1.13686838e-13,88.919 C1.13686838e-13,32.843 37.389,-1.42108547e-13 83.512,-1.42108547e-13 C129.634,-1.42108547e-13 167.024,32.843 167.024,88.919 C167.024,144.996 109.948,203.073 83.512,203.073 M73.47,17.511 C73.21,17.511 72.946,17.527 72.68,17.562 C42.624,21.423 18.946,45.66 15.943,75.976 C15.595,79.485 18.405,82.511 21.931,82.511 L21.932,82.511 C25.021,82.511 27.598,80.168 27.908,77.095 C30.395,52.366 49.733,32.609 74.265,29.475 C77.263,29.093 79.507,26.541 79.507,23.519 C79.507,20.144 76.749,17.511 73.47,17.511" id="Fill-1" fill="#FDEE21"></path>
                    <path d="M86.839,448.87 C85.976,448.87 85.136,448.401 84.694,447.577 C72.823,425.437 87.815,402.241 101.093,381.697 C107.352,372.011 113.265,362.863 116.414,354.202 C123.675,334.237 114.84,318.622 101.466,294.983 C96.647,286.465 91.185,276.811 85.866,265.743 C75.311,243.782 75.908,228.12 78.268,218.849 C78.927,216.259 79.755,214.011 80.628,212.085 L74.5,212.085 C72.011,212.085 69.994,210.067 69.994,207.579 C69.994,205.09 72.011,203.073 74.5,203.073 L92.524,203.073 C95.013,203.073 97.03,205.09 97.03,207.579 C97.03,210.067 95.013,212.085 92.524,212.085 L85.992,212.085 C84.854,214.193 83.68,216.949 82.841,220.377 C80.77,228.831 80.366,243.203 90.198,263.661 C95.448,274.584 100.867,284.164 105.649,292.617 C119.176,316.525 128.948,333.799 120.932,355.845 C117.597,365.015 111.541,374.386 105.129,384.306 C91.974,404.661 78.384,425.688 88.962,445.362 C89.556,446.467 89.162,447.846 88.097,448.509 C87.702,448.754 87.268,448.87 86.839,448.87" id="Fill-2" fill="#191B1A"></path>
                </g>
            </g>
        </g>
    </g>
</svg>