<svg width="100px" height="100px" viewBox="0 0 230 224">
    <defs>
        <path d="M0.039,209.803 C0.026,209.803 0.013,209.803 0,209.803 L0.078,209.803 C0.347,209.803 0.612,209.782 0.875,209.745 C53.85,208.964 98.018,168.854 104.363,116.32 C110.745,63.477 73.562,13.653 22.133,2.383 C14.997,0.819 7.654,0.108 0.358,0.038 L0.16,0 L0.156,0 L0.16,0 L0.359,0.038 C7.654,0.108 14.997,0.819 22.133,2.383 C73.563,13.653 110.745,63.477 104.363,116.32 C98.019,168.854 53.851,208.964 0.875,209.745 C0.6,209.784 0.321,209.803 0.039,209.803" id="path-1"></path>
        <linearGradient x1="13.6953876%" y1="65.3899134%" x2="61.2812026%" y2="34.5181432%" id="linearGradient-3">
            <stop stop-color="#C4B48C" offset="0%"></stop>
            <stop stop-color="#D7C08F" offset="100%"></stop>
        </linearGradient>
    </defs>
    <g id="Page-1" stroke="none" stroke-width="1" fill="none" fill-rule="evenodd">
        <g id="free-cute-fruit-vectors" transform="translate(-588.000000, -76.000000)">
            <g id="Group-14" transform="translate(588.852838, 76.061237)">
                <g id="Group-13" transform="translate(123.764162, 13.938763)">
                    <mask id="mask-2" fill="white">
                        <use xlink:href="#path-1"></use>
                    </mask>
                    <g id="Clip-12"></g>
                    <path d="M0.039,209.803 C0.026,209.803 0.013,209.803 0,209.803 L0.078,209.803 C0.347,209.803 0.612,209.782 0.875,209.745 C53.85,208.964 98.018,168.854 104.363,116.32 C110.745,63.477 73.562,13.653 22.133,2.383 C14.997,0.819 7.654,0.108 0.358,0.038 L0.16,0 L0.156,0 L0.16,0 L0.359,0.038 C7.654,0.108 14.997,0.819 22.133,2.383 C73.563,13.653 110.745,63.477 104.363,116.32 C98.019,168.854 53.851,208.964 0.875,209.745 C0.6,209.784 0.321,209.803 0.039,209.803" id="Fill-11" fill="url(#linearGradient-3)" mask="url(#mask-2)"></path>
                </g>
                <path d="M30.9981623,104.853763 C30.9981623,49.2107631 64.0941623,4.10376308 104.920162,4.10376308 C49.2771623,4.10376308 4.17016226,49.2107631 4.17016226,104.853763 C4.17016226,160.495763 49.2771623,205.602763 104.920162,205.602763 C64.0941623,205.602763 30.9981623,160.495763 30.9981623,104.853763" id="Fill-60" fill="#339B46"></path>
                <path d="M35.0931623,104.853763 C35.3631623,64.5087631 57.0821623,8.79276308 104.920162,8.19976308 C110.199162,8.13376308 110.206162,-0.0352369179 104.920162,0.00759391944 C51.6251623,0.434763082 7.08616226,40.6737631 0.713162263,93.4467631 C-5.66883774,146.290763 31.5141623,196.114763 82.9431623,207.383763 C90.1451623,208.961763 97.5581623,209.639763 104.920162,209.698925 C110.206162,209.740763 110.199162,201.572763 104.920162,201.506763 C57.0831623,200.913763 35.3631623,145.196763 35.0931623,104.853763 C35.0581623,99.5727631 26.8661623,99.5687631 26.9011623,104.853763 C27.2031623,149.901763 52.3461623,209.046763 104.920162,209.698925 C104.920162,206.967763 104.920162,204.237763 104.920162,201.506763 C51.9161623,201.081763 8.69116226,157.857763 8.26716226,104.853763 C7.84116226,51.8427631 52.5561623,8.61976308 104.920162,8.19976308 C104.920162,5.46876308 104.920162,2.73776308 104.920162,0.00759391944 C52.3461623,0.659763082 27.2031623,59.8047631 26.9011623,104.853763 C26.8661623,110.137763 35.0581623,110.133763 35.0931623,104.853763" id="Fill-61" fill="#2F7A3E"></path>
                <path d="M104.920162,4.10376308 C145.747162,4.10376308 178.843162,49.2107631 178.843162,104.853763 C178.843162,160.495763 145.747162,205.602763 104.920162,205.602763 C160.562162,205.602763 205.669162,160.495763 205.669162,104.853763 C205.669162,49.2107631 160.562162,4.10376308 104.920162,4.10376308" id="Fill-62" fill="#339B46"></path>
                <path d="M104.920162,8.19976308 C152.758162,8.79276308 174.478162,64.5097631 174.747162,104.853763 C175.016162,145.197763 152.375162,200.917763 104.920162,201.506763 C99.6421623,201.572763 99.6351623,209.740763 104.920162,209.698925 C158.215162,209.271763 202.753162,169.030763 209.127162,116.258763 C215.509162,63.4157631 178.327162,13.5917631 126.898162,2.32176308 C119.696162,0.743763082 112.283162,0.0667630821 104.920162,0.00736641393 C99.6361623,-0.0352369179 99.6401623,8.15676308 104.920162,8.19976308 C157.924162,8.62376308 201.149162,51.8497631 201.574162,104.853763 C202.000162,157.862763 157.284162,201.086763 104.920162,201.506763 C104.920162,204.237763 104.920162,206.967763 104.920162,209.698925 C157.495162,209.046763 182.638162,149.900763 182.939162,104.853763 C183.240162,59.8027631 157.067162,0.654763082 104.920162,0.00736641393 C99.6361623,-0.0582369179 99.6421623,8.13376308 104.920162,8.19976308" id="Fill-63" fill="#2F7A3E"></path>
                <path d="M61.2081623,104.853763 C61.2081623,49.2107631 80.7781623,4.10376308 104.920162,4.10376308 C64.0941623,4.10376308 30.9981623,49.2107631 30.9981623,104.853763 C30.9981623,160.495763 64.0941623,205.602763 104.920162,205.602763 C80.7781623,205.602763 61.2081623,160.495763 61.2081623,104.853763" id="Fill-64" fill="#2F7A3E"></path>
                <path d="M65.3041623,104.853763 C65.4071623,82.0067631 68.3631623,58.9267631 76.7681623,37.5607631 C81.3481623,25.9167631 90.3931623,8.54676308 104.920162,8.19976308 C110.192162,8.07276308 110.210162,-0.0582369179 104.920162,0.00736345819 C52.3461623,0.659763082 27.2031623,59.8047631 26.9011623,104.853763 C26.6011623,149.903763 52.7741623,209.051763 104.920162,209.699163 C110.210162,209.764763 110.192162,201.632763 104.920162,201.506763 C90.2741623,201.155763 81.5221623,183.765763 76.7681623,172.145763 C68.1171623,151.001763 65.4061623,127.526763 65.3041623,104.853763 C65.2801623,99.5717631 57.0881623,99.5697631 57.1121623,104.853763 C57.2271623,130.253763 60.7451623,156.169763 71.0891623,179.549763 C77.1961623,193.353763 88.2321623,209.298763 104.920162,209.699163 C104.920162,206.967763 104.920162,204.237763 104.920162,201.506763 C57.0831623,200.913763 35.3631623,145.196763 35.0931623,104.853763 C34.8241623,64.5067631 57.4661623,8.78776308 104.920162,8.19976308 C104.920162,5.46876308 104.920162,2.73776308 104.920162,0.00736345819 C88.0761623,0.410763082 77.4211623,16.3937631 71.0891623,30.1567631 C60.4661623,53.2437631 57.2261623,79.6787631 57.1121623,104.853763 C57.0881623,110.136763 65.2801623,110.134763 65.3041623,104.853763" id="Fill-65" fill="#20512C"></path>
                <path d="M178.843162,104.853763 C178.843162,49.2107631 145.747162,4.10376308 104.920162,4.10376308 C129.062162,4.10376308 148.632162,49.2107631 148.632162,104.853763 C148.632162,160.495763 129.062162,205.602763 104.920162,205.602763 C145.747162,205.602763 178.843162,160.495763 178.843162,104.853763" id="Fill-66" fill="#2F7A3E"></path>
                <path d="M182.939274,104.853763 C182.638162,59.8047631 157.495162,0.659763082 104.920162,0.00736345819 C99.6311623,-0.0582369179 99.6491623,8.07276308 104.920162,8.19976308 C119.567162,8.54976308 128.319162,25.9397631 133.073162,37.5607631 C141.723162,58.7047631 144.434162,82.1797631 144.537162,104.853763 C144.639162,127.623763 141.440162,150.875763 133.073162,172.145763 C128.493162,183.789763 119.448162,201.158763 104.920162,201.506763 C99.6491623,201.632763 99.6311623,209.764763 104.920162,209.699163 C157.495162,209.046763 182.638162,149.900763 182.939274,104.853763 C182.974162,99.5687631 174.783162,99.5727631 174.747162,104.853763 C174.478162,145.196763 152.758162,200.913763 104.920162,201.506763 C104.920162,204.237763 104.920162,206.967763 104.920162,209.699163 C121.765162,209.295763 132.419162,193.312763 138.751162,179.549763 C149.375162,156.461763 152.615162,130.027763 152.728162,104.853763 C152.842162,79.5437631 149.044162,53.4197631 138.751162,30.1567631 C132.645162,16.3527631 121.608162,0.406763082 104.920162,0.00736345819 C104.920162,2.73776308 104.920162,5.46876308 104.920162,8.19976308 C152.758162,8.79276308 174.478162,64.5097631 174.747162,104.853763 C174.783162,110.133763 182.974162,110.137763 182.939274,104.853763" id="Fill-67" fill="#20512C"></path>
                <path d="M148.632162,104.853763 C148.632162,49.2107631 129.062162,4.10376308 104.920162,4.10376308 C114.462162,4.10376308 122.198162,49.2107631 122.198162,104.853763 C122.198162,160.495763 114.462162,205.602763 104.920162,205.602763 C129.062162,205.602763 148.632162,160.495763 148.632162,104.853763" id="Fill-68" fill="#339B46"></path>
                <path d="M152.728215,104.853763 C152.614162,79.4517631 149.096162,53.5367631 138.751162,30.1567631 C132.645162,16.3527631 121.608162,0.406763082 104.920162,0.00623989471 C99.6011623,-0.120236918 99.6981623,7.86076308 104.920162,8.19976308 C104.094162,8.14576308 105.314162,8.76176308 105.917162,9.67376308 C107.113162,11.4837631 107.892162,13.5377631 108.616162,15.5677631 C111.073162,22.4597631 112.383162,29.7877631 113.567162,36.9837631 C117.243162,59.3347631 118.059162,82.2417631 118.102162,104.853763 C118.144162,126.970763 117.124162,149.272763 113.813162,171.161763 C112.691162,178.585763 111.239162,186.011763 108.943162,193.169763 C108.244162,195.348763 107.394162,197.441763 106.276162,199.438763 C105.663162,200.534763 104.163162,201.555763 104.920162,201.506763 C99.6981623,201.844763 99.6011623,209.825763 104.920162,209.700263 C121.765162,209.295763 132.419162,193.312763 138.751162,179.549763 C149.375162,156.461763 152.615162,130.027763 152.728215,104.853763 C152.752162,99.5697631 144.560162,99.5717631 144.537162,104.853763 C144.433162,127.699763 141.478162,150.778763 133.073162,172.145763 C128.493162,183.789763 119.448162,201.158763 104.920162,201.506763 C104.920162,204.237763 104.920162,206.967763 104.920162,209.700263 C116.295162,208.962763 118.836162,189.012763 120.428162,180.829763 C125.270162,155.931763 126.246162,130.148763 126.294162,104.853763 C126.341162,79.9817631 125.080162,54.8297631 120.696162,30.3117631 C119.200162,21.9487631 116.621162,0.764763082 104.920162,0.00623989471 C104.920162,2.73776308 104.920162,5.46876308 104.920162,8.19976308 C119.567162,8.54976308 128.319162,25.9397631 133.073162,37.5607631 C141.723162,58.7047631 144.434162,82.1797631 144.537162,104.853763 C144.560162,110.134763 152.752162,110.136763 152.728215,104.853763" id="Fill-69" fill="#2F7A3E"></path>
                <path d="M87.6421623,104.853763 C87.6421623,49.2107631 95.3781623,4.10376308 104.920162,4.10376308 C80.7781623,4.10376308 61.2081623,49.2107631 61.2081623,104.853763 C61.2081623,160.495763 80.7781623,205.602763 104.920162,205.602763 C95.3781623,205.602763 87.6421623,160.495763 87.6421623,104.853763" id="Fill-70" fill="#339B46"></path>
                <path d="M91.7381623,104.853763 C91.7801623,82.7197631 92.7141623,60.4527631 96.0271623,38.5437631 C97.1501623,31.1197631 98.6011623,23.6937631 100.897162,16.5367631 C101.596162,14.3567631 102.447162,12.2647631 103.564162,10.2667631 C104.178162,9.17076308 105.678162,8.14976308 104.920162,8.19976308 C110.143162,7.86176308 110.241162,-0.120236918 104.920162,0.00624008297 C88.0761623,0.410763082 77.4211623,16.3937631 71.0891623,30.1567631 C60.4661623,53.2437631 57.2261623,79.6787631 57.1121623,104.853763 C56.9981623,130.161763 60.7961623,156.286763 71.0891623,179.549763 C77.1961623,193.353763 88.2321623,209.298763 104.920162,209.700263 C110.241162,209.825763 110.143162,201.844763 104.920162,201.506763 C105.748162,201.560763 104.527162,200.944763 103.924162,200.032763 C102.728162,198.222763 101.948162,196.168763 101.225162,194.138763 C98.7681623,187.246763 97.4571623,179.918763 96.2731623,172.721763 C92.5971623,150.371763 91.7811623,127.464763 91.7381623,104.853763 C91.7281623,99.5707631 83.5361623,99.5697631 83.5461623,104.853763 C83.5941623,129.744763 84.7561623,154.850763 89.1451623,179.394763 C90.6411623,187.757763 93.2201623,208.941763 104.920162,209.700263 C104.920162,206.967763 104.920162,204.237763 104.920162,201.506763 C90.2741623,201.155763 81.5221623,183.765763 76.7681623,172.145763 C68.1171623,151.001763 65.4061623,127.526763 65.3041623,104.853763 C65.2011623,82.0827631 68.4001623,58.8307631 76.7681623,37.5607631 C81.3481623,25.9167631 90.3931623,8.54676308 104.920162,8.19976308 C104.920162,5.46876308 104.920162,2.73776308 104.920162,0.00624008297 C93.5451623,0.743763082 91.0041623,20.6927631 89.4131623,28.8767631 C84.5701623,53.7737631 83.5951623,79.5567631 83.5461623,104.853763 C83.5361623,110.135763 91.7281623,110.134763 91.7381623,104.853763" id="Fill-71" fill="#2F7A3E"></path>
                <path d="M122.198162,104.853763 C122.198162,49.2107631 114.462162,4.10376308 104.920162,4.10376308 C95.3781623,4.10376308 87.6421623,49.2107631 87.6421623,104.853763 C87.6421623,160.495763 95.3781623,205.602763 104.920162,205.602763 C114.462162,205.602763 122.198162,160.495763 122.198162,104.853763" id="Fill-72" fill="#2F7A3E"></path>
                <path d="M126.294171,104.853763 C126.239162,75.7067631 125.680162,44.6327631 117.485162,16.4127631 C115.898162,10.9497631 113.335162,2.37476308 107.176162,0.379763082 C101.212162,-1.55223692 97.1911623,4.28376308 95.0861623,8.93876308 C90.7671623,18.4877631 89.1441623,29.2917631 87.6531623,39.5757631 C85.3771623,55.2747631 84.3351623,71.1387631 83.8171623,86.9847631 C82.7711623,119.032763 83.5671623,152.074763 89.9631623,183.600763 C91.5421623,191.380763 93.5201623,203.227763 100.540162,208.244763 C106.881162,212.774763 112.348162,206.088763 114.754162,200.767763 C119.904162,189.380763 121.441162,176.276763 123.003162,164.010763 C125.500162,144.416763 126.256162,124.590763 126.294171,104.853763 C126.304162,99.5697631 118.112162,99.5707631 118.102162,104.853763 C118.047162,133.809763 117.881162,165.302763 108.943162,193.169763 C108.075162,195.877763 107.028162,198.973763 105.088162,201.126763 C104.445162,201.840763 104.271162,201.365763 105.230162,201.551763 C105.332162,201.571763 104.397162,200.747763 103.924162,200.032763 C98.8951623,192.422763 97.7141623,181.479763 96.2731623,172.721763 C90.7421623,139.092763 90.7271623,104.075763 92.7911623,70.1487631 C93.6711623,55.6717631 95.1381623,41.1507631 98.1451623,26.9477631 C99.0021623,22.8997631 101.437162,9.38176308 105.230162,8.15376308 C104.175162,8.49576308 104.648162,7.87776308 105.554162,9.12476308 C106.954162,11.0537631 107.823162,13.3427631 108.616162,15.5677631 C111.073162,22.4597631 112.383162,29.7877631 113.567162,36.9837631 C117.243162,59.3347631 118.059162,82.2417631 118.102162,104.853763 C118.112162,110.134763 126.304162,110.135763 126.294171,104.853763" id="Fill-73" fill="#20512C"></path>
            </g>
        </g>
    </g>
</svg>
