<svg width="100px" height="100px" viewBox="0 0 225 220">
    <defs>
        <path d="M102.129,179.067 C94.496,179.067 86.765,178.181 79.064,176.328 C58.17,171.299 40.02,159.912 26.398,144.64 C40.02,159.911 58.17,171.298 79.064,176.327 C86.764,178.18 94.496,179.067 102.129,179.067 C145.79,179.067 186.291,150.092 200.239,107.514 C203.503,97.549 204.93,86.967 205.016,76.505 C204.768,46.217 191.359,18.842 170.095,0 C191.359,18.842 204.768,46.217 205.016,76.506 C204.93,86.968 203.504,97.549 200.24,107.515 C186.292,150.093 145.79,179.067 102.129,179.067 M2.84217094e-14,76.337 C2.84217094e-14,76.293 2.84217094e-14,76.245 2.84217094e-14,76.201 L2.84217094e-14,76.337" id="path-1"></path>
        <linearGradient x1="2.52126663%" y1="57.8834697%" x2="97.4348344%" y2="30.9474757%" id="linearGradient-3">
            <stop stop-color="#C4B48C" offset="0%"></stop>
            <stop stop-color="#D7C08F" offset="100%"></stop>
        </linearGradient>
    </defs>
    <g id="Page-1" stroke="none" stroke-width="1" fill="none" fill-rule="evenodd">
        <g id="free-cute-fruit-vectors" transform="translate(-219.000000, -76.000000)">
            <g id="Group-15" transform="translate(219.780790, 76.061199)">
                <g id="Group-9" transform="translate(19.000210, 40.068801)">
                    <mask id="mask-2" fill="white">
                        <use xlink:href="#path-1"></use>
                    </mask>
                    <g id="Clip-8"></g>
                    <path d="M102.129,179.067 C94.496,179.067 86.765,178.181 79.064,176.328 C58.17,171.299 40.02,159.912 26.398,144.64 C40.02,159.911 58.17,171.298 79.064,176.327 C86.764,178.18 94.496,179.067 102.129,179.067 C145.79,179.067 186.291,150.092 200.239,107.514 C203.503,97.549 204.93,86.967 205.016,76.505 C204.768,46.217 191.359,18.842 170.095,0 C191.359,18.842 204.768,46.217 205.016,76.506 C204.93,86.968 203.504,97.549 200.24,107.515 C186.292,150.093 145.79,179.067 102.129,179.067 M2.84217094e-14,76.337 C2.84217094e-14,76.293 2.84217094e-14,76.245 2.84217094e-14,76.201 L2.84217094e-14,76.337" id="Fill-7" fill="url(#linearGradient-3)" mask="url(#mask-2)"></path>
                </g>
                <path d="M200.92021,102.574801 C200.92021,156.930801 156.85621,200.994801 102.50021,200.994801 C48.1442104,200.994801 4.0802104,156.930801 4.0802104,102.574801 C4.0802104,48.218801 48.1442104,4.15480099 102.50021,4.15480099 C156.85621,4.15480099 200.92021,48.218801 200.92021,102.574801" id="Fill-55" fill="#5A371F"></path>
                <path d="M196.82421,102.574801 C196.60321,129.581801 185.26521,154.764801 165.31921,172.946801 C145.28821,191.204801 117.85721,199.100801 91.1362104,196.249801 C64.7272104,193.431801 40.4042104,178.164801 25.1832104,156.639801 C9.4912104,134.449801 4.6172104,106.081801 10.9472104,79.782801 C22.0562104,33.626801 67.3442104,3.93580099 113.86421,8.89980099 C160.96621,13.925801 196.44321,55.975801 196.82421,102.574801 C196.86721,107.854801 205.05921,107.858801 205.016379,102.574801 C204.58121,49.374801 163.54321,5.16380099 110.65321,0.391800995 C57.7812104,-4.37819901 9.3262104,34.983801 1.1982104,86.941801 C-7.0027896,139.361801 27.7562104,190.046801 79.0642104,202.396801 C130.81421,214.851801 183.85321,183.605801 200.24021,133.583801 C203.50421,123.617801 204.93021,113.036801 205.016379,102.574801 C205.05921,97.290801 196.86721,97.293801 196.82421,102.574801" id="Fill-56" fill="#3C261A"></path>
                <path d="M128.96821,52.992801 C128.96821,57.315801 123.79421,60.820801 117.41021,60.820801 C111.03021,60.820801 105.85521,57.315801 105.85521,52.992801 C105.85521,48.668801 111.03021,45.163801 117.41021,45.163801 C123.79421,45.163801 128.96821,48.668801 128.96821,52.992801" id="Fill-57" fill="#3C261A"></path>
                <path d="M147.98221,77.597801 C147.98221,81.921801 142.80721,85.426801 136.42421,85.426801 C130.04221,85.426801 124.86821,81.921801 124.86821,77.597801 C124.86821,73.272801 130.04221,69.768801 136.42421,69.768801 C142.80721,69.768801 147.98221,73.272801 147.98221,77.597801" id="Fill-58" fill="#3C261A"></path>
                <path d="M96.5342104,69.768801 C96.5342104,74.092801 91.3612104,77.597801 84.9782104,77.597801 C78.5952104,77.597801 73.4212104,74.092801 73.4212104,69.768801 C73.4212104,65.444801 78.5952104,61.939801 84.9782104,61.939801 C91.3612104,61.939801 96.5342104,65.444801 96.5342104,69.768801" id="Fill-59" fill="#3C261A"></path>
            </g>
        </g>
    </g>
</svg>
