<svg width="246px" height="118px" viewBox="0 0 246 118">
    <defs>
        <path d="M225.69912,4.12 L225.69912,4.063 C225.683006,1.859 223.804006,0.198 221.603006,0.198 C216.680006,0.198 211.758006,0.198 206.834006,0.198 C191.170006,0.198 175.506006,0.198 159.842006,0.198 C128.927006,0.198 98.0110059,0.198 67.0940059,0.198 C66.6650059,0.071 66.2170059,0.008 65.7710059,0.008 C65.3250059,0.008 64.8810059,0.071 64.4570059,0.198 C58.4840059,0.198 52.5100059,0.198 46.5370059,0.198 C42.0670059,0.198 37.6850059,0.198 33.3340059,0.198 C28.9180059,0.198 24.5340059,0.198 20.1410059,0.198 C19.7110059,0.07 19.2630059,0.007 18.8150059,0.007 C18.3680059,0.007 17.9220059,0.07 17.4970059,0.198 C13.4970059,0.198 9.47800593,0.198 5.40100593,0.198 C4.96500593,0.066 4.50700593,0.001 4.05000593,0.001 C2.01500593,0.001 -0.00399406627,1.301 0,3.916 C-0.00399406627,1.3 2.01500593,0 4.05000593,0 C4.50700593,0 4.96500593,0.066 5.40100593,0.197 C9.47800593,0.197 13.4970059,0.197 17.4970059,0.197 C17.9220059,0.07 18.3680059,0.006 18.8150059,0.006 C19.2630059,0.006 19.7110059,0.07 20.1410059,0.197 C24.5340059,0.197 28.9180059,0.197 33.3340059,0.197 C37.6850059,0.197 42.0670059,0.197 46.5370059,0.197 C52.5100059,0.197 58.4840059,0.197 64.4570059,0.197 C64.8810059,0.071 65.3250059,0.008 65.7710059,0.008 C66.2180059,0.008 66.6650059,0.071 67.0940059,0.197 C98.0110059,0.197 128.927006,0.197 159.842006,0.197 C175.506006,0.197 191.170006,0.197 206.834006,0.197 C211.758006,0.197 216.680006,0.197 221.603006,0.197 C223.823006,0.197 225.716006,1.887 225.69912,4.12" id="path-1"></path>
        <linearGradient x1="7.69520323%" y1="50.5851053%" x2="100.419535%" y2="50.0351364%" id="linearGradient-3">
            <stop stop-color="#C4B48C" offset="0%"></stop>
            <stop stop-color="#D7C08F" offset="100%"></stop>
        </linearGradient>
    </defs>
    <g id="Page-1" stroke="none" stroke-width="1" fill="none" fill-rule="evenodd">
        <g id="free-cute-fruit-vectors" transform="translate(-580.000000, -793.000000)">
            <g id="Group-2" transform="translate(580.923854, 793.793120)">
                <g id="Group-37" transform="translate(19.000140, 14.009880)">
                    <mask id="mask-2" fill="white">
                        <use xlink:href="#path-1"></use>
                    </mask>
                    <g id="Clip-36"></g>
                    <path d="M225.69912,4.12 L225.69912,4.063 C225.683006,1.859 223.804006,0.198 221.603006,0.198 C216.680006,0.198 211.758006,0.198 206.834006,0.198 C191.170006,0.198 175.506006,0.198 159.842006,0.198 C128.927006,0.198 98.0110059,0.198 67.0940059,0.198 C66.6650059,0.071 66.2170059,0.008 65.7710059,0.008 C65.3250059,0.008 64.8810059,0.071 64.4570059,0.198 C58.4840059,0.198 52.5100059,0.198 46.5370059,0.198 C42.0670059,0.198 37.6850059,0.198 33.3340059,0.198 C28.9180059,0.198 24.5340059,0.198 20.1410059,0.198 C19.7110059,0.07 19.2630059,0.007 18.8150059,0.007 C18.3680059,0.007 17.9220059,0.07 17.4970059,0.198 C13.4970059,0.198 9.47800593,0.198 5.40100593,0.198 C4.96500593,0.066 4.50700593,0.001 4.05000593,0.001 C2.01500593,0.001 -0.00399406627,1.301 0,3.916 C-0.00399406627,1.3 2.01500593,0 4.05000593,0 C4.50700593,0 4.96500593,0.066 5.40100593,0.197 C9.47800593,0.197 13.4970059,0.197 17.4970059,0.197 C17.9220059,0.07 18.3680059,0.006 18.8150059,0.006 C19.2630059,0.006 19.7110059,0.07 20.1410059,0.197 C24.5340059,0.197 28.9180059,0.197 33.3340059,0.197 C37.6850059,0.197 42.0670059,0.197 46.5370059,0.197 C52.5100059,0.197 58.4840059,0.197 64.4570059,0.197 C64.8810059,0.071 65.3250059,0.008 65.7710059,0.008 C66.2180059,0.008 66.6650059,0.071 67.0940059,0.197 C98.0110059,0.197 128.927006,0.197 159.842006,0.197 C175.506006,0.197 191.170006,0.197 206.834006,0.197 C211.758006,0.197 216.680006,0.197 221.603006,0.197 C223.823006,0.197 225.716006,1.887 225.69912,4.12" id="Fill-35" fill="url(#linearGradient-3)" mask="url(#mask-2)"></path>
                </g>
                <path d="M4.09614601,4.20687969 C4.09614601,64.2068797 52.786146,112.95988 112.849146,112.95988 C172.912146,112.95988 221.603146,64.2068797 221.603146,4.20687969 L4.09614601,4.20687969" id="Fill-113" fill="#FBE05A"></path>
                <path d="M-1.13686838e-13,3.95687969 C0.394146008,56.6578797 37.708146,102.99688 89.259146,114.31188 C141.071146,125.68588 194.727146,97.3868797 216.134146,49.2658797 C222.479146,34.9998797 225.582146,19.7188797 225.69926,4.12987969 C225.716146,1.89687969 223.823146,0.206879694 221.603146,0.206879694 C163.248146,0.206879694 104.892146,0.206879694 46.536146,0.206879694 C32.389146,0.206879694 19.076146,0.206879694 5.07614601,0.206879694 C-0.923853992,0.206879694 -0.923853992,8.20687969 5.07614601,8.20687969 C63.076146,8.20687969 120.806146,8.20687969 179.162146,8.20687969 C193.309146,8.20687969 207.456146,8.20687969 221.603146,8.20687969 C220.238146,6.20687969 218.872146,5.39887969 217.507146,4.03387969 C217.094146,59.2958797 173.058146,105.64188 117.782146,108.54188 C62.649146,111.43588 13.945146,68.3378797 8.62814601,13.7288797 C8.31214601,10.4878797 8.21614601,7.22087969 8.19114601,3.96687969 C8.15214601,-1.31412031 -0.0398539916,-1.32712031 -1.13686838e-13,3.95687969" id="Fill-114" fill="#F2B12A"></path>
                <path d="M18.864146,4.20687969 C18.864146,57.2068797 60.943146,98.1918797 112.849146,98.1918797 C164.756146,98.1918797 206.834146,57.2068797 206.834146,4.20687969 L18.864146,4.20687969" id="Fill-115" fill="#FBE05A"></path>
                <path d="M14.7679694,3.95687969 C15.218146,57.3778797 57.806146,100.68188 111.213146,102.02388 C164.610146,103.36688 208.656146,59.9338797 210.875146,7.26787969 C210.912146,6.16387969 210.930288,5.23387969 210.930288,4.12987969 C210.949146,1.89687969 209.053146,0.206879694 206.834146,0.206879694 C149.001146,0.206879694 91.167146,0.206879694 33.334146,0.206879694 C28.511146,0.206879694 23.076146,0.206879694 19.076146,0.206879694 C14.076146,0.206879694 14.076146,8.20687969 19.076146,8.20687969 C77.076146,8.20687969 134.531146,8.20687969 192.364146,8.20687969 C197.187146,8.20687969 202.011146,8.20687969 206.834146,8.20687969 C205.469146,6.20687969 204.103146,5.39887969 202.738146,4.03387969 C202.321146,53.6128797 162.438146,93.4698797 112.849146,93.8848797 C63.254146,94.3008797 23.372146,52.9288797 22.960146,3.97687969 C22.916146,-1.30412031 14.724146,-1.32712031 14.7679694,3.95687969" id="Fill-116" fill="#F2B12A"></path>
                <path d="M65.856146,4.20687969 C65.856146,30.2068797 86.896146,51.1988797 112.849146,51.1988797 C138.803146,51.1988797 159.842146,30.2068797 159.842146,4.20687969 L65.856146,4.20687969" id="Fill-117" fill="#FCE582"></path>
                <path d="M61.7603769,3.95687969 C62.248146,32.0618797 84.747146,54.5558797 112.849146,55.0448797 C140.952146,55.5328797 163.463146,31.5008797 163.937727,4.12987969 C163.976146,1.89687969 162.046146,0.206879694 159.842146,0.206879694 C128.514146,0.206879694 97.076146,0.206879694 65.076146,0.206879694 C61.076146,0.206879694 61.076146,8.20687969 65.076146,8.20687969 C97.076146,8.20687969 128.514146,8.20687969 159.842146,8.20687969 C158.476146,6.20687969 157.111146,5.39887969 155.746146,4.03387969 C155.336146,27.6538797 136.467146,46.4798797 112.849146,46.8918797 C89.231146,47.3028797 70.352146,26.9788797 69.952146,3.97687969 C69.861146,-1.30012031 61.669146,-1.32812031 61.7603769,3.95687969" id="Fill-118" fill="#F2B12A"></path>
                <path d="M117.253146,82.7918797 C117.253146,85.2928797 115.225146,87.3198797 112.723146,87.3198797 L112.420146,87.3198797 C109.919146,87.3198797 107.891146,85.2928797 107.891146,82.7918797 L107.891146,68.4448797 C107.891146,65.9428797 109.919146,63.9158797 112.420146,63.9158797 L112.723146,63.9158797 C115.225146,63.9158797 117.253146,65.9428797 117.253146,68.4448797 L117.253146,82.7918797" id="Fill-119" fill="#F2B12A"></path>
                <path d="M151.350146,72.8988797 C152.459146,75.1428797 151.538146,77.8608797 149.295146,78.9698797 C147.051146,80.0788797 144.333146,79.1578797 143.224146,76.9148797 L136.869146,64.0488797 C135.760146,61.8048797 136.680146,59.0868797 138.924146,57.9788797 C141.167146,56.8698797 143.886146,57.7898797 144.994146,60.0338797 L151.350146,72.8988797" id="Fill-120" fill="#F2B12A"></path>
                <path d="M176.758146,49.1548797 C178.823146,50.5708797 179.348146,53.3918797 177.934146,55.4558797 C176.519146,57.5208797 173.698146,58.0468797 171.635146,56.6328797 L159.799146,48.5178797 C157.733146,47.1028797 157.207146,44.2818797 158.622146,42.2198797 C160.037146,40.1538797 162.858146,39.6278797 164.922146,41.0428797 L176.758146,49.1548797" id="Fill-121" fill="#F2B12A"></path>
                <path d="M189.672146,19.0588797 C192.143146,19.4518797 193.827146,21.7748797 193.433146,24.2458797 C193.040146,26.7188797 190.716146,28.4008797 188.245146,28.0078797 L174.074146,25.7488797 C171.601146,25.3538797 169.918146,23.0308797 170.312146,20.5608797 C170.706146,18.0888797 173.029146,16.4038797 175.501146,16.7978797 L189.672146,19.0588797" id="Fill-122" fill="#F2B12A"></path>
                <path d="M73.556146,72.8988797 C72.448146,75.1428797 73.368146,77.8608797 75.612146,78.9698797 C77.856146,80.0788797 80.574146,79.1578797 81.682146,76.9148797 L88.038146,64.0488797 C89.147146,61.8048797 88.226146,59.0868797 85.982146,57.9788797 C83.740146,56.8698797 81.021146,57.7898797 79.913146,60.0338797 L73.556146,72.8988797" id="Fill-123" fill="#F2B12A"></path>
                <path d="M48.149146,49.1548797 C46.084146,50.5708797 45.558146,53.3918797 46.972146,55.4558797 C48.388146,57.5208797 51.209146,58.0468797 53.272146,56.6328797 L65.109146,48.5178797 C67.173146,47.1028797 67.700146,44.2818797 66.284146,42.2198797 C64.870146,40.1538797 62.049146,39.6278797 59.985146,41.0428797 L48.149146,49.1548797" id="Fill-124" fill="#F2B12A"></path>
                <path d="M35.235146,19.0588797 C32.764146,19.4518797 31.079146,21.7748797 31.473146,24.2458797 C31.867146,26.7188797 34.191146,28.4008797 36.662146,28.0078797 L50.833146,25.7488797 C53.305146,25.3538797 54.989146,23.0308797 54.595146,20.5608797 C54.201146,18.0888797 51.877146,16.4038797 49.406146,16.7978797 L35.235146,19.0588797" id="Fill-125" fill="#F2B12A"></path>
            </g>
        </g>
    </g>
</svg>
