<?xml version="1.0" encoding="UTF-8"?>
<svg width="210px" height="109px" viewBox="0 0 210 109" version="1.1" xmlns="http://www.w3.org/2000/svg" xmlns:xlink="http://www.w3.org/1999/xlink">
    <title>Group 3</title>
    <g id="Page-1" stroke="none" stroke-width="1" fill="none" fill-rule="evenodd">
        <g id="free-cute-fruit-vectors" transform="translate(-217.000000, -801.000000)">
            <g id="Group-3" transform="translate(217.759839, 801.279500)">
                <path d="M204.962161,3.96150014 C204.962161,59.4295001 159.997161,104.3955 104.529161,104.3955 C49.0611609,104.3955 4.09616095,59.4295001 4.09616095,3.96150014" id="Fill-98" fill="#E2E676"></path>
                <path d="M200.866161,3.96150014 C200.442161,56.7925001 157.360161,99.8755001 104.529161,100.2995 C51.6921609,100.7235 8.61116095,56.1545001 8.19216095,3.96150014 C8.15016095,-1.31849986 -0.0418390519,-1.32249986 0,3.96150014 C0.427160948,57.0975001 40.5451609,101.5005 93.1581609,107.8555 C145.842161,114.2175 195.515161,77.1465001 206.750161,25.8735001 C208.323161,18.6935001 208.999161,11.3025001 209.058322,3.96150014 C209.100161,-1.32249986 200.908161,-1.31849986 200.866161,3.96150014" id="Fill-99" fill="#8FB63E"></path>
                <path d="M190.073161,3.96150014 C190.073161,51.2065001 151.774161,89.5055001 104.529161,89.5055001 C57.2841609,89.5055001 18.9851609,51.2065001 18.9851609,3.96150014" id="Fill-100" fill="#FFFCE8"></path>
                <path d="M185.977161,3.96150014 C185.556161,48.6765001 149.243161,84.9895001 104.529161,85.4095001 C59.8091609,85.8305001 23.4961609,48.0425001 23.0811609,3.96150014 C23.0311609,-1.31749986 14.8391609,-1.32249986 14.888933,3.96150014 C15.3521609,53.1345001 55.3561609,93.1385001 104.529161,93.6015001 C153.707161,94.0655001 193.712161,52.4375001 194.169389,3.96150014 C194.219161,-1.32249986 186.027161,-1.31749986 185.977161,3.96150014" id="Fill-101" fill="#D6D85B"></path>
                <path d="M123.548161,3.96150014 C123.189161,14.5985001 115.165161,22.6225001 104.529161,22.9815001 C93.8971609,23.3395001 85.8501609,14.0595001 85.5101609,3.96150014 C85.3331609,-1.30549986 77.1401609,-1.32349986 77.3191609,3.96150014 C77.8301609,19.1395001 89.3511609,30.6615001 104.529161,31.1725001 C119.698161,31.6845001 131.254161,18.3705001 131.740161,3.96150014 C131.918161,-1.32349986 123.725161,-1.30549986 123.548161,3.96150014" id="Fill-102" fill="#E7E4AE"></path>
                <path d="M112.446161,3.51450014 C112.446161,7.88650014 108.901161,11.4315001 104.529161,11.4315001 C100.157161,11.4315001 96.6121609,7.88650014 96.6121609,3.51450014" id="Fill-103" fill="#6E3F23"></path>
            </g>
        </g>
    </g>
</svg>