<?xml version="1.0" encoding="UTF-8"?>
<svg width="196px" height="266px" viewBox="0 0 196 266" version="1.1" xmlns="http://www.w3.org/2000/svg" xmlns:xlink="http://www.w3.org/1999/xlink">
    <title>Group 4</title>
    <defs>
        <path d="M42.04,251.044 C42.01,251.044 41.98,251.044 41.95,251.044 L42.14,251.044 C69.67,250.992 92.68,227.322 103.04,200.625 C115.93,167.393 108.49,126.034 74.55,109.725 C74.48,96.079 73.69,83.454 66.15,71.312 C61.84,64.381 55.98,58.753 49.21,54.606 C67.64,47.439 75.28,26.872 78.06,8.623 C78.36,6.654 77.59,3.92 75.2,3.585 C71.76,3.102 68.24,2.852 64.7,2.852 C68.24,2.852 71.76,3.102 75.2,3.585 C77.59,3.92 78.36,6.654 78.06,8.623 C75.28,26.872 67.64,47.439 49.21,54.606 C55.98,58.753 61.84,64.381 66.15,71.312 C73.69,83.454 74.48,96.079 74.55,109.725 C108.5,126.034 115.93,167.393 103.04,200.625 C92.67,227.352 69.62,251.044 42.04,251.044 M0,250.989001 L0,250.989001 C6.81,250.99 13.85,249.57 20.99,246.432 C13.85,249.57 6.81,250.99 0,250.989001 M23.93,20.862 C21.52,13.815 17.46,7.146 13.26,1.713 C12.33,0.503 11.05,0 9.8,0 C11.05,0 12.33,0.503 13.26,1.713 C17.46,7.146 21.52,13.815 23.93,20.862" id="path-1"></path>
        <linearGradient x1="27.6544451%" y1="63.4749287%" x2="59.3116014%" y2="39.7819904%" id="linearGradient-3">
            <stop stop-color="#C4B48C" offset="0%"></stop>
            <stop stop-color="#D7C08F" offset="100%"></stop>
        </linearGradient>
    </defs>
    <g id="Page-1" stroke="none" stroke-width="1" fill="none" fill-rule="evenodd">
        <g id="free-cute-fruit-vectors" transform="translate(-983.000000, -499.000000)">
            <g id="Group-4" transform="translate(983.634044, 499.692740)">
                <g id="Group-49" transform="translate(85.975956, 14.000260)">
                    <mask id="mask-2" fill="white">
                        <use xlink:href="#path-1"></use>
                    </mask>
                    <g id="Clip-48"></g>
                    <path d="M42.04,251.044 C42.01,251.044 41.98,251.044 41.95,251.044 L42.14,251.044 C69.67,250.992 92.68,227.322 103.04,200.625 C115.93,167.393 108.49,126.034 74.55,109.725 C74.48,96.079 73.69,83.454 66.15,71.312 C61.84,64.381 55.98,58.753 49.21,54.606 C67.64,47.439 75.28,26.872 78.06,8.623 C78.36,6.654 77.59,3.92 75.2,3.585 C71.76,3.102 68.24,2.852 64.7,2.852 C68.24,2.852 71.76,3.102 75.2,3.585 C77.59,3.92 78.36,6.654 78.06,8.623 C75.28,26.872 67.64,47.439 49.21,54.606 C55.98,58.753 61.84,64.381 66.15,71.312 C73.69,83.454 74.48,96.079 74.55,109.725 C108.5,126.034 115.93,167.393 103.04,200.625 C92.67,227.352 69.62,251.044 42.04,251.044 M0,250.989001 L0,250.989001 C6.81,250.99 13.85,249.57 20.99,246.432 C13.85,249.57 6.81,250.99 0,250.989001 M23.93,20.862 C21.52,13.815 17.46,7.146 13.26,1.713 C12.33,0.503 11.05,0 9.8,0 C11.05,0 12.33,0.503 13.26,1.713 C17.46,7.146 21.52,13.815 23.93,20.862" id="Fill-47" fill="url(#linearGradient-3)" mask="url(#mask-2)"></path>
                </g>
                <path d="M137.435956,112.30726 L137.435956,100.11826 C137.435956,72.8072598 115.195956,50.5142598 87.8859565,50.5142598 L87.8159565,50.5142598 C60.5059565,50.5142598 37.9659565,72.8072598 37.9659565,100.11826 L37.9659565,112.30726 C18.0659565,121.21526 3.73895645,140.48226 3.73895645,167.97326 C3.73895645,206.78626 31.9059565,247.26926 66.4659565,247.26926 C73.9959565,247.26926 81.2859565,245.34826 87.9659565,241.94426 C94.6459565,245.34826 101.905956,247.26926 109.425956,247.26926 C143.985956,247.26926 171.985956,206.78626 171.985956,167.97326 C171.985956,140.48226 158.495956,121.21626 137.435956,112.30726" id="Fill-144" fill="#DBE48B"></path>
                <path d="M141.525956,112.30726 C141.525956,97.6662598 141.135956,84.2162598 133.125956,71.3122598 C123.465956,55.7562598 105.975956,46.7132598 87.8859565,46.4182598 C69.9659565,46.1262598 53.4659565,55.7242598 43.2159565,70.0382598 C34.0859565,82.7822598 33.8659565,97.3622598 33.8659565,112.30726 C34.5459565,111.12826 35.2159565,109.95026 35.8959565,108.77126 C0.405956454,125.18726 -6.83804355,166.54226 5.74295645,200.62426 C18.3759565,234.83926 53.1259565,263.38526 90.0359565,245.48126 C88.6559565,245.48126 87.2759565,245.48126 85.8959565,245.48126 C123.235956,263.60126 156.855956,234.55526 170.015956,200.62426 C183.155956,166.73826 175.185956,124.37826 139.505956,108.77126 C134.715956,106.67626 130.535956,113.73226 135.365956,115.84426 C162.555956,127.73526 171.625956,155.90126 166.335956,183.73626 C161.405956,209.69326 143.305956,237.58926 115.735956,242.69826 C107.725956,244.18426 99.2459565,242.52826 91.8659565,239.29826 C88.4759565,237.81026 87.4659565,237.64826 84.0659565,239.29826 C79.2459565,241.63326 73.8159565,242.75926 68.5159565,243.12526 C55.0659565,244.05626 42.5459565,237.25426 33.0359565,228.30226 C12.3599565,208.84726 2.54495645,175.74926 10.7089565,148.44826 C15.1359565,133.64326 26.1959565,122.24426 40.0259565,115.84426 C41.3059565,115.25526 42.0559565,113.64326 42.0559565,112.30726 C42.0559565,100.25426 41.8759565,89.0422598 47.8459565,78.0752598 C55.7559565,63.5342598 71.4859565,54.8762598 87.8159565,54.6112598 C103.805956,54.3502598 118.545956,63.3612598 126.855956,76.7472598 C133.695956,87.7622598 133.335956,99.8992598 133.335956,112.30726 C133.335956,117.59026 141.525956,117.59026 141.525956,112.30726" id="Fill-145" fill="#B6D364"></path>
                <path d="M93.0459565,36.0042598 C94.1659565,23.8032598 87.3859565,10.9692598 80.2359565,1.71325978 C77.0559565,-2.40374022 69.9359565,1.66725978 73.1659565,5.84825978 C79.5259565,14.0782598 85.8559565,25.1092598 84.8559565,36.0042598 C84.3759565,41.2662598 92.5659565,41.2192598 93.0459565,36.0042598" id="Fill-146" fill="#8A6242"></path>
                <path d="M89.6159565,51.4472598 C89.6159565,51.4472598 132.545956,66.6942598 141.085956,7.53525978 C141.085956,7.53525978 81.4559565,-1.00474022 89.6159565,51.4472598" id="Fill-147" fill="#C1D873"></path>
                <path d="M88.5359565,55.3962598 C96.4959565,58.1842598 106.045956,57.9022598 113.995956,55.3852598 C134.015956,49.0462598 142.145956,27.5802598 145.035956,8.62325978 C145.335956,6.65425978 144.565956,3.92025978 142.175956,3.58525978 C131.415956,2.07525978 119.845956,2.84325978 109.575956,6.42325978 C89.1659565,13.5362598 82.7559565,32.3832598 85.6659565,52.5352598 C86.4259565,57.7462598 94.3159565,55.5222598 93.5659565,50.3582598 C92.2559565,41.2862598 92.7659565,31.9172598 98.0159565,24.1412598 C101.885956,18.4122598 108.575956,15.1502598 115.015956,13.2812598 C120.595956,11.6612598 126.425956,11.1352598 132.215956,11.1162598 C134.295956,11.1082598 136.375956,11.1992598 138.445956,11.3592598 C139.025956,11.4042598 142.225956,11.7972598 139.995956,11.4842598 C139.045956,9.80525978 138.085956,8.12525978 137.135956,6.44625978 C134.585956,23.1532598 128.355956,42.6932598 110.305956,47.9442598 C104.015956,49.7762598 96.7959565,49.6262598 90.7059565,47.4962598 C85.7059565,45.7462598 83.5759565,53.6622598 88.5359565,55.3962598" id="Fill-148" fill="#8FB63E"></path>
                <path d="M91.0159565,50.0162598 C91.0159565,50.0162598 114.055956,24.8032598 137.855956,11.6622598" id="Fill-149" fill="#C1D873"></path>
                <path d="M93.9059565,52.9122598 C107.235956,38.3902598 122.735956,24.8902598 139.925956,15.2002598 C144.525956,12.6062598 140.395956,5.52925978 135.785956,8.12525978 C118.025956,18.1382598 101.885956,32.1162598 88.1159565,47.1202598 C84.5559565,51.0042598 90.3359565,56.8132598 93.9059565,52.9122598" id="Fill-150" fill="#8FB63E"></path>
                <path d="M150.605956,162.39826 C147.475956,151.17426 140.925956,142.20626 132.125956,135.91126" id="Fill-151" fill="#E2E676"></path>
                <path d="M154.555956,161.30926 C151.035956,149.42226 144.145956,139.72826 134.195956,132.37326 C129.945956,129.22926 125.865956,136.34426 130.065956,139.44726 C138.225956,145.48626 143.785956,153.78226 146.655956,163.48726 C148.145956,168.54026 156.055956,166.38726 154.555956,161.30926" id="Fill-152" fill="#FFFCE8"></path>
            </g>
        </g>
    </g>
</svg>