<svg width="226px" height="253px" viewBox="0 0 226 253">
    <defs>
        <path d="M73.697,231.188 C69.178,231.188 64.988,229.75 61.538,227.312 C64.988,229.75 69.177,231.188 73.697,231.188 C84.93,231.188 92.827,223.514 94.215,212.884 C141.75,202.898 176.091,160.541 176.494,111.875 C176.314,90.113 169.348,69.613 157.45,52.704 C169.348,69.613 176.314,90.114 176.494,111.875 C176.092,160.541 141.75,202.899 94.216,212.884 C92.828,223.514 84.931,231.188 73.697,231.188 M52.594,212.923 C32.421,208.617 14.176,198.162 0,183.776 C14.176,198.162 32.42,208.616 52.593,212.923 M94.249,10.872 L94.249,10.872 C93.757,6.571 92.309,2.886 89.97,0.04 C92.309,2.886 93.758,6.572 94.249,10.873" id="path-1"></path>
        <linearGradient x1="12.7254402%" y1="62.421925%" x2="77.4628234%" y2="34.8691541%" id="linearGradient-3">
            <stop stop-color="#C4B48C" offset="0%"></stop>
            <stop stop-color="#D7C08F" offset="100%"></stop>
        </linearGradient>
    </defs>
    <g id="Page-1" stroke="none" stroke-width="1" fill="none" fill-rule="evenodd">
        <g id="free-cute-fruit-vectors" transform="translate(-590.000000, -499.000000)">
            <g id="Group-6" transform="translate(590.551398, 499.693000)">
                <g id="Group-41" transform="translate(48.949602, 20.373000)">
                    <mask id="mask-2" fill="white">
                        <use xlink:href="#path-1"></use>
                    </mask>
                    <g id="Clip-40"></g>
                    <path d="M73.697,231.188 C69.178,231.188 64.988,229.75 61.538,227.312 C64.988,229.75 69.177,231.188 73.697,231.188 C84.93,231.188 92.827,223.514 94.215,212.884 C141.75,202.898 176.091,160.541 176.494,111.875 C176.314,90.113 169.348,69.613 157.45,52.704 C169.348,69.613 176.314,90.114 176.494,111.875 C176.092,160.541 141.75,202.899 94.216,212.884 C92.828,223.514 84.931,231.188 73.697,231.188 M52.594,212.923 C32.421,208.617 14.176,198.162 0,183.776 C14.176,198.162 32.42,208.616 52.593,212.923 M94.249,10.872 L94.249,10.872 C93.757,6.571 92.309,2.886 89.97,0.04 C92.309,2.886 93.758,6.572 94.249,10.873" id="Fill-39" fill="url(#linearGradient-3)" mask="url(#mask-2)"></path>
                </g>
                <path d="M201.485602,118.248 C201.485602,69.334 166.448602,28.723 119.448602,20.621 L119.448602,18.184 C119.448602,9.646 114.410602,5.307 105.839602,5.307 L102.455602,5.307 C93.8856021,5.307 86.4486021,9.646 86.4486021,18.184 L86.4486021,20.579 C40.4486021,28.583 4.17460205,69.251 4.17460205,118.248 C4.17460205,167.245 40.4486021,207.912 86.4486021,215.916 L86.4486021,216.443 C86.4486021,224.981 93.8856021,234.307 102.455602,234.307 L105.839602,234.307 C114.410602,234.307 119.448602,224.981 119.448602,216.443 L119.448602,215.874 C166.448602,207.773 201.485602,167.162 201.485602,118.248" id="Fill-126" fill="#FBE05A"></path>
                <path d="M206.443779,118.248 C206.033602,68.639 170.367602,25.562 121.398602,16.672 C122.401602,17.989 123.403602,19.305 124.406602,20.621 C124.406602,8.291 117.387602,-5.68434189e-14 104.648602,-5.68434189e-14 C91.6586021,-5.68434189e-14 82.2776021,7.108 82.2776021,20.579 C83.2796021,19.263 84.2816021,17.947 85.2836021,16.629 C36.7116021,25.573 0.431602053,68.933 0.003602053,118.248 C-0.424397947,167.483 37.3416021,211.039 85.2836021,219.867 C84.2816021,218.549 83.2796021,217.233 82.2776021,215.916 C82.2776021,227.743 91.8376021,237.561 103.646602,237.561 C116.043602,237.561 124.406602,228.228 124.406602,215.874 C123.403602,217.191 122.401602,218.507 121.398602,219.824 C170.367602,210.934 206.033602,167.857 206.443779,118.248 C206.487602,112.964 198.295602,112.968 198.252602,118.248 C197.869602,164.476 164.650602,203.677 119.221602,211.925 C117.450602,212.246 116.214602,214.176 116.214602,215.874 C116.214602,222.901 112.162602,229.37 104.648602,229.37 C96.9056021,229.37 90.4696021,224.101 90.4696021,215.916 C90.4696021,214.215 89.2326021,212.293 87.4616021,211.967 C42.4296021,203.676 8.59460205,164.176 8.19560205,118.248 C7.79660205,72.395 43.0166021,32.711 87.4616021,24.529 C89.2326021,24.203 90.4696021,22.281 90.4696021,20.579 C90.4696021,12.359 95.4746021,8.192 103.646602,8.192 C112.226602,8.192 116.214602,12.059 116.214602,20.621 C116.214602,22.32 117.450602,24.249 119.221602,24.571 C164.650602,32.819 197.869602,72.02 198.252602,118.248 C198.295602,123.529 206.487602,123.533 206.443779,118.248" id="Fill-127" fill="#F2B12A"></path>
                <path d="M177.949602,93.484 C175.713602,82.05 169.886602,72.596 161.611602,65.628" id="Fill-128" fill="#E2E676"></path>
                <path d="M181.898602,92.395 C179.419602,80.755 173.493602,70.549 164.508602,62.732 C160.541602,59.283 154.722602,65.051 158.715602,68.525 C166.742602,75.508 171.783602,84.171 173.999602,94.573 C175.099602,99.739 182.996602,97.547 181.898602,92.395" id="Fill-129" fill="#FFFCE8"></path>
            </g>
        </g>
    </g>
</svg>
