<?xml version="1.0" encoding="UTF-8"?>
<svg width="229px" height="240px" viewBox="0 0 229 240" version="1.1" xmlns="http://www.w3.org/2000/svg" xmlns:xlink="http://www.w3.org/1999/xlink">
    <title>Group 7</title>
    <defs>
        <path d="M0.06,173.293 C0.04,173.293 0.02,173.293 0,173.293 L0.121,173.293 C0.101,173.293 0.08,173.293 0.06,173.293 M129.352104,74.936 L129.352104,74.638 C129.322,55.719 123.707,37.2 111.11,22.481 C101.254,10.965 87.764,3.678 73.286,0 C87.764,3.678 101.254,10.965 111.11,22.481 C123.773,37.276 129.38,55.915 129.352104,74.936" id="path-1"></path>
        <linearGradient x1="-11.0090791%" y1="57.6434132%" x2="74.3542378%" y2="20.4851321%" id="linearGradient-3">
            <stop stop-color="#C4B48C" offset="0%"></stop>
            <stop stop-color="#D7C08F" offset="100%"></stop>
        </linearGradient>
    </defs>
    <g id="Page-1" stroke="none" stroke-width="1" fill="none" fill-rule="evenodd">
        <g id="free-cute-fruit-vectors" transform="translate(-217.000000, -499.000000)">
            <g id="Group-7" transform="translate(217.793170, 499.692831)">
                <g id="Group-25" transform="translate(98.639830, 65.358169)">
                    <mask id="mask-2" fill="white">
                        <use xlink:href="#path-1"></use>
                    </mask>
                    <g id="Clip-24"></g>
                    <path d="M0.06,173.293 C0.04,173.293 0.02,173.293 0,173.293 L0.121,173.293 C0.101,173.293 0.08,173.293 0.06,173.293 M129.352104,74.936 L129.352104,74.638 C129.322,55.719 123.707,37.2 111.11,22.481 C101.254,10.965 87.764,3.678 73.286,0 C87.764,3.678 101.254,10.965 111.11,22.481 C123.773,37.276 129.38,55.915 129.352104,74.936" id="Fill-23" fill="url(#linearGradient-3)" mask="url(#mask-2)"></path>
                </g>
                <path d="M107.76483,54.1201694 C108.58983,38.0001694 104.87083,19.7781694 94.9558301,6.82416942 C91.7918301,2.69016942 84.6708301,6.76216942 87.8828301,10.9581694 C97.0218301,22.9001694 100.33283,39.2631694 99.5728301,54.1201694 C99.3018301,59.4031694 107.49583,59.3761694 107.76483,54.1201694" id="Fill-89" fill="#8A6242"></path>
                <path d="M130.13583,52.5601694 C121.14083,52.5601694 112.51783,53.8341694 104.52883,56.3041694 C96.5398301,53.8341694 87.9158301,52.5601694 78.9208301,52.5601694 C37.6108301,52.5601694 4.12383013,79.3911694 4.12383013,125.789169 C4.12383013,172.188169 37.6108301,220.582169 78.9208301,220.582169 C87.9158301,220.582169 96.5398301,218.286169 104.52883,214.217169 C112.51783,218.286169 121.14183,220.582169 130.13583,220.582169 C171.44583,220.582169 204.93483,172.188169 204.93483,125.789169 C204.93483,79.3911694 171.44583,52.5601694 130.13583,52.5601694" id="Fill-90" fill="#E2E676"></path>
                <path d="M130.13583,48.4631694 C121.76183,48.5631694 113.54583,49.6051694 105.44983,51.7621694 C102.21983,52.6221694 96.5118301,50.0851694 93.1908301,49.5561694 C88.4678301,48.8031694 83.6988301,48.5201694 78.9208301,48.4631694 C66.9688301,48.3231694 54.7198301,50.7011694 43.7738301,55.5031694 C21.6418301,65.2141694 6.48483013,84.6201694 1.69383013,108.232169 C-8.11616987,156.574169 25.5188301,225.725169 80.9898301,224.638169 C89.9528301,224.462169 98.6148301,221.659169 106.59583,217.753169 C105.21783,217.753169 103.83983,217.753169 102.46083,217.753169 C155.79283,243.844169 200.94383,189.101169 207.95183,140.468169 C211.36783,116.755169 206.55483,92.3051694 190.74983,73.8391694 C175.81983,56.3941694 152.55183,48.6461694 130.13583,48.4631694 C124.85183,48.4201694 124.85583,56.6131694 130.13583,56.6561694 C154.90283,56.8571694 178.71083,67.2371694 191.66683,89.0681694 C206.09483,113.379169 202.15483,145.336169 190.70583,169.944169 C179.62683,193.754169 157.93683,216.090169 130.13583,216.487169 C125.68983,216.550169 121.35083,215.803169 117.05883,214.717169 C113.05283,213.703169 109.52283,211.341169 105.61783,210.267169 C102.58283,209.433169 98.5768301,212.511169 95.8928301,213.505169 C91.1048301,215.277169 86.0688301,216.148169 80.9898301,216.447169 C67.7328301,217.224169 54.7898301,211.741169 44.4718301,203.745169 C12.5668301,179.021169 -2.89816987,126.807169 16.6878301,90.3121694 C25.2208301,74.4131694 40.6158301,63.9451694 57.7678301,59.2911694 C68.2348301,56.4511694 79.2198301,56.1451694 89.9528301,57.3141694 C95.7358301,57.9431694 101.96683,61.3291694 107.62783,59.6611694 C114.94083,57.5051694 122.53983,56.7451694 130.13583,56.6561694 C135.41483,56.5931694 135.42083,48.4011694 130.13583,48.4631694" id="Fill-91" fill="#8FB63E"></path>
                <path d="M181.45383,106.124169 C177.61883,95.1231694 170.50983,86.5911694 161.32983,80.8691694" id="Fill-92" fill="#E2E676"></path>
                <path d="M185.40283,105.036169 C181.15783,93.4291694 173.80383,84.0341694 163.39683,77.3311694 C158.94083,74.4621694 154.83783,81.5561694 159.26183,84.4051694 C167.78483,89.8931694 174.01983,97.6881694 177.50383,107.213169 C179.30283,112.132169 187.22183,110.008169 185.40283,105.036169" id="Fill-93" fill="#FFFCE8"></path>
                <path d="M107.93583,57.0441694 C107.93583,57.0441694 159.00383,75.1831694 169.16083,4.80516942 C169.16083,4.80516942 98.2258301,-5.35383058 107.93583,57.0441694" id="Fill-94" fill="#C1D873"></path>
                <path d="M106.84683,60.9941694 C116.14283,64.2551694 127.29683,63.9491694 136.58183,61.0291694 C160.20183,53.6011694 169.73483,28.2261694 173.11083,5.89416942 C173.40883,3.92316942 172.64083,1.19216942 170.24983,0.855169418 C157.70883,-0.910830582 144.18183,0.00216941795 132.19783,4.11916942 C123.03283,7.26716942 115.06483,12.8061694 109.61183,20.8771694 C102.27383,31.7401694 102.15983,45.6611694 103.98683,58.1331694 C104.74983,63.3441694 112.64183,61.1201694 111.88583,55.9551694 C110.28583,45.0301694 110.86783,33.6231694 117.20483,24.2431694 C121.88283,17.3181694 129.82683,13.2811694 137.62383,10.9821694 C144.40783,8.98316942 151.49883,8.31316942 158.54683,8.28716942 C160.98083,8.28016942 163.41583,8.38016942 165.84283,8.56316942 C166.49983,8.61316942 170.37783,9.07916942 168.07183,8.75416942 C167.11883,7.07516942 166.16483,5.39616942 165.21083,3.71616942 C162.17583,23.7981694 154.53683,47.2451694 132.89983,53.5861694 C125.29983,55.8141694 116.45583,55.7021694 109.02483,53.0951694 C104.02683,51.3411694 101.89683,59.2571694 106.84683,60.9941694" id="Fill-95" fill="#8FB63E"></path>
                <path d="M112.16483,54.1201694 C112.16483,54.1201694 140.95783,22.0321694 164.75283,8.89116942" id="Fill-96" fill="#C1D873"></path>
                <path d="M115.06083,57.0171694 C130.07983,40.3211694 147.17283,23.5121694 166.81983,12.4281694 C171.41983,9.83216942 167.29183,2.75516942 162.68583,5.35516942 C142.44383,16.7751694 124.73983,34.0261694 109.26883,51.2251694 C105.74783,55.1401694 111.52183,60.9531694 115.06083,57.0171694" id="Fill-97" fill="#8FB63E"></path>
            </g>
        </g>
    </g>
</svg>