<svg width="100px" height="100px" viewBox="0 0 225 122">
    <title>Group 11</title>
    <defs>
        <path d="M102.995,106.527 C102.966,106.527 102.94,106.527 102.912,106.527 L103.087,106.527 C151.378,106.485 194.385,70.66 203.331,22.722 C204.485,16.536 204.981,10.423 205.032127,4.137 C205.049,1.904 203.155,0.232 200.935,0.232 C195.11,0.232 189.285,0.232 183.46,0.232 C131.104,0.232 78.747,0.232 26.391,0.232 C25.236,0.232 24.101,0.232 22.973,0.232 C22.503,0.077 22.006,0 21.509,0 C22.006,0 22.503,0.077 22.974,0.232 C24.102,0.232 25.237,0.232 26.391,0.232 C78.748,0.232 131.104,0.232 183.46,0.232 C189.286,0.232 195.111,0.232 200.936,0.232 C203.155,0.232 205.05,1.904 205.032127,4.137 C204.981,10.423 204.485,16.536 203.331,22.722 C194.379,70.691 151.324,106.531 102.995,106.527 M20.058,0.232 C15.341,0.232 10.666,0.232 5.506,0.232 C5.037,0.078 4.54,0 4.044,0 L4.045,0 C4.54,0 5.037,0.078 5.506,0.232 C10.667,0.232 15.341,0.232 20.058,0.232" id="path-1"></path>
        <linearGradient x1="7.66026291%" y1="53.7246792%" x2="100.421823%" y2="38.0650619%" id="linearGradient-3">
            <stop stop-color="#C4B48C" offset="0%"></stop>
            <stop stop-color="#D7C08F" offset="100%"></stop>
        </linearGradient>
    </defs>
    <g id="Page-1" stroke="none" stroke-width="1" fill="none" fill-rule="evenodd">
        <g id="free-cute-fruit-vectors" transform="translate(-219.000000, -346.000000)">
            <g id="Group-11" transform="translate(219.772831, 346.763976)">
                <g id="Group-5" transform="translate(19.000169, 14.004024)">
                    <mask id="mask-2" fill="white">
                        <use xlink:href="#path-1"></use>
                    </mask>
                    <g id="Clip-4"></g>
                    <path d="M102.995,106.527 C102.966,106.527 102.94,106.527 102.912,106.527 L103.087,106.527 C151.378,106.485 194.385,70.66 203.331,22.722 C204.485,16.536 204.981,10.423 205.032127,4.137 C205.049,1.904 203.155,0.232 200.935,0.232 C195.11,0.232 189.285,0.232 183.46,0.232 C131.104,0.232 78.747,0.232 26.391,0.232 C25.236,0.232 24.101,0.232 22.973,0.232 C22.503,0.077 22.006,0 21.509,0 C22.006,0 22.503,0.077 22.974,0.232 C24.102,0.232 25.237,0.232 26.391,0.232 C78.748,0.232 131.104,0.232 183.46,0.232 C189.286,0.232 195.111,0.232 200.936,0.232 C203.155,0.232 205.05,1.904 205.032127,4.137 C204.981,10.423 204.485,16.536 203.331,22.722 C194.379,70.691 151.324,106.531 102.995,106.527 M20.058,0.232 C15.341,0.232 10.666,0.232 5.506,0.232 C5.037,0.078 4.54,0 4.044,0 L4.045,0 C4.54,0 5.037,0.078 5.506,0.232 C10.667,0.232 15.341,0.232 20.058,0.232" id="Fill-3" fill="url(#linearGradient-3)" mask="url(#mask-2)"></path>
                </g>
                <path d="M4.09616869,4.236024 C4.09616869,59.236024 48.1601687,102.656024 102.516169,102.656024 C156.872169,102.656024 200.936169,59.236024 200.936169,4.236024 L4.09616869,4.236024" id="Fill-51" fill="#5A371F"></path>
                <path d="M-2.84217094e-14,3.950024 C0.42316869,56.793024 40.3681687,100.535024 92.8501687,106.004024 C145.169169,111.455024 193.758169,74.027024 203.331169,22.726024 C204.485169,16.540024 204.981169,10.427024 205.032296,4.141024 C205.050169,1.908024 203.155169,0.236023996 200.936169,0.236023996 C142.754169,0.236023996 84.5731687,0.236023996 26.3921687,0.236023996 C18.9591687,0.236023996 12.2271687,0.236023996 4.22716869,0.236023996 C-0.77283131,0.236023996 -0.77283131,8.236024 4.22716869,8.236024 C62.2271687,8.236024 120.459169,8.236024 178.641169,8.236024 C186.072169,8.236024 193.504169,8.236024 200.936169,8.236024 C199.571169,6.236024 198.206169,5.410024 196.840169,4.045024 C196.424169,56.001024 154.481169,97.907024 102.516169,98.321024 C50.5441687,98.736024 8.60316869,55.304024 8.19216869,3.973024 C8.14916869,-1.305976 -0.0428313102,-1.334976 -2.84217094e-14,3.950024" id="Fill-52" fill="#3C261A"></path>
                <path d="M21.5721687,4.236024 C21.5721687,48.236024 57.8131687,85.178024 102.516169,85.178024 C147.220169,85.178024 183.460169,48.236024 183.460169,4.236024 L21.5721687,4.236024" id="Fill-53" fill="#FBF5EE"></path>
                <path d="M17.4769029,3.950024 C17.9481687,50.397024 56.0791687,88.516024 102.516169,88.988024 C148.957169,89.461024 187.092169,49.879024 187.556375,4.141024 C187.579169,1.908024 185.676169,0.236023996 183.460169,0.236023996 C129.731169,0.236023996 76.0021687,0.236023996 22.2721687,0.236023996 C22.0391687,0.236023996 21.2271687,0.236023996 21.2271687,0.236023996 C17.2271687,0.236023996 17.2271687,8.236024 21.2271687,8.236024 C75.2271687,8.236024 129.031169,8.236024 182.760169,8.236024 C182.994169,8.236024 183.227169,8.236024 183.460169,8.236024 C182.095169,6.236024 180.730169,5.410024 179.364169,4.045024 C178.938169,46.032024 144.493169,80.417024 102.516169,80.844024 C60.5361687,81.271024 26.0871687,45.318024 25.6681687,3.973024 C25.6151687,-1.305976 17.4231687,-1.334976 17.4769029,3.950024" id="Fill-54" fill="#D2D2CC"></path>
            </g>
        </g>
    </g>
</svg>
