<?xml version="1.0" encoding="UTF-8"?>
<svg width="1197px" height="808px" viewBox="0 0 1197 808" version="1.1" xmlns="http://www.w3.org/2000/svg" xmlns:xlink="http://www.w3.org/1999/xlink">
    <title>Group</title>
    <g id="Page-1" stroke="none" stroke-width="1" fill="none" fill-rule="evenodd">
        <g id="Group" transform="translate(0.736890, 0.764045)" fill-rule="nonzero">
            <path d="M1051.33311,744.075955 L1159.66311,763.185955 L1178.76311,654.855955 L1070.43311,635.755955 L1051.33311,744.075955 Z M1171.82311,780.565955 L1033.95311,756.245955 L1058.27311,618.375955 L1196.14311,642.685955 L1171.82311,780.565955 L1171.82311,780.565955 Z" id="Fill-4" fill="#B899CF"></path>
            <polyline id="Fill-7" fill="#B899CF" points="847.42311 807.005955 483.70211 596.995955 693.71411 233.265955 1057.44311 443.275955 847.42311 807.005955"></polyline>
            <path d="M19.9961101,267.865955 C0.89111009,256.835955 -5.67788991,232.325955 5.35211009,213.215955 C16.3821101,194.115955 40.8981101,187.545955 60.0031101,198.575955 C79.1091101,209.605955 85.6781101,234.125955 74.6471101,253.225955 C63.6171101,272.335955 39.1011101,278.895955 19.9961101,267.865955" id="Fill-14" fill="#FFCC71"></path>
            <path d="M287.63811,103.125955 C263.75711,89.3359548 255.54511,58.6959548 269.33311,34.8059548 C283.12111,10.9259548 313.76611,2.71595477 337.64811,16.5059548 C361.52911,30.2959548 369.74011,60.9359548 355.95311,84.8159548 C342.16511,108.695955 311.51911,116.915955 287.63811,103.125955" id="Fill-21" fill="#16D6C8"></path>
            <path d="M707.93711,744.045955 C690.01311,775.095955 650.17411,785.765955 619.12811,767.845955 C588.08311,749.915955 577.40811,710.085955 595.33211,679.035955 C613.25611,647.985955 653.09511,637.315955 684.14111,655.235955 C715.18711,673.165955 725.86211,713.005955 707.93711,744.045955" id="Fill-22" fill="#FFCC71"></path>
            <path d="M527.23911,129.955955 C529.12811,124.765955 526.45211,119.025955 521.26411,117.145955 C516.07611,115.255955 510.33911,117.925955 508.45011,123.115955 C506.56211,128.305955 509.23711,134.045955 514.42511,135.925955 C519.61411,137.815955 525.35111,135.145955 527.23911,129.955955" id="Fill-79" fill="#393939"></path>
            <path d="M736.65811,364.655955 C738.54611,359.465955 735.87111,353.725955 730.68211,351.845955 C725.49411,349.955955 719.75711,352.625955 717.86911,357.815955 C715.98011,363.005955 718.65511,368.745955 723.84411,370.625955 C729.03211,372.515955 734.76911,369.845955 736.65811,364.655955" id="Fill-80" fill="#393939"></path>
            <path d="M693.17811,0.605954769 C687.98911,-1.28404523 682.25211,1.39595477 680.36411,6.57595477 C678.47511,11.7659548 681.15111,17.5059548 686.33911,19.3959548 C691.52711,21.2859548 697.26411,18.6059548 699.15311,13.4159548 C701.04111,8.22595477 698.36611,2.49595477 693.17811,0.605954769" id="Fill-81" fill="#393939"></path>
            <path d="M824.71311,343.795955 C819.53311,341.905955 813.79311,344.575955 811.90311,349.765955 C810.01311,354.955955 812.69311,360.695955 817.88311,362.575955 C823.06311,364.465955 828.80311,361.795955 830.69311,356.605955 C832.58311,351.415955 829.90311,345.675955 824.71311,343.795955" id="Fill-82" fill="#393939"></path>
            <path d="M615.38611,183.365955 C617.27511,178.185955 614.59911,172.445955 609.41111,170.555955 C604.22311,168.665955 598.48611,171.345955 596.59711,176.535955 C594.70911,181.715955 597.38411,187.455955 602.57211,189.345955 C607.76111,191.235955 613.49811,188.555955 615.38611,183.365955" id="Fill-83" fill="#393939"></path>
            <path d="M807.21311,421.505955 C802.02311,419.615955 796.28311,422.285955 794.40311,427.475955 C792.51311,432.665955 795.18311,438.405955 800.37311,440.295955 C805.56311,442.185955 811.30311,439.505955 813.18311,434.315955 C815.07311,429.125955 812.40311,423.395955 807.21311,421.505955" id="Fill-84" fill="#393939"></path>
            <path d="M1016.68311,357.845955 C1011.49311,355.955955 1005.75311,358.625955 1003.87311,363.815955 C1001.98311,369.005955 1004.65311,374.745955 1009.84311,376.625955 C1015.03311,378.515955 1020.77311,375.845955 1022.65311,370.655955 C1024.54311,365.465955 1021.87311,359.725955 1016.68311,357.845955" id="Fill-85" fill="#393939"></path>
            <path d="M798.72311,524.695955 C800.61311,519.505955 797.93311,513.765955 792.74311,511.885955 C787.55311,509.995955 781.82311,512.665955 779.93311,517.855955 C778.04311,523.045955 780.72311,528.785955 785.90311,530.665955 C791.09311,532.555955 796.83311,529.885955 798.72311,524.695955" id="Fill-86" fill="#393939"></path>
            <path d="M809.04311,212.985955 C803.85311,211.095955 798.11311,213.765955 796.22311,218.955955 C794.33311,224.145955 797.01311,229.885955 802.20311,231.775955 C807.39311,233.655955 813.12311,230.985955 815.01311,225.795955 C816.90311,220.605955 814.23311,214.865955 809.04311,212.985955" id="Fill-87" fill="#393939"></path>
            <path d="M712.68211,253.845955 C707.49411,251.955955 701.75711,254.625955 699.86911,259.815955 C697.98011,265.005955 700.65511,270.745955 705.84411,272.625955 C711.03211,274.515955 716.76911,271.845955 718.65811,266.655955 C720.54611,261.465955 717.87111,255.725955 712.68211,253.845955" id="Fill-88" fill="#393939"></path>
            <path d="M588.06111,562.035955 C589.95011,556.845955 587.27511,551.115955 582.08611,549.225955 C576.89811,547.335955 571.16111,550.005955 569.27211,555.195955 C567.38411,560.385955 570.05911,566.125955 575.24711,568.015955 C580.43611,569.895955 586.17311,567.225955 588.06111,562.035955" id="Fill-89" fill="#393939"></path>
            <path d="M514.22011,279.245955 C516.10911,274.055955 513.43411,268.315955 508.24511,266.425955 C503.05711,264.535955 497.32011,267.215955 495.43211,272.405955 C493.54311,277.585955 496.21811,283.325955 501.40711,285.215955 C506.59511,287.105955 512.33211,284.425955 514.22011,279.245955" id="Fill-90" fill="#393939"></path>
            <path d="M999.93311,538.335955 C1001.82311,533.145955 999.14311,527.405955 993.96311,525.515955 C988.77311,523.625955 983.03311,526.305955 981.14311,531.495955 C979.25311,536.685955 981.93311,542.415955 987.12311,544.305955 C992.31311,546.195955 998.04311,543.515955 999.93311,538.335955" id="Fill-91" fill="#393939"></path>
            <path d="M736.65811,440.655955 C738.54611,435.465955 735.87111,429.725955 730.68211,427.845955 C725.49411,425.955955 719.75711,428.625955 717.86911,433.815955 C715.98011,439.005955 718.65511,444.745955 723.84411,446.625955 C729.03211,448.515955 734.76911,445.845955 736.65811,440.655955" id="Fill-92" fill="#393939"></path>
            <path d="M852.68311,275.845955 C847.49311,273.955955 841.75311,276.625955 839.87311,281.815955 C837.98311,287.005955 840.65311,292.745955 845.84311,294.625955 C851.03311,296.515955 856.77311,293.845955 858.65311,288.655955 C860.54311,283.465955 857.87311,277.725955 852.68311,275.845955" id="Fill-93" fill="#393939"></path>
            <path d="M518.47411,348.285955 C513.28611,346.405955 507.54911,349.075955 505.66011,354.265955 C503.77211,359.455955 506.44711,365.195955 511.63511,367.075955 C516.82411,368.965955 522.56111,366.295955 524.44911,361.105955 C526.33811,355.915955 523.66211,350.175955 518.47411,348.285955" id="Fill-94" fill="#393939"></path>
            <path d="M628.56811,389.475955 C630.45611,384.285955 627.78111,378.545955 622.59211,376.665955 C617.40411,374.775955 611.66711,377.445955 609.77911,382.635955 C607.89011,387.825955 610.56511,393.565955 615.75411,395.455955 C620.94211,397.335955 626.67911,394.665955 628.56811,389.475955" id="Fill-95" fill="#393939"></path>
            <path d="M551.86511,447.345955 C546.67611,445.465955 540.93911,448.135955 539.05111,453.325955 C537.16211,458.515955 539.83811,464.245955 545.02611,466.135955 C550.21411,468.025955 555.95111,465.355955 557.84011,460.165955 C559.72811,454.975955 557.05311,449.235955 551.86511,447.345955" id="Fill-96" fill="#393939"></path>
            <path d="M897.79311,221.495955 C899.68311,216.305955 897.00311,210.575955 891.81311,208.685955 C886.63311,206.795955 880.89311,209.465955 879.00311,214.655955 C877.11311,219.845955 879.79311,225.585955 884.98311,227.475955 C890.16311,229.365955 895.90311,226.685955 897.79311,221.495955" id="Fill-97" fill="#393939"></path>
            <path d="M972.68311,453.845955 C967.49311,451.955955 961.75311,454.625955 959.87311,459.815955 C957.98311,465.005955 960.65311,470.745955 965.84311,472.625955 C971.03311,474.515955 976.77311,471.845955 978.65311,466.655955 C980.54311,461.465955 977.87311,455.725955 972.68311,453.845955" id="Fill-98" fill="#393939"></path>
            <path d="M890.74311,98.4459548 C885.55311,96.5559548 879.81311,99.2359548 877.92311,104.425955 C876.03311,109.605955 878.71311,115.345955 883.90311,117.235955 C889.08311,119.125955 894.82311,116.445955 896.71311,111.255955 C898.60311,106.075955 895.92311,100.335955 890.74311,98.4459548" id="Fill-99" fill="#393939"></path>
            <path d="M879.37311,363.815955 C874.18311,361.925955 868.44311,364.595955 866.55311,369.785955 C864.66311,374.975955 867.34311,380.715955 872.53311,382.605955 C877.72311,384.485955 883.45311,381.815955 885.34311,376.625955 C887.23311,371.435955 884.55311,365.705955 879.37311,363.815955" id="Fill-100" fill="#393939"></path>
            <path d="M620.06811,276.695955 C621.95611,271.505955 619.28111,265.765955 614.09311,263.885955 C608.90411,261.995955 603.16711,264.665955 601.27911,269.855955 C599.39111,275.045955 602.06611,280.785955 607.25411,282.665955 C612.44311,284.555955 618.17911,281.885955 620.06811,276.695955" id="Fill-101" fill="#393939"></path>
            <path d="M662.07811,449.255955 C656.89011,447.365955 651.15311,450.045955 649.26411,455.235955 C647.37611,460.415955 650.05111,466.155955 655.23911,468.045955 C660.42811,469.935955 666.16511,467.255955 668.05311,462.065955 C669.94211,456.885955 667.26611,451.145955 662.07811,449.255955" id="Fill-102" fill="#393939"></path>
            <path d="M739.90311,160.295955 C741.79211,155.105955 739.11611,149.365955 733.92811,147.475955 C728.74011,145.585955 723.00311,148.265955 721.11411,153.455955 C719.22611,158.645955 721.90111,164.375955 727.08911,166.265955 C732.27811,168.155955 738.01511,165.475955 739.90311,160.295955" id="Fill-103" fill="#393939"></path>
            <path d="M684.20011,531.425955 C679.01211,529.535955 673.27511,532.205955 671.38611,537.395955 C669.49811,542.585955 672.17311,548.325955 677.36111,550.205955 C682.55011,552.095955 688.28711,549.425955 690.17511,544.235955 C692.06311,539.045955 689.38811,533.305955 684.20011,531.425955" id="Fill-104" fill="#393939"></path>
            <path d="M383.77011,408.775955 C385.65811,403.585955 382.98311,397.845955 377.79411,395.955955 C372.60611,394.065955 366.86911,396.745955 364.98111,401.935955 C363.09211,407.125955 365.76811,412.855955 370.95611,414.745955 C376.14411,416.635955 381.88111,413.965955 383.77011,408.775955" id="Fill-105" fill="#393939"></path>
            <path d="M897.20311,424.595955 C892.01311,422.705955 886.28311,425.385955 884.39311,430.565955 C882.50311,435.755955 885.18311,441.495955 890.36311,443.385955 C895.55311,445.275955 901.29311,442.595955 903.18311,437.405955 C905.07311,432.225955 902.39311,426.485955 897.20311,424.595955" id="Fill-106" fill="#393939"></path>
            <path d="M359.71511,267.365955 C354.52711,265.475955 348.79011,268.155955 346.90211,273.335955 C345.01311,278.525955 347.68811,284.265955 352.87711,286.155955 C358.06511,288.045955 363.80211,285.365955 365.69011,280.175955 C367.57911,274.985955 364.90411,269.255955 359.71511,267.365955" id="Fill-107" fill="#393939"></path>
            <path d="M462.85211,497.965955 C464.74011,492.775955 462.06511,487.035955 456.87711,485.145955 C451.68811,483.265955 445.95111,485.935955 444.06311,491.125955 C442.17511,496.315955 444.85011,502.045955 450.03811,503.935955 C455.22711,505.825955 460.96311,503.155955 462.85211,497.965955" id="Fill-108" fill="#393939"></path>
            <path d="M434.00611,647.835955 C428.81811,645.945955 423.08111,648.625955 421.19211,653.815955 C419.30411,659.005955 421.97911,664.735955 427.16711,666.625955 C432.35611,668.515955 438.09311,665.835955 439.98111,660.655955 C441.87011,655.465955 439.19411,649.725955 434.00611,647.835955" id="Fill-109" fill="#393939"></path>
            <path d="M910.54311,536.665955 C912.43311,531.475955 909.75311,525.735955 904.56311,523.845955 C899.37311,521.955955 893.64311,524.635955 891.75311,529.825955 C889.86311,535.015955 892.54311,540.745955 897.72311,542.635955 C902.91311,544.525955 908.65311,541.855955 910.54311,536.665955" id="Fill-110" fill="#393939"></path>
            <path d="M982.65311,276.655955 C984.54311,271.465955 981.87311,265.725955 976.68311,263.845955 C971.49311,261.955955 965.75311,264.625955 963.87311,269.815955 C961.98311,275.005955 964.65311,280.745955 969.84311,282.625955 C975.03311,284.515955 980.77311,281.845955 982.65311,276.655955" id="Fill-111" fill="#393939"></path>
            <path d="M824.79311,633.475955 C826.67311,628.285955 824.00311,622.545955 818.81311,620.665955 C813.62311,618.775955 807.89311,621.445955 806.00311,626.635955 C804.11311,631.825955 806.78311,637.565955 811.97311,639.445955 C817.16311,641.335955 822.90311,638.665955 824.79311,633.475955" id="Fill-112" fill="#393939"></path>
            <path d="M1022.68311,185.845955 C1017.49311,183.955955 1011.75311,186.625955 1009.87311,191.815955 C1007.98311,197.005955 1010.65311,202.745955 1015.84311,204.625955 C1021.03311,206.515955 1026.77311,203.845955 1028.65311,198.655955 C1030.54311,193.465955 1027.87311,187.725955 1022.68311,185.845955" id="Fill-113" fill="#393939"></path>
        </g>
    </g>
</svg>