<?xml version="1.0" encoding="UTF-8"?>
<svg width="1858px" height="1482px" viewBox="0 0 1858 1482" version="1.1" xmlns="http://www.w3.org/2000/svg" xmlns:xlink="http://www.w3.org/1999/xlink">
    <title>Group</title>
    <g id="Page-1" stroke="none" stroke-width="1" fill="none" fill-rule="evenodd">
        <g id="Floral_happy_women-s_day__2_" transform="translate(-307.000000, -337.000000)">
            <g id="Group" transform="translate(307.980133, 337.216817)">
                <path d="M1701.15987,679.533183 C1701.15987,679.533183 1712.65987,559.531183 1741.30987,535.542183 C1772.29987,509.602183 1826.62987,539.457183 1814.82987,582.453183 C1804.93987,618.493183 1701.15987,679.533183 1701.15987,679.533183" id="Fill-5" fill="#E5CB47"></path>
                <path d="M1684.45987,709.563183 C1684.45987,709.563183 1798.78987,671.323183 1832.34987,687.763183 C1868.63987,705.543183 1863.42987,767.313183 1819.34987,773.993183 C1782.39987,779.603183 1684.45987,709.563183 1684.45987,709.563183" id="Fill-6" fill="#E5CB47"></path>
                <path d="M1684.00987,710.873183 C1684.00987,710.873183 1625.82987,605.292183 1590.00987,594.647183 C1551.26987,583.137183 1513.24987,632.102183 1541.14987,666.883183 C1564.51987,696.043183 1684.00987,710.873183 1684.00987,710.873183" id="Fill-7" fill="#E5CB47"></path>
                <path d="M1643.02987,821.853183 C1643.02987,821.853183 1760.37987,794.243183 1792.28987,813.683183 C1826.79987,834.703183 1815.95987,895.743183 1771.44987,898.363183 C1734.13987,900.563183 1643.02987,821.853183 1643.02987,821.853183" id="Fill-8" fill="#E5CB47"></path>
                <path d="M1642.45987,823.113183 C1642.45987,823.113183 1594.18987,712.653183 1559.48987,698.773183 C1521.96987,683.763183 1479.62987,729.033183 1504.21987,766.233183 C1524.82987,797.403183 1642.45987,823.113183 1642.45987,823.113183" id="Fill-9" fill="#E5CB47"></path>
                <path d="M1593.42987,923.703183 C1593.42987,923.703183 1712.51987,904.983183 1742.88987,926.773183 C1775.71987,950.323183 1760.31987,1010.37318 1715.73987,1009.65318 C1678.37987,1009.04318 1593.42987,923.703183 1593.42987,923.703183" id="Fill-10" fill="#E5CB47"></path>
                <path d="M1592.76987,924.923183 C1592.76987,924.923183 1552.92987,811.143183 1519.36987,794.693183 C1483.08987,776.913183 1437.45987,818.883183 1459.18987,857.813183 C1477.39987,890.443183 1592.76987,924.923183 1592.76987,924.923183" id="Fill-11" fill="#E5CB47"></path>
                <path d="M1521.02987,1027.52318 C1521.02987,1027.52318 1641.47987,1032.71318 1666.92987,1060.08318 C1694.45987,1089.66318 1667.48987,1145.48318 1623.92987,1135.95318 C1587.41987,1127.96318 1521.02987,1027.52318 1521.02987,1027.52318" id="Fill-12" fill="#E5CB47"></path>
                <path d="M1520.13987,1028.58318 C1520.13987,1028.58318 1503.58987,909.173183 1473.94987,886.413183 C1441.89987,861.803183 1388.87987,893.913183 1402.47987,936.383183 C1413.86987,971.973183 1520.13987,1028.58318 1520.13987,1028.58318" id="Fill-13" fill="#E5CB47"></path>
                <path d="M1437.17987,1097.37318 C1437.17987,1097.37318 1556.32987,1115.74318 1578.62987,1145.73318 C1602.73987,1178.15318 1569.81987,1230.68318 1527.56987,1216.43318 C1492.15987,1204.49318 1437.17987,1097.37318 1437.17987,1097.37318" id="Fill-14" fill="#E5CB47"></path>
                <path d="M1436.17987,1098.32318 C1436.17987,1098.32318 1432.81987,977.823183 1405.84987,951.953183 C1376.68987,923.973183 1320.46987,950.083183 1329.32987,993.783183 C1336.75987,1030.40318 1436.17987,1098.32318 1436.17987,1098.32318" id="Fill-15" fill="#E5CB47"></path>
                <path d="M1361.19987,1149.10318 C1360.62987,1148.91318 1360.11987,1148.50318 1359.80987,1147.92318 C1359.15987,1146.70318 1359.61987,1145.19318 1360.82987,1144.54318 C1361.25987,1144.31318 1404.04987,1121.24318 1453.81987,1082.67318 C1499.65987,1047.16318 1560.95987,990.863183 1592.70987,924.343183 C1619.22987,868.773183 1640.76987,816.233183 1659.76987,769.873183 C1684.68987,709.093183 1706.20987,656.592183 1729.03987,622.570183 C1729.80987,621.423183 1731.35987,621.120183 1732.50987,621.887183 C1733.64987,622.656183 1733.95987,624.210183 1733.18987,625.355183 C1710.63987,658.957183 1689.20987,711.243183 1664.39987,771.773183 C1645.36987,818.193183 1623.79987,870.803183 1597.21987,926.493183 C1565.03987,993.923183 1503.09987,1050.82318 1456.80987,1086.68318 C1406.72987,1125.48318 1363.62987,1148.71318 1363.19987,1148.94318 C1362.55987,1149.29318 1361.83987,1149.32318 1361.19987,1149.10318" id="Fill-16" fill="#588554"></path>
                <path d="M1508.20987,213.725183 C1508.20987,213.725183 1631.47987,114.701183 1637.13987,66.0131826 C1643.25987,13.3651826 1571.40987,-24.6898174 1532.76987,19.2051826 C1500.37987,55.9991826 1508.20987,213.725183 1508.20987,213.725183" id="Fill-17" fill="#AABC49"></path>
                <path d="M1487.31987,253.653183 C1487.31987,253.653183 1446.90987,100.787183 1404.71987,75.8371826 C1359.08987,48.8581826 1295.12987,99.0541826 1319.54987,152.191183 C1340.00987,196.731183 1487.31987,253.653183 1487.31987,253.653183" id="Fill-18" fill="#AABC49"></path>
                <path d="M1486.19987,255.094183 C1486.19987,255.094183 1643.83987,242.835183 1681.30987,274.438183 C1721.82987,308.612183 1695.52987,385.549183 1637.30987,380.022183 C1588.51987,375.389183 1486.19987,255.094183 1486.19987,255.094183" id="Fill-19" fill="#AABC49"></path>
                <path d="M1394.06987,379.938183 C1394.06987,379.938183 1339.82987,231.415183 1295.52987,210.433183 C1247.62987,187.745183 1188.52987,243.588183 1217.70987,294.265183 C1242.16987,336.744183 1394.06987,379.938183 1394.06987,379.938183" id="Fill-20" fill="#AABC49"></path>
                <path d="M1393.08987,381.475183 C1393.08987,381.475183 1548.94987,354.832183 1589.14987,382.872183 C1632.61987,413.192183 1613.47987,492.215183 1555.00987,492.041469 C1505.98987,491.896183 1393.08987,381.475183 1393.08987,381.475183" id="Fill-21" fill="#AABC49"></path>
                <path d="M1318.13987,507.658183 C1318.13987,507.658183 1252.89987,363.628183 1207.14987,346.033183 C1157.67987,327.006183 1102.93987,387.130183 1135.83987,435.472183 C1163.41987,475.994183 1318.13987,507.658183 1318.13987,507.658183" id="Fill-22" fill="#AABC49"></path>
                <path d="M1317.27987,509.264183 C1317.27987,509.264183 1470.68987,470.991183 1512.88987,495.931183 C1558.51987,522.901183 1545.35987,603.137183 1487.03987,607.357183 C1438.14987,610.894183 1317.27987,509.264183 1317.27987,509.264183" id="Fill-23" fill="#AABC49"></path>
                <path d="M1256.47987,661.779183 C1256.47987,661.779183 1164.03987,533.495183 1115.70987,525.295183 C1063.45987,516.428183 1021.68987,586.189183 1063.50987,627.071183 C1098.54987,661.338183 1256.47987,661.779183 1256.47987,661.779183" id="Fill-24" fill="#AABC49"></path>
                <path d="M1255.94987,663.523183 C1255.94987,663.523183 1398.76987,595.665183 1445.05987,611.768183 C1495.11987,629.181183 1498.09987,710.433183 1441.75987,726.103183 C1394.53987,739.243183 1255.94987,663.523183 1255.94987,663.523183" id="Fill-25" fill="#AABC49"></path>
                <path d="M1240.28987,804.003183 C1240.28987,804.003183 1134.34987,686.623183 1085.41987,683.773183 C1032.49987,680.693183 998.639867,754.613183 1044.67987,790.663183 C1083.27987,820.873183 1240.28987,804.003183 1240.28987,804.003183" id="Fill-26" fill="#AABC49"></path>
                <path d="M1239.95987,805.793183 C1239.95987,805.793183 1374.47987,722.683183 1422.25987,733.613183 C1473.92987,745.433183 1485.78987,825.873183 1431.50987,847.623183 C1386.01987,865.863183 1239.95987,805.793183 1239.95987,805.793183" id="Fill-27" fill="#AABC49"></path>
                <path d="M1238.29987,924.543183 C1238.92987,925.033183 1239.72987,925.293183 1240.58987,925.213183 C1242.38987,925.053183 1243.72987,923.463183 1243.55987,921.663183 C1243.50987,921.023183 1237.97987,857.503183 1244.40987,775.173183 C1250.33987,699.353183 1267.89987,591.610183 1317.95987,508.910183 C1359.77987,439.818183 1401.85987,378.372183 1438.98987,324.158183 C1487.67987,253.065183 1529.72987,191.668183 1550.57987,142.144183 C1551.27987,140.475183 1550.49987,138.551183 1548.82987,137.849183 C1547.15987,137.146183 1545.23987,137.929183 1544.53987,139.598183 C1523.93987,188.510183 1482.05987,249.655183 1433.57987,320.452183 C1396.39987,374.738183 1354.25987,436.266183 1312.34987,505.514183 C1261.60987,589.348183 1243.83987,698.213183 1237.86987,774.783183 C1231.39987,857.633183 1236.97987,921.603183 1237.02987,922.243183 C1237.11987,923.193183 1237.59987,924.013183 1238.29987,924.543183" id="Fill-28" fill="#588554"></path>
                <path d="M1601.68987,490.932183 C1601.68987,490.932183 1760.99987,442.830183 1659.58987,245.083183 C1659.58987,245.083183 1651.47987,287.675183 1629.16987,315.055183 C1606.85987,342.435183 1567.11987,411.260183 1601.68987,490.932183" id="Fill-29" fill="#8B8C53"></path>
                <path d="M1515.30987,512.802183 C1515.30987,512.802183 1601.78987,419.506183 1428.37987,318.097183 C1428.37987,318.097183 1446.01987,350.548183 1447.84987,385.027183 C1449.67987,419.506183 1459.24987,502.661183 1515.30987,512.802183" id="Fill-30" fill="#8B8C53"></path>
                <path d="M1581.78987,649.749183 C1581.78987,649.749183 1613.95987,550.323183 1791.41987,624.351183 C1791.41987,624.351183 1757.52987,647.386183 1733.61987,665.933183 C1698.12987,693.463183 1613.50987,707.593183 1581.78987,649.749183" id="Fill-31" fill="#8B8C53"></path>
                <path d="M1361.58987,660.004183 C1361.58987,660.004183 1269.16987,622.323183 1367.53987,471.224183 C1367.53987,471.224183 1372.60987,497.591183 1391.87987,523.957183 C1411.13987,550.323183 1428.64987,630.755183 1361.58987,660.004183" id="Fill-32" fill="#8B8C53"></path>
                <path d="M1505.51987,835.833183 C1505.51987,835.833183 1542.15987,912.273183 1674.39987,824.083183 C1674.39987,824.083183 1627.13987,818.593183 1604.82987,808.683183 C1582.51987,798.773183 1520.79987,780.603183 1505.51987,835.833183" id="Fill-33" fill="#8B8C53"></path>
                <path d="M1674.55987,639.554183 C1597.30987,633.201183 1539.34987,659.658183 1504.33987,682.973183 C1484.33987,696.293183 1469.33987,710.153183 1459.58987,720.323183 C1473.74987,696.553183 1491.42987,670.853183 1509.74987,644.218183 C1561.06987,569.605183 1619.23987,485.036183 1637.60987,394.929183 C1637.82987,393.847183 1637.12987,392.790183 1636.04987,392.570183 C1634.96987,392.347183 1633.90987,393.047183 1633.68987,394.130183 C1615.47987,483.440183 1557.55987,567.652183 1506.44987,641.951183 C1500.63987,650.400183 1494.89987,658.753183 1489.30987,666.983183 C1495.21987,651.512183 1503.34987,627.496183 1509.29987,599.278183 C1518.90987,553.638183 1524.59987,487.362183 1497.10987,430.801183 C1496.62987,429.808183 1495.42987,429.393183 1494.43987,429.876183 C1493.43987,430.359183 1493.02987,431.556183 1493.50987,432.549183 C1520.48987,488.064183 1514.86987,553.361183 1505.39987,598.363183 C1495.29987,646.353183 1478.81987,682.073183 1478.03987,683.743183 C1465.95987,701.963183 1454.97987,719.443183 1446.15987,735.833183 C1446.09987,735.933183 1446.04987,736.023183 1446.00987,736.123183 C1441.87987,743.813183 1438.21987,751.263183 1435.14987,758.433183 C1428.18987,774.693183 1421.97987,794.263183 1416.47987,815.423183 C1414.71987,800.453183 1408.76987,773.663183 1389.59987,735.983183 C1352.76987,663.573183 1358.30987,602.994183 1362.40987,580.313183 C1362.59987,579.225183 1361.87987,578.185183 1360.78987,577.989183 C1359.69987,577.795183 1358.66987,578.515183 1358.46987,579.602183 C1354.29987,602.682183 1348.64987,664.303183 1386.03987,737.793183 C1415.76987,796.233183 1413.09987,828.653183 1413.06987,828.973183 C1413.06987,829.013183 1413.07987,829.043183 1413.06987,829.083183 C1405.64987,860.133183 1399.62987,893.713183 1394.88987,924.893183 C1394.75987,925.213183 1394.70987,925.533183 1394.74987,925.853183 C1385.11987,989.453183 1380.82987,1042.80318 1380.74987,1043.81318 C1380.66987,1044.91318 1381.48987,1045.87318 1382.58987,1045.96318 C1382.64987,1045.96318 1382.69987,1045.97318 1382.74987,1045.97318 C1383.77987,1045.97318 1384.65987,1045.17318 1384.73987,1044.12318 C1384.81987,1043.11318 1389.11987,989.683183 1398.73987,926.133183 C1401.45987,921.003183 1428.26987,871.863183 1466.87987,850.203183 C1493.36987,835.353183 1530.74987,834.693183 1560.77987,834.173183 C1577.41987,833.883183 1590.56987,833.653183 1598.35987,831.063183 C1599.40987,830.713183 1599.97987,829.583183 1599.62987,828.533183 C1599.28987,827.483183 1598.15987,826.913183 1597.09987,827.263183 C1589.88987,829.663183 1576.36987,829.893183 1560.70987,830.173183 C1530.22987,830.703183 1492.28987,831.373183 1464.92987,846.723183 C1434.00987,864.063183 1410.57987,898.383183 1400.44987,915.113183 C1409.12987,860.343183 1421.69987,800.043183 1438.82987,760.013183 C1441.86987,752.913183 1445.49987,745.523183 1449.59987,737.883183 C1451.29987,735.613183 1470.81987,710.073183 1506.69987,686.213183 C1541.15987,663.293183 1598.19987,637.287183 1674.23987,643.541183 C1675.33987,643.640183 1676.29987,642.812183 1676.38987,641.712183 C1676.47987,640.611183 1675.66987,639.645183 1674.55987,639.554183" id="Fill-34" fill="#385946"></path>
                <path d="M267.747867,679.533183 C267.747867,679.533183 256.249867,559.531183 227.593867,535.542183 C196.606867,509.602183 142.277867,539.457183 154.074867,582.453183 C163.962867,618.493183 267.747867,679.533183 267.747867,679.533183" id="Fill-35" fill="#E5CB47"></path>
                <path d="M284.442867,709.563183 C284.442867,709.563183 170.115867,671.323183 136.553867,687.763183 C100.263867,705.543183 105.473867,767.313183 149.554867,773.993183 C186.503867,779.603183 284.442867,709.563183 284.442867,709.563183" id="Fill-36" fill="#E5CB47"></path>
                <path d="M284.894867,710.873183 C284.894867,710.873183 343.076867,605.292183 378.899867,594.647183 C417.637867,583.137183 455.654867,632.102183 427.762867,666.883183 C404.382867,696.043183 284.894867,710.873183 284.894867,710.873183" id="Fill-37" fill="#E5CB47"></path>
                <path d="M325.878867,821.853183 C325.878867,821.853183 208.529867,794.243183 176.614867,813.683183 C142.103867,834.703183 152.948867,895.743183 197.456867,898.363183 C234.763867,900.563183 325.878867,821.853183 325.878867,821.853183" id="Fill-38" fill="#E5CB47"></path>
                <path d="M326.449867,823.113183 C326.449867,823.113183 374.717867,712.653183 409.415867,698.773183 C446.936867,683.763183 489.278867,729.033183 464.687867,766.233183 C444.075867,797.403183 326.449867,823.113183 326.449867,823.113183" id="Fill-39" fill="#E5CB47"></path>
                <path d="M375.477867,923.703183 C375.477867,923.703183 256.385867,904.983183 226.021867,926.773183 C193.187867,950.323183 208.585867,1010.37318 253.165867,1009.65318 C290.531867,1009.04318 375.477867,923.703183 375.477867,923.703183" id="Fill-40" fill="#E5CB47"></path>
                <path d="M376.141867,924.923183 C376.141867,924.923183 415.976867,811.143183 449.534867,794.693183 C485.821867,776.913183 531.444867,818.883183 509.716867,857.813183 C491.504867,890.443183 376.141867,924.923183 376.141867,924.923183" id="Fill-41" fill="#E5CB47"></path>
                <path d="M447.874867,1027.52318 C447.874867,1027.52318 327.432867,1032.71318 301.976867,1060.08318 C274.450867,1089.66318 301.419867,1145.48318 344.974867,1135.95318 C381.482867,1127.96318 447.874867,1027.52318 447.874867,1027.52318" id="Fill-42" fill="#E5CB47"></path>
                <path d="M448.766867,1028.58318 C448.766867,1028.58318 465.312867,909.173183 494.955867,886.413183 C527.007867,861.803183 580.030867,893.913183 566.431867,936.383183 C555.032867,971.973183 448.766867,1028.58318 448.766867,1028.58318" id="Fill-43" fill="#E5CB47"></path>
                <path d="M531.727867,1097.37318 C531.727867,1097.37318 412.582867,1115.74318 390.279867,1145.73318 C366.163867,1178.15318 399.090867,1230.68318 441.337867,1216.43318 C476.749867,1204.49318 531.727867,1097.37318 531.727867,1097.37318" id="Fill-44" fill="#E5CB47"></path>
                <path d="M532.731867,1098.32318 C532.731867,1098.32318 536.084867,977.823183 563.053867,951.953183 C592.214867,923.973183 648.438867,950.083183 639.577867,993.783183 C632.149867,1030.40318 532.731867,1098.32318 532.731867,1098.32318" id="Fill-45" fill="#E5CB47"></path>
                <path d="M607.707867,1149.10318 C608.282867,1148.91318 608.785867,1148.50318 609.095867,1147.92318 C609.746867,1146.70318 609.289867,1145.19318 608.072867,1144.54318 C607.645867,1144.31318 564.852867,1121.24318 515.085867,1082.67318 C469.248867,1047.16318 407.945867,990.863183 376.201867,924.343183 C349.679867,868.773183 328.141867,816.233183 309.138867,769.873183 C284.218867,709.093183 262.697867,656.592183 239.870867,622.570183 C239.101867,621.423183 237.544867,621.120183 236.401867,621.887183 C235.254867,622.656183 234.948867,624.210183 235.717867,625.355183 C258.262867,658.957183 279.695867,711.243183 304.511867,771.773183 C323.540867,818.193183 345.107867,870.803183 371.688867,926.493183 C403.868867,993.923183 465.804867,1050.82318 512.094867,1086.68318 C562.182867,1125.48318 605.281867,1148.71318 605.710867,1148.94318 C606.350867,1149.29318 607.071867,1149.32318 607.707867,1149.10318" id="Fill-46" fill="#588554"></path>
                <path d="M460.695867,213.725183 C460.695867,213.725183 337.427867,114.701183 331.768867,66.0131826 C325.648867,13.3651826 397.500867,-24.6898174 436.137867,19.2051826 C468.522867,55.9991826 460.695867,213.725183 460.695867,213.725183" id="Fill-47" fill="#AABC49"></path>
                <path d="M481.591867,253.653183 C481.591867,253.653183 522.000867,100.787183 564.191867,75.8371826 C609.813867,48.8581826 673.775867,99.0541826 649.361867,152.191183 C628.896867,196.731183 481.591867,253.653183 481.591867,253.653183" id="Fill-48" fill="#AABC49"></path>
                <path d="M482.703867,255.094183 C482.703867,255.094183 325.062867,242.835183 287.595867,274.438183 C247.081867,308.612183 273.378867,385.549183 331.593867,380.022183 C380.390867,375.389183 482.703867,255.094183 482.703867,255.094183" id="Fill-49" fill="#AABC49"></path>
                <path d="M574.839867,379.938183 C574.839867,379.938183 629.077867,231.415183 673.375867,210.433183 C721.279867,187.745183 780.369867,243.588183 751.199867,294.265183 C726.739867,336.744183 574.839867,379.938183 574.839867,379.938183" id="Fill-50" fill="#AABC49"></path>
                <path d="M575.815867,381.475183 C575.815867,381.475183 419.959867,354.832183 379.755867,382.872183 C336.282867,413.192183 355.423867,492.215183 413.900867,492.041469 C462.916867,491.896183 575.815867,381.475183 575.815867,381.475183" id="Fill-51" fill="#AABC49"></path>
                <path d="M650.771867,507.658183 C650.771867,507.658183 716.009867,363.628183 761.759867,346.033183 C811.229867,327.006183 865.969867,387.130183 833.059867,435.472183 C805.489867,475.994183 650.771867,507.658183 650.771867,507.658183" id="Fill-52" fill="#AABC49"></path>
                <path d="M651.629867,509.264183 C651.629867,509.264183 498.215867,470.991183 456.019867,495.931183 C410.391867,522.901183 423.543867,603.137183 481.868867,607.357183 C530.756867,610.894183 651.629867,509.264183 651.629867,509.264183" id="Fill-53" fill="#AABC49"></path>
                <path d="M712.429867,661.779183 C712.429867,661.779183 804.869867,533.495183 853.189867,525.295183 C905.449867,516.428183 947.209867,586.189183 905.399867,627.071183 C870.349867,661.338183 712.429867,661.779183 712.429867,661.779183" id="Fill-54" fill="#AABC49"></path>
                <path d="M712.959867,663.523183 C712.959867,663.523183 570.140867,595.665183 523.844867,611.768183 C473.784867,629.181183 470.809867,710.433183 527.146867,726.103183 C574.370867,739.243183 712.959867,663.523183 712.959867,663.523183" id="Fill-55" fill="#AABC49"></path>
                <path d="M728.619867,804.003183 C728.619867,804.003183 834.559867,686.623183 883.489867,683.773183 C936.399867,680.693183 970.269867,754.613183 924.229867,790.663183 C885.629867,820.873183 728.619867,804.003183 728.619867,804.003183" id="Fill-56" fill="#AABC49"></path>
                <path d="M728.939867,805.793183 C728.939867,805.793183 594.429867,722.683183 546.647867,733.613183 C494.979867,745.433183 483.113867,825.873183 537.394867,847.623183 C582.892867,865.863183 728.939867,805.793183 728.939867,805.793183" id="Fill-57" fill="#AABC49"></path>
                <path d="M730.609867,924.543183 C729.979867,925.033183 729.169867,925.293183 728.319867,925.213183 C726.509867,925.053183 725.179867,923.463183 725.339867,921.663183 C725.399867,921.023183 730.929867,857.503183 724.499867,775.173183 C718.569867,699.353183 700.999867,591.610183 650.948867,508.910183 C609.131867,439.818183 567.049867,378.372183 529.919867,324.158183 C481.230867,253.065183 439.181867,191.668183 418.326867,142.144183 C417.623867,140.475183 418.411867,138.551183 420.075867,137.849183 C421.744867,137.146183 423.668867,137.929183 424.370867,139.598183 C444.968867,188.510183 486.843867,249.655183 535.331867,320.452183 C572.507867,374.738183 614.646867,436.266183 656.559867,505.514183 C707.299867,589.348183 725.069867,698.213183 731.039867,774.783183 C737.509867,857.633183 731.929867,921.603183 731.879867,922.243183 C731.789867,923.193183 731.309867,924.013183 730.609867,924.543183" id="Fill-58" fill="#588554"></path>
                <path d="M367.213867,490.932183 C367.213867,490.932183 207.904867,442.830183 309.313867,245.083183 C309.313867,245.083183 317.426867,287.675183 339.735867,315.055183 C362.045867,342.435183 401.790867,411.260183 367.213867,490.932183" id="Fill-59" fill="#8B8C53"></path>
                <path d="M453.596867,512.802183 C453.596867,512.802183 367.116867,419.506183 540.524867,318.097183 C540.524867,318.097183 522.883867,350.548183 521.056867,385.027183 C519.228867,419.506183 509.654867,502.661183 453.596867,512.802183" id="Fill-60" fill="#8B8C53"></path>
                <path d="M387.114867,649.749183 C387.114867,649.749183 354.947867,550.323183 177.482867,624.351183 C177.482867,624.351183 211.380867,647.386183 235.285867,665.933183 C270.778867,693.463183 355.394867,707.593183 387.114867,649.749183" id="Fill-61" fill="#8B8C53"></path>
                <path d="M607.318867,660.004183 C607.318867,660.004183 699.739867,622.323183 601.369867,471.224183 C601.369867,471.224183 596.299867,497.591183 577.031867,523.957183 C557.764867,550.323183 540.253867,630.755183 607.318867,660.004183" id="Fill-62" fill="#8B8C53"></path>
                <path d="M463.385867,835.833183 C463.385867,835.833183 426.742867,912.273183 294.506867,824.083183 C294.506867,824.083183 341.764867,818.593183 364.073867,808.683183 C386.383867,798.773183 448.104867,780.603183 463.385867,835.833183" id="Fill-63" fill="#8B8C53"></path>
                <path d="M294.342867,639.554183 C371.596867,633.201183 429.554867,659.658183 464.562867,682.973183 C484.567867,696.293183 499.571867,710.153183 509.320867,720.323183 C495.153867,696.553183 477.477867,670.853183 459.158867,644.218183 C407.837867,569.605183 349.668867,485.036183 331.300867,394.929183 C331.079867,393.847183 331.778867,392.790183 332.860867,392.570183 C333.940867,392.347183 334.999867,393.047183 335.220867,394.130183 C353.425867,483.440183 411.349867,567.652183 462.453867,641.951183 C468.265867,650.400183 474.009867,658.753183 479.602867,666.983183 C473.690867,651.512183 465.556867,627.496183 459.611867,599.278183 C449.998867,553.638183 444.309867,487.362183 471.796867,430.801183 C472.277867,429.808183 473.475867,429.393183 474.469867,429.876183 C475.462867,430.359183 475.876867,431.556183 475.394867,432.549183 C448.414867,488.064183 454.038867,553.361183 463.507867,598.363183 C473.604867,646.353183 490.086867,682.073183 490.862867,683.743183 C502.947867,701.963183 513.923867,719.443183 522.747867,735.833183 C522.804867,735.933183 522.857867,736.023183 522.897867,736.123183 C527.027867,743.813183 530.687867,751.263183 533.757867,758.433183 C540.714867,774.693183 546.922867,794.263183 552.427867,815.423183 C554.182867,800.453183 560.135867,773.663183 579.306867,735.983183 C616.141867,663.573183 610.594867,602.994183 606.500867,580.313183 C606.304867,579.225183 607.025867,578.185183 608.112867,577.989183 C609.207867,577.795183 610.240867,578.515183 610.436867,579.602183 C614.602867,602.682183 620.257867,664.303183 582.870867,737.793183 C553.142867,796.233183 555.802867,828.653183 555.832867,828.973183 C555.835867,829.013183 555.830867,829.043183 555.832867,829.083183 C563.261867,860.133183 569.278867,893.713183 574.015867,924.893183 C574.144867,925.213183 574.194867,925.533183 574.162867,925.853183 C583.786867,989.453183 588.073867,1042.80318 588.152867,1043.81318 C588.238867,1044.91318 587.416867,1045.87318 586.314867,1045.96318 C586.262867,1045.96318 586.209867,1045.97318 586.156867,1045.97318 C585.122867,1045.97318 584.246867,1045.17318 584.164867,1044.12318 C584.085867,1043.11318 579.791867,989.683183 570.167867,926.133183 C567.444867,921.003183 540.633867,871.863183 502.024867,850.203183 C475.540867,835.353183 438.161867,834.693183 408.127867,834.173183 C391.483867,833.883183 378.337867,833.653183 370.542867,831.063183 C369.494867,830.713183 368.926867,829.583183 369.273867,828.533183 C369.621867,827.483183 370.749867,826.913183 371.802867,827.263183 C379.018867,829.663183 392.540867,829.893183 408.197867,830.173183 C438.681867,830.703183 476.617867,831.373183 503.981867,846.723183 C534.896867,864.063183 558.331867,898.383183 568.459867,915.113183 C559.774867,860.343183 547.208867,800.043183 530.079867,760.013183 C527.040867,752.913183 523.409867,745.523183 519.306867,737.883183 C517.606867,735.613183 498.083867,710.073183 462.208867,686.213183 C427.750867,663.293183 370.711867,637.287183 294.670867,643.541183 C293.565867,643.640183 292.602867,642.812183 292.513867,641.712183 C292.422867,640.611183 293.241867,639.645183 294.342867,639.554183" id="Fill-64" fill="#385946"></path>
                <polyline id="Fill-65" fill="#FFB699" points="1484.27987 1205.35318 1523.70987 1481.48318 1296.54987 1475.39318 1274.12987 1225.01318 1484.27987 1205.35318"></polyline>
                <path d="M320.472867,818.303183 L219.596867,840.573183 L138.469867,406.549183 C138.469867,406.549183 197.286867,302.098183 146.582867,289.929183 C146.582867,289.929183 140.497867,263.563183 122.243867,258.493183 C103.990867,253.423183 15.7658671,261.535183 2.58286707,296.014183 C-10.6011329,330.493183 30.9768671,434.944183 30.9768671,434.944183 C30.9768671,434.944183 18.8248671,1026.38318 112.102867,1078.42318 C182.905867,1117.93318 365.811867,1079.22318 365.811867,1079.22318 L320.472867,818.303183" id="Fill-66" fill="#FFB699"></path>
                <path d="M96.8918671,384.225183 C96.3858671,384.225183 95.9518671,383.843183 95.8978671,383.329183 C92.8348671,354.018183 122.568867,334.204183 131.483867,328.959183 C123.790867,327.441183 103.052867,322.267183 103.498867,310.679183 C104.030867,296.854183 144.672867,289.262183 146.401867,288.946183 C146.951867,288.850183 147.466867,289.206183 147.565867,289.749183 C147.665867,290.293183 147.305867,290.814183 146.762867,290.913183 C135.416867,292.990183 105.887867,300.602183 105.496867,310.757183 C105.030867,322.897183 134.266867,327.431183 134.561867,327.476183 C134.991867,327.540183 135.331867,327.876183 135.400867,328.305183 C135.469867,328.735183 135.252867,329.160183 134.864867,329.357183 C134.460867,329.562183 94.4508671,350.236183 97.8868671,383.121183 C97.9438671,383.671183 97.5458671,384.162183 96.9968671,384.220183 C96.9608671,384.223183 96.9258671,384.225183 96.8918671,384.225183" id="Fill-67" fill="#333333"></path>
                <path d="M117.214867,299.726183 C116.806867,299.726183 116.423867,299.474183 116.275867,299.068183 C110.522867,283.307183 83.3908671,280.809183 83.1168671,280.785183 C82.5668671,280.738183 82.1588671,280.254183 82.2058671,279.704183 C82.2528671,279.154183 82.7358671,278.743183 83.2868671,278.792183 C84.4548671,278.892183 111.963867,281.422183 118.154867,298.383183 C118.343867,298.901183 118.076867,299.475183 117.557867,299.665183 C117.444867,299.706183 117.328867,299.726183 117.214867,299.726183" id="Fill-69" fill="#333333"></path>
                <path d="M973.059867,194.606183 C973.059867,194.606183 903.089867,112.465183 802.699867,101.817183 C702.299867,91.1691826 665.792867,164.183183 653.623867,183.958183 C641.455867,203.732183 647.539867,260.014183 623.201867,288.915183 C598.863867,317.817183 538.018867,354.324183 528.891867,395.394183 C519.765867,436.465183 553.229867,474.493183 506.074867,509.479183 C458.919867,544.465183 378.300867,610.859183 367.652867,685.663183 C357.004867,760.463183 388.948867,1046.43318 556.271867,1119.45318 C723.599867,1192.46318 1283.36987,735.983183 1281.85296,642.503183 C1280.32987,549.028183 1205.78987,547.507183 1199.70987,483.620183 C1193.61987,419.732183 1221.00987,392.352183 1193.61987,352.803183 C1166.23987,313.254183 1100.83987,302.416183 1081.05987,268.285183 C1061.28987,234.155183 1067.36987,171.789183 973.059867,194.606183" id="Fill-70" fill="#682121"></path>
                <path d="M729.289867,312.408183 C729.289867,312.408183 673.398867,387.789183 673.398867,436.465183 C673.398867,485.141183 714.459867,536.859183 703.819867,591.620183 C693.169867,646.380183 647.539867,742.213183 681.004867,778.723183 C714.469867,815.223183 1082.57987,771.113183 1123.64987,727.003183 C1164.71987,682.883183 1102.35987,602.796183 1088.66987,552.335183 C1074.97987,501.873183 1093.22987,512.521183 1073.45987,466.887183 C1053.67987,421.254183 729.289867,312.408183 729.289867,312.408183" id="Fill-71" fill="#5B1B1B"></path>
                <path d="M1502.40987,1200.58318 C1495.30987,1209.70318 1274.12987,1225.01318 1274.12987,1225.01318 L1296.54987,1475.39318 L647.541867,1475.39318 L668.941867,989.313183 L452.331867,1048.97318 C452.331867,1048.97318 454.711867,1059.64318 449.981867,1065.04318 C445.251867,1070.45318 375.091867,1083.28318 365.811867,1079.22318 C356.531867,1075.17318 313.571867,812.863183 321.001867,802.723183 C328.441867,792.583183 369.601867,779.223183 377.791867,779.733183 C385.991867,780.243183 391.991867,792.263183 391.991867,792.263183 L472.641867,768.313183 L477.581867,766.843183 L750.969867,685.663183 C764.659867,624.552183 802.689867,623.562183 802.689867,623.562183 C802.689867,623.562183 968.999867,597.202183 1036.94987,600.742183 C1104.88987,604.292183 1112.99987,642.502183 1112.99987,642.502183 C1112.99987,642.502183 1277.26987,660.822183 1345.22987,722.943183 C1400.61987,773.583183 1447.22987,1003.09318 1462.57987,1086.22318 C1465.35987,1101.28318 1467.10987,1111.53318 1467.69987,1115.06318 C1471.49987,1114.20318 1482.76987,1112.26318 1490.23987,1116.41318 C1499.36987,1121.48318 1509.50987,1191.45318 1502.40987,1200.58318" id="Fill-72" fill="#FE9916"></path>
                <path d="M1036.94987,600.746183 C1036.94987,600.746183 1060.75987,667.253183 1036.94987,716.203183 C1013.13987,765.163183 973.059867,857.813183 973.059867,857.813183 L954.809867,948.073183 L916.509867,860.863183 L829.059867,716.203183 C829.059867,716.203183 801.119867,665.193183 802.699867,623.563183 L1036.94987,600.746183" id="Fill-73" fill="#FFFFFF"></path>
                <path d="M1320.38987,1188.41318 C1320.38987,1194.85318 1315.15987,1200.07318 1308.71987,1200.07318 C1302.27987,1200.07318 1297.05987,1194.85318 1297.05987,1188.41318 C1297.05987,1181.96318 1302.27987,1176.74318 1308.71987,1176.74318 C1315.15987,1176.74318 1320.38987,1181.96318 1320.38987,1188.41318" id="Fill-74" fill="#FFFFFF"></path>
                <path d="M410.750867,1037.90318 C410.750867,1044.34318 405.529867,1049.56318 399.088867,1049.56318 C392.648867,1049.56318 387.426867,1044.34318 387.426867,1037.90318 C387.426867,1031.46318 392.648867,1026.24318 399.088867,1026.24318 C405.529867,1026.24318 410.750867,1031.46318 410.750867,1037.90318" id="Fill-75" fill="#FFFFFF"></path>
                <path d="M493.221867,800.793183 C492.261867,807.303183 489.621867,813.533183 485.901867,818.883183 C484.021867,821.563183 481.881867,824.023183 479.531867,826.263183 C478.361867,827.383183 477.101867,828.413183 475.821867,829.403183 C474.591867,830.433183 473.191867,831.303183 471.841867,832.203183 C469.021867,833.883183 466.021867,835.333183 462.831867,836.303183 C459.661867,837.303183 456.301867,837.773183 453.001867,837.753794 C446.341867,837.703183 440.011867,835.593183 434.691867,832.353183 C432.021867,830.723183 429.551867,828.853183 427.321867,826.773183 C425.091867,824.693183 423.051867,822.413183 421.361867,819.923183 C426.161867,823.503183 431.311867,826.393183 436.621867,828.383183 C441.931867,830.353183 447.451867,831.263183 452.681867,830.683183 C455.291867,830.393183 457.841867,829.773183 460.261867,828.793183 C462.671867,827.803183 464.991867,826.553183 467.181867,825.053183 C471.521867,821.933183 475.521867,818.143183 478.511867,813.743183 C480.061867,811.573183 481.361867,809.243183 482.421867,806.813183 C483.521867,804.403183 484.301867,801.873183 484.841867,799.273183 C486.011867,794.083183 485.901867,788.813183 484.281867,783.873183 C482.671867,778.923183 479.431867,774.383183 475.271867,770.563183 C474.421867,769.783183 473.551867,769.023183 472.641867,768.313183 L477.581867,766.843183 C477.691867,766.913183 477.811867,766.983183 477.921867,767.053183 C480.571867,768.723183 483.101867,770.693183 485.301867,773.073183 C487.511867,775.443183 489.411867,778.193183 490.821867,781.223183 C493.661867,787.303183 494.321867,794.363183 493.221867,800.793183" id="Fill-76" fill="#FFC48A"></path>
                <path d="M661.802867,837.753183 C660.347867,835.113183 659.246867,832.273183 658.415867,829.333183 C657.574867,826.393183 657.028867,823.343183 656.823867,820.213183 C656.632867,817.093183 656.750867,813.893183 657.399867,810.713183 C658.027867,807.533183 659.154867,804.383183 660.793867,801.473183 C664.058867,795.613183 669.413867,790.953183 675.268867,788.093183 C681.114867,785.073183 687.711867,783.573183 694.229867,783.473183 C697.499867,783.423183 700.749867,783.723183 703.939867,784.323183 C705.539867,784.623183 707.099867,785.043183 708.649867,785.503183 C710.209867,785.903183 711.739867,786.533183 713.259867,787.093183 C716.259867,788.403183 719.189867,789.983183 721.839867,792.013183 C724.509867,794.003183 726.849867,796.453183 728.759867,799.153183 C732.609867,804.573183 734.599867,810.953183 735.079867,817.163183 C735.319867,820.273183 735.239867,823.373183 734.859867,826.403183 C734.469867,829.433183 733.819867,832.413183 732.769867,835.243183 C732.879867,829.253183 732.219867,823.383183 730.719867,817.913183 C729.229867,812.453183 726.739867,807.443183 723.209867,803.533183 C721.449867,801.583183 719.459867,799.883183 717.249867,798.493183 C715.039867,797.113183 712.669867,795.963183 710.169867,795.053183 C705.109867,793.353183 699.689867,792.333183 694.369867,792.463183 C691.703867,792.473183 689.053867,792.783183 686.466867,793.343183 C683.868867,793.863183 681.355867,794.703183 678.936867,795.783183 C674.030867,797.863183 669.823867,801.033183 666.760867,805.233183 C663.685867,809.423183 661.891867,814.713183 661.222867,820.323183 C660.524867,825.943183 660.798867,831.853183 661.802867,837.753183" id="Fill-77" fill="#FFC48A"></path>
                <path d="M853.609867,949.343183 C853.169867,952.323183 852.329867,955.253183 851.209867,958.093183 C850.099867,960.943183 848.679867,963.703183 846.949867,966.313183 C845.209867,968.913183 843.179867,971.383183 840.729867,973.523183 C838.309867,975.673183 835.499867,977.493183 832.439867,978.813183 C826.289867,981.503183 819.209867,981.963183 812.809867,980.693183 C806.329867,979.553183 800.169867,976.753183 794.919867,972.883183 C792.299867,970.933183 789.889867,968.723183 787.719867,966.313183 C786.629867,965.113183 785.639867,963.833183 784.689867,962.523183 C783.689867,961.263183 782.849867,959.843183 781.989867,958.463183 C780.389867,955.603183 779.019867,952.573183 778.139867,949.353183 C777.219867,946.153183 776.849867,942.793183 776.959867,939.483183 C777.179867,932.833183 779.459867,926.553183 782.839867,921.323183 C784.539867,918.703183 786.479867,916.293183 788.619867,914.113183 C790.769867,911.933183 793.089867,909.953183 795.629867,908.343183 C791.919867,913.043183 788.889867,918.113183 786.769867,923.373183 C784.639867,928.623183 783.589867,934.113183 784.029867,939.363183 C784.249867,941.983183 784.799867,944.533183 785.709867,946.983183 C786.639867,949.423183 787.829867,951.773183 789.269867,954.003183 C792.259867,958.423183 795.949867,962.523183 800.269867,965.643183 C802.389867,967.243183 804.689867,968.603183 807.079867,969.733183 C809.469867,970.893183 811.969867,971.743183 814.549867,972.353183 C819.719867,973.663183 824.979867,973.693183 829.969867,972.213183 C834.949867,970.733183 839.579867,967.623183 843.519867,963.563183 C847.479867,959.513183 850.839867,954.643183 853.609867,949.343183" id="Fill-78" fill="#FFC48A"></path>
                <path d="M788.309867,1230.50318 C787.869867,1233.48318 787.019867,1236.41318 785.899867,1239.25318 C784.789867,1242.10318 783.379867,1244.86318 781.649867,1247.47318 C779.909867,1250.06318 777.869867,1252.54318 775.429867,1254.68318 C773.009867,1256.82318 770.199867,1258.65318 767.129867,1259.97318 C760.989867,1262.65318 753.899867,1263.12318 747.509867,1261.84318 C741.029867,1260.70318 734.869867,1257.90318 729.619867,1254.03318 C726.999867,1252.09318 724.589867,1249.88318 722.419867,1247.47318 C721.329867,1246.27318 720.329867,1244.99318 719.379867,1243.68318 C718.389867,1242.42318 717.549867,1240.99318 716.689867,1239.62318 C715.079867,1236.76318 713.709867,1233.72318 712.839867,1230.51318 C711.919867,1227.31318 711.539867,1223.94318 711.649867,1220.64318 C711.869867,1213.99318 714.159867,1207.71318 717.539867,1202.48318 C719.239867,1199.86318 721.179867,1197.44318 723.319867,1195.26318 C725.459867,1193.09318 727.789867,1191.11318 730.329867,1189.50318 C726.619867,1194.20318 723.589867,1199.26318 721.459867,1204.52318 C719.339867,1209.78318 718.289867,1215.27318 718.729867,1220.51318 C718.939867,1223.13318 719.499867,1225.69318 720.409867,1228.14318 C721.339867,1230.58318 722.529867,1232.93318 723.959867,1235.16318 C726.959867,1239.58318 730.649867,1243.68318 734.959867,1246.79318 C737.089867,1248.40318 739.389867,1249.76318 741.779867,1250.89318 C744.159867,1252.05318 746.669867,1252.90318 749.249867,1253.51318 C754.419867,1254.82318 759.679867,1254.85318 764.659867,1253.36318 C769.649867,1251.89318 774.279867,1248.77318 778.209867,1244.71318 C782.179867,1240.66318 785.529867,1235.80318 788.309867,1230.50318" id="Fill-79" fill="#FFC48A"></path>
                <path d="M987.839867,1014.44318 C986.389867,1011.81318 985.279867,1008.96318 984.449867,1006.02318 C983.609867,1003.08318 983.069867,1000.03318 982.859867,996.913183 C982.669867,993.793183 982.789867,990.583183 983.439867,987.403183 C984.069867,984.233183 985.189867,981.083183 986.829867,978.163183 C990.099867,972.313183 995.449867,967.643183 1001.30987,964.783183 C1007.14987,961.773183 1013.74987,960.263183 1020.26987,960.163183 C1023.53987,960.113183 1026.78987,960.413183 1029.97987,961.013183 C1031.57987,961.313183 1033.13987,961.733183 1034.68987,962.193183 C1036.24987,962.593183 1037.76987,963.223183 1039.29987,963.793183 C1042.29987,965.093183 1045.22987,966.683183 1047.87987,968.703183 C1050.53987,970.693183 1052.88987,973.143183 1054.79987,975.843183 C1058.64987,981.263183 1060.63987,987.643183 1061.11987,993.853183 C1061.34987,996.973183 1061.27987,1000.06318 1060.88987,1003.09318 C1060.50987,1006.12318 1059.84987,1009.11318 1058.80987,1011.93318 C1058.90987,1005.94318 1058.25987,1000.08318 1056.75987,994.603183 C1055.26987,989.143183 1052.76987,984.133183 1049.24987,980.233183 C1047.48987,978.273183 1045.49987,976.573183 1043.28987,975.183183 C1041.06987,973.803183 1038.70987,972.653183 1036.20987,971.743183 C1031.14987,970.043183 1025.72987,969.023183 1020.40987,969.153183 C1017.73987,969.163183 1015.08987,969.473183 1012.50987,970.033183 C1009.90987,970.553183 1007.38987,971.393183 1004.97987,972.473183 C1000.06987,974.553183 995.859867,977.723183 992.799867,981.923183 C989.719867,986.123183 987.929867,991.403183 987.259867,997.023183 C986.559867,1002.64318 986.839867,1008.54318 987.839867,1014.44318" id="Fill-80" fill="#FFC48A"></path>
                <path d="M1225.16987,897.373183 C1223.71987,894.733183 1222.61987,891.893183 1221.78987,888.953183 C1220.93987,886.013183 1220.39987,882.963183 1220.18987,879.833183 C1219.99987,876.713183 1220.11987,873.513183 1220.76987,870.333183 C1221.39987,867.163183 1222.51987,864.013183 1224.15987,861.093183 C1227.42987,855.233183 1232.77987,850.573183 1238.63987,847.713183 C1244.47987,844.693183 1251.07987,843.193183 1257.59987,843.093183 C1260.86987,843.043183 1264.11987,843.343183 1267.30987,843.943183 C1268.90987,844.243183 1270.46987,844.663183 1272.01987,845.123183 C1273.57987,845.523183 1275.10987,846.153183 1276.62987,846.723183 C1279.62987,848.023183 1282.55987,849.603183 1285.20987,851.633183 C1287.87987,853.623183 1290.21987,856.073183 1292.12987,858.773183 C1295.97987,864.193183 1297.96987,870.573183 1298.44987,876.783183 C1298.68987,879.903183 1298.60987,882.993183 1298.22987,886.023183 C1297.83987,889.053183 1297.18987,892.033183 1296.13987,894.863183 C1296.24987,888.873183 1295.58987,883.013183 1294.08987,877.533183 C1292.59987,872.073183 1290.10987,867.063183 1286.57987,863.163183 C1284.81987,861.203183 1282.82987,859.503183 1280.61987,858.113183 C1278.40987,856.733183 1276.03987,855.583183 1273.53987,854.673183 C1268.47987,852.973183 1263.05987,851.953183 1257.73987,852.083183 C1255.06987,852.093183 1252.41987,852.403183 1249.83987,852.963183 C1247.23987,853.483183 1244.72987,854.323183 1242.30987,855.403183 C1237.39987,857.483183 1233.18987,860.653183 1230.12987,864.853183 C1227.05987,869.053183 1225.25987,874.333183 1224.58987,879.943183 C1223.89987,885.573183 1224.16987,891.473183 1225.16987,897.373183" id="Fill-81" fill="#FFC48A"></path>
                <path d="M1136.71987,1403.15318 C1135.25987,1400.51318 1134.15987,1397.66318 1133.32987,1394.73318 C1132.48987,1391.79318 1131.93987,1388.74318 1131.73987,1385.61318 C1131.54987,1382.49318 1131.66987,1379.29318 1132.30987,1376.11318 C1132.93987,1372.93318 1134.06987,1369.78318 1135.70987,1366.87318 C1138.96987,1361.01318 1144.32987,1356.35318 1150.17987,1353.49318 C1156.02987,1350.47318 1162.62987,1348.97318 1169.14987,1348.86318 C1172.40987,1348.82318 1175.66987,1349.12318 1178.85987,1349.72318 C1180.44987,1350.02318 1182.01987,1350.44318 1183.56987,1350.90318 C1185.11987,1351.30318 1186.64987,1351.93318 1188.16987,1352.49318 C1191.17987,1353.80318 1194.10987,1355.38318 1196.74987,1357.41318 C1199.41987,1359.40318 1201.75987,1361.85318 1203.67987,1364.55318 C1207.52987,1369.97318 1209.51987,1376.35318 1209.99987,1382.56318 C1210.22987,1385.67318 1210.14987,1388.77318 1209.76987,1391.80318 C1209.37987,1394.83318 1208.72987,1397.81318 1207.68987,1400.64318 C1207.78987,1394.65318 1207.12987,1388.78318 1205.63987,1383.31318 C1204.13987,1377.84318 1201.64987,1372.84318 1198.11987,1368.93318 C1196.36987,1366.98318 1194.36987,1365.28318 1192.16987,1363.88318 C1189.94987,1362.51318 1187.57987,1361.36318 1185.07987,1360.45318 C1180.01987,1358.75318 1174.60987,1357.72318 1169.27987,1357.86318 C1166.61987,1357.87318 1163.96987,1358.18318 1161.37987,1358.74318 C1158.77987,1359.25318 1156.26987,1360.09318 1153.84987,1361.18318 C1148.94987,1363.26318 1144.73987,1366.43318 1141.67987,1370.63318 C1138.59987,1374.82318 1136.80987,1380.11318 1136.13987,1385.72318 C1135.43987,1391.34318 1135.70987,1397.25318 1136.71987,1403.15318" id="Fill-82" fill="#FFC48A"></path>
                <path d="M855.879867,1174.45318 C853.359867,1172.79318 851.059867,1170.79318 848.959867,1168.57318 C846.839867,1166.37318 844.939867,1163.92318 843.299867,1161.25318 C841.679867,1158.58318 840.289867,1155.69318 839.389867,1152.57318 C838.459867,1149.47318 837.989867,1146.16318 838.079867,1142.82318 C838.239867,1136.11318 840.809867,1129.49318 844.659867,1124.24318 C848.429867,1118.84318 853.559867,1114.44318 859.279867,1111.31318 C862.149867,1109.75318 865.179867,1108.50318 868.279867,1107.54318 C869.829867,1107.06318 871.409867,1106.70318 872.989867,1106.39318 C874.559867,1106.02318 876.199867,1105.86318 877.809867,1105.66318 C881.079867,1105.41318 884.409867,1105.45318 887.689867,1106.01318 C890.979867,1106.53318 894.189867,1107.60318 897.149867,1109.10318 C903.079867,1112.10318 907.809867,1116.82318 911.129867,1122.09318 C912.789867,1124.74318 914.159867,1127.52318 915.229867,1130.38318 C916.299867,1133.24318 917.109867,1136.18318 917.509867,1139.17318 C914.809867,1133.82318 911.489867,1128.94318 907.619867,1124.79318 C903.749867,1120.65318 899.209867,1117.38318 894.269867,1115.57318 C891.809867,1114.66318 889.249867,1114.08318 886.649867,1113.88318 C884.049867,1113.69318 881.419867,1113.77318 878.789867,1114.14318 C873.509867,1114.99318 868.239867,1116.61318 863.599867,1119.20318 C861.239867,1120.45318 859.039867,1121.96318 857.009867,1123.66318 C854.949867,1125.33318 853.119867,1127.24318 851.489867,1129.33318 C848.119867,1133.46318 845.869867,1138.22318 845.119867,1143.36318 C844.349867,1148.51318 845.219867,1154.02318 847.249867,1159.30318 C849.249867,1164.60318 852.239867,1169.70318 855.879867,1174.45318" id="Fill-83" fill="#FFC48A"></path>
                <path d="M1091.16987,1114.65318 C1094.05987,1115.50318 1096.83987,1116.75318 1099.49987,1118.25318 C1102.15987,1119.75318 1104.68987,1121.54318 1107.03987,1123.62318 C1109.36987,1125.70318 1111.53987,1128.06318 1113.30987,1130.78318 C1115.08987,1133.48318 1116.50987,1136.51318 1117.38987,1139.74318 C1119.18987,1146.20318 1118.64987,1153.28318 1116.49987,1159.43318 C1114.45987,1165.69318 1110.82987,1171.39318 1106.25987,1176.05318 C1103.96987,1178.38318 1101.44987,1180.45318 1098.75987,1182.27318 C1097.40987,1183.18318 1096.00987,1183.98318 1094.57987,1184.74318 C1093.18987,1185.55318 1091.65987,1186.18318 1090.17987,1186.84318 C1087.12987,1188.03318 1083.92987,1188.96318 1080.61987,1189.38318 C1077.32987,1189.84318 1073.93987,1189.74318 1070.67987,1189.17318 C1064.12987,1188.02318 1058.22987,1184.88318 1053.52987,1180.80318 C1051.16987,1178.75318 1049.04987,1176.50318 1047.18987,1174.07318 C1045.33987,1171.64318 1043.69987,1169.06318 1042.45987,1166.32318 C1046.59987,1170.65318 1051.18987,1174.36318 1056.09987,1177.20318 C1060.99987,1180.04318 1066.28987,1181.85318 1071.54987,1182.15318 C1074.16987,1182.30318 1076.77987,1182.11318 1079.32987,1181.55318 C1081.87987,1180.97318 1084.36987,1180.12318 1086.77987,1179.01318 C1091.57987,1176.66318 1096.14987,1173.59318 1099.83987,1169.75318 C1101.72987,1167.87318 1103.39987,1165.78318 1104.84987,1163.57318 C1106.32987,1161.37318 1107.52987,1159.01318 1108.48987,1156.54318 C1110.50987,1151.61318 1111.27987,1146.40318 1110.49987,1141.26318 C1109.73987,1136.11318 1107.29987,1131.09318 1103.82987,1126.63318 C1100.37987,1122.14318 1096.02987,1118.14318 1091.16987,1114.65318" id="Fill-84" fill="#FFC48A"></path>
                <path d="M1171.81987,668.493183 C1174.70987,669.343183 1177.48987,670.593183 1180.14987,672.103183 C1182.80987,673.603183 1185.33987,675.383183 1187.68987,677.463183 C1190.00987,679.543183 1192.17987,681.913183 1193.94987,684.623183 C1195.73987,687.323183 1197.14987,690.363183 1198.03987,693.583183 C1199.82987,700.043183 1199.29987,707.123183 1197.14987,713.273183 C1195.10987,719.533183 1191.47987,725.243183 1186.90987,729.893183 C1184.61987,732.223183 1182.08987,734.303183 1179.39987,736.113183 C1178.05987,737.023183 1176.64987,737.823183 1175.22987,738.583183 C1173.83987,739.393183 1172.30987,740.023183 1170.82987,740.693183 C1167.76987,741.873183 1164.57987,742.813183 1161.26987,743.223183 C1157.96987,743.683183 1154.58987,743.593183 1151.32987,743.013183 C1144.77987,741.863183 1138.87987,738.723183 1134.16987,734.653183 C1131.81987,732.603183 1129.69987,730.343183 1127.83987,727.913183 C1125.97987,725.493183 1124.34987,722.913183 1123.10987,720.163183 C1127.23987,724.503183 1131.82987,728.203183 1136.74987,731.053183 C1141.64987,733.883183 1146.93987,735.693183 1152.19987,735.993183 C1154.81987,736.153183 1157.42987,735.953183 1159.97987,735.393183 C1162.51987,734.823183 1165.01987,733.973183 1167.42987,732.863183 C1172.22987,730.513183 1176.79987,727.433183 1180.48987,723.593183 C1182.37987,721.713183 1184.04987,719.633183 1185.49987,717.413183 C1186.97987,715.223183 1188.17987,712.863183 1189.13987,710.383183 C1191.15987,705.453183 1191.91987,700.243183 1191.14987,695.103183 C1190.38987,689.963183 1187.94987,684.943183 1184.47987,680.483183 C1181.01987,675.993183 1176.67987,671.983183 1171.81987,668.493183" id="Fill-85" fill="#FFC48A"></path>
                <path d="M1337.99987,960.823183 C1340.91987,960.083183 1343.94987,959.733183 1346.99987,959.673183 C1350.05987,959.603183 1353.14987,959.853183 1356.22987,960.443183 C1359.28987,961.043183 1362.35987,961.973183 1365.26987,963.403183 C1368.18987,964.813183 1370.94987,966.703183 1373.34987,969.023183 C1378.18987,973.663183 1381.34987,980.033183 1382.62987,986.413183 C1384.06987,992.833183 1383.85987,999.603183 1382.30987,1005.93318 C1381.51987,1009.10318 1380.40987,1012.18318 1379.01987,1015.11318 C1378.32987,1016.58318 1377.52987,1017.98318 1376.68987,1019.36318 C1375.90987,1020.77318 1374.91987,1022.09318 1373.97987,1023.42318 C1371.95987,1026.00318 1369.67987,1028.43318 1367.04987,1030.48318 C1364.44987,1032.55318 1361.48987,1034.20318 1358.39987,1035.37318 C1352.16987,1037.72318 1345.49987,1038.03318 1339.36987,1036.92318 C1336.29987,1036.36318 1333.31987,1035.50318 1330.48987,1034.36318 C1327.65987,1033.22318 1324.93987,1031.84318 1322.46987,1030.11318 C1328.22987,1031.73318 1334.06987,1032.57318 1339.74987,1032.51318 C1345.40987,1032.45318 1350.88987,1031.31318 1355.55987,1028.88318 C1357.88987,1027.68318 1360.03987,1026.18318 1361.94987,1024.40318 C1363.83987,1022.61318 1365.55987,1020.60318 1367.05987,1018.42318 C1369.98987,1013.95318 1372.34987,1008.97318 1373.56987,1003.79318 C1374.22987,1001.20318 1374.60987,998.563183 1374.71987,995.923183 C1374.87987,993.273183 1374.69987,990.633183 1374.26987,988.023183 C1373.48987,982.743183 1371.48987,977.873183 1368.20987,973.853183 C1364.92987,969.813183 1360.26987,966.743183 1355.00987,964.673183 C1349.73987,962.573183 1343.95987,961.343183 1337.99987,960.823183" id="Fill-86" fill="#FFC48A"></path>
                <path d="M802.419867,1338.22318 C805.339867,1337.48318 808.369867,1337.14318 811.429867,1337.08318 C814.479867,1337.01318 817.569867,1337.25318 820.649867,1337.84318 C823.709867,1338.45318 826.779867,1339.37318 829.689867,1340.81318 C832.609867,1342.22318 835.369867,1344.11318 837.769867,1346.43318 C842.619867,1351.07318 845.769867,1357.43318 847.049867,1363.82318 C848.489867,1370.24318 848.279867,1377.00318 846.729867,1383.34318 C845.949867,1386.51318 844.829867,1389.58318 843.439867,1392.51318 C842.749867,1393.98318 841.949867,1395.39318 841.109867,1396.77318 C840.329867,1398.18318 839.339867,1399.50318 838.399867,1400.82318 C836.379867,1403.40318 834.099867,1405.84318 831.469867,1407.88318 C828.869867,1409.96318 825.909867,1411.60318 822.819867,1412.77318 C816.599867,1415.13318 809.919867,1415.43318 803.789867,1414.33318 C800.719867,1413.77318 797.749867,1412.91318 794.909867,1411.77318 C792.079867,1410.63318 789.359867,1409.24318 786.889867,1407.52318 C792.659867,1409.13318 798.499867,1409.98318 804.169867,1409.92318 C809.829867,1409.86318 815.309867,1408.71318 819.979867,1406.29318 C822.319867,1405.08318 824.459867,1403.59318 826.369867,1401.80318 C828.269867,1400.01318 829.979867,1398.01318 831.489867,1395.82318 C834.409867,1391.36318 836.779867,1386.37318 837.989867,1381.19318 C838.659867,1378.61318 839.029867,1375.97318 839.139867,1373.32318 C839.299867,1370.68318 839.119867,1368.04318 838.689867,1365.42318 C837.919867,1360.15318 835.909867,1355.28318 832.629867,1351.25318 C829.349867,1347.21318 824.689867,1344.14318 819.429867,1342.07318 C814.169867,1339.97318 808.379867,1338.74318 802.419867,1338.22318" id="Fill-87" fill="#FFC48A"></path>
                <path d="M602.932867,944.553183 C602.797867,947.563183 602.250867,950.573183 601.426867,953.503183 C600.610867,956.453183 599.483867,959.343183 598.028867,962.113183 C596.562867,964.873183 594.789867,967.543183 592.577867,969.923183 C590.384867,972.303183 587.778867,974.403183 584.860867,976.033183 C579.018867,979.323183 572.018867,980.503183 565.531867,979.893183 C558.968867,979.413183 552.556867,977.253183 546.939867,973.943183 C544.129867,972.273183 541.510867,970.313183 539.104867,968.143183 C537.898867,967.053183 536.781867,965.883183 535.701867,964.683183 C534.582867,963.523183 533.605867,962.193183 532.603867,960.913183 C530.720867,958.233183 529.047867,955.353183 527.850867,952.243183 C526.613867,949.153183 525.893867,945.843183 525.668867,942.543183 C525.212867,935.903183 526.846867,929.423183 529.677867,923.883183 C531.102867,921.103183 532.784867,918.503183 534.693867,916.113183 C536.603867,913.733183 538.716867,911.533183 541.082867,909.663183 C537.867867,914.723183 535.369867,920.063183 533.787867,925.513183 C532.211867,930.953183 531.723867,936.523183 532.695867,941.703183 C533.172867,944.283183 533.986867,946.773183 535.142867,949.113183 C536.311867,951.443183 537.733867,953.663183 539.391867,955.743183 C542.821867,959.833183 546.907867,963.533183 551.517867,966.193183 C553.797867,967.573183 556.218867,968.693183 558.715867,969.573183 C561.203867,970.483183 563.784867,971.083183 566.413867,971.413183 C571.685867,972.203183 576.927867,971.693183 581.731867,969.713183 C586.544867,967.733183 590.832867,964.163183 594.332867,959.723183 C597.861867,955.293183 600.708867,950.113183 602.932867,944.553183" id="Fill-88" fill="#FFC48A"></path>
                <path d="M1019.72987,1307.89318 C1018.20987,1310.49318 1016.32987,1312.90318 1014.22987,1315.12318 C1012.13987,1317.34318 1009.79987,1319.37318 1007.21987,1321.15318 C1004.63987,1322.91318 1001.82987,1324.45318 998.759867,1325.52318 C995.719867,1326.61318 992.429867,1327.26318 989.089867,1327.34318 C982.389867,1327.54318 975.639867,1325.33318 970.189867,1321.76318 C964.599867,1318.29318 959.929867,1313.39318 956.499867,1307.84318 C954.789867,1305.06318 953.379867,1302.11318 952.259867,1299.07318 C951.699867,1297.54318 951.259867,1295.99318 950.859867,1294.42318 C950.409867,1292.87318 950.159867,1291.24318 949.869867,1289.65318 C949.449867,1286.39318 949.309867,1283.07318 949.699867,1279.76318 C950.039867,1276.45318 950.949867,1273.18318 952.279867,1270.15318 C954.969867,1264.07318 959.429867,1259.09318 964.519867,1255.50318 C967.069867,1253.70318 969.769867,1252.19318 972.569867,1250.96318 C975.369867,1249.74318 978.259867,1248.78318 981.229867,1248.23318 C976.029867,1251.20318 971.329867,1254.77318 967.389867,1258.86318 C963.469867,1262.95318 960.439867,1267.65318 958.899867,1272.68318 C958.109867,1275.19318 957.679867,1277.77318 957.609867,1280.38318 C957.559867,1282.99318 957.789867,1285.61318 958.289867,1288.22318 C959.419867,1293.44318 961.309867,1298.62318 964.159867,1303.12318 C965.529867,1305.40318 967.149867,1307.52318 968.949867,1309.46318 C970.729867,1311.42318 972.739867,1313.15318 974.909867,1314.67318 C979.209867,1317.82318 984.089867,1319.81318 989.259867,1320.29318 C994.439867,1320.78318 999.899867,1319.62318 1005.05987,1317.32318 C1010.24987,1315.04318 1015.17987,1311.78318 1019.72987,1307.89318" id="Fill-89" fill="#FFC48A"></path>
                <path d="M1274.12987,1226.01318 C1273.61987,1226.01318 1273.17987,1225.62318 1273.13987,1225.10318 L1246.88987,931.933183 C1246.83987,931.383183 1247.23987,930.893183 1247.78987,930.843183 C1248.34987,930.793183 1248.82987,931.203183 1248.87987,931.753183 L1275.12987,1224.92318 C1275.17987,1225.47318 1274.76987,1225.95318 1274.21987,1226.00318 C1274.18987,1226.01318 1274.15987,1226.01318 1274.12987,1226.01318" id="Fill-90" fill="#333333"></path>
                <path d="M917.279867,861.493183 C916.929867,861.923183 916.299867,861.983183 915.879867,861.633183 C909.859867,856.703183 903.149867,854.883183 895.929867,856.203183 C870.569867,860.873183 846.389867,902.513183 846.149867,902.933183 C845.989867,903.203183 845.719867,903.393183 845.409867,903.433183 L845.279867,903.433183 C845.009867,903.433183 844.749867,903.333183 844.559867,903.133183 C790.249867,846.803183 750.399867,687.503183 749.999867,685.903183 C749.869867,685.363183 750.199867,684.823183 750.739867,684.693183 C751.269867,684.563183 751.809867,684.883183 751.949867,685.423183 C752.339867,687.013183 791.609867,844.023183 845.089867,900.793183 C845.489867,900.133183 846.049867,899.213183 846.759867,898.083183 C853.519867,887.393183 873.719867,858.263183 895.569867,854.243183 C901.569867,853.143183 907.239867,854.043183 912.479867,856.913183 C914.069867,857.783183 915.629867,858.843183 917.139867,860.083183 C917.569867,860.433183 917.629867,861.063183 917.279867,861.493183" id="Fill-91" fill="#333333"></path>
                <path d="M1113.99987,642.552183 C1113.91987,644.272183 1105.66987,815.233183 1060.25987,885.183183 C1060.07987,885.453183 1059.76987,885.633183 1059.43987,885.633183 C1059.42987,885.633183 1059.42987,885.633183 1059.41987,885.633183 C1059.08987,885.633183 1058.78987,885.483183 1058.59987,885.223183 C1058.37987,884.903183 1035.46987,853.353183 1006.96987,849.183183 C995.189867,847.453183 983.989867,850.633183 973.669867,858.613183 C973.229867,858.943183 972.609867,858.863183 972.269867,858.433183 C971.929867,857.993183 972.009867,857.363183 972.449867,857.023183 C974.099867,855.743183 975.769867,854.583183 977.469867,853.553183 L977.499867,853.533183 C986.839867,847.803183 996.829867,845.673183 1007.25987,847.203183 C1030.22987,850.563183 1049.54987,871.033183 1056.96987,879.933183 C1057.99987,881.163183 1058.79987,882.173183 1059.34987,882.883183 C1103.79987,812.643183 1111.92987,644.162183 1111.99987,642.462183 C1112.02987,641.902183 1112.53987,641.492183 1113.04987,641.502004 C1113.59987,641.532183 1114.02987,641.992183 1113.99987,642.552183" id="Fill-92" fill="#333333"></path>
                <path d="M1251.67987,974.283183 C1251.67987,974.283183 1276.26987,1105.25318 1303.64987,1133.65318 L1266.29987,1137.50318 L1251.67987,974.283183" id="Fill-93" fill="#333333"></path>
                <path d="M1467.92987,1116.41318 L1358.10987,1131.42318 C1395.58987,1123.94318 1462.57987,1086.22318 1462.57987,1086.22318 C1466.05987,1105.08318 1467.92987,1116.41318 1467.92987,1116.41318" id="Fill-94" fill="#333333"></path>
                <path d="M452.328867,1048.97318 C452.328867,1048.97318 428.497867,893.983183 421.736867,872.353183 C421.736867,872.353183 456.094867,1013.20318 483.197867,1040.47318 L452.328867,1048.97318" id="Fill-95" fill="#333333"></path>
                <path d="M668.941867,989.313183 L675.934867,887.903183 C675.934867,887.903183 656.623867,983.623183 637.546867,997.963183 L668.941867,989.313183" id="Fill-96" fill="#333333"></path>
                <path d="M930.379867,892.443183 C894.799867,866.563183 846.149867,902.933183 846.149867,902.933183 L846.759867,898.083183 C853.519867,887.393183 873.719867,858.263183 895.569867,854.243183 C901.569867,853.143183 907.239867,854.043183 912.479867,856.913183 L917.279867,861.493183 L930.379867,892.443183" id="Fill-97" fill="#333333"></path>
                <path d="M1058.59987,885.223183 C1058.59987,885.223183 985.299867,858.873183 967.519867,885.223183 L972.269867,858.433183 L977.469867,853.553183 L977.499867,853.533183 C986.839867,847.803183 996.829867,845.673183 1007.25987,847.203183 C1030.22987,850.563183 1049.54987,871.033183 1056.96987,879.933183 L1058.59987,885.223183" id="Fill-98" fill="#333333"></path>
                <path d="M928.439867,715.843183 C845.279867,722.943183 802.689867,623.562183 802.689867,623.562183 L808.779867,462.322183 L992.829867,395.392183 L1036.94987,600.742183 C1044.04987,633.792183 1011.58987,708.743183 928.439867,715.843183" id="Fill-99" fill="#FFB699"></path>
                <path d="M886.929867,543.732183 C886.049867,544.302183 839.079867,574.302183 804.249867,582.192183 L805.249867,555.802183 L806.319867,554.542183 C832.109867,555.582183 860.539867,550.692183 886.929867,543.732183" id="Fill-100" fill="#333333"></path>
                <path d="M983.709867,507.962183 C983.709867,507.962183 939.319867,529.922183 886.939867,543.732183 C886.939867,543.732183 886.939867,543.732183 886.929867,543.732183 C860.539867,550.692183 832.109867,555.582183 806.319867,554.542183 C789.969867,553.892183 774.669867,550.852183 761.619867,544.462183 C687.091867,507.962183 759.979867,202.840183 759.979867,202.840183 L927.429867,209.812183 L983.709867,507.962183" id="Fill-101" fill="#FFB699"></path>
                <path d="M753.259867,322.129183 C752.899867,322.129183 752.539867,322.000183 752.249867,321.739183 C751.639867,321.181183 751.589867,320.232183 752.149867,319.619183 C752.609867,319.120183 763.449867,307.394183 778.449867,307.272183 C787.459867,307.228183 795.959867,311.347183 803.719867,319.602183 C804.289867,320.205183 804.259867,321.155183 803.659867,321.722183 C803.059867,322.290183 802.109867,322.260183 801.539867,321.657183 C794.369867,314.035183 786.569867,310.183183 778.469867,310.272183 C764.769867,310.384183 754.469867,321.526183 754.369867,321.639183 C754.069867,321.964183 753.669867,322.129183 753.259867,322.129183" id="Fill-102" fill="#333333"></path>
                <path d="M845.189867,328.058183 C844.829867,328.058183 844.469867,327.929183 844.179867,327.668183 C843.569867,327.110183 843.519867,326.161183 844.079867,325.549183 C844.539867,325.050183 855.379867,313.324183 870.379867,313.201183 C879.379867,313.136183 887.889867,317.277183 895.649867,325.531183 C896.219867,326.135183 896.189867,327.084183 895.589867,327.651183 C894.979867,328.219183 894.039867,328.189183 893.469867,327.586183 C886.359867,320.031183 878.669867,316.200183 870.609867,316.200183 C870.539867,316.200183 870.469867,316.201183 870.399867,316.201183 C856.699867,316.313183 846.399867,327.455183 846.299867,327.568183 C845.999867,327.893183 845.599867,328.058183 845.189867,328.058183" id="Fill-103" fill="#333333"></path>
                <path d="M818.329867,418.309183 C815.089867,418.309183 786.669867,417.957183 785.559867,405.787183 C784.759867,397.039183 792.499867,394.287183 799.979867,391.627183 C803.329867,390.435183 806.799867,389.203183 809.569867,387.442183 C815.699867,383.554183 817.279867,350.711183 816.829867,330.923183 C816.809867,330.095183 817.469867,329.408183 818.299867,329.388444 C819.129867,329.363183 819.809867,330.027183 819.829867,330.855183 C819.949867,336.267183 820.749867,383.907183 811.179867,389.975183 C808.119867,391.917183 804.489867,393.206183 800.989867,394.453183 C792.909867,397.325183 787.989867,399.396183 788.549867,405.516183 C789.279867,413.550183 810.289867,415.309183 818.329867,415.309183 C819.159867,415.309183 819.829867,415.980183 819.829867,416.809183 C819.829867,417.637183 819.159867,418.309183 818.329867,418.309183" id="Fill-104" fill="#333333"></path>
                <path d="M835.469867,456.074183 C834.799867,456.074183 834.199867,455.628183 834.019867,454.955183 C833.809867,454.154183 834.289867,453.334183 835.089867,453.123183 C835.439867,453.029183 870.869867,443.314183 870.269867,411.524183 C870.249867,410.696183 870.909867,410.012183 871.739867,409.995741 C872.539867,409.976183 873.249867,410.638183 873.269867,411.467183 C873.919867,445.635183 836.229867,455.925183 835.849867,456.024183 C835.719867,456.058183 835.589867,456.074183 835.469867,456.074183" id="Fill-105" fill="#333333"></path>
                <path d="M971.539867,368.014183 C971.539867,368.014183 878.749867,345.197183 875.709867,226.549183 C875.709867,226.549183 865.579867,213.877183 827.029867,213.873183 C750.979867,213.865183 775.549867,306.492183 729.289867,312.408183 L708.029867,261.762183 C695.029867,230.799183 713.329867,195.637183 746.149867,188.516183 L831.269867,170.046183 C845.739867,166.907183 860.839867,168.764183 874.119867,175.316183 L950.859867,213.188183 C976.099867,225.647183 990.249867,253.130183 985.729867,280.915183 L971.539867,368.014183" id="Fill-106" fill="#682121"></path>
                <path d="M988.119867,430.950183 C981.239867,430.950183 974.549867,430.002183 968.259867,428.094183 C953.219867,423.531183 942.339867,414.033183 937.619867,401.349183 C932.899867,388.667183 934.929867,374.367183 943.319867,361.084183 C951.629867,347.931183 965.219867,337.333183 981.589867,331.241183 C1015.51987,318.616183 1050.99987,329.518183 1060.68987,355.548183 C1070.37987,381.578183 1050.65987,413.028183 1016.72987,425.656183 C1007.26987,429.175183 997.529867,430.950183 988.119867,430.950183" id="Fill-107" fill="#FFB699"></path>
                <path d="M1029.25987,362.520183 C1016.82987,358.818183 1005.67987,360.225183 996.109867,366.697183 C993.519867,368.447183 991.179867,370.500183 989.049867,372.730183 C988.989867,372.779183 988.939867,372.831183 988.899867,372.887183 C976.929867,385.554183 972.119867,403.908183 971.889867,406.411183 C971.809867,407.227183 972.409867,407.937183 973.219867,408.025183 C973.279867,408.031183 973.329867,408.033183 973.379867,408.033183 C974.129867,408.033183 974.779867,407.460183 974.869867,406.699183 C975.179867,404.170183 979.819867,387.180183 990.709867,375.355183 C994.979867,375.446183 1018.91987,376.736183 1025.42987,391.929183 C1025.66987,392.498183 1026.22987,392.839183 1026.80987,392.839183 C1027.00987,392.839183 1027.20987,392.800183 1027.39987,392.717183 C1028.15987,392.390183 1028.50987,391.509183 1028.18987,390.747183 C1021.82987,375.914183 1001.83987,373.042183 993.599867,372.486183 C995.049867,371.179183 996.579867,369.968183 998.219867,368.895183 C1006.90987,363.197183 1017.06987,362.020183 1028.40987,365.395183 C1029.19987,365.632183 1030.03987,365.180183 1030.26987,364.386183 C1030.50987,363.592183 1030.05987,362.757183 1029.25987,362.520183" id="Fill-108" fill="#333333"></path>
                <path d="M1701.15987,1477.39318 L235.293867,1477.39318 C234.189867,1477.39318 233.293867,1476.49318 233.293867,1475.39318 C233.293867,1474.28318 234.189867,1473.39318 235.293867,1473.39318 L1701.15987,1473.39318 C1702.25987,1473.39318 1703.15987,1474.28318 1703.15987,1475.39318 C1703.15987,1476.49318 1702.25987,1477.39318 1701.15987,1477.39318" id="Fill-109" fill="#E0B189"></path>
            </g>
        </g>
    </g>
</svg>