<?xml version="1.0" encoding="UTF-8"?>
<svg width="783px" height="1276px" viewBox="0 0 783 1276" version="1.1" xmlns="http://www.w3.org/2000/svg" xmlns:xlink="http://www.w3.org/1999/xlink">
    <title>2</title>
    <g id="Page-1" stroke="none" stroke-width="1" fill="none" fill-rule="evenodd">
        <g id="2" transform="translate(0.343080, 0.411663)" fill-rule="nonzero">
            <g id="Group" transform="translate(80.656920, 0.000000)">
                <path d="M160,515.588337 C137,586.588337 91,739.588337 84,787.588337 C74,851.588337 111,1021.58834 125,1074.58834 C138,1127.58834 145,1189.58834 145,1202.58834 C145,1215.58834 133,1240.58834 121,1258.58834 C110,1276.58834 126,1279.58834 139,1270.58834 C152,1260.58834 159,1239.58834 177,1230.58834 C196,1221.58834 194,1204.58834 190,1197.58834 C187,1191.58834 178,1185.58834 178,1176.58834 C179,1167.58834 177,872.588337 169,846.588337 C161,820.588337 239,708.588337 253,678.588337 C263,656.588337 245,571.588337 213,518.588337 C190,518.588337 173,516.588337 160,515.588337" id="Fill-4" fill="#FCA18A"></path>
                <path d="M295,475.580567 C295,475.580567 377,747.588337 400,787.588337 C423,826.588337 651,1030.58834 663,1043.58834 C665,1045.58834 667,1046.58834 668,1047.58834 C674,1049.58834 681,1051.58834 688,1053.58834 C710,1059.58834 695,1091.58834 699,1120.58834 C703,1149.58834 702,1165.58834 694,1167.58834 C686,1169.58834 676,1145.58834 672,1126.58834 C668,1107.58834 639,1082.58834 638,1082.58834 C575,1039.58834 356,915.588337 329,878.588337 C299,836.588337 176,533.588337 171,504.588337 C165,474.588337 295,475.580567 295,475.580567" id="Fill-5" fill="#FCA18A"></path>
                <path d="M50,804.588337 C82,845.588337 367,843.588337 440,792.588337 C436,638.588337 380,638.588337 323,472.588337 L145,499.588337 C145,499.588337 102,599.588337 80,683.588337 C58,767.588337 50,804.588337 50,804.588337" id="Fill-6" fill="#0B377A"></path>
                <path d="M188,0.588336685 C188,0.588336685 147,-7.41166332 137,35.5883367 C128,77.5883367 134,97.5883367 118,134.588337 C101,170.588337 137,246.588337 148,260.588337 C158,274.588337 313,291.588337 344,245.588337 C374,198.588337 329,164.588337 311,152.588337 C293,140.588337 278,130.588337 277,96.5883367 C275,63.5883367 266,9.58833668 188,0.588336685" id="Fill-7" fill="#0B377A"></path>
                <path d="M431,207.588337 C454,191.588337 470,182.588337 492,158.588337 C513,134.588337 537,79.5883367 536,76.5883367 C536,73.5883367 530,57.5883367 539,47.5883367 C555,31.5883367 590,55.5883367 560,86.5883367 C556,90.5883367 529,177.588337 512,199.588337 C496,221.588337 469,237.588337 447,252.588337 C441,236.588337 435,215.588337 431,207.588337" id="Fill-9" fill="#FF977C"></path>
                <path d="M298,213.588337 C298,213.588337 386,217.588337 420,200.588337 C425,198.588337 430,195.588337 435,191.588337 C443,206.588337 451,227.588337 457,256.588337 C428,275.588337 332,280.588337 332,280.588337 C332,280.588337 323,383.588337 324,421.588337 C325,460.588337 341,497.588337 341,497.588337 C341,497.588337 309,518.588337 230,518.588337 C151,519.588337 127,508.588337 127,508.588337 C127,508.588337 145,474.588337 143,443.588337 C142,411.588337 121,381.588337 118,338.588337 C115,295.588337 118,285.588337 118,285.588337 C118,285.588337 48,268.588337 0,250.588337 C5,230.588337 17,203.588337 41,169.588337 C47,176.588337 52,181.588337 56,184.588337 C79,203.588337 119,200.588337 158,195.588337 C197,190.588337 264,214.588337 298,213.588337" id="Fill-10" fill="#F65284"></path>
                <path d="M130,1243.58834 C127,1248.58834 124,1253.58834 121,1258.58834 C110,1276.58834 126,1279.58834 139,1270.58834 C152,1260.58834 159,1239.58834 177,1230.58834 C196,1221.58834 194,1204.58834 190,1197.58834 C188,1192.58834 182,1188.58834 180,1182.58834 C172,1189.58834 164,1199.58834 159,1210.58834 C153,1228.58834 144,1237.58834 130,1243.58834" id="Fill-12" fill="#0B377A"></path>
                <path d="M168,56.5883367 C168,56.5883367 152,97.5883367 157,135.588337 C162,173.588337 175,176.588337 190,177.588337 C205,178.588337 212,169.588337 233,142.588337 C253,116.588337 252,125.588337 257,112.588337 C262,98.5883367 253,94.5883367 244,95.5883367 C236,96.5883367 228,103.588337 228,103.588337 C228,103.588337 233,76.5883367 229,68.5883367 C225,61.5883367 213,56.5883367 168,56.5883367" id="Fill-13" fill="#FCA18A"></path>
                <path d="M187,140.588337 C187,140.588337 187,141.588337 188,142.588337 C191,147.588337 202,163.588337 203,183.588337 C203,206.588337 192,216.588337 192,216.588337 C192,216.588337 199,224.588337 230,220.588337 C261,216.588337 259,208.588337 259,208.588337 C259,208.588337 244,190.588337 238,173.588337 C231,156.588337 223,120.588337 223,120.588337 C223,120.588337 187,141.588337 187,140.588337" id="Fill-14" fill="#FCA18A"></path>
            </g>
            <path d="M101.65692,255.588337 C55.6569205,180.588337 39.6569205,155.588337 15.6569205,69.5883367 C14.6569205,63.5883367 12.6569205,67.5883367 3.65692047,52.5883367 C-6.34307953,38.5883367 5.65692047,22.5883367 21.6569205,22.5883367 C38.6569205,22.5883367 42.6569205,39.5883367 41.6569205,49.5883367 C40.6569205,59.5883367 40.6569205,59.5883367 40.6569205,59.5883367 C40.6569205,59.5883367 100.65692,161.588337 132.65692,196.588337 C108.65692,229.588337 106.65692,235.588337 101.65692,255.588337" id="Fill-8" fill="#FCA18A"></path>
        </g>
    </g>
</svg>