<?xml version="1.0" encoding="UTF-8"?>
<svg width="706px" height="877px" viewBox="0 0 706 877" version="1.1" xmlns="http://www.w3.org/2000/svg" xmlns:xlink="http://www.w3.org/1999/xlink">
    <title>Group</title>
    <g id="Page-1" stroke="none" stroke-width="1" fill="none" fill-rule="evenodd">
        <g id="Group">
            <path d="M286.775376,359.398504 C271.426416,406.824507 240.728495,509.024202 236.057073,541.086852 C229.383612,583.837052 254.075417,697.392271 263.418263,732.79478 C272.093762,768.197289 276.765185,809.611545 276.765185,818.295179 C276.765185,826.978813 268.757031,843.67811 260.748878,855.701604 C253.408071,867.725097 264.085609,869.729013 272.761108,863.717266 C281.436607,857.037547 286.10803,843.010138 298.12026,836.998391 C310.799836,830.986644 309.465144,819.631123 306.795759,814.95532 C304.793721,810.947488 298.787606,806.939657 298.787606,800.92791 C299.454952,794.916164 298.12026,597.864461 292.781491,580.497192 C287.442722,563.129924 339.495718,488.317075 348.838564,468.277919 C355.512025,453.582537 343.499795,396.804929 322.14472,361.40242 C306.795759,361.40242 295.450876,360.066476 286.775376,359.398504" id="Fill-4" fill="#FCA18A" fill-rule="nonzero"></path>
            <path d="M376.8671,332.671888 C376.8671,332.671888 431.58948,514.367977 446.938441,541.086852 C462.287401,567.137755 614.442312,703.404018 622.450465,712.087652 C623.785157,713.423596 625.11985,714.091568 625.787196,714.75954 C629.791272,716.095483 634.462695,717.431427 639.134118,718.767371 C653.815732,722.775202 643.80554,744.150302 646.474925,763.521486 C649.144309,782.89267 648.476963,793.58022 643.138194,794.916164 C637.799426,796.252107 631.125965,780.220783 628.45658,767.529317 C625.787196,754.837852 606.434159,738.138555 605.766813,738.138555 C563.724008,709.415765 417.575212,626.587251 399.556867,601.872292 C379.536484,573.817474 297.452914,371.421998 294.116183,352.050814 C290.112107,332.011658 376.8671,332.671888 376.8671,332.671888" id="Fill-5" fill="#FCA18A" fill-rule="nonzero"></path>
            <path d="M213.367305,552.442374 C234.72238,579.82922 424.916019,578.493277 473.632285,544.426711 C470.9629,441.559044 433.591519,441.559044 395.552791,330.675714 L276.765185,348.710954 C276.765185,348.710954 248.069302,415.508141 233.387688,471.617778 C218.706074,527.727415 213.367305,552.442374 213.367305,552.442374" id="Fill-6" fill="#0B377A" fill-rule="nonzero"></path>
            <path d="M305.461067,15.3929924 C305.461067,15.3929924 278.099877,10.0492174 271.426416,38.7720077 C265.420301,66.8268261 269.424378,80.1862635 258.74684,104.901223 C247.401956,128.94821 271.426416,179.714072 278.767223,189.065678 C285.440684,198.417284 388.87933,209.772806 409.567059,179.0461 C429.587442,147.651422 399.556867,124.940379 387.544638,116.924716 C375.532408,108.909054 365.522216,102.229335 364.85487,79.5182916 C363.520178,57.47522 357.514063,21.4047392 305.461067,15.3929924" id="Fill-7" fill="#0B377A" fill-rule="nonzero"></path>
            <path d="M467.62617,153.663169 C482.97513,142.975619 493.652668,136.963872 508.334282,120.932548 C522.34855,104.901223 538.364856,68.1627699 537.69751,66.1588543 C537.69751,64.1549387 533.693434,53.4673888 539.699549,46.7876701 C550.377086,36.1001202 573.7342,52.1314451 553.713817,72.8385729 C551.044432,75.5104604 533.026088,133.624013 521.681204,148.319394 C511.003666,163.014775 492.985322,173.702325 478.303707,183.721903 C474.299631,173.034353 470.295554,159.006944 467.62617,153.663169" id="Fill-9" fill="#FF977C" fill-rule="nonzero"></path>
            <path d="M378.869138,157.671 C378.869138,157.671 437.595595,160.342888 460.285363,148.987366 C463.622093,147.651422 466.958824,145.647507 470.295554,142.975619 C475.634323,152.995197 480.973092,167.022606 484.977168,186.393791 C465.624131,199.085256 401.558906,202.425115 401.558906,202.425115 C401.558906,202.425115 395.552791,271.226218 396.220137,296.609149 C396.887483,322.660051 407.565021,347.375011 407.565021,347.375011 C407.565021,347.375011 386.209945,361.40242 333.489603,361.40242 C280.769261,362.070392 264.752955,354.722701 264.752955,354.722701 C264.752955,354.722701 276.765185,332.011658 275.430492,311.30453 C274.763146,289.92943 260.748878,269.890274 258.74684,241.167484 C256.744802,212.444693 258.74684,205.764975 258.74684,205.764975 C258.74684,205.764975 212.032613,194.409453 180,182.385959 C183.336731,169.026522 191.344884,150.991282 207.36119,128.280238 C211.365267,132.956041 214.701997,136.295901 217.371382,138.299816 C232.720342,150.991282 259.414186,148.987366 285.440684,145.647507 C311.467182,142.307647 356.179371,158.338972 378.869138,157.671" id="Fill-10" fill="#F65284" fill-rule="nonzero"></path>
            <path d="M292.114145,52.7994169 C292.114145,52.7994169 281.436607,80.1862635 284.773338,105.569195 C288.110068,130.952126 296.785568,132.956041 306.795759,133.624013 C316.805951,134.291985 321.477373,128.280238 335.491642,110.244998 C348.838564,92.8777292 348.171218,98.889476 351.507948,90.2058417 C354.844679,80.8542353 348.838564,78.1823479 342.832449,78.8503197 C337.49368,79.5182916 332.154911,84.1940949 332.154911,84.1940949 C332.154911,84.1940949 335.491642,66.1588543 332.822257,60.8150793 C330.152873,56.1392763 322.14472,52.7994169 292.114145,52.7994169" id="Fill-13" fill="#FCA18A" fill-rule="nonzero"></path>
            <path d="M304.793721,108.909054 C304.793721,108.909054 304.793721,109.577026 305.461067,110.244998 C307.463105,113.584857 314.803912,124.272407 315.471259,137.631844 C315.471259,152.995197 308.130451,159.674916 308.130451,159.674916 C308.130451,159.674916 312.801874,165.018691 333.489603,162.346803 C354.177332,159.674916 352.84264,154.331141 352.84264,154.331141 C352.84264,154.331141 342.832449,142.307647 338.828372,130.952126 C334.156949,119.596604 328.818181,95.5496166 328.818181,95.5496166 C328.818181,95.5496166 304.793721,109.577026 304.793721,108.909054" id="Fill-14" fill="#FCA18A" fill-rule="nonzero"></path>
            <path d="M194.20199,186 C163.340426,135.785408 152.605969,119.04721 136.504284,61.4678111 C135.83338,57.4506437 134.491573,60.1287553 128.453441,50.0858369 C121.744405,40.7124463 129.795248,30 140.529705,30 C151.935066,30 154.61868,41.3819742 153.947776,48.0772532 C153.276873,54.7725322 153.276873,54.7725322 153.276873,54.7725322 C153.276873,54.7725322 193.531086,123.064378 215,146.497854 C198.898315,168.592275 197.556507,172.609442 194.20199,186" id="Fill-8" fill="#FCA18A" fill-rule="nonzero"></path>
            <rect id="Rectangle" stroke="#979797" fill="#D8D8D8" opacity="0" x="0.5" y="0.5" width="705" height="876"></rect>
        </g>
    </g>
</svg>