<?xml version="1.0" encoding="UTF-8"?>
<svg width="706px" height="877px" viewBox="0 0 706 877" version="1.1" xmlns="http://www.w3.org/2000/svg" xmlns:xlink="http://www.w3.org/1999/xlink">
    <title>Group</title>
    <g id="Page-1" stroke="none" stroke-width="1" fill="none" fill-rule="evenodd">
        <g id="Group">
            <g id="3" transform="translate(170.000000, 27.000000)" fill-rule="nonzero">
                <path d="M94,175.626775 C94,175.626775 38.1476178,135.709913 29.0412511,118.170686 C21.1490667,102.445862 25.3987045,46.8041754 28.43416,32.2889528 C30.8625245,29.8697491 33.89798,25.6361425 33.89798,18.3785313 C33.2908889,6.88731342 19.3277934,-3.9991035 9.00724447,1.44410495 C-1.92039556,6.28251248 0.507968885,22.0073369 6.57888003,29.2649481 C7.18597114,29.8697491 7.79306225,30.47455 9.00724447,31.079351 C9.00724447,33.4985547 9.61433558,35.9177585 9.61433558,38.9417632 C9.00724447,50.432981 -2.52748667,111.517876 0.507968885,126.637899 C3.54342444,141.153122 53.3248956,187.722794 60.0028978,193.166003 C66.6809,198.609211 94,175.626775 94,175.626775" id="Fill-15" fill="#FCA18A"></path>
                <path d="M239,236.167911 C239,236.167911 308.722728,256.175173 320.242136,257.387735 C329.336405,258.600296 375.414034,224.042297 389.35858,211.916683 C388.752295,208.88528 388.752295,203.428754 392.996287,197.972228 C399.665418,188.878018 417.853956,188.271737 423.310517,198.578509 C429.373363,208.88528 417.853956,220.404613 408.759687,222.829736 C406.940833,222.829736 405.121979,222.829736 403.90941,222.829736 C399.059133,225.254858 393.602572,229.498823 386.933441,236.774191 C371.776326,252.537489 338.430674,274.969874 317.210713,281.638962 C295.990752,288.308049 247.487984,268.300787 247.487984,268.300787 L239,236.167911" id="Fill-16" fill="#FCA18A"></path>
                <path d="M73,204.321838 C73,204.321838 107.526445,195.253029 114.189443,183.161284 C120.852441,171.674126 106.920718,129.353018 132.966983,104.564941 C188.693877,51.3612625 285.610213,122.097971 228.671866,195.857616 C213.528688,208.553948 238.363499,201.903489 226.248957,239.387898 C213.528688,276.872308 120.852441,276.267721 73,204.321838" id="Fill-17" fill="#0B377A"></path>
                <path d="M162.181031,383 C162.181031,383 186.421621,397.563552 200.35996,442.467838 C213.692284,487.372125 208.238151,551.087666 208.238151,551.087666 C208.238151,551.087666 285.202023,569.898921 295.504274,571.11255 C305.806525,571.719365 299.746377,560.796701 310.048628,558.976257 C320.350878,557.155813 346.409512,580.21477 354.287704,596.598767 C362.165895,612.982765 360.347851,634.828094 357.923792,636.648538 C355.499733,638.468982 350.651615,633.00765 345.803497,625.119059 C341.561394,617.230468 332.471173,611.162321 328.835085,610.555507 C325.198996,610.555507 219.752431,592.351064 190.057709,593.564693 C160.969001,594.171508 140.3645,552.90811 134.304353,505.576565 C128.244205,457.638205 122.790073,426.690657 128.244205,408.486216 C133.092323,390.888591 162.181031,383 162.181031,383" id="Fill-18" fill="#FCA18A"></path>
                <path d="M112.45922,407.616464 C112.45922,407.616464 83.8855278,464.604637 74.7662644,527.655382 C66.2549519,590.706126 69.2947064,615.562672 82.669626,634.356644 C95.4365948,653.150616 139.209059,711.957561 152.583979,748.939248 C165.958898,785.920935 166.566849,804.10865 166.566849,813.808764 C166.566849,822.902622 166.566849,822.296364 167.782751,822.902622 C169.606604,824.115136 181.765622,813.808764 185.413327,802.896135 C189.061032,791.377249 186.629229,758.033105 187.845131,749.545505 C189.061032,741.664162 190.276934,743.482933 190.884885,738.632876 C190.884885,733.176562 192.100787,728.932762 186.629229,725.295219 C181.157671,721.051418 177.509965,725.295219 170.214555,720.445161 C162.311193,715.595104 147.720372,658.606931 137.993157,628.294073 C128.873894,597.981212 122.186434,601.012498 118.538729,593.131155 C114.891023,585.249812 148.328323,521.59281 145.896519,470.667209 C142.856764,420.347864 149.544224,396.703835 112.45922,407.616464" id="Fill-19" fill="#FCA18A"></path>
                <path d="M191.963099,402 C224.620573,469.933417 234.296862,488.129868 230.063485,556.669833 C216.758588,579.112123 69.1951873,620.357414 46.8187699,611.865737 C45.6092338,607.619898 42.5853936,546.358511 66.1713471,485.097126 C89.7573005,424.44229 91.5716046,409.885129 91.5716046,409.885129 L191.963099,402" id="Fill-20" fill="#0B377A"></path>
                <path d="M178.514162,315.155865 C178.514162,315.155865 179.120924,359.996992 182.761497,372.722177 C187.008832,385.447361 197.93055,409.685808 197.93055,409.685808 C197.93055,409.685808 173.660065,420.593109 141.501672,427.864643 C109.34328,435.136177 80.8254601,433.924255 80.8254601,433.924255 C80.8254601,433.924255 88.1066055,383.023517 83.2525086,355.149303 C78.3984116,327.275089 61.4090721,290.917419 73.5443146,264.255127 C85.0727949,236.986874 83.8592707,225.473612 80.8254601,218.202078 C77.1848873,210.930544 61.4090721,201.235165 56.5549751,198.811321 C51.7008782,195.781515 80.2186979,157 82.6457464,157 C84.4660328,157 120.264998,196.387476 145.142245,206.082855 C170.626254,215.778234 209.45903,226.685535 231.302467,229.109379 C253.752665,231.533224 258,231.533224 258,231.533224 C258,231.533224 256.786476,252.741865 252.539141,263.043205 C248.898568,273.950506 238.583612,280.010118 238.583612,280.010118 C238.583612,280.010118 185.188545,253.953787 178.514162,315.155865" id="Fill-21" fill="#7D70FE"></path>
                <path d="M135,200 C138.6,202.445787 142.2,204.280127 145.2,205.503021 C153.6,208.560254 163.8,212.228935 174,215.286168 C171,224.457869 165,237.29825 155.4,240.966931 C139.2,247.692845 126,236.686804 126,223.234976 C126,214.674721 131.4,204.891574 135,200" id="Fill-22" fill="#FCA18A"></path>
                <path d="M302,568.188969 C303.804493,565.15976 303.804493,560.313025 310.420965,559.101341 C320.646423,557.283816 346.510816,580.305806 354.330283,596.663536 C362.149751,613.021269 360.345258,634.831576 357.939268,636.649101 C355.533278,638.466627 350.721298,633.01405 345.909318,625.138106 C344.706323,622.714739 342.901831,620.291371 341.097338,618.473846 C343.503328,613.021269 342.300333,607.568692 339.894343,603.933639 C338.089851,600.298588 312.826955,577.882439 302,568.188969" id="Fill-23" fill="#0B377A"></path>
                <path d="M165,795.051073 C166.232539,803.527669 166.232539,809.582381 166.232539,813.82068 C166.232539,822.902748 166.232539,822.297277 167.465077,822.902748 C169.313885,824.11369 181.639271,813.82068 185.336886,802.922198 C189.034502,791.418245 186.569425,758.11733 187.801964,749.640733 C189.034502,741.769607 190.267041,743.586021 190.88331,738.742251 C190.88331,733.29301 192.115849,729.054712 186.569425,725.421885 C182.25554,722.394529 179.790463,723.605471 175.476578,723 C174.860309,727.238298 174.244039,734.503953 174.244039,744.796963 C174.244039,771.437696 174.244039,783.54712 165,795.051073" id="Fill-24" fill="#0B377A"></path>
                <path d="M178,185.877347 C178,185.877347 171.888889,202.64562 172.5,210.430889 C172.5,217.617292 174.333333,217.617292 174.333333,217.617292 C174.333333,217.617292 160.277778,219.413893 148.666667,215.221825 C137.055556,210.430889 134,202.046753 134,202.046753 C134,202.046753 148.666667,200.250152 152.333333,190.668282 C156.611111,181.685278 156.611111,179.289811 156.611111,179.289811 C156.611111,179.289811 169.444444,176.894343 178,185.877347" id="Fill-25" fill="#FCA18A"></path>
                <path d="M162.640062,122.664814 C162.640062,122.664814 148.647989,141.354729 147.431287,159.441744 C145.606234,176.925858 149.864691,184.160664 154.731499,188.983868 C159.598307,193.807072 173.590379,194.409972 181.498942,193.807072 C190.015855,192.601271 210.091437,167.27945 213.741543,157.030142 C218,146.177933 218,144.369232 218,144.369232 C218,144.369232 194.882663,113.621307 162.640062,122.664814" id="Fill-26" fill="#FCA18A"></path>
                <path d="M157.98763,141.498677 C157.98763,141.498677 158.593739,129.865794 151.320434,131.090308 C143.441021,131.702565 141.016586,143.947705 144.653238,149.458017 C148.289891,155.580587 153.744869,151.907045 153.744869,151.907045 L157.98763,141.498677" id="Fill-27" fill="#FF977C"></path>
                <path d="M207.934274,161 C207.934274,161 219.271834,161 222.255403,167.206897 C225.835685,173.413793 215.691552,178.37931 209.127701,179 C203.160564,179 196,173.413793 196,173.413793 L207.934274,161" id="Fill-28" fill="#FF977C"></path>
                <path d="M156,120.831036 C156,120.831036 166.871139,131.216409 186.197608,131.216409 C205.524076,131.216409 201.296411,131.216409 201.296411,131.216409 C201.296411,131.216409 209.147789,152.598058 223.642641,151.987154 C238.741445,151.987154 227.266354,126.940079 218.811024,117.16561 C210.355694,107.391142 173.514612,91.5076309 156,120.831036" id="Fill-29" fill="#0B377A"></path>
            </g>
            <rect id="Rectangle" stroke="#979797" fill="#D8D8D8" opacity="0" x="0.5" y="0.5" width="705" height="876"></rect>
        </g>
    </g>
</svg>