<?xml version="1.0" encoding="UTF-8"?>
<svg width="701px" height="1361px" viewBox="0 0 701 1361" version="1.1" xmlns="http://www.w3.org/2000/svg" xmlns:xlink="http://www.w3.org/1999/xlink">
    <title>Group</title>
    <g id="Page-1" stroke="none" stroke-width="1" fill="none" fill-rule="evenodd">
        <g id="128" transform="translate(-1073.000000, -393.000000)">
            <g id="Group" transform="translate(1073.163274, 393.612264)">
                <path d="M154.836726,290.387736 C154.836726,290.387736 62.836726,224.387736 47.836726,195.387736 C34.836726,169.387736 41.836726,77.387736 46.836726,53.387736 C50.836726,49.387736 55.836726,42.387736 55.836726,30.387736 C54.836726,11.387736 31.836726,-6.61226404 14.836726,2.38773596 C-3.16327405,10.387736 0.83672595,36.387736 10.836726,48.387736 C11.836726,49.387736 12.836726,50.387736 14.836726,51.387736 C14.836726,55.387736 15.836726,59.387736 15.836726,64.387736 C14.836726,83.387736 -4.16327405,184.387736 0.83672595,209.387736 C5.83672595,233.387736 87.836726,310.387736 98.836726,319.387736 C109.836726,328.387736 154.836726,290.387736 154.836726,290.387736" id="Fill-15" fill="#FCA18A"></path>
                <path d="M393.836726,391.387736 C393.836726,391.387736 508.836726,424.387736 527.836726,426.387736 C542.836726,428.387736 618.836726,371.387736 641.836726,351.387736 C640.836726,346.387736 640.836726,337.387736 647.836726,328.387736 C658.836726,313.387736 688.836726,312.387736 697.836726,329.387736 C707.836726,346.387736 688.836726,365.387736 673.836726,369.387736 C670.836726,369.387736 667.836726,369.387736 665.836726,369.387736 C657.836726,373.387736 648.836726,380.387736 637.836726,392.387736 C612.836726,418.387736 557.836726,455.387736 522.836726,466.387736 C487.836726,477.387736 407.836726,444.387736 407.836726,444.387736 L393.836726,391.387736" id="Fill-16" fill="#FCA18A"></path>
                <path d="M119.836726,338.387736 C119.836726,338.387736 176.836726,323.387736 187.836726,303.387736 C198.836726,284.387736 175.836726,214.387736 218.836726,173.387736 C310.836726,85.387736 470.836726,202.387736 376.836726,324.387736 C351.836726,345.387736 392.836726,334.387736 372.836726,396.387736 C351.836726,458.387736 198.836726,457.387736 119.836726,338.387736" id="Fill-17" fill="#0B377A"></path>
                <path d="M266.836726,633.387736 C266.836726,633.387736 306.836726,657.387736 329.836726,731.387736 C351.836726,805.387736 342.836726,910.387736 342.836726,910.387736 C342.836726,910.387736 469.836726,941.387736 486.836726,943.387736 C503.836726,944.387736 493.836726,926.387736 510.836726,923.387736 C527.836726,920.387736 570.836726,958.387736 583.836726,985.387736 C596.836726,1012.38774 593.836726,1048.38774 589.836726,1051.38774 C585.836726,1054.38774 577.836726,1045.38774 569.836726,1032.38774 C562.836726,1019.38774 547.836726,1009.38774 541.836726,1008.38774 C535.836726,1008.38774 361.836726,978.387736 312.836726,980.387736 C264.836726,981.387736 230.836726,913.387736 220.836726,835.387736 C210.836726,756.387736 201.836726,705.387736 210.836726,675.387736 C218.836726,646.387736 266.836726,633.387736 266.836726,633.387736" id="Fill-18" fill="#FCA18A"></path>
                <path d="M185.836726,674.387736 C185.836726,674.387736 138.836726,768.387736 123.836726,872.387736 C109.836726,976.387736 114.836726,1017.38774 136.836726,1048.38774 C157.836726,1079.38774 229.836726,1176.38774 251.836726,1237.38774 C273.836726,1298.38774 274.836726,1328.38774 274.836726,1344.38774 C274.836726,1359.38774 274.836726,1358.38774 276.836726,1359.38774 C279.836726,1361.38774 299.836726,1344.38774 305.836726,1326.38774 C311.836726,1307.38774 307.836726,1252.38774 309.836726,1238.38774 C311.836726,1225.38774 313.836726,1228.38774 314.836726,1220.38774 C314.836726,1211.38774 316.836726,1204.38774 307.836726,1198.38774 C298.836726,1191.38774 292.836726,1198.38774 280.836726,1190.38774 C267.836726,1182.38774 243.836726,1088.38774 227.836726,1038.38774 C212.836726,988.387736 201.836726,993.387736 195.836726,980.387736 C189.836726,967.387736 244.836726,862.387736 240.836726,778.387736 C235.836726,695.387736 246.836726,656.387736 185.836726,674.387736" id="Fill-19" fill="#FCA18A"></path>
                <path d="M315.836726,664.387736 C369.836726,776.387736 385.836726,806.387736 378.836726,919.387736 C356.836726,956.387736 112.836726,1024.38774 75.836726,1010.38774 C73.836726,1003.38774 68.836726,902.387736 107.836726,801.387736 C146.836726,701.387736 149.836726,677.387736 149.836726,677.387736 L315.836726,664.387736" id="Fill-20" fill="#0B377A"></path>
                <path d="M294.836726,520.387736 C294.836726,520.387736 295.836726,594.387736 301.836726,615.387736 C308.836726,636.387736 326.836726,676.387736 326.836726,676.387736 C326.836726,676.387736 286.836726,694.387736 233.836726,706.387736 C180.836726,718.387736 133.836726,716.387736 133.836726,716.387736 C133.836726,716.387736 145.836726,632.387736 137.836726,586.387736 C129.836726,540.387736 101.836726,480.387736 121.836726,436.387736 C140.836726,391.387736 138.836726,372.387736 133.836726,360.387736 C127.836726,348.387736 101.836726,332.387736 93.836726,328.387736 C85.836726,323.387736 132.836726,259.387736 136.836726,259.387736 C139.836726,259.387736 198.836726,324.387736 239.836726,340.387736 C281.836726,356.387736 345.836726,374.387736 381.836726,378.387736 C418.836726,382.387736 425.836726,382.387736 425.836726,382.387736 C425.836726,382.387736 423.836726,417.387736 416.836726,434.387736 C410.836726,452.387736 393.836726,462.387736 393.836726,462.387736 C393.836726,462.387736 305.836726,419.387736 294.836726,520.387736" id="Fill-21" fill="#7D70FE"></path>
                <path d="M222.836726,331.387736 C228.836726,335.387736 234.836726,338.387736 239.836726,340.387736 C253.836726,345.387736 270.836726,351.387736 287.836726,356.387736 C282.836726,371.387736 272.836726,392.387736 256.836726,398.387736 C229.836726,409.387736 207.836726,391.387736 207.836726,369.387736 C207.836726,355.387736 216.836726,339.387736 222.836726,331.387736" id="Fill-22" fill="#FCA18A"></path>
                <path d="M496.836726,938.387736 C499.836726,933.387736 499.836726,925.387736 510.836726,923.387736 C527.836726,920.387736 570.836726,958.387736 583.836726,985.387736 C596.836726,1012.38774 593.836726,1048.38774 589.836726,1051.38774 C585.836726,1054.38774 577.836726,1045.38774 569.836726,1032.38774 C567.836726,1028.38774 564.836726,1024.38774 561.836726,1021.38774 C565.836726,1012.38774 563.836726,1003.38774 559.836726,997.387736 C556.836726,991.387736 514.836726,954.387736 496.836726,938.387736" id="Fill-23" fill="#0B377A"></path>
                <path d="M272.836726,1313.38774 C274.836726,1327.38774 274.836726,1337.38774 274.836726,1344.38774 C274.836726,1359.38774 274.836726,1358.38774 276.836726,1359.38774 C279.836726,1361.38774 299.836726,1344.38774 305.836726,1326.38774 C311.836726,1307.38774 307.836726,1252.38774 309.836726,1238.38774 C311.836726,1225.38774 313.836726,1228.38774 314.836726,1220.38774 C314.836726,1211.38774 316.836726,1204.38774 307.836726,1198.38774 C300.836726,1193.38774 296.836726,1195.38774 289.836726,1194.38774 C288.836726,1201.38774 287.836726,1213.38774 287.836726,1230.38774 C287.836726,1274.38774 287.836726,1294.38774 272.836726,1313.38774" id="Fill-24" fill="#0B377A"></path>
                <path d="M292.836726,307.387736 C292.836726,307.387736 282.836726,335.387736 283.836726,348.387736 C283.836726,360.387736 286.836726,360.387736 286.836726,360.387736 C286.836726,360.387736 263.836726,363.387736 244.836726,356.387736 C225.836726,348.387736 220.836726,334.387736 220.836726,334.387736 C220.836726,334.387736 244.836726,331.387736 250.836726,315.387736 C257.836726,300.387736 257.836726,296.387736 257.836726,296.387736 C257.836726,296.387736 278.836726,292.387736 292.836726,307.387736" id="Fill-25" fill="#FCA18A"></path>
                <path d="M268.836726,202.387736 C268.836726,202.387736 245.836726,233.387736 243.836726,263.387736 C240.836726,292.387736 247.836726,304.387736 255.836726,312.387736 C263.836726,320.387736 286.836726,321.387736 299.836726,320.387736 C313.836726,318.387736 346.836726,276.387736 352.836726,259.387736 C359.836726,241.387736 359.836726,238.387736 359.836726,238.387736 C359.836726,238.387736 321.836726,187.387736 268.836726,202.387736" id="Fill-26" fill="#FCA18A"></path>
                <path d="M259.836726,234.387736 C259.836726,234.387736 260.836726,215.387736 248.836726,217.387736 C235.836726,218.387736 231.836726,238.387736 237.836726,247.387736 C243.836726,257.387736 252.836726,251.387736 252.836726,251.387736 L259.836726,234.387736" id="Fill-27" fill="#FF977C"></path>
                <path d="M342.836726,266.387736 C342.836726,266.387736 361.836726,266.387736 366.836726,276.387736 C372.836726,286.387736 355.836726,294.387736 344.836726,295.387736 C334.836726,295.387736 322.836726,286.387736 322.836726,286.387736 L342.836726,266.387736" id="Fill-28" fill="#FF977C"></path>
                <path d="M256.836726,200.387736 C256.836726,200.387736 274.836726,217.387736 306.836726,217.387736 C338.836726,217.387736 331.836726,217.387736 331.836726,217.387736 C331.836726,217.387736 344.836726,252.387736 368.836726,251.387736 C393.836726,251.387736 374.836726,210.387736 360.836726,194.387736 C346.836726,178.387736 285.836726,152.387736 256.836726,200.387736" id="Fill-29" fill="#0B377A"></path>
            </g>
        </g>
    </g>
</svg>