<?xml version="1.0" encoding="UTF-8"?>
<svg width="706px" height="877px" viewBox="0 0 706 877" version="1.1" xmlns="http://www.w3.org/2000/svg" xmlns:xlink="http://www.w3.org/1999/xlink">
    <title>Group</title>
    <g id="Page-1" stroke="none" stroke-width="1" fill="none" fill-rule="evenodd">
        <g id="Group">
            <g id="4" transform="translate(76.000000, 43.000000)" fill-rule="nonzero">
                <path d="M439.819552,693.78751 C439.819552,694.458493 440.491816,695.129475 440.491816,696.47144 C441.16408,706.536178 441.836345,728.007618 437.802759,754.846918 C431.080115,793.09292 373.265383,748.808075 320.828765,732.704495 C268.392148,715.929933 224.694966,694.458493 202.510243,701.168318 C180.325521,707.878143 174.947406,717.271898 177.636463,719.284845 C180.325521,721.297793 178.980992,675 178.980992,675 C178.980992,675 272.425734,712.57502 339.652167,710.562073 C406.206335,709.220108 439.819552,693.78751 439.819552,693.78751" id="Fill-30" fill="#FCA18A"></path>
                <path d="M159.729956,706.103833 C159.729956,706.103833 159.060413,706.77336 159.060413,708.112415 C155.712695,714.807689 145,738.910674 145,755.648858 C145.669543,776.404207 163.747217,753.640276 169.773108,739.580201 C179.146716,718.155326 193.207129,708.781942 201.911194,702.086669 C210.615258,694.721868 164.41676,698.069505 159.729956,706.103833" id="Fill-31" fill="#FCA18A"></path>
                <path d="M160.033333,705.360407 C160.033333,705.360407 159.35,706.029534 159.35,707.36779 C155.933333,714.059069 145,738.147672 145,754.875869 C145.683333,770.934938 157.3,760.228892 164.816667,748.184591 C164.133333,742.16244 164.816667,731.456394 174.383333,718.073836 C179.85,710.71343 183.266667,703.353023 186,698 C175.066667,698.669128 162.766667,701.345639 160.033333,705.360407" id="Fill-32" fill="#0B377A"></path>
                <path d="M180.251062,379.66537 C180.251062,379.66537 150.021548,394.469912 132.555606,406.582718 C115.089665,418.695524 48.5847338,350.729222 43.882365,346.69162 C39.8517631,341.981084 48.5847338,337.943482 42.538831,323.138941 C37.1646952,308.334399 20.3705208,306.988532 8.95048214,314.390803 C-2.46955648,322.466007 -0.454255543,333.90588 1.56104539,339.962283 C4.2481133,346.018686 18.3552198,351.402156 18.3552198,351.402156 C35.1493943,377.646569 85.5319176,444.267005 118.4485,444.939938 C131.883839,446.285806 186.968731,424.751928 203.091139,406.582718 C219.213546,388.413508 180.251062,379.66537 180.251062,379.66537" id="Fill-33" fill="#FCA18A"></path>
                <path d="M319,204.784833 C319,204.784833 386.426555,47.0242365 387.100821,36.9544112 C388.449352,26.2132643 377.661103,14.8007956 383.055227,6.07361366 C389.123617,-1.98224658 412.722911,-3.32488996 422.162629,10.1015438 C431.602347,23.5279775 414.745708,34.9404462 411.37438,38.9683763 C408.677318,42.9963064 384.403758,135.638699 376.312572,157.792315 C368.221385,180.617252 362.152995,214.854658 358.781667,217.539945 C356.084605,220.896554 319,204.784833 319,204.784833" id="Fill-34" fill="#FCA18A"></path>
                <path d="M299.629281,205.869527 C299.629281,205.869527 315.834308,176.931727 302.330119,145.302038 C273.97132,80.6967172 165.937804,112.999378 173.365108,195.101973 C178.766784,230.769495 204.424744,228.077606 202.399115,248.266769 C199.698278,268.455932 188.894926,267.109988 190.920554,296.72076 C192.946183,325.65856 216.578515,381.515244 280.723415,347.193667 C344.868316,313.545062 336.090593,236.826243 299.629281,205.869527" id="Fill-35" fill="#0B377A"></path>
                <path d="M292.928779,554.765605 C292.928779,554.765605 286.873564,566.195032 298.983994,598.466355 C311.767226,631.409998 313.785632,654.268852 321.18645,671.076833 C329.26007,687.212496 340.024897,711.415988 340.024897,711.415988 C340.024897,711.415988 296.292788,682.506261 263.998307,675.783069 C231.703826,669.059875 202.773354,669.059875 202.773354,669.059875 C202.773354,669.059875 196.045337,656.958129 187.298915,652.251894 C177.879691,647.54566 137.51159,708.054392 133.47478,730.913246 C128.765168,754.444419 160.386847,716.794542 171.151674,712.088308 C181.916501,706.709754 227.667016,708.054392 269.38072,725.534692 C311.094425,742.342673 350.789724,772.597039 383.757007,775.958635 C424.125108,779.99255 407.977867,487.533682 326.568864,535.268347 L292.928779,554.765605" id="Fill-36" fill="#FCA18A"></path>
                <path d="M408.65825,513 C408.65825,513 418.833235,558.77561 413.406577,587.721951 C407.979918,617.341463 386.273282,651 386.273282,651 L351,601.858537 C351,601.858537 351,533.195122 408.65825,513" id="Fill-37" fill="#FFC9AB"></path>
                <path d="M387.366348,507.005587 C387.366348,507.005587 407.537605,504.988851 431.070739,577.591327 C454.603872,650.193802 462,705.990151 462,705.990151 C433.76024,732.207711 324.163075,736.241182 293.906188,711.368112 C283.82056,685.822796 287.182436,576.246836 289.199562,549.357031 C291.889063,531.878657 387.366348,507.005587 387.366348,507.005587" id="Fill-38" fill="#0B377A"></path>
                <path d="M203,668.493997 C194.226405,656.977216 189.502162,647.492809 180.728567,654.267386 C166.555837,665.784166 136.860592,712.528747 133.486133,731.497562 C130.111673,747.756547 144.959295,734.207393 157.782242,722.690613 C158.457134,703.04434 190.851946,686.107898 203,668.493997" id="Fill-39" fill="#0B377A"></path>
                <path d="M319.341709,186 C319.341709,186 301.834171,243.890459 280.286432,265.431095 C267.492462,278.893993 172.547739,342.169611 151,381.212014 C153.693467,396.021201 182.648241,435.063604 182.648241,429.678445 C182.648241,429.678445 237.190955,402.75265 238.537688,402.75265 C240.557789,402.75265 237.864322,437.083039 243.251256,457.277385 C252.678392,493.627208 286.346734,539.40106 283.653266,567 C283.653266,567 330.788945,564.980565 370.517588,553.537102 C410.246231,542.766784 419,525.938163 419,525.938163 C419,525.938163 392.065327,465.355124 393.41206,426.312721 C386.678392,394.001767 392.065327,381.212014 369.844221,328.033569 C347.623116,275.528269 357.050251,273.508834 357.050251,273.508834 C357.050251,273.508834 368.497487,225.715548 368.497487,216.291519 C368.497487,206.867491 339.542714,189.365724 319.341709,186" id="Fill-40" fill="#FCCA56"></path>
                <path d="M224.478804,212.637994 C224.478804,212.637994 219.778235,207.254689 214.406158,210.619255 C209.03408,214.656734 213.063138,226.769172 222.464274,232.152478 C231.193901,236.86287 236.565979,240.900349 236.565979,240.900349 C236.565979,240.900349 256.71127,271.181444 259.397309,281.275142 C272.827504,302.135452 313.118087,277.237663 292.301286,248.302395 C292.301286,247.629482 300.359402,248.975308 305.05997,242.919089 C309.089029,236.86287 307.746009,181.011073 292.301286,162.842417 C276.856562,145.346673 239.923527,150.057066 229.179372,169.571549 C219.106726,189.086032 224.478804,212.637994 224.478804,212.637994" id="Fill-41" fill="#FCA18A"></path>
                <path d="M301,165.755789 C301,165.755789 280.80826,170.412151 265.327925,168.416567 C250.520649,167.086178 247.828417,165.090595 247.828417,165.090595 C247.828417,165.090595 243.117011,189.037595 226.963618,195.68954 C210.137168,201.67629 197.349066,199.680707 197.349066,199.680707 C197.349066,199.680707 187.926254,151.786706 218.886922,141.143595 C249.174533,131.165678 285.519666,125.844122 301,165.755789" id="Fill-42" fill="#0B377A"></path>
            </g>
            <rect id="Rectangle" stroke="#979797" fill="#D8D8D8" opacity="0" x="0.5" y="0.5" width="705" height="876"></rect>
        </g>
    </g>
</svg>