<?xml version="1.0" encoding="UTF-8"?>
<svg width="687px" height="1156px" viewBox="0 0 687 1156" version="1.1" xmlns="http://www.w3.org/2000/svg" xmlns:xlink="http://www.w3.org/1999/xlink">
    <title>Group</title>
    <g id="Page-1" stroke="none" stroke-width="1" fill="none" fill-rule="evenodd">
        <g id="128" transform="translate(-242.000000, -553.000000)">
            <g id="Group" transform="translate(242.676210, 553.952752)">
                <path d="M654.32379,1033.04725 C654.32379,1034.04725 655.32379,1035.04725 655.32379,1037.04725 C656.32379,1052.04725 657.32379,1084.04725 651.32379,1124.04725 C641.32379,1181.04725 555.32379,1115.04725 477.32379,1091.04725 C399.32379,1066.04725 334.32379,1034.04725 301.32379,1044.04725 C268.32379,1054.04725 260.32379,1068.04725 264.32379,1071.04725 C268.32379,1074.04725 266.32379,1005.04725 266.32379,1005.04725 C266.32379,1005.04725 405.32379,1061.04725 505.32379,1058.04725 C604.32379,1056.04725 654.32379,1033.04725 654.32379,1033.04725" id="Fill-30" fill="#FCA18A"></path>
                <path d="M238.32379,1050.04725 C238.32379,1050.04725 237.32379,1051.04725 237.32379,1053.04725 C232.32379,1063.04725 216.32379,1099.04725 216.32379,1124.04725 C217.32379,1155.04725 244.32379,1121.04725 253.32379,1100.04725 C267.32379,1068.04725 288.32379,1054.04725 301.32379,1044.04725 C314.32379,1033.04725 245.32379,1038.04725 238.32379,1050.04725" id="Fill-31" fill="#FCA18A"></path>
                <path d="M238.32379,1050.04725 C238.32379,1050.04725 237.32379,1051.04725 237.32379,1053.04725 C232.32379,1063.04725 216.32379,1099.04725 216.32379,1124.04725 C217.32379,1148.04725 234.32379,1132.04725 245.32379,1114.04725 C244.32379,1105.04725 245.32379,1089.04725 259.32379,1069.04725 C267.32379,1058.04725 272.32379,1047.04725 276.32379,1039.04725 C260.32379,1040.04725 242.32379,1044.04725 238.32379,1050.04725" id="Fill-32" fill="#0B377A"></path>
                <path d="M268.32379,565.047248 C268.32379,565.047248 223.32379,587.047248 197.32379,605.047248 C171.32379,623.047248 72.32379,522.047248 65.32379,516.047248 C59.32379,509.047248 72.32379,503.047248 63.32379,481.047248 C55.32379,459.047248 30.32379,457.047248 13.32379,468.047248 C-3.67620999,480.047248 -0.676209992,497.047248 2.32379001,506.047248 C6.32379001,515.047248 27.32379,523.047248 27.32379,523.047248 C52.32379,562.047248 127.32379,661.047248 176.32379,662.047248 C196.32379,664.047248 278.32379,632.047248 302.32379,605.047248 C326.32379,578.047248 268.32379,565.047248 268.32379,565.047248" id="Fill-33" fill="#FCA18A"></path>
                <path d="M475.32379,305.047248 C475.32379,305.047248 575.32379,70.0472478 576.32379,55.0472478 C578.32379,39.0472478 562.32379,22.0472478 570.32379,9.0472478 C579.32379,-2.9527522 614.32379,-4.9527522 628.32379,15.0472478 C642.32379,35.0472478 617.32379,52.0472478 612.32379,58.0472478 C608.32379,64.0472478 572.32379,202.047248 560.32379,235.047248 C548.32379,269.047248 539.32379,320.047248 534.32379,324.047248 C530.32379,329.047248 475.32379,305.047248 475.32379,305.047248" id="Fill-34" fill="#FCA18A"></path>
                <path d="M445.32379,307.047248 C445.32379,307.047248 469.32379,264.047248 449.32379,217.047248 C407.32379,121.047248 247.32379,169.047248 258.32379,291.047248 C266.32379,344.047248 304.32379,340.047248 301.32379,370.047248 C297.32379,400.047248 281.32379,398.047248 284.32379,442.047248 C287.32379,485.047248 322.32379,568.047248 417.32379,517.047248 C512.32379,467.047248 499.32379,353.047248 445.32379,307.047248" id="Fill-35" fill="#0B377A"></path>
                <path d="M435.32379,825.047248 C435.32379,825.047248 426.32379,842.047248 444.32379,890.047248 C463.32379,939.047248 466.32379,973.047248 477.32379,998.047248 C489.32379,1022.04725 505.32379,1058.04725 505.32379,1058.04725 C505.32379,1058.04725 440.32379,1015.04725 392.32379,1005.04725 C344.32379,995.047248 301.32379,995.047248 301.32379,995.047248 C301.32379,995.047248 291.32379,977.047248 278.32379,970.047248 C264.32379,963.047248 204.32379,1053.04725 198.32379,1087.04725 C191.32379,1122.04725 238.32379,1066.04725 254.32379,1059.04725 C270.32379,1051.04725 338.32379,1053.04725 400.32379,1079.04725 C462.32379,1104.04725 521.32379,1149.04725 570.32379,1154.04725 C630.32379,1160.04725 606.32379,725.047248 485.32379,796.047248 L435.32379,825.047248" id="Fill-36" fill="#FCA18A"></path>
                <path d="M607.32379,762.047248 C607.32379,762.047248 622.32379,830.047248 614.32379,873.047248 C606.32379,917.047248 574.32379,967.047248 574.32379,967.047248 L522.32379,894.047248 C522.32379,894.047248 522.32379,792.047248 607.32379,762.047248" id="Fill-37" fill="#FFC9AB"></path>
                <path d="M575.32379,754.047248 C575.32379,754.047248 605.32379,751.047248 640.32379,859.047248 C675.32379,967.047248 686.32379,1050.04725 686.32379,1050.04725 C644.32379,1089.04725 481.32379,1095.04725 436.32379,1058.04725 C421.32379,1020.04725 426.32379,857.047248 429.32379,817.047248 C433.32379,791.047248 575.32379,754.047248 575.32379,754.047248" id="Fill-38" fill="#0B377A"></path>
                <path d="M301.32379,994.047248 C288.32379,977.047248 281.32379,963.047248 268.32379,973.047248 C247.32379,990.047248 203.32379,1059.04725 198.32379,1087.04725 C193.32379,1111.04725 215.32379,1091.04725 234.32379,1074.04725 C235.32379,1045.04725 283.32379,1020.04725 301.32379,994.047248" id="Fill-39" fill="#0B377A"></path>
                <path d="M475.32379,278.047248 C475.32379,278.047248 449.32379,364.047248 417.32379,396.047248 C398.32379,416.047248 257.32379,510.047248 225.32379,568.047248 C229.32379,590.047248 272.32379,648.047248 272.32379,640.047248 C272.32379,640.047248 353.32379,600.047248 355.32379,600.047248 C358.32379,600.047248 354.32379,651.047248 362.32379,681.047248 C376.32379,735.047248 426.32379,803.047248 422.32379,844.047248 C422.32379,844.047248 492.32379,841.047248 551.32379,824.047248 C610.32379,808.047248 623.32379,783.047248 623.32379,783.047248 C623.32379,783.047248 583.32379,693.047248 585.32379,635.047248 C575.32379,587.047248 583.32379,568.047248 550.32379,489.047248 C517.32379,411.047248 531.32379,408.047248 531.32379,408.047248 C531.32379,408.047248 548.32379,337.047248 548.32379,323.047248 C548.32379,309.047248 505.32379,283.047248 475.32379,278.047248" id="Fill-40" fill="#FCCA56"></path>
                <path d="M333.32379,316.047248 C333.32379,316.047248 326.32379,308.047248 318.32379,313.047248 C310.32379,319.047248 316.32379,337.047248 330.32379,345.047248 C343.32379,352.047248 351.32379,358.047248 351.32379,358.047248 C351.32379,358.047248 381.32379,403.047248 385.32379,418.047248 C405.32379,449.047248 465.32379,412.047248 434.32379,369.047248 C434.32379,368.047248 446.32379,370.047248 453.32379,361.047248 C459.32379,352.047248 457.32379,269.047248 434.32379,242.047248 C411.32379,216.047248 356.32379,223.047248 340.32379,252.047248 C325.32379,281.047248 333.32379,316.047248 333.32379,316.047248" id="Fill-41" fill="#FCA18A"></path>
                <path d="M447.32379,247.047248 C447.32379,247.047248 417.32379,254.047248 394.32379,251.047248 C372.32379,249.047248 368.32379,246.047248 368.32379,246.047248 C368.32379,246.047248 361.32379,282.047248 337.32379,292.047248 C312.32379,301.047248 293.32379,298.047248 293.32379,298.047248 C293.32379,298.047248 279.32379,226.047248 325.32379,210.047248 C370.32379,195.047248 424.32379,187.047248 447.32379,247.047248" id="Fill-42" fill="#0B377A"></path>
            </g>
        </g>
    </g>
</svg>