<?xml version="1.0" encoding="UTF-8"?>
<svg width="952px" height="1124px" viewBox="0 0 952 1124" version="1.1" xmlns="http://www.w3.org/2000/svg" xmlns:xlink="http://www.w3.org/1999/xlink">
    <title>Group</title>
    <g id="Page-1" stroke="none" stroke-width="1" fill="none" fill-rule="evenodd">
        <g id="vecteezyFather-s-Day-Illustration-02in0421" transform="translate(-637.000000, -755.000000)">
            <g id="Group" transform="translate(637.123797, 755.597669)">
                <path d="M947.956203,394.572331 C928.456203,474.452331 851.206203,461.352331 827.806203,501.072331 C804.396203,540.802331 838.206203,655.212331 791.396203,694.212331 C744.596203,733.212331 637.986203,711.122331 637.986203,711.122331 C637.986203,711.122331 604.466203,806.032331 498.876203,806.032331 C489.346203,806.032331 480.056203,805.422331 471.016203,804.282331 C332.040203,786.782331 251.856203,643.512331 251.856203,643.512331 L280.352203,167.200331 C280.352203,167.200331 384.926203,146.868331 489.286203,178.204331 C518.446203,186.960331 547.556203,191.434331 576.096203,192.818331 C649.166203,196.365331 718.566203,179.710331 775.716203,163.055331 C847.376203,142.172331 899.806203,121.289331 916.126203,140.228331 C950.556203,180.170331 898.166203,197.974331 896.716203,239.180331 C895.246203,280.372331 967.456203,314.702331 947.956203,394.572331" id="Fill-38" fill="#DF5453"></path>
                <path d="M471.016203,804.282331 L471.016203,804.282331 C332.040203,786.782331 251.856203,643.512331 251.856203,643.512331 L280.352203,167.200331 C280.352203,167.200331 313.711203,160.715331 361.543203,160.715331 C398.406203,160.715331 443.866203,164.565331 489.286203,178.204331 C518.446203,186.960331 547.556203,191.434331 576.096203,192.818331 L654.406203,236.582331 C684.656203,253.492331 691.856203,293.852331 669.326203,320.172331 C669.326203,320.172331 501.646203,480.372331 491.796203,519.492331 C481.946203,558.622331 471.016203,804.282331 471.016203,804.282331" id="Fill-39" fill="#CF4446"></path>
                <path d="M201.923203,467.412331 C201.923203,467.412331 166.614203,739.632331 163.197203,765.832331 C159.780203,792.032331 154.163203,958.122331 154.163203,958.122331 L230.552203,958.122331 C230.552203,958.122331 249.842203,808.302331 257.494203,780.972331 C265.146203,753.642331 310.948203,575.522331 313.532203,575.232331 C316.116203,574.952331 344.547203,807.952331 346.020203,813.842331 C347.492203,819.732331 395.596203,958.122331 395.596203,958.122331 L470.696203,958.122331 C470.696203,958.122331 438.176203,798.642331 438.176203,785.182331 C438.176203,775.052331 442.446203,599.892331 444.556203,514.062331 C445.186203,488.482331 424.616203,467.412331 399.026203,467.412331 L201.923203,467.412331" id="Fill-40" fill="#4165A1"></path>
                <path d="M214.572203,1052.82233 C213.750203,1056.64233 213.820203,1060.59233 214.783203,1064.38233 L221.714203,1091.85233 C225.636203,1107.41233 213.870203,1122.52233 197.821203,1122.52233 L81.4972031,1122.52233 C70.2722031,1122.52233 66.1402031,1107.77233 75.7292031,1101.93233 L149.644203,1057.02233 C149.644203,1057.02233 146.996203,998.812331 147.668203,967.632331 C147.889203,957.352331 148.480203,949.992331 149.644203,948.642331 C154.329203,943.162331 232.427203,943.762331 236.930203,948.642331 C238.074203,949.892331 237.181203,957.302331 235.215203,967.632331 C229.458203,997.762331 214.572203,1052.82233 214.572203,1052.82233" id="Fill-41" fill="#DF5453"></path>
                <path d="M487.706203,1122.52233 L371.376203,1122.52233 C360.156203,1122.52233 356.023203,1107.77233 365.626203,1101.93233 L431.566203,1059.30233 C431.566203,1059.30233 403.936203,999.442331 391.826203,967.632331 C387.996203,957.572331 385.716203,950.312331 386.356203,948.642331 C389.026203,941.732331 466.626203,938.112331 472.636203,942.772331 C474.376203,944.122331 477.716203,954.092331 481.596203,967.632331 C491.146203,1001.04233 503.946203,1056.23233 503.906203,1057.29233 C503.826203,1059.67233 511.596203,1091.85233 511.596203,1091.85233 C515.526203,1107.41233 503.766203,1122.52233 487.706203,1122.52233" id="Fill-42" fill="#DF5453"></path>
                <path d="M624.796203,319.072331 C624.796203,319.072331 592.256203,350.442331 560.376203,379.812331 C532.376203,405.612331 504.866203,429.862331 500.386203,429.942331 C490.796203,430.112331 464.076203,399.152331 465.226203,392.712331 C465.986203,388.462331 491.706203,352.652331 509.216203,328.652331 C518.326203,316.162331 525.206203,306.872331 525.206203,306.872331 C525.206203,306.872331 419.996203,267.062331 415.066203,271.952331 C410.116203,276.832331 451.216203,501.382331 451.216203,512.752331 C451.216203,524.142331 354.489203,544.842331 315.911203,544.842331 C277.334203,544.842331 189.094203,523.032331 190.138203,504.422331 C191.171203,485.802331 221.263203,288.262331 216.308203,281.192331 C211.362203,274.122331 102.440203,309.392331 102.440203,309.392331 C102.440203,309.392331 112.611203,319.362331 125.460203,332.342331 C147.297203,354.432331 176.887203,385.222331 177.329203,390.472331 C178.031203,398.802331 150.116203,426.442331 139.574203,425.752331 C134.699203,425.442331 106.864203,403.232331 78.3472031,379.462331 C45.2262031,351.842331 11.1922031,322.102331 11.1922031,322.102331 C-3.01079691,310.642331 -4.63579691,287.362331 11.7742031,276.182331 C58.3062031,244.442331 152.964203,204.945331 180.568203,191.364331 C207.240203,178.244331 248.195203,170.450331 280.272203,166.839331 C295.087203,165.164331 308.017203,164.381331 316.753203,164.381331 C329.302203,164.381331 341.930203,165.104331 354.218203,166.368331 L354.238203,166.378331 C391.446203,170.199331 425.546203,178.916331 445.086203,187.191331 C463.606203,195.035331 567.976203,244.652331 620.936203,273.962331 C637.486203,283.122331 638.056203,307.262331 624.796203,319.072331" id="Fill-43" fill="#4165A1"></path>
                <path d="M447.796203,488.802331 C449.906203,501.922331 451.216203,510.732331 451.216203,512.752331 C451.216203,524.142331 354.489203,544.842331 315.911203,544.842331 C277.334203,544.842331 189.094203,523.032331 190.138203,504.422331 C190.308203,501.362331 191.261203,493.482331 192.715203,482.412331 C207.471203,499.382331 281.476203,516.752331 315.911203,516.752331 C350.175203,516.752331 430.286203,500.422331 447.796203,488.802331" id="Fill-44" fill="#EB8D2D"></path>
                <path d="M224.161203,439.982331 C224.161203,439.982331 227.913203,443.942331 227.552203,446.882331 C227.181203,449.822331 222.406203,450.012331 222.406203,450.012331 C222.406203,450.012331 225.897203,456.442331 224.613203,458.642331 C223.419203,460.682331 203.950203,463.982331 198.192203,464.832331 C197.721203,464.892331 197.350203,464.952331 197.079203,464.982331 C193.468203,465.432331 187.459203,456.862331 182.043203,449.942331 C178.161203,444.982331 161.530203,428.822331 152.423203,420.072331 C158.722203,415.592331 165.543203,409.122331 170.438203,403.172331 C172.303203,405.572331 173.698203,407.412331 173.908203,407.842331 C174.641203,409.322331 184.832203,410.512331 190.619203,412.162331 C192.666203,412.752331 197.791203,414.452331 203.418203,416.392331 C211.453203,419.162331 220.510203,422.382331 223.048203,423.462331 C227.361203,425.292331 228.415203,437.692331 227.582203,438.902331 C226.739203,440.092331 224.161203,439.982331 224.161203,439.982331" id="Fill-45" fill="#F1B4A7"></path>
                <path d="M217.578203,454.672331 C217.241203,454.672331 216.910203,454.512331 216.704203,454.212331 C216.344203,453.752331 213.943203,452.602331 212.013203,451.672331 C206.215203,448.872331 198.274203,445.042331 197.613203,440.182331 C197.322203,438.032331 197.704203,436.292331 198.747203,434.982331 C200.706203,432.542331 204.419203,432.222331 207.695203,431.952331 L208.069203,431.912331 C214.025203,431.412331 216.613203,434.232331 217.630203,435.972331 C218.507203,437.462331 221.640203,438.212331 222.668203,438.352331 C223.250203,438.442331 223.654203,438.972331 223.573203,439.552331 C223.492203,440.132331 222.958203,440.542331 222.373203,440.462331 C221.863203,440.392331 217.346203,439.682331 215.797203,437.042331 C214.461203,434.762331 211.860203,433.732331 208.252203,434.032331 L207.875203,434.062331 C205.025203,434.302331 201.794203,434.582331 200.405203,436.312331 C199.730203,437.152331 199.506203,438.322331 199.718203,439.892331 C200.226203,443.622331 207.875203,447.312331 212.936203,449.752331 C216.244203,451.352331 217.860203,452.152331 218.451203,453.002331 C218.785203,453.492331 218.664203,454.152331 218.182203,454.482331 C217.997203,454.612331 217.787203,454.672331 217.578203,454.672331" id="Fill-46" fill="#E79890"></path>
                <path d="M221.497203,449.432331 C221.052203,449.432331 220.637203,449.152331 220.489203,448.702331 C220.188203,447.802331 219.426203,446.352331 218.620203,444.822331 C217.007203,441.762331 215.179203,438.292331 214.934203,435.602331 C214.881203,435.012331 215.312203,434.492331 215.896203,434.442331 C216.480203,434.392331 216.997203,434.822331 217.050203,435.402331 C217.257203,437.682331 219.054203,441.092331 220.499203,443.832331 C221.384203,445.512331 222.148203,446.962331 222.504203,448.032331 C222.690203,448.592331 222.390203,449.192331 221.833203,449.372331 C221.721203,449.412331 221.608203,449.432331 221.497203,449.432331" id="Fill-47" fill="#E79890"></path>
                <path d="M202.715203,452.462331 C202.202203,452.462331 201.751203,452.092331 201.668203,451.572331 C201.602203,451.152331 201.056203,447.422331 202.256203,445.132331 C202.528203,444.612331 203.170203,444.402331 203.690203,444.682331 C204.210203,444.952331 204.411203,445.592331 204.138203,446.112331 C203.396203,447.532331 203.618203,450.292331 203.766203,451.232331 C203.856203,451.812331 203.461203,452.362331 202.882203,452.452331 L202.715203,452.462331" id="Fill-48" fill="#E79890"></path>
                <path d="M208.181203,454.392331 C207.711203,454.392331 207.282203,454.072331 207.156203,453.602331 C207.068203,453.272331 206.332203,450.282331 207.776203,448.212331 C208.985203,446.482331 212.766203,443.322331 212.926203,443.192331 C213.377203,442.822331 214.046203,442.882331 214.421203,443.332331 C214.797203,443.782331 214.735203,444.452331 214.285203,444.822331 C213.253203,445.682331 210.386203,448.182331 209.518203,449.432331 C208.770203,450.502331 209.043203,452.412331 209.210203,453.062331 C209.358203,453.622331 209.019203,454.202331 208.453203,454.352331 C208.362203,454.382331 208.271203,454.392331 208.181203,454.392331" id="Fill-49" fill="#E79890"></path>
                <path d="M487.686203,422.622331 C478.556203,431.392331 462.066203,447.422331 458.206203,452.362331 C455.056203,456.392331 451.696203,460.982331 448.726203,464.022331 C446.596203,466.202331 444.676203,467.582331 443.166203,467.392331 C439.556203,466.942331 416.926203,463.262331 415.636203,461.052331 C414.356203,458.852331 417.846203,452.422331 417.846203,452.422331 C417.846203,452.422331 413.066203,452.242331 412.696203,449.302331 C412.336203,446.362331 416.086203,442.402331 416.086203,442.402331 C416.086203,442.402331 413.506203,442.502331 412.666203,441.302331 C411.836203,440.112331 412.886203,427.712331 417.196203,425.882331 C420.076203,424.652331 431.376203,420.652331 440.026203,417.712331 C444.336203,416.252331 447.976203,415.042331 449.626203,414.572331 C455.406203,412.932331 465.606203,411.732331 466.336203,410.262331 C466.586203,409.752331 468.506203,407.242331 470.906203,404.192331 C475.346203,410.302331 481.726203,417.422331 487.686203,422.622331" id="Fill-50" fill="#F1B4A7"></path>
                <path d="M422.666203,457.052331 C422.456203,457.052331 422.236203,456.992331 422.056203,456.862331 C421.596203,456.522331 421.466203,455.892331 421.796203,455.422331 C422.386203,454.572331 424.006203,453.762331 427.316203,452.172331 C432.376203,449.732331 440.026203,446.042331 440.526203,442.302331 C440.736203,440.742331 440.516203,439.572331 439.836203,438.732331 C438.456203,436.992331 435.216203,436.722331 432.366203,436.482331 L431.996203,436.442331 C428.396203,436.142331 425.786203,437.172331 424.446203,439.452331 C422.896203,442.102331 418.386203,442.802331 417.876203,442.872331 C417.276203,442.962331 416.756203,442.552331 416.676203,441.972331 C416.596203,441.392331 416.996203,440.852331 417.576203,440.772331 C418.686203,440.612331 421.736203,439.872331 422.616203,438.382331 C423.636203,436.652331 426.236203,433.822331 432.176203,434.332331 L432.546203,434.362331 C435.826203,434.642331 439.536203,434.952331 441.496203,437.402331 C442.546203,438.702331 442.926203,440.452331 442.636203,442.592331 C441.976203,447.462331 434.036203,451.282331 428.236203,454.082331 C426.306203,455.012331 423.906203,456.172331 423.536203,456.632331 C423.326203,456.902331 422.996203,457.052331 422.666203,457.052331" id="Fill-51" fill="#E79890"></path>
                <path d="M418.746203,451.842331 C418.636203,451.842331 418.526203,451.822331 418.416203,451.792331 C417.856203,451.602331 417.556203,451.002331 417.746203,450.442331 C418.096203,449.372331 418.866203,447.922331 419.746203,446.242331 C421.196203,443.502331 422.986203,440.092331 423.196203,437.822331 C423.256203,437.232331 423.756203,436.802331 424.356203,436.852331 C424.936203,436.912331 425.366203,437.422331 425.316203,438.012331 C425.066203,440.712331 423.236203,444.172331 421.626203,447.232331 C420.816203,448.772331 420.056203,450.212331 419.756203,451.112331 C419.606203,451.562331 419.196203,451.842331 418.746203,451.842331" id="Fill-52" fill="#E79890"></path>
                <path d="M437.536203,454.882331 L437.366203,454.862331 C436.786203,454.772331 436.386203,454.232331 436.486203,453.652331 C436.626203,452.702331 436.856203,449.942331 436.106203,448.532331 C435.836203,448.012331 436.036203,447.372331 436.556203,447.092331 C437.076203,446.822331 437.716203,447.022331 437.986203,447.542331 C439.196203,449.832331 438.646203,453.562331 438.576203,453.982331 C438.496203,454.502331 438.046203,454.882331 437.536203,454.882331" id="Fill-53" fill="#E79890"></path>
                <path d="M432.066203,456.802331 C431.976203,456.802331 431.886203,456.792331 431.796203,456.772331 C431.226203,456.622331 430.886203,456.042331 431.036203,455.472331 C431.206203,454.822331 431.476203,452.912331 430.726203,451.842331 C429.856203,450.602331 426.996203,448.102331 425.966203,447.242331 C425.506203,446.862331 425.446203,446.192331 425.826203,445.742331 C426.206203,445.292331 426.866203,445.232331 427.326203,445.612331 C427.486203,445.742331 431.256203,448.892331 432.476203,450.632331 C433.916203,452.692331 433.176203,455.682331 433.086203,456.012331 C432.966203,456.492331 432.536203,456.802331 432.066203,456.802331" id="Fill-54" fill="#E79890"></path>
                <path d="M317.597203,368.482331 C312.788203,368.482331 308.289203,366.582331 304.927203,363.152331 L255.920203,313.002331 C250.096203,307.042331 249.189203,297.992331 253.716203,290.992331 L270.429203,265.162331 C273.707203,260.102331 279.268203,257.072331 285.303203,257.072331 L349.892203,257.072331 C355.927203,257.072331 361.488203,260.102331 364.766203,265.162331 L381.476203,290.992331 C386.006203,297.992331 385.096203,307.042331 379.276203,313.002331 L330.267203,363.142331 C326.905203,366.582331 322.406203,368.482331 317.597203,368.482331" id="Fill-55" fill="#DF5453"></path>
                <path d="M347.696203,269.272331 L287.499203,269.272331 C284.752203,269.272331 282.193203,270.672331 280.701203,272.972331 L265.125203,297.042331 C263.069203,300.222331 263.488203,304.402331 266.132203,307.102331 L311.806203,353.842331 C314.982203,357.092331 320.211203,357.092331 323.388203,353.842331 L369.066203,307.102331 C371.706203,304.402331 372.126203,300.222331 370.066203,297.042331 L354.494203,272.972331 C353.001203,270.672331 350.442203,269.272331 347.696203,269.272331" id="Fill-56" fill="#F1F9F8"></path>
                <path d="M235.215203,967.632331 L147.668203,967.632331 C147.889203,957.352331 148.480203,949.992331 149.644203,948.642331 C154.329203,943.162331 232.427203,943.762331 236.930203,948.642331 C238.074203,949.892331 237.181203,957.302331 235.215203,967.632331" id="Fill-57" fill="#EB8D2D"></path>
                <path d="M481.596203,967.632331 L391.826203,967.632331 C387.996203,957.572331 385.716203,950.312331 386.356203,948.642331 C389.026203,941.732331 466.626203,938.112331 472.636203,942.772331 C474.376203,944.122331 477.716203,954.092331 481.596203,967.632331" id="Fill-58" fill="#EB8D2D"></path>
                <path d="M177.329203,390.472331 C178.031203,398.802331 150.116203,426.442331 139.574203,425.752331 C134.699203,425.442331 106.864203,403.232331 78.3472031,379.462331 C78.3472031,379.462331 93.5512031,375.752331 107.980203,362.692331 C122.409203,349.622331 125.460203,332.342331 125.460203,332.342331 C147.297203,354.432331 176.887203,385.222331 177.329203,390.472331" id="Fill-59" fill="#DF5453"></path>
                <path d="M133.465203,340.482331 L133.465203,340.492331 C133.164203,342.042331 129.733203,358.282331 116.001203,370.712331 C104.015203,381.562331 91.4872031,385.952331 87.5952031,387.132331 C84.5462031,384.612331 81.4462031,382.042331 78.3472031,379.462331 C78.3472031,379.462331 93.5532031,375.742331 107.977203,362.682331 C122.411203,349.622331 125.460203,332.342331 125.460203,332.342331 C128.039203,334.952331 130.727203,337.682331 133.465203,340.482331" id="Fill-60" fill="#EB8D2D"></path>
                <path d="M560.376203,379.812331 C532.376203,405.612331 504.866203,429.862331 500.386203,429.943028 C490.796203,430.112331 464.076203,399.152331 465.226203,392.712331 C465.986203,388.462331 491.706203,352.652331 509.216203,328.652331 C509.216203,328.652331 514.506203,349.532331 528.136203,361.482331 C541.776203,373.442331 560.376203,379.812331 560.376203,379.812331" id="Fill-61" fill="#DF5453"></path>
                <path d="M560.376203,379.812331 C557.516203,382.442331 554.656203,385.062331 551.826203,387.642331 C548.726203,386.522331 532.416203,380.282331 520.116203,369.502331 C509.126203,359.872331 503.566203,344.442331 501.816203,338.822331 C504.386203,335.292331 506.876203,331.862331 509.216203,328.652331 C509.216203,328.652331 514.506203,349.522331 528.136203,361.482331 C541.776203,373.442331 560.376203,379.812331 560.376203,379.812331" id="Fill-62" fill="#EB8D2D"></path>
                <path d="M354.238203,166.378331 C348.581203,182.617331 330.014203,198.847331 310.464203,196.941331 C283.954203,194.353331 280.363203,167.501331 280.272203,166.839331 C295.087203,165.164331 308.017203,164.381331 316.753203,164.381331 C329.302203,164.381331 341.930203,165.104331 354.218203,166.368331 L354.238203,166.378331" id="Fill-63" fill="#DF5453"></path>
                <path d="M290.679203,213.126331 C290.679203,213.126331 319.782203,216.118331 313.758203,186.188331 C313.758203,186.188331 301.391203,187.137331 297.423203,194.510331 C293.455203,201.883331 293.130203,208.131331 290.679203,213.126331" id="Fill-64" fill="#DF5453"></path>
                <path d="M341.806203,211.806331 C341.806203,211.806331 347.137203,189.581331 312.958203,187.180331 C312.958203,187.180331 309.282203,198.277331 319.095203,203.143331 C328.908203,208.009331 336.474203,208.157331 341.806203,211.806331" id="Fill-65" fill="#DF5453"></path>
                <path d="M335.166203,144.675331 C335.166203,144.675331 411.616203,87.0563308 356.406203,18.4063308 C331.529203,-12.5256692 265.674203,-1.57666923 256.248203,29.7843308 C236.708203,94.7963308 331.089203,145.942331 331.089203,145.942331 L335.166203,144.675331" id="Fill-70" fill="#2F302E"></path>
                <path d="M336.150203,170.508331 C336.150203,170.508331 327.562203,183.265331 314.126203,182.808331 C300.690203,182.352331 299.044203,169.540331 299.044203,169.540331 L301.936203,129.883331 L332.586203,100.044331 L336.150203,170.508331" id="Fill-71" fill="#F0B0A3"></path>
                <path d="M335.023203,148.266331 C322.568203,156.282331 308.265203,162.299331 299.553203,162.569331 L301.078203,141.694331 L333.323203,114.587331 L335.023203,148.266331" id="Fill-72" fill="#E79890"></path>
                <path d="M340.183203,114.482331 C340.183203,114.482331 316.995203,152.617331 290.973203,144.120331 C264.951203,135.622331 253.277203,107.604331 257.234203,70.3813308 C259.459203,49.4443308 261.964203,42.1103308 263.482203,43.2573308 C288.083203,61.8503308 324.327203,69.6473308 332.773203,72.0943308 C337.748203,73.5353308 328.918203,90.5793308 331.798203,92.5103308 C334.677203,94.4423308 340.043203,92.3553308 344.054203,90.0773308 C350.459203,86.4413308 360.020203,88.2573308 359.260203,100.386331 C358.501203,112.515331 348.679203,119.687331 340.183203,114.482331" id="Fill-73" fill="#F0B0A3"></path>
                <path d="M309.657203,80.7063308 C309.657203,80.7063308 294.475203,69.4113308 283.875203,71.1353308 C283.875203,71.1353308 283.319203,81.9013308 309.657203,80.7063308" id="Fill-74" fill="#2F302E"></path>
                <path d="M250.020203,72.3173308 C250.020203,72.3173308 260.450203,65.1613308 266.903203,68.7163308 C266.903203,68.7163308 265.111203,77.3253308 250.020203,72.3173308" id="Fill-75" fill="#2F302E"></path>
                <path d="M272.075203,94.3913308 C272.075203,94.3913308 277.743203,102.687331 269.668203,106.737331 C269.668203,106.737331 267.503203,107.650331 270.809203,109.250331 C270.809203,109.250331 267.272203,110.072331 266.861203,106.769331 C266.449203,103.466331 272.031203,106.938331 272.075203,94.3913308" id="Fill-76" fill="#E79890"></path>
                <path d="M306.955203,97.0113308 C308.544203,96.5523308 306.001203,91.0123308 296.173203,91.0073282 C286.346203,91.0023308 282.431203,98.1443308 283.870203,98.9613308 C285.309203,99.7773308 289.235203,94.9973308 295.483203,95.1153308 C301.730203,95.2323308 305.365203,97.4713308 306.955203,97.0113308" id="Fill-77" fill="#2F302E"></path>
                <path d="M251.623203,89.0593308 C250.806203,88.3363308 253.863203,84.0523308 259.712203,86.0503308 C265.560203,88.0483308 265.896203,95.0373308 264.813203,95.4523308 C263.729203,95.8663308 262.726203,90.9233308 258.977203,89.7523308 C255.227203,88.5813308 252.440203,89.7813308 251.623203,89.0593308" id="Fill-78" fill="#2F302E"></path>
                <path d="M344.054203,90.0773308 C344.054203,90.0773308 336.775203,96.6583308 335.398203,103.156331 C334.022203,109.655331 336.498203,139.337331 331.416203,143.876331 C324.244203,150.282331 302.729203,160.034331 288.117203,159.422331 C273.241203,158.799331 260.535203,143.442331 258.620203,137.647331 C256.705203,131.852331 256.403203,98.6863308 257.407203,98.1713308 C257.407203,98.1713308 257.838203,109.136331 264.310203,110.725331 C280.557203,114.712331 314.312203,116.450331 321.836203,109.218331 C325.191203,105.994331 330.845203,91.3833308 332.506203,84.2413308 C334.168203,77.0983308 344.054203,90.0773308 344.054203,90.0773308" id="Fill-79" fill="#2F302E"></path>
                <path d="M289.939203,118.829331 L275.062203,118.464331 C275.062203,118.464331 276.043203,126.143331 282.313203,126.298331 C288.582203,126.451331 289.939203,118.829331 289.939203,118.829331" id="Fill-80" fill="#FFFFFE"></path>
            </g>
        </g>
    </g>
</svg>