<?xml version="1.0" encoding="UTF-8"?>
<svg width="1584px" height="1292px" viewBox="0 0 1584 1292" version="1.1" xmlns="http://www.w3.org/2000/svg" xmlns:xlink="http://www.w3.org/1999/xlink">
    <title>Group</title>
    <g id="Page-1" stroke="none" stroke-width="1" fill="none" fill-rule="evenodd">
        <g id="Celebration_thank_you_for_sign_up" transform="translate(-215.000000, -266.000000)">
            <g id="Group" transform="translate(215.860000, 266.184000)">
                <polyline id="Fill-3" fill="#FFBEBD" points="720.013 631.154 727.45 724.45 680.802 729.182 718.661 845.466 918.77 828.566 932.3 714.985 900.52 710.929 885.65 537.182 720.013 631.154"></polyline>
                <path d="M812.78,608.708 C812.78,608.708 780.787,650.042 722.766,665.696 L720.013,631.154 L812.78,608.708" id="Fill-4" fill="#333333"></path>
                <path d="M684.013,347.717 C684.013,347.717 574.661,610.872 720.013,631.154 C816.69,644.675 885.65,537.182 885.65,537.182 L900.52,391.83 C900.52,391.83 711.562,303.605 684.013,347.717" id="Fill-5" fill="#FFBEBD"></path>
                <path d="M856.26,502.779 C822.94,510.478 854.38,426.309 834.6,414.647 C814.83,402.985 796.58,415.154 770.21,406.534 C743.844,397.915 739.281,378.647 717.985,373.069 C696.689,367.492 640.914,375.605 631.788,317.802 C622.661,259.999 678.943,221.464 724.07,236.168 C769.196,250.872 805.2,296.506 843.73,306.647 C882.27,316.788 932.46,306.789 944.13,335.366 C955.79,363.943 939.06,388.788 944.13,404.506 C949.2,420.225 976.07,452.675 968.97,491.211 C961.87,529.746 944.63,533.802 937.03,554.59 C929.42,575.379 889.48,582.004 889.48,582.004 L885.65,537.182 L856.26,502.779" id="Fill-6" fill="#333333"></path>
                <path d="M697.12,441.728 C695.224,448.322 690.197,452.663 685.89,451.425 C681.584,450.188 679.631,443.838 681.526,437.245 C683.422,430.651 688.45,426.31 692.756,427.547 C697.061,428.786 699.015,435.134 697.12,441.728" id="Fill-7" fill="#333333"></path>
                <path d="M773.856,463.79 C771.961,470.384 766.933,474.725 762.627,473.487 C758.321,472.249 756.367,465.9 758.263,459.307 C760.159,452.713 765.186,448.372 769.492,449.609 C773.798,450.847 775.752,457.196 773.856,463.79" id="Fill-8" fill="#333333"></path>
                <path d="M704.766,486.387 C695.691,483.095 686.89,488.462 685.498,494.746 C684.091,501.097 689.945,509.776 699.695,510.464" id="Stroke-9" stroke="#333333" stroke-width="3" stroke-linecap="round" stroke-linejoin="round"></path>
                <path d="M693.944,549.613 C711.437,552.563 728.93,546.011 728.93,546.011 C728.93,546.011 722.549,561.256 695.028,561.256 L693.944,549.613" id="Fill-10" fill="#FFFFFF"></path>
                <path d="M766.059,418.703 L793.03,433.407 M704.766,401.971 L676.914,403.999" id="Stroke-11" stroke="#333333" stroke-width="5" stroke-linecap="round" stroke-linejoin="round"></path>
                <path d="M923.51,521.657 C923.51,541.689 907.27,557.928 887.24,557.928 C867.2,557.928 850.97,541.689 850.97,521.657 C850.97,501.626 867.2,485.387 887.24,485.387 C907.27,485.387 923.51,501.626 923.51,521.657" id="Fill-12" fill="#FFBEBD"></path>
                <line x1="873.14" y1="529.746" x2="900.52" y2="513.52" id="Stroke-13" stroke="#333333" stroke-width="3" stroke-linecap="round" stroke-linejoin="round"></line>
                <path d="M701.295,551.181 L569.056,517.875 C565.877,517.074 563.452,514.503 562.839,511.283 L562.706,510.586 C561.318,503.297 565.443,496.083 572.429,493.582 C576.265,492.209 578.568,488.287 577.898,484.268 C576.964,478.66 570.856,475.57 565.784,478.14 L559.281,481.434 C547.059,487.627 541.245,501.86 545.637,514.839 L546.143,516.337 C550.484,529.167 561.635,535.652 574.999,537.858 L699.327,561.176 C702.153,561.706 704.766,559.538 704.766,556.663 L704.766,555.635 C704.766,553.53 703.335,551.695 701.295,551.181" id="Fill-14" fill="#5F7AFB"></path>
                <path d="M475.94,648.466 L413.73,813.546 C413.73,813.546 392.69,800.846 367.67,783.976 C344.83,768.566 318.67,749.686 302.21,733.816 C295.06,726.926 277.83,701.566 255,665.696 C174.03,538.456 22.67,278.926 1.22,242.076 C0.41,240.686 0,239.126 0,237.556 C0,236.076 0.37,234.586 1.11,233.236 C3.74,228.446 10,227.106 14.37,230.386 L57.82,263.046 L25.16,196.806 C24.52,195.506 24.21,194.106 24.21,192.716 C24.21,190.406 25.07,188.126 26.73,186.376 C30.51,182.366 36.93,182.536 40.49,186.736 L87.22,241.746 L62.5,163.226 C62.24,162.396 62.11,161.556 62.11,160.726 C62.11,157.416 64.11,154.316 67.33,153.026 C71.03,151.546 75.26,152.906 77.41,156.256 L146.04,263.376 L160.99,217.966 C162.49,213.406 166.74,210.496 171.32,210.496 C172.35,210.496 173.39,210.636 174.42,210.946 C179.19,212.356 182.39,216.826 182.2,221.796 C181.43,241.476 179.88,289.446 182.55,298.536 C185.93,310.026 423.9,627.096 423.9,627.096 L475.94,648.466" id="Fill-15" fill="#FFBEBD"></path>
                <path d="M367.67,783.976 C344.83,768.566 318.67,749.686 302.21,733.816 C295.06,726.926 277.83,701.566 255,665.696 C255,665.696 361.14,702.536 367.67,783.976" id="Fill-16" fill="#F4ABAB"></path>
                <polyline id="Fill-17" fill="#333333" points="475.94 648.466 393.823 801.116 413.73 813.546 475.94 648.466"></polyline>
                <path d="M1582.54,134.546 C1582.54,136.096 1582.18,137.666 1581.42,139.136 C1556.89,186.586 1440.5,411.596 1373.18,538.896 L1373.17,538.896 C1349.42,583.816 1331.78,616.576 1326.44,625.066 C1315.44,642.556 1298.54,666.196 1284.22,685.686 L1284.22,685.696 C1269.48,705.756 1257.48,721.406 1257.48,721.406 L1151,582.006 L1187.51,547.996 C1187.51,547.996 1223.13,489.156 1264.6,419.536 C1321.57,323.876 1389.57,207.856 1391.34,196.116 C1393.66,180.596 1392.43,134.236 1391.72,113.296 C1391.52,107.146 1395.56,101.666 1401.49,100.046 C1402.66,99.726 1403.83,99.576 1404.98,99.576 C1410.58,99.576 1415.75,103.146 1417.58,108.706 L1434.94,161.636 L1507.55,59.236 C1511.23,54.0456092 1518.25,52.516 1523.75,55.706 C1527.66,57.966 1529.89,62.086 1529.89,66.356 C1529.89,68.026 1529.55,69.716 1528.83,71.336 L1493.76,150.476 L1545.77,85.906 C1549.6,81.156 1556.45,80.206 1561.44,83.716 C1564.6,85.956 1566.33,89.516 1566.33,93.156 C1566.33,95.026 1565.87,96.916 1564.93,98.656 L1523.17,175.826 L1565,127.956 C1568.01,124.506 1572.99,123.546 1577.08,125.626 C1580.55,127.396 1582.54,130.906 1582.54,134.546" id="Fill-18" fill="#FFBEBD"></path>
                <polyline id="Fill-19" fill="#333333" points="1151 582.004 1271.94 702.254 1257.48 721.407 1151 582.004"></polyline>
                <path d="M1373.17,538.896 C1349.42,583.816 1331.78,616.576 1326.44,625.066 C1315.44,642.556 1298.54,666.196 1284.22,685.686 C1277.84,575.946 1373.17,538.896 1373.17,538.896" id="Fill-20" fill="#F4ABAB"></path>
                <path d="M1085.76,904.276 L1169.25,1289.296 L611,1289.296 L568.41,910.266 L404.13,839.046 L480.18,637.206 C511.11,652.786 540.72,672.806 586.83,691.326 C622.42,705.606 654.24,716.866 680.8,722.776 C689.35,724.686 697.36,726.036 704.77,726.756 C704.77,726.756 749.08,783.946 812.78,781.236 C887.14,778.086 914.83,712.756 914.83,712.756 C926.89,708.526 939.72,703.576 953.12,697.766 C971.5,689.806 990.97,680.226 1011.06,668.676 C1068.54,635.596 1111.04,597.816 1140.52,566.926 C1181.76,620.336 1223,673.746 1264.24,727.156 L1085.76,904.276" id="Fill-21" fill="#5F7AFB"></path>
                <polyline id="Fill-22" fill="#333333" points="568.408 910.266 563.168 855.606 548.553 901.656 568.408 910.266"></polyline>
                <path d="M507.475,651.894 L431.52,850.916 M1112.87,594.036 L1239.8,751.406" id="Stroke-23" stroke="#FFFFFF" stroke-width="5" stroke-linecap="round" stroke-linejoin="round"></path>
                <path d="M568.408,910.266 C640.372,921.436 726.005,929.606 822.44,928.786 C923.01,927.936 1011.81,917.516 1085.76,904.276 C1099.58,968.006 1113.4,1031.736 1127.22,1095.456 C1056.08,1112.996 965.73,1128.926 860.46,1132.616 C755.003,1136.326 663.603,1126.726 591.322,1114.186 C583.684,1046.216 576.046,978.236 568.408,910.266" id="Fill-24" fill="#0F35C6"></path>
                <path d="M953.12,697.766 C953.12,697.766 922.97,803.746 834.18,813.546 C732.162,824.806 680.8,722.776 680.8,722.776 C689.35,724.686 697.36,726.036 704.77,726.756 C704.77,726.756 749.08,783.946 812.78,781.236 C887.14,778.086 914.83,712.756 914.83,712.756 C926.89,708.526 939.72,703.576 953.12,697.766" id="Fill-25" fill="#0F35C6"></path>
                <polyline id="Fill-26" fill="#333333" points="1085.76 904.276 1060.07 928.116 1093.13 938.246 1085.76 904.276"></polyline>
                <polyline id="Fill-27" fill="#FF6847" points="1071.88 335.381 858.04 223.46 1111.21 0 1071.88 335.381"></polyline>
                <path d="M1111.21,0 C1098.96,25.403 1075.52,65.868 1033.37,103.83 C988.59,144.151 942.95,163.405 915.68,172.59 C980.85,115.06 1046.03,57.53 1111.21,0" id="Fill-28" fill="#FC7F6B"></path>
                <path d="M1073.79,33.032 L1102.9,71.229 M1031.61,70.26 L1093.45,151.399 M989.43,107.488 L1084.05,231.619 M947.26,144.715 L1075.02,312.334 M905.23,182.143 L991.11,294.809" id="Stroke-29" stroke="#FFFFFF" stroke-width="5" stroke-linecap="round" stroke-linejoin="round"></path>
                <path d="M858.04,223.46 C880.92,223.199 926.12,225.746 975.47,250.586 C1028.91,277.482 1058.94,316.28 1071.88,335.381 C1050.85,336.609 1001.08,336.687 947.64,308.129 C896.29,280.683 869.03,241.468 858.04,223.46" id="Fill-30" fill="#333333"></path>
                <path d="M1065.31,1260.396 C1103.34,1260.896 1162.66,1206.646 1158.1,1180.536 C1153.53,1154.426 1121.84,1176.226 1130.72,1195.496 C1139.59,1214.756 1197.14,1192.196 1207.79,1136.676" id="Stroke-31" stroke="#FFB2A2" stroke-width="5" stroke-linecap="round" stroke-linejoin="round"></path>
                <path d="M129.607,670.289 C125.168,708.06 172.991,772.676 199.436,770.846 C225.88,769.006 207.474,735.226 187.391,742.066 C167.309,748.896 183.796,808.466 237.917,824.806 M1439.94,590.482 C1402.63,597.825 1355.76,663.142 1365.61,687.753 C1375.46,712.364 1401.97,684.497 1389.32,667.472 C1376.66,650.448 1325,684.39 1326.03,740.916" id="Stroke-32" stroke="#C7BCF9" stroke-width="5" stroke-linecap="round" stroke-linejoin="round"></path>
                <path d="M598.035,273.618 C617.74,241.089 601.024,162.455 576.2,153.158 C551.375,143.862 554.115,182.23 575.222,184.342 C596.329,186.455 606.036,125.407 563.564,88.096" id="Stroke-33" stroke="#FFB2A2" stroke-width="5" stroke-linecap="round" stroke-linejoin="round"></path>
                <path d="M452.049,1028.676 C452.049,1040.016 442.858,1049.206 431.52,1049.206 C420.183,1049.206 410.993,1040.016 410.993,1028.676 C410.993,1017.336 420.183,1008.146 431.52,1008.146 C442.858,1008.146 452.049,1017.336 452.049,1028.676" id="Fill-34" fill="#C7BCF9"></path>
                <path d="M705.819,1260.396 C705.819,1271.736 696.628,1280.926 685.29,1280.926 C673.953,1280.926 664.763,1271.736 664.763,1260.396 C664.763,1249.056 673.953,1239.866 685.29,1239.866 C696.628,1239.866 705.819,1249.056 705.819,1260.396" id="Fill-35" fill="#FC7F6B"></path>
                <path d="M1171.53,497.925 C1171.53,509.263 1162.34,518.453 1151,518.453 C1139.66,518.453 1130.47,509.263 1130.47,497.925 C1130.47,486.588 1139.66,477.397 1151,477.397 C1162.34,477.397 1171.53,486.588 1171.53,497.925" id="Fill-36" fill="#C7BCF9"></path>
                <path d="M1424.03,813.546 C1424.03,824.886 1414.84,834.076 1403.51,834.076 C1392.17,834.076 1382.98,824.886 1382.98,813.546 C1382.98,802.206 1392.17,793.016 1403.51,793.016 C1414.84,793.016 1424.03,802.206 1424.03,813.546" id="Fill-37" fill="#FC7F6B"></path>
                <path d="M388.198,293.08 C388.198,304.418 379.007,313.608 367.67,313.608 C356.333,313.608 347.142,304.418 347.142,293.08 C347.142,281.743 356.333,272.552 367.67,272.552 C379.007,272.552 388.198,281.743 388.198,293.08" id="Fill-38" fill="#C7BCF9"></path>
                <line x1="434.881" y1="1289.296" x2="1029.44" y2="1289.296" id="Stroke-39" stroke="#333333" stroke-width="5" stroke-linecap="round" stroke-linejoin="round"></line>
            </g>
        </g>
    </g>
</svg>