<?xml version="1.0" encoding="UTF-8"?>
<svg width="59px" height="275px" viewBox="0 0 59 275" version="1.1" xmlns="http://www.w3.org/2000/svg" xmlns:xlink="http://www.w3.org/1999/xlink">
    <title>Group</title>
    <g id="Page-1" stroke="none" stroke-width="1" fill="none" fill-rule="evenodd">
        <g id="memphis-vector-design" transform="translate(-572.000000, -706.000000)">
            <g id="Group" transform="translate(572.900000, 706.800000)">
                <path d="M33.3,4 C44.622,4 53.8,10.94 53.8,19.5 C53.8,28.06 44.622,35 33.3,35 C21.978,35 12.8,28.06 12.8,19.5 C12.8,10.94 21.978,4 33.3,4" id="Fill-930" fill="#FFFFFE"></path>
                <path d="M33.3,4 C44.622,4 53.8,10.94 53.8,19.5 C53.8,28.06 44.622,35 33.3,35 C21.978,35 12.8,28.06 12.8,19.5 C12.8,10.94 21.978,4 33.3,4" id="Fill-931" fill="#FFFFFE"></path>
                <polygon id="Fill-932" fill="#9FD5D8" points="0.3 273.9 40.3 273.9 40.3 20.2 0.3 20.2"></polygon>
                <path d="M20.5,4.7 C31.822,4.7 41,11.64 41,20.2 C41,28.76 31.822,35.7 20.5,35.7 C9.178,35.7 1.13686838e-13,28.76 1.13686838e-13,20.2 C1.13686838e-13,11.64 9.178,4.7 20.5,4.7" id="Fill-933" fill="#FFFFFE"></path>
                <path d="M28.4,77 L28.4,77 C26.2,77 24.4,75.2 24.4,73 L24.4,64.5 C24.4,62.3 26.2,60.5 28.4,60.5 C30.6,60.5 32.4,62.3 32.4,64.5 L32.4,73 C32.4,75.2 30.6,77 28.4,77" id="Fill-934" fill="#FFFFFE"></path>
                <path d="M28.4,272.6 L28.4,272.6 C26.2,272.6 24.4,270.8 24.4,268.6 L24.4,102.3 C24.4,100.1 26.2,98.3 28.4,98.3 C30.6,98.3 32.4,100.1 32.4,102.3 L32.4,268.7 C32.4,270.9 30.6,272.6 28.4,272.6" id="Fill-935" fill="#FFFFFE"></path>
                <polyline id="Fill-941" fill="#0A0B09" points="17.2 23.5 49.2 23.5 49.2 273.4 57.2 273.4 57.2 15.5 9.2 15.5 9.2 273.4 17.2 273.4 17.2 23.5"></polyline>
                <path d="M33.3,39 C19.8,39 8.8,30.3 8.8,19.5 C8.8,8.7 19.8,0 33.3,0 C46.8,0 57.8,8.7 57.8,19.5 C57.8,30.3 46.9,39 33.3,39 Z M33.3,8 C24.4,8 16.8,13.3 16.8,19.5 C16.8,25.7 24.4,31 33.3,31 C42.2,31 49.8,25.7 49.8,19.5 C49.8,13.3 42.3,8 33.3,8 L33.3,8 Z" id="Fill-942" fill="#0A0B09"></path>
            </g>
        </g>
    </g>
</svg>