<svg width="100px" height="100px" viewBox="0 0 183 454">
    <g stroke="none" stroke-width="1" fill="none" fill-rule="evenodd">
        <g id="Group" transform="translate(0.800000, 0.900000)" fill-rule="nonzero">
            <path d="M110.2,433.3 C110.2,443.9 101.6,452.4 91.1,452.4 L91.1,452.4 C80.5,452.4 72,443.8 72,433.3 L72,214.8 C72,204.2 80.6,195.7 91.1,195.7 L91.1,195.7 C101.7,195.7 110.2,204.3 110.2,214.8 L110.2,433.3 Z" fill="#FED28B"></path>
            <polygon fill="#E6A468" points="72 351.3 72 360.6 110.2 374.3 110.2 351.3"></polygon>
            <path d="M182.2,83.8 C182.2,37.5 144.7,0 98.4,0 L83.8,0 C37.5,0 0,37.5 0,83.8 C0,86.3 0.1,88.9 0.4,91.3 C0.2,92.6 0,93.9 0,95.3 L0,329 C0,342.4 10.9,353.3 24.3,353.3 L157.8,353.3 C171.2,353.3 182.1,342.4 182.1,329 L182.1,95.3 C182.1,93.9 182,92.6 181.7,91.3 C182,88.9 182.2,86.3 182.2,83.8 Z" fill="#72C389"></path>
            <path d="M182.2,83.8 C182.2,37.5 144.7,0 98.4,0 L83.8,0 C37.5,0 0,37.5 0,83.8 C0,86.3 0.1,88.9 0.4,91.3 C0.2,92.6 0,93.9 0,95.3 L0,219.6 C0,233 10.9,243.9 24.3,243.9 C30.8,243.9 37.4,243.9 43.9,243.9 C50.1,243.9 55.9,243 61.5,246.1 C66.4,248.8 70.4,252.7 74.5,256.4 C80.3,261.6 86.7,265.2 95.1,263.7 C98.9,263 101.6,260.3 105.7,261 C108.5,261.4 111.2,263.1 113.2,264.9 C118.5,269.6 119.9,288 132.8,288 C141.9,288 143.2,270.8 145.2,264.7 C146.3,261.2 147.6,255.4 150.9,253.1 C154.2,250.9 158.5,251.9 162.2,251.1 C169.3,249.6 172.6,244.6 175.2,238.4 C177.9,231.9 182.1,227 182.1,219.5 L182.1,95.3 C182.1,93.9 182,92.6 181.7,91.3 C182,88.9 182.2,86.3 182.2,83.8 Z" fill="#ED6B91"></path>
        </g>
    </g>
</svg>
