<svg width="100px" height="100px" viewBox="0 0 195 454" version="1.1">
    <g stroke="none" stroke-width="1" fill="none" fill-rule="evenodd">
        <g transform="translate(0.404759, 0.736861)" fill-rule="nonzero">
            <path d="M184.095241,87.2631391 C184.095241,42.6631391 147.895241,6.46313912 103.295241,6.46313912 L89.1952407,6.46313912 C44.5952407,6.46313912 8.39524069,42.6631391 8.39524069,87.2631391 C8.39524069,89.7631391 8.49524069,92.1631391 8.69524069,94.5631391 C8.49524069,95.8631391 8.39524069,97.0631391 8.39524069,98.3631391 L8.39524069,323.763139 C8.39524069,336.663139 18.8952407,347.163139 31.7952407,347.163139 L160.595241,347.163139 C173.495241,347.163139 183.995241,336.663139 183.995241,323.763139 L183.995241,98.3631391 C183.995241,97.0631391 183.895241,95.7631391 183.695241,94.5631391 C183.995241,92.1631391 184.095241,89.6631391 184.095241,87.2631391 Z" fill="#FFE5C2"></path>
            <path d="M115.395241,433.463139 C115.395241,444.063139 106.795241,452.563139 96.2952407,452.563139 L96.2952407,452.563139 C85.6952407,452.563139 77.1952407,443.963139 77.1952407,433.463139 L77.1952407,214.963139 C77.1952407,204.363139 85.7952407,195.863139 96.2952407,195.863139 L96.2952407,195.863139 C106.895241,195.863139 115.395241,204.463139 115.395241,214.963139 L115.395241,433.463139 Z" fill="#FED28B"></path>
            <polygon fill="#E6A468" points="77.1952407 351.463139 77.1952407 360.763139 115.395241 374.463139 115.395241 351.463139"></polygon>
            <path d="M185.195241,100.263139 C180.395241,94.7631391 168.695241,95.6631391 162.495241,90.6631391 C159.695241,88.3631391 159.095241,84.7631391 156.695241,82.2631391 C153.795241,79.1631391 151.795241,80.4631391 148.195241,80.1631391 C139.795241,79.4631391 141.195241,71.8631391 136.895241,66.6631391 C133.095241,62.0631391 126.295241,59.8631391 122.795241,55.0631391 C120.595241,52.1631391 121.095241,48.6631391 120.395241,45.2631391 C119.095241,39.5631391 114.295241,35.1631391 114.695241,28.7631391 C114.995241,24.9631391 116.595241,22.1631391 115.495241,18.2631391 C114.695241,15.5631391 112.895241,13.7631391 112.695241,10.7631391 C112.595241,7.86313912 114.795241,3.26313912 112.195241,0.96313912 C110.495241,-0.53686088 105.795241,0.16313912 103.595241,0.16313912 L88.9952407,0.16313912 C42.6952407,0.16313912 5.19524069,37.6631391 5.19524069,83.9631391 C5.19524069,86.4631391 5.29524069,89.0631391 5.59524069,91.4631391 C5.39524069,92.7631391 5.19524069,94.0631391 5.19524069,95.4631391 L5.19524069,329.163139 C5.19524069,342.563139 16.0952407,353.463139 29.4952407,353.463139 L162.995241,353.463139 C176.395241,353.463139 187.295241,342.563139 187.295241,329.163139 C187.295241,329.163139 187.295241,329.163139 187.295241,329.163139 C187.295241,309.363139 187.295241,289.563139 187.295241,269.863139 C187.295241,233.963139 187.295241,198.163139 187.295241,162.263139 C187.295241,148.163139 187.295241,134.063139 187.295241,120.063139 C187.295241,115.763139 187.195241,111.363139 187.295241,107.063139 C187.395241,104.063139 186.595241,101.863139 185.195241,100.263139 Z" fill="#4B3730"></path>
            <g transform="translate(0.000000, 12.474937)" fill="#F4C548">
                <path d="M122.295241,39.2882023 C121.495241,40.6882023 119.695241,41.0882023 118.295241,40.2882023 L107.295241,33.6882023 C105.895241,32.8882023 105.395241,31.0882023 106.295241,29.6882023 L106.295241,29.6882023 C107.095241,28.2882023 108.895241,27.8882023 110.295241,28.6882023 L121.395241,35.2882023 C122.595241,36.1882023 123.095241,37.9882023 122.295241,39.2882023 L122.295241,39.2882023 Z"></path>
                <path d="M24.5952407,214.088202 C25.8952407,214.988202 26.1952407,216.888202 25.2952407,218.188202 L17.7952407,228.588202 C16.8952407,229.888202 14.9952407,230.188202 13.6952407,229.288202 L13.6952407,229.288202 C12.3952407,228.388202 12.0952407,226.488202 12.9952407,225.188202 L20.4952407,214.688202 C21.3952407,213.488202 23.1952407,213.188202 24.5952407,214.088202 L24.5952407,214.088202 Z"></path>
                <path d="M89.0952407,18.2882023 C87.4952407,18.6882023 85.9952407,17.6882023 85.5952407,16.0882023 L82.5952407,3.58820234 C82.1952407,1.98820234 83.1952407,0.488202343 84.7952407,0.0882023434 L84.7952407,0.0882023434 C86.3952407,-0.311797657 87.8952407,0.688202343 88.2952407,2.28820234 L91.2952407,14.7882023 C91.5952407,16.2882023 90.5952407,17.8882023 89.0952407,18.2882023 L89.0952407,18.2882023 Z"></path>
                <path d="M83.9952407,48.9882023 C83.4952407,50.4882023 81.8952407,51.3882023 80.2952407,50.8882023 L68.0952407,46.8882023 C66.5952407,46.3882023 65.6952407,44.6882023 66.1952407,43.1882023 L66.1952407,43.1882023 C66.6952407,41.6882023 68.3952407,40.7882023 69.8952407,41.2882023 L82.0952407,45.2882023 C83.6952407,45.7882023 84.4952407,47.4882023 83.9952407,48.9882023 L83.9952407,48.9882023 Z"></path>
                <path d="M42.4952407,28.8882023 C41.1952407,27.9882023 40.7952407,26.1882023 41.6952407,24.8882023 L48.8952407,14.2882023 C49.7952407,12.9882023 51.5952407,12.5882023 52.9952407,13.4882023 L52.9952407,13.4882023 C54.2952407,14.3882023 54.6952407,16.1882023 53.7952407,17.5882023 L46.5952407,28.1882023 C45.5952407,29.4882023 43.7952407,29.7882023 42.4952407,28.8882023 L42.4952407,28.8882023 Z"></path>
                <path d="M53.6952407,72.9882023 C55.2952407,73.3882023 56.1952407,74.8882023 55.8952407,76.4882023 L52.9952407,88.9882023 C52.5952407,90.5882023 51.0952407,91.5882023 49.4952407,91.1882023 L49.4952407,91.1882023 C47.8952407,90.7882023 46.8952407,89.2882023 47.2952407,87.6882023 L50.1952407,75.1882023 C50.5952407,73.5882023 52.0952407,72.6882023 53.6952407,72.9882023 L53.6952407,72.9882023 Z"></path>
                <path d="M21.4952407,90.8882023 C21.0952407,92.3882023 19.3952407,93.2882023 17.8952407,92.8882023 L5.49524069,89.3882023 C3.89524069,88.9882023 3.09524069,87.2882023 3.49524069,85.7882023 L3.49524069,85.7882023 C3.89524069,84.2882023 5.59524069,83.3882023 7.09524069,83.7882023 L19.4952407,87.2882023 C20.9952407,87.7882023 21.8952407,89.3882023 21.4952407,90.8882023 L21.4952407,90.8882023 Z"></path>
                <path d="M28.1952407,61.6882023 C26.6952407,62.2882023 24.9952407,61.5882023 24.3952407,60.1882023 L19.2952407,48.3882023 C18.6952407,46.8882023 19.2952407,45.1882023 20.7952407,44.5882023 L20.7952407,44.5882023 C22.2952407,43.9882023 23.9952407,44.6882023 24.5952407,46.0882023 L29.6952407,57.8882023 C30.3952407,59.3882023 29.6952407,61.0882023 28.1952407,61.6882023 L28.1952407,61.6882023 Z"></path>
                <path d="M130.695241,131.988202 C129.895241,133.388202 128.095241,133.788202 126.695241,132.988202 L115.595241,126.388202 C114.195241,125.588202 113.795241,123.788202 114.595241,122.388202 L114.595241,122.388202 C115.395241,120.988202 117.195241,120.588202 118.595241,121.388202 L129.695241,127.988202 C131.095241,128.788202 131.495241,130.588202 130.695241,131.988202 L130.695241,131.988202 Z"></path>
                <path d="M138.395241,76.6882023 C139.695241,77.5882023 139.995241,79.4882023 139.095241,80.7882023 L131.595241,91.1882023 C130.695241,92.4882023 128.795241,92.7882023 127.495241,91.8882023 L127.495241,91.8882023 C126.195241,90.9882023 125.895241,89.0882023 126.795241,87.7882023 L134.295241,77.3882023 C135.295241,75.9882023 137.095241,75.6882023 138.395241,76.6882023 L138.395241,76.6882023 Z"></path>
                <path d="M97.4952407,110.888202 C95.8952407,111.288202 94.3952407,110.288202 93.9952407,108.688202 L90.9952407,96.1882023 C90.5952407,94.5882023 91.5952407,93.0882023 93.1952407,92.6882023 L93.1952407,92.6882023 C94.7952407,92.2882023 96.2952407,93.2882023 96.6952407,94.8882023 L99.6952407,107.388202 C99.9952407,108.888202 99.0952407,110.488202 97.4952407,110.888202 L97.4952407,110.888202 Z"></path>
                <path d="M92.4952407,141.588202 C91.9952407,143.088202 90.3952407,143.988202 88.7952407,143.488202 L76.5952407,139.488202 C75.0952407,138.988202 74.1952407,137.288202 74.6952407,135.788202 L74.6952407,135.788202 C75.1952407,134.288202 76.7952407,133.388202 78.3952407,133.888202 L90.5952407,137.888202 C92.0952407,138.388202 92.8952407,140.088202 92.4952407,141.588202 L92.4952407,141.588202 Z"></path>
                <path d="M50.8952407,121.588202 C49.5952407,120.688202 49.1952407,118.888202 50.0952407,117.488202 L57.2952407,106.888202 C58.1952407,105.588202 59.9952407,105.188202 61.3952407,106.088202 L61.3952407,106.088202 C62.6952407,106.988202 63.0952407,108.788202 62.1952407,110.188202 L54.9952407,120.788202 C54.0952407,122.088202 52.2952407,122.488202 50.8952407,121.588202 L50.8952407,121.588202 Z"></path>
                <path d="M62.0952407,165.588202 C63.6952407,165.988202 64.5952407,167.488202 64.2952407,169.088202 L61.3952407,181.588202 C60.9952407,183.188202 59.4952407,184.088202 57.8952407,183.788202 L57.8952407,183.788202 C56.2952407,183.388202 55.2952407,181.888202 55.6952407,180.288202 L58.5952407,167.788202 C58.9952407,166.288202 60.5952407,165.288202 62.0952407,165.588202 L62.0952407,165.588202 Z"></path>
                <path d="M29.8952407,183.588202 C29.4952407,185.088202 27.7952407,185.988202 26.2952407,185.588202 L13.9952407,182.088202 C12.4952407,181.688202 11.4952407,179.988202 11.9952407,178.488202 L11.9952407,178.488202 C12.4952407,176.988202 14.0952407,176.088202 15.5952407,176.488202 L27.8952407,179.988202 C29.4952407,180.388202 30.3952407,181.988202 29.8952407,183.588202 L29.8952407,183.588202 Z"></path>
                <path d="M36.6952407,154.388202 C35.1952407,154.988202 33.4952407,154.288202 32.8952407,152.888202 L27.7952407,141.088202 C27.1952407,139.588202 27.8952407,137.888202 29.2952407,137.288202 L29.2952407,137.288202 C30.7952407,136.688202 32.4952407,137.388202 33.0952407,138.788202 L38.1952407,150.588202 C38.8952407,151.988202 38.1952407,153.688202 36.6952407,154.388202 L36.6952407,154.388202 Z"></path>
                <path d="M106.495241,182.088202 C105.695241,183.488202 103.895241,183.888202 102.495241,183.088202 L91.4952407,176.488202 C90.0952407,175.688202 89.5952407,173.888202 90.4952407,172.488202 L90.4952407,172.488202 C91.2952407,171.088202 93.0952407,170.688202 94.4952407,171.488202 L105.595241,178.088202 C106.795241,178.888202 107.295241,180.688202 106.495241,182.088202 L106.495241,182.088202 Z"></path>
                <path d="M171.895241,115.688202 C171.095241,117.088202 169.295241,117.488202 167.895241,116.688202 L156.895241,110.088202 C155.495241,109.288202 154.995241,107.488202 155.895241,106.088202 L155.895241,106.088202 C156.695241,104.688202 158.495241,104.288202 159.895241,105.088202 L170.995241,111.688202 C172.295241,112.588202 172.695241,114.288202 171.895241,115.688202 L171.895241,115.688202 Z"></path>
                <path d="M129.495241,159.688202 C131.095241,159.388202 132.595241,160.488202 132.895241,162.088202 L134.995241,174.788202 C135.295241,176.388202 134.195241,177.888202 132.595241,178.088202 L132.595241,178.088202 C130.995241,178.388202 129.495241,177.288202 129.195241,175.688202 L127.095241,162.988202 C126.795241,161.488202 127.895241,159.988202 129.495241,159.688202 L129.495241,159.688202 Z"></path>
                <path d="M175.295241,159.688202 C176.895241,159.388202 178.395241,160.488202 178.695241,162.088202 L180.795241,174.788202 C181.095241,176.388202 179.995241,177.888202 178.395241,178.088202 L178.395241,178.088202 C176.795241,178.388202 175.295241,177.288202 174.995241,175.688202 L172.895241,162.988202 C172.595241,161.488202 173.695241,159.988202 175.295241,159.688202 L175.295241,159.688202 Z"></path>
                <path d="M156.495241,156.288202 C154.895241,156.688202 153.395241,155.688202 152.995241,154.088202 L149.995241,141.588202 C149.595241,139.988202 150.595241,138.488202 152.195241,138.088202 L152.195241,138.088202 C153.795241,137.688202 155.295241,138.688202 155.695241,140.288202 L158.695241,152.788202 C158.995241,154.388202 158.095241,155.988202 156.495241,156.288202 L156.495241,156.288202 Z"></path>
                <path d="M120.495241,214.288202 C119.995241,215.788202 118.395241,216.688202 116.795241,216.188202 L104.595241,212.188202 C103.095241,211.688202 102.195241,209.988202 102.695241,208.488202 L102.695241,208.488202 C103.195241,206.988202 104.895241,206.088202 106.395241,206.588202 L118.595241,210.588202 C120.095241,211.088202 120.995241,212.788202 120.495241,214.288202 L120.495241,214.288202 Z"></path>
                <path d="M96.2952407,69.9882023 C95.7952407,68.4882023 96.5952407,66.7882023 98.0952407,66.2882023 L110.295241,62.1882023 C111.795241,61.6882023 113.495241,62.4882023 113.995241,63.9882023 L113.995241,63.9882023 C114.495241,65.4882023 113.695241,67.1882023 112.195241,67.6882023 L99.9952407,71.7882023 C98.3952407,72.2882023 96.7952407,71.4882023 96.2952407,69.9882023 L96.2952407,69.9882023 Z"></path>
                <path d="M81.6952407,198.288202 C83.2952407,198.688202 84.2952407,200.188202 83.8952407,201.788202 L80.9952407,214.288202 C80.5952407,215.888202 79.0952407,216.888202 77.4952407,216.488202 L77.4952407,216.488202 C75.8952407,216.088202 74.8952407,214.588202 75.2952407,212.988202 L78.1952407,200.488202 C78.5952407,198.988202 80.1952407,197.988202 81.6952407,198.288202 L81.6952407,198.288202 Z"></path>
                <path d="M165.995241,316.688202 C167.595241,317.088202 168.595241,318.588202 168.195241,320.188202 L165.295241,332.688202 C164.895241,334.288202 163.395241,335.288202 161.795241,334.888202 L161.795241,334.888202 C160.195241,334.488202 159.195241,332.988202 159.595241,331.388202 L162.495241,318.888202 C162.795241,317.288202 164.395241,316.288202 165.995241,316.688202 L165.995241,316.688202 Z"></path>
                <path d="M55.6952407,211.088202 C55.7952407,212.688202 54.4952407,214.088202 52.8952407,214.088202 L40.0952407,214.488202 C38.4952407,214.588202 37.0952407,213.288202 37.0952407,211.688202 L37.0952407,211.688202 C37.0952407,210.088202 38.2952407,208.688202 39.8952407,208.688202 L52.6952407,208.288202 C54.2952407,208.288202 55.5952407,209.488202 55.6952407,211.088202 L55.6952407,211.088202 Z"></path>
                <path d="M0.59524069,130.888202 C-0.40475931,129.588202 -0.10475931,127.788202 1.19524069,126.788202 L11.4952407,119.088202 C12.7952407,118.088202 14.5952407,118.388202 15.5952407,119.688202 L15.5952407,119.688202 C16.4952407,120.988202 16.2952407,122.788202 14.9952407,123.788202 L4.69524069,131.488202 C3.39524069,132.488202 1.59524069,132.188202 0.59524069,130.888202 L0.59524069,130.888202 Z"></path>
                <path d="M150.195241,274.988202 C151.695241,274.488202 152.595241,272.888202 152.195241,271.388202 L148.495241,259.088202 C148.095241,257.588202 146.395241,256.688202 144.895241,257.088202 L144.895241,257.088202 C143.395241,257.588202 142.495241,259.188202 142.895241,260.688202 L146.495241,272.988202 C146.995241,274.488202 148.595241,275.388202 150.195241,274.988202 L150.195241,274.988202 Z"></path>
                <path d="M183.095241,285.288202 C184.595241,284.788202 185.495241,283.188202 185.095241,281.688202 L181.395241,269.388202 C180.995241,267.888202 179.295241,266.988202 177.795241,267.388202 L177.795241,267.388202 C176.295241,267.888202 175.395241,269.488202 175.795241,270.988202 L179.395241,283.288202 C179.895241,284.888202 181.495241,285.788202 183.095241,285.288202 L183.095241,285.288202 Z"></path>
                <path d="M102.095241,271.488202 C102.695241,272.988202 104.395241,273.688202 105.895241,273.088202 L117.895241,268.388202 C119.395241,267.788202 120.095241,266.088202 119.495241,264.588202 L119.495241,264.588202 C118.895241,263.088202 117.195241,262.388202 115.695241,262.988202 L103.695241,267.688202 C102.295241,268.288202 101.495241,269.988202 102.095241,271.488202 L102.095241,271.488202 Z"></path>
                <path d="M41.0952407,305.588202 C41.6952407,307.088202 43.3952407,307.788202 44.8952407,307.188202 L56.8952407,302.488202 C58.3952407,301.888202 59.0952407,300.188202 58.4952407,298.688202 L58.4952407,298.688202 C57.8952407,297.188202 56.1952407,296.488202 54.6952407,297.088202 L42.6952407,301.788202 C41.2952407,302.388202 40.4952407,304.088202 41.0952407,305.588202 L41.0952407,305.588202 Z"></path>
                <path d="M140.395241,244.188202 C141.095241,242.788202 140.595241,240.988202 139.195241,240.288202 L127.795241,234.388202 C126.395241,233.588202 124.595241,234.188202 123.895241,235.588202 L123.895241,235.588202 C123.095241,236.988202 123.695241,238.788202 125.095241,239.488202 L136.495241,245.388202 C137.795241,246.188202 139.595241,245.588202 140.395241,244.188202 L140.395241,244.188202 Z"></path>
                <path d="M130.995241,311.788202 C131.695241,310.388202 131.195241,308.588202 129.795241,307.888202 L118.395241,301.988202 C116.995241,301.188202 115.195241,301.788202 114.495241,303.188202 L114.495241,303.188202 C113.695241,304.588202 114.295241,306.388202 115.695241,307.088202 L127.095241,312.988202 C128.395241,313.788202 130.195241,313.188202 130.995241,311.788202 L130.995241,311.788202 Z"></path>
                <path d="M49.4952407,255.288202 C50.1952407,253.888202 49.6952407,252.088202 48.2952407,251.388202 L36.8952407,245.488202 C35.4952407,244.688202 33.6952407,245.288202 32.9952407,246.688202 L32.9952407,246.688202 C32.1952407,248.088202 32.7952407,249.888202 34.1952407,250.588202 L45.5952407,256.488202 C46.9952407,257.288202 48.6952407,256.688202 49.4952407,255.288202 L49.4952407,255.288202 Z"></path>
                <path d="M170.095241,243.288202 C171.695241,243.188202 172.895241,241.788202 172.795241,240.188202 L171.895241,227.388202 C171.795241,225.788202 170.395241,224.588202 168.795241,224.688202 L168.795241,224.688202 C167.195241,224.788202 165.995241,226.188202 166.095241,227.788202 L166.995241,240.588202 C167.095241,242.188202 168.495241,243.388202 170.095241,243.288202 L170.095241,243.288202 Z"></path>
                <path d="M193.295241,195.188202 C192.095241,194.188202 190.195241,194.388202 189.195241,195.588202 L181.095241,205.588202 C180.095241,206.788202 180.295241,208.688202 181.495241,209.688202 L181.495241,209.688202 C182.795241,210.688202 184.595241,210.488202 185.595241,209.288202 L193.695241,199.288202 C194.695241,197.988202 194.495241,196.188202 193.295241,195.188202 L193.295241,195.188202 Z"></path>
                <path d="M56.7952407,273.088202 C56.7952407,274.688202 57.9952407,276.088202 59.5952407,276.088202 L72.3952407,276.388202 C73.9952407,276.388202 75.2952407,275.088202 75.3952407,273.488202 L75.3952407,273.488202 C75.3952407,271.888202 74.0952407,270.588202 72.4952407,270.488202 L59.6952407,270.188202 C58.0952407,270.188202 56.7952407,271.488202 56.7952407,273.088202 L56.7952407,273.088202 Z"></path>
                <path d="M167.595241,300.188202 C168.095241,298.688202 167.295241,296.988202 165.795241,296.488202 L153.595241,292.288202 C152.095241,291.788202 150.395241,292.588202 149.895241,294.088202 L149.895241,294.088202 C149.395241,295.588202 150.195241,297.288202 151.695241,297.788202 L163.895241,301.888202 C165.395241,302.588202 167.095241,301.688202 167.595241,300.188202 L167.595241,300.188202 Z"></path>
                <path d="M146.895241,200.888202 C147.595241,202.288202 149.395241,202.888202 150.795241,202.188202 L162.295241,196.388202 C163.695241,195.688202 164.295241,193.888202 163.595241,192.488202 L163.595241,192.488202 C162.895241,191.088202 161.095241,190.488202 159.695241,191.188202 L148.195241,196.988202 C146.695241,197.688202 146.095241,199.388202 146.895241,200.888202 L146.895241,200.888202 Z"></path>
                <path d="M68.8952407,327.788202 C68.3952407,329.288202 66.7952407,330.188202 65.1952407,329.688202 L52.9952407,325.688202 C51.4952407,325.188202 50.5952407,323.488202 51.0952407,321.988202 L51.0952407,321.988202 C51.5952407,320.488202 53.2952407,319.588202 54.7952407,320.088202 L66.9952407,324.088202 C68.5952407,324.588202 69.3952407,326.188202 68.8952407,327.788202 L68.8952407,327.788202 Z"></path>
                <path d="M24.8952407,316.688202 C26.4952407,317.088202 27.4952407,318.588202 27.0952407,320.188202 L24.1952407,332.688202 C23.7952407,334.288202 22.2952407,335.288202 20.6952407,334.888202 L20.6952407,334.888202 C19.0952407,334.488202 18.0952407,332.988202 18.4952407,331.388202 L21.3952407,318.888202 C21.7952407,317.288202 23.2952407,316.288202 24.8952407,316.688202 L24.8952407,316.688202 Z"></path>
                <path d="M91.3952407,329.088202 C92.0952407,330.488202 93.8952407,331.088202 95.2952407,330.388202 L106.795241,324.588202 C108.195241,323.888202 108.795241,322.088202 108.095241,320.688202 L108.095241,320.688202 C107.395241,319.288202 105.595241,318.688202 104.195241,319.388202 L92.6952407,325.188202 C91.2952407,325.888202 90.6952407,327.588202 91.3952407,329.088202 L91.3952407,329.088202 Z"></path>
                <path d="M72.5952407,249.888202 C71.5952407,248.688202 71.6952407,246.788202 72.9952407,245.788202 L82.8952407,237.588202 C84.0952407,236.588202 85.9952407,236.688202 86.9952407,237.988202 L86.9952407,237.988202 C87.9952407,239.188202 87.8952407,241.088202 86.5952407,242.088202 L76.6952407,250.288202 C75.3952407,251.288202 73.5952407,251.188202 72.5952407,249.888202 L72.5952407,249.888202 Z"></path>
                <path d="M84.0952407,296.188202 C83.0952407,294.988202 83.1952407,293.088202 84.4952407,292.088202 L94.3952407,283.888202 C95.5952407,282.888202 97.4952407,282.988202 98.4952407,284.288202 L98.4952407,284.288202 C99.4952407,285.488202 99.3952407,287.388202 98.0952407,288.388202 L88.1952407,296.588202 C86.9952407,297.588202 85.1952407,297.388202 84.0952407,296.188202 L84.0952407,296.188202 Z"></path>
                <path d="M14.3952407,296.188202 C13.3952407,294.988202 13.4952407,293.088202 14.7952407,292.088202 L24.6952407,283.888202 C25.8952407,282.888202 27.7952407,282.988202 28.7952407,284.288202 L28.7952407,284.288202 C29.7952407,285.488202 29.6952407,287.388202 28.3952407,288.388202 L18.4952407,296.588202 C17.2952407,297.588202 15.4952407,297.388202 14.3952407,296.188202 L14.3952407,296.188202 Z"></path>
            </g>
        </g>
    </g>
</svg>
