<?xml version="1.0" encoding="UTF-8"?>
<svg width="99px" height="454px" viewBox="0 0 99 454" version="1.1" xmlns="http://www.w3.org/2000/svg" xmlns:xlink="http://www.w3.org/1999/xlink">
    <title>Group</title>
    <g id="Page-1" stroke="none" stroke-width="1" fill="none" fill-rule="evenodd">
        <g id="Group" transform="translate(0.673498, 0.200000)" fill-rule="nonzero">
            <path d="M68.1265022,434 C68.1265022,444.6 59.5265022,453.1 49.0265022,453.1 L49.0265022,453.1 C38.4265022,453.1 29.9265022,444.5 29.9265022,434 L29.9265022,215.5 C29.9265022,204.9 38.5265022,196.4 49.0265022,196.4 L49.0265022,196.4 C59.6265022,196.4 68.1265022,205 68.1265022,215.5 L68.1265022,434 Z" id="Path" fill="#FED28B"></path>
            <polygon id="Path" fill="#E6A468" points="29.9265022 352 29.9265022 361.3 68.1265022 375 68.1265022 352"></polygon>
            <path d="M87.2265022,39 C87.2265022,17.5 72.3265022,0 53.9265022,0 L44.2265022,0 C25.8265022,0 10.9265022,17.5 10.9265022,39 L10.9265022,56 C10.9265022,56 10.9265022,56 10.9265022,56 L10.9265022,341.3 C10.9265022,348.3 15.8265022,354 21.8265022,354 L76.2265022,354 C82.2265022,354 87.1265022,348.3 87.1265022,341.3 L87.1265022,60.1 C87.2265022,58.8 87.3265022,57.4 87.3265022,56 L87.3265022,39 L87.2265022,39 Z" id="Path" fill="#6DCEF8"></path>
            <g transform="translate(0.000000, 42.573498)" fill="#F5B2C3" id="Path">
                <path d="M97.5265022,271.626502 C99.9265022,279.926502 95.2265022,288.526502 86.9265022,290.926502 L19.9265022,310.426502 C11.6265022,312.826502 3.02650224,308.126502 0.626502242,299.826502 L0.626502242,299.826502 C-1.77349776,291.526502 2.92650224,282.926502 11.2265022,280.526502 L78.2265022,261.026502 C86.4265022,258.626502 95.1265022,263.326502 97.5265022,271.626502 L97.5265022,271.626502 Z"></path>
                <path d="M97.5265022,206.526502 C99.9265022,214.826502 95.2265022,223.426502 86.9265022,225.826502 L19.9265022,245.326502 C11.6265022,247.726502 3.02650224,243.026502 0.626502242,234.726502 L0.626502242,234.726502 C-1.77349776,226.426502 2.92650224,217.826502 11.2265022,215.426502 L78.2265022,195.926502 C86.4265022,193.526502 95.1265022,198.226502 97.5265022,206.526502 L97.5265022,206.526502 Z"></path>
                <path d="M97.5265022,141.826502 C99.9265022,150.126502 95.2265022,158.726502 86.9265022,161.126502 L19.9265022,180.626502 C11.6265022,183.026502 3.02650224,178.326502 0.626502242,170.026502 L0.626502242,170.026502 C-1.77349776,161.726502 2.92650224,153.126502 11.2265022,150.726502 L78.2265022,131.226502 C86.4265022,128.826502 95.1265022,133.626502 97.5265022,141.826502 L97.5265022,141.826502 Z"></path>
                <path d="M97.5265022,76.7265022 C99.9265022,85.0265022 95.2265022,93.6265022 86.9265022,96.0265022 L19.9265022,115.526502 C11.6265022,117.926502 3.02650224,113.226502 0.626502242,104.926502 L0.626502242,104.926502 C-1.77349776,96.6265022 2.92650224,88.0265022 11.2265022,85.6265022 L78.2265022,66.1265022 C86.4265022,63.7265022 95.1265022,68.5265022 97.5265022,76.7265022 L97.5265022,76.7265022 Z"></path>
                <path d="M97.5265022,11.2265022 C99.9265022,19.5265022 95.2265022,28.1265022 86.9265022,30.5265022 L19.9265022,50.0265022 C11.6265022,52.4265022 3.02650224,47.7265022 0.626502242,39.4265022 L0.626502242,39.4265022 C-1.77349776,31.1265022 2.92650224,22.5265022 11.2265022,20.1265022 L78.2265022,0.626502242 C86.4265022,-1.77349776 95.1265022,2.92650224 97.5265022,11.2265022 L97.5265022,11.2265022 Z"></path>
            </g>
            <g transform="translate(0.000000, 10.173498)" fill="#ED6B91" id="Path">
                <path d="M97.5265022,271.626502 C99.9265022,279.926502 95.2265022,288.526502 86.9265022,290.926502 L19.9265022,310.426502 C11.6265022,312.826502 3.02650224,308.126502 0.626502242,299.826502 L0.626502242,299.826502 C-1.77349776,291.526502 2.92650224,282.926502 11.2265022,280.526502 L78.2265022,261.026502 C86.4265022,258.626502 95.1265022,263.326502 97.5265022,271.626502 L97.5265022,271.626502 Z"></path>
                <path d="M97.5265022,206.526502 C99.9265022,214.826502 95.2265022,223.426502 86.9265022,225.826502 L19.9265022,245.326502 C11.6265022,247.726502 3.02650224,243.026502 0.626502242,234.726502 L0.626502242,234.726502 C-1.77349776,226.426502 2.92650224,217.826502 11.2265022,215.426502 L78.2265022,195.926502 C86.4265022,193.526502 95.1265022,198.226502 97.5265022,206.526502 L97.5265022,206.526502 Z"></path>
                <path d="M97.5265022,141.926502 C99.9265022,150.226502 95.2265022,158.826502 86.9265022,161.226502 L19.9265022,180.726502 C11.6265022,183.126502 3.02650224,178.426502 0.626502242,170.126502 L0.626502242,170.126502 C-1.77349776,161.826502 2.92650224,153.226502 11.2265022,150.826502 L78.2265022,131.326502 C86.4265022,128.926502 95.1265022,133.626502 97.5265022,141.926502 L97.5265022,141.926502 Z"></path>
                <path d="M97.5265022,76.8265022 C99.9265022,85.1265022 95.2265022,93.7265022 86.9265022,96.1265022 L19.9265022,115.626502 C11.6265022,118.026502 3.02650224,113.326502 0.626502242,105.026502 L0.626502242,105.026502 C-1.77349776,96.7265022 2.92650224,88.1265022 11.2265022,85.7265022 L78.2265022,66.2265022 C86.4265022,63.8265022 95.1265022,68.5265022 97.5265022,76.8265022 L97.5265022,76.8265022 Z"></path>
                <path d="M97.5265022,11.2265022 C99.9265022,19.5265022 95.2265022,28.1265022 86.9265022,30.5265022 L19.9265022,50.0265022 C11.6265022,52.4265022 3.02650224,47.7265022 0.626502242,39.4265022 L0.626502242,39.4265022 C-1.77349776,31.1265022 2.92650224,22.5265022 11.2265022,20.1265022 L78.2265022,0.626502242 C86.4265022,-1.77349776 95.1265022,2.92650224 97.5265022,11.2265022 L97.5265022,11.2265022 Z"></path>
            </g>
        </g>
    </g>
</svg>