<svg width="267px" height="124px" viewBox="0 0 267 124">
    <defs>
        <path d="M0.495,0.5 C0.455,0.5 0.415,0.5 0.385,0.5 L0.615,0.5 C0.575,0.5 0.535,0.5 0.495,0.5" id="path-1"></path>
        <linearGradient x1="-14158.9%" y1="-3061.81%" x2="10261%" y2="-10996.31%" id="linearGradient-3">
            <stop stop-color="#C4B48C" offset="0%"></stop>
            <stop stop-color="#D7C08F" offset="100%"></stop>
        </linearGradient>
    </defs>
    <g id="Page-1" stroke="none" stroke-width="1" fill="none" fill-rule="evenodd">
        <g id="free-cute-fruit-vectors" transform="translate(-938.000000, -804.000000)">
            <g id="Group" transform="translate(938.687000, 804.000000)">
                <g id="Group-21" transform="translate(180.328000, 122.377000)">
                    <mask id="mask-2" fill="white">
                        <use xlink:href="#path-1"></use>
                    </mask>
                    <g id="Clip-20"></g>
                    <path d="M0.495,0.5 C0.455,0.5 0.415,0.5 0.385,0.5 L0.615,0.5 C0.575,0.5 0.535,0.5 0.495,0.5" id="Fill-19" fill="url(#linearGradient-3)" mask="url(#mask-2)"></path>
                </g>
                <path d="M60.897,4.833 L60.902,4.839 L4.095,4.481 L4.095,4.69 C4.095,46.491 38.329,80.899 80.133,80.899 L96.203,80.899 C113.743,95.86 136.473,105.089 161.333,105.089 C216.803,105.089 261.763,59.835 261.763,4.833 L60.897,4.833" id="Fill-82" fill="#DBE48B"></path>
                <path d="M58.001,7.729 L58.005,7.735 C58.971,5.404 59.936,3.073 60.902,0.743 C41.966,0.624 23.031,0.505 4.095,0.385922635 C1.863,0.372 0,2.26 0,4.481 C0,31.123 13.416,55.593 34.999,70.907 C45.9,78.644 58.795,82.983 71.983,84.557 C79.953,85.507 88.193,84.995 96.203,84.995 C95.233,84.596 94.273,84.195 93.303,83.796 C126.313,111.451 172.273,116.895 210.503,96.862 C244.383,79.114 265.553,42.799 265.86304,4.833 C265.873,2.601 263.983,0.737 261.763,0.737 C203.443,0.737 145.113,0.737 86.783,0.737 C78.153,0.737 69.523,0.737 60.897,0.737 C55.615,0.737 55.615,8.929 60.897,8.929 C119.223,8.929 177.553,8.929 235.873,8.929 C244.503,8.929 253.133,8.929 261.763,8.929 C260.393,7.563 259.033,6.198 257.663,4.833 C257.213,61.445 207.763,105.454 151.633,100.521 C135.603,99.112 120.233,92.92 106.953,84.007 C103.013,81.361 99.643,76.804 94.673,76.804 C90.333,76.804 85.993,76.804 81.653,76.804 C55.759,76.804 32.245,63.936 18.584,41.847 C11.685,30.69 8.192,17.563 8.192,4.481 C6.826,5.848 5.46,7.212 4.095,8.578 C23.031,8.697 41.966,8.815 60.902,8.935 C64.723,8.959 65.993,4.567 63.803,1.942 L63.793,1.937 C60.399,-2.119 54.636,3.708 58.001,7.729" id="Fill-83" fill="#B6D364"></path>
                <path d="M20.313,4.481 L20.313,4.646 C20.313,37.382 47.3,66 80.033,66 L104.913,66 C119.843,80 139.983,88.515 162.153,88.515 C208.193,88.515 245.473,50.857 245.473,5.11 L20.313,4.481" id="Fill-84" fill="#FFFCE8"></path>
                <path d="M15.7,5 C15.7,29 30.928,52.953 53.32,63.886 C69.443,71.758 87.523,69.898 104.913,69.898 C103.943,69.498 102.983,69.034 102.013,68.634 C128.553,93.723 168.103,99.195 200.823,83.403 C230.523,69.073 248.993,37.644 249.303349,5.045 C249.333,2.809 247.423,0.946 245.213,0.941 C187.063,0.8 128.913,0.655 70.763,0.514 C53.774,0.473 36.785,0.43 19.795,0.38798454 C14.512,0.375 14.513,8.565 19.795,8.579 C77.943,8.72 136.093,8.86 194.243,9.002 C211.233,9.043 228.223,9.084 245.213,9.125 C243.843,7.76 242.483,6.395 241.113,5.029 C240.863,31.472 227.863,56.04 205.963,70.939 C181.483,87.601 148.743,88.384 123.003,74.138 C119.593,72.251 116.353,70.019 113.293,67.614 C111.103,65.899 108.733,62.474 106.003,61.724 C103.293,60.979 99.793,61.577 97.043,61.577 C88.623,61.577 79.833,62.475 71.483,61.157 C44.569,56.909 23.891,32 23.891,5 C23.891,-1 15.7,-1 15.7,5" id="Fill-85" fill="#DDD8A3"></path>
                <path d="M138.213,5 C138.213,18 148.563,28.115 161.333,28.115 C174.093,28.115 184.443,18 184.443,5 L138.213,5" id="Fill-86" fill="#DDD8A3"></path>
                <path d="M134.123,4.479 C134.633,19.656 146.153,31.178 161.333,31.689 C176.503,32.2 188.053,18.695 188.543,4.287 C188.613,2.055 186.623,0 184.443,0 C169.033,0 153.313,0 138.313,0 C132.313,0 132.313,8 138.313,8 C153.313,8 169.033,8 184.443,8 C183.083,7 181.713,5.557 180.353,4.191 C179.993,14.828 171.963,22.995 161.333,23.354 C150.693,23.712 142.653,14.504 142.313,4.406 C142.133,-0.861 133.943,-0.807 134.123,4.479" id="Fill-87" fill="#DDD8A3"></path>
                <path d="M148.803,0 C148.803,7 154.413,12.531 161.333,12.531 C168.253,12.531 173.863,7 173.863,0 L148.803,0" id="Fill-88" fill="#6E3F23"></path>
            </g>
        </g>
    </g>
</svg>
