<svg width="100px" height="100px" viewBox="0 0 207 242">
    <g id="Page-1" stroke="none" stroke-width="1" fill="none" fill-rule="evenodd">
        <g id="free-cute-fruit-vectors" transform="translate(-968.000000, -46.000000)">
            <g id="Group-12" transform="translate(968.390757, 46.805092)">
                <path d="M109.899243,36.003908 C111.019243,23.803908 104.239243,10.968908 97.0892425,1.713908 C93.9092425,-2.404092 86.7892425,1.666908 90.0192425,5.847908 C96.3792425,14.078908 102.709243,25.109908 101.709243,36.003908 C101.229243,41.265908 109.419243,41.218908 109.899243,36.003908" id="Fill-104" fill="#8A6242"></path>
                <path d="M202.359243,137.645908 C202.359243,192.390908 157.979243,236.770908 103.229243,236.770908 C48.4892425,236.770908 4.10524251,192.390908 4.10524251,137.645908 C4.10524251,82.901908 48.4892425,38.521908 103.229243,38.521908 C157.979243,38.521908 202.359243,82.901908 202.359243,137.645908" id="Fill-105" fill="#F4B468"></path>
                <path d="M198.259243,137.645908 C198.039243,164.563908 186.859243,189.711908 167.119243,207.995908 C147.319243,226.339908 120.159243,234.584908 93.4992425,232.202908 C37.7592425,227.224908 -0.806757491,171.924908 10.2302425,117.984908 C19.9422425,70.526908 65.3692425,38.838908 112.969243,43.089908 C161.149243,47.393908 197.869243,90.022908 198.259243,137.645908 C198.299243,142.925908 206.489243,142.930908 206.449389,137.645908 C206.019243,84.633908 165.569243,40.454908 112.969243,34.897908 C60.3392425,29.339908 11.3982425,67.432908 1.72124251,118.912908 C-8.05875749,170.945908 24.8252425,222.436908 75.2892425,237.039908 C126.359243,251.819908 180.409243,223.167908 199.679243,174.449908 C204.289243,162.786908 206.349243,150.151908 206.449389,137.645908 C206.489243,132.361908 198.299243,132.365908 198.259243,137.645908" id="Fill-106" fill="#E8812C"></path>
                <path d="M106.469243,51.445908 C106.469243,51.445908 149.399243,66.693908 157.939243,7.534908 C157.939243,7.534908 98.3092425,-1.004092 106.469243,51.445908" id="Fill-107" fill="#C1D873"></path>
                <path d="M105.389243,55.395908 C113.349243,58.183908 122.899243,57.902908 130.849243,55.385908 C150.869243,49.045908 158.999243,27.580908 161.889243,8.623908 C162.189243,6.653908 161.419243,3.920908 159.029243,3.584908 C148.269243,2.074908 136.699243,2.842908 126.429243,6.422908 C106.019243,13.536908 99.6092425,32.383908 102.519243,52.534908 C103.279243,57.746908 111.169243,55.522908 110.419243,50.357908 C109.109243,41.286908 109.619243,31.917908 114.869243,24.140908 C118.739243,18.411908 125.429243,15.149908 131.869243,13.280908 C137.449243,11.660908 143.279243,11.135908 149.069243,11.114908 C151.149243,11.107908 153.229243,11.198908 155.299243,11.358908 C155.879243,11.402908 159.079243,11.797908 156.849243,11.484908 C155.899243,9.804908 154.939243,8.125908 153.989243,6.445908 C151.439243,23.152908 145.199243,42.692908 127.159243,47.944908 C120.869243,49.775908 113.649243,49.626908 107.559243,47.496908 C102.559243,45.746908 100.429243,53.662908 105.389243,55.395908" id="Fill-108" fill="#8FB63E"></path>
                <path d="M107.869243,50.015908 C107.869243,50.015908 131.799243,23.015908 155.599243,9.874908" id="Fill-109" fill="#C1D873"></path>
                <path d="M110.759243,52.912908 C124.239243,37.766908 139.969243,23.397908 157.659243,13.411908 C162.259243,10.815908 158.139243,3.738908 153.529243,6.338908 C135.259243,16.650908 118.889243,31.479908 104.969243,47.119908 C101.469243,51.051908 107.249243,56.866908 110.759243,52.912908" id="Fill-110" fill="#8FB63E"></path>
                <path d="M172.979243,104.731908 C169.859243,93.507908 163.309243,84.540908 154.509243,78.243908" id="Fill-111" fill="#E2E676"></path>
                <path d="M176.929243,103.642908 C173.419243,91.755908 166.529243,82.061908 156.579243,74.707908 C152.319243,71.562908 148.239243,78.676908 152.439243,81.780908 C160.609243,87.819908 166.159243,96.114908 169.029243,105.819908 C170.529243,110.873908 178.429243,108.720908 176.929243,103.642908" id="Fill-112" fill="#FFFCE8"></path>
            </g>
        </g>
    </g>
</svg>
