<svg width="100px" height="100px" viewBox="0 0 238 128">
    <defs>
        <path d="M101.746,112.756 C96.111,112.756 90.41,112.304 84.704,111.373 C65.88,108.303 48.818,100.405 34.663,89.091 C48.818,100.405 65.88,108.303 84.704,111.373 C90.41,112.304 96.11,112.756 101.745,112.756 C147.859,112.759 190.147,82.582 205.314,38.139 C209.054,27.18 210.71,15.567 210.800155,4.015 C210.811,2.478 210.126,1.417 209.147,0.809 C210.126,1.417 210.812,2.478 210.800155,4.015 C210.71,15.568 209.055,27.181 205.315,38.14 C190.147,82.583 147.86,112.759 101.746,112.756 M202.115,4.077 L202.114,4.077 C202.124,2.957 201.71,2.06 201.064,1.407 C201.71,2.059 202.124,2.957 202.115,4.077 M1.369,4.077 L1.368,4.077 C1.358,2.793 0.809,1.815 0,1.162 C0.809,1.815 1.358,2.793 1.369,4.077 M194.724,1.574 C194.653,1.492 194.579,1.412 194.501,1.335 C194.579,1.412 194.653,1.492 194.724,1.574 M12.391,0 L12.291,0 C12.308,0 12.325,0 12.341,0 C12.358,0 12.374,0 12.391,0" id="path-1"></path>
        <linearGradient x1="4.69876315%" y1="53.9470063%" x2="100.472412%" y2="37.3017536%" id="linearGradient-3">
            <stop stop-color="#C4B48C" offset="0%"></stop>
            <stop stop-color="#D7C08F" offset="100%"></stop>
        </linearGradient>
    </defs>
    <g id="Page-1" stroke="none" stroke-width="1" fill="none" fill-rule="evenodd">
        <g id="free-cute-fruit-vectors" transform="translate(-584.000000, -346.000000)">
            <g id="Group-10" transform="translate(584.961847, 346.913125)">
                <g id="Group-17" transform="translate(25.823153, 14.008875)">
                    <mask id="mask-2" fill="white">
                        <use xlink:href="#path-1"></use>
                    </mask>
                    <g id="Clip-16"></g>
                    <path d="M101.746,112.756 C96.111,112.756 90.41,112.304 84.704,111.373 C65.88,108.303 48.818,100.405 34.663,89.091 C48.818,100.405 65.88,108.303 84.704,111.373 C90.41,112.304 96.11,112.756 101.745,112.756 C147.859,112.759 190.147,82.582 205.314,38.139 C209.054,27.18 210.71,15.567 210.800155,4.015 C210.811,2.478 210.126,1.417 209.147,0.809 C210.126,1.417 210.812,2.478 210.800155,4.015 C210.71,15.568 209.055,27.181 205.315,38.14 C190.147,82.583 147.86,112.759 101.746,112.756 M202.115,4.077 L202.114,4.077 C202.124,2.957 201.71,2.06 201.064,1.407 C201.71,2.059 202.124,2.957 202.115,4.077 M1.369,4.077 L1.368,4.077 C1.358,2.793 0.809,1.815 0,1.162 C0.809,1.815 1.358,2.793 1.369,4.077 M194.724,1.574 C194.653,1.492 194.579,1.412 194.501,1.335 C194.579,1.412 194.653,1.492 194.724,1.574 M12.391,0 L12.291,0 C12.308,0 12.325,0 12.341,0 C12.358,0 12.374,0 12.391,0" id="Fill-15" fill="url(#linearGradient-3)" mask="url(#mask-2)"></path>
                </g>
                <path d="M213.526153,3.96187522 C213.526153,61.7948752 166.643153,108.677875 108.811153,108.677875 C50.9781534,108.677875 4.09615339,61.7948752 4.09615339,3.96187522" id="Fill-74" fill="#339B46"></path>
                <path d="M209.431153,3.96187522 C209.005153,59.1278752 163.977153,104.155875 108.811153,104.581875 C53.6391534,105.006875 8.61215339,58.4868752 8.19215339,3.96187522 C8.15115339,-1.31812478 -0.0408466124,-1.32312478 1.13686838e-13,3.96187522 C0.408153388,56.8558752 39.1471534,102.838875 91.5271534,111.381875 C143.933153,119.929875 195.117153,88.0218752 212.138153,38.1488752 C215.878153,27.1898752 217.533153,15.5138752 217.623299,3.96187522 C217.663153,-1.32312478 209.472153,-1.31812478 209.431153,3.96187522" id="Fill-75" fill="#2F7A3E"></path>
                <path d="M200.745153,3.96187522 C200.324153,54.3918752 159.240153,95.4738752 108.811153,95.8958752 C58.3761534,96.3168752 17.2931534,53.7568752 16.8771534,3.96187522 C16.8331534,-1.31812478 8.64115339,-1.32312478 8.68497677,3.96187522 C9.12815339,57.0448752 50.9801534,100.865875 103.920153,103.964875 C156.993153,107.070875 202.785153,65.7078752 208.452153,13.6798752 C208.803153,10.4528752 208.910153,7.20487522 208.93733,3.96187522 C208.981153,-1.32312478 200.790153,-1.31812478 200.745153,3.96187522" id="Fill-76" fill="#FBF5EE"></path>
                <path d="M19.2021534,4.08687522 C19.2021534,53.0868752 59.3221534,93.6968752 108.810153,93.6968752 C158.302153,93.6968752 198.421153,53.0868752 198.421153,4.08687522 L19.2021534,4.08687522" id="Fill-77" fill="#DC385E"></path>
                <path d="M15.1061534,3.96187522 C15.5681534,55.3488752 57.4231534,97.2048752 108.810153,97.6678752 C160.204153,98.1298752 202.060153,54.7638752 202.51731,4.07187522 C202.537153,1.83887522 200.639153,0.0868752218 198.421153,0.0868752218 C141.465153,0.0868752218 84.5091534,0.0868752218 27.5541534,0.0868752218 C24.7691534,0.0868752218 22.0381534,0.0868752218 19.0381534,0.0868752218 C13.0381534,0.0868752218 13.0381534,8.08687522 19.0381534,8.08687522 C76.0381534,8.08687522 133.113153,8.08687522 190.069153,8.08687522 C192.852153,8.08687522 195.637153,8.08687522 198.421153,8.08687522 C197.056153,7.08687522 195.690153,5.34187522 194.325153,3.97587522 C193.902153,50.9078752 155.742153,89.0608752 108.810153,89.4828752 C61.8741534,89.9058752 23.7141534,50.2598752 23.2971534,3.96487522 C23.2501534,-1.31412478 15.0581534,-1.32312478 15.1061534,3.96187522" id="Fill-78" fill="#D92442"></path>
                <path d="M69.9171534,48.1338752 C68.8301534,52.5918752 66.4201534,52.7228752 63.6501534,52.0478752 C60.8811534,51.3728752 58.8011534,50.1468752 59.8901534,45.6888752 C60.9761534,41.2308752 64.8181534,35.2298752 67.5861534,35.9048752 C70.3561534,36.5788752 71.0041534,43.6758752 69.9171534,48.1338752" id="Fill-79" fill="#41291B"></path>
                <path d="M147.706153,48.1338752 C148.792153,52.5918752 151.203153,52.7228752 153.973153,52.0478752 C156.741153,51.3728752 158.821153,50.1468752 157.733153,45.6888752 C156.646153,41.2308752 152.805153,35.2298752 150.036153,35.9048752 C147.267153,36.5788752 146.619153,43.6758752 147.706153,48.1338752" id="Fill-80" fill="#41291B"></path>
                <path d="M113.972153,59.0248752 C114.022153,63.6118752 111.719153,64.3368752 108.869153,64.3678752 C106.019153,64.3998752 103.701153,63.7268752 103.651153,59.1378752 C103.600153,54.5488752 105.836153,47.7838752 108.686153,47.7527613 C111.537153,47.7208752 113.921153,54.4358752 113.972153,59.0248752" id="Fill-81" fill="#41291B"></path>
            </g>
        </g>
    </g>
</svg>
