<?xml version="1.0" encoding="UTF-8"?>
<svg width="252px" height="68px" viewBox="0 0 252 68" version="1.1" xmlns="http://www.w3.org/2000/svg" xmlns:xlink="http://www.w3.org/1999/xlink">
    <title>freepik</title>
    <g id="Page-1" stroke="none" stroke-width="1" fill="none" fill-rule="evenodd">
        <g id="freepik" fill="#000" fill-rule="nonzero">
            <path d="M10.8140464,17 C9.11933469,18.772625 7.64756006,20.727298 6.48799482,22.818137 L4.65961851,21.8634948 C4.39180138,20.6814159 3.27711625,19.8634331 2.07315874,19.9995991 C0.779928856,20.1357652 -0.156699352,21.3632327 0.0218454002,22.6814776 C0.155510051,23.9997225 1.35995539,24.9543647 2.65318527,24.7723166 C2.9210024,24.7269279 3.14393943,24.6815393 3.36687645,24.5448799 L5.15086049,25.4995221 C4.16984001,27.7270204 3.45614883,30.0448028 3.05466705,32.4543492 L5.99821632,33 C6.88996443,27.7724091 9.34324737,22.9996917 13,19.1362277 L10.8140464,17 Z" id="XMLID_3728_"></path>
            <path d="M32.3938786,7.42404266 C31.7059709,7.42404266 31.0175615,7.46858448 30.3296538,7.46858448 L30.0541897,5.01539564 C30.7882589,4.43538375 31.246864,3.4985532 31.1093828,2.47263902 C30.9257401,0.911254774 29.5037632,-0.159201219 27.8986453,0.0194501879 C26.2930256,0.198101595 25.1921726,1.58083444 25.3758154,3.14173454 C25.5132965,4.1231069 26.1555444,4.97085383 27.0270948,5.32767249 L27.302559,7.78086133 C24.4129453,8.22676362 21.6603111,9.07451054 19,10.3236179 L20.3301555,13 C24.0913196,11.2604485 28.1741094,10.3681598 32.3943803,10.3681598 C34.4129453,10.3681598 36.3853487,10.591353 38.3577521,10.9927135 L39,8.09313818 C36.8434521,7.64675173 34.5955845,7.42404266 32.3938786,7.42404266 L32.3938786,7.42404266 Z" id="XMLID_3727_"></path>
            <path d="M58.8485841,17.3671764 C60.1906306,17.188044 61.1626144,16.0253823 60.97733,14.7282499 C60.7920456,13.4311176 59.5887093,12.4917646 58.2466629,12.670897 C56.9972587,12.8048823 56.0713428,13.8787059 56.0713428,15.0413676 L54.3587276,16.4724852 C52.6461123,14.7729117 50.7487189,13.2966469 48.6199731,12 L47,14.5049412 C51.6280605,17.3225147 55.191495,21.3032352 57.4133893,26 L60.2366986,24.7921911 C59.2186467,22.6003676 57.9226683,20.5876764 56.3953375,18.7094559 L58.0153105,17.3230001 C58.2932371,17.4118381 58.5711638,17.4118381 58.8485841,17.3671764 L58.8485841,17.3671764 Z" id="XMLID_3726_"></path>
            <path d="M30.5182033,48.3184048 C28.9822086,48.4091819 27.4457196,48.4545704 25.9097249,48.4545704 C22.4310032,48.4545704 19.0422272,48.2271344 16.0601834,47.7273674 C14.5241887,47.4999315 12.7168744,47.0909415 11,46.5452926 C15.1567734,53.9544744 23.1990006,59 32.3704904,59 C43.7110538,59 53.2438087,51.3633822 56,41 C53.2892757,42.7726189 50.0359124,44.2729067 46.2408984,45.4998767 C41.5874471,47.0460463 36.1659986,48.0001919 30.5182033,48.3184048 Z" id="XMLID_3725_"></path>
            <path d="M32.0002458,13 C18.7865666,13 8,23.6962874 8,36.8602618 C8,38.5515254 8.17993179,40.2884318 8.53930375,41.9340526 C11.1910853,43.8540263 19.2359044,45.499151 29.663099,44.8596559 C41.0337065,44.1740219 50.5622254,41.0202047 56,36.1746278 C56,35.3977082 55.9100341,34.6202925 55.8200682,33.8433729 C54.2926145,21.9593809 44.0900888,13 32.0002458,13 Z M23.4608601,39.1463699 C19.4158362,39.1463699 16.1800137,35.8094855 16.1800137,31.7413243 C16.1800137,27.6275202 19.461065,24.3362786 23.4608601,24.3362786 C27.505884,24.3362786 30.7417065,27.673163 30.7417065,31.7413243 C30.7869353,35.8094855 27.505884,39.1463699 23.4608601,39.1463699 Z M42.1575427,35.4894899 C39.1911263,35.4894899 36.8092424,33.0213067 36.8092424,30.0500606 C36.8092424,27.0331718 39.2363551,24.6106314 42.1575427,24.6106314 C45.1239592,24.6106314 47.5058431,27.0788146 47.5058431,30.0500606 C47.5510718,33.0669495 45.1239592,35.4894899 42.1575427,35.4894899 Z" id="XMLID_3702_"></path>
            <path d="M95.954755,21.0487897 C94.7729163,20.596809 92.7274453,19.8278038 90.454755,20.0991886 C88.2730519,20.3705733 87.0912132,21.4556214 87.0912132,24.078189 L87.0912132,27.5144201 L96,27.5144201 L96,34.3417331 L87.0912132,34.3417331 L87.0912132,56 L79.3637679,56 L79.3637679,34.3417331 L74,34.3417331 L74,27.5595691 L79.3637679,27.5595691 L79.3637679,24.0325493 C79.3637679,17.3406832 82.954529,13 89.6363677,13 C92.1820195,13 94.2727355,13.4971297 96,14.2209858 L95.954755,21.0487897 Z" id="XMLID_3699_"></path>
            <path d="M114.972966,34.4411863 C114.240551,34.3069181 113.554193,34.2616755 112.867835,34.2616755 C109.252315,34.2616755 106.780726,36.4128867 106.780726,40.6262833 L106.780726,56 L99,56 L99,27.762313 L106.505882,27.762313 L106.505882,30.8548614 C108.336671,28.2103603 111.082603,27 114.606508,27 C116.254068,27 117.993242,27.4928035 119,28.3446286 L114.972966,34.4411863 Z" id="XMLID_3697_"></path>
            <path d="M145,41.9317449 C145,42.7916796 144.955406,43.8775251 144.865729,44.5110577 L124.840176,44.5110577 C125.646785,48.6285289 128.513529,50.4387625 132.097693,50.4387625 C134.561623,50.4387625 137.204907,49.4432814 139.220939,47.7239032 L143.656306,52.6561268 C140.430852,55.6425703 136.353705,57 131.649795,57 C123.0035,57 117,51.0722952 117,42.0682737 C117,33.1089432 122.824145,27.0002534 131.291085,27.0002534 C139.400294,26.9548364 144.955406,33.0180877 145,41.9317449 Z M124.88477,39.2620678 L137.383773,39.2620678 C136.666842,35.5969094 134.516539,33.5607649 131.246001,33.5607649 C127.617733,33.5607649 125.557107,35.7329471 124.88477,39.2620678 Z" id="XMLID_3694_"></path>
            <path d="M175,41.9317449 C175,42.7916796 174.955406,43.8775251 174.865729,44.5110577 L154.840176,44.5110577 C155.646785,48.6285289 158.513529,50.4387625 162.097693,50.4387625 C164.561623,50.4387625 167.204907,49.4432814 169.220939,47.7239032 L173.656306,52.6561268 C170.430852,55.6425703 166.353705,57 161.649795,57 C153.0035,57 147,51.0722952 147,42.0682737 C147,33.1089432 152.824145,27.0002534 161.291085,27.0002534 C169.399804,26.9548364 174.955406,33.0180877 175,41.9317449 L175,41.9317449 Z M154.88477,39.2620678 L167.383773,39.2620678 C166.666842,35.5969094 164.516539,33.5607649 161.246001,33.5607649 C157.662326,33.5607649 155.556617,35.7329471 154.88477,39.2620678 L154.88477,39.2620678 Z" id="XMLID_3682_"></path>
            <path d="M208,41.9341655 C208,50.4867259 202.036451,56.9582434 194.115427,56.9582434 C190.245792,56.9582434 187.559805,55.4651185 185.693457,53.2475334 L185.693457,68 L178,68 L178,27.7249213 L185.557016,27.7249213 L185.557016,30.8924089 C187.423364,28.5844504 190.154666,27.0002293 194.115427,27.0002293 C202.036451,26.9557656 208,33.3816052 208,41.9341655 Z M185.283637,41.9341655 C185.283637,46.4140313 188.288318,49.8079434 192.658401,49.8079434 C197.210736,49.8079434 200.078976,46.323658 200.078976,41.9341655 C200.078976,37.5446731 197.256548,34.0603877 192.658401,34.0603877 C188.288318,34.1055743 185.283637,37.4542998 185.283637,41.9341655 Z" id="XMLID_3679_"></path>
            <path d="M220,17.9599049 C220,20.7354367 217.833955,22.8743741 214.976812,22.8743741 C212.165541,22.8743741 210,20.7359305 210,17.9599049 C210,15.1838793 212.166045,13 214.976812,13 C217.788083,13 220,15.1843731 220,17.9599049 Z M218.939913,56 L211.105454,56 L211.105454,27.333498 L218.939913,27.333498 L218.939913,56 Z" id="XMLID_3648_"></path>
            <polygon id="XMLID_3583_" points="231.792701 37.393991 242.530709 27.1034695 251.954901 27.1034695 238.090693 40.7018368 252 56 242.530709 56 231.702503 44.2849208 231.702503 56 224 56 224 13 231.702503 13 231.702503 37.393991"></polygon>
        </g>
    </g>
</svg>
