<svg xmlns="http://www.w3.org/2000/svg" width="100%" height="100%" viewBox="0 0 267 65" role="img" aria-labelledby="ab4042kxcdqlkxtoy5n0s5sl6r3eknj6"><desc id="ab4042kxcdqlkxtoy5n0s5sl6r3eknj6">Vecteezy logo</desc>
  <path d="M41.7748 29.9081C41.8438 28.3903 41.8438 26.976 41.8438 25.5616C41.8438 22.388 41.0159 19.2143 38.9116 19.2143C37.3248 19.2143 36.4969 20.5597 36.4969 22.9054C36.4969 26.7345 39.1186 29.0802 41.7748 29.9081ZM32.2539 53.8829C22.4915 53.8829 21.5601 45.1209 21.5601 36.0829C21.5601 27.3899 20.9046 25.4581 17.869 25.4581H13.4535V19.7318H17.869C26.3205 19.7318 27.3899 26.7345 27.3899 36.1174C27.3899 45.0519 28.0453 48.0531 32.1504 48.0531C36.4969 48.0531 39.498 41.0504 40.9124 35.3585C34.5996 33.8407 30.667 29.3217 30.667 22.8019C30.667 17.6275 34.0132 13.35 39.0151 13.35C44.5345 13.35 47.6046 18.6279 47.6046 25.5616C47.6046 27.3209 47.5356 28.9767 47.4321 30.2531H53.9519V36.0139H46.5008C44.7759 44.7759 39.9465 53.8829 32.2539 53.8829ZM32.0814 64.3352C54.6418 64.3352 64.1628 50.0539 64.1628 32.4263C64.1628 8.10659 53.124 0 38.6011 0C19.8698 0 0 15.3853 0 32.4263C0 50.0539 14.3849 64.3352 32.0814 64.3352Z"></path>
  <path d="M90.5177 35.117C90.8627 36.1519 91.2766 37.5318 91.4491 38.7046H91.5871C91.8285 37.5318 92.208 36.1864 92.5185 35.1515L98.2103 16.5236H105.041L95.0712 45.3969H87.827L77.7886 16.5581H84.6189L90.5177 35.117Z"></path>
  <path d="M123.669 38.2217L126.739 41.7748C125.221 43.7756 121.944 45.7073 117.114 45.7073C109.594 45.7073 105.075 40.9814 105.075 34.2201C105.075 27.5279 109.594 22.7329 116.493 22.7329C123.048 22.7329 126.773 27.1829 126.773 33.2887C126.773 34.7031 126.566 35.669 126.566 35.669H111.491C112.043 38.6701 114.148 40.7399 117.839 40.7399C121.047 40.7744 122.703 39.2566 123.669 38.2217ZM111.526 32.3229H120.874C120.84 29.6667 119.218 27.6659 116.528 27.6659C113.941 27.7004 112.009 29.3562 111.526 32.3229Z"></path>
  <path d="M150.886 30.6325C150.886 31.6329 150.748 32.2883 150.748 32.2883L145.022 32.6333C145.056 32.5298 145.125 32.1159 145.125 31.6329C145.125 29.7356 143.883 28.0798 141.434 28.0798C138.502 28.0798 136.501 30.4946 136.501 34.1166C136.501 37.9112 138.433 40.4294 142.297 40.4294C145.815 40.4294 147.747 38.6356 148.402 37.8077L151.576 41.8783C150.162 43.6721 146.885 45.7073 141.848 45.7073C134.362 45.7073 129.912 40.9814 129.912 34.3236C129.912 27.4589 134.638 22.7674 141.538 22.7674C147.436 22.7674 150.886 26.2515 150.886 30.6325Z"></path>
  <path d="M171.894 44.086C171.894 44.086 169.514 45.7073 165.202 45.7073C159.337 45.7073 156.233 42.5337 156.233 36.1864V27.9763H152.818V23.0434H156.509V16.5581H162.753V23.0434H170.618V27.9763H162.753V35.8759C162.753 38.8771 163.891 40.188 166.409 40.188C168.686 40.188 169.997 39.0151 169.997 39.0151L171.894 44.086Z"></path>
  <path d="M191.143 38.2217L194.213 41.7748C192.695 43.7756 189.418 45.7073 184.589 45.7073C177.034 45.7073 172.549 40.9814 172.549 34.2201C172.549 27.5279 177.068 22.7329 183.968 22.7329C190.522 22.7329 194.247 27.1829 194.247 33.2887C194.247 34.7031 194.041 35.669 194.041 35.669H178.966C179.518 38.6701 181.622 40.7399 185.313 40.7399C188.521 40.7744 190.211 39.2566 191.143 38.2217ZM179 32.3229H188.349C188.314 29.6667 186.693 27.6659 184.002 27.6659C181.415 27.7004 179.483 29.3562 179 32.3229Z"></path>
  <path d="M215.98 38.2217L219.05 41.7748C217.532 43.7756 214.255 45.7073 209.426 45.7073C201.906 45.7073 197.387 40.9814 197.387 34.2201C197.387 27.5279 201.906 22.7329 208.805 22.7329C215.359 22.7329 219.085 27.1829 219.085 33.2887C219.085 34.7031 218.878 35.669 218.878 35.669H203.803C204.355 38.6701 206.459 40.7399 210.15 40.7399C213.358 40.7744 215.049 39.2566 215.98 38.2217ZM203.838 32.3229H213.186C213.151 29.6667 211.53 27.6659 208.839 27.6659C206.252 27.7004 204.32 29.3562 203.838 32.3229Z"></path>
  <path d="M221.775 40.7399L232.642 29.1837C233.194 28.5628 233.435 28.3213 233.815 28.0108L233.78 27.8728C233.263 27.9763 232.4 28.0108 231.158 28.0108H222.12V23.0434H241.128V27.7349L230.779 38.9806C230.02 39.843 229.675 40.1535 229.365 40.4984L229.468 40.6364C229.882 40.5329 230.606 40.4984 231.917 40.4984H241.438V45.4314H221.775V40.7399Z"></path>
  <path d="M248.338 55.3662C245.785 55.3662 244.164 54.4693 244.164 54.4693L245.095 49.5019C245.095 49.5019 246.337 50.1573 247.786 50.1573C249.821 50.1573 250.925 49.1569 251.684 47.5011L252.098 46.3973L242.853 23.0434H249.821L254.409 36.3244C254.788 37.4973 254.926 38.0837 255.133 39.2566H255.237C255.478 38.0147 255.616 37.3938 255.961 36.3244L260.446 23.0434H267L257.479 48.398C255.996 52.2961 253.236 55.3662 248.338 55.3662Z"></path>
</svg>
