<svg width="100px" height="100px" viewBox="0 0 183 454">
    <g stroke="none" stroke-width="1" fill="none" fill-rule="evenodd">
        <g transform="translate(0.200000, 0.900000)" fill-rule="nonzero">
            <path d="M110.2,433.3 C110.2,443.9 101.6,452.4 91.1,452.4 L91.1,452.4 C80.5,452.4 72,443.8 72,433.3 L72,214.8 C72,204.2 80.6,195.7 91.1,195.7 L91.1,195.7 C101.7,195.7 110.2,204.3 110.2,214.8 L110.2,433.3 Z" fill="#FED28B"></path>
            <polygon fill="#E6A468" points="71.9 351.3 71.9 360.6 110.2 374.3 110.2 351.3"></polygon>
            <path d="M1.42108547e-14,329 C1.42108547e-14,342.4 10.9,353.3 24.3,353.3 L157.8,353.3 C171.2,353.3 182.1,342.4 182.1,329 L182.1,249.2 L1.42108547e-14,249.2 L1.42108547e-14,329 Z" fill="#DF2334"></path>
            <path d="M182.1,95.3 C182.1,93.9 182,92.6 181.7,91.3 C181.9,88.8 182.1,86.3 182.1,83.8 C182.1,37.5 144.6,0 98.3,0 L83.8,0 C37.5,0 1.42108547e-14,37.5 1.42108547e-14,83.8 C1.42108547e-14,86.3 0.1,88.9 0.4,91.3 C0.2,92.6 1.42108547e-14,93.9 1.42108547e-14,95.3 L1.42108547e-14,125.7 L182.1,125.7 L182.1,95.3 Z" fill="#FCCC00"></path>
            <rect id="Rectangle" fill="#B7D63A" x="1.42108547e-14" y="125.8" width="182.1" height="123.4"></rect>
            <g opacity="0.5" transform="translate(36.800000, 45.600000)" fill="#4B3730">
                <path d="M37,267.1 C37,277.3 28.7,285.6 18.5,285.6 L18.5,285.6 C8.3,285.6 1.42108547e-14,277.3 1.42108547e-14,267.1 L1.42108547e-14,18.5 C1.42108547e-14,8.3 8.3,0 18.5,0 L18.5,0 C28.7,0 37,8.3 37,18.5 L37,267.1 Z"></path>
                <path d="M108.4,267.1 C108.4,277.3 100.1,285.6 89.9,285.6 L89.9,285.6 C79.7,285.6 71.4,277.3 71.4,267.1 L71.4,18.5 C71.4,8.3 79.7,0 89.9,0 L89.9,0 C100.1,0 108.4,8.3 108.4,18.5 L108.4,267.1 Z"></path>
            </g>
        </g>
    </g>
</svg>
