<?xml version="1.0" encoding="UTF-8"?>
<svg width="251px" height="453px" viewBox="0 0 251 453" version="1.1" xmlns="http://www.w3.org/2000/svg" xmlns:xlink="http://www.w3.org/1999/xlink">
    <title>Group</title>
    <g id="Page-1" stroke="none" stroke-width="1" fill="none" fill-rule="evenodd">
        <g id="Group" transform="translate(0.400000, 0.500000)" fill-rule="nonzero">
            <path d="M76.4,433.4 C76.4,444 67.8,452.5 57.3,452.5 L57.3,452.5 C46.7,452.5 38.2,443.9 38.2,433.4 L38.2,214.9 C38.2,204.3 46.8,195.8 57.3,195.8 L57.3,195.8 C67.9,195.8 76.4,204.4 76.4,214.9 L76.4,433.4 Z" id="Path" fill="#FED28B"></path>
            <polygon id="Path" fill="#E6A468" points="38.2 351.4 38.2 360.7 76.4 374.4 76.4 351.4"></polygon>
            <path d="M213.8,433.4 C213.8,444 205.2,452.5 194.7,452.5 L194.7,452.5 C184.1,452.5 175.6,443.9 175.6,433.4 L175.6,214.9 C175.6,204.3 184.2,195.8 194.7,195.8 L194.7,195.8 C205.3,195.8 213.8,204.4 213.8,214.9 L213.8,433.4 Z" id="Path" fill="#FED28B"></path>
            <polygon id="Path" fill="#E6A468" points="175.5 351.4 175.5 360.7 213.8 374.4 213.8 351.4"></polygon>
            <path d="M250.5,83.8 C250.5,37.5 213,0 166.7,0 L83.8,0 C37.5,0 1.13686838e-13,37.5 1.13686838e-13,83.8 C1.13686838e-13,86.3 0.1,88.9 0.4,91.3 C0.2,92.6 1.13686838e-13,93.9 1.13686838e-13,95.3 L1.13686838e-13,329 C1.13686838e-13,342.4 10.9,353.3 24.3,353.3 L226.2,353.3 C239.6,353.3 250.5,342.4 250.5,329 L250.5,95.4 C250.5,94 250.4,92.7 250.1,91.4 C250.4,88.9 250.5,86.4 250.5,83.8 Z" id="Path" fill="#69CFF7"></path>
            <path d="M138.1,321.7 C138.1,328.7 132.4,334.4 125.4,334.4 L125.4,334.4 C118.4,334.4 112.7,328.7 112.7,321.7 L112.7,31.8 C112.7,24.8 118.4,19.1 125.4,19.1 L125.4,19.1 C132.4,19.1 138.1,24.8 138.1,31.8 L138.1,321.7 Z" id="Path" fill="#02AAF0"></path>
        </g>
    </g>
</svg>