<?xml version="1.0" encoding="UTF-8"?>
<svg width="582px" height="618px" viewBox="0 0 582 618" version="1.1" xmlns="http://www.w3.org/2000/svg" xmlns:xlink="http://www.w3.org/1999/xlink">
    <title>Group 2</title>
    <g id="Page-1" stroke="none" stroke-width="1" fill="none" fill-rule="evenodd">
        <g id="Group-2" transform="translate(0.500000, 0.700000)" fill-rule="nonzero">
            <g id="Group">
                <path d="M578.6,290.4 C560.8,147.2 438.6,36.3 290.5,36.3 C142.4,36.3 20.2,147.2 2.3,290.4 L0,290.4 L0,326.7 C0,487.1 130,617.1 290.4,617.1 C450.8,617.1 580.8,487.1 580.8,326.7 L580.8,290.4 L578.6,290.4 Z M290.5,397.7 C251.3,397.7 219.5,365.9 219.5,326.7 C219.5,287.5 251.3,255.7 290.5,255.7 C329.7,255.7 361.5,287.5 361.5,326.7 C361.4,365.9 329.7,397.7 290.5,397.7 Z" id="Shape" fill="#F49547"></path>
                <path d="M290.5,1.42108547e-14 C130.1,1.42108547e-14 0.1,130 0.1,290.4 C0.1,450.8 130.1,580.8 290.5,580.8 C450.9,580.8 580.9,450.8 580.9,290.4 C580.9,130 450.9,1.42108547e-14 290.5,1.42108547e-14 Z M290.5,361.4 C251.3,361.4 219.5,329.6 219.5,290.4 C219.5,251.2 251.3,219.4 290.5,219.4 C329.7,219.4 361.5,251.2 361.5,290.4 C361.4,329.6 329.7,361.4 290.5,361.4 Z" id="Shape" fill="#F8AD5C"></path>
                <path d="M290.5,21.5 C142,21.5 21.5,141.9 21.5,290.5 C21.5,439 141.9,559.5 290.5,559.5 C439.1,559.5 559.5,439.1 559.5,290.5 C559.4,141.9 439,21.5 290.5,21.5 Z M290.5,379.5 C241.3,379.5 201.4,339.6 201.4,290.4 C201.4,241.2 241.3,201.3 290.5,201.3 C339.7,201.3 379.6,241.2 379.6,290.4 C379.6,339.6 339.7,379.5 290.5,379.5 Z" id="Shape" fill="#8C381F"></path>
                <g transform="translate(21.500000, 181.900000)" fill="#752D15" id="Path">
                    <path d="M269,-2.84217094e-14 C219.8,-2.84217094e-14 179.9,39.9 179.9,89.1 C179.9,92.4 180.1,95.6 180.4,98.8 C185.2,54.2 223,19.4 269,19.4 C314.9,19.4 352.7,54.2 357.6,98.8 C357.9,95.6 358.1,92.4 358.1,89.1 C358.1,39.9 318.2,-2.84217094e-14 269,-2.84217094e-14 Z"></path>
                    <path d="M269,358.1 C123.7,358.1 5.3,242.9 0.2,98.8 C0.1,102 -1.42108547e-14,105.2 -1.42108547e-14,108.5 C-1.42108547e-14,257 120.4,377.5 269,377.5 C417.6,377.5 538,257.1 538,108.5 C538,105.3 537.9,102 537.8,98.8 C532.6,242.9 414.3,358.1 269,358.1 Z"></path>
                </g>
                <path d="M84.3,255.8 C93.4,246.7 102.9,238.2 112.9,230 C132.7,213.9 154,199.7 175.4,185.9 C219.4,157.4 264.8,129.9 302,92.5 C311.3,83.2 321.2,67.7 313.9,54.4 C305.5,39.1 287.7,42.5 273.7,45.7 C245.4,52.1 218.5,63.4 193.1,77.2 C170.6,89.5 149.4,104 129.1,119.7 C108.5,135.7 88.4,152.5 69.8,170.9 C65.9,174.8 71.1,182 75.8,178.7 C99.3,161.8 122,143.7 146.1,127.6 C170.1,111.5 195,96.7 221.5,85.1 C234.3,79.5 247.6,74.8 261,70.9 C267.6,69 274.3,67.4 281.1,65.9 C282.6,65.6 293.3,62.7 294.8,63.9 C294.6,63.8 294.9,64.7 295,64.9 C294.8,65.5 294.5,67.2 294.5,67.3 C293.8,69.7 292,72 290.5,74.1 C287,79 281.4,83.2 277,87.3 C267.7,95.8 258,103.8 247.9,111.3 C206.1,142.7 159.9,167.5 117.5,198 C96.3,213.3 75.9,230 58.4,249.4 C49.2,259.7 39.2,270.7 34.1,283.7 C28.2,298.7 33.1,315.2 48.7,321.4 C59.9,325.8 72.7,323.1 84.1,320.8 C96.6,318.3 108.9,314.6 120.9,310.1 C133.2,305.4 145.1,299.8 156.6,293.3 C162.2,290.1 167.6,286.7 172.8,283 C179.2,278.5 183.9,273.8 188.1,267.2 C191.6,261.6 185.8,253.5 179.3,255.7 C172.3,258.2 166.6,261.1 160.5,265.2 C154.2,269.4 147.7,273.3 141.1,276.9 C128.7,283.7 115.6,289.2 102.1,293.6 C89.7,297.6 75.8,301.9 62.7,301.9 C59.5,301.9 55.4,301.4 54.4,298.6 C52.8,294.1 57.5,287.5 60,283.7 C66.6,273.6 75.6,264.5 84.3,255.8 Z" id="Path" fill="#FFFFFF"></path>
                <path d="M483.6,126.4 C462.7,105 428.2,114.6 404.6,125.1 C390.7,131.3 377.4,138.8 364.4,146.6 C357.8,150.6 351.2,154.6 344.8,159 C338.8,163.1 332.1,166.8 328.1,173 C325.7,176.7 329.6,180.1 333.1,179.6 C339.3,178.7 344.6,175 350.1,172.1 C355.8,169.1 361.5,166.1 367.2,163.2 C379.2,157.1 391.4,151.4 403.8,146 C414.7,141.2 426.2,137.1 437.9,135 C447,133.3 459.1,133.4 466.7,139.5 C472.9,144.4 476.2,151.9 473.9,158.9 C472.7,162.8 467.7,166.1 464.7,168.6 C459.8,172.7 454.8,176.7 449.6,180.6 C439.8,188 429.7,194.8 419.4,201.4 C414.2,204.7 408.9,207.7 403.7,210.8 C397.7,214.4 391.5,217.4 386.5,222.5 C379.5,229.6 386.7,239.7 395.6,238.1 C402.6,236.9 408.6,233.1 414.7,229.8 C421.1,226.2 427.3,222.3 433.5,218.3 C446.1,210.1 458.1,201.2 469.8,191.9 C480,183.8 491.7,175.3 494.9,162 C498.2,148.8 492.5,135.5 483.6,126.4 Z" id="Path" fill="#FFFFFF"></path>
                <path d="M271.2,394.1 C259.3,395.1 249.3,404.7 239.4,410.8 C228.7,417.4 217.8,423.4 206.6,429 C195.7,434.5 184.6,439.6 173.1,443.7 C162.3,447.5 150.5,450.4 139.1,448.3 C136.6,447.8 133.9,447.1 131.5,446.1 C131.3,445.9 131.1,445.8 130.9,445.7 C130.9,444.9 131,444 131.1,443.5 C131.3,438.6 132.7,433.8 134.2,429.2 C137.3,419.6 143.4,411.1 149.8,403.3 C157,394.6 165.2,386.9 173.6,379.4 C178.2,375.3 183,371.3 187.8,367.4 C192.5,363.6 197.1,360.2 199.6,354.6 C200.7,352.3 199.4,349.2 196.5,349.3 C189.8,349.5 184.5,352.7 179.1,356.3 C173.4,360.1 167.9,364 162.4,368.1 C152,375.9 142,384.2 133.5,394.1 C125.1,403.9 118.3,414.8 114.2,427 C110,439.3 108.2,456.1 121.6,463.1 C147.8,476.9 180.4,462.6 204.8,451.7 C217.9,445.8 230.7,439.2 243.2,432 C249.2,428.6 255,425 260.8,421.3 C267.4,417.1 274.7,413.3 278,405.9 C280.1,401 277.7,393.5 271.2,394.1 Z" id="Path" fill="#FFFFFF"></path>
                <path d="M537.3,296.7 C535.8,280.3 522.2,271.5 506.4,274.3 C492.6,276.8 478.9,281.6 465.8,286.6 C452.4,291.8 439.5,298.1 427,305.3 C414.9,312.3 402.7,319.9 393.5,330.7 C391.8,332.7 393.4,336.8 396.3,335.6 C409.8,330.2 422.2,322.4 435.4,316.3 C448.8,310.1 462.8,305.1 477,300.9 C483.8,298.9 490.8,297.2 497.8,295.7 C501.4,294.9 511.7,291.4 514.9,294.2 C522.1,300.4 505.3,317.2 501.4,321.8 C465.5,364 417.9,393.8 370.8,421.9 C348.5,435.2 325.1,447.5 303.9,462.5 C293,470.3 279.8,482.4 279.2,496.8 C278.5,513.2 296.4,520.2 309.8,523.2 C336.5,529.2 364.4,518.5 387,504.8 C398.8,497.7 410,489.6 421.7,482.3 C427.5,478.7 433.4,475.3 439.6,472.3 C442.6,470.8 445.7,469.4 448.8,468 C452,466.6 454.4,464 457.1,461.8 C462.8,457 457.6,449.4 451.7,448.8 C437.1,447.2 423.1,456.8 411.2,464.2 C399,471.8 387.4,480.3 375.2,487.8 C354.2,500.6 325.1,511.4 302.2,497.3 C302.4,496.8 302.6,496.2 302.6,496.1 C303.8,493.7 305.3,491.5 307,489.5 C311.3,484.6 316.6,480.9 322.1,477.4 C333.7,469.9 345.8,462.9 357.7,455.8 C381.8,441.5 405.9,427.3 429.3,411.8 C451.3,397.2 472.4,381.2 491.7,363.3 C501.4,354.3 510.5,344.6 518.9,334.5 C527.7,323.9 538.6,311.6 537.3,296.7 Z" id="Path" fill="#FFFFFF"></path>
            </g>
        </g>
    </g>
</svg>