<?xml version="1.0" encoding="UTF-8"?>
<svg width="582px" height="618px" viewBox="0 0 582 618" version="1.1" xmlns="http://www.w3.org/2000/svg" xmlns:xlink="http://www.w3.org/1999/xlink">
    <title>Group</title>
    <g id="Page-1" stroke="none" stroke-width="1" fill="none" fill-rule="evenodd">
        <g id="Group" transform="translate(0.700000, 0.500000)" fill-rule="nonzero">
            <path d="M578.7,290.4 C560.8,147.1 438.6,36.3 290.5,36.3 C142.4,36.3 20.2,147.2 2.3,290.4 L0,290.4 L0,326.7 C0,487.1 130,617.1 290.4,617.1 C450.8,617.1 580.8,487.1 580.8,326.7 L580.8,290.4 L578.7,290.4 Z M290.5,397.6 C251.3,397.6 219.5,365.8 219.5,326.6 C219.5,287.4 251.3,255.6 290.5,255.6 C329.7,255.6 361.5,287.4 361.5,326.6 C361.5,365.9 329.7,397.6 290.5,397.6 Z" id="Shape" fill="#F49547"></path>
            <path d="M290.5,0 C130.1,0 0.1,130 0.1,290.4 C0.1,450.8 130.1,580.8 290.5,580.8 C450.9,580.8 580.9,450.8 580.9,290.4 C580.9,130 450.9,0 290.5,0 Z M290.5,361.3 C251.3,361.3 219.5,329.5 219.5,290.3 C219.5,251.1 251.3,219.3 290.5,219.3 C329.7,219.3 361.5,251.1 361.5,290.3 C361.5,329.6 329.7,361.3 290.5,361.3 Z" id="Shape" fill="#F8AD5C"></path>
            <path d="M290.5,21.4 C142,21.4 21.5,141.8 21.5,290.4 C21.5,438.9 141.9,559.4 290.5,559.4 C439.1,559.4 559.5,439 559.5,290.4 C559.5,141.8 439.1,21.4 290.5,21.4 Z M290.5,379.5 C241.3,379.5 201.4,339.6 201.4,290.4 C201.4,241.2 241.3,201.3 290.5,201.3 C339.7,201.3 379.6,241.2 379.6,290.4 C379.6,339.6 339.7,379.5 290.5,379.5 Z" id="Shape" fill="#6DCFF6"></path>
            <g transform="translate(21.500000, 181.900000)" fill="#32AAD2" id="Path">
                <path d="M269,2.27373675e-13 C219.8,2.27373675e-13 179.9,39.9 179.9,89.1 C179.9,92.4 180.1,95.6 180.4,98.8 C185.2,54.2 223,19.4 269,19.4 C314.9,19.4 352.7,54.2 357.6,98.8 C357.9,95.6 358.1,92.4 358.1,89.1 C358.1,39.9 318.2,2.27373675e-13 269,2.27373675e-13 Z"></path>
                <path d="M269,358 C123.7,358 5.3,242.8 0.2,98.7 C0.1,101.9 0,105.1 0,108.4 C0,256.9 120.4,377.4 269,377.4 C417.6,377.4 538,257 538,108.4 C538,105.2 537.9,101.9 537.8,98.7 C532.7,242.8 414.3,358 269,358 Z"></path>
            </g>
            <path d="M216.2,94.2 C212.8,90.8 208,88.8 203.1,88.8 C198.2,88.8 193.5,90.8 190,94.2 C186.6,97.6 184.6,102.4 184.6,107.3 C184.6,112.2 186.6,116.9 190,120.4 C193.4,123.8 198.2,125.8 203.1,125.8 C208,125.8 212.7,123.8 216.2,120.4 C219.6,117 221.6,112.2 221.6,107.3 C221.6,102.4 219.6,97.6 216.2,94.2 Z" id="Path" fill="#F04F4A"></path>
            <path d="M202,180.5 C199,177.5 195,175.9 190.8,175.9 C186.6,175.9 182.6,177.6 179.6,180.5 C176.6,183.5 175,187.5 175,191.7 C175,195.9 176.7,199.9 179.6,202.9 C182.6,205.9 186.6,207.5 190.8,207.5 C195,207.5 199,205.8 202,202.9 C205,200 206.6,195.9 206.6,191.7 C206.6,187.5 205,183.5 202,180.5 Z" id="Path" fill="#F04F4A"></path>
            <path d="M90.8,196.6 C88.2,194 84.7,192.6 81.1,192.6 C77.5,192.6 73.9,194.1 71.4,196.6 C68.9,199.1 67.4,202.7 67.4,206.3 C67.4,209.9 68.9,213.5 71.4,216 C74,218.6 77.5,220 81.1,220 C84.7,220 88.3,218.5 90.8,216 C93.4,213.4 94.8,209.9 94.8,206.3 C94.9,202.7 93.4,199.2 90.8,196.6 Z" id="Path" fill="#F04F4A"></path>
            <path d="M156.4,276.7 C155.7,274.1 154.4,271.9 152.5,270 C151.4,269.1 150.1,268 149.2,267.4 C144.4,264.6 138.2,264.6 133.3,267.4 C129.8,269.5 127.2,272.9 126.1,276.8 C124.6,282.2 126.2,288.1 130.1,292.1 C133,295 137.1,296.7 141.2,296.7 C146.7,296.7 152,293.7 154.8,288.9 C156.2,286.6 157,283.6 156.9,280.9 C156.9,279.5 156.7,278.1 156.4,276.7 Z" id="Path" fill="#F04F4A"></path>
            <path d="M187.8,355.9 C167.8,355.9 167.8,386.9 187.8,386.9 C207.8,386.9 207.7,355.9 187.8,355.9 Z" id="Path" fill="#F04F4A"></path>
            <path d="M179.4,448.9 C176.7,446.2 173.1,444.7 169.4,444.7 C165.7,444.7 162,446.2 159.4,448.9 C156.7,451.6 155.2,455.2 155.2,458.9 C155.2,462.7 156.7,466.3 159.4,468.9 C162.1,471.6 165.7,473.1 169.4,473.1 C173.1,473.1 176.8,471.6 179.4,468.9 C182.1,466.2 183.6,462.6 183.6,458.9 C183.5,455.1 182,451.5 179.4,448.9 Z" id="Path" fill="#F04F4A"></path>
            <path d="M315.3,477.1 C314.8,475 313.5,472.9 312,471.3 C308.8,468.1 303.9,466.8 299.5,468 C295.2,469.2 291.7,472.7 290.5,477 C289.3,481.4 290.6,486.3 293.8,489.5 C297,492.7 301.9,494 306.3,492.8 C310.5,491.6 314.2,488.1 315.3,483.8 C315.9,481.4 315.9,479.5 315.3,477.1 Z" id="Path" fill="#F04F4A"></path>
            <path d="M409.7,372.8 C407.4,370.5 403.7,368.7 400.4,368.9 C397.8,369.1 395.3,369.4 393.2,371 C391.3,372.1 389.7,373.7 388.6,375.6 C387.4,377.6 386.8,379.8 386.8,382.1 C386.8,384.4 387.4,386.6 388.6,388.6 C389.7,390.5 391.3,392.1 393.2,393.2 C395.4,394.8 397.9,395.1 400.4,395.3 C403.8,395.5 407.4,393.8 409.7,391.4 C412.2,388.9 413.6,385.5 413.6,382.1 C413.6,378.6 412.2,375.2 409.7,372.8 Z" id="Path" fill="#F04F4A"></path>
            <path d="M504.1,316.5 C495.9,316.5 489.1,323.3 489.1,331.5 C489.1,339.7 495.9,346.5 504.1,346.5 C512.3,346.5 519.1,339.7 519.1,331.5 C519.1,323.3 512.2,316.5 504.1,316.5 Z" id="Path" fill="#F04F4A"></path>
            <path d="M467.2,220.9 C465.5,219.2 463.5,218 461.1,217.4 C459.9,217.2 458.7,217.1 457.4,216.9 C454.9,216.9 452.6,217.5 450.4,218.8 C449,219.5 447.8,220.8 446.5,221.8 C445.8,222.7 445,223.7 444.3,224.6 C443,226.8 442.4,229.1 442.4,231.7 C442.4,235.4 443.9,239 446.5,241.6 C449.1,244.2 452.7,245.7 456.4,245.7 C457.6,245.5 458.9,245.4 460.1,245.2 C462.5,244.5 464.5,243.3 466.3,241.6 C467.3,240.3 468.6,239.1 469.3,237.7 C470.5,235.5 471.2,233.2 471.2,230.7 C471.2,227 469.8,223.5 467.2,220.9 Z" id="Path" fill="#F04F4A"></path>
            <path d="M438.3,109.7 C438.2,109.6 438.1,109.4 438.1,109.3 C434.9,103.8 428.1,101 422,102.7 C415.9,104.4 411.5,110.1 411.5,116.5 C411.5,122.9 415.9,128.6 422,130.3 C428.2,132 434.9,129.3 438.1,123.7 C438.2,123.6 438.3,123.4 438.3,123.3 C440.8,119.1 440.8,113.8 438.3,109.7 Z" id="Path" fill="#F04F4A"></path>
            <path d="M378.1,151.9 C375.7,149.5 372.4,148.1 369,148.1 C365.6,148.1 362.3,149.5 359.9,151.9 C357.5,154.3 356.1,157.6 356.1,161 C356.1,164.4 357.5,167.7 359.9,170.1 C362.3,172.5 365.6,173.9 369,173.9 C372.4,173.9 375.7,172.5 378.1,170.1 C380.5,167.7 381.9,164.4 381.9,161 C381.9,157.6 380.5,154.3 378.1,151.9 Z" id="Path" fill="#F04F4A"></path>
            <path d="M305,60.6 C302.4,58 298.9,56.5 295.2,56.5 C291.5,56.5 288,58 285.4,60.6 C282.8,63.2 281.3,66.7 281.3,70.4 C281.3,74.1 282.8,77.6 285.4,80.2 C288,82.8 291.5,84.3 295.2,84.3 C298.9,84.3 302.4,82.8 305,80.2 C307.6,77.6 309.1,74.1 309.1,70.4 C309.1,66.7 307.6,63.2 305,60.6 Z" id="Path" fill="#F04F4A"></path>
            <path d="M299.7,113.5 C296.5,110.3 292.1,108.5 287.6,108.5 C283.1,108.5 278.7,110.3 275.5,113.5 C272.3,116.7 270.5,121.1 270.5,125.6 C270.5,130.1 272.3,134.5 275.5,137.7 C278.7,140.9 283.1,142.7 287.6,142.7 C292.1,142.7 296.5,140.9 299.7,137.7 C302.9,134.5 304.7,130.1 304.7,125.6 C304.7,121.1 302.9,116.7 299.7,113.5 Z" id="Path" fill="#C8529E"></path>
            <path d="M144,128.8 C142.1,125.4 138.7,122.9 135,121.9 C129.8,120.5 124.1,122 120.3,125.8 C117.5,128.6 115.9,132.5 115.9,136.5 C115.9,141.8 118.8,147 123.4,149.6 C126.1,151.1 128.3,151.7 131.5,151.8 C135.3,152 139.4,150.1 142,147.4 C144.7,144.7 146.5,140.7 146.4,136.9 C146.1,133.7 145.5,131.5 144,128.8 Z" id="Path" fill="#C8529E"></path>
            <path d="M102.3,335.9 C99.4,333 95.5,331.4 91.4,331.4 C87.3,331.4 83.4,333 80.5,335.9 C77.6,338.8 76,342.7 76,346.8 C76,350.9 77.6,354.8 80.5,357.7 C83.4,360.6 87.3,362.2 91.4,362.2 C95.5,362.2 99.4,360.6 102.3,357.7 C105.2,354.8 106.8,350.9 106.8,346.8 C106.8,342.7 105.2,338.8 102.3,335.9 Z" id="Path" fill="#C8529E"></path>
            <path d="M257.7,433.5 C255,430.8 251.4,429.3 247.7,429.3 C243.9,429.3 240.3,430.8 237.7,433.5 C235,436.2 233.5,439.8 233.5,443.5 C233.5,447.3 235,450.9 237.7,453.5 C240.4,456.2 244,457.7 247.7,457.7 C251.5,457.7 255.1,456.2 257.7,453.5 C260.4,450.8 261.9,447.2 261.9,443.5 C261.9,439.8 260.3,436.1 257.7,433.5 Z" id="Path" fill="#C8529E"></path>
            <path d="M395.5,444.6 C392.5,441.6 388.5,439.9 384.3,439.9 C380.1,439.9 376,441.6 373.1,444.6 C370.1,447.6 368.4,451.6 368.4,455.8 C368.4,460 370.1,464.1 373.1,467 C376.1,470 380.1,471.7 384.3,471.7 C388.5,471.7 392.6,470 395.5,467 C398.5,464 400.2,460 400.2,455.8 C400.2,451.6 398.5,447.6 395.5,444.6 Z" id="Path" fill="#C8529E"></path>
            <path d="M442.4,304.7 C439.4,301.7 435.2,300 431,300 C426.7,300 422.6,301.7 419.6,304.7 C416.6,307.7 414.9,311.9 414.9,316.1 C414.9,320.3 416.6,324.5 419.6,327.5 C422.6,330.5 426.8,332.2 431,332.2 C435.3,332.2 439.4,330.5 442.4,327.5 C445.4,324.5 447.1,320.3 447.1,316.1 C447.1,311.9 445.4,307.7 442.4,304.7 Z" id="Path" fill="#C8529E"></path>
            <path d="M473.4,151.2 C464.7,151.2 457.4,158.5 457.4,167.2 C457.4,175.9 464.7,183.2 473.4,183.2 C482.1,183.2 489.4,175.9 489.4,167.2 C489.3,158.4 482.1,151.2 473.4,151.2 Z" id="Path" fill="#C8529E"></path>
            <path d="M362.1,87.6 C359.4,84.9 355.6,83.3 351.7,83.3 C347.8,83.3 344,84.9 341.3,87.6 C338.6,90.3 337,94.1 337,98 C337,101.9 338.6,105.7 341.3,108.4 C344,111.1 347.8,112.7 351.7,112.7 C355.6,112.7 359.4,111.1 362.1,108.4 C364.8,105.7 366.4,101.9 366.4,98 C366.4,94.2 364.8,90.4 362.1,87.6 Z" id="Path" fill="#FFFFFF"></path>
            <path d="M149.6,202.2 C147.1,199.7 143.7,198.3 140.1,198.3 C136.6,198.3 133.1,199.7 130.6,202.2 C128.1,204.7 126.7,208.1 126.7,211.7 C126.7,215.2 128.1,218.7 130.6,221.2 C133.1,223.7 136.5,225.1 140.1,225.1 C143.6,225.1 147.1,223.7 149.6,221.2 C152.1,218.7 153.5,215.3 153.5,211.7 C153.5,208.1 152.1,204.7 149.6,202.2 Z" id="Path" fill="#FFFFFF"></path>
            <path d="M90.6,290.4 C87.9,287.7 84.1,286.1 80.2,286.1 C76.3,286.1 72.6,287.7 69.8,290.4 C67.1,293.1 65.5,296.9 65.5,300.8 C65.5,304.7 67.1,308.4 69.8,311.2 C72.5,313.9 76.3,315.5 80.2,315.5 C84.1,315.5 87.8,313.9 90.6,311.2 C93.3,308.5 94.9,304.7 94.9,300.8 C94.9,296.9 93.4,293.1 90.6,290.4 Z" id="Path" fill="#FFFFFF"></path>
            <path d="M121.7,369 C106.8,369 106.8,392.1 121.7,392.1 C136.6,392.1 136.6,369 121.7,369 Z" id="Path" fill="#FFFFFF"></path>
            <path d="M312.1,414.2 C296,414.2 296,439.1 312.1,439.1 C328.2,439.1 328.2,414.2 312.1,414.2 Z" id="Path" fill="#FFFFFF"></path>
            <path d="M483.8,400.3 C483.8,400.1 483.7,399.9 483.7,399.8 C482.3,394.5 477.3,390.8 471.9,390.8 C466.5,390.8 461.5,394.5 460.1,399.8 C460.1,400 460,400.2 460,400.3 C459.1,403.5 459.6,407 461.2,409.8 C463.4,413.6 467.5,415.9 471.9,415.9 C475.2,415.9 478.3,414.6 480.7,412.3 C483.7,409.2 484.9,404.6 483.8,400.3 Z" id="Path" fill="#FFFFFF"></path>
            <path d="M513.3,247.8 C504.5,247.8 497.2,255.1 497.2,263.9 C497.2,272.7 504.5,280 513.3,280 C522.1,280 529.4,272.7 529.4,263.9 C529.4,255.1 522.1,247.8 513.3,247.8 Z" id="Path" fill="#FFFFFF"></path>
        </g>
    </g>
</svg>