<?xml version="1.0" encoding="UTF-8"?>
<svg width="2111px" height="2126px" viewBox="0 0 2111 2126" version="1.1" xmlns="http://www.w3.org/2000/svg" xmlns:xlink="http://www.w3.org/1999/xlink">
    <title>Group</title>
    <g id="Page-1" stroke="none" stroke-width="1" fill="none" fill-rule="evenodd">
        <g id="Group" transform="translate(0.700000, 0.500000)" fill-rule="nonzero">
            <g id="1" transform="translate(1528.800000, 1508.200000)">
                <path d="M578.6,290.4 C560.8,147.2 438.6,36.3 290.5,36.3 C142.4,36.3 20.2,147.2 2.3,290.4 L0,290.4 L0,326.7 C0,487.1 130,617.1 290.4,617.1 C450.8,617.1 580.8,487.1 580.8,326.7 L580.8,290.4 L578.6,290.4 Z M290.5,397.7 C251.3,397.7 219.5,365.9 219.5,326.7 C219.5,287.5 251.3,255.7 290.5,255.7 C329.7,255.7 361.5,287.5 361.5,326.7 C361.4,365.9 329.7,397.7 290.5,397.7 Z" id="Shape" fill="#F49547"></path>
                <path d="M290.5,0 C130.1,0 0.1,130 0.1,290.4 C0.1,450.8 130.1,580.8 290.5,580.8 C450.9,580.8 580.9,450.8 580.9,290.4 C580.9,130 450.9,0 290.5,0 Z M290.5,361.4 C251.3,361.4 219.5,329.6 219.5,290.4 C219.5,251.2 251.3,219.4 290.5,219.4 C329.7,219.4 361.5,251.2 361.5,290.4 C361.4,329.6 329.7,361.4 290.5,361.4 Z" id="Shape" fill="#F8AD5C"></path>
                <path d="M290.5,21.5 C142,21.5 21.5,141.9 21.5,290.5 C21.5,439 141.9,559.5 290.5,559.5 C439.1,559.5 559.5,439.1 559.5,290.5 C559.4,141.9 439,21.5 290.5,21.5 Z M290.5,379.5 C241.3,379.5 201.4,339.6 201.4,290.4 C201.4,241.2 241.3,201.3 290.5,201.3 C339.7,201.3 379.6,241.2 379.6,290.4 C379.6,339.6 339.7,379.5 290.5,379.5 Z" id="Shape" fill="#8C381F"></path>
                <g id="Path" transform="translate(21.500000, 181.900000)" fill="#752D15">
                    <path d="M269,3.04040088e-23 C219.8,3.04040088e-23 179.9,39.9 179.9,89.1 C179.9,92.4 180.1,95.6 180.4,98.8 C185.2,54.2 223,19.4 269,19.4 C314.9,19.4 352.7,54.2 357.6,98.8 C357.9,95.6 358.1,92.4 358.1,89.1 C358.1,39.9 318.2,3.04040088e-23 269,3.04040088e-23 Z"></path>
                    <path d="M269,358.1 C123.7,358.1 5.3,242.9 0.2,98.8 C0.1,102 -1.42108547e-14,105.2 -1.42108547e-14,108.5 C-1.42108547e-14,257 120.4,377.5 269,377.5 C417.6,377.5 538,257.1 538,108.5 C538,105.3 537.9,102 537.8,98.8 C532.6,242.9 414.3,358.1 269,358.1 Z"></path>
                </g>
                <path d="M84.3,255.8 C93.4,246.7 102.9,238.2 112.9,230 C132.7,213.9 154,199.7 175.4,185.9 C219.4,157.4 264.8,129.9 302,92.5 C311.3,83.2 321.2,67.7 313.9,54.4 C305.5,39.1 287.7,42.5 273.7,45.7 C245.4,52.1 218.5,63.4 193.1,77.2 C170.6,89.5 149.4,104 129.1,119.7 C108.5,135.7 88.4,152.5 69.8,170.9 C65.9,174.8 71.1,182 75.8,178.7 C99.3,161.8 122,143.7 146.1,127.6 C170.1,111.5 195,96.7 221.5,85.1 C234.3,79.5 247.6,74.8 261,70.9 C267.6,69 274.3,67.4 281.1,65.9 C282.6,65.6 293.3,62.7 294.8,63.9 C294.6,63.8 294.9,64.7 295,64.9 C294.8,65.5 294.5,67.2 294.5,67.3 C293.8,69.7 292,72 290.5,74.1 C287,79 281.4,83.2 277,87.3 C267.7,95.8 258,103.8 247.9,111.3 C206.1,142.7 159.9,167.5 117.5,198 C96.3,213.3 75.9,230 58.4,249.4 C49.2,259.7 39.2,270.7 34.1,283.7 C28.2,298.7 33.1,315.2 48.7,321.4 C59.9,325.8 72.7,323.1 84.1,320.8 C96.6,318.3 108.9,314.6 120.9,310.1 C133.2,305.4 145.1,299.8 156.6,293.3 C162.2,290.1 167.6,286.7 172.8,283 C179.2,278.5 183.9,273.8 188.1,267.2 C191.6,261.6 185.8,253.5 179.3,255.7 C172.3,258.2 166.6,261.1 160.5,265.2 C154.2,269.4 147.7,273.3 141.1,276.9 C128.7,283.7 115.6,289.2 102.1,293.6 C89.7,297.6 75.8,301.9 62.7,301.9 C59.5,301.9 55.4,301.4 54.4,298.6 C52.8,294.1 57.5,287.5 60,283.7 C66.6,273.6 75.6,264.5 84.3,255.8 Z" id="Path" fill="#FFFFFF"></path>
                <path d="M483.6,126.4 C462.7,105 428.2,114.6 404.6,125.1 C390.7,131.3 377.4,138.8 364.4,146.6 C357.8,150.6 351.2,154.6 344.8,159 C338.8,163.1 332.1,166.8 328.1,173 C325.7,176.7 329.6,180.1 333.1,179.6 C339.3,178.7 344.6,175 350.1,172.1 C355.8,169.1 361.5,166.1 367.2,163.2 C379.2,157.1 391.4,151.4 403.8,146 C414.7,141.2 426.2,137.1 437.9,135 C447,133.3 459.1,133.4 466.7,139.5 C472.9,144.4 476.2,151.9 473.9,158.9 C472.7,162.8 467.7,166.1 464.7,168.6 C459.8,172.7 454.8,176.7 449.6,180.6 C439.8,188 429.7,194.8 419.4,201.4 C414.2,204.7 408.9,207.7 403.7,210.8 C397.7,214.4 391.5,217.4 386.5,222.5 C379.5,229.6 386.7,239.7 395.6,238.1 C402.6,236.9 408.6,233.1 414.7,229.8 C421.1,226.2 427.3,222.3 433.5,218.3 C446.1,210.1 458.1,201.2 469.8,191.9 C480,183.8 491.7,175.3 494.9,162 C498.2,148.8 492.5,135.5 483.6,126.4 Z" id="Path" fill="#FFFFFF"></path>
                <path d="M271.2,394.1 C259.3,395.1 249.3,404.7 239.4,410.8 C228.7,417.4 217.8,423.4 206.6,429 C195.7,434.5 184.6,439.6 173.1,443.7 C162.3,447.5 150.5,450.4 139.1,448.3 C136.6,447.8 133.9,447.1 131.5,446.1 C131.3,445.9 131.1,445.8 130.9,445.7 C130.9,444.9 131,444 131.1,443.5 C131.3,438.6 132.7,433.8 134.2,429.2 C137.3,419.6 143.4,411.1 149.8,403.3 C157,394.6 165.2,386.9 173.6,379.4 C178.2,375.3 183,371.3 187.8,367.4 C192.5,363.6 197.1,360.2 199.6,354.6 C200.7,352.3 199.4,349.2 196.5,349.3 C189.8,349.5 184.5,352.7 179.1,356.3 C173.4,360.1 167.9,364 162.4,368.1 C152,375.9 142,384.2 133.5,394.1 C125.1,403.9 118.3,414.8 114.2,427 C110,439.3 108.2,456.1 121.6,463.1 C147.8,476.9 180.4,462.6 204.8,451.7 C217.9,445.8 230.7,439.2 243.2,432 C249.2,428.6 255,425 260.8,421.3 C267.4,417.1 274.7,413.3 278,405.9 C280.1,401 277.7,393.5 271.2,394.1 Z" id="Path" fill="#FFFFFF"></path>
                <path d="M537.3,296.7 C535.8,280.3 522.2,271.5 506.4,274.3 C492.6,276.8 478.9,281.6 465.8,286.6 C452.4,291.8 439.5,298.1 427,305.3 C414.9,312.3 402.7,319.9 393.5,330.7 C391.8,332.7 393.4,336.8 396.3,335.6 C409.8,330.2 422.2,322.4 435.4,316.3 C448.8,310.1 462.8,305.1 477,300.9 C483.8,298.9 490.8,297.2 497.8,295.7 C501.4,294.9 511.7,291.4 514.9,294.2 C522.1,300.4 505.3,317.2 501.4,321.8 C465.5,364 417.9,393.8 370.8,421.9 C348.5,435.2 325.1,447.5 303.9,462.5 C293,470.3 279.8,482.4 279.2,496.8 C278.5,513.2 296.4,520.2 309.8,523.2 C336.5,529.2 364.4,518.5 387,504.8 C398.8,497.7 410,489.6 421.7,482.3 C427.5,478.7 433.4,475.3 439.6,472.3 C442.6,470.8 445.7,469.4 448.8,468 C452,466.6 454.4,464 457.1,461.8 C462.8,457 457.6,449.4 451.7,448.8 C437.1,447.2 423.1,456.8 411.2,464.2 C399,471.8 387.4,480.3 375.2,487.8 C354.2,500.6 325.1,511.4 302.2,497.3 C302.4,496.8 302.6,496.2 302.6,496.1 C303.8,493.7 305.3,491.5 307,489.5 C311.3,484.6 316.6,480.9 322.1,477.4 C333.7,469.9 345.8,462.9 357.7,455.8 C381.8,441.5 405.9,427.3 429.3,411.8 C451.3,397.2 472.4,381.2 491.7,363.3 C501.4,354.3 510.5,344.6 518.9,334.5 C527.7,323.9 538.6,311.6 537.3,296.7 Z" id="Path" fill="#FFFFFF"></path>
            </g>
            <g id="2" transform="translate(1036.100000, 1005.200000)">
                <path d="M578.6,290.4 C560.7,147.2 438.5,36.3 290.4,36.3 C142.3,36.3 20.1,147.2 2.3,290.4 L0,290.4 L0,326.7 C0,487.1 130,617.1 290.4,617.1 C450.8,617.1 580.8,487.1 580.8,326.7 L580.8,290.4 L578.6,290.4 Z M290.4,397.7 C251.2,397.7 219.4,365.9 219.4,326.7 C219.4,287.5 251.2,255.7 290.4,255.7 C329.6,255.7 361.4,287.5 361.4,326.7 C361.4,365.9 329.6,397.7 290.4,397.7 Z" id="Shape" fill="#F49547"></path>
                <path d="M290.4,0 C130,0 0,130 0,290.4 C0,450.8 130,580.8 290.4,580.8 C450.8,580.8 580.8,450.8 580.8,290.4 C580.8,130 450.8,0 290.4,0 Z M290.4,361.4 C251.2,361.4 219.4,329.6 219.4,290.4 C219.4,251.2 251.2,219.4 290.4,219.4 C329.6,219.4 361.4,251.2 361.4,290.4 C361.4,329.6 329.6,361.4 290.4,361.4 Z" id="Shape" fill="#F8AD5C"></path>
                <path d="M290.4,21.5 C141.9,21.5 21.4,141.9 21.4,290.5 C21.4,439 141.8,559.5 290.4,559.5 C439,559.5 559.4,439.1 559.4,290.5 C559.4,141.9 439,21.5 290.4,21.5 Z M290.4,379.5 C241.2,379.5 201.3,339.6 201.3,290.4 C201.3,241.2 241.2,201.3 290.4,201.3 C339.6,201.3 379.5,241.2 379.5,290.4 C379.5,339.6 339.6,379.5 290.4,379.5 Z" id="Shape" fill="#F04F4A"></path>
                <g id="Path" transform="translate(21.400000, 181.900000)" fill="#CC2132">
                    <path d="M269,3.04040088e-23 C219.8,3.04040088e-23 179.9,39.9 179.9,89.1 C179.9,92.4 180.1,95.6 180.4,98.8 C185.2,54.2 223,19.4 269,19.4 C314.9,19.4 352.7,54.2 357.6,98.8 C357.9,95.6 358.1,92.4 358.1,89.1 C358.1,39.9 318.2,3.04040088e-23 269,3.04040088e-23 Z"></path>
                    <path d="M269,358.1 C123.7,358.1 5.3,242.9 0.2,98.8 C0.1,102 0,105.2 0,108.5 C0,257 120.4,377.5 269,377.5 C417.6,377.5 538,257.1 538,108.5 C538,105.3 537.9,102 537.8,98.8 C532.7,242.9 414.3,358.1 269,358.1 Z"></path>
                </g>
                <path d="M202.9,78.6 C200.8,74.1 194.5,75.9 193.2,79.9 C192,83.5 192.2,87.4 191.7,91.2 C191.2,95.8 189.9,100.2 189,104.8 C188.4,107.5 188.8,110.8 191.1,112.8 C193.6,114.9 195.8,116.1 199.1,114.9 C202.9,113.6 204.6,110.9 205.1,107 C206.3,98.4 206.7,86.6 202.9,78.6 Z" id="Path" fill="#FFFFFF"></path>
                <path d="M158.4,210 C156.3,203.6 150.9,200 145.8,196 C141.1,192.2 136.5,187.7 130.8,185.5 C126.6,183.8 124.1,189.1 125.6,192.3 C127.9,197.3 132.6,201.5 136.2,205.6 C140.4,210.4 144.3,215.9 150.7,217.7 C155.2,218.8 159.9,214.6 158.4,210 Z" id="Path" fill="#FFFFFF"></path>
                <path d="M137.9,314.7 C135.1,319.7 133,325 130.2,330 C127.1,335.6 123.1,340.5 124.1,347.2 C124.6,350.5 128.4,351.7 131.1,351.2 C137.4,350.1 141.1,343.1 143.6,337.9 C146.6,331.7 149.1,324.9 149.6,317.9 C150.1,311.5 140.9,309.4 137.9,314.7 Z" id="Path" fill="#FFFFFF"></path>
                <path d="M511.2,286.6 C508.4,289 506,291.7 503.2,294 C500.2,296.5 497.2,298.2 495.1,301.6 C493.1,304.8 495.7,309.3 499.5,309.2 C508.4,308.9 516.6,299.4 519.5,291.5 C521.4,286.4 514.6,283.6 511.2,286.6 Z" id="Path" fill="#FFFFFF"></path>
                <path d="M422.6,190.7 C422.5,190.2 422.4,189.6 422.4,189.1 C422.2,187.8 421.4,186.9 420.3,186.4 C418.1,182.6 416,178.5 413.1,175.3 C410.8,172.8 406.1,174.7 406.3,178.1 C406.5,182.2 407.9,186.2 409,190.2 C410.3,195.1 411.4,199.9 416.6,201.7 C419.3,202.7 421.5,201.2 422.6,199.1 C422.7,199.1 422.7,199.1 422.8,199.2 C424.2,196 423.8,193.4 422.6,190.7 Z" id="Path" fill="#FFFFFF"></path>
                <path d="M343.8,65.3 C338.8,74.7 337.1,85.1 342.7,94.6 C345,98.5 352.1,97.1 351.6,92.2 C350.9,84.5 350.1,76.5 352.5,69 C354.2,63.8 346.4,60.6 343.8,65.3 Z" id="Path" fill="#FFFFFF"></path>
                <path d="M151.6,430.5 C152,430.3 149.8,430.8 151,430.7 C149.5,430.8 148.3,431.2 146.9,431.6 C146.7,431.6 146.6,431.7 146.5,431.7 C146.2,431.7 145.9,431.7 145.6,431.7 C145.6,431.7 145.4,431.6 145,431.6 C144.4,431.5 143.8,431.2 143.3,431 C139.4,429.5 135.6,434.7 137.9,438 C140.1,441.3 143.9,443.3 147.9,443.5 C152.5,443.7 156.4,441.4 158.2,437.1 C160.1,432.7 156.2,428.2 151.6,430.5 Z" id="Path" fill="#FFFFFF"></path>
                <path d="M89.8,254.8 C85.3,249.1 77.6,244.3 70.4,242.7 C68.2,242.2 66.1,244.5 67.4,246.6 C71.5,253.2 78.8,258.7 86.1,261.2 C90.1,262.6 91.9,257.5 89.8,254.8 Z" id="Path" fill="#FFFFFF"></path>
                <path d="M506.6,200.2 C502.8,198.2 499.6,199.3 495.8,200.8 C491.9,202.3 488,203.8 484.1,205.3 C477.8,207.8 480.1,217.4 486.9,215.6 C490.5,214.7 494.1,213.8 497.6,212.8 C501.6,211.8 506.3,211 508.3,207 C509.6,204.7 509.2,201.5 506.6,200.2 Z" id="Path" fill="#FFFFFF"></path>
                <path d="M411.1,467.1 C410.3,463.7 409.1,460.1 407.5,457 C405.4,452.9 399.8,455.2 399.5,459.2 C399.3,462.3 399.7,465.6 400,468.7 C400.5,472.4 400.8,476.7 404.5,478.5 C406.2,479.4 408.6,479.4 410,477.8 C412.9,474.4 412.1,471 411.1,467.1 Z" id="Path" fill="#FFFFFF"></path>
                <path d="M206.2,381 C204.5,376.3 197.4,376.9 197.3,382.2 C197.3,386 197.4,389.7 197.5,393.5 C197.7,397.8 198.2,402.6 202.5,404.7 C204.5,405.7 206.7,405.6 208.3,404 C214.1,398.3 208.5,387.4 206.2,381 Z" id="Path" fill="#FFFFFF"></path>
                <path d="M131.2,400.6 C123.9,395.6 113.5,396.7 105.3,398.8 C101.4,399.8 102.3,405.8 106.2,405.7 C114,405.7 121.5,408.2 129.1,408.1 C133.4,408 134.5,402.8 131.2,400.6 Z" id="Path" fill="#FFFFFF"></path>
                <path d="M85.8,310.2 C83.4,316.2 81.1,323.6 82.5,329.9 C83.5,334.7 90,334.9 92.4,331.2 C94.3,328.3 94.9,325.4 95.2,322 C95.6,318.6 96.1,315.1 96,311.6 C95.9,305.4 88,305 85.8,310.2 Z" id="Path" fill="#FFFFFF"></path>
                <path d="M234.6,165.5 C230.7,163.8 227.7,164 223.7,165 C219.7,165.9 215.3,166.5 211.8,168.6 C208.9,170.4 209.4,175 212.8,175.9 C216.4,176.9 220.2,176.4 223.8,176.2 C228.4,176 231.9,175.7 235.6,172.7 C237.6,170.9 237.2,166.6 234.6,165.5 Z" id="Path" fill="#FFFFFF"></path>
                <path d="M164.3,132.6 C162.4,130.6 160.5,128.4 159.2,126 C157.9,123.5 158.2,120.9 158.1,118.3 C158.1,115.2 153.7,112.9 151.5,115.6 C148.2,119.7 147.8,125.3 149.5,130.1 C151.4,135.7 155.3,139.2 161.2,139.9 C165.2,140.4 166.6,135 164.3,132.6 Z" id="Path" fill="#FFFFFF"></path>
                <path d="M282.3,101.7 C280.9,93.6 277.7,86.5 274.4,79 C272.2,74 264.3,77.6 265.8,82.6 C268.1,90.4 270.2,97.9 274.3,105 C277,109.6 283.1,106.4 282.3,101.7 Z" id="Path" fill="#FFFFFF"></path>
                <path d="M363.1,169.6 C357.1,172.7 349.1,173.7 342.6,171.8 C338.3,170.6 335.2,177.3 339.5,179.2 C349.5,183.7 359.2,182.7 367.6,175.4 C370.8,172.5 366.6,167.8 363.1,169.6 Z" id="Path" fill="#FFFFFF"></path>
                <path d="M434.3,127.9 C433.2,124.1 432.4,120.4 430.9,116.7 C429.1,112.5 427.3,108.4 425.7,104.1 C423,96.9 412,99.7 414.1,107.3 C415.3,111.6 416.5,116.1 418.4,120.2 C420.5,124.9 423.3,128.5 426.7,132.4 C429.6,136 435.5,132.2 434.3,127.9 Z" id="Path" fill="#FFFFFF"></path>
                <path d="M453,277.3 C450.6,280.8 448,284.1 445,287 C441.6,290.3 437.7,293 435.3,297.2 C433.5,300.3 435.7,305.5 439.8,305 C451.2,303.8 459.1,291.1 461.3,280.8 C462.5,275.6 455.9,273.1 453,277.3 Z" id="Path" fill="#FFFFFF"></path>
                <path d="M352.4,412.7 C347.6,409.4 342.4,406.3 338.2,402.1 C334.1,398.1 328.5,404 332,408.3 C336.6,413.9 342.1,418.4 349.2,420.1 C353.9,421.2 356.1,415.3 352.4,412.7 Z" id="Path" fill="#FFFFFF"></path>
                <path d="M504.7,360.8 C502.8,367 499.2,372.4 496.2,378 C493.9,382.5 499,389.3 503.8,385.6 C507.5,382.8 510,380.2 512,375.9 C514.1,371.5 515,367 515.6,362.2 C516.4,355.9 506.4,355 504.7,360.8 Z" id="Path" fill="#FFFFFF"></path>
                <path d="M340.3,496.8 C336.1,490.2 328.4,487 320.9,485.7 C315.8,484.9 313.5,492.2 318.7,493.6 C324.8,495.3 329.3,499.2 334.6,502.5 C338,504.8 342.5,500.4 340.3,496.8 Z" id="Path" fill="#FFFFFF"></path>
                <path d="M195.2,441.8 C192,449.4 187.2,458.3 187.4,466.7 C187.5,471.8 195.3,473.2 196.5,468.1 C199.6,460.9 200.1,452.3 202,444.7 C203.1,440.7 197,437.8 195.2,441.8 Z" id="Path" fill="#FFFFFF"></path>
                <path d="M277.6,412 C276.1,406.3 271.5,401.8 267.8,397.3 C264.4,393.1 257.9,398.5 260.5,402.9 C263.5,408 266.1,413.5 271,417 C274.4,419.4 278.6,415.6 277.6,412 Z" id="Path" fill="#FFFFFF"></path>
                <path d="M177.3,265.4 C175.2,262.1 173.1,258.1 170.3,255.4 C168.6,253.8 165,254.2 164.6,256.9 C163.9,261.2 165.3,265.8 166.9,269.8 C168.7,274.3 171.5,280.2 176.7,281.4 C179.8,282.2 182.8,279.9 182.9,276.7 C182.9,272.3 179.6,268.9 177.3,265.4 Z" id="Path" fill="#FFFFFF"></path>
                <path d="M100,150.1 C96.6,155.7 92.1,161.4 90.3,167.8 C89.4,171.1 93.7,173.8 96.1,171.2 C100.5,166.3 103,159.5 106,153.7 C108.1,149.6 102.4,146.2 100,150.1 Z" id="Path" fill="#FFFFFF"></path>
                <path d="M321.2,120.5 C318.9,120.6 316.8,120.9 314.7,121.9 C312.8,122.8 311.1,125.2 309.9,126.8 C307.8,129.6 304.9,134.6 306.9,138 C307.5,139 308.8,139.6 310,139.2 C312.8,138.3 314.7,134.9 316.7,132.9 C317.7,132 318.8,131.3 319.9,130.6 C321.5,129.7 322.5,127.9 323.8,126.7 C326,124.6 324.5,120.3 321.2,120.5 Z" id="Path" fill="#FFFFFF"></path>
                <path d="M486.5,166 C484.2,165.1 482.3,164.7 479.9,165 C477.3,165.2 474.7,165.9 472.2,166.4 C467.5,167.3 468.8,174.3 473.3,174.5 C475.5,174.6 477.7,174.7 479.9,174.8 C482.7,174.9 485,173.9 487.4,172.5 C490.2,170.8 489.3,167 486.5,166 Z" id="Path" fill="#FFFFFF"></path>
                <path d="M465.6,416.4 C462.2,422.5 458.6,429.2 456.5,435.9 C455.2,439.9 458.6,444 462.7,444 C465.3,444 467.2,442.6 468.2,440.7 C468.2,440.7 468.2,440.8 468.3,440.8 C471.5,434.5 473.7,427.3 475.5,420.5 C477,414.7 468.6,411.1 465.6,416.4 Z" id="Path" fill="#FFFFFF"></path>
                <path d="M422.3,381.6 C420.6,376.6 416.5,375.1 412,372.9 C407.3,370.6 402.4,368.1 397.3,366.8 C393.8,365.9 391.5,370.1 393.9,372.7 C397.1,376.1 401.1,379.1 404.9,381.8 C409.4,385 413.1,388.5 418.9,387.6 C421.4,387.1 423.1,383.9 422.3,381.6 Z" id="Path" fill="#FFFFFF"></path>
                <path d="M252.1,472.2 C249.9,474.5 247.6,476.7 245.5,479.2 C243,482.1 240.4,484.7 241,488.7 C241.2,490.2 243.1,491.5 244.6,491.4 C248.2,491.2 250.1,488.4 252.2,485.8 C254.4,483 256.4,480 258.4,477.1 C261,473.2 255.2,468.9 252.1,472.2 Z" id="Path" fill="#FFFFFF"></path>
            </g>
            <g id="3" transform="translate(523.800000, 505.000000)">
                <path d="M578.6,290.4 C560.8,147.1 438.6,36.3 290.5,36.3 C142.4,36.3 20.2,147.1 2.3,290.4 L0,290.4 L0,326.7 C0,487.1 130,617.1 290.4,617.1 C450.8,617.1 580.8,487.1 580.8,326.7 L580.8,290.4 L578.6,290.4 Z M290.5,397.6 C251.3,397.6 219.5,365.8 219.5,326.6 C219.5,287.4 251.3,255.6 290.5,255.6 C329.7,255.6 361.5,287.4 361.5,326.6 C361.4,365.9 329.7,397.6 290.5,397.6 Z" id="Shape" fill="#F49547"></path>
                <path d="M290.5,0 C130.1,0 0.1,130 0.1,290.4 C0.1,450.8 130.1,580.8 290.5,580.8 C450.9,580.8 580.9,450.8 580.9,290.4 C580.9,130 450.9,0 290.5,0 Z M290.5,361.3 C251.3,361.3 219.5,329.5 219.5,290.3 C219.5,251.1 251.3,219.3 290.5,219.3 C329.7,219.3 361.5,251.1 361.5,290.3 C361.4,329.6 329.7,361.3 290.5,361.3 Z" id="Shape" fill="#F8AD5C"></path>
                <path d="M290.5,21.4 C142,21.4 21.5,141.8 21.5,290.4 C21.5,438.9 141.9,559.4 290.5,559.4 C439.1,559.4 559.5,439 559.5,290.4 C559.4,141.8 439,21.4 290.5,21.4 Z M290.5,379.5 C241.3,379.5 201.4,339.6 201.4,290.4 C201.4,241.2 241.3,201.3 290.5,201.3 C339.7,201.3 379.6,241.2 379.6,290.4 C379.6,339.6 339.7,379.5 290.5,379.5 Z" id="Shape" fill="#C2D957"></path>
                <g id="Path" transform="translate(21.500000, 181.900000)" fill="#98AD45">
                    <path d="M269,-4.43232064e-22 C219.8,-4.43232064e-22 179.9,39.9 179.9,89.1 C179.9,92.4 180.1,95.6 180.4,98.8 C185.2,54.2 223,19.4 269,19.4 C314.9,19.4 352.7,54.2 357.6,98.8 C357.9,95.6 358.1,92.4 358.1,89.1 C358.1,39.9 318.2,-4.43232064e-22 269,-4.43232064e-22 Z"></path>
                    <path d="M269,358 C123.7,358 5.3,242.8 0.2,98.7 C0.1,101.9 -1.42108547e-14,105.1 -1.42108547e-14,108.4 C-1.42108547e-14,256.9 120.4,377.4 269,377.4 C417.6,377.4 538,257 538,108.4 C538,105.2 537.9,101.9 537.8,98.7 C532.6,242.8 414.3,358 269,358 Z"></path>
                </g>
                <path d="M198,105.5 C197,101.9 195.2,98.9 192.6,96.2 C188.3,91.9 183.5,90.7 177.7,90 C170.1,89.2 162.2,92.9 156.8,97.8 C152.8,101.5 148.5,105.1 147.5,110.9 C145.9,120.1 148.7,126.6 156.1,132.1 C160.8,135.6 166.6,135.2 172.2,135.1 C179.5,134.9 187.7,131.7 192.5,125.9 C197.5,120.1 200.1,113.3 198,105.5 Z" id="Path" fill="#FFFFFF"></path>
                <path d="M208,186.7 C206.5,182.6 204.4,179.3 200.5,177 C197.1,175 191.8,173.8 188,175.4 C186.1,176.2 184.1,177 182.3,177.9 C178.8,179.8 176.6,183.1 174.5,186.4 C171.6,191 170.6,196.8 172,202 C172.6,204.2 173.7,206.1 174.8,208.1 C178.3,214.4 185.6,216.8 192.4,215.3 C199.7,213.6 205.6,208.7 207.7,201.4 C209.1,196.5 209.8,191.5 208,186.7 Z" id="Path" fill="#FFFFFF"></path>
                <path d="M164.6,282.2 C161.9,280 159.2,277.9 156.3,275.9 C153.7,274.2 150.1,273.1 147.1,272.1 C133.7,267.7 120,284.5 128.3,296.5 C130.5,299.7 132.7,303 134.6,306.4 C140.6,317 157.2,322.6 166.7,313 C175,304.9 173.2,289.5 164.6,282.2 Z" id="Path" fill="#FFFFFF"></path>
                <path d="M128.2,375.8 C128,374.9 127.4,371.4 128,375.6 C127.3,370.3 125.4,364.3 121.1,360.7 C115.6,356.1 109.4,356.2 103.8,360.7 C98.8,364.8 96.8,373.5 98.5,379.6 C100.3,386 103.3,391.2 109.4,394.2 C116.3,397.6 125.5,395 127.4,386.9 C127.9,384.7 128.4,383.1 128.6,380.7 C128.8,379.1 128.7,377.5 128.2,375.8 Z" id="Path" fill="#FFFFFF"></path>
                <path d="M279.3,424.9 C275.8,421.1 271.3,419.6 266.6,418 C262.3,416.6 257.2,418.2 254,421.3 C249.7,425.6 249.4,431.7 252,437 C252.6,438.2 253.2,439.4 253.8,440.5 C255.4,443.7 257.8,445.7 260.6,447.7 C265.5,451.1 270.3,452.6 276.4,450.9 C278.5,450.3 280.2,449.3 281.8,447.8 C284.3,445.3 284.9,442.6 285.4,439.2 C286.1,433.3 283.1,429 279.3,424.9 Z" id="Path" fill="#FFFFFF"></path>
                <path d="M190.6,452.9 C190.6,452.4 190.6,451.8 190.6,451.3 C190.7,447 188.6,443.5 185.8,440.4 C184.4,438.8 182.6,437.4 180.9,436.1 C179.6,435 178.4,433.7 177.2,432.4 C173.4,427.9 165.9,427.5 161,430.3 C156.1,433.2 153,439.7 154.9,445.4 C156.4,449.9 158.6,455.6 162.2,459.1 C167.5,464.2 174,467.8 181.5,464.9 C186.5,462.9 190.9,458.8 190.6,452.9 Z" id="Path" fill="#FFFFFF"></path>
                <path d="M404,448 C397.9,446.1 393.1,447.2 387.2,449.1 C383,450.5 379.3,451.4 374.9,451.4 C366.1,451.3 363.1,463.2 370.5,467.6 C375.7,470.7 381.3,472.9 387.2,474 C391.2,474.7 395.5,474.7 399.5,473.7 C404.9,472.4 407.9,469.3 410.9,464.8 C415,458.4 410.9,450.1 404,448 Z" id="Path" fill="#FFFFFF"></path>
                <path d="M426.8,363.8 C423.1,360.1 415.9,358.4 411.3,361.8 C410.1,362.7 408.8,363.5 407.5,364.3 C405.7,365.4 404.6,366.1 402.8,367.6 C402.5,367.9 401.7,368.5 401.3,368.8 C399.4,370.2 397.5,371.6 395.9,373.4 C394.6,374.9 393.1,376.2 391.7,377.5 C386.6,382 386,390.4 389.3,396.1 C393.7,403.7 402.8,405.3 410.2,401.6 C412,400.7 413.7,399.8 415.4,398.7 C419.2,396.4 421.5,393.7 424.1,390.3 C427.3,386.1 429,381.4 430.1,376.3 C431.1,371.7 430.2,367.2 426.8,363.8 Z" id="Path" fill="#FFFFFF"></path>
                <path d="M515.3,346.1 C516,349.9 514.9,343.8 514.7,342.6 C514.5,340.9 513.9,339.3 513.2,337.7 C511.3,332.9 507.7,329.4 502.3,329.4 C497.5,329.4 492.4,332.8 491.4,337.7 C491.3,338.1 490.7,339.8 490.5,340.7 C488.8,342.3 487.5,343.4 486.2,345.6 C485.6,346.8 485.1,348.1 484.6,349.4 C484.6,349.5 484.4,349.8 484.1,350.6 C482.4,354.7 482.1,355.5 483,353 C482.9,353.2 480.7,356.5 482.3,354.6 C478.6,359.2 477.1,364.8 480.3,370.3 C483.2,375.2 489.4,378 494.9,376.2 C503.2,373.6 509,369.1 514,361.9 C517.1,357.1 516.2,351.1 515.3,346.1 Z" id="Path" fill="#FFFFFF"></path>
                <path d="M457.8,231.9 C455.8,220.7 439.9,222.5 436.9,231.9 C435.2,237.3 431.3,244.8 431.7,250.6 C432.2,257.6 432.8,264.8 437.9,270.1 C442.3,274.7 448.7,273.7 453.2,270.1 C458,266.2 460.9,256.7 460.9,250.6 C460.9,244.5 458.8,237.8 457.8,231.9 Z" id="Path" fill="#FFFFFF"></path>
                <path d="M510.4,175.6 C509.1,173.4 507.2,171.7 505.5,169.9 C499.6,163.8 488.5,165 484.4,172.6 C483.9,173.6 483.3,174.6 482.8,175.6 C480.4,180 480.3,184.2 481.4,189 C482.3,192.9 484.6,196.4 486.6,199.8 C492.3,209.4 507.6,207.7 510.5,196.7 C511.5,193.1 512.2,189.6 512.5,185.8 C512.8,182.3 512.2,178.7 510.4,175.6 Z" id="Path" fill="#FFFFFF"></path>
                <path d="M412.6,152 C411.5,147.9 409.1,145.3 406,142.8 L406,142.8 C406.6,143.2 407.1,143.7 407.7,144.1 C406.5,143.1 405.5,142.1 404.5,140.9 C405,141.5 405.4,142.1 405.9,142.7 C404.6,141.1 403.2,139.5 401.8,138 C399.3,135.4 396.8,133.8 393.4,132.6 C393.4,132.6 393.3,132.6 393.3,132.6 C390.1,131.2 386.9,130.7 383.4,131.7 C380,132.6 376.4,135.1 374.8,138.3 C373.8,140.3 372.8,142.4 372.3,144.6 C370.9,150.4 372.5,155.2 375.1,160.2 C378.5,166.8 385.2,170.2 391.8,172.7 C398.8,175.4 407.3,171 410.9,164.9 C413.1,161.1 413.8,156.3 412.6,152 Z" id="Path" fill="#FFFFFF"></path>
                <path d="M337.5,69.7 C335.9,69.2 334.4,68.7 332.8,68.1 C332.7,68 332.6,68 332.4,67.9 C330.4,66.9 328.3,66.1 326.2,65.2 C317.7,61.9 305.9,65.6 303.3,75 C300.9,83.7 306.6,92.7 314.5,96.2 C320.6,98.9 326.7,99.8 333.3,100.5 C340.1,101.2 346.7,95.2 348.4,89 C350.8,80.7 345.7,72.1 337.5,69.7 Z" id="Path" fill="#FFFFFF"></path>
                <path d="M307.2,136.4 C305.3,129.7 297.9,122.6 290.4,123.6 C278,125.2 261.3,124.8 254.8,137.7 C250.3,146.7 252.5,157 261.3,162.4 C273.9,170.1 287.5,161.5 299.2,156.1 C306.2,152.9 309.1,143.4 307.2,136.4 Z" id="Path" fill="#FFFFFF"></path>
                <path d="M121.6,216.8 C120.7,207.3 111.7,201.2 102.7,206 C99.2,207.9 96,210.4 93.3,213.4 C91.5,215.3 90,217.7 88.4,219.8 C87.6,221.5 86.9,223.2 86.3,225 C86.1,226.5 85.9,227.9 85.7,229.4 C85.7,229.7 85.8,230 85.8,230.3 C85.6,233 86.1,235.8 87.6,238.4 C90.3,243 95.8,246.3 101.3,246.1 C108,245.9 112.5,243.1 116.6,237.8 C120.6,232.4 122.2,223.2 121.6,216.8 Z M89.8,221.2 L90.2,220.5 L92.6,218.8 C92.7,218.8 92.7,218.8 92.8,218.8 C91.7,219.5 90.7,220.3 89.8,221.2 Z" id="Shape" fill="#FFFFFF"></path>
            </g>
            <g id="4" transform="translate(0.000000, 0.000000)">
                <path d="M578.7,290.4 C560.8,147.1 438.6,36.3 290.5,36.3 C142.4,36.3 20.2,147.2 2.3,290.4 L0,290.4 L0,326.7 C0,487.1 130,617.1 290.4,617.1 C450.8,617.1 580.8,487.1 580.8,326.7 L580.8,290.4 L578.7,290.4 Z M290.5,397.6 C251.3,397.6 219.5,365.8 219.5,326.6 C219.5,287.4 251.3,255.6 290.5,255.6 C329.7,255.6 361.5,287.4 361.5,326.6 C361.5,365.9 329.7,397.6 290.5,397.6 Z" id="Shape" fill="#F49547"></path>
                <path d="M290.5,0 C130.1,0 0.1,130 0.1,290.4 C0.1,450.8 130.1,580.8 290.5,580.8 C450.9,580.8 580.9,450.8 580.9,290.4 C580.9,130 450.9,0 290.5,0 Z M290.5,361.3 C251.3,361.3 219.5,329.5 219.5,290.3 C219.5,251.1 251.3,219.3 290.5,219.3 C329.7,219.3 361.5,251.1 361.5,290.3 C361.5,329.6 329.7,361.3 290.5,361.3 Z" id="Shape" fill="#F8AD5C"></path>
                <path d="M290.5,21.4 C142,21.4 21.5,141.8 21.5,290.4 C21.5,438.9 141.9,559.4 290.5,559.4 C439.1,559.4 559.5,439 559.5,290.4 C559.5,141.8 439.1,21.4 290.5,21.4 Z M290.5,379.5 C241.3,379.5 201.4,339.6 201.4,290.4 C201.4,241.2 241.3,201.3 290.5,201.3 C339.7,201.3 379.6,241.2 379.6,290.4 C379.6,339.6 339.7,379.5 290.5,379.5 Z" id="Shape" fill="#6DCFF6"></path>
                <g id="Path" transform="translate(21.500000, 181.900000)" fill="#32AAD2">
                    <path d="M269,-4.43232064e-22 C219.8,-4.43232064e-22 179.9,39.9 179.9,89.1 C179.9,92.4 180.1,95.6 180.4,98.8 C185.2,54.2 223,19.4 269,19.4 C314.9,19.4 352.7,54.2 357.6,98.8 C357.9,95.6 358.1,92.4 358.1,89.1 C358.1,39.9 318.2,-4.43232064e-22 269,-4.43232064e-22 Z"></path>
                    <path d="M269,358 C123.7,358 5.3,242.8 0.2,98.7 C0.1,101.9 0,105.1 0,108.4 C0,256.9 120.4,377.4 269,377.4 C417.6,377.4 538,257 538,108.4 C538,105.2 537.9,101.9 537.8,98.7 C532.7,242.8 414.3,358 269,358 Z"></path>
                </g>
                <path d="M216.2,94.2 C212.8,90.8 208,88.8 203.1,88.8 C198.2,88.8 193.5,90.8 190,94.2 C186.6,97.6 184.6,102.4 184.6,107.3 C184.6,112.2 186.6,116.9 190,120.4 C193.4,123.8 198.2,125.8 203.1,125.8 C208,125.8 212.7,123.8 216.2,120.4 C219.6,117 221.6,112.2 221.6,107.3 C221.6,102.4 219.6,97.6 216.2,94.2 Z" id="Path" fill="#F04F4A"></path>
                <path d="M202,180.5 C199,177.5 195,175.9 190.8,175.9 C186.6,175.9 182.6,177.6 179.6,180.5 C176.6,183.5 175,187.5 175,191.7 C175,195.9 176.7,199.9 179.6,202.9 C182.6,205.9 186.6,207.5 190.8,207.5 C195,207.5 199,205.8 202,202.9 C205,200 206.6,195.9 206.6,191.7 C206.6,187.5 205,183.5 202,180.5 Z" id="Path" fill="#F04F4A"></path>
                <path d="M90.8,196.6 C88.2,194 84.7,192.6 81.1,192.6 C77.5,192.6 73.9,194.1 71.4,196.6 C68.9,199.1 67.4,202.7 67.4,206.3 C67.4,209.9 68.9,213.5 71.4,216 C74,218.6 77.5,220 81.1,220 C84.7,220 88.3,218.5 90.8,216 C93.4,213.4 94.8,209.9 94.8,206.3 C94.9,202.7 93.4,199.2 90.8,196.6 Z" id="Path" fill="#F04F4A"></path>
                <path d="M156.4,276.7 C155.7,274.1 154.4,271.9 152.5,270 C151.4,269.1 150.1,268 149.2,267.4 C144.4,264.6 138.2,264.6 133.3,267.4 C129.8,269.5 127.2,272.9 126.1,276.8 C124.6,282.2 126.2,288.1 130.1,292.1 C133,295 137.1,296.7 141.2,296.7 C146.7,296.7 152,293.7 154.8,288.9 C156.2,286.6 157,283.6 156.9,280.9 C156.9,279.5 156.7,278.1 156.4,276.7 Z" id="Path" fill="#F04F4A"></path>
                <path d="M187.8,355.9 C167.8,355.9 167.8,386.9 187.8,386.9 C207.8,386.9 207.7,355.9 187.8,355.9 Z" id="Path" fill="#F04F4A"></path>
                <path d="M179.4,448.9 C176.7,446.2 173.1,444.7 169.4,444.7 C165.7,444.7 162,446.2 159.4,448.9 C156.7,451.6 155.2,455.2 155.2,458.9 C155.2,462.7 156.7,466.3 159.4,468.9 C162.1,471.6 165.7,473.1 169.4,473.1 C173.1,473.1 176.8,471.6 179.4,468.9 C182.1,466.2 183.6,462.6 183.6,458.9 C183.5,455.1 182,451.5 179.4,448.9 Z" id="Path" fill="#F04F4A"></path>
                <path d="M315.3,477.1 C314.8,475 313.5,472.9 312,471.3 C308.8,468.1 303.9,466.8 299.5,468 C295.2,469.2 291.7,472.7 290.5,477 C289.3,481.4 290.6,486.3 293.8,489.5 C297,492.7 301.9,494 306.3,492.8 C310.5,491.6 314.2,488.1 315.3,483.8 C315.9,481.4 315.9,479.5 315.3,477.1 Z" id="Path" fill="#F04F4A"></path>
                <path d="M409.7,372.8 C407.4,370.5 403.7,368.7 400.4,368.9 C397.8,369.1 395.3,369.4 393.2,371 C391.3,372.1 389.7,373.7 388.6,375.6 C387.4,377.6 386.8,379.8 386.8,382.1 C386.8,384.4 387.4,386.6 388.6,388.6 C389.7,390.5 391.3,392.1 393.2,393.2 C395.4,394.8 397.9,395.1 400.4,395.3 C403.8,395.5 407.4,393.8 409.7,391.4 C412.2,388.9 413.6,385.5 413.6,382.1 C413.6,378.6 412.2,375.2 409.7,372.8 Z" id="Path" fill="#F04F4A"></path>
                <path d="M504.1,316.5 C495.9,316.5 489.1,323.3 489.1,331.5 C489.1,339.7 495.9,346.5 504.1,346.5 C512.3,346.5 519.1,339.7 519.1,331.5 C519.1,323.3 512.2,316.5 504.1,316.5 Z" id="Path" fill="#F04F4A"></path>
                <path d="M467.2,220.9 C465.5,219.2 463.5,218 461.1,217.4 C459.9,217.2 458.7,217.1 457.4,216.9 C454.9,216.9 452.6,217.5 450.4,218.8 C449,219.5 447.8,220.8 446.5,221.8 C445.8,222.7 445,223.7 444.3,224.6 C443,226.8 442.4,229.1 442.4,231.7 C442.4,235.4 443.9,239 446.5,241.6 C449.1,244.2 452.7,245.7 456.4,245.7 C457.6,245.5 458.9,245.4 460.1,245.2 C462.5,244.5 464.5,243.3 466.3,241.6 C467.3,240.3 468.6,239.1 469.3,237.7 C470.5,235.5 471.2,233.2 471.2,230.7 C471.2,227 469.8,223.5 467.2,220.9 Z" id="Path" fill="#F04F4A"></path>
                <path d="M438.3,109.7 C438.2,109.6 438.1,109.4 438.1,109.3 C434.9,103.8 428.1,101 422,102.7 C415.9,104.4 411.5,110.1 411.5,116.5 C411.5,122.9 415.9,128.6 422,130.3 C428.2,132 434.9,129.3 438.1,123.7 C438.2,123.6 438.3,123.4 438.3,123.3 C440.8,119.1 440.8,113.8 438.3,109.7 Z" id="Path" fill="#F04F4A"></path>
                <path d="M378.1,151.9 C375.7,149.5 372.4,148.1 369,148.1 C365.6,148.1 362.3,149.5 359.9,151.9 C357.5,154.3 356.1,157.6 356.1,161 C356.1,164.4 357.5,167.7 359.9,170.1 C362.3,172.5 365.6,173.9 369,173.9 C372.4,173.9 375.7,172.5 378.1,170.1 C380.5,167.7 381.9,164.4 381.9,161 C381.9,157.6 380.5,154.3 378.1,151.9 Z" id="Path" fill="#F04F4A"></path>
                <path d="M305,60.6 C302.4,58 298.9,56.5 295.2,56.5 C291.5,56.5 288,58 285.4,60.6 C282.8,63.2 281.3,66.7 281.3,70.4 C281.3,74.1 282.8,77.6 285.4,80.2 C288,82.8 291.5,84.3 295.2,84.3 C298.9,84.3 302.4,82.8 305,80.2 C307.6,77.6 309.1,74.1 309.1,70.4 C309.1,66.7 307.6,63.2 305,60.6 Z" id="Path" fill="#F04F4A"></path>
                <path d="M299.7,113.5 C296.5,110.3 292.1,108.5 287.6,108.5 C283.1,108.5 278.7,110.3 275.5,113.5 C272.3,116.7 270.5,121.1 270.5,125.6 C270.5,130.1 272.3,134.5 275.5,137.7 C278.7,140.9 283.1,142.7 287.6,142.7 C292.1,142.7 296.5,140.9 299.7,137.7 C302.9,134.5 304.7,130.1 304.7,125.6 C304.7,121.1 302.9,116.7 299.7,113.5 Z" id="Path" fill="#C8529E"></path>
                <path d="M144,128.8 C142.1,125.4 138.7,122.9 135,121.9 C129.8,120.5 124.1,122 120.3,125.8 C117.5,128.6 115.9,132.5 115.9,136.5 C115.9,141.8 118.8,147 123.4,149.6 C126.1,151.1 128.3,151.7 131.5,151.8 C135.3,152 139.4,150.1 142,147.4 C144.7,144.7 146.5,140.7 146.4,136.9 C146.1,133.7 145.5,131.5 144,128.8 Z" id="Path" fill="#C8529E"></path>
                <path d="M102.3,335.9 C99.4,333 95.5,331.4 91.4,331.4 C87.3,331.4 83.4,333 80.5,335.9 C77.6,338.8 76,342.7 76,346.8 C76,350.9 77.6,354.8 80.5,357.7 C83.4,360.6 87.3,362.2 91.4,362.2 C95.5,362.2 99.4,360.6 102.3,357.7 C105.2,354.8 106.8,350.9 106.8,346.8 C106.8,342.7 105.2,338.8 102.3,335.9 Z" id="Path" fill="#C8529E"></path>
                <path d="M257.7,433.5 C255,430.8 251.4,429.3 247.7,429.3 C243.9,429.3 240.3,430.8 237.7,433.5 C235,436.2 233.5,439.8 233.5,443.5 C233.5,447.3 235,450.9 237.7,453.5 C240.4,456.2 244,457.7 247.7,457.7 C251.5,457.7 255.1,456.2 257.7,453.5 C260.4,450.8 261.9,447.2 261.9,443.5 C261.9,439.8 260.3,436.1 257.7,433.5 Z" id="Path" fill="#C8529E"></path>
                <path d="M395.5,444.6 C392.5,441.6 388.5,439.9 384.3,439.9 C380.1,439.9 376,441.6 373.1,444.6 C370.1,447.6 368.4,451.6 368.4,455.8 C368.4,460 370.1,464.1 373.1,467 C376.1,470 380.1,471.7 384.3,471.7 C388.5,471.7 392.6,470 395.5,467 C398.5,464 400.2,460 400.2,455.8 C400.2,451.6 398.5,447.6 395.5,444.6 Z" id="Path" fill="#C8529E"></path>
                <path d="M442.4,304.7 C439.4,301.7 435.2,300 431,300 C426.7,300 422.6,301.7 419.6,304.7 C416.6,307.7 414.9,311.9 414.9,316.1 C414.9,320.3 416.6,324.5 419.6,327.5 C422.6,330.5 426.8,332.2 431,332.2 C435.3,332.2 439.4,330.5 442.4,327.5 C445.4,324.5 447.1,320.3 447.1,316.1 C447.1,311.9 445.4,307.7 442.4,304.7 Z" id="Path" fill="#C8529E"></path>
                <path d="M473.4,151.2 C464.7,151.2 457.4,158.5 457.4,167.2 C457.4,175.9 464.7,183.2 473.4,183.2 C482.1,183.2 489.4,175.9 489.4,167.2 C489.3,158.4 482.1,151.2 473.4,151.2 Z" id="Path" fill="#C8529E"></path>
                <path d="M362.1,87.6 C359.4,84.9 355.6,83.3 351.7,83.3 C347.8,83.3 344,84.9 341.3,87.6 C338.6,90.3 337,94.1 337,98 C337,101.9 338.6,105.7 341.3,108.4 C344,111.1 347.8,112.7 351.7,112.7 C355.6,112.7 359.4,111.1 362.1,108.4 C364.8,105.7 366.4,101.9 366.4,98 C366.4,94.2 364.8,90.4 362.1,87.6 Z" id="Path" fill="#FFFFFF"></path>
                <path d="M149.6,202.2 C147.1,199.7 143.7,198.3 140.1,198.3 C136.6,198.3 133.1,199.7 130.6,202.2 C128.1,204.7 126.7,208.1 126.7,211.7 C126.7,215.2 128.1,218.7 130.6,221.2 C133.1,223.7 136.5,225.1 140.1,225.1 C143.6,225.1 147.1,223.7 149.6,221.2 C152.1,218.7 153.5,215.3 153.5,211.7 C153.5,208.1 152.1,204.7 149.6,202.2 Z" id="Path" fill="#FFFFFF"></path>
                <path d="M90.6,290.4 C87.9,287.7 84.1,286.1 80.2,286.1 C76.3,286.1 72.6,287.7 69.8,290.4 C67.1,293.1 65.5,296.9 65.5,300.8 C65.5,304.7 67.1,308.4 69.8,311.2 C72.5,313.9 76.3,315.5 80.2,315.5 C84.1,315.5 87.8,313.9 90.6,311.2 C93.3,308.5 94.9,304.7 94.9,300.8 C94.9,296.9 93.4,293.1 90.6,290.4 Z" id="Path" fill="#FFFFFF"></path>
                <path d="M121.7,369 C106.8,369 106.8,392.1 121.7,392.1 C136.6,392.1 136.6,369 121.7,369 Z" id="Path" fill="#FFFFFF"></path>
                <path d="M312.1,414.2 C296,414.2 296,439.1 312.1,439.1 C328.2,439.1 328.2,414.2 312.1,414.2 Z" id="Path" fill="#FFFFFF"></path>
                <path d="M483.8,400.3 C483.8,400.1 483.7,399.9 483.7,399.8 C482.3,394.5 477.3,390.8 471.9,390.8 C466.5,390.8 461.5,394.5 460.1,399.8 C460.1,400 460,400.2 460,400.3 C459.1,403.5 459.6,407 461.2,409.8 C463.4,413.6 467.5,415.9 471.9,415.9 C475.2,415.9 478.3,414.6 480.7,412.3 C483.7,409.2 484.9,404.6 483.8,400.3 Z" id="Path" fill="#FFFFFF"></path>
                <path d="M513.3,247.8 C504.5,247.8 497.2,255.1 497.2,263.9 C497.2,272.7 504.5,280 513.3,280 C522.1,280 529.4,272.7 529.4,263.9 C529.4,255.1 522.1,247.8 513.3,247.8 Z" id="Path" fill="#FFFFFF"></path>
            </g>
        </g>
    </g>
</svg>