<?xml version="1.0" encoding="UTF-8"?>
<svg width="246px" height="132px" viewBox="0 0 246 132" version="1.1" xmlns="http://www.w3.org/2000/svg" xmlns:xlink="http://www.w3.org/1999/xlink">
    <title>Group 8</title>
    <defs>
        <path d="M112.41375,112.936 C104.73375,112.936 96.97375,112.122 89.26375,110.429 C37.70375,99.113 0.39475,52.774 1.13686838e-13,0.073 C1.13686838e-13,0.049 1.13686838e-13,0.024 1.13686838e-13,0 L1.13686838e-13,0.072 C0.39475,52.774 37.70375,99.113 89.26375,110.428 C96.97375,112.121 104.73375,112.936 112.41375,112.936 C156.33375,112.936 197.91375,86.339 216.13375,45.381 C222.48375,31.115 225.58375,15.863 225.70375,0.275 C225.70375,0.266 225.70375,0.257 225.70375,0.249 C225.70375,0.257 225.70375,0.266 225.70375,0.275 C225.58375,15.864 222.48375,31.116 216.13375,45.382 C197.91375,86.339 156.33375,112.936 112.41375,112.936" id="path-1"></path>
        <linearGradient x1="7.69533072%" y1="53.1168025%" x2="100.413772%" y2="38.0425321%" id="linearGradient-3">
            <stop stop-color="#C4B48C" offset="0%"></stop>
            <stop stop-color="#D7C08F" offset="100%"></stop>
        </linearGradient>
    </defs>
    <g id="Page-1" stroke="none" stroke-width="1" fill="none" fill-rule="evenodd">
        <g id="free-cute-fruit-vectors" transform="translate(-958.000000, -339.000000)">
            <g id="Group-8" transform="translate(958.766861, 339.737116)">
                <g id="Group-45" transform="translate(18.999389, 17.881884)">
                    <mask id="mask-2" fill="white">
                        <use xlink:href="#path-1"></use>
                    </mask>
                    <g id="Clip-44"></g>
                    <path d="M112.41375,112.936 C104.73375,112.936 96.97375,112.122 89.26375,110.429 C37.70375,99.113 0.39475,52.774 1.13686838e-13,0.073 C1.13686838e-13,0.049 1.13686838e-13,0.024 1.13686838e-13,0 L1.13686838e-13,0.072 C0.39475,52.774 37.70375,99.113 89.26375,110.428 C96.97375,112.121 104.73375,112.936 112.41375,112.936 C156.33375,112.936 197.91375,86.339 216.13375,45.381 C222.48375,31.115 225.58375,15.863 225.70375,0.275 C225.70375,0.266 225.70375,0.257 225.70375,0.249 C225.70375,0.257 225.70375,0.266 225.70375,0.275 C225.58375,15.864 222.48375,31.116 216.13375,45.382 C197.91375,86.339 156.33375,112.936 112.41375,112.936" id="Fill-43" fill="url(#linearGradient-3)" mask="url(#mask-2)"></path>
                </g>
                <path d="M4.09513883,4.26288353 C4.09513883,64.2628835 52.7831388,113.015884 112.853139,113.015884 C172.913139,113.015884 221.603139,64.2628835 221.603139,4.26288353 L4.09513883,4.26288353" id="Fill-130" fill="#F4B468"></path>
                <path d="M1.13686838e-13,3.95488353 C0.394138827,56.6558835 37.7081388,102.994884 89.2631388,114.310884 C141.073139,125.682884 194.733139,97.3848835 216.133139,49.2638835 C222.483139,34.9978835 225.583139,19.7458835 225.703178,4.15688353 C225.713139,1.92388353 223.823139,0.262883528 221.603139,0.262883528 C163.243139,0.262883528 104.893139,0.262883528 46.5331388,0.262883528 C32.3891388,0.262883528 19.2331388,0.262883528 5.23313883,0.262883528 C-0.766861173,0.262883528 -0.766861173,8.26288353 5.23313883,8.26288353 C63.2331388,8.26288353 120.803139,8.26288353 179.163139,8.26288353 C193.313139,8.26288353 207.453139,8.26288353 221.603139,8.26288353 C220.233139,6.26288353 218.873139,5.42688353 217.503139,4.06088353 C217.093139,59.3228835 173.063139,105.653884 117.783139,108.554884 C62.6531388,111.447884 13.9451388,68.3428835 8.62813883,13.7348835 C8.31213883,10.4938835 8.21613883,7.22188353 8.19213883,3.96888353 C8.15213883,-1.31211647 -0.0388611726,-1.32911647 1.13686838e-13,3.95488353" id="Fill-131" fill="#E8812C"></path>
                <path d="M18.8651388,4.26288353 C18.8651388,57.2628835 60.9431388,98.2478835 112.853139,98.2478835 C164.753139,98.2478835 206.833139,57.2628835 206.833139,4.26288353 L18.8651388,4.26288353" id="Fill-132" fill="#F4B468"></path>
                <path d="M14.7679622,3.95488353 C15.2171388,57.3748835 57.8031388,100.679884 111.213139,102.022884 C164.613139,103.365884 208.653139,59.9318835 210.873139,7.26588353 C210.913139,6.16188353 210.933295,5.26088353 210.933295,4.15688353 C210.953139,1.92388353 209.053139,0.262883528 206.833139,0.262883528 C149.003139,0.262883528 91.1631388,0.262883528 33.3351388,0.262883528 C28.5111388,0.262883528 23.2331388,0.262883528 19.2331388,0.262883528 C14.2331388,0.262883528 14.2331388,8.26288353 19.2331388,8.26288353 C77.2331388,8.26288353 134.533139,8.26288353 192.363139,8.26288353 C197.193139,8.26288353 202.013139,8.26288353 206.833139,8.26288353 C205.473139,6.26288353 204.103139,5.42688353 202.743139,4.06088353 C202.323139,53.6398835 162.443139,93.4818835 112.853139,93.8978835 C63.2531388,94.3128835 23.3721388,52.9338835 22.9611388,3.98188353 C22.9161388,-1.29911647 14.7241388,-1.32911647 14.7679622,3.95488353" id="Fill-133" fill="#E8812C"></path>
                <line x1="200.233139" y1="4.26288353" x2="27.2331388" y2="4.26288353" id="Fill-134" fill="#FCDD90"></line>
                <path d="M200.233139,0.262883528 C200.233139,0.262883528 87.8131388,0.262883528 31.8101388,0.262883528 C30.2251388,0.262883528 29.2331388,0.262883528 27.2331388,0.262883528 C22.2331388,0.262883528 22.2331388,8.26288353 27.2331388,8.26288353 C83.2331388,8.26288353 139.063139,8.26288353 195.063139,8.26288353 C196.643139,8.26288353 199.233139,8.26288353 200.233139,8.26288353 C205.233139,8.26288353 205.233139,0.262883528 200.233139,0.262883528 C200.233139,0.262883528 205.233139,0.262883528 200.233139,0.262883528" id="Fill-135" fill="#FFFCE8"></path>
                <path d="M88.7431388,4.26288353 C88.7431388,17.2628835 99.5331388,28.3708835 112.853139,28.3708835 C126.163139,28.3708835 136.953139,17.2628835 136.953139,4.26288353 L88.7431388,4.26288353" id="Fill-136" fill="#FCDD90"></path>
                <path d="M84.6431388,3.95488353 C85.1531388,19.6348835 97.1731388,31.6468835 112.853139,32.1588835 C128.523139,32.6708835 140.563139,19.0688835 141.053139,4.15688353 C141.123139,1.92488353 139.133139,0.262883528 136.953139,0.262883528 C120.883139,0.262883528 105.233139,0.262883528 89.2331388,0.262883528 C84.2331388,0.262883528 84.2331388,8.26288353 89.2331388,8.26288353 C105.233139,8.26288353 120.883139,8.26288353 136.953139,8.26288353 C135.593139,6.26288353 134.223139,5.42688353 132.863139,4.06088353 C132.503139,15.2098835 123.993139,23.6558835 112.853139,24.0198835 C101.703139,24.3838835 93.1831388,14.5818835 92.8331388,3.98188353 C92.6631388,-1.28711647 84.4731388,-1.33011647 84.6431388,3.95488353" id="Fill-137" fill="#FFFCE8"></path>
                <line x1="112.233139" y1="28.2628835" x2="112.233139" y2="84.2628835" id="Fill-138" fill="#FCDD90"></line>
                <path d="M109.233139,28.2628835 C109.233139,28.2628835 109.233139,65.2628835 109.233139,84.2628835 C109.233139,89.2628835 117.233139,89.2628835 117.233139,84.2628835 C117.233139,65.2628835 117.233139,46.2628835 117.233139,28.2628835 C117.233139,22.2628835 109.233139,22.2628835 109.233139,28.2628835 C109.233139,28.2628835 109.233139,22.2628835 109.233139,28.2628835" id="Fill-139" fill="#FFFCE8"></path>
                <line x1="129.203139" y1="23.2938835" x2="171.123139" y2="60.6818835" id="Fill-140" fill="#FCDD90"></line>
                <path d="M126.303139,26.1908835 C140.273139,38.6528835 154.253139,51.1158835 168.223139,63.5778835 C172.153139,67.0818835 177.973139,61.3088835 174.023139,57.7858835 C160.043139,45.3238835 146.073139,32.8608835 132.093139,20.3978835 C128.163139,16.8948835 122.353139,22.6678835 126.303139,26.1908835" id="Fill-141" fill="#FFFCE8"></path>
                <line x1="98.5631388" y1="23.2938835" x2="56.6431388" y2="60.6818835" id="Fill-142" fill="#FCDD90"></line>
                <path d="M95.6731388,20.3978835 C81.6931388,32.8608835 67.7231388,45.3238835 53.7431388,57.7858835 C49.7931388,61.3088835 55.6131388,67.0818835 59.5431388,63.5778835 C73.5131388,51.1158835 87.4831388,38.6528835 101.463139,26.1908835 C105.413139,22.6678835 99.6031388,16.8948835 95.6731388,20.3978835" id="Fill-143" fill="#FFFCE8"></path>
            </g>
        </g>
    </g>
</svg>