<?xml version="1.0" encoding="UTF-8"?>
<svg width="315px" height="215px" viewBox="0 0 315 215" version="1.1" xmlns="http://www.w3.org/2000/svg" xmlns:xlink="http://www.w3.org/1999/xlink">
    <title>Group</title>
    <g id="Page-1" stroke="none" stroke-width="1" fill="none" fill-rule="evenodd">
        <g id="memphis-vector-design" transform="translate(-324.000000, -216.000000)">
            <g id="Group" transform="translate(324.000000, 216.400000)">
                <path d="M292,4 C300.56,4 307.5,12.999 307.5,24.1 C307.5,35.201 300.56,44.2 292,44.2 C283.44,44.2 276.5,35.201 276.5,24.1 C276.5,12.999 283.44,4 292,4" id="Fill-683" fill="#FFFFFE"></path>
                <path d="M19.5,160.3 C28.06,160.3 35,169.299 35,180.4 C35,191.501 28.06,200.5 19.5,200.5 C10.94,200.5 4,191.501 4,180.4 C4,169.299 10.94,160.3 19.5,160.3" id="Fill-684" fill="#FFFFFE"></path>
                <path d="M92.7,214.5 L26.1,214.5 L26.1,174.5 L92.7,174.5 C105.1,174.5 115.2,164.4 115.2,152 L115.2,80.6 C115.2,46.1 143.2,18.1 177.7,18.1 L293.7,18.1 L293.7,58.1 L177.7,58.1 C165.3,58.1 155.2,68.2 155.2,80.6 L155.2,152 C155.2,186.5 127.1,214.5 92.7,214.5" id="Fill-685" fill="#F9D839"></path>
                <path d="M298.6,18.1 C307.16,18.1 314.1,27.099 314.1,38.2 C314.1,49.301 307.16,58.3 298.6,58.3 C290.04,58.3 283.1,49.301 283.1,38.2 C283.1,27.099 290.04,18.1 298.6,18.1" id="Fill-686" fill="#FFFFFE"></path>
                <path d="M134,100.2 L134,100.2 C136.2,100.2 138,98.4 138,96.2 L138,93.9 C138,91.7 136.2,89.9 134,89.9 C131.8,89.9 130,91.7 130,93.9 L130,96.2 C130,98.4 131.8,100.2 134,100.2" id="Fill-688" fill="#FFFFFE"></path>
                <path d="M169.3,24.9 C147.6,24.9 130,42.5 130,64.2 L130,71.3 C130,73.5 131.8,75.3 134,75.3 C136.2,75.3 138,73.5 138,71.3 L138,64.2 C138,46.9 152,32.9 169.3,32.9 L230,32.9 C232.2,32.9 234,31.1 234,28.9 C234,26.7 232.2,24.9 230,24.9 L169.3,24.9" id="Fill-689" fill="#FFFFFE"></path>
                <path d="M86.1,204.4 L15.5,204.4 L15.5,156.4 L86.1,156.4 C96.3,156.4 104.6,148.1 104.6,137.9 L104.6,66.5 C104.6,29.8 134.4,0 171.1,0 L291.1,0 L291.1,48 L171.1,48 C160.9,48 152.6,56.3 152.6,66.5 L152.6,137.9 C152.6,174.6 122.7,204.4 86.1,204.4 Z M23.5,196.4 L86.1,196.4 C118.3,196.4 144.6,170.2 144.6,137.9 L144.6,66.5 C144.6,51.9 156.5,40 171.1,40 L283.1,40 L283.1,8 L171.1,8 C138.9,8 112.6,34.2 112.6,66.5 L112.6,137.9 C112.6,152.5 100.7,164.4 86.1,164.4 L23.5,164.4 L23.5,196.4 L23.5,196.4 Z" id="Fill-936" fill="#0A0B09"></path>
                <path d="M292,4 C300.56,4 307.5,12.999 307.5,24.1 C307.5,35.201 300.56,44.2 292,44.2 C283.44,44.2 276.5,35.201 276.5,24.1 C276.5,12.999 283.44,4 292,4" id="Fill-937" fill="#FFFFFE"></path>
                <path d="M292,48.2 C281.2,48.2 272.5,37.4 272.5,24.1 C272.5,10.8 281.2,0 292,0 C302.8,0 311.5,10.8 311.5,24.1 C311.5,37.4 302.8,48.2 292,48.2 Z M292,8 C285.8,8 280.5,15.4 280.5,24.1 C280.5,32.8 285.8,40.2 292,40.2 C298.2,40.2 303.5,32.8 303.5,24.1 C303.5,15.4 298.2,8 292,8 L292,8 Z" id="Fill-938" fill="#0A0B09"></path>
                <path d="M19.5,160.3 C28.06,160.3 35,169.299 35,180.4 C35,191.501 28.06,200.5 19.5,200.5 C10.94,200.5 4,191.501 4,180.4 C4,169.299 10.94,160.3 19.5,160.3" id="Fill-939" fill="#FFFFFE"></path>
                <path d="M19.5,204.5 C8.7,204.5 0,193.7 0,180.4 C0,167.1 8.7,156.3 19.5,156.3 C30.3,156.3 39,167.1 39,180.4 C39,193.7 30.3,204.5 19.5,204.5 Z M19.5,164.3 C13.3,164.3 8,171.7 8,180.4 C8,189.1 13.3,196.5 19.5,196.5 C25.7,196.5 31,189.1 31,180.4 C31,171.7 25.7,164.3 19.5,164.3 L19.5,164.3 Z" id="Fill-940" fill="#0A0B09"></path>
            </g>
        </g>
    </g>
</svg>