<?xml version="1.0" encoding="UTF-8"?>
<svg width="207px" height="214px" viewBox="0 0 207 214" version="1.1" xmlns="http://www.w3.org/2000/svg" xmlns:xlink="http://www.w3.org/1999/xlink">
    <title>Group</title>
    <g id="Page-1" stroke="none" stroke-width="1" fill="none" fill-rule="evenodd">
        <g id="memphis-vector-design" transform="translate(-524.000000, -404.000000)">
            <g id="Group" transform="translate(524.000000, 404.000000)">
                <path d="M99,52 C143.734932,52 180,88.2650685 180,133 C180,177.734932 143.734932,214 99,214 C54.2650685,214 18,177.734932 18,133 C18,88.2650685 54.2650685,52 99,52" id="Fill-871" fill="#9FD5D8"></path>
                <path d="M57.4543451,147 C55.3461178,147 53.9086901,148.585728 54.0045186,150.544568 C54.1003471,152.596687 55.7294318,154.089136 57.6460021,153.995858 C59.6584008,153.90258 61,152.316852 61,150.264734 C60.9041715,148.399172 59.3709153,147 57.4543451,147" id="Fill-872" fill="#0A0B09"></path>
                <path d="M12.6005131,103.016609 C10.7143798,102.830804 9.2054731,104.224342 9.01685977,106.175297 C8.82824644,108.126251 10.2428464,109.798497 12.2232864,109.984303 C14.2037265,110.170108 15.9012465,108.683666 15.9955531,106.732712 C16.0898598,104.688855 14.6752598,103.109511 12.6005131,103.016609" id="Fill-873" fill="#0A0B09"></path>
                <path d="M116.454213,88 C114.441739,88.0932811 112.908426,89.6790604 113.004258,91.6379641 C113.195922,93.690149 114.441739,94.8095226 116.454213,94.9960848 C118.562519,95.089366 120,93.5035867 120,91.544683 C120,89.4924981 118.466687,88 116.454213,88" id="Fill-874" fill="#0A0B09"></path>
                <path d="M71.1824356,50.9842758 C73.184432,51.1703984 74.9004289,49.6814181 74.995762,47.7271316 C75.0910952,45.772845 73.5657646,44.0977423 71.6591014,44.004681 C69.7524381,43.9116197 68.2271075,45.2144774 68.0364412,47.168764 C67.7504417,49.2161118 69.1804391,50.7981533 71.1824356,50.9842758" id="Fill-875" fill="#0A0B09"></path>
                <path d="M130,50 C129.304348,49.6428571 128.695652,49.2857143 128,49 C128.434783,49.5 129.043478,49.8571429 130,50" id="Fill-876" fill="#0A0B09"></path>
                <path d="M27.5945946,147.00376 C25.7027027,147.00376 24,148.611004 24,150.50188 C24,152.392756 25.7027027,154 27.5945946,154 C29.4864865,154 30.9054054,152.581843 31,150.596424 C31,148.611004 29.4864865,146.909216 27.5945946,147.00376" id="Fill-877" fill="#0A0B09"></path>
                <path d="M116.454095,154 C118.466636,154 120,152.507502 120,150.455317 C120,148.496413 118.466636,146.910634 116.454095,147.003915 C114.537389,147.003915 112.908189,148.776257 113.004024,150.641879 C113.004024,152.414221 114.633224,154 116.454095,154" id="Fill-878" fill="#0A0B09"></path>
                <path d="M71.5084251,109.996242 C73.4901298,110.090729 75,108.389962 75,106.405733 C74.9056331,104.421504 73.301396,102.909711 71.3196913,103.004198 C69.2436198,103.098685 67.8281164,104.704965 68.0168502,106.689194 C68.205584,108.76791 69.5267204,109.901755 71.5084251,109.996242" id="Fill-879" fill="#0A0B09"></path>
                <path d="M57.4499564,88 C55.533314,88 54.0958321,89.3991198 54,91.3578875 C54,93.3166551 55.533314,94.9023242 57.4499564,94.9955989 C59.3665988,95.0888735 60.8999128,93.6897537 60.9957449,91.7309861 C61.091577,89.5856691 59.5582631,88 57.4499564,88" id="Fill-880" fill="#0A0B09"></path>
                <path d="M101.452055,44 C99.4383562,44 98,45.5135135 98,47.5945946 C98,49.4864865 99.5342466,51 101.452055,51 C103.465753,51 105,49.4864865 105,47.5 C105,45.5135135 103.465753,44 101.452055,44" id="Fill-881" fill="#0A0B09"></path>
                <path d="M12.6911757,132.004887 C10.6113433,131.907733 9.00420011,133.267893 9.00420011,135.308135 C8.90966227,137.44553 10.4222677,139 12.4075622,139 C14.4873946,139 16,137.542685 16,135.502443 C16,133.656511 14.5819325,132.102041 12.6911757,132.004887" id="Fill-882" fill="#0A0B09"></path>
                <path d="M71.5547254,192 C69.4518749,192 68.2092815,193.149893 68.0181132,195.258031 C67.826945,197.461993 69.1651226,198.899359 71.267973,198.995184 C73.3708235,199.091008 74.9001693,197.749466 74.9957534,195.641328 C75.0913375,193.629015 73.5619917,192 71.5547254,192" id="Fill-883" fill="#0A0B09"></path>
                <path d="M146.687205,147.00371 C144.796331,146.910473 143.094544,148.588736 143,150.453473 C143,152.224974 144.607243,153.903237 146.30903,153.996474 C148.10536,154.089711 149.996235,152.318211 149.996235,150.54671 C150.090778,148.77521 148.388992,147.00371 146.687205,147.00371" id="Fill-884" fill="#0A0B09"></path>
                <path d="M146.080835,88.0145928 C144.309557,88.1102215 142.91118,89.927166 143.004405,91.7441104 C143.09763,93.6566836 144.682457,95.0911134 146.54696,94.9954848 C148.411463,94.8998561 150.089516,93.1785403 149.996291,91.2659672 C149.903066,89.5446513 147.945337,87.8233355 146.080835,88.0145928" id="Fill-885" fill="#0A0B09"></path>
                <path d="M131.550488,103.003564 C129.538272,103.097895 128.100975,103.946875 128.005155,106.21082 C127.909335,108.380434 129.154993,109.795399 131.263028,109.984061 C133.275244,110.172723 134.90418,108.663427 135,106.682475 C135,104.701523 133.466883,102.909233 131.550488,103.003564" id="Fill-886" fill="#0A0B09"></path>
                <path d="M27.5992047,95 C29.5425163,95 31,93.4895929 31,91.5071837 C31,89.5247744 29.3481851,87.8255665 27.4048735,88.0143673 C25.3643963,88.2975687 24.0040782,89.2415731 24.0040782,91.5071837 C23.9069126,93.4895929 25.5587275,95 27.5992047,95" id="Fill-887" fill="#0A0B09"></path>
                <path d="M101.403038,110 C103.539209,110 105.092787,108.466744 104.995689,106.454345 C104.995689,104.346118 103.44211,102.90869 101.305939,103.004519 C99.363966,103.004519 97.907486,104.537775 98.0045846,106.550174 C98.0045846,108.562572 99.4610646,110 101.403038,110" id="Fill-888" fill="#0A0B09"></path>
                <path d="M160.358382,109.995542 C162.466687,110.090077 164,108.672061 164,106.592306 C164,104.418015 162.658351,103 160.454214,103 C158.537573,103 157.00426,104.607084 157.00426,106.497771 C156.908428,108.293924 158.441741,109.901008 160.358382,109.995542" id="Fill-889" fill="#0A0B09"></path>
                <path d="M160.5,140 C162.581081,140 164,138.465753 164,136.356164 C164,134.438356 162.486486,133.09589 160.5,133 C158.608108,133 157,134.438356 157,136.356164 C157,138.465753 158.513514,140 160.5,140" id="Fill-890" fill="#0A0B09"></path>
                <path d="M71.452113,162 C69.1535394,162 68.1958003,163.246575 68.0042525,165.356164 C67.9084786,167.369863 69.4408611,169 71.547887,169 C73.463365,169 74.9957475,167.465753 74.9957475,165.547945 C75.0915214,163.534247 73.5591389,162 71.452113,162" id="Fill-891" fill="#0A0B09"></path>
                <path d="M71.5503204,133 C69.4421829,133 68.1006408,134.245818 68.0048164,136.258292 C67.9089919,138.462431 69.250534,139.899913 71.3586715,139.995745 C73.3709846,140.091577 74.9041756,138.558263 75,136.449956 C75,134.533314 73.5626335,133.095832 71.5503204,133" id="Fill-892" fill="#0A0B09"></path>
                <path d="M42.3561644,162 C40.4383562,162 39.0958904,163.418919 39,165.5 C39,167.486486 40.3424658,169 42.260274,169 C44.2739726,169 46,167.391892 46,165.594595 C46,163.608108 44.369863,162 42.3561644,162" id="Fill-893" fill="#0A0B09"></path>
                <path d="M101.395233,192 C99.4550998,192 98,193.608108 98,195.5 C98.0970067,197.486486 99.5521065,199 101.395233,199 C103.529379,199 104.984479,197.581081 104.984479,195.5 C105.178492,193.513514 103.529379,192 101.395233,192" id="Fill-894" fill="#0A0B09"></path>
                <path d="M116.837341,177.030938 C115.016416,176.748578 113.099653,178.442738 113.003815,180.325137 C112.907977,182.113417 114.633064,183.995816 116.453988,183.995816 C118.274913,184.089936 119.904162,182.584016 120,180.701617 C120,178.536858 118.94578,177.313298 116.837341,177.030938" id="Fill-895" fill="#0A0B09"></path>
                <path d="M42.3542348,110 C44.2709404,110 45.9001402,108.581885 45.9959755,106.691065 C46.0918108,104.800245 44.462611,103.003966 42.5459054,103.003966 C40.5333645,102.909425 39,104.516622 39,106.596524 C39,108.487344 40.4375292,110 42.3542348,110" id="Fill-896" fill="#0A0B09"></path>
                <path d="M116.453988,118 C114.633064,118 112.907977,119.821918 113.003815,121.739726 C113.003815,123.657534 114.537226,125 116.549827,125 C118.658266,125 120,123.657534 120,121.643836 C120,119.630137 118.46659,118 116.453988,118" id="Fill-897" fill="#0A0B09"></path>
                <path d="M116.449826,65 C118.462225,65 119.899653,63.7361111 119.995481,61.6944444 C120.09131,59.4583333 118.653882,58 116.545655,58 C114.533256,58 113,59.5555556 113,61.5972222 C113,63.5416667 114.533256,65 116.449826,65" id="Fill-898" fill="#0A0B09"></path>
                <path d="M87.5498257,88 C85.6330623,88 83.9079751,89.7222563 84.0038133,91.6358744 C84.1954897,93.7408543 85.4413859,94.8890252 87.5498257,94.9847061 C89.5624274,95.1760679 91,93.5494925 91,91.3488317 C90.9041618,89.5308945 89.370751,88 87.5498257,88" id="Fill-899" fill="#0A0B09"></path>
                <path d="M101.269421,162 C99.3563038,162 98.2084334,163.165903 98.0171217,165.303391 C97.8258099,167.34372 99.260648,168.898257 101.173765,168.995416 C103.278194,169.092574 104.904344,167.635196 105,165.594866 C105,163.554537 103.660818,162.097159 101.269421,162" id="Fill-900" fill="#0A0B09"></path>
                <path d="M131.454345,162.00402 C129.346118,162.099856 128.100347,163.24988 128.004519,165.358257 C127.90869,167.466635 129.346118,169 131.454345,169 C133.370915,169 134.904171,167.56247 135,165.645763 C134.904171,163.537386 133.466744,161.908185 131.454345,162.00402" id="Fill-901" fill="#0A0B09"></path>
                <path d="M87.6438356,147 C85.8219178,147 84,148.68 84,150.546667 C84,152.32 85.9178082,154 87.739726,154 C89.5616438,154 91,152.413333 91,150.453333 C90.9041096,148.493333 89.4657534,147 87.6438356,147" id="Fill-902" fill="#0A0B09"></path>
                <path d="M101.356164,140 C103.465753,140 105,138.564792 105,136.459821 C105,134.25917 103.753425,133.206684 101.643836,133.015323 C99.630137,132.823962 98,134.450531 98,136.459821 C98,138.564792 99.4383562,140 101.356164,140" id="Fill-903" fill="#0A0B09"></path>
                <path d="M42.2109824,139.995978 C44.2512226,140.091813 45.9028457,138.462613 46,136.450071 C46,134.6292 44.4455312,133.095835 42.5024453,133 C40.4622051,133 39.0048906,134.43753 39.0048906,136.354236 C38.9077363,138.558448 40.2678965,139.995978 42.2109824,139.995978" id="Fill-904" fill="#0A0B09"></path>
                <path d="M31,61.4349677 C31,60.8609806 30.9019608,60.382658 30.6078431,60 C29.0392157,61.5306322 27.4705882,63.0612643 26,64.687561 C26.4901961,64.87889 27.0784314,65.0702191 27.6666667,64.9745545 C29.5294118,64.87889 31,63.2525934 31,61.4349677" id="Fill-905" fill="#0A0B09"></path>
                <path d="M71.4501734,73.0045247 C69.3417341,73.0045247 68,74.3461227 68,76.3585197 C68,78.3709167 69.5334104,80 71.5460115,80 C73.3669363,80 75.092023,78.1792598 74.9961849,76.2626913 C74.9961849,74.3461227 73.4627745,72.9086962 71.4501734,73.0045247" id="Fill-906" fill="#0A0B09"></path>
                <path d="M101.307973,80 C103.251145,80 105,78.369863 105,76.3561644 C105,74.3424658 103.63978,73 101.502291,73 C99.3648016,73 97.9074228,74.3424658 98.0045814,76.3561644 C97.9074228,78.369863 99.4619602,80 101.307973,80" id="Fill-907" fill="#0A0B09"></path>
                <path d="M57.5994508,64.99518 C59.6397803,64.8993556 61,63.5578142 61,61.5455022 C61,59.4373658 59.5426218,58 57.4051337,58 C55.3648041,58 53.9074259,59.6290145 54.0045844,61.737151 C54.0045844,63.749463 55.5591212,65.0910044 57.5994508,64.99518" id="Fill-908" fill="#0A0B09"></path>
                <path d="M146.504794,65 C147.003196,65 147.501598,64.9019608 148,64.7058824 C146.504794,63.0392157 145.009588,61.4705882 143.414701,60 C143.21534,60.3921569 143.11566,60.8823529 143.01598,61.4705882 C142.816619,63.3333333 144.511186,65 146.504794,65" id="Fill-909" fill="#0A0B09"></path>
                <path d="M131.500573,79.9956838 C133.442434,79.9956838 135.093016,78.1508903 134.995923,76.2090025 C134.89883,74.2671147 133.345341,72.9077932 131.306387,73.0048876 C129.17034,73.101982 127.908131,74.4613034 128.005224,76.5973801 C128.102317,78.5392679 129.655805,80.0927781 131.500573,79.9956838" id="Fill-910" fill="#0A0B09"></path>
                <path d="M131.595003,140 C133.538247,140 135.092843,138.369863 134.995681,136.260274 C134.898519,134.342466 133.343923,133 131.400678,133 C129.360271,133.09589 128,134.438356 128,136.452055 C128,138.561644 129.457433,140 131.595003,140" id="Fill-911" fill="#0A0B09"></path>
                <path d="M60.9957451,120.781068 C61.0915154,118.648158 59.5591918,117 57.5480171,117 C55.7283829,117 54.1960593,118.551208 54.0045189,120.490217 C53.9087487,122.429226 55.345302,123.980434 57.3564767,123.980434 C59.4634216,124.174335 60.8999749,122.913979 60.9957451,120.781068" id="Fill-912" fill="#0A0B09"></path>
                <path d="M27.3625336,124.995112 C29.3703608,125.092213 30.9001338,123.732804 30.9957447,121.790791 C31.0913555,119.848778 29.5615824,118.100966 27.8405877,118.003865 C26.0239821,117.906765 24.0161549,119.654576 24.0161549,121.499489 C23.8249333,123.344401 25.3547064,124.898011 27.3625336,124.995112" id="Fill-913" fill="#0A0B09"></path>
                <path d="M146.407562,125 C148.203781,125 150,123.273973 150,121.643836 C150,119.917808 148.014705,118 146.313024,118 C144.705881,118.09589 143.0042,119.821918 143.0042,121.643836 C142.909662,123.561644 144.422268,125 146.407562,125" id="Fill-914" fill="#0A0B09"></path>
                <path d="M42.3561644,80 C44.1780822,80 46,78.1527778 46,76.3055556 C46,74.4583333 44.4657534,73 42.3561644,73 C40.2465753,73 39.0958904,74.0694444 39,76.1111111 C39,78.25 40.4383562,80 42.3561644,80" id="Fill-915" fill="#0A0B09"></path>
                <path d="M57.5497327,177 C55.7287582,177 53.9077838,178.797297 54.0036246,180.689189 C54.0994653,182.486486 55.7287582,184 57.6455734,184 C59.5623886,184 61,182.486486 61,180.5 C61,178.608108 59.3707071,177 57.5497327,177" id="Fill-916" fill="#0A0B09"></path>
                <path d="M87.4979598,65 C89.4412708,65 91.0930852,63.5624704 90.9959196,61.6457642 C90.8987541,59.6332226 90.0242641,58.195693 87.6922909,58.0040224 C85.7489799,57.9081871 84,59.5373873 84,61.5499288 C84,63.2749644 85.6518144,65 87.4979598,65" id="Fill-917" fill="#0A0B09"></path>
                <path d="M87.5064366,124.995683 C89.4473052,125.092792 91,123.539054 91,121.596882 C91,119.65471 89.3502617,117.906755 87.6034801,118.003864 C85.8566984,118.003864 83.8187864,120.043144 84.0128733,121.791099 C84.3040035,123.636163 85.4685247,124.898575 87.5064366,124.995683" id="Fill-918" fill="#0A0B09"></path>
                <path d="M87.4520548,177.003764 C85.8219178,177.098307 84,178.989182 84,180.596426 C84.0958904,182.203669 85.9178082,184 87.6438356,184 C89.369863,184 91,182.203669 91,180.407338 C90.9041096,178.611007 89.1780822,176.90922 87.4520548,177.003764" id="Fill-919" fill="#0A0B09"></path>
                <path d="M86.5,206 C38.7950644,206 0,167.204936 0,119.5 C0,71.7950644 38.7950644,33 86.5,33 C134.204936,33 173,71.7950644 173,119.5 C172.907189,167.204936 134.204936,206 86.5,206 Z M86.5,43.4876609 C44.5493562,43.4876609 10.3948498,77.6421674 10.3948498,119.592811 C10.3948498,161.543455 44.5493562,195.697961 86.5,195.697961 C128.450644,195.697961 162.60515,161.543455 162.60515,119.592811 C162.60515,77.6421674 128.450644,43.4876609 86.5,43.4876609 L86.5,43.4876609 Z" id="Fill-920" fill="#0A0B09"></path>
                <path d="M190.142763,169.440753 L190.142763,169.440753 C186.537842,168.04792 184.689165,164.055134 185.798371,160.433769 C188.201652,152.35534 191.899007,137.405604 192.176308,120.134481 C192.730911,86.2422225 180.714508,59.4069823 156.4044,40.4644598 C106.767412,1.55800423 57.7774602,16.6934511 41.2317974,23.6576138 C37.8117442,25.1433019 33.8370878,23.7504693 31.9884103,20.5005267 C29.7699974,16.6005956 31.4338071,11.679254 35.5008974,10.007855 C42.8956071,6.85076787 55.2817457,2.57941476 70.9955038,0.815160209 C94.381273,-1.87764936 129.783445,0.815160209 165.555353,28.857522 C193.470382,50.6785651 207.797632,82.5280024 206.965727,120.97018 C206.595992,139.819847 202.713769,155.883849 200.033187,164.797978 C198.739113,168.88362 194.209853,171.112152 190.142763,169.440753" id="Fill-921" fill="#F9D839"></path>
            </g>
        </g>
    </g>
</svg>