<?xml version="1.0" encoding="UTF-8"?>
<svg width="169px" height="114px" viewBox="0 0 169 114" version="1.1" xmlns="http://www.w3.org/2000/svg" xmlns:xlink="http://www.w3.org/1999/xlink">
    <title>Group</title>
    <g id="Page-1" stroke="none" stroke-width="1" fill="none" fill-rule="evenodd">
        <g id="memphis-vector-design" transform="translate(-688.000000, -680.000000)">
            <g id="Group" transform="translate(688.323595, 680.000000)">
                <path d="M59.1764047,6.1 C85.9074047,6.1 107.576405,27.769 107.576405,54.5 C107.576405,81.231 85.9074047,102.9 59.1764047,102.9 C32.4454047,102.9 10.7764047,81.231 10.7764047,54.5 C10.7764047,27.769 32.4454047,6.1 59.1764047,6.1" id="Fill-3" fill="#F9D839"></path>
                <path d="M91.4764047,35 C90.6764047,31.4 89.2764047,25.9 86.7764047,20.5 C80.6764047,7.1 71.5764047,-1.13686838e-13 60.2764047,-1.13686838e-13 L60.1764047,-1.13686838e-13 C49.0764047,-1.13686838e-13 39.5764047,6.9 32.6764047,20 C29.8764047,25.3 27.9764047,30.8 26.9764047,34.4 C26.3764047,36.4 26.7764047,38.7 27.9764047,40.4 C28.9764047,41.7 30.3764047,42.5 31.9764047,42.5 C34.2764047,42.5 36.2764047,40.8 36.9764047,38.3 C37.7764047,35.6 39.1764047,31.4 41.6764047,26.7 C46.5764047,17.4 52.7764047,12.8 60.0764047,12.8 L60.1764047,12.8 C67.3764047,12.8 73.0764047,17.5 77.2764047,26.6 C79.3764047,31.2 80.4764047,35.4 81.0764047,38.1 C81.6764047,40.8 83.7764047,42.7 86.2764047,42.7 C87.7764047,42.7 89.1764047,42 90.1764047,40.8 C91.4764047,39.1 91.9764047,37 91.4764047,35" id="Fill-943" fill="#0A0B09"></path>
                <path d="M168.076405,65.8 C167.476405,62.9 166.276405,58.4 164.276405,53.9 C159.376405,43 151.876405,37.2 142.676405,37.1 L142.576405,37.1 C133.476405,37.1 125.776405,42.7 120.076405,53.4 C117.776405,57.8 116.276405,62.2 115.376405,65.2 C114.876405,66.9 115.176405,68.7 116.176405,70.1 C116.976405,71.2 118.176405,71.8 119.476405,71.8 C121.376405,71.8 122.976405,70.4 123.576405,68.4 C124.176405,66.2 125.376405,62.8 127.476405,58.9 C131.476405,51.3 136.576405,47.5 142.476405,47.5 C142.476405,47.5 142.476405,47.5 142.576405,47.5 C148.476405,47.5 153.176405,51.3 156.576405,58.8 C158.276405,62.6 159.176405,66 159.676405,68.2 C160.176405,70.4 161.876405,72 163.876405,72 C165.076405,72 166.276405,71.4 167.076405,70.4 C167.976405,69.2 168.376405,67.4 168.076405,65.8" id="Fill-944" fill="#0A0B09"></path>
                <path d="M42.5764047,91 C42.0764047,88.6 41.0764047,85 39.4764047,81.4 C35.4764047,72.6 29.4764047,67.9 22.0764047,67.9 L21.9764047,67.9 C14.6764047,67.9 8.47640469,72.4 3.87640469,81.1 C1.97640469,84.6 0.776404687,88.2 0.176404687,90.6 C-0.223595313,91.9 0.0764046867,93.4 0.876404687,94.5 C1.57640469,95.4 2.47640469,95.9 3.47640469,95.9 C4.97640469,95.9 6.27640469,94.8 6.77640469,93.2 C7.27640469,91.4 8.27640469,88.7 9.87640469,85.6 C13.0764047,79.5 17.1764047,76.4 21.9764047,76.4 C21.9764047,76.4 21.9764047,76.4 22.0764047,76.4 C26.7764047,76.4 30.5764047,79.5 33.3764047,85.5 C34.7764047,88.5 35.4764047,91.3 35.8764047,93.1 C36.2764047,94.9 37.6764047,96.2 39.2764047,96.2 C40.2764047,96.2 41.1764047,95.7 41.7764047,94.9 C42.5764047,93.7 42.8764047,92.3 42.5764047,91" id="Fill-945" fill="#0A0B09"></path>
                <path d="M102.976405,109.8 C102.676405,108.2 101.976405,105.8 100.876405,103.4 C98.1764047,97.5 94.1764047,94.4 89.2764047,94.4 C89.2764047,94.4 89.2764047,94.4 89.1764047,94.4 C84.2764047,94.4 80.1764047,97.4 77.0764047,103.2 C75.8764047,105.5 75.0764047,107.9 74.5764047,109.5 C74.2764047,110.4 74.4764047,111.4 74.9764047,112.1 C75.3764047,112.7 76.0764047,113 76.6764047,113 C77.6764047,113 78.5764047,112.3 78.8764047,111.2 C79.1764047,110 79.8764047,108.2 80.9764047,106.1 C83.1764047,102 85.8764047,100 89.0764047,100 C92.2764047,100 94.7764047,102 96.5764047,106 C97.4764047,108 97.9764047,109.9 98.2764047,111.1 C98.5764047,112.3 99.4764047,113.1 100.576405,113.1 C101.176405,113.1 101.876405,112.8 102.276405,112.3 C102.976405,111.6 103.176405,110.7 102.976405,109.8" id="Fill-946" fill="#0A0B09"></path>
            </g>
        </g>
    </g>
</svg>