<?xml version="1.0" encoding="UTF-8"?>
<svg width="412px" height="155px" viewBox="0 0 412 155" version="1.1" xmlns="http://www.w3.org/2000/svg" xmlns:xlink="http://www.w3.org/1999/xlink">
    <title>Group</title>
    <g id="Page-1" stroke="none" stroke-width="1" fill="none" fill-rule="evenodd">
        <g id="memphis-vector-design" transform="translate(-912.000000, -419.000000)">
            <g id="Group" transform="translate(912.800000, 419.800000)">
                <path d="M379,5.68434189e-14 C396.342,5.68434189e-14 410.4,14.058 410.4,31.4 C410.4,48.742 396.342,62.8 379,62.8 C361.658,62.8 347.6,48.742 347.6,31.4 C347.6,14.058 361.658,5.68434189e-14 379,5.68434189e-14" id="Fill-5" fill="#9FD5D8"></path>
                <path d="M351,153.5 C323.8,153.5 302.9,127.4 294.3,101.4 L293.3,98.5 C285.4,77.4 270.6,63 256.6,63 L256.5,63 C233.7,63.1 223,87 218.6,101.2 C208.4,134.3 187.7,153.4 161.7,153.5 C161.6,153.5 161.6,153.5 161.5,153.5 C134.3,153.5 113.4,127.4 104.8,101.4 L103.8,98.4 C95.9,77.3 81.1,62.9 67.1,62.9 L67,62.9 C44.2,63 33.5,86.9 29.1,101.1 L10,95.2 C20.2,62.1 40.9,43 66.9,42.9 C67,42.9 67,42.9 67.1,42.9 C94.3,42.9 115.2,69 123.8,95 L124.8,98 C132.7,119.1 147.5,133.5 161.5,133.5 L161.6,133.5 C184.4,133.4 195.1,109.5 199.5,95.3 C209.7,62.2 230.4,43.1 256.4,43 C256.5,43 256.5,43 256.6,43 C283.8,43 304.7,69.1 313.3,95.1 L314.3,98 C322.2,119.1 337,133.5 351,133.5 L351.1,133.5 C373.9,133.4 384.6,109.5 389,95.3 L408.1,101.2 C397.9,134.3 377.2,153.4 351.2,153.5 C351.2,153.5 351.1,153.5 351,153.5" id="Fill-868" fill="#0A0B09"></path>
                <path d="M9.8,114.6 C15.212,114.6 19.6,118.988 19.6,124.4 C19.6,129.812 15.212,134.2 9.8,134.2 C4.388,134.2 0,129.812 0,124.4 C0,118.988 4.388,114.6 9.8,114.6" id="Fill-870" fill="#0A0B09"></path>
            </g>
        </g>
    </g>
</svg>