<?xml version="1.0" encoding="UTF-8"?>
<svg width="194px" height="56px" viewBox="0 0 194 56" version="1.1" xmlns="http://www.w3.org/2000/svg" xmlns:xlink="http://www.w3.org/1999/xlink">
    <title>Group</title>
    <g id="Page-1" stroke="none" stroke-width="1" fill="none" fill-rule="evenodd">
        <g id="memphis-vector-design" transform="translate(-878.000000, -863.000000)">
            <g id="Group" transform="translate(878.100000, 863.000000)">
                <path d="M54.4,9 C54.4,11.1 56.5,13.1 58.6,13.2 C60.9,13.3 63,11.1 63,8.9 C63,6.7 61,4.7 58.8,4.7 C56.6,4.6 54.4,6.8 54.4,9" id="Fill-737" fill="#DD3D72"></path>
                <path d="M113.6,23.3 C111.3,23.4 109.4,25.2 109.4,27.5 C109.4,30 111.2,31.8 113.7,31.8 C116.3,31.8 118,30.1 118,27.5 C118,25.1 116,23.2 113.6,23.3" id="Fill-753" fill="#DD3D72"></path>
                <path d="M21.9,41.6 C19.6,41.5 17.5,43.7 17.6,46 C17.7,48.2 19.7,50.2 21.8,50.2 C24,50.2 26.3,47.9 26.2,45.8 C26.1,43.8 24,41.7 21.9,41.6" id="Fill-769" fill="#DD3D72"></path>
                <path d="M128.3,45.7 C128.3,45.8 128.3,45.9 128.3,46.1 C129.3,44.7 130.2,43.3 131.2,42 C129.6,42.5 128.4,43.9 128.3,45.7" id="Fill-770" fill="#DD3D72"></path>
                <path d="M95.9,13.2 C98,13 100.1,10.9 100,8.8 C99.9,6.8 97.7,4.6 95.7,4.6 C93.5,4.6 91.4,6.8 91.5,9.2 C91.6,11.4 93.8,13.4 95.9,13.2" id="Fill-775" fill="#DD3D72"></path>
                <path d="M169.7,4.7 C167.3,4.6 165.3,6.7 165.5,9.1 C165.6,10.4 166,11.3 166.7,12 C169.1,10.9 171.5,9.9 174,8.9 C174,8.9 174,8.9 174,8.8 C174,6.8 171.9,4.8 169.7,4.7" id="Fill-776" fill="#DD3D72"></path>
                <path d="M39.9,23.3 C37.6,23.2 35.6,25 35.5,27.3 C35.4,29.8 37.2,31.8 39.7,31.8 C42.4,31.8 44,30.2 44,27.6 C44,25.1 42.3,23.4 39.9,23.3" id="Fill-784" fill="#DD3D72"></path>
                <path d="M132.6,4.7 C130.3,4.8 128.4,6.8 128.3,8.9 C128.3,11.1 130.5,13.2 132.8,13.1 C134.9,13 136.9,10.9 136.9,8.7 C136.8,6.6 134.7,4.6 132.6,4.7" id="Fill-799" fill="#DD3D72"></path>
                <path d="M21.8,13.2 C23.9,13.1 26.3,10.7 26.2,8.7 C26.1,6.7 23.8,4.7 21.7,4.7 C19.6,4.7 17.6,6.9 17.6,9 C17.6,11.2 19.7,13.3 21.8,13.2" id="Fill-821" fill="#DD3D72"></path>
                <path d="M80.8,27.5 C80.8,25.1 79.1,23.3 76.8,23.3 C74.3,23.3 72.4,25.1 72.4,27.5 C72.4,30 74.2,31.7 76.8,31.7 C79.1,31.6 80.8,29.9 80.8,27.5" id="Fill-837" fill="#DD3D72"></path>
                <path d="M179.3,40 L27.3,40 L27.3,0 L179.3,0 C187.1,0 193.3,6.3 193.3,14 L193.3,26 C193.3,33.7 187,40 179.3,40" id="Fill-860" fill="#DD3D72"></path>
                <path d="M24.6,0.1 C32.939,0.1 39.7,9.009 39.7,20 C39.7,30.991 32.939,39.9 24.6,39.9 C16.26,39.9 9.5,30.991 9.5,20 C9.5,9.009 16.26,0.1 24.6,0.1" id="Fill-861" fill="#FFFFFE"></path>
                <path d="M173.8,55.8 L17.8,55.8 L17.8,7.8 L173.8,7.8 C183.7,7.8 191.800916,15.9 191.800916,25.8 L191.800916,37.7 C191.9,47.7 183.8,55.8 173.8,55.8 Z M25.8,47.8 L173.8,47.8 C179.3,47.8 183.8,43.3 183.8,37.8 L183.8,25.9 C183.8,20.4 179.3,15.9 173.8,15.9 L25.8,15.9 L25.8,47.8 L25.8,47.8 Z" id="Fill-862" fill="#0A0B09"></path>
                <path d="M19.1,11.9 C27.439,11.9 34.2,20.81 34.2,31.8 C34.2,42.791 27.439,51.7 19.1,51.7 C10.76,51.7 4,42.791 4,31.8 C4,20.81 10.76,11.9 19.1,11.9" id="Fill-863" fill="#FFFFFE"></path>
                <path d="M19.1,11.9 C27.439,11.9 34.2,20.81 34.2,31.8 C34.2,42.791 27.439,51.7 19.1,51.7 C10.76,51.7 4,42.791 4,31.8 C4,20.81 10.76,11.9 19.1,11.9" id="Fill-864" fill="#FFFFFE"></path>
                <path d="M19.1,55.6 C8.6,55.6 1.13686838e-13,44.9 1.13686838e-13,31.7 C1.13686838e-13,18.5 8.6,7.8 19.1,7.8 C29.6,7.8 38.2,18.5 38.2,31.7 C38.2,44.9 29.6,55.6 19.1,55.6 Z M19.1,15.9 C13.1,15.9 8,23.2 8,31.8 C8,40.4 13.1,47.7 19.1,47.7 C25.1,47.7 30.2,40.4 30.2,31.8 C30.2,23.2 25.1,15.9 19.1,15.9 L19.1,15.9 Z" id="Fill-865" fill="#0A0B09"></path>
                <path d="M115.6,30 L55.3,30 C52.5,30 50.3,27.8 50.3,25 C50.3,22.2 52.5,20 55.3,20 L115.6,20 C118.4,20 120.6,22.2 120.6,25 C120.6,27.8 118.3,30 115.6,30" id="Fill-866" fill="#FFFFFE"></path>
                <path d="M136.4,30 L134.7,30 C131.9,30 129.7,27.8 129.7,25 C129.7,22.2 131.9,20 134.7,20 L136.4,20 C139.2,20 141.4,22.2 141.4,25 C141.4,27.8 139.2,30 136.4,30" id="Fill-867" fill="#FFFFFE"></path>
            </g>
        </g>
    </g>
</svg>