<?xml version="1.0" encoding="UTF-8"?>
<svg width="811px" height="714px" viewBox="0 0 811 714" version="1.1" xmlns="http://www.w3.org/2000/svg" xmlns:xlink="http://www.w3.org/1999/xlink">
    <title>Group</title>
    <g id="Page-1" stroke="none" stroke-width="1" fill="none" fill-rule="evenodd">
        <g id="Group" transform="translate(0.129517, 0.306531)" fill-rule="nonzero">
            <path d="M801.300483,126.503469 C783.380483,157.553469 743.540483,168.223469 712.490483,150.303469 C681.450483,132.373469 670.770483,92.5434693 688.700483,61.4934693 C706.620483,30.4434693 746.460483,19.7734693 777.500483,37.6934693 C808.550483,55.6234693 819.230483,95.4634693 801.300483,126.503469" id="Fill-23" fill="#16D6C8"></path>
            <path d="M644.650483,282.003469 C633.620483,301.113469 609.100483,307.673469 589.990483,296.643469 C570.890483,285.613469 564.320483,261.103469 575.350483,241.993469 C586.380483,222.893469 610.900483,216.323469 630.000483,227.353469 C649.110483,238.383469 655.680483,262.903469 644.650483,282.003469" id="Fill-26" fill="#393939"></path>
            <path d="M130.630483,105.003469 C111.330483,138.443469 68.4304827,149.933469 34.9904827,130.633469 C1.5604827,111.333469 -9.9395173,68.4234693 9.3704827,34.9934693 C28.6704827,1.55946931 71.5704827,-9.93653069 105.010483,9.36646931 C138.440483,28.6734693 149.940483,71.5734693 130.630483,105.003469" id="Fill-27" fill="#393939"></path>
            <path d="M681.260483,707.413469 C690.580483,698.093469 688.570483,682.323469 677.060483,675.893469 C648.500483,659.953469 617.690483,664.353469 591.950483,668.033469 C559.740483,672.633469 539.050483,674.523469 520.550483,656.013469 C502.040483,637.513469 503.920483,616.823469 508.530483,584.603469 C513.090483,552.623469 518.780483,512.823469 485.190483,479.243469 C451.600483,445.653469 411.810483,451.343469 379.830483,455.903469 C347.610483,460.513469 326.920483,462.393469 308.420483,443.893469 C289.910483,425.383469 291.790483,404.693469 296.400483,372.473469 C300.960483,340.493469 306.650483,300.693469 273.060483,267.103469 C239.470483,233.523469 199.680483,239.203469 167.700483,243.763469 C142.100483,247.423469 123.780483,249.363469 108.050483,240.733469 C100.160483,236.403469 90.4004827,237.613469 84.0404827,243.973469 C74.7104827,253.303469 76.7304827,269.063469 88.2404827,275.493469 C116.800483,291.443469 147.610483,287.043469 173.350483,283.363469 C205.580483,278.763469 226.270483,276.883469 244.770483,295.393469 C263.280483,313.893469 261.400483,334.583469 256.800483,366.813469 C252.230483,398.793469 246.550483,438.583469 280.140483,472.173469 C313.720483,505.763469 353.520483,500.073469 385.490483,495.503469 C417.710483,490.903469 438.400483,489.023469 456.910483,507.523469 C475.410483,526.033469 473.530483,546.713469 468.930483,578.943469 C464.360483,610.913469 458.670483,650.713469 492.260483,684.303469 C525.850483,717.883469 565.640483,712.193469 597.610483,707.633469 C623.210483,703.973469 641.520483,702.033469 657.250483,710.663469 C665.140483,714.983469 674.900483,713.773469 681.260483,707.413469" id="Fill-114" fill="#16D6C8"></path>
        </g>
    </g>
</svg>