<?xml version="1.0" encoding="UTF-8"?>
<svg width="1002px" height="798px" viewBox="0 0 1002 798" version="1.1" xmlns="http://www.w3.org/2000/svg" xmlns:xlink="http://www.w3.org/1999/xlink">
    <title>Fill 3</title>
    <g id="Page-1" stroke="none" stroke-width="1" fill="none" fill-rule="evenodd">
        <g id="cat-01" transform="translate(-750.000000, -601.000000)" fill="#2D2E2C">
            <path d="M1574.45,1132.79 L1536.87,1121.03 C1531.7,1119.41 1526.19,1122.29 1524.57,1127.47 C1522.95,1132.64 1525.83,1138.15 1531.01,1139.77 L1568.76,1151.58 C1561.38,1173.44 1551.41,1195.13 1538.84,1216.58 C1538.75,1216.73 1538.66,1216.89 1538.58,1217.05 C1538.37,1217.46 1516.79,1258.74 1472.28,1299.09 C1413.04,1352.81 1343.39,1379.59 1265.15,1378.68 C1260.39,1378.62 1255.59,1378.6 1250.79,1378.6 C1245.99,1378.6 1241.19,1378.62 1236.42,1378.68 C1158.23,1379.55 1088.53,1352.8 1029.29,1299.09 C984.779,1258.74 963.205,1217.46 962.996,1217.06 C962.913,1216.89 962.825,1216.73 962.732,1216.58 C950.159,1195.13 940.192,1173.44 932.809,1151.58 L970.562,1139.77 C975.737,1138.15 978.62,1132.64 977.001,1127.47 C975.382,1122.29 969.874,1119.41 964.697,1121.03 L927.117,1132.79 C925.284,1125.96 923.703,1119.12 922.374,1112.27 L967.629,1112.27 C973.053,1112.27 977.449,1107.87 977.449,1102.45 C977.449,1097.02 973.053,1092.63 967.629,1092.63 L919.259,1092.63 C918.327,1085.07 917.696,1077.5 917.372,1069.91 L959.229,1086.09 C960.392,1086.54 961.589,1086.75 962.766,1086.75 C966.705,1086.75 970.422,1084.36 971.927,1080.47 C973.882,1075.41 971.366,1069.72 966.308,1067.77 L917.255,1048.81 C917.78,1032.29 919.73,1015.72 923.138,999.122 C934.468,943.946 958.424,909.115 958.657,908.78 C960.203,906.574 960.775,903.829 960.238,901.189 C924.463,725.214 941.095,645.929 948.192,623.202 C1084.48,660.114 1158.35,756.164 1159.09,757.143 C1161.65,760.544 1166.11,761.905 1170.13,760.52 C1191.98,752.985 1220.14,752.515 1234.99,752.904 C1245.47,753.179 1256.1,753.179 1266.58,752.904 C1281.43,752.518 1309.59,752.986 1331.44,760.52 C1335.46,761.907 1339.92,760.545 1342.48,757.143 C1343.22,756.158 1416.77,660.186 1553.37,623.202 C1560.5,646.023 1577.09,725.317 1541.33,901.189 C1540.8,903.82 1541.37,906.566 1542.91,908.77 C1543.15,909.115 1567.1,943.946 1578.43,999.122 C1581.84,1015.72 1583.79,1032.29 1584.32,1048.81 L1535.26,1067.77 C1530.2,1069.72 1527.69,1075.41 1529.64,1080.47 C1531.15,1084.36 1534.87,1086.75 1538.8,1086.75 C1539.98,1086.75 1541.18,1086.54 1542.34,1086.09 L1584.2,1069.91 C1583.88,1077.5 1583.24,1085.07 1582.31,1092.63 L1533.94,1092.63 C1528.52,1092.63 1524.12,1097.02 1524.12,1102.45 C1524.12,1107.87 1528.52,1112.27 1533.94,1112.27 L1579.2,1112.27 C1577.87,1119.12 1576.29,1125.96 1574.45,1132.79 Z M1741.75,1112.27 C1747.17,1112.27 1751.57,1107.87 1751.57,1102.45 C1751.57,1097.02 1747.17,1092.63 1741.75,1092.63 L1601.81,1092.63 C1603.02,1082.15 1603.66,1072.03 1603.84,1062.32 L1740.43,1009.52 C1745.49,1007.57 1748,1001.88 1746.05,996.826 C1744.09,991.766 1738.41,989.25 1733.35,991.207 L1603.51,1041.39 C1602.64,1023.95 1600.37,1008.12 1597.48,994.26 C1587.26,945.233 1568.11,911.818 1561.38,901.137 C1605.28,682.215 1569.73,609.956 1568.18,606.971 C1566.1,602.935 1561.51,600.856 1557.1,601.951 C1426.14,634.419 1349.77,717.524 1331.17,739.871 C1309.09,733.653 1283.99,732.797 1266.07,733.272 C1255.93,733.537 1245.64,733.537 1235.5,733.272 C1217.58,732.797 1192.48,733.651 1170.41,739.871 C1151.8,717.524 1075.43,634.419 944.472,601.951 C940.063,600.857 935.476,602.934 933.387,606.971 C931.843,609.956 896.288,682.215 940.193,901.137 C933.459,911.818 914.309,945.233 904.089,994.26 C901.201,1008.12 898.934,1023.95 898.062,1041.39 L768.22,991.207 C763.163,989.247 757.476,991.768 755.521,996.826 C753.567,1001.88 756.083,1007.57 761.141,1009.52 L897.734,1062.32 C897.907,1072.03 898.55,1082.15 899.765,1092.63 L759.819,1092.63 C754.396,1092.63 750,1097.02 750,1102.45 C750,1107.87 754.396,1112.27 759.819,1112.27 L902.67,1112.27 C904.218,1120.85 906.176,1129.63 908.579,1138.59 L766.609,1183.01 C761.434,1184.63 758.551,1190.13 760.17,1195.31 C761.484,1199.51 765.358,1202.2 769.539,1202.2 C770.51,1202.2 771.498,1202.05 772.474,1201.75 L914.215,1157.4 C921.583,1179.54 931.803,1202.61 945.663,1226.29 C947.765,1230.31 969.98,1271.65 1015.53,1313.13 C1058.94,1352.65 1132.52,1399.53 1236.65,1398.32 C1246.03,1398.21 1255.54,1398.21 1264.93,1398.32 C1266.24,1398.33 1267.54,1398.34295 1268.84,1398.34295 C1370.87,1398.33 1443.18,1352.15 1486.04,1313.13 C1531.59,1271.65 1553.81,1230.31 1555.91,1226.29 C1569.77,1202.61 1579.99,1179.54 1587.36,1157.4 L1729.1,1201.75 C1730.07,1202.05 1731.06,1202.2 1732.03,1202.2 C1736.21,1202.2 1740.09,1199.51 1741.4,1195.31 C1743.02,1190.13 1740.14,1184.63 1734.96,1183.01 L1592.99,1138.59 C1595.4,1129.63 1597.35,1120.85 1598.9,1112.27 L1741.75,1112.27 L1741.75,1112.27 Z" id="Fill-3"></path>
        </g>
    </g>
</svg>