<?xml version="1.0" encoding="UTF-8"?>
<svg width="870px" height="963px" viewBox="0 0 870 963" version="1.1" xmlns="http://www.w3.org/2000/svg" xmlns:xlink="http://www.w3.org/1999/xlink">
    <title>Group 4</title>
    <g id="Page-1" stroke="none" stroke-width="1" fill="none" fill-rule="evenodd">
        <g id="3184_R1NUIENBTSA1ODEtMjQ" transform="translate(-695.000000, -783.000000)">
            <g id="Group-4" transform="translate(695.716627, 783.475388)">
                <path d="M809.963373,850.474612 C810.073373,861.794612 812.483373,872.654612 815.203373,883.614612 C815.573373,885.074612 817.873373,884.604612 817.513373,883.134612 C814.843373,872.384612 812.423373,861.744612 812.323373,850.614612 C812.303373,849.104612 809.943373,848.954612 809.963373,850.474612" id="Fill-23" fill="#8FC579"></path>
                <path d="M816.843373,846.204612 C816.353373,855.164612 816.983373,863.814612 820.113373,872.314612 C820.633373,873.724612 822.733373,872.674612 822.213373,871.274612 C819.243373,863.184612 818.743373,854.874612 819.203373,846.344612 C819.283373,844.834612 816.933373,844.684612 816.843373,846.204612" id="Fill-24" fill="#8FC579"></path>
                <path d="M399.603373,865.194612 C382.213373,865.124612 380.463373,874.704612 385.133373,882.594612 C489.703373,882.854612 594.263373,885.384612 698.743373,890.174612 C701.273373,886.634612 703.293373,882.574612 704.113373,877.724612 C707.243373,862.004612 696.763373,846.414612 679.523373,856.784612 C688.433373,836.494612 658.453373,824.334612 642.603373,841.004612 C651.713373,823.154612 637.143373,804.654612 619.743373,818.414612 C615.413373,805.884612 600.283373,805.114612 592.863373,806.344612 C580.773373,807.554612 568.853373,818.764612 562.973373,828.914612 C567.223373,820.314612 570.713373,810.094612 565.333373,801.224612 C560.743373,792.364612 547.253373,784.884612 539.023373,792.624612 C537.903373,776.974612 518.103373,769.294612 515.963373,785.404612 C519.743373,692.214612 409.623373,744.914612 438.093373,795.274612 C427.733373,785.654612 403.153373,787.514612 401.493373,800.204612 C399.023373,813.664612 407.793373,826.394612 416.503373,835.164612 C407.803373,826.374612 383.793373,811.224612 374.963373,828.664612 C368.573373,841.324612 388.483373,862.754612 399.603373,865.194612" id="Fill-29" fill="#86B487"></path>
                <path d="M378.543373,807.914612 C388.053373,816.064612 393.983373,828.284612 398.073373,839.824612 C398.713373,841.624612 401.603373,840.864612 400.963373,839.044612 C396.693373,827.004612 390.593373,814.314612 380.673373,805.824612 C379.213373,804.574612 377.073373,806.654612 378.543373,807.914612" id="Fill-30" fill="#86B487"></path>
                <path d="M383.363373,800.404612 C393.823373,810.824612 398.513373,825.004612 404.063373,838.274612 C404.783373,840.014612 407.693373,839.264612 406.943373,837.484612 C401.223373,823.754612 396.333373,809.104612 385.493373,798.314612 C384.123373,796.944612 381.993373,799.044612 383.363373,800.404612" id="Fill-31" fill="#86B487"></path>
                <path d="M428.973373,749.604612 C431.403373,757.594612 434.443373,765.364612 437.643373,773.074612 C438.373373,774.824612 441.303373,774.094612 440.573373,772.324612 C437.373373,764.604612 434.333373,756.844612 431.913373,748.844612 C431.343373,747.014612 428.413373,747.764612 428.973373,749.604612" id="Fill-32" fill="#86B487"></path>
                <path d="M434.423373,745.654612 C438.593373,753.324612 439.633373,762.114612 443.483373,769.924612 C444.323373,771.654612 446.943373,770.174612 446.103373,768.454612 C442.273373,760.644612 441.223373,751.864612 437.053373,744.184612 C436.133373,742.484612 433.503373,743.964612 434.423373,745.654612" id="Fill-33" fill="#86B487"></path>
                <path d="M548.843373,776.694612 C543.623373,782.684612 538.983373,790.804612 539.413373,798.934612 C539.493373,800.844612 542.513373,800.934612 542.423373,799.004612 C542.053373,791.684612 546.193373,784.284612 550.923373,778.864612 C552.173373,777.414612 550.103373,775.244612 548.843373,776.694612" id="Fill-34" fill="#86B487"></path>
                <path d="M556.713373,779.844612 C549.453373,784.864612 545.963373,793.334612 543.413373,801.414612 C542.833373,803.244612 545.723373,804.094612 546.303373,802.274612 C548.573373,795.044612 551.643373,786.964612 558.163373,782.444612 C559.753373,781.364612 558.313373,778.734612 556.713373,779.844612" id="Fill-35" fill="#86B487"></path>
                <path d="M641.243373,847.634612 C650.633373,834.834612 662.913373,826.604612 678.913373,824.444612 C680.823373,824.174612 680.133373,821.284612 678.233373,821.534612 C661.453373,823.814612 648.553373,832.634612 638.723373,846.034612 C637.583373,847.594612 640.123373,849.174612 641.243373,847.634612" id="Fill-36" fill="#86B487"></path>
                <path d="M661.603373,842.384612 C667.933373,837.094612 675.173373,832.584612 683.743373,833.024612 C685.683373,833.134612 685.813373,830.174612 683.873373,830.064612 C674.493373,829.574612 666.493373,834.394612 659.573373,840.184612 C658.103373,841.434612 660.133373,843.614612 661.603373,842.384612" id="Fill-37" fill="#86B487"></path>
                <path d="M853.143373,898.904612 C775.133373,893.664612 697.053373,889.674612 618.943373,886.964612 C618.393373,886.094612 617.883373,885.154612 617.393373,884.084612 C610.543373,869.784612 624.743373,868.014612 633.413373,877.904612 C631.283373,874.454612 624.943373,862.404612 627.913373,858.004612 C632.663373,851.984612 642.573373,859.674612 645.223373,864.274612 C638.863373,853.344612 633.753373,837.394612 647.103373,830.014612 C660.483373,822.084612 680.053373,830.794612 681.063373,846.594612 C681.643373,833.124612 682.323373,817.364612 700.813373,823.834612 C711.763373,827.324612 721.753373,840.524612 724.233373,852.524612 C723.823373,849.844612 723.383373,847.104612 723.143373,844.604612 C719.743373,821.364612 722.663373,771.344612 753.863373,767.884612 C791.433373,764.254612 804.773373,800.054612 792.213373,829.154612 C799.213373,826.174612 811.523373,820.724612 817.883373,828.444612 C824.243373,836.164612 815.463373,849.144612 810.033373,854.444612 C819.453373,848.824612 833.623373,840.694612 843.763373,850.944612 C851.513373,858.534612 847.973373,875.904612 842.693373,883.854612 C849.803373,874.274612 863.073373,882.454612 856.733373,894.634612 C855.783373,896.134612 854.563373,897.584612 853.143373,898.904612" id="Fill-38" fill="#8FC579"></path>
                <path d="M857.433373,858.024612 C855.713373,868.824612 849.253373,878.224612 841.403373,885.604612 C840.413373,886.554612 839.013373,884.954612 840.013373,884.024612 C847.423373,877.054612 853.693373,868.104612 855.313373,857.884612 C855.513373,856.564612 857.643373,856.684612 857.433373,858.024612" id="Fill-39" fill="#8FC579"></path>
                <path d="M852.733373,851.794612 C852.553373,859.624612 848.783373,866.684612 843.833373,872.594612 C842.983373,873.624612 841.203373,872.464612 842.073373,871.414612 C846.803373,865.764612 850.443373,859.144612 850.623373,851.654612 C850.643373,850.294612 852.773373,850.434612 852.733373,851.794612" id="Fill-40" fill="#8FC579"></path>
                <path d="M807.073373,818.254612 C800.843373,822.254612 796.063373,827.914612 791.443373,833.574612 C790.593373,834.614612 788.813373,833.454612 789.673373,832.394612 C794.523373,826.434612 799.553373,820.584612 806.103373,816.374612 C807.263373,815.634612 808.213373,817.514612 807.073373,818.254612" id="Fill-41" fill="#8FC579"></path>
                <path d="M804.263373,811.714612 C798.763373,815.814612 793.913373,820.544612 789.623373,825.854612 C788.763373,826.904612 786.983373,825.744612 787.843373,824.684612 C792.243373,819.234612 797.193373,814.344612 802.833373,810.134612 C803.943373,809.324612 805.353373,810.894612 804.263373,811.714612" id="Fill-42" fill="#8FC579"></path>
                <path d="M768.873373,762.454612 C766.283373,766.574612 766.753373,771.504612 766.543373,776.154612 C766.493373,777.504612 764.353373,777.384612 764.403373,776.034612 C764.633373,770.944612 764.253373,765.784612 767.073373,761.284612 C767.803373,760.124612 769.593373,761.294612 768.873373,762.454612" id="Fill-43" fill="#8FC579"></path>
                <path d="M761.393373,760.104612 C760.803373,766.834612 760.913373,773.584612 760.593373,780.324612 C760.513373,781.694612 758.383373,781.574612 758.443373,780.214612 C758.763373,773.474612 758.653373,766.714612 759.233373,759.984612 C759.353373,758.634612 761.503373,758.744612 761.393373,760.104612" id="Fill-44" fill="#8FC579"></path>
                <path d="M666.113373,821.564612 C674.103373,830.094612 678.833373,839.754612 680.173373,851.324612 C680.333373,852.664612 678.263373,853.154612 678.103373,851.814612 C676.803373,840.564612 672.303373,831.274612 664.553373,823.004612 C663.603373,821.994612 665.173373,820.574612 666.113373,821.564612" id="Fill-45" fill="#8FC579"></path>
                <path d="M659.843373,821.594612 C664.993373,826.454612 667.433373,833.174612 669.033373,839.884612 C669.353373,841.214612 667.273373,841.684612 666.963373,840.364612 C665.453373,833.984612 663.173373,827.654612 658.283373,823.024612 C657.283373,822.084612 658.863373,820.664612 659.843373,821.594612" id="Fill-46" fill="#8FC579"></path>
                <path d="M628.103373,849.844612 C630.313373,857.854612 635.093373,864.804612 638.193373,872.464612 C638.703373,873.704612 636.843373,874.724612 636.333373,873.454612 C633.163373,865.614612 628.293373,858.534612 626.033373,850.324612 C625.673373,849.004612 627.743373,848.524612 628.103373,849.844612" id="Fill-47" fill="#8FC579"></path>
                <path d="M622.633373,852.174612 C626.003373,861.014612 630.953373,868.924612 637.053373,876.154612 C637.923373,877.184612 636.373373,878.634612 635.493373,877.584612 C629.173373,870.064612 624.083373,861.864612 620.573373,852.664612 C620.083373,851.394612 622.163373,850.924612 622.633373,852.174612" id="Fill-48" fill="#8FC579"></path>
                <path d="M304.197373,848.214612 C311.773373,836.814612 322.013373,829.224612 335.693373,826.714612 C337.333373,826.414612 336.633373,823.944612 334.993373,824.244612 C320.653373,826.884612 309.893373,834.994612 301.959373,846.954612 C301.041373,848.334612 303.291373,849.594612 304.197373,848.214612" id="Fill-56" fill="#86B487"></path>
                <path d="M321.523373,842.874612 C326.753373,838.064612 332.803373,833.894612 340.213373,833.924612 C341.883373,833.934612 341.873373,831.364612 340.203373,831.364612 C332.093373,831.324612 325.413373,835.794612 319.683373,841.074612 C318.463373,842.204612 320.303373,843.994612 321.523373,842.874612" id="Fill-57" fill="#86B487"></path>
                <path d="M488.863373,883.594612 C421.433373,882.454612 353.983373,882.264612 286.541373,883.014612 C286.037373,882.284612 285.556373,881.494612 285.088373,880.594612 C278.627373,868.544612 290.787373,866.454612 298.650373,874.624612 C296.685373,871.734612 290.732373,861.604612 293.127373,857.704612 C296.974373,852.324612 305.833373,858.554612 308.293373,862.414612 C302.373373,853.244612 297.338373,839.704612 308.543373,832.804612 C319.743373,825.424612 336.943373,832.154612 338.453373,845.734612 C338.393373,834.084612 338.353373,820.484612 354.533373,825.314612 C364.103373,827.864612 373.243373,838.834612 375.853373,849.074612 C375.413373,846.774612 374.903373,844.434612 374.603373,842.284612 C370.713373,822.394612 371.183373,779.164612 397.853373,774.884612 C429.993373,770.184612 442.983373,800.474612 433.403373,826.084612 C439.313373,823.224612 449.663373,817.984612 455.473373,824.374612 C461.263373,830.754612 454.273373,842.314612 449.823373,847.124612 C457.693373,841.864612 469.553373,834.264612 478.713373,842.654612 C485.713373,848.864612 483.413373,863.994612 479.193373,871.064612 C484.913373,862.504612 496.703373,868.974612 491.763373,879.754612 C491.023373,881.074612 490.023373,882.394612 488.863373,883.594612" id="Fill-65" fill="#8FC579"></path>
                <path d="M490.783373,848.174612 C489.783373,857.554612 484.613373,865.934612 478.163373,872.634612 C477.353373,873.494612 476.093373,872.174612 476.903373,871.324612 C482.983373,864.994612 488.003373,857.014612 488.953373,848.134612 C489.073373,846.984612 490.903373,847.004612 490.783373,848.174612" id="Fill-66" fill="#8FC579"></path>
                <path d="M486.473373,843.004612 C486.663373,849.764612 483.713373,856.004612 479.713373,861.314612 C479.013373,862.234612 477.433373,861.314612 478.143373,860.364612 C481.963373,855.304612 484.803373,849.434612 484.633373,842.974612 C484.603373,841.804612 486.443373,841.834612 486.473373,843.004612" id="Fill-67" fill="#8FC579"></path>
                <path d="M445.743373,816.054612 C440.553373,819.764612 436.673373,824.854612 432.933373,829.914612 C432.243373,830.864612 430.663373,829.924612 431.363373,828.984612 C435.283373,823.644612 439.363373,818.384612 444.823373,814.474612 C445.783373,813.784612 446.693373,815.384612 445.743373,816.054612" id="Fill-68" fill="#8FC579"></path>
                <path d="M443.033373,810.534612 C438.483373,814.314612 434.503373,818.594612 431.043373,823.344612 C430.353373,824.294612 428.763373,823.364612 429.463373,822.414612 C433.013373,817.534612 437.073373,813.114612 441.743373,809.234612 C442.653373,808.484612 443.953373,809.794612 443.033373,810.534612" id="Fill-69" fill="#8FC579"></path>
                <path d="M410.533373,769.564612 C408.483373,773.234612 409.083373,777.454612 409.103373,781.484612 C409.113373,782.654612 407.263373,782.634612 407.263373,781.474612 C407.243373,777.074612 406.693373,772.634612 408.933373,768.634612 C409.513373,767.604612 411.103373,768.544612 410.533373,769.564612" id="Fill-70" fill="#8FC579"></path>
                <path d="M404.003373,767.854612 C403.783373,773.674612 404.153373,779.504612 404.163373,785.324612 C404.163373,786.494612 402.323373,786.494612 402.313373,785.314612 C402.303373,779.494612 401.923373,773.664612 402.143373,767.844612 C402.193373,766.674612 404.043373,766.674612 404.003373,767.854612" id="Fill-71" fill="#8FC579"></path>
                <path d="M324.563373,824.754612 C331.793373,831.774612 336.253373,839.914612 337.873373,849.844612 C338.073373,850.984612 336.303373,851.494612 336.113373,850.334612 C334.543373,840.704612 330.283373,832.884612 323.263373,826.044612 C322.423373,825.224612 323.713373,823.934612 324.563373,824.754612" id="Fill-72" fill="#8FC579"></path>
                <path d="M319.173373,825.034612 C323.793373,829.024612 326.163373,834.714612 327.813373,840.424612 C328.143373,841.564612 326.373373,842.044612 326.053373,840.914612 C324.483373,835.494612 322.283373,830.114612 317.873373,826.324612 C316.993373,825.554612 318.283373,824.264612 319.173373,825.034612" id="Fill-73" fill="#8FC579"></path>
                <path d="M292.967373,850.644612 C295.189373,857.474612 299.576373,863.264612 302.560373,869.754612 C303.049373,870.804612 301.482373,871.754612 300.986373,870.684612 C297.951373,864.054612 293.471373,858.134612 291.205373,851.154612 C290.842373,850.024612 292.599373,849.534612 292.967373,850.644612" id="Fill-74" fill="#8FC579"></path>
                <path d="M288.346373,852.874612 C291.596373,860.364612 296.181373,866.984612 301.717373,872.974612 C302.513373,873.824612 301.236373,875.134612 300.439373,874.274612 C294.685373,868.044612 289.974373,861.174612 286.588373,853.384612 C286.127373,852.304612 287.888373,851.824612 288.346373,852.874612" id="Fill-75" fill="#8FC579"></path>
                <g id="Group-3" transform="translate(0.000000, 0.000000)">
                    <g id="Group-2">
                        <g id="Group" transform="translate(0.000000, -0.000000)">
                            <path d="M317.388373,243.804612 C312.607373,234.474612 303.416373,227.884612 300.670373,217.304612 L300.357373,216.004612 C299.588373,212.694612 299.365373,209.514612 300.162373,206.194612 C300.912373,203.134612 302.287373,200.414612 303.963373,197.786612 C305.541373,195.329612 307.217373,193.036612 309.439373,191.118612 C311.545373,189.305612 312.099373,186.458612 312.779373,183.876612 C313.775373,180.141612 314.623373,176.348612 314.904373,172.485612 C315.209373,168.465612 314.513373,164.649612 311.681373,161.649612 C308.806373,158.602612 304.994373,156.438612 301.615373,154.024612 C297.377373,150.993612 293.303373,147.747612 289.463373,144.215612 C283.256373,138.493612 277.467373,131.837612 276.349373,123.169612 C275.295373,114.997612 277.556373,106.399612 280.537373,98.8526116 C282.935373,92.7706116 286.373373,87.3406116 289.939373,81.8916116 C292.435373,78.0676116 294.873373,74.1616116 296.838373,70.0286116 C297.150373,72.0756116 297.357373,74.1226116 297.326373,76.1766116 C296.666373,81.9976116 296.322373,87.6456116 293.869373,93.0756116 C291.510373,98.2626116 287.924373,102.930612 286.365373,108.469612 C284.174373,116.235612 285.799373,124.922612 292.377373,130.063612 C296.740373,133.473612 302.724373,133.055612 307.021373,129.712612 C311.748373,126.028612 313.658373,118.087612 310.638373,112.633612 C307.978373,107.852612 301.869373,104.977612 297.424373,109.708612 C295.416373,111.840612 295.181373,114.532612 295.662373,116.208612 C296.158373,117.911612 296.955373,118.555612 296.896373,118.579612 C297.861373,119.747612 299.588373,119.911612 300.756373,118.950612 C301.916373,117.989612 302.092373,116.266612 301.127373,115.094612 L301.060373,114.852612 C301.041373,114.731612 301.041373,114.208612 301.596373,113.708612 L302.588373,113.254612 L302.928373,113.251612 L303.142373,113.262612 C308.377373,114.532612 305.521373,122.020612 302.510373,124.110612 C298.127373,127.161612 294.678373,122.419612 293.994373,118.512612 C293.138373,113.606612 295.299373,108.450612 297.912373,104.407612 C300.287373,100.712612 302.853373,97.2746116 304.431373,93.1266116 C306.096373,88.8176116 307.111373,84.1766116 307.627373,79.5796116 C308.638373,70.3606116 307.111373,60.7236116 303.603373,52.1296116 C302.502373,49.4546116 301.021373,47.0906116 299.576373,45.1926116 C299.178373,44.7236116 298.787373,44.2866116 298.420373,43.8566116 L297.861373,43.2626116 L297.123373,42.6146116 C296.635373,42.2006116 296.166373,41.8406116 295.748373,41.5166116 L295.115373,41.0716116 L294.959373,40.9776116 C294.295373,40.0756116 293.603373,39.1886116 292.904373,38.3406116 C290.010373,34.8526116 286.795373,31.5126116 283.131373,28.8216116 C282.388373,28.2826116 281.560373,27.8296116 280.779373,27.3406116 C277.674373,25.3916116 274.506373,23.4936116 271.174373,21.9426116 C268.299373,20.6186116 265.287373,19.5636116 262.150373,19.0836116 C259.392373,18.6696116 256.596373,18.7046116 253.849373,19.1416116 C251.217373,19.5556116 248.654373,20.3256116 246.170373,21.2786116 C243.724373,22.2356116 241.346373,23.3766116 239.068373,24.6886116 C236.806373,25.9896116 234.642373,27.4546116 232.627373,29.0946116 C230.638373,30.6846116 228.767373,32.4266116 227.033373,34.2866116 C225.435373,36.0046116 223.943373,37.8056116 222.529373,39.6766116 C221.353373,41.2516116 220.232373,42.8646116 219.158373,44.5206116 C218.252373,45.8876116 217.279373,47.2786116 216.510373,48.7236116 C208.431373,63.8526116 207.721373,76.9976116 192.033373,87.3056116 C182.822373,93.3406116 171.900373,98.5016116 168.908373,110.383612 C166.744373,120.844612 169.885373,130.860612 170.232373,141.075612 C171.717373,166.551612 144.353373,174.516612 136.060373,195.165612 C132.142373,205.064612 132.896373,218.724612 139.959373,227.154612 C146.564373,234.604612 157.713373,238.404612 167.310373,240.134612 C179.588373,242.564612 192.596373,242.014612 204.971373,241.684612 C221.049373,241.284612 237.146373,244.894612 252.736373,247.814612 C267.463373,250.294612 281.998373,253.974612 296.908373,255.254612 C305.736373,255.944612 324.521373,258.104612 317.388373,243.804612" id="Fill-99" fill="#E0585B"></path>
                            <path d="M256.771373,502.524612 C256.771373,502.524612 256.181373,504.074612 255.076373,506.964612 C253.900373,510.134612 252.174373,514.814612 250.017373,520.134612 C245.728373,531.084612 239.385373,546.314612 231.592373,564.444612 C227.580373,573.474612 223.369373,583.244612 218.642373,593.484612 C213.912373,603.734612 209.029373,614.514612 203.611373,625.564612 C200.947373,631.084612 198.232373,636.704612 195.486373,642.384612 C192.631373,648.024612 189.740373,653.734612 186.830373,659.484612 C181.135373,670.994612 174.795373,682.564612 168.654373,694.084612 C162.541373,705.614612 155.779373,716.994612 149.498373,728.174612 C142.939373,739.314612 136.181373,750.164612 129.842373,760.604612 C123.037373,770.884612 116.467373,780.824612 110.236373,790.254612 C103.584373,799.424612 97.2953729,808.084612 91.4903729,816.084612 C85.3773729,823.924612 79.5373729,830.954612 74.5213729,837.164612 C69.6663729,843.454612 64.5643729,848.544612 60.6853729,852.814612 C52.8343729,861.244612 48.3463729,866.054612 48.3463729,866.054612 L20.2633729,845.814612 C20.2633729,845.814612 22.6273729,840.274612 26.7673729,830.574612 C28.7673729,825.704612 31.4673729,820.124612 33.7443729,813.024612 C36.1383729,806.054612 38.9473729,798.344612 41.7523729,789.824612 C44.2633729,781.154612 46.9863729,771.764612 49.8653729,761.834612 C52.3143729,751.754612 54.8963729,741.134612 57.5723729,730.144612 C59.8303729,718.954612 62.2873729,707.564612 64.4943729,695.884612 C66.4713729,684.044612 68.7673729,672.284612 70.4823729,660.234612 C72.2173729,648.204612 74.1073729,636.334612 75.4673729,624.424612 C76.1973729,618.504612 76.9243729,612.644612 77.6463729,606.844612 C78.2563729,601.024612 78.8573729,595.274612 79.4513729,589.624612 C80.7053729,578.364612 81.5723729,567.374612 82.4823729,557.034612 C83.3853729,546.684612 83.9783729,536.854612 84.6463729,527.844612 C85.7283729,509.794612 86.4713729,494.794612 86.7483729,484.484612 C86.9513729,479.204612 86.9513729,475.524612 86.9593729,472.984612 C87.0173729,470.184612 87.0493729,468.684612 87.0493729,468.684612 L256.771373,502.524612" id="Fill-100" fill="#191519"></path>
                            <path d="M73.6893729,427.994612 C65.6113729,482.704612 103.420373,533.594612 158.123373,541.664612 C212.834373,549.744612 263.721373,511.944612 271.799373,457.244612 C279.865373,402.534612 242.076373,351.654612 187.365373,343.574612 C132.662373,335.494612 81.7673729,373.294612 73.6893729,427.994612" id="Fill-101" fill="#201B20"></path>
                            <path d="M266.650373,453.794612 C266.650373,453.794612 266.998373,455.414612 267.642373,458.454612 C268.377373,461.744612 269.467373,466.614612 270.556373,472.244612 C272.904373,483.774612 275.857373,500.004612 279.178373,519.454612 C280.709373,529.214612 282.490373,539.704612 284.099373,550.874612 C285.693373,562.044612 287.455373,573.744612 288.916373,585.964612 C289.678373,592.054612 290.451373,598.234612 291.236373,604.494612 C291.908373,610.794612 292.592373,617.154612 293.271373,623.564612 C294.744373,636.314612 295.709373,649.474612 296.826373,662.484612 C297.959373,675.484612 298.467373,688.714612 299.275373,701.504612 C299.830373,714.424612 300.049373,727.194612 300.400373,739.414612 C300.283373,751.744612 300.174373,763.664612 300.064373,774.954612 C299.467373,786.274612 298.900373,796.964612 298.381373,806.834612 C297.506373,816.734612 296.424373,825.804612 295.596373,833.754612 C294.935373,841.654612 293.424373,848.714612 292.490373,854.404612 C290.478373,865.744612 289.326373,872.224612 289.326373,872.224612 L254.756373,870.504612 C254.756373,870.504612 253.728373,864.564612 251.928373,854.174612 C250.963373,849.004612 250.189373,842.844612 248.240373,835.654612 C246.463373,828.494612 244.631373,820.494612 242.353373,811.824612 C239.748373,803.184612 236.928373,793.824612 233.939373,783.924612 C230.525373,774.134612 226.920373,763.814612 223.189373,753.134612 C218.998373,742.514612 214.873373,731.614612 210.377373,720.614612 C205.596373,709.604612 201.131373,698.484612 196.025373,687.444612 C190.943373,676.394612 186.072373,665.404612 180.740373,654.664612 C178.135373,649.314612 175.560373,643.984612 173.010373,638.734612 C170.361373,633.514612 167.740373,628.354612 165.162373,623.294612 C160.096373,613.154612 154.853373,603.464612 149.994373,594.294612 C145.123373,585.114612 140.279373,576.544612 135.943373,568.614612 C127.037373,552.884612 119.506373,539.884612 114.138373,531.084612 C111.431373,526.534612 109.431373,523.444612 108.068373,521.314612 C106.584373,518.924612 105.795373,517.654612 105.795373,517.654612 L266.650373,453.794612" id="Fill-102" fill="#201B20"></path>
                            <path d="M247.650373,840.244612 C247.650373,840.244612 280.490373,834.544612 297.346373,837.714612 C297.346373,837.714612 295.767373,872.984612 290.369373,887.154612 C290.369373,887.154612 332.181373,885.474612 329.638373,910.814612 C329.638373,910.814612 330.857373,915.674612 328.838373,918.474612 C328.838373,918.474612 309.088373,923.504612 295.045373,920.574612 C281.939373,917.834612 267.822373,920.594612 261.810373,919.084612 C255.799373,917.574612 252.728373,914.804612 253.662373,892.564612 C254.619373,870.314612 247.650373,840.244612 247.650373,840.244612" id="Fill-103" fill="#3B3037"></path>
                            <path d="M30.3853729,812.434612 C30.3853729,812.434612 65.7363729,828.284612 78.4943729,839.764612 C78.4943729,839.764612 56.0213729,865.434612 44.0373729,874.724612 C44.0373729,874.724612 80.6193729,895.034612 65.2713729,915.354612 C65.2713729,915.354612 63.7793729,920.134612 60.6033729,921.484612 C60.6033729,921.484612 41.1153729,915.494612 30.6383729,905.694612 C20.8773729,896.534612 7.38837289,891.544612 3.03337289,887.134612 C-1.31062711,882.704612 -2.49762711,878.744612 9.88537289,860.244612 C22.2793729,841.734612 30.3853729,812.434612 30.3853729,812.434612" id="Fill-104" fill="#3B3037"></path>
                            <path d="M307.416373,280.314612 L307.517373,280.514612 L307.666373,280.864612 C308.135373,281.544612 308.982373,282.714612 310.334373,284.244612 C313.029373,287.314612 317.623373,291.654612 324.123373,295.664612 C327.396373,297.624612 331.142373,299.474612 335.330373,301.104612 C339.533373,302.664612 344.217373,303.844612 349.260373,304.744612 C354.349373,305.384612 359.771373,305.924612 365.490373,305.604612 C368.334373,305.634612 371.260373,305.124612 374.197373,304.944612 C377.150373,304.454612 380.138373,304.064612 383.135373,303.454612 C389.131373,302.164612 395.185373,300.514612 401.131373,298.454612 C407.084373,296.434612 412.877373,293.924612 418.513373,291.454612 C424.049373,288.704612 429.486373,286.134612 434.471373,283.204612 C439.556373,280.494612 444.183373,277.494612 448.513373,274.814612 C452.893373,272.214612 456.653373,269.344612 460.133373,267.054612 C463.623373,264.754612 466.523373,262.504612 468.943373,260.714612 C473.783373,257.094612 476.563373,255.034612 476.563373,255.034612 L494.803373,275.484612 C494.803373,275.484612 492.163373,278.054612 487.543373,282.564612 C485.233373,284.814612 482.463373,287.604612 479.053373,290.584612 C475.633373,293.564612 471.993373,297.154612 467.593373,300.654612 C463.243373,304.224612 458.613373,308.174612 453.313373,311.984612 C448.193373,315.984612 442.381373,319.784612 436.396373,323.794612 C430.217373,327.574612 423.760373,331.444612 416.791373,334.904612 C409.857373,338.414612 402.474373,341.564612 394.799373,344.314612 C390.947373,345.664612 386.967373,346.794612 383.017373,347.964612 C378.943373,348.844612 374.967373,350.004612 370.806373,350.604612 C362.607373,352.154612 354.170373,352.654612 345.920373,352.674612 C337.646373,352.434612 329.545373,351.544612 321.928373,349.884612 C314.330373,348.164612 307.236373,345.844612 300.877373,343.154612 C288.181373,337.684612 278.560373,330.974612 272.123373,325.584612 C268.896373,322.884612 266.408373,320.454612 264.650373,318.644612 C263.752373,317.694612 263.084373,316.984612 262.342373,316.084612 C261.869373,315.534612 261.631373,315.254612 261.631373,315.254612 L307.416373,280.314612" id="Fill-105" fill="#EA9168"></path>
                            <path d="M328.642373,279.734612 C328.642373,279.734612 312.185373,272.554612 283.092373,228.784612 L197.779373,211.384612 C199.244373,272.064612 231.760373,300.044612 266.185373,333.394612 C305.396373,324.894612 328.642373,279.734612 328.642373,279.734612" id="Fill-106" fill="#6A4A8C"></path>
                            <path d="M67.5413729,427.784612 C68.5133729,418.024612 81.1423729,378.024612 82.6233729,368.024612 C103.693373,225.334612 188.240373,119.606612 228.513373,125.555612 C256.830373,129.735612 335.709373,254.704612 281.666373,280.294612 C287.435373,364.154612 277.967373,444.204612 276.076373,453.844612 C276.076373,453.844612 170.662373,499.524612 67.5413729,427.784612" id="Fill-109" fill="#6A4A8C"></path>
                            <path d="M188.154373,253.634612 C183.806373,260.344612 175.924373,267.564612 167.271373,263.374612 C160.392373,260.044612 157.197373,253.164612 155.209373,246.114612 C152.517373,236.564612 151.291373,223.274612 153.404373,211.724612 C153.767373,204.654612 155.834373,197.766612 157.955373,190.942612 C160.627373,182.348612 162.752373,173.626612 165.342373,165.016612 C163.998373,165.305612 164.494373,171.641612 165.361373,170.188612 C170.810373,161.044612 176.783373,152.680612 187.685373,147.176612 C195.385373,143.294612 197.908373,159.286612 198.267373,165.669612 C199.232373,182.809612 199.670373,200.504612 197.916373,217.604612 C196.670373,229.774612 194.982373,243.084612 188.154373,253.634612 Z M270.150373,163.727612 L267.189373,157.770612 L266.787373,164.411612 C265.494373,186.012612 261.303373,207.014612 257.123373,225.124612 C249.279373,211.244612 221.498373,157.774612 212.990373,126.926612 L212.572373,125.407612 L211.013373,125.645612 C151.709373,134.610612 101.537373,220.754612 73.3573729,361.984612 C71.9943729,368.824612 67.2013729,393.544612 64.1113729,410.394612 L63.9243729,411.394612 L64.6973729,412.064612 C84.4163729,429.014612 113.658373,441.074612 147.053373,446.004612 C155.638373,447.274612 164.318373,448.044612 172.912373,448.314612 C196.681373,449.054612 219.810373,447.074612 239.799373,442.604612 L240.627373,442.414612 L241.006373,441.664612 C242.760373,438.154612 246.881373,432.244612 249.150373,429.584612 C250.037373,432.084612 250.955373,434.554612 251.881373,437.034612 L252.709373,439.254612 L254.306373,438.764612 C266.029373,435.164612 279.291373,435.394612 280.119373,431.214612 C288.760373,387.914612 287.154373,319.744612 284.455373,281.774612 C331.556373,260.014612 283.849373,191.247612 270.150373,163.727612 L270.150373,163.727612 Z" id="Fill-110" fill="#F8C44D"></path>
                            <path d="M247.974373,160.219617 C240.732373,160.231612 220.572373,141.590612 219.638373,135.204612 C217.998373,124.208612 228.174373,103.450612 233.181373,98.7276116 C237.584373,94.5636116 249.560373,96.3376116 252.572373,101.590612 C257.189373,109.657612 255.428373,147.223612 255.428373,147.223612 C254.951373,154.551612 254.150373,160.212612 247.974373,160.219617" id="Fill-111" fill="#EA9168"></path>
                            <path d="M239.760373,116.192612 C235.560373,111.852612 232.752373,107.426612 230.588373,102.352612 C231.467373,100.770612 232.342373,99.5166116 233.181373,98.7276116 C237.584373,94.5636116 249.560373,96.3376116 252.572373,101.590612 C254.842373,105.559612 255.572373,116.672612 255.728373,126.930612 C249.775373,125.102612 243.287373,119.840612 239.760373,116.192612" id="Fill-112" fill="#170606"></path>
                            <path d="M227.920373,100.036612 C225.170373,93.6296116 222.338373,87.1616116 220.826373,80.3136116 C219.373373,73.6966116 219.326373,66.8916116 220.338373,60.2086116 C222.346373,47.1846116 228.736373,34.1806116 240.138373,32.5446116 C241.795373,21.3566116 261.525373,19.0406116 273.834373,25.2396116 C280.517373,28.6026116 288.185373,34.5166116 289.396373,42.0876116 C290.400373,48.3296116 291.013373,53.5046116 288.888373,59.2626116 C287.017373,64.3686116 285.654373,69.7236116 283.385373,74.6696116 C280.010373,82.0046116 274.303373,87.8606116 268.443373,93.2746116 C266.670373,94.9116116 264.869373,96.5126116 263.076373,98.1226116 L227.920373,100.036612" id="Fill-113" fill="#E0585B"></path>
                            <path d="M261.099373,35.6416116 C245.303373,33.3096116 230.482373,45.1726116 227.978373,62.1376116 L227.424373,65.9266116 L225.326373,80.1186116 L224.763373,83.9116116 C222.267373,100.868612 235.568373,115.676612 251.365373,118.004612 C267.158373,120.337612 279.435373,109.309612 281.939373,92.3486116 L284.592373,74.3646116 L285.158373,70.5756116 C287.662373,53.6106116 276.885373,37.9696116 261.099373,35.6416116" id="Fill-114" fill="#EA9168"></path>
                            <path d="M284.834373,46.6416116 C285.564373,45.8646116 286.150373,45.0046116 286.490373,43.9936116 C287.396373,41.3296116 286.045373,38.4386116 284.463373,36.3136116 C282.076373,33.1146116 278.451373,31.2196116 274.650373,30.2126116 C267.498373,28.3216116 259.654373,29.1226116 252.619373,31.1886116 C244.787373,33.5046116 237.342373,37.7276116 232.072373,44.0596116 C227.580373,49.4586116 224.959373,56.1846116 223.885373,63.0836116 C223.467373,65.8296116 223.252373,68.6456116 223.506373,71.4156116 C223.642373,72.9266116 223.865373,74.9076116 224.978373,76.0716116 C226.857373,78.0476116 228.971373,74.4936116 229.623373,73.0716116 C230.619373,70.9546116 230.873373,68.5636116 231.885373,66.4736116 C232.283373,65.6146116 232.888373,64.8796116 233.533373,64.1846116 L231.748373,73.1416116 C232.490373,68.1066116 238.510373,64.3836116 244.580373,63.7946116 C250.642373,63.2006116 254.959373,60.3646116 254.959373,60.3646116 L254.619373,63.5366116 C276.806373,60.1376116 286.256373,54.6926116 286.256373,54.6926116 L284.834373,46.6416116" id="Fill-115" fill="#E0585B"></path>
                            <path d="M252.310373,70.2626116 L252.193373,69.8256116 L252.123373,69.5906116 L251.959373,69.2436116 L251.471373,68.4816116 L250.779373,67.7316116 L249.873373,67.0446116 L248.783373,66.5326116 L247.584373,66.2196116 C246.756373,66.1146116 245.908373,66.1416116 245.138373,66.3376116 L244.064373,66.7156116 L243.209373,67.2476116 L242.556373,67.8096116 L242.135373,68.3056116 L241.834373,68.7786116 C241.502373,69.3566116 241.709373,70.0796116 242.283373,70.4036116 L243.314373,70.4696116 L243.646373,70.3376116 L243.947373,70.1846116 L244.717373,69.8726116 L245.224373,69.7316116 L245.810373,69.6336116 L246.424373,69.6106116 L247.076373,69.6496116 L248.314373,69.9856116 L248.830373,70.2436116 L249.279373,70.5286116 L249.619373,70.7666116 L249.756373,70.8566116 L249.900373,71.0326116 L250.193373,71.3686116 C250.642373,71.8796116 251.412373,71.9306116 251.928373,71.4816116 L252.310373,70.2626116" id="Fill-118" fill="#E0585B"></path>
                            <path d="M243.596373,76.7906116 C243.404373,78.1066116 244.318373,79.3256116 245.615373,79.5166116 C246.920373,79.7046116 248.146373,78.8056116 248.342373,77.4936116 C248.537373,76.1846116 247.623373,74.9656116 246.314373,74.7746116 C245.021373,74.5796116 243.791373,75.4856116 243.596373,76.7906116" id="Fill-119" fill="#170606"></path>
                            <polyline id="Fill-120" fill="#170606" points="258.662373 95.5246116 259.002373 95.4626116 262.599373 93.5286116 262.861373 92.8606116 260.115373 84.5636116 259.412373 84.2086116 259.053373 84.9156116 261.654373 92.7626116 258.478373 94.4856116 258.252373 95.2396116 258.662373 95.5246116"></polyline>
                            <path d="M258.205373,107.559612 C260.943373,107.962612 263.584373,107.016612 265.279373,105.055612 L265.221373,104.266612 L264.431373,104.325612 C262.990373,106.008612 260.717373,106.805612 258.361373,106.454612 C256.010373,106.106612 254.064373,104.688612 253.178373,102.661612 L252.435373,102.379612 L252.142373,103.114612 C253.197373,105.489612 255.455373,107.153612 258.205373,107.559612" id="Fill-121" fill="#170606"></path>
                            <path d="M228.631373,83.8996116 C229.623373,81.5326116 230.541373,79.0836116 230.053373,76.4816116 C229.584373,74.0166116 227.939373,71.7786116 225.404373,71.2276116 C222.939373,70.6966116 219.967373,71.6806116 218.556373,73.8296116 C217.748373,75.0446116 217.521373,76.5446116 217.553373,77.9856116 C217.580373,79.8606116 217.978373,81.7476116 218.623373,83.5046116 C219.267373,85.2746116 220.232373,87.1416116 221.896373,88.1336116 C223.377373,89.0206116 225.111373,88.9426116 226.787373,88.8376116 L228.631373,83.8996116" id="Fill-122" fill="#EA9168"></path>
                            <path d="M234.779373,56.6616116 C255.103373,63.6576116 275.646373,71.4426116 278.314373,71.8996116 C280.986373,72.3686116 286.084373,73.9306116 298.010373,69.0206116 C307.744373,65.0166116 308.404373,60.5676116 306.037373,56.9736116 C303.154373,53.9586116 297.279373,52.2476116 295.982373,49.7826116 C295.592373,49.0406116 295.982373,48.5716116 293.771373,37.9466116 L293.080373,54.4586116 C291.666373,58.4036116 284.076373,62.7196116 284.076373,62.7196116 C281.678373,61.9116116 279.310373,61.6926116 279.310373,61.6926116 C268.795373,62.3336116 264.596373,62.7516116 244.697373,57.2826116 C224.803373,51.8096116 223.252373,43.1456116 223.252373,43.1456116 L223.299373,37.7236116 L221.974373,33.4936116 L220.865373,37.5836116 L220.318373,37.7946116 L220.252373,37.8256116 L219.678373,38.1846116 L219.607373,38.2276116 L219.150373,38.7786116 L219.092373,38.9156116 L218.935373,39.7156116 L218.303373,40.3796116 C218.244373,40.5046116 214.599373,49.7046116 234.779373,56.6616116" id="Fill-123" fill="#EB8D3D"></path>
                            <path d="M308.017373,61.8646116 L308.045373,61.4466116 L308.025373,60.7626116 L307.986373,60.3836116 L307.771373,59.6146116 L307.693373,59.3796116 L307.217373,58.4426116 L306.982373,58.1226116 L306.545373,57.5286116 L306.232373,57.1696116 L306.010373,56.9156116 L306.037373,56.9736116 C308.404373,60.5676116 307.744373,65.0166116 298.010373,69.0206116 C286.084373,73.9306116 280.986373,72.3686116 278.314373,71.8996116 C275.646373,71.4426116 255.103373,63.6576116 234.779373,56.6616116 C214.599373,49.7046116 218.244373,40.5046116 218.303373,40.3796116 L218.303373,40.3686116 L218.174373,40.5326116 L218.049373,40.7006116 L217.756373,41.1496116 L217.658373,41.3136116 L217.463373,41.7126116 L217.365373,41.9506116 L217.221373,42.3766116 L217.142373,42.6376116 L217.037373,43.2006116 L217.006373,43.3956116 L216.986373,44.2156116 L217.006373,44.4816116 L217.103373,45.1336116 L217.189373,45.4736116 L217.404373,46.1456116 L217.533373,46.4976116 L217.998373,47.4036116 L218.088373,47.5676116 L218.877373,48.7006116 L219.170373,49.0516116 L219.939373,49.9116116 L220.369373,50.3446116 L221.342373,51.2316116 L221.830373,51.6416116 C222.365373,52.0876116 222.939373,52.5246116 223.592373,52.9776116 C232.459373,59.1886116 242.787373,60.6656116 242.787373,60.6656116 C242.787373,60.6656116 245.635373,63.6376116 248.674373,63.0086116 C248.674373,63.0086116 271.748373,71.9776116 278.326373,73.4776116 C284.904373,74.9696116 302.724373,71.1226116 307.131373,64.1536116 L307.713373,62.9856116 L307.830373,62.6106116 L308.017373,61.8646116" id="Fill-124" fill="#F6D05F"></path>
                            <path d="M243.713373,58.7356116 C263.416373,64.8566116 267.803373,64.0016116 278.717373,62.4426116 C282.244373,58.6186116 283.236373,47.3956116 279.076373,37.7786116 C274.935373,28.1536116 262.529373,15.2476116 247.467373,12.2476116 C232.412373,9.23561162 226.135373,21.1926116 226.135373,21.1926116 C226.135373,21.1926116 223.428373,26.8296116 222.267373,33.3686116 L221.974373,33.4936116 L221.877373,43.8296116 C221.877373,43.8296116 224.013373,52.6066116 243.713373,58.7356116" id="Fill-125" fill="#EEA13E"></path>
                            <path d="M248.119373,11.0596116 C271.611373,15.7906116 281.678373,36.6266116 281.678373,36.6266116 L283.478373,63.5206116 C283.478373,63.5206116 292.482373,61.1416116 294.490373,55.6846116 L293.369373,28.0516116 C293.369373,28.0516116 287.006373,15.2706116 276.670373,7.49361162 C267.529373,0.622611616 258.615373,-1.13138838 252.599373,0.649611616 C252.931373,0.645611616 262.756373,0.688611616 271.689373,6.68861162 C280.810373,12.7946116 290.623373,29.2906116 290.623373,29.2906116 L288.908373,30.5676116 C288.908373,30.5676116 279.623373,15.9776116 271.689373,9.29061162 C264.205373,2.98961162 251.939373,1.68461162 250.498373,1.54761162 L250.498373,1.55161162 L250.361373,1.53661162 C250.361373,1.53661162 245.564373,1.61061162 242.662373,3.63361162 C242.662373,3.63361162 250.244373,0.837611616 261.849373,5.80561162 C276.826373,12.1926116 286.490373,32.1456116 286.490373,32.1456116 L283.556373,33.7236116 C281.998373,31.0516116 270.123373,14.4896116 257.881373,9.49761162 C245.642373,4.52061162 233.553373,10.5986116 233.553373,10.5986116 C233.553373,10.5986116 230.990373,11.6146116 228.611373,15.4936116 C229.381373,14.5406116 234.955373,8.40761162 248.119373,11.0596116" id="Fill-126" fill="#EEA13E"></path>
                            <path d="M247.467373,12.2476116 C262.529373,15.2476116 274.935373,28.1536116 279.076373,37.7786116 C283.236373,47.3956116 282.244373,58.6186116 278.717373,62.4426116 C278.717373,62.4426116 281.123373,62.5836116 283.478373,63.5206116 L281.678373,36.6266116 C281.678373,36.6266116 271.611373,15.7906116 248.119373,11.0596116 C234.955373,8.40761162 229.381373,14.5406116 228.611373,15.4936116 L228.506373,15.6226116 L228.435373,15.7626116 L228.181373,16.2436116 C227.947373,16.6806116 227.638373,17.2976116 227.314373,17.9776116 L227.158373,18.3176116 C226.654373,19.4076116 226.193373,20.5636116 226.135373,21.1926116 C226.135373,21.1926116 232.412373,9.23561162 247.467373,12.2476116" id="Fill-127" fill="#D07739"></path>
                            <path d="M257.881373,9.49761162 C270.123373,14.4896116 281.998373,31.0516116 283.556373,33.7236116 L286.490373,32.1456116 L285.349373,32.7476116 C283.295373,28.7946116 274.303373,12.7476116 261.166373,7.30561162 C245.947373,1.00161162 236.670373,7.50161162 236.670373,7.50161162 C236.670373,7.50161162 235.521373,7.93461162 234.537373,9.05961162 C234.166373,9.47761162 233.814373,9.96961162 233.553373,10.5986116 C233.553373,10.5986116 245.642373,4.52061162 257.881373,9.49761162" id="Fill-128" fill="#F8CA58"></path>
                            <path d="M261.166373,7.30561162 C274.303373,12.7476116 283.295373,28.7946116 285.349373,32.7476116 L286.490373,32.1456116 C286.490373,32.1456116 276.826373,12.1926116 261.849373,5.80561162 C250.244373,0.837611616 242.662373,3.63361162 242.662373,3.63361162 C242.662373,3.63361162 238.541373,4.67661162 236.670373,7.50161162 C236.670373,7.50161162 245.947373,1.00161162 261.166373,7.30561162" id="Fill-129" fill="#D07739"></path>
                            <path d="M250.498373,1.54761162 C251.939373,1.68461162 264.205373,2.98961162 271.689373,9.29061162 C279.623373,15.9776116 288.908373,30.5676116 288.908373,30.5676116 L290.623373,29.2906116 L290.096373,29.6726116 C288.529373,27.1106116 279.681373,13.0206116 271.416373,7.48161162 C263.689373,2.29761162 254.221373,1.26661162 251.529373,1.07161162 L252.572373,0.649611616 L250.361373,1.53661162 L250.545373,1.46561162 L250.498373,1.54761162" id="Fill-130" fill="#F8CA58"></path>
                            <path d="M271.416373,7.48161162 C279.681373,13.0206116 288.529373,27.1106116 290.096373,29.6726116 L290.623373,29.2906116 C290.623373,29.2906116 280.810373,12.7946116 271.689373,6.68861162 C262.756373,0.688611616 252.931373,0.645611616 252.599373,0.649475023 L252.572373,0.649475023 L251.529373,1.07161162 C254.221373,1.26661162 263.689373,2.29761162 271.416373,7.48161162" id="Fill-131" fill="#D07739"></path>
                            <polyline id="Fill-132" fill="#D07739" points="250.498373 1.54761162 250.545373 1.46561162 250.361373 1.53661162 250.498373 1.55161162 250.498373 1.54761162"></polyline>
                            <polyline id="Fill-217" fill="#8C1F35" points="166.170373 343.934612 184.334373 420.584612 296.615373 393.974612 278.451373 317.324612 166.170373 343.934612"></polyline>
                            <polyline id="Fill-218" fill="#CC3351" points="336.994373 379.684612 231.205373 404.754612 215.154373 337.044612 320.947373 311.974612 336.994373 379.684612"></polyline>
                            <path d="M233.396373,399.524612 L332.689373,375.984612 L318.763373,317.204612 L219.451373,340.734612 L233.396373,399.524612 Z M341.303373,383.384612 L229.021373,409.994612 L210.857373,333.344612 L323.138373,306.734612 L341.303373,383.384612 L341.303373,383.384612 Z" id="Fill-219" fill="#A2233D"></path>
                            <path d="M106.935373,260.864612 L106.553373,261.094612 C106.486373,261.114612 106.357373,261.154612 105.846373,261.494612 C104.986373,262.024612 103.568373,262.994612 101.830373,264.324612 C98.3733729,266.954612 93.4003729,271.274612 89.6353729,276.294612 C87.7213729,278.764612 86.1813729,281.364612 85.3493729,283.594612 C84.4863729,285.874612 84.0763729,287.724612 84.2993729,290.114612 C84.6113729,292.494612 85.4553729,295.684612 88.0993729,299.254612 C88.5333729,300.164612 89.4783729,301.044612 90.1853729,301.954612 C91.0063729,302.854612 91.5683729,303.844612 92.5803729,304.734612 C94.5533729,306.504612 96.1663729,308.494612 98.5253729,310.204612 C100.748373,311.974612 102.873373,313.844612 105.439373,315.464612 C107.924373,317.124612 110.275373,318.904612 112.998373,320.394612 C115.666373,321.914612 118.189373,323.564612 120.928373,324.964612 C123.678373,326.374612 126.396373,327.774612 129.064373,329.134612 C134.545373,331.734612 139.943373,334.194612 145.174373,336.374612 C150.482373,338.434612 155.420373,340.574612 160.158373,342.234612 C164.904373,343.904612 169.248373,345.444612 173.103373,346.814612 C177.021373,348.064612 180.435373,349.164612 183.252373,350.054612 C188.900373,351.844612 192.131373,352.864612 192.131373,352.864612 L186.107373,379.594612 C186.107373,379.594612 182.623373,379.004612 176.525373,377.954612 C173.471373,377.424612 169.756373,376.774612 165.498373,376.034612 C161.240373,375.154612 156.435373,374.164612 151.193373,373.074612 C145.947373,372.004612 140.275373,370.454612 134.248373,368.994612 C128.228373,367.414612 121.881373,365.524612 115.295373,363.434612 C112.002373,362.274612 108.662373,361.104612 105.271373,359.924612 C101.881373,358.724612 98.4593729,357.164612 94.9943729,355.754612 C91.5213729,354.414612 88.0533729,352.564612 84.5493729,350.844612 C81.0373729,349.224612 77.5493729,347.044612 74.0493729,344.944612 C70.5333729,343.004612 67.0963729,340.224612 63.6463729,337.774612 C61.9203729,336.564612 60.2673729,334.894612 58.5883729,333.454612 C56.9283729,331.904612 55.2283729,330.574612 53.6703729,328.714612 C47.2243729,322.164612 41.4783729,313.324612 38.1153729,303.334612 C34.6853729,293.314612 34.2443729,282.274612 35.8813729,272.974612 C37.4673729,263.554612 40.7243729,255.814612 44.0963729,249.414612 C50.9673729,236.594612 58.3463729,228.514612 63.6783729,222.934612 C66.3773729,220.164612 68.6073729,218.094612 70.2953729,216.614612 C71.0493729,215.944612 71.9043729,215.234612 72.5103729,214.754612 L73.1423729,214.234612 L106.935373,260.864612" id="Fill-220" fill="#EA9168"></path>
                            <path d="M56.9203729,215.024612 C60.5923729,254.974612 102.592373,283.544612 102.592373,283.544612 C102.592373,283.544612 111.701373,268.084612 158.705373,244.534612 L186.342373,161.973612 C125.947373,156.044612 94.2213729,184.907612 56.9203729,215.024612" id="Fill-221" fill="#6A4A8C"></path>
                            <path d="M160.693373,241.334612 C141.099373,251.414612 121.459373,262.234612 105.127373,277.234612 C100.049373,281.894612 102.947373,280.744612 102.404373,280.354612 C95.2403729,275.184612 88.9243729,268.924612 82.8963729,262.504612 C71.7603729,250.644612 64.2093729,236.634612 60.2793729,220.904612 C57.5923729,210.164612 88.8853729,193.169612 95.7283729,188.450612 C124.056373,168.911612 155.396373,160.977612 189.596373,163.438612 C192.806373,163.665612 192.783373,158.672612 189.596373,158.446612 C134.892373,154.512612 96.0213729,180.227612 55.1543729,213.254612 C47.1423729,219.724612 68.0993729,251.614612 71.7173729,256.714612 C79.5883729,267.844612 90.1383729,277.894612 101.330373,285.694612 C102.166373,286.274612 103.713373,286.124612 104.353373,285.304612 C118.533373,267.274612 143.439373,255.824612 163.213373,245.634612 C166.072373,244.164612 163.549373,239.864612 160.693373,241.334612" id="Fill-222" fill="#FFFFFE"></path>
                            <path d="M204.474373,351.034612 C213.830373,353.894612 219.099373,363.794612 216.236373,373.144612 C213.392373,382.494612 203.490373,387.754612 194.127373,384.904612 L188.396373,383.144612 C179.053373,380.294612 173.791373,370.394612 176.646373,361.044612 C179.502373,351.694612 189.400373,346.434612 198.756373,349.284612 L204.474373,351.034612" id="Fill-223" fill="#EA9168"></path>
                            <path d="M190.474373,343.684612 C194.400373,344.504612 197.041373,347.804612 196.349373,351.054612 C195.678373,354.294612 191.935373,356.254612 188.017373,355.434612 C184.092373,354.604612 181.459373,351.314612 182.142373,348.064612 C182.822373,344.814612 186.556373,342.854612 190.474373,343.684612" id="Fill-224" fill="#EA9168"></path>
                        </g>
                        <path d="M486.643373,211.874612 C489.983373,216.294612 488.503373,221.574612 483.363373,223.624612 L455.383373,234.744612 C450.243373,236.794612 445.533373,233.964612 444.943373,228.464612 L436.892373,154.790612 C436.287373,149.282612 438.537373,148.395612 441.881373,152.801612 L486.643373,211.874612" id="Fill-226" fill="#A8969D"></path>
                        <path d="M497.013373,276.434612 C498.693373,280.634612 496.633373,285.424612 492.413373,287.094612 C488.203373,288.774612 483.423373,286.724612 481.743373,282.504612 L469.603373,251.974612 C467.923373,247.754612 469.983373,242.974612 474.193373,241.304612 C478.413373,239.634612 483.193373,241.684612 484.863373,245.904612 L497.013373,276.434612" id="Fill-227" fill="#EEA13E"></path>
                    </g>
                    <path d="M479.103373,246.704612 C486.083373,239.844612 497.293373,239.934612 504.153373,246.914612 C511.003373,253.884612 510.913373,265.084612 503.943373,271.954612 L499.673373,276.144612 C492.693373,283.014612 481.493373,282.914612 474.633373,275.944612 C467.773373,268.964612 467.873373,257.754612 474.843373,250.904612 L479.103373,246.704612" id="Fill-107" fill="#EA9168"></path>
                    <path d="M465.963373,255.504612 C468.573373,252.454612 472.713373,251.704612 475.253373,253.854612 C477.763373,255.994612 477.723373,260.214612 475.103373,263.274612 C472.513373,266.334612 468.363373,267.074612 465.843373,264.924612 C463.323373,262.784612 463.363373,258.564612 465.963373,255.504612" id="Fill-108" fill="#EA9168"></path>
                    <path d="M272.549373,81.0716116 C272.353373,82.3796116 273.260373,83.5946116 274.576373,83.7906116 C275.888373,83.9816116 277.099373,83.0756116 277.291373,81.7706116 C277.486373,80.4546116 276.592373,79.2396116 275.267373,79.0476116 C273.959373,78.8526116 272.744373,79.7586116 272.549373,81.0716116" id="Fill-116" fill="#170606"></path>
                    <path d="M281.260373,74.5326116 L281.162373,74.0986116 L281.084373,73.8686116 L280.908373,73.5166116 L280.412373,72.7516116 L279.728373,72.0016116 L278.822373,71.3176116 L277.732373,70.7976116 L276.533373,70.4936116 C275.713373,70.3836116 274.857373,70.4196116 274.096373,70.6106116 L273.025373,70.9936116 L272.146373,71.5206116 L271.506373,72.0876116 L271.084373,72.5836116 L270.783373,73.0516116 C270.463373,73.6296116 270.666373,74.3566116 271.240373,74.6766116 L272.263373,74.7396116 L272.596373,74.6106116 L272.896373,74.4626116 L273.670373,74.1416116 L274.174373,74.0046116 L274.748373,73.9076116 L275.385373,73.8876116 L276.025373,73.9266116 L277.263373,74.2586116 L277.791373,74.5206116 L278.236373,74.8056116 L278.568373,75.0366116 L278.705373,75.1336116 L278.861373,75.3096116 L279.142373,75.6416116 C279.603373,76.1576116 280.373373,76.2086116 280.877373,75.7546116 L281.260373,74.5326116" id="Fill-117" fill="#E0585B"></path>
                    <polyline id="Fill-225" fill="#4E4249" points="480.573373 242.934612 470.683373 246.854612 458.193373 215.434612 468.063373 211.504612 480.573373 242.934612"></polyline>
                </g>
                <polyline id="Fill-133" fill="#8C1F35" points="531.913373 326.504612 352.913373 326.504612 352.913373 396.094612 298.564373 396.094612 298.564373 474.864612 352.913373 474.864612 352.913373 535.274612 298.564373 535.274612 298.564373 614.044612 352.913373 614.044612 352.913373 674.454612 298.564373 674.454612 298.564373 744.044612 244.193373 744.044612 244.193373 813.624612 189.838373 813.624612 189.838373 883.224612 135.467373 883.224612 135.467373 961.984612 531.913373 961.984612 531.913373 326.504612"></polyline>
                <polygon id="Fill-134" fill="#CC3351" points="213.205373 957.404612 321.933373 957.404612 321.933373 887.814612 213.205373 887.814612"></polygon>
                <path d="M216.537373,952.814612 L318.603373,952.814612 L318.603373,892.394612 L216.537373,892.394612 L216.537373,952.814612 Z M209.873373,961.984612 L325.263373,961.984612 L325.263373,883.224612 L209.873373,883.224612 L209.873373,961.984612 Z" id="Fill-135" fill="#A2233D"></path>
                <polygon id="Fill-136" fill="#CC3351" points="321.933373 957.404612 430.653373 957.404612 430.653373 887.814612 321.933373 887.814612"></polygon>
                <path d="M325.263373,952.814612 L427.323373,952.814612 L427.323373,892.394612 L325.263373,892.394612 L325.263373,952.814612 Z M318.603373,961.984612 L433.983373,961.984612 L433.983373,883.224612 L318.603373,883.224612 L318.603373,961.984612 Z" id="Fill-137" fill="#A2233D"></path>
                <polygon id="Fill-138" fill="#CC3351" points="430.653373 957.404612 539.383373 957.404612 539.383373 887.814612 430.653373 887.814612"></polygon>
                <path d="M433.983373,952.814612 L536.053373,952.814612 L536.053373,892.394612 L433.983373,892.394612 L433.983373,952.814612 Z M427.323373,961.984612 L542.713373,961.984612 L542.713373,883.224612 L427.323373,883.224612 L427.323373,961.984612 Z" id="Fill-139" fill="#A2233D"></path>
                <polygon id="Fill-140" fill="#CC3351" points="539.383373 957.404612 648.103373 957.404612 648.103373 887.814612 539.383373 887.814612"></polygon>
                <path d="M542.713373,952.814612 L644.773373,952.814612 L644.773373,892.394612 L542.713373,892.394612 L542.713373,952.814612 Z M536.053373,961.984612 L651.443373,961.984612 L651.443373,883.224612 L536.053373,883.224612 L536.053373,961.984612 Z" id="Fill-141" fill="#A2233D"></path>
                <polygon id="Fill-142" fill="#CC3351" points="648.103373 957.404612 756.833373 957.404612 756.833373 887.814612 648.103373 887.814612"></polygon>
                <path d="M651.443373,952.814612 L753.493373,952.814612 L753.493373,892.394612 L651.443373,892.394612 L651.443373,952.814612 Z M644.773373,961.984612 L760.163373,961.984612 L760.163373,883.224612 L644.773373,883.224612 L644.773373,961.984612 Z" id="Fill-143" fill="#A2233D"></path>
                <polygon id="Fill-144" fill="#CC3351" points="756.833373 957.404612 865.553373 957.404612 865.553373 887.814612 756.833373 887.814612"></polygon>
                <path d="M760.163373,952.814612 L862.223373,952.814612 L862.223373,892.394612 L760.163373,892.394612 L760.163373,952.814612 Z M753.493373,961.984612 L868.893373,961.984612 L868.893373,883.224612 L753.493373,883.224612 L753.493373,961.984612 Z" id="Fill-145" fill="#A2233D"></path>
                <polygon id="Fill-146" fill="#CC3351" points="267.568373 887.814612 376.293373 887.814612 376.293373 818.224612 267.568373 818.224612"></polygon>
                <path d="M270.900373,883.224612 L372.953373,883.224612 L372.953373,822.814612 L270.900373,822.814612 L270.900373,883.224612 Z M264.224373,892.394612 L379.623373,892.394612 L379.623373,813.624612 L264.224373,813.624612 L264.224373,892.394612 Z" id="Fill-147" fill="#A2233D"></path>
                <polygon id="Fill-148" fill="#CC3351" points="376.293373 887.814612 485.013373 887.814612 485.013373 818.224612 376.293373 818.224612"></polygon>
                <path d="M379.623373,883.224612 L481.673373,883.224612 L481.673373,822.814612 L379.623373,822.814612 L379.623373,883.224612 Z M372.953373,892.394612 L488.353373,892.394612 L488.353373,813.624612 L372.953373,813.624612 L372.953373,892.394612 Z" id="Fill-149" fill="#A2233D"></path>
                <polygon id="Fill-150" fill="#CC3351" points="485.013373 887.814612 593.743373 887.814612 593.743373 818.224612 485.013373 818.224612"></polygon>
                <path d="M488.353373,883.224612 L590.413373,883.224612 L590.413373,822.814612 L488.353373,822.814612 L488.353373,883.224612 Z M481.673373,892.394612 L597.073373,892.394612 L597.073373,813.624612 L481.673373,813.624612 L481.673373,892.394612 Z" id="Fill-151" fill="#A2233D"></path>
                <polygon id="Fill-152" fill="#CC3351" points="593.743373 887.814612 702.463373 887.814612 702.463373 818.224612 593.743373 818.224612"></polygon>
                <path d="M597.073373,883.224612 L699.123373,883.224612 L699.123373,822.814612 L597.073373,822.814612 L597.073373,883.224612 Z M590.413373,892.394612 L705.803373,892.394612 L705.803373,813.624612 L590.413373,813.624612 L590.413373,892.394612 Z" id="Fill-153" fill="#A2233D"></path>
                <polygon id="Fill-154" fill="#CC3351" points="702.463373 887.814612 811.193373 887.814612 811.193373 818.224612 702.463373 818.224612"></polygon>
                <path d="M705.803373,883.224612 L807.863373,883.224612 L807.863373,822.814612 L705.803373,822.814612 L705.803373,883.224612 Z M699.123373,892.394612 L814.523373,892.394612 L814.523373,813.624612 L699.123373,813.624612 L699.123373,892.394612 Z" id="Fill-155" fill="#A2233D"></path>
                <polygon id="Fill-156" fill="#CC3351" points="321.933373 818.224612 430.653373 818.224612 430.653373 748.634612 321.933373 748.634612"></polygon>
                <path d="M325.263373,813.624612 L427.323373,813.624612 L427.323373,753.224612 L325.263373,753.224612 L325.263373,813.624612 Z M318.603373,822.814612 L433.983373,822.814612 L433.983373,744.044612 L318.603373,744.044612 L318.603373,822.814612 Z" id="Fill-157" fill="#A2233D"></path>
                <polygon id="Fill-158" fill="#CC3351" points="430.653373 818.224612 539.383373 818.224612 539.383373 748.634612 430.653373 748.634612"></polygon>
                <path d="M433.983373,813.624612 L536.053373,813.624612 L536.053373,753.224612 L433.983373,753.224612 L433.983373,813.624612 Z M427.323373,822.814612 L542.713373,822.814612 L542.713373,744.044612 L427.323373,744.044612 L427.323373,822.814612 Z" id="Fill-159" fill="#A2233D"></path>
                <polygon id="Fill-160" fill="#CC3351" points="539.383373 818.224612 648.103373 818.224612 648.103373 748.634612 539.383373 748.634612"></polygon>
                <path d="M542.713373,813.624612 L644.773373,813.624612 L644.773373,753.224612 L542.713373,753.224612 L542.713373,813.624612 Z M536.053373,822.814612 L651.443373,822.814612 L651.443373,744.044612 L536.053373,744.044612 L536.053373,822.814612 Z" id="Fill-161" fill="#A2233D"></path>
                <polygon id="Fill-162" fill="#CC3351" points="648.103373 818.224612 756.833373 818.224612 756.833373 748.634612 648.103373 748.634612"></polygon>
                <path d="M651.443373,813.624612 L753.493373,813.624612 L753.493373,753.224612 L651.443373,753.224612 L651.443373,813.624612 Z M644.773373,822.814612 L760.163373,822.814612 L760.163373,744.044612 L644.773373,744.044612 L644.773373,822.814612 Z" id="Fill-163" fill="#A2233D"></path>
                <polygon id="Fill-164" fill="#CC3351" points="756.833373 818.224612 865.553373 818.224612 865.553373 748.634612 756.833373 748.634612"></polygon>
                <path d="M760.163373,813.624612 L862.223373,813.624612 L862.223373,753.224612 L760.163373,753.224612 L760.163373,813.624612 Z M753.493373,822.814612 L868.893373,822.814612 L868.893373,744.044612 L753.493373,744.044612 L753.493373,822.814612 Z" id="Fill-165" fill="#A2233D"></path>
                <polygon id="Fill-166" fill="#CC3351" points="376.293373 748.634612 485.013373 748.634612 485.013373 679.044612 376.293373 679.044612"></polygon>
                <path d="M379.623373,744.044612 L481.673373,744.044612 L481.673373,683.634612 L379.623373,683.634612 L379.623373,744.044612 Z M372.953373,753.224612 L488.353373,753.224612 L488.353373,674.454612 L372.953373,674.454612 L372.953373,753.224612 Z" id="Fill-167" fill="#A2233D"></path>
                <polygon id="Fill-168" fill="#CC3351" points="485.013373 748.634612 593.743373 748.634612 593.743373 679.044612 485.013373 679.044612"></polygon>
                <path d="M488.353373,744.044612 L590.413373,744.044612 L590.413373,683.634612 L488.353373,683.634612 L488.353373,744.044612 Z M481.673373,753.224612 L597.073373,753.224612 L597.073373,674.454612 L481.673373,674.454612 L481.673373,753.224612 Z" id="Fill-169" fill="#A2233D"></path>
                <polygon id="Fill-170" fill="#CC3351" points="593.743373 748.634612 702.463373 748.634612 702.463373 679.044612 593.743373 679.044612"></polygon>
                <path d="M597.073373,744.044612 L699.123373,744.044612 L699.123373,683.634612 L597.073373,683.634612 L597.073373,744.044612 Z M590.413373,753.224612 L705.803373,753.224612 L705.803373,674.454612 L590.413373,674.454612 L590.413373,753.224612 Z" id="Fill-171" fill="#A2233D"></path>
                <polygon id="Fill-172" fill="#CC3351" points="702.463373 748.634612 811.193373 748.634612 811.193373 679.044612 702.463373 679.044612"></polygon>
                <path d="M705.803373,744.044612 L807.863373,744.044612 L807.863373,683.634612 L705.803373,683.634612 L705.803373,744.044612 Z M699.123373,753.224612 L814.523373,753.224612 L814.523373,674.454612 L699.123373,674.454612 L699.123373,753.224612 Z" id="Fill-173" fill="#A2233D"></path>
                <polygon id="Fill-174" fill="#CC3351" points="430.653373 679.044612 539.383373 679.044612 539.383373 609.454612 430.653373 609.454612"></polygon>
                <path d="M433.983373,674.454612 L536.053373,674.454612 L536.053373,614.044612 L433.983373,614.044612 L433.983373,674.454612 Z M427.323373,683.634612 L542.713373,683.634612 L542.713373,604.854612 L427.323373,604.854612 L427.323373,683.634612 Z" id="Fill-175" fill="#A2233D"></path>
                <polygon id="Fill-176" fill="#CC3351" points="539.383373 679.044612 648.103373 679.044612 648.103373 609.454612 539.383373 609.454612"></polygon>
                <path d="M542.713373,674.454612 L644.773373,674.454612 L644.773373,614.044612 L542.713373,614.044612 L542.713373,674.454612 Z M536.053373,683.634612 L651.443373,683.634612 L651.443373,604.854612 L536.053373,604.854612 L536.053373,683.634612 Z" id="Fill-177" fill="#A2233D"></path>
                <polygon id="Fill-178" fill="#CC3351" points="648.103373 679.044612 756.833373 679.044612 756.833373 609.454612 648.103373 609.454612"></polygon>
                <path d="M651.443373,674.454612 L753.493373,674.454612 L753.493373,614.044612 L651.443373,614.044612 L651.443373,674.454612 Z M644.773373,683.634612 L760.163373,683.634612 L760.163373,604.854612 L644.773373,604.854612 L644.773373,683.634612 Z" id="Fill-179" fill="#A2233D"></path>
                <polygon id="Fill-180" fill="#CC3351" points="756.833373 679.044612 865.553373 679.044612 865.553373 609.454612 756.833373 609.454612"></polygon>
                <path d="M760.163373,674.454612 L862.223373,674.454612 L862.223373,614.044612 L760.163373,614.044612 L760.163373,674.454612 Z M753.493373,683.634612 L868.893373,683.634612 L868.893373,604.854612 L753.493373,604.854612 L753.493373,683.634612 Z" id="Fill-181" fill="#A2233D"></path>
                <polygon id="Fill-182" fill="#CC3351" points="376.293373 609.454612 485.013373 609.454612 485.013373 539.864612 376.293373 539.864612"></polygon>
                <path d="M379.623373,604.854612 L481.673373,604.854612 L481.673373,544.454612 L379.623373,544.454612 L379.623373,604.854612 Z M372.953373,614.044612 L488.353373,614.044612 L488.353373,535.274612 L372.953373,535.274612 L372.953373,614.044612 Z" id="Fill-183" fill="#A2233D"></path>
                <polygon id="Fill-184" fill="#CC3351" points="485.013373 609.454612 593.743373 609.454612 593.743373 539.864612 485.013373 539.864612"></polygon>
                <path d="M488.353373,604.854612 L590.413373,604.854612 L590.413373,544.454612 L488.353373,544.454612 L488.353373,604.854612 Z M481.673373,614.044612 L597.073373,614.044612 L597.073373,535.274612 L481.673373,535.274612 L481.673373,614.044612 Z" id="Fill-185" fill="#A2233D"></path>
                <polygon id="Fill-186" fill="#CC3351" points="593.743373 609.454612 702.463373 609.454612 702.463373 539.864612 593.743373 539.864612"></polygon>
                <path d="M597.073373,604.854612 L699.123373,604.854612 L699.123373,544.454612 L597.073373,544.454612 L597.073373,604.854612 Z M590.413373,614.044612 L705.803373,614.044612 L705.803373,535.274612 L590.413373,535.274612 L590.413373,614.044612 Z" id="Fill-187" fill="#A2233D"></path>
                <polygon id="Fill-188" fill="#CC3351" points="702.463373 609.454612 811.193373 609.454612 811.193373 539.864612 702.463373 539.864612"></polygon>
                <path d="M705.803373,604.854612 L807.863373,604.854612 L807.863373,544.454612 L705.803373,544.454612 L705.803373,604.854612 Z M699.123373,614.044612 L814.523373,614.044612 L814.523373,535.274612 L699.123373,535.274612 L699.123373,614.044612 Z" id="Fill-189" fill="#A2233D"></path>
                <polygon id="Fill-190" fill="#CC3351" points="430.653373 539.864612 539.383373 539.864612 539.383373 470.274612 430.653373 470.274612"></polygon>
                <path d="M433.983373,535.274612 L536.053373,535.274612 L536.053373,474.864612 L433.983373,474.864612 L433.983373,535.274612 Z M427.323373,544.454612 L542.713373,544.454612 L542.713373,465.684612 L427.323373,465.684612 L427.323373,544.454612 Z" id="Fill-191" fill="#A2233D"></path>
                <polygon id="Fill-192" fill="#CC3351" points="539.383373 539.864612 648.103373 539.864612 648.103373 470.274612 539.383373 470.274612"></polygon>
                <path d="M542.713373,535.274612 L644.773373,535.274612 L644.773373,474.864612 L542.713373,474.864612 L542.713373,535.274612 Z M536.053373,544.454612 L651.443373,544.454612 L651.443373,465.684612 L536.053373,465.684612 L536.053373,544.454612 Z" id="Fill-193" fill="#A2233D"></path>
                <polygon id="Fill-194" fill="#CC3351" points="648.103373 539.864612 756.833373 539.864612 756.833373 470.274612 648.103373 470.274612"></polygon>
                <path d="M651.443373,535.274612 L753.493373,535.274612 L753.493373,474.864612 L651.443373,474.864612 L651.443373,535.274612 Z M644.773373,544.454612 L760.163373,544.454612 L760.163373,465.684612 L644.773373,465.684612 L644.773373,544.454612 Z" id="Fill-195" fill="#A2233D"></path>
                <polygon id="Fill-196" fill="#CC3351" points="376.293373 470.274612 485.013373 470.274612 485.013373 400.684612 376.293373 400.684612"></polygon>
                <path d="M379.623373,465.684612 L481.673373,465.684612 L481.673373,405.274612 L379.623373,405.274612 L379.623373,465.684612 Z M372.953373,474.864612 L488.353373,474.864612 L488.353373,396.094612 L372.953373,396.094612 L372.953373,474.864612 Z" id="Fill-197" fill="#A2233D"></path>
                <polygon id="Fill-198" fill="#CC3351" points="485.013373 470.274612 593.743373 470.274612 593.743373 400.684612 485.013373 400.684612"></polygon>
                <path d="M488.353373,465.684612 L590.413373,465.684612 L590.413373,405.274612 L488.353373,405.274612 L488.353373,465.684612 Z M481.673373,474.864612 L597.073373,474.864612 L597.073373,396.094612 L481.673373,396.094612 L481.673373,474.864612 Z" id="Fill-199" fill="#A2233D"></path>
                <polygon id="Fill-200" fill="#CC3351" points="593.743373 470.274612 702.463373 470.274612 702.463373 400.684612 593.743373 400.684612"></polygon>
                <path d="M597.073373,465.684612 L699.123373,465.684612 L699.123373,405.274612 L597.073373,405.274612 L597.073373,465.684612 Z M590.413373,474.864612 L705.803373,474.864612 L705.803373,396.094612 L590.413373,396.094612 L590.413373,474.864612 Z" id="Fill-201" fill="#A2233D"></path>
                <polygon id="Fill-202" fill="#CC3351" points="702.463373 470.274612 811.193373 470.274612 811.193373 400.684612 702.463373 400.684612"></polygon>
                <path d="M705.803373,465.684612 L807.863373,465.684612 L807.863373,405.274612 L705.803373,405.274612 L705.803373,465.684612 Z M699.123373,474.864612 L814.523373,474.864612 L814.523373,396.094612 L699.123373,396.094612 L699.123373,474.864612 Z" id="Fill-203" fill="#A2233D"></path>
                <polygon id="Fill-204" fill="#CC3351" points="430.653373 400.684612 539.383373 400.684612 539.383373 331.094612 430.653373 331.094612"></polygon>
                <path d="M433.983373,396.094612 L536.053373,396.094612 L536.053373,335.684612 L433.983373,335.684612 L433.983373,396.094612 Z M427.323373,405.274612 L542.713373,405.274612 L542.713373,326.504612 L427.323373,326.504612 L427.323373,405.274612 Z" id="Fill-205" fill="#A2233D"></path>
                <polygon id="Fill-206" fill="#CC3351" points="539.383373 400.684612 648.103373 400.684612 648.103373 331.094612 539.383373 331.094612"></polygon>
                <path d="M542.713373,396.094612 L644.773373,396.094612 L644.773373,335.684612 L542.713373,335.684612 L542.713373,396.094612 Z M536.053373,405.274612 L651.443373,405.274612 L651.443373,326.504612 L536.053373,326.504612 L536.053373,405.274612 Z" id="Fill-207" fill="#A2233D"></path>
                <polygon id="Fill-208" fill="#CC3351" points="648.103373 400.684612 756.833373 400.684612 756.833373 331.094612 648.103373 331.094612"></polygon>
                <path d="M651.443373,396.094612 L753.493373,396.094612 L753.493373,335.684612 L651.443373,335.684612 L651.443373,396.094612 Z M644.773373,405.274612 L760.163373,405.274612 L760.163373,326.504612 L644.773373,326.504612 L644.773373,405.274612 Z" id="Fill-209" fill="#A2233D"></path>
                <polygon id="Fill-210" fill="#CC3351" points="811.193373 887.814612 865.553373 887.814612 865.553373 818.224612 811.193373 818.224612"></polygon>
                <path d="M814.523373,883.224612 L862.223373,883.224612 L862.223373,822.814612 L814.523373,822.814612 L814.523373,883.224612 Z M807.863373,892.394612 L868.893373,892.394612 L868.893373,813.624612 L807.863373,813.624612 L807.863373,892.394612 Z" id="Fill-211" fill="#A2233D"></path>
                <polygon id="Fill-212" fill="#CC3351" points="811.193373 748.634612 865.553373 748.634612 865.553373 679.044612 811.193373 679.044612"></polygon>
                <path d="M814.523373,744.044612 L862.223373,744.044612 L862.223373,683.634612 L814.523373,683.634612 L814.523373,744.044612 Z M807.863373,753.224612 L868.893373,753.224612 L868.893373,674.454612 L807.863373,674.454612 L807.863373,753.224612 Z" id="Fill-213" fill="#A2233D"></path>
                <polygon id="Fill-214" fill="#CC3351" points="811.193373 609.454612 865.553373 609.454612 865.553373 539.864612 811.193373 539.864612"></polygon>
                <path d="M814.523373,604.854612 L862.223373,604.854612 L862.223373,544.454612 L814.523373,544.454612 L814.523373,604.854612 Z M807.863373,614.044612 L868.893373,614.044612 L868.893373,535.274612 L807.863373,535.274612 L807.863373,614.044612 Z" id="Fill-215" fill="#A2233D"></path>
                <path d="M410.263373,332.074612 C428.063373,363.884612 420.613373,413.654612 443.173373,441.114612 C472.183373,476.434612 478.213373,412.684612 503.083373,406.914612 C517.673373,403.534612 529.703373,421.724612 539.733373,433.234612 C551.123373,446.284612 561.773373,452.024612 573.293373,434.874612 C580.503373,424.144612 587.183373,412.924612 596.623373,405.854612 C606.073373,398.774612 619.483373,399.244612 629.553373,403.004612 C644.633373,408.654612 665.603373,425.354612 680.233373,410.334612 C689.143373,401.174612 695.843373,386.294612 706.503373,380.544612 C719.043373,373.774612 735.343373,382.104612 742.123373,361.094612 C745.483373,350.664612 747.743373,338.824612 749.133373,326.504612 L406.723373,326.504612 C408.023373,328.364612 409.233373,330.234612 410.263373,332.074612" id="Fill-216" fill="#A8969D"></path>
            </g>
        </g>
    </g>
</svg>