<?xml version="1.0" encoding="UTF-8"?>
<svg width="76px" height="68px" viewBox="0 0 76 68" version="1.1" xmlns="http://www.w3.org/2000/svg" xmlns:xlink="http://www.w3.org/1999/xlink">
    <title>heart-broken</title>
    <g id="Page-1" stroke="none" stroke-width="1" fill="none" fill-rule="evenodd">
        <g id="heart-broken" transform="translate(38.000000, 34.000000) rotate(11.000000) translate(-38.000000, -34.000000) translate(5.000000, 6.000000)" fill-rule="nonzero">
            <path d="M32.9389793,51.8022777 L34.0154604,46.7933123 L35,42.4303368 L33.5500068,41.3157257 L26.9321385,36.1274534 L31.396087,30.5340441 L33.2607744,28.1996608 L34.3439595,26.8708505 L29.9274183,23.6888781 L24.5129293,19.6961473 L23.7132303,19.1068573 L24.2347106,18.2917373 C24.8859625,17.2740489 25.5654672,16.2738066 26.2301272,15.2643567 L28.2351211,12.243276 L30.2683678,9.240126 C30.8018197,8.45844439 31.3314407,7.67530894 31.8687235,6.8960504 C28.6009714,2.69929731 23.5394035,0 17.849569,0 C7.99172253,0 0,8.08771505 0,18.0644536 C0,22.3998062 1.51176632,26.3760601 4.02722671,29.4892173 C4.02722671,29.4892173 27.7557805,53.9205234 32.0880421,56 L32.9389793,51.8022777" id="Fill-16" fill="#DC3970"></path>
            <path d="M47.9730668,0 C42.1644636,0 37.0043773,2.75522517 33.7081122,7.02553375 C33.153415,8.01687268 32.5798571,8.9970784 32.0145206,9.98212464 L30.1927732,13.1279799 L28.3424929,16.2559253 C27.8937057,17.0091106 27.4497545,17.764232 27,18.5164491 L31.803668,21.7736364 L38.4140916,26.3629354 L35.7131467,29.697087 L33.8033828,32.0065001 L30.709749,35.7443513 L33.5514235,38.1084623 L35.4215317,39.6651742 L37.2776152,41.239796 L37.7723451,41.6599533 L36.1769257,47.1462011 L34.697572,52.0477137 L33.4527677,56 C37.3980333,54.4442562 61.3003075,30.1632293 61.3003075,30.1632293 C64.2106542,26.9588037 66,22.715602 66,18.0435301 C66,8.07834731 57.9290834,0 47.9730668,0" id="Fill-17" fill="#9D2053"></path>
        </g>
    </g>
</svg>