<?xml version="1.0" encoding="UTF-8"?>
<svg width="551px" height="572px" viewBox="0 0 551 572" version="1.1" xmlns="http://www.w3.org/2000/svg" xmlns:xlink="http://www.w3.org/1999/xlink">
    <title>Group</title>
    <g id="Page-1" stroke="none" stroke-width="1" fill="none" fill-rule="evenodd">
        <g id="t_46" transform="translate(-51.000000, -33.000000)">
            <g id="Group" transform="translate(51.572000, 33.911000)">
                <path d="M146.077,290.769 L107.7,254.777 M108.887,291.968 L144.887,253.593 M481.639,140.493 L443.262,104.501 M444.448,141.692 L480.448,103.317" id="Stroke-3" stroke="#000105" stroke-width="7" stroke-linecap="round" stroke-linejoin="round"></path>
                <polyline id="Fill-4" fill="#000105" points="454.458 308.955 468.289 284.787 482.3 308.85 468.379 308.9 454.458 308.955"></polyline>
                <polyline id="Fill-5" fill="#000105" points="33.844 523.058 47.674 498.89 61.685 522.954 47.764 523.004 33.844 523.058"></polyline>
                <path d="M70.523,91.921 L51.008,80.753 L60.725,75.094 L70.439,69.439 L70.523,91.921 Z M82.946,91.921 L63.43,80.753 L73.147,75.094 L82.861,69.439 L82.946,91.921 Z M479.539,504.273 L460.025,493.104 L469.741,487.446 L479.455,481.791 L479.494,493.032 L479.539,504.273 Z M491.962,504.273 L472.446,493.104 L482.162,487.446 L491.877,481.791 L491.962,504.273 Z M188.258,417.792 L178.499,412.206 L168.742,406.623 L178.459,400.964 L188.174,395.309 L188.213,406.55 L188.258,417.792 Z M200.68,417.792 L190.921,412.206 L181.164,406.623 L190.881,400.964 L200.596,395.309 L200.68,417.792 Z" id="Stroke-6" stroke="#000105"></path>
                <polyline id="Fill-7" fill="#000105" points="384.063 48.237 374.304 42.651 364.547 37.068 374.264 31.41 383.979 25.755 384.063 48.237"></polyline>
                <polyline id="Fill-8" fill="#000105" points="271.17 480.061 251.655 468.892 261.371 463.234 271.085 457.579 271.17 480.061"></polyline>
                <path d="M107.89,91.921 L88.374,80.753 L98.091,75.094 L107.805,69.439 L107.89,91.921 Z M171.194,23.299 L158.986,37.084 L171.246,50.692 L171.194,23.299 Z M193.706,23.299 L181.498,37.084 L193.76,50.692 L193.706,23.299 Z M216.219,23.299 L204.012,37.084 L216.272,50.692 L216.219,23.299 Z M238.731,23.299 L226.524,37.084 L238.785,50.692 L238.731,23.299 Z M482.071,359.334 L469.862,373.118 L482.124,386.726 L482.071,359.334 Z M504.583,359.334 L498.479,366.224 L492.375,373.118 L504.637,386.726 L504.583,359.334 Z M527.096,359.334 L520.992,366.224 L514.888,373.118 L527.149,386.726 L527.096,359.334 Z M549.609,359.334 L543.505,366.224 L537.401,373.118 L549.662,386.726 L549.609,359.334 Z" id="Stroke-9" stroke="#000105"></path>
                <path d="M512.762,34.229 L504.854,22.021 L500.953,28.151 L497.045,34.283 M20.321,158.012 L12.41,145.804 L8.512,151.934 L4.604,158.066 M129.362,444.339 L121.451,432.131 L117.551,438.261 L113.645,444.393" id="Stroke-10" stroke="#000105" stroke-width="7" stroke-linecap="round" stroke-linejoin="round"></path>
                <path d="M111.198,506.008 L98.991,519.793 L111.252,533.401 L111.198,506.008 Z M133.711,506.008 L121.503,519.793 L133.764,533.401 L133.711,506.008 Z M156.224,506.008 L144.016,519.793 L156.277,533.401 L156.224,506.008 Z M178.737,506.008 L166.529,519.793 L178.79,533.401 L178.737,506.008 Z M242.942,151.48 L300.893,151.48 L300.893,93.529 L242.942,93.529 L242.942,151.48 Z M242.942,93.529 L260.629,75.844 L318.578,75.844 L318.578,133.795 L300.893,151.48 L242.942,93.529 Z M318.578,75.844 L300.893,93.529 L318.578,75.844 Z M323.242,464.105 L381.194,464.105 L381.194,406.154 L323.242,406.154 L323.242,464.105 Z M381.194,464.105 L363.506,481.791 L305.557,481.791 L305.557,423.839 L323.242,406.154 L381.194,464.105 Z M305.557,481.791 L323.242,464.105 L305.557,481.791 Z M412.56,244.943 C412.56,239.586 416.9,235.243 422.257,235.243 L515.329,235.243 C520.686,235.243 525.03,239.586 525.03,244.943 L525.03,250.949 C525.03,256.306 520.686,260.65 515.329,260.65 L422.257,260.65 C416.9,260.65 412.56,256.306 412.56,250.949 L412.56,244.943 Z M516.484,260.65 C511.124,260.65 506.784,256.306 506.784,250.949 L506.784,244.943 C506.784,239.586 511.124,235.243 516.484,235.243 L516.484,260.65 Z M128.477,535.077 C128.477,529.719 132.817,525.377 138.174,525.377 L231.246,525.377 C236.603,525.377 240.946,529.719 240.946,535.077 L240.946,541.083 C240.946,546.44 236.603,550.784 231.246,550.784 L138.174,550.784 C132.817,550.784 128.477,546.44 128.477,541.083 L128.477,535.077 Z M232.401,550.784 C227.041,550.784 222.701,546.44 222.701,541.083 L222.701,535.077 C222.701,529.719 227.041,525.377 232.401,525.377 L232.401,550.784 Z M23.826,224.178 C21.367,221.719 21.366,217.735 23.824,215.277 L66.534,172.567 C68.992,170.11 72.979,170.109 75.437,172.567 L78.193,175.323 C80.651,177.781 80.651,181.768 78.194,184.226 L35.483,226.936 C33.026,229.394 29.039,229.392 26.582,226.934 L23.826,224.178 Z M359.664,424.196 C357.205,421.737 357.203,417.753 359.662,415.295 L402.372,372.585 C404.83,370.128 408.817,370.127 411.275,372.585 L414.03,375.34 C416.489,377.798 416.489,381.786 414.032,384.244 L371.321,426.954 C368.864,429.412 364.877,429.41 362.42,426.952 L359.664,424.196 Z M25.192,379.323 C25.192,375.68 28.143,372.727 31.785,372.727 L95.073,372.727 C98.715,372.727 101.668,375.68 101.668,379.323 L101.668,383.407 C101.668,387.049 98.715,390.004 95.073,390.004 L31.785,390.004 C28.143,390.004 25.192,387.049 25.192,383.407 L25.192,379.323 Z M95.858,390.004 C92.213,390.004 89.262,387.049 89.262,383.407 L89.262,379.323 C89.262,375.68 92.213,372.727 95.858,372.727 L95.858,390.004 Z M435.772,547.223 L439.08,543.453 L442.392,539.685 L449.016,547.223 L435.772,547.223 Z M449.016,547.223 L452.326,543.453 L455.637,539.685 L462.26,547.223 L449.016,547.223 Z M462.26,547.223 L465.569,543.453 L468.879,539.685 L472.192,543.453 L475.501,547.223 L462.26,547.223 Z M475.501,547.223 L482.123,539.685 L485.436,543.453 L488.746,547.223 L475.501,547.223 Z M488.746,547.223 L495.367,539.685 L498.68,543.453 L501.99,547.223 L488.746,547.223 Z M501.99,547.223 L505.3,543.453 L508.612,539.685 L511.923,543.453 L515.233,547.223 L501.99,547.223 Z M515.233,547.223 L518.543,543.453 L521.856,539.685 L525.168,543.453 L528.477,547.223 L515.233,547.223 Z" id="Stroke-11" stroke="#000105"></path>
                <path d="M435.772,558.844 L439.08,555.074 L442.392,551.304 L445.703,555.074 L449.016,558.844 M449.016,558.844 L455.637,551.304 L462.26,558.844 M462.26,558.844 L468.879,551.304 L472.192,555.074 L475.501,558.844 M475.501,558.844 L478.813,555.074 L482.123,551.304 L485.436,555.074 L488.746,558.844 M488.746,558.844 L495.367,551.304 L498.68,555.074 L501.99,558.844 M501.99,558.844 L505.3,555.074 L508.612,551.304 L515.233,558.844 M515.233,558.844 L518.543,555.074 L521.856,551.304 L525.168,555.074 L528.477,558.844 M164.846,120.455 L168.154,116.684 L171.465,112.917 L174.777,116.684 L178.089,120.455 M178.089,120.455 L181.4,116.684 L184.71,112.917 L188.021,116.684 L191.333,120.455 M191.333,120.455 L194.642,116.684 L197.953,112.917 L201.264,116.684 L204.574,120.455 M204.574,120.455 L211.196,112.917 L214.51,116.684 L217.82,120.455 M217.82,120.455 L221.129,116.684 L224.441,112.917 L227.752,116.684 L231.063,120.455 M231.063,120.455 L234.373,116.684 L237.685,112.917 L240.996,116.684 L244.306,120.455 M244.306,120.455 L247.617,116.684 L250.93,112.917 L254.241,116.684 L257.55,120.455 M164.846,132.076 L168.154,128.305 L171.465,124.536 L178.089,132.076 M178.089,132.076 L184.71,124.536 L191.333,132.076 M191.333,132.076 L194.642,128.305 L197.953,124.536 L201.264,128.305 L204.574,132.076 M204.574,132.076 L207.887,128.305 L211.196,124.536 L214.51,128.305 L217.82,132.076 M217.82,132.076 L221.129,128.305 L224.441,124.536 L231.063,132.076 M231.063,132.076 L234.373,128.305 L237.685,124.536 L240.996,128.305 L244.306,132.076 M244.306,132.076 L247.617,128.305 L250.93,124.536 L254.241,128.305 L257.55,132.076" id="Stroke-12" stroke="#000105"></path>
                <path d="M321.313,149.565 C321.313,160.843 312.171,169.986 300.893,169.986 C289.614,169.986 280.472,160.843 280.472,149.565 C280.472,138.287 289.614,129.144 300.893,129.144 C312.171,129.144 321.313,138.287 321.313,149.565 Z M53.304,381.365 C53.304,392.643 44.161,401.786 32.883,401.786 C21.605,401.786 12.462,392.643 12.462,381.365 C12.462,370.087 21.605,360.944 32.883,360.944 C44.161,360.944 53.304,370.087 53.304,381.365 Z M482.868,433.739 C482.868,445.017 473.725,454.16 462.448,454.16 C451.169,454.16 442.026,445.017 442.026,433.739 C442.026,422.461 451.169,413.318 462.448,413.318 C473.725,413.318 482.868,422.461 482.868,433.739 Z" id="Stroke-30" stroke="#000105" stroke-width="7" stroke-linecap="round" stroke-linejoin="round"></path>
                <path d="M521.248,188.982 C521.248,191.183 519.465,192.966 517.264,192.966 C515.063,192.966 513.28,191.183 513.28,188.982 C513.28,186.781 515.063,184.998 517.264,184.998 C519.465,184.998 521.248,186.781 521.248,188.982" id="Fill-31" fill="#000105"></path>
                <path d="M541.227,182.801 C541.227,185.003 539.444,186.786 537.242,186.786 C535.041,186.786 533.258,185.003 533.258,182.801 C533.258,180.6 535.041,178.817 537.242,178.817 C539.444,178.817 541.227,180.6 541.227,182.801 Z M518.872,169.986 C518.872,172.187 517.089,173.97 514.888,173.97 C512.687,173.97 510.904,172.187 510.904,169.986 C510.904,167.785 512.687,166.002 514.888,166.002 C517.089,166.002 518.872,167.785 518.872,169.986 Z M99.842,149.565 C99.842,151.766 98.059,153.549 95.858,153.549 C93.657,153.549 91.873,151.766 91.873,149.565 C91.873,147.364 93.657,145.581 95.858,145.581 C98.059,145.581 99.842,147.364 99.842,149.565 Z" id="Stroke-32" stroke="#000105"></path>
                <path d="M113.686,3.984 C113.686,6.185 111.903,7.968 109.701,7.968 C107.5,7.968 105.717,6.185 105.717,3.984 C105.717,1.783 107.5,0 109.701,0 C111.903,0 113.686,1.783 113.686,3.984" id="Fill-33" fill="#000105"></path>
                <path d="M99.842,16.068 C99.842,18.269 98.059,20.052 95.858,20.052 C93.657,20.052 91.873,18.269 91.873,16.068 C91.873,13.867 93.657,12.084 95.858,12.084 C98.059,12.084 99.842,13.867 99.842,16.068 Z" id="Stroke-34" stroke="#000105"></path>
                <path d="M148,203.781 C148,205.982 146.217,207.765 144.016,207.765 C141.815,207.765 140.032,205.982 140.032,203.781 C140.032,201.58 141.815,199.797 144.016,199.797 C146.217,199.797 148,201.58 148,203.781" id="Fill-35" fill="#000105"></path>
                <path d="M378.29,132.076 C378.29,134.277 376.507,136.06 374.306,136.06 C372.105,136.06 370.322,134.277 370.322,132.076 C370.322,129.875 372.105,128.091 374.306,128.091 C376.507,128.091 378.29,129.875 378.29,132.076 Z M16.446,278.764 C16.446,280.965 14.662,282.749 12.462,282.749 C10.262,282.749 8.477,280.965 8.477,278.764 C8.477,276.563 10.262,274.78 12.462,274.78 C14.662,274.78 16.446,276.563 16.446,278.764 Z" id="Stroke-36" stroke="#000105"></path>
                <path d="M24.305,296.474 C24.305,298.675 22.522,300.459 20.321,300.459 C18.119,300.459 16.336,298.675 16.336,296.474 C16.336,294.273 18.119,292.49 20.321,292.49 C22.522,292.49 24.305,294.273 24.305,296.474" id="Fill-37" fill="#000105"></path>
                <path d="M7.969,464.868 C7.969,467.069 6.186,468.852 3.985,468.852 C1.783,468.852 0,467.069 0,464.868 C0,462.667 1.783,460.883 3.985,460.883 C6.186,460.883 7.969,462.667 7.969,464.868 Z M51.748,565.991 C51.748,568.192 49.965,569.975 47.764,569.975 C45.563,569.975 43.78,568.192 43.78,565.991 C43.78,563.79 45.563,562.006 47.764,562.006 C49.965,562.006 51.748,563.79 51.748,565.991 Z M175.231,472.948 C175.231,475.149 173.448,476.932 171.246,476.932 C169.045,476.932 167.262,475.149 167.262,472.948 C167.262,470.747 169.045,468.963 171.246,468.963 C173.448,468.963 175.231,470.747 175.231,472.948 Z" id="Stroke-38" stroke="#000105"></path>
                <path d="M188.696,464.868 C188.696,467.069 186.912,468.852 184.711,468.852 C182.51,468.852 180.727,467.069 180.727,464.868 C180.727,462.667 182.51,460.883 184.711,460.883 C186.912,460.883 188.696,462.667 188.696,464.868" id="Fill-39" fill="#000105"></path>
                <path d="M294.596,562.006 C294.596,564.208 292.813,565.991 290.613,565.991 C288.41,565.991 286.627,564.208 286.627,562.006 C286.627,559.805 288.41,558.022 290.613,558.022 C292.813,558.022 294.596,559.805 294.596,562.006 Z M399.149,311.867 C399.149,314.068 397.366,315.851 395.164,315.851 C392.963,315.851 391.18,314.068 391.18,311.867 C391.18,309.666 392.963,307.882 395.164,307.882 C397.366,307.882 399.149,309.666 399.149,311.867 Z M412.558,328.87 C412.558,331.071 410.775,332.854 408.574,332.854 C406.372,332.854 404.589,331.071 404.589,328.87 C404.589,326.669 406.372,324.885 408.574,324.885 C410.775,324.885 412.558,326.669 412.558,328.87 Z M291.875,14.907 C291.875,17.108 290.094,18.891 287.892,18.891 C285.691,18.891 283.907,17.108 283.907,14.907 C283.907,12.706 285.691,10.922 287.892,10.922 C290.094,10.922 291.875,12.706 291.875,14.907 Z M305.285,31.91 C305.285,34.111 303.502,35.894 301.301,35.894 C299.1,35.894 297.317,34.111 297.317,31.91 C297.317,29.709 299.1,27.925 301.301,27.925 C303.502,27.925 305.285,29.709 305.285,31.91 Z M529.012,464.868 C529.012,467.069 527.229,468.852 525.028,468.852 C522.826,468.852 521.043,467.069 521.043,464.868 C521.043,462.667 522.826,460.883 525.028,460.883 C527.229,460.883 529.012,462.667 529.012,464.868 Z" id="Stroke-40" stroke="#000105"></path>
                <path d="M535.242,502.273 C535.242,504.474 533.459,506.257 531.258,506.257 C529.057,506.257 527.274,504.474 527.274,502.273 C527.274,500.072 529.057,498.289 531.258,498.289 C533.459,498.289 535.242,500.072 535.242,502.273" id="Fill-41" fill="#000105"></path>
                <path d="M545.211,487.84 C545.211,490.042 543.428,491.825 541.227,491.825 C539.026,491.825 537.242,490.042 537.242,487.84 C537.242,485.639 539.026,483.856 541.227,483.856 C543.428,483.856 545.211,485.639 545.211,487.84 Z M479.977,7.968 C479.977,10.17 478.194,11.953 475.993,11.953 C473.791,11.953 472.01,10.17 472.01,7.968 C472.01,5.767 473.791,3.984 475.993,3.984 C478.194,3.984 479.977,5.767 479.977,7.968 Z M7.969,300.402 C7.969,302.603 6.186,304.386 3.985,304.386 C1.783,304.386 0,302.603 0,300.402 C0,298.201 1.783,296.418 3.985,296.418 C6.186,296.418 7.969,298.201 7.969,300.402 Z M336.194,372.658 L335.053,377.526 L330.184,376.384 L336.194,372.658 Z" id="Stroke-42" stroke="#000105"></path>
                <polyline id="Stroke-44" stroke="#000105" points="170.199 338.839 165.332 337.698 166.475 332.83"></polyline>
                <polyline id="Stroke-46" stroke="#000105" points="198.371 196.914 199.514 192.046 204.381 193.188"></polyline>
                <polyline id="Stroke-48" stroke="#000105" points="364.366 230.734 369.234 231.877 368.091 236.744"></polyline>
                <polyline id="Stroke-50" stroke="#000105" points="348.275 248.908 349.417 253.776 354.285 252.633"></polyline>
                <line x1="366.289" y1="249.817" x2="384.295" y2="245.591" id="Stroke-51" stroke="#000105" stroke-dasharray="12.33,12.33"></line>
                <polyline id="Stroke-52" stroke="#000105" points="390.297 244.183 395.164 243.041 394.022 238.173"></polyline>
                <line x1="391.711" y1="228.332" x2="388.248" y2="213.57" id="Stroke-53" stroke="#000105" stroke-dasharray="10.109,10.109"></line>
                <polyline id="Stroke-54" stroke="#000105" points="387.094 208.648 385.95 203.781 381.082 204.923"></polyline>
                <line x1="369.078" y1="207.74" x2="351.073" y2="211.966" id="Stroke-55" stroke="#000105" stroke-dasharray="12.33,12.33"></line>
                <polyline id="Stroke-56" stroke="#000105" points="345.071 213.375 340.203 214.517 341.346 219.384"></polyline>
                <line x1="343.656" y1="229.226" x2="347.119" y2="243.988" id="Stroke-57" stroke="#000105" stroke-dasharray="10.108,10.108"></line>
                <polyline id="Stroke-58" stroke="#000105" points="12.056 57.125 13.198 61.993 18.067 60.85"></polyline>
                <line x1="30.071" y1="58.034" x2="48.076" y2="53.808" id="Stroke-59" stroke="#000105" stroke-dasharray="12.33,12.33"></line>
                <polyline id="Stroke-60" stroke="#000105" points="54.078 52.4 58.946 51.257 57.803 46.39"></polyline>
                <line x1="55.493" y1="36.548" x2="52.03" y2="21.787" id="Stroke-61" stroke="#000105" stroke-dasharray="10.109,10.109"></line>
                <polyline id="Stroke-62" stroke="#000105" points="50.874 16.865 49.731 11.998 44.864 13.14"></polyline>
                <line x1="32.86" y1="15.957" x2="14.854" y2="20.183" id="Stroke-63" stroke="#000105" stroke-dasharray="12.33,12.33"></line>
                <polyline id="Stroke-64" stroke="#000105" points="8.852 21.591 3.985 22.734 5.127 27.601"></polyline>
                <line x1="7.437" y1="37.443" x2="10.901" y2="52.205" id="Stroke-65" stroke="#000105" stroke-dasharray="10.108,10.108"></line>
                <polyline id="Stroke-66" stroke="#000105" points="341.41 552.615 342.553 557.483 347.421 556.34"></polyline>
                <line x1="359.425" y1="553.524" x2="377.43" y2="549.298" id="Stroke-67" stroke="#000105" stroke-dasharray="12.33,12.33"></line>
                <polyline id="Stroke-68" stroke="#000105" points="383.433 547.89 388.3 546.748 387.157 541.88"></polyline>
                <line x1="384.848" y1="532.039" x2="381.384" y2="517.277" id="Stroke-69" stroke="#000105" stroke-dasharray="10.109,10.109"></line>
                <polyline id="Stroke-70" stroke="#000105" points="380.229 512.355 379.086 507.488 374.219 508.63"></polyline>
                <line x1="362.213" y1="511.447" x2="344.208" y2="515.673" id="Stroke-71" stroke="#000105" stroke-dasharray="12.33,12.33"></line>
                <polyline id="Stroke-72" stroke="#000105" points="338.206 517.082 333.339 518.224 334.481 523.091"></polyline>
                <line x1="336.791" y1="532.933" x2="340.255" y2="547.695" id="Stroke-73" stroke="#000105" stroke-dasharray="10.108,10.108"></line>
            </g>
        </g>
    </g>
</svg>