<?xml version="1.0" encoding="UTF-8"?>
<svg width="582px" height="618px" viewBox="0 0 582 618" version="1.1" xmlns="http://www.w3.org/2000/svg" xmlns:xlink="http://www.w3.org/1999/xlink">
    <title>Group</title>
    <g id="Page-1" stroke="none" stroke-width="1" fill="none" fill-rule="evenodd">
        <g id="Group" transform="translate(0.800000, 0.700000)" fill-rule="nonzero">
            <path d="M578.6,290.4 C560.7,147.2 438.5,36.3 290.4,36.3 C142.3,36.3 20.1,147.2 2.3,290.4 L-1.13686838e-13,290.4 L-1.13686838e-13,326.7 C-1.13686838e-13,487.1 130,617.1 290.4,617.1 C450.8,617.1 580.8,487.1 580.8,326.7 L580.8,290.4 L578.6,290.4 Z M290.4,397.7 C251.2,397.7 219.4,365.9 219.4,326.7 C219.4,287.5 251.2,255.7 290.4,255.7 C329.6,255.7 361.4,287.5 361.4,326.7 C361.4,365.9 329.6,397.7 290.4,397.7 Z" id="Shape" fill="#F49547"></path>
            <path d="M290.4,1.42108547e-14 C130,1.42108547e-14 -1.13686838e-13,130 -1.13686838e-13,290.4 C-1.13686838e-13,450.8 130,580.8 290.4,580.8 C450.8,580.8 580.8,450.8 580.8,290.4 C580.8,130 450.8,1.42108547e-14 290.4,1.42108547e-14 Z M290.4,361.4 C251.2,361.4 219.4,329.6 219.4,290.4 C219.4,251.2 251.2,219.4 290.4,219.4 C329.6,219.4 361.4,251.2 361.4,290.4 C361.4,329.6 329.6,361.4 290.4,361.4 Z" id="Shape" fill="#F8AD5C"></path>
            <path d="M290.4,21.5 C141.9,21.5 21.4,141.9 21.4,290.5 C21.4,439 141.8,559.5 290.4,559.5 C439,559.5 559.4,439.1 559.4,290.5 C559.4,141.9 439,21.5 290.4,21.5 Z M290.4,379.5 C241.2,379.5 201.3,339.6 201.3,290.4 C201.3,241.2 241.2,201.3 290.4,201.3 C339.6,201.3 379.5,241.2 379.5,290.4 C379.5,339.6 339.6,379.5 290.4,379.5 Z" id="Shape" fill="#F04F4A"></path>
            <g transform="translate(21.400000, 181.900000)" fill="#CC2132" id="Path">
                <path d="M269,-2.84217094e-14 C219.8,-2.84217094e-14 179.9,39.9 179.9,89.1 C179.9,92.4 180.1,95.6 180.4,98.8 C185.2,54.2 223,19.4 269,19.4 C314.9,19.4 352.7,54.2 357.6,98.8 C357.9,95.6 358.1,92.4 358.1,89.1 C358.1,39.9 318.2,-2.84217094e-14 269,-2.84217094e-14 Z"></path>
                <path d="M269,358.1 C123.7,358.1 5.3,242.9 0.2,98.8 C0.1,102 0,105.2 0,108.5 C0,257 120.4,377.5 269,377.5 C417.6,377.5 538,257.1 538,108.5 C538,105.3 537.9,102 537.8,98.8 C532.7,242.9 414.3,358.1 269,358.1 Z"></path>
            </g>
            <path d="M202.9,78.6 C200.8,74.1 194.5,75.9 193.2,79.9 C192,83.5 192.2,87.4 191.7,91.2 C191.2,95.8 189.9,100.2 189,104.8 C188.4,107.5 188.8,110.8 191.1,112.8 C193.6,114.9 195.8,116.1 199.1,114.9 C202.9,113.6 204.6,110.9 205.1,107 C206.3,98.4 206.7,86.6 202.9,78.6 Z" id="Path" fill="#FFFFFF"></path>
            <path d="M158.4,210 C156.3,203.6 150.9,200 145.8,196 C141.1,192.2 136.5,187.7 130.8,185.5 C126.6,183.8 124.1,189.1 125.6,192.3 C127.9,197.3 132.6,201.5 136.2,205.6 C140.4,210.4 144.3,215.9 150.7,217.7 C155.2,218.8 159.9,214.6 158.4,210 Z" id="Path" fill="#FFFFFF"></path>
            <path d="M137.9,314.7 C135.1,319.7 133,325 130.2,330 C127.1,335.6 123.1,340.5 124.1,347.2 C124.6,350.5 128.4,351.7 131.1,351.2 C137.4,350.1 141.1,343.1 143.6,337.9 C146.6,331.7 149.1,324.9 149.6,317.9 C150.1,311.5 140.9,309.4 137.9,314.7 Z" id="Path" fill="#FFFFFF"></path>
            <path d="M511.2,286.6 C508.4,289 506,291.7 503.2,294 C500.2,296.5 497.2,298.2 495.1,301.6 C493.1,304.8 495.7,309.3 499.5,309.2 C508.4,308.9 516.6,299.4 519.5,291.5 C521.4,286.4 514.6,283.6 511.2,286.6 Z" id="Path" fill="#FFFFFF"></path>
            <path d="M422.6,190.7 C422.5,190.2 422.4,189.6 422.4,189.1 C422.2,187.8 421.4,186.9 420.3,186.4 C418.1,182.6 416,178.5 413.1,175.3 C410.8,172.8 406.1,174.7 406.3,178.1 C406.5,182.2 407.9,186.2 409,190.2 C410.3,195.1 411.4,199.9 416.6,201.7 C419.3,202.7 421.5,201.2 422.6,199.1 C422.7,199.1 422.7,199.1 422.8,199.2 C424.2,196 423.8,193.4 422.6,190.7 Z" id="Path" fill="#FFFFFF"></path>
            <path d="M343.8,65.3 C338.8,74.7 337.1,85.1 342.7,94.6 C345,98.5 352.1,97.1 351.6,92.2 C350.9,84.5 350.1,76.5 352.5,69 C354.2,63.8 346.4,60.6 343.8,65.3 Z" id="Path" fill="#FFFFFF"></path>
            <path d="M151.6,430.5 C152,430.3 149.8,430.8 151,430.7 C149.5,430.8 148.3,431.2 146.9,431.6 C146.7,431.6 146.6,431.7 146.5,431.7 C146.2,431.7 145.9,431.7 145.6,431.7 C145.6,431.7 145.4,431.6 145,431.6 C144.4,431.5 143.8,431.2 143.3,431 C139.4,429.5 135.6,434.7 137.9,438 C140.1,441.3 143.9,443.3 147.9,443.5 C152.5,443.7 156.4,441.4 158.2,437.1 C160.1,432.7 156.2,428.2 151.6,430.5 Z" id="Path" fill="#FFFFFF"></path>
            <path d="M89.8,254.8 C85.3,249.1 77.6,244.3 70.4,242.7 C68.2,242.2 66.1,244.5 67.4,246.6 C71.5,253.2 78.8,258.7 86.1,261.2 C90.1,262.6 91.9,257.5 89.8,254.8 Z" id="Path" fill="#FFFFFF"></path>
            <path d="M506.6,200.2 C502.8,198.2 499.6,199.3 495.8,200.8 C491.9,202.3 488,203.8 484.1,205.3 C477.8,207.8 480.1,217.4 486.9,215.6 C490.5,214.7 494.1,213.8 497.6,212.8 C501.6,211.8 506.3,211 508.3,207 C509.6,204.7 509.2,201.5 506.6,200.2 Z" id="Path" fill="#FFFFFF"></path>
            <path d="M411.1,467.1 C410.3,463.7 409.1,460.1 407.5,457 C405.4,452.9 399.8,455.2 399.5,459.2 C399.3,462.3 399.7,465.6 400,468.7 C400.5,472.4 400.8,476.7 404.5,478.5 C406.2,479.4 408.6,479.4 410,477.8 C412.9,474.4 412.1,471 411.1,467.1 Z" id="Path" fill="#FFFFFF"></path>
            <path d="M206.2,381 C204.5,376.3 197.4,376.9 197.3,382.2 C197.3,386 197.4,389.7 197.5,393.5 C197.7,397.8 198.2,402.6 202.5,404.7 C204.5,405.7 206.7,405.6 208.3,404 C214.1,398.3 208.5,387.4 206.2,381 Z" id="Path" fill="#FFFFFF"></path>
            <path d="M131.2,400.6 C123.9,395.6 113.5,396.7 105.3,398.8 C101.4,399.8 102.3,405.8 106.2,405.7 C114,405.7 121.5,408.2 129.1,408.1 C133.4,408 134.5,402.8 131.2,400.6 Z" id="Path" fill="#FFFFFF"></path>
            <path d="M85.8,310.2 C83.4,316.2 81.1,323.6 82.5,329.9 C83.5,334.7 90,334.9 92.4,331.2 C94.3,328.3 94.9,325.4 95.2,322 C95.6,318.6 96.1,315.1 96,311.6 C95.9,305.4 88,305 85.8,310.2 Z" id="Path" fill="#FFFFFF"></path>
            <path d="M234.6,165.5 C230.7,163.8 227.7,164 223.7,165 C219.7,165.9 215.3,166.5 211.8,168.6 C208.9,170.4 209.4,175 212.8,175.9 C216.4,176.9 220.2,176.4 223.8,176.2 C228.4,176 231.9,175.7 235.6,172.7 C237.6,170.9 237.2,166.6 234.6,165.5 Z" id="Path" fill="#FFFFFF"></path>
            <path d="M164.3,132.6 C162.4,130.6 160.5,128.4 159.2,126 C157.9,123.5 158.2,120.9 158.1,118.3 C158.1,115.2 153.7,112.9 151.5,115.6 C148.2,119.7 147.8,125.3 149.5,130.1 C151.4,135.7 155.3,139.2 161.2,139.9 C165.2,140.4 166.6,135 164.3,132.6 Z" id="Path" fill="#FFFFFF"></path>
            <path d="M282.3,101.7 C280.9,93.6 277.7,86.5 274.4,79 C272.2,74 264.3,77.6 265.8,82.6 C268.1,90.4 270.2,97.9 274.3,105 C277,109.6 283.1,106.4 282.3,101.7 Z" id="Path" fill="#FFFFFF"></path>
            <path d="M363.1,169.6 C357.1,172.7 349.1,173.7 342.6,171.8 C338.3,170.6 335.2,177.3 339.5,179.2 C349.5,183.7 359.2,182.7 367.6,175.4 C370.8,172.5 366.6,167.8 363.1,169.6 Z" id="Path" fill="#FFFFFF"></path>
            <path d="M434.3,127.9 C433.2,124.1 432.4,120.4 430.9,116.7 C429.1,112.5 427.3,108.4 425.7,104.1 C423,96.9 412,99.7 414.1,107.3 C415.3,111.6 416.5,116.1 418.4,120.2 C420.5,124.9 423.3,128.5 426.7,132.4 C429.6,136 435.5,132.2 434.3,127.9 Z" id="Path" fill="#FFFFFF"></path>
            <path d="M453,277.3 C450.6,280.8 448,284.1 445,287 C441.6,290.3 437.7,293 435.3,297.2 C433.5,300.3 435.7,305.5 439.8,305 C451.2,303.8 459.1,291.1 461.3,280.8 C462.5,275.6 455.9,273.1 453,277.3 Z" id="Path" fill="#FFFFFF"></path>
            <path d="M352.4,412.7 C347.6,409.4 342.4,406.3 338.2,402.1 C334.1,398.1 328.5,404 332,408.3 C336.6,413.9 342.1,418.4 349.2,420.1 C353.9,421.2 356.1,415.3 352.4,412.7 Z" id="Path" fill="#FFFFFF"></path>
            <path d="M504.7,360.8 C502.8,367 499.2,372.4 496.2,378 C493.9,382.5 499,389.3 503.8,385.6 C507.5,382.8 510,380.2 512,375.9 C514.1,371.5 515,367 515.6,362.2 C516.4,355.9 506.4,355 504.7,360.8 Z" id="Path" fill="#FFFFFF"></path>
            <path d="M340.3,496.8 C336.1,490.2 328.4,487 320.9,485.7 C315.8,484.9 313.5,492.2 318.7,493.6 C324.8,495.3 329.3,499.2 334.6,502.5 C338,504.8 342.5,500.4 340.3,496.8 Z" id="Path" fill="#FFFFFF"></path>
            <path d="M195.2,441.8 C192,449.4 187.2,458.3 187.4,466.7 C187.5,471.8 195.3,473.2 196.5,468.1 C199.6,460.9 200.1,452.3 202,444.7 C203.1,440.7 197,437.8 195.2,441.8 Z" id="Path" fill="#FFFFFF"></path>
            <path d="M277.6,412 C276.1,406.3 271.5,401.8 267.8,397.3 C264.4,393.1 257.9,398.5 260.5,402.9 C263.5,408 266.1,413.5 271,417 C274.4,419.4 278.6,415.6 277.6,412 Z" id="Path" fill="#FFFFFF"></path>
            <path d="M177.3,265.4 C175.2,262.1 173.1,258.1 170.3,255.4 C168.6,253.8 165,254.2 164.6,256.9 C163.9,261.2 165.3,265.8 166.9,269.8 C168.7,274.3 171.5,280.2 176.7,281.4 C179.8,282.2 182.8,279.9 182.9,276.7 C182.9,272.3 179.6,268.9 177.3,265.4 Z" id="Path" fill="#FFFFFF"></path>
            <path d="M100,150.1 C96.6,155.7 92.1,161.4 90.3,167.8 C89.4,171.1 93.7,173.8 96.1,171.2 C100.5,166.3 103,159.5 106,153.7 C108.1,149.6 102.4,146.2 100,150.1 Z" id="Path" fill="#FFFFFF"></path>
            <path d="M321.2,120.5 C318.9,120.6 316.8,120.9 314.7,121.9 C312.8,122.8 311.1,125.2 309.9,126.8 C307.8,129.6 304.9,134.6 306.9,138 C307.5,139 308.8,139.6 310,139.2 C312.8,138.3 314.7,134.9 316.7,132.9 C317.7,132 318.8,131.3 319.9,130.6 C321.5,129.7 322.5,127.9 323.8,126.7 C326,124.6 324.5,120.3 321.2,120.5 Z" id="Path" fill="#FFFFFF"></path>
            <path d="M486.5,166 C484.2,165.1 482.3,164.7 479.9,165 C477.3,165.2 474.7,165.9 472.2,166.4 C467.5,167.3 468.8,174.3 473.3,174.5 C475.5,174.6 477.7,174.7 479.9,174.8 C482.7,174.9 485,173.9 487.4,172.5 C490.2,170.8 489.3,167 486.5,166 Z" id="Path" fill="#FFFFFF"></path>
            <path d="M465.6,416.4 C462.2,422.5 458.6,429.2 456.5,435.9 C455.2,439.9 458.6,444 462.7,444 C465.3,444 467.2,442.6 468.2,440.7 C468.2,440.7 468.2,440.8 468.3,440.8 C471.5,434.5 473.7,427.3 475.5,420.5 C477,414.7 468.6,411.1 465.6,416.4 Z" id="Path" fill="#FFFFFF"></path>
            <path d="M422.3,381.6 C420.6,376.6 416.5,375.1 412,372.9 C407.3,370.6 402.4,368.1 397.3,366.8 C393.8,365.9 391.5,370.1 393.9,372.7 C397.1,376.1 401.1,379.1 404.9,381.8 C409.4,385 413.1,388.5 418.9,387.6 C421.4,387.1 423.1,383.9 422.3,381.6 Z" id="Path" fill="#FFFFFF"></path>
            <path d="M252.1,472.2 C249.9,474.5 247.6,476.7 245.5,479.2 C243,482.1 240.4,484.7 241,488.7 C241.2,490.2 243.1,491.5 244.6,491.4 C248.2,491.2 250.1,488.4 252.2,485.8 C254.4,483 256.4,480 258.4,477.1 C261,473.2 255.2,468.9 252.1,472.2 Z" id="Path" fill="#FFFFFF"></path>
        </g>
    </g>
</svg>