<?xml version="1.0" encoding="UTF-8"?>
<svg width="582px" height="618px" viewBox="0 0 582 618" version="1.1" xmlns="http://www.w3.org/2000/svg" xmlns:xlink="http://www.w3.org/1999/xlink">
    <title>Group</title>
    <g id="Page-1" stroke="none" stroke-width="1" fill="none" fill-rule="evenodd">
        <g id="Group" transform="translate(0.500000, 0.500000)" fill-rule="nonzero">
            <path d="M578.6,290.4 C560.8,147.1 438.6,36.3 290.5,36.3 C142.4,36.3 20.2,147.1 2.3,290.4 L0,290.4 L0,326.7 C0,487.1 130,617.1 290.4,617.1 C450.8,617.1 580.8,487.1 580.8,326.7 L580.8,290.4 L578.6,290.4 Z M290.5,397.6 C251.3,397.6 219.5,365.8 219.5,326.6 C219.5,287.4 251.3,255.6 290.5,255.6 C329.7,255.6 361.5,287.4 361.5,326.6 C361.4,365.9 329.7,397.6 290.5,397.6 Z" id="Shape" fill="#F49547"></path>
            <path d="M290.5,0 C130.1,0 0.1,130 0.1,290.4 C0.1,450.8 130.1,580.8 290.5,580.8 C450.9,580.8 580.9,450.8 580.9,290.4 C580.9,130 450.9,0 290.5,0 Z M290.5,361.3 C251.3,361.3 219.5,329.5 219.5,290.3 C219.5,251.1 251.3,219.3 290.5,219.3 C329.7,219.3 361.5,251.1 361.5,290.3 C361.4,329.6 329.7,361.3 290.5,361.3 Z" id="Shape" fill="#F8AD5C"></path>
            <path d="M290.5,21.4 C142,21.4 21.5,141.8 21.5,290.4 C21.5,438.9 141.9,559.4 290.5,559.4 C439.1,559.4 559.5,439 559.5,290.4 C559.4,141.8 439,21.4 290.5,21.4 Z M290.5,379.5 C241.3,379.5 201.4,339.6 201.4,290.4 C201.4,241.2 241.3,201.3 290.5,201.3 C339.7,201.3 379.6,241.2 379.6,290.4 C379.6,339.6 339.7,379.5 290.5,379.5 Z" id="Shape" fill="#C2D957"></path>
            <g transform="translate(21.500000, 181.900000)" fill="#98AD45" id="Path">
                <path d="M269,2.27373675e-13 C219.8,2.27373675e-13 179.9,39.9 179.9,89.1 C179.9,92.4 180.1,95.6 180.4,98.8 C185.2,54.2 223,19.4 269,19.4 C314.9,19.4 352.7,54.2 357.6,98.8 C357.9,95.6 358.1,92.4 358.1,89.1 C358.1,39.9 318.2,2.27373675e-13 269,2.27373675e-13 Z"></path>
                <path d="M269,358 C123.7,358 5.3,242.8 0.2,98.7 C0.1,101.9 -1.42108547e-14,105.1 -1.42108547e-14,108.4 C-1.42108547e-14,256.9 120.4,377.4 269,377.4 C417.6,377.4 538,257 538,108.4 C538,105.2 537.9,101.9 537.8,98.7 C532.6,242.8 414.3,358 269,358 Z"></path>
            </g>
            <path d="M198,105.5 C197,101.9 195.2,98.9 192.6,96.2 C188.3,91.9 183.5,90.7 177.7,90 C170.1,89.2 162.2,92.9 156.8,97.8 C152.8,101.5 148.5,105.1 147.5,110.9 C145.9,120.1 148.7,126.6 156.1,132.1 C160.8,135.6 166.6,135.2 172.2,135.1 C179.5,134.9 187.7,131.7 192.5,125.9 C197.5,120.1 200.1,113.3 198,105.5 Z" id="Path" fill="#FFFFFF"></path>
            <path d="M208,186.7 C206.5,182.6 204.4,179.3 200.5,177 C197.1,175 191.8,173.8 188,175.4 C186.1,176.2 184.1,177 182.3,177.9 C178.8,179.8 176.6,183.1 174.5,186.4 C171.6,191 170.6,196.8 172,202 C172.6,204.2 173.7,206.1 174.8,208.1 C178.3,214.4 185.6,216.8 192.4,215.3 C199.7,213.6 205.6,208.7 207.7,201.4 C209.1,196.5 209.8,191.5 208,186.7 Z" id="Path" fill="#FFFFFF"></path>
            <path d="M164.6,282.2 C161.9,280 159.2,277.9 156.3,275.9 C153.7,274.2 150.1,273.1 147.1,272.1 C133.7,267.7 120,284.5 128.3,296.5 C130.5,299.7 132.7,303 134.6,306.4 C140.6,317 157.2,322.6 166.7,313 C175,304.9 173.2,289.5 164.6,282.2 Z" id="Path" fill="#FFFFFF"></path>
            <path d="M128.2,375.8 C128,374.9 127.4,371.4 128,375.6 C127.3,370.3 125.4,364.3 121.1,360.7 C115.6,356.1 109.4,356.2 103.8,360.7 C98.8,364.8 96.8,373.5 98.5,379.6 C100.3,386 103.3,391.2 109.4,394.2 C116.3,397.6 125.5,395 127.4,386.9 C127.9,384.7 128.4,383.1 128.6,380.7 C128.8,379.1 128.7,377.5 128.2,375.8 Z" id="Path" fill="#FFFFFF"></path>
            <path d="M279.3,424.9 C275.8,421.1 271.3,419.6 266.6,418 C262.3,416.6 257.2,418.2 254,421.3 C249.7,425.6 249.4,431.7 252,437 C252.6,438.2 253.2,439.4 253.8,440.5 C255.4,443.7 257.8,445.7 260.6,447.7 C265.5,451.1 270.3,452.6 276.4,450.9 C278.5,450.3 280.2,449.3 281.8,447.8 C284.3,445.3 284.9,442.6 285.4,439.2 C286.1,433.3 283.1,429 279.3,424.9 Z" id="Path" fill="#FFFFFF"></path>
            <path d="M190.6,452.9 C190.6,452.4 190.6,451.8 190.6,451.3 C190.7,447 188.6,443.5 185.8,440.4 C184.4,438.8 182.6,437.4 180.9,436.1 C179.6,435 178.4,433.7 177.2,432.4 C173.4,427.9 165.9,427.5 161,430.3 C156.1,433.2 153,439.7 154.9,445.4 C156.4,449.9 158.6,455.6 162.2,459.1 C167.5,464.2 174,467.8 181.5,464.9 C186.5,462.9 190.9,458.8 190.6,452.9 Z" id="Path" fill="#FFFFFF"></path>
            <path d="M404,448 C397.9,446.1 393.1,447.2 387.2,449.1 C383,450.5 379.3,451.4 374.9,451.4 C366.1,451.3 363.1,463.2 370.5,467.6 C375.7,470.7 381.3,472.9 387.2,474 C391.2,474.7 395.5,474.7 399.5,473.7 C404.9,472.4 407.9,469.3 410.9,464.8 C415,458.4 410.9,450.1 404,448 Z" id="Path" fill="#FFFFFF"></path>
            <path d="M426.8,363.8 C423.1,360.1 415.9,358.4 411.3,361.8 C410.1,362.7 408.8,363.5 407.5,364.3 C405.7,365.4 404.6,366.1 402.8,367.6 C402.5,367.9 401.7,368.5 401.3,368.8 C399.4,370.2 397.5,371.6 395.9,373.4 C394.6,374.9 393.1,376.2 391.7,377.5 C386.6,382 386,390.4 389.3,396.1 C393.7,403.7 402.8,405.3 410.2,401.6 C412,400.7 413.7,399.8 415.4,398.7 C419.2,396.4 421.5,393.7 424.1,390.3 C427.3,386.1 429,381.4 430.1,376.3 C431.1,371.7 430.2,367.2 426.8,363.8 Z" id="Path" fill="#FFFFFF"></path>
            <path d="M515.3,346.1 C516,349.9 514.9,343.8 514.7,342.6 C514.5,340.9 513.9,339.3 513.2,337.7 C511.3,332.9 507.7,329.4 502.3,329.4 C497.5,329.4 492.4,332.8 491.4,337.7 C491.3,338.1 490.7,339.8 490.5,340.7 C488.8,342.3 487.5,343.4 486.2,345.6 C485.6,346.8 485.1,348.1 484.6,349.4 C484.6,349.5 484.4,349.8 484.1,350.6 C482.4,354.7 482.1,355.5 483,353 C482.9,353.2 480.7,356.5 482.3,354.6 C478.6,359.2 477.1,364.8 480.3,370.3 C483.2,375.2 489.4,378 494.9,376.2 C503.2,373.6 509,369.1 514,361.9 C517.1,357.1 516.2,351.1 515.3,346.1 Z" id="Path" fill="#FFFFFF"></path>
            <path d="M457.8,231.9 C455.8,220.7 439.9,222.5 436.9,231.9 C435.2,237.3 431.3,244.8 431.7,250.6 C432.2,257.6 432.8,264.8 437.9,270.1 C442.3,274.7 448.7,273.7 453.2,270.1 C458,266.2 460.9,256.7 460.9,250.6 C460.9,244.5 458.8,237.8 457.8,231.9 Z" id="Path" fill="#FFFFFF"></path>
            <path d="M510.4,175.6 C509.1,173.4 507.2,171.7 505.5,169.9 C499.6,163.8 488.5,165 484.4,172.6 C483.9,173.6 483.3,174.6 482.8,175.6 C480.4,180 480.3,184.2 481.4,189 C482.3,192.9 484.6,196.4 486.6,199.8 C492.3,209.4 507.6,207.7 510.5,196.7 C511.5,193.1 512.2,189.6 512.5,185.8 C512.8,182.3 512.2,178.7 510.4,175.6 Z" id="Path" fill="#FFFFFF"></path>
            <path d="M412.6,152 C411.5,147.9 409.1,145.3 406,142.8 L406,142.8 C406.6,143.2 407.1,143.7 407.7,144.1 C406.5,143.1 405.5,142.1 404.5,140.9 C405,141.5 405.4,142.1 405.9,142.7 C404.6,141.1 403.2,139.5 401.8,138 C399.3,135.4 396.8,133.8 393.4,132.6 C393.4,132.6 393.3,132.6 393.3,132.6 C390.1,131.2 386.9,130.7 383.4,131.7 C380,132.6 376.4,135.1 374.8,138.3 C373.8,140.3 372.8,142.4 372.3,144.6 C370.9,150.4 372.5,155.2 375.1,160.2 C378.5,166.8 385.2,170.2 391.8,172.7 C398.8,175.4 407.3,171 410.9,164.9 C413.1,161.1 413.8,156.3 412.6,152 Z" id="Path" fill="#FFFFFF"></path>
            <path d="M337.5,69.7 C335.9,69.2 334.4,68.7 332.8,68.1 C332.7,68 332.6,68 332.4,67.9 C330.4,66.9 328.3,66.1 326.2,65.2 C317.7,61.9 305.9,65.6 303.3,75 C300.9,83.7 306.6,92.7 314.5,96.2 C320.6,98.9 326.7,99.8 333.3,100.5 C340.1,101.2 346.7,95.2 348.4,89 C350.8,80.7 345.7,72.1 337.5,69.7 Z" id="Path" fill="#FFFFFF"></path>
            <path d="M307.2,136.4 C305.3,129.7 297.9,122.6 290.4,123.6 C278,125.2 261.3,124.8 254.8,137.7 C250.3,146.7 252.5,157 261.3,162.4 C273.9,170.1 287.5,161.5 299.2,156.1 C306.2,152.9 309.1,143.4 307.2,136.4 Z" id="Path" fill="#FFFFFF"></path>
            <path d="M121.6,216.8 C120.7,207.3 111.7,201.2 102.7,206 C99.2,207.9 96,210.4 93.3,213.4 C91.5,215.3 90,217.7 88.4,219.8 C87.6,221.5 86.9,223.2 86.3,225 C86.1,226.5 85.9,227.9 85.7,229.4 C85.7,229.7 85.8,230 85.8,230.3 C85.6,233 86.1,235.8 87.6,238.4 C90.3,243 95.8,246.3 101.3,246.1 C108,245.9 112.5,243.1 116.6,237.8 C120.6,232.4 122.2,223.2 121.6,216.8 Z M89.8,221.2 L90.2,220.5 L92.6,218.8 C92.7,218.8 92.7,218.8 92.8,218.8 C91.7,219.5 90.7,220.3 89.8,221.2 Z" id="Shape" fill="#FFFFFF"></path>
        </g>
    </g>
</svg>