<?xml version="1.0" encoding="UTF-8"?>
<svg width="584px" height="678px" viewBox="0 0 584 678" version="1.1" xmlns="http://www.w3.org/2000/svg" xmlns:xlink="http://www.w3.org/1999/xlink">
    <title>Group</title>
    <g id="Page-1" stroke="none" stroke-width="1" fill="none" fill-rule="evenodd">
        <g id="Group" transform="translate(0.931631, 0.459045)">
            <path d="M582.319369,636.160955 C582.319369,658.850955 453.557369,677.250955 294.716369,677.250955 C135.878369,677.250955 7.11236943,658.850955 7.11236943,636.160955 C7.11236943,613.470955 135.878369,595.070955 294.716369,595.070955 C453.557369,595.070955 582.319369,613.470955 582.319369,636.160955" id="Fill-141" fill="#514F84" fill-rule="nonzero"></path>
            <polyline id="Fill-143" fill="#F0AA93" fill-rule="nonzero" points="443.152369 516.800955 442.275369 615.170955 420.145369 615.220955 405.000369 516.870955 443.152369 516.800955"></polyline>
            <path d="M414.455369,633.170955 L515.148369,633.030955 C513.770369,620.910955 504.332369,618.230955 504.332369,618.230955 L474.382369,609.200955 L447.324369,593.100955 L437.127369,598.030955 C437.127369,598.030955 435.070369,597.660955 437.134369,602.660955 C437.134369,602.660955 424.395369,605.330955 418.326369,602.670955 L414.458369,634.330955" id="Fill-144" fill="#006C89" fill-rule="nonzero"></path>
            <polyline id="Fill-145" fill="#254864" fill-rule="nonzero" points="414.468369 637.990955 515.155369 637.840955 515.148369 633.030955 414.455369 633.170955 414.468369 637.990955"></polyline>
            <path d="M472.261369,608.330955 C471.044369,611.030955 467.749369,613.380955 467.619369,616.490955 C467.599369,616.990955 468.848369,616.930955 469.028369,616.590955 C469.742369,615.230955 470.277369,613.860955 471.108369,612.550955 C471.934369,611.250955 472.807369,609.940955 473.269369,608.470955 C473.391369,608.070955 472.397369,608.030955 472.261369,608.330955" id="Fill-147" fill="#FFFFFE" fill-rule="nonzero"></path>
            <path d="M465.071369,604.660955 C462.478369,607.120955 460.621369,609.780955 459.723369,613.280955 C460.326369,613.240955 460.930369,613.200955 461.533369,613.160955 C461.415369,612.880955 461.247369,612.630955 461.029369,612.420955 C460.861369,612.220955 460.429369,612.220955 460.260369,612.420955 C460.042369,612.630955 459.874369,612.880955 459.756369,613.160955 C459.458369,613.710955 461.358369,614.050955 461.566369,613.280955 C462.386369,610.240955 463.788369,607.260955 465.882369,604.890955 C466.174369,604.560955 465.271369,604.470955 465.071369,604.660955" id="Fill-148" fill="#FFFFFE" fill-rule="nonzero"></path>
            <path d="M456.382369,599.450955 C454.597369,600.650955 453.322369,602.480955 452.387369,604.390955 C451.997369,605.190955 451.724369,606.030955 451.600369,606.910955 C451.574369,607.090955 451.183369,607.910955 451.062369,608.390955 C451.070369,608.490955 451.113369,608.570955 451.193369,608.630955 C451.276369,608.750955 451.359369,608.870955 451.443369,608.980955 C451.726369,608.960955 452.010369,608.950955 452.294369,608.930955 C452.282369,608.910955 452.269369,608.900955 452.257369,608.880955 C452.135369,608.730955 451.545369,608.620955 451.471369,608.880955 C451.467369,608.900955 451.462369,608.910955 451.458369,608.930955 C451.365369,609.250955 452.100369,609.260955 452.250369,609.090955 C452.842369,608.420955 452.871369,608.510955 453.223369,607.620955 C453.425369,607.110955 453.558369,606.540955 453.736369,605.920955 C454.358369,603.740955 455.699369,601.260955 457.391369,599.740955 C457.806369,599.360955 456.634369,599.280955 456.382369,599.450955" id="Fill-149" fill="#FFFFFE" fill-rule="nonzero"></path>
            <path d="M284.462369,631.930955 C303.515369,631.060955 321.780369,623.500955 333.837369,608.830955 C358.222369,579.180955 357.822369,535.600955 356.144369,498.520955 C354.180369,455.040955 326.204369,387.420955 272.128369,425.680955 C245.698369,444.380955 237.382369,479.700955 228.907369,509.090955 C222.188369,532.390955 213.865369,563.610955 213.96167,587.950955 C214.035369,606.470955 216.974369,617.840955 234.186369,625.180955 C250.261369,632.030955 267.172369,632.730955 284.462369,631.930955" id="Fill-150" fill="#253754" fill-rule="nonzero"></path>
            <polyline id="Fill-151" fill="#F0AA93" fill-rule="nonzero" points="362.114369 516.800955 361.240369 615.170955 339.110369 615.220955 323.963369 516.870955 362.114369 516.800955"></polyline>
            <path d="M333.416369,633.170955 L434.113369,633.030955 C432.731369,620.910955 423.298369,618.230955 423.298369,618.230955 L393.344369,609.200955 L366.290369,593.100955 L356.092369,598.030955 C356.092369,598.030955 354.034369,597.660955 356.099369,602.660955 C356.099369,602.660955 343.360369,605.330955 337.289369,602.670955 L333.423369,634.330955" id="Fill-152" fill="#007592" fill-rule="nonzero"></path>
            <polyline id="Fill-153" fill="#254864" fill-rule="nonzero" points="333.429369 637.990955 434.120369 637.840955 434.113369 633.030955 333.416369 633.170955 333.429369 637.990955"></polyline>
            <path d="M401.845369,611.790955 C398.296369,611.620955 396.235369,616.900955 395.761369,619.710955 C396.042369,619.570955 396.324369,619.430955 396.605369,619.300955 C396.399369,619.300955 396.198369,619.310955 395.994369,619.340955 C396.327369,619.460955 396.660369,619.590955 396.994369,619.710955 C396.935369,619.470955 396.788369,619.380955 396.595369,619.190955 C396.432369,619.030955 395.961369,619.030955 395.800369,619.190955 C395.622369,619.380955 395.463369,619.470955 395.414369,619.710955 C395.364369,619.950955 395.849369,620.070955 395.994369,620.090955 C396.198369,620.110955 396.399369,620.120955 396.605369,620.120955 C396.895369,620.130955 397.380369,620.060955 397.449369,619.710955 C397.747369,618.200955 398.199369,616.800955 398.928369,615.440955 C399.546369,614.290955 400.749369,612.590955 402.082369,612.210955 C402.577369,612.080955 402.125369,611.800955 401.845369,611.790955" id="Fill-154" fill="#FFFFFE" fill-rule="nonzero"></path>
            <path d="M391.222369,608.330955 C390.007369,611.030955 386.709369,613.390955 386.585369,616.490955 C386.565369,616.990955 387.813369,616.930955 387.994369,616.590955 C388.706369,615.230955 389.242369,613.860955 390.074369,612.550955 C390.899369,611.260955 391.769369,609.940955 392.230369,608.470955 C392.353369,608.070955 391.358369,608.030955 391.222369,608.330955" id="Fill-155" fill="#FFFFFE" fill-rule="nonzero"></path>
            <path d="M384.036369,604.660955 C381.443369,607.120955 379.587369,609.780955 378.688369,613.280955 C379.291369,613.240955 379.895369,613.200955 380.498369,613.160955 C380.380369,612.880955 380.212369,612.630955 379.994369,612.420955 C379.826369,612.220955 379.393369,612.220955 379.225369,612.420955 C379.007369,612.630955 378.839369,612.880955 378.721369,613.160955 C378.423369,613.710955 380.323369,614.050955 380.531369,613.280955 C381.352369,610.240955 382.753369,607.260955 384.847369,604.890955 C385.139369,604.560955 384.236369,604.470955 384.036369,604.660955" id="Fill-156" fill="#FFFFFE" fill-rule="nonzero"></path>
            <path d="M374.969369,598.650955 C373.522369,600.650955 371.885369,602.940955 370.921369,605.220955 C370.610369,605.950955 370.687369,606.750955 370.310369,607.430955 C369.925369,608.130955 370.261369,608.330955 370.410369,608.980955 C370.678369,608.940955 370.945369,608.910955 371.212369,608.870955 C371.201369,608.860955 371.189369,608.850955 371.178369,608.830955 C371.033369,608.670955 370.465369,608.680955 370.418369,608.930955 C370.416369,608.950955 370.413369,608.960955 370.410369,608.980955 C370.353369,609.290955 371.133369,609.180955 371.255369,609.030955 C371.709369,608.480955 371.914369,608.360955 372.159369,607.680955 C372.471369,606.820955 372.641369,605.820955 372.997369,604.900955 C373.330369,604.040955 373.901369,603.270955 374.377369,602.490955 C375.081369,601.330955 375.492369,600.020955 376.097369,598.810955 C376.303369,598.390955 375.173369,598.370955 374.969369,598.650955" id="Fill-157" fill="#FFFFFE" fill-rule="nonzero"></path>
            <path d="M262.358369,71.4609549 C298.101369,128.400955 348.502369,179.350955 348.502369,179.350955 C353.496369,189.180955 336.664369,194.220955 336.664369,194.220955 C258.493369,213.020955 264.337369,223.410955 264.337369,223.410955 C234.571369,247.890955 266.188369,265.800955 270.570369,265.020955 C291.431369,269.110955 332.325369,267.160955 388.320369,233.720955 C412.094369,219.530955 420.194369,202.150955 405.651369,180.750955 C351.306369,100.810955 315.244369,91.5609549 272.175369,58.5609549 C272.175369,58.5609549 263.483369,64.7309549 262.358369,71.4609549" id="Fill-158" fill="#F0AA93" fill-rule="nonzero"></path>
            <path d="M259.117369,38.6909549 C257.599369,35.8109549 256.215369,32.1009549 253.808369,29.8109549 C251.441369,27.5609549 249.334369,27.8309549 246.488369,26.9809549 C240.051369,25.0509549 234.029369,20.1309549 228.246369,16.6909549 C224.824369,14.6509549 220.968369,11.8609549 218.035369,17.6009549 C216.271369,21.0509549 216.073369,33.0309549 220.561369,38.3609549 C224.413369,42.9409549 223.022369,41.8109549 227.293369,45.9309549 C229.493369,48.0609549 230.564369,47.7309549 236.271369,52.6709549 C237.566369,53.7909549 235.771369,52.9909549 245.244369,59.9609549 C249.663369,63.2109549 257.211369,68.8909549 261.813369,71.8709549 C265.698369,74.3809549 264.341369,70.9109549 267.855369,68.1409549 C269.331369,66.9809549 271.859369,65.4009549 272.983369,63.9609549 C275.969369,60.1609549 274.140369,62.4809549 269.802369,54.5309549 C266.751369,48.9409549 262.089369,44.3509549 259.117369,38.6909549" id="Fill-159" fill="#F0AA93" fill-rule="nonzero"></path>
            <path d="M387.157369,239.670955 C387.157369,239.670955 375.125369,200.700955 345.080369,176.550955 L263.490369,208.110955 C263.490369,208.110955 232.606369,228.870955 249.183369,264.070955 C249.183369,264.070955 267.216369,299.470955 314.101369,281.270955 L387.157369,239.670955" id="Fill-160" fill="#38B9C9" fill-rule="nonzero"></path>
            <path d="M160.443369,0.670954864 C147.086369,4.21095487 138.759369,14.5209549 131.834369,25.7609549 C125.381369,36.2209549 122.067369,49.1309549 130.176369,60.4309549 C138.618369,72.1809549 154.677369,71.4809549 165.328369,63.9509549 C173.937369,57.8709549 182.195369,49.6809549 187.822369,40.8109549 C192.971369,32.6909549 196.679369,19.8409549 190.716369,12.0909549 C184.245369,3.70095487 170.614369,-2.01904513 160.443369,0.670954864" id="Fill-161" fill="#C57E44" fill-rule="nonzero"></path>
            <path d="M350.129369,401.270955 C365.839369,471.960955 385.099369,582.290955 398.097369,582.201065 C439.260369,581.940955 458.130369,564.250955 458.130369,564.250955 L423.343369,394.820955 C423.343369,394.820955 400.996369,331.110955 350.129369,401.270955" id="Fill-162" fill="#253754" fill-rule="nonzero"></path>
            <polyline id="Fill-163" fill="#F0AA93" fill-rule="nonzero" points="184.574369 189.050955 97.7183694 221.020955 145.542369 435.160955 260.011369 435.160955 266.764369 208.490955 225.226369 189.050955 184.574369 189.050955"></polyline>
            <path d="M230.379369,191.590955 L178.993369,191.590955 L178.993369,130.220955 L230.379369,130.220955 C230.379369,130.220955 224.903369,178.570955 230.379369,191.590955" id="Fill-164" fill="#F0AA93" fill-rule="nonzero"></path>
            <path d="M228.434369,177.260955 C228.532369,159.330955 230.379369,130.220955 230.379369,130.220955 L178.993369,130.220955 L178.993369,148.650955 C191.978369,162.360955 208.815369,175.150955 228.434369,177.260955" id="Fill-165" fill="#EA8A74" fill-rule="nonzero"></path>
            <path d="M169.657369,194.220955 C157.323369,198.760955 135.318369,207.200955 122.984369,211.760955 C115.404369,214.560955 107.068369,216.650955 99.7493694,220.000955 C91.5113694,223.770955 90.3353694,233.830955 92.4393694,242.170955 C94.4183694,250.020955 101.334369,259.060955 101.341369,267.130955 C101.348369,282.320955 103.563369,289.640955 106.831369,304.420955 C110.045369,318.970955 109.940369,338.170955 117.008369,351.130955 C120.801369,358.090955 120.656369,365.790955 121.287369,373.520955 C121.920369,381.280955 123.537369,385.250955 123.274369,393.020955 C123.011369,400.760955 128.185369,418.940955 126.317369,429.320955 C124.023369,442.110955 180.302369,437.810955 191.734369,437.830955 C227.507369,437.870955 240.077369,440.590955 263.213369,428.830955 L267.290369,208.740955 L239.268369,195.630955 C239.268369,195.630955 213.746369,232.170955 169.657369,194.220955" id="Fill-166" fill="#38B9C9" fill-rule="nonzero"></path>
            <path d="M273.450369,211.630955 C275.356369,252.200955 284.107369,277.170955 285.297369,304.240955 C285.738369,314.180955 283.502369,322.520955 279.952369,331.710955 C270.965369,354.990955 267.118369,383.610955 265.494369,394.940955 C258.012369,447.180955 249.755369,446.100955 222.392369,440.220955 C206.199369,436.740955 202.806369,375.240955 199.907369,360.240955 C195.443369,337.130955 199.104369,309.330955 216.527369,292.160955 C228.966369,279.890955 245.113369,276.450955 251.576369,258.790955 C256.310369,245.860955 234.687369,227.660955 248.834369,222.240955 C249.085369,222.790955 257.599369,203.540955 257.448369,204.130955" id="Fill-167" fill="#38B9C9" fill-rule="nonzero"></path>
            <path d="M255.830369,93.0609549 C255.699369,112.210955 252.234369,145.780955 238.867369,157.870955 C222.655369,172.520955 179.000369,147.960955 165.969369,132.790955 C149.651369,113.820955 148.329369,79.4109549 153.036369,55.5709549 C158.408369,28.3909549 185.055369,11.1009549 212.628369,18.2509549 C240.183369,25.3909549 256.008369,67.9509549 255.830369,93.0609549" id="Fill-168" fill="#F0AA93" fill-rule="nonzero"></path>
            <path d="M153.826369,54.3709549 C154.970369,49.2309549 156.883369,44.4709549 159.408369,40.1809549 L168.171369,102.390955 L168.559369,126.210955 L166.573369,133.770955 C165.975369,133.130955 165.410369,132.490955 164.904369,131.880955 C149.052369,112.530955 148.553369,78.1009549 153.826369,54.3709549" id="Fill-169" fill="#EA8A74" fill-rule="nonzero"></path>
            <path d="M144.049369,87.4209549 C137.369369,95.7509549 144.424369,117.150955 160.301369,122.660955 C163.569369,118.090955 162.209369,106.940955 162.057369,101.380955 C161.912369,95.9109549 161.505369,90.7109549 157.684369,86.4909549 C156.508369,85.2009549 148.980369,81.2909549 144.049369,87.4209549" id="Fill-170" fill="#F0AA93" fill-rule="nonzero"></path>
            <path d="M156.048369,101.200955 C156.121369,102.330955 156.328369,103.440955 156.248369,104.570955 C156.215369,105.040955 155.753369,105.360955 155.433369,105.640955 C154.945369,106.060955 154.693369,105.780955 155.327369,106.020955 C154.329369,105.640955 153.851369,103.840955 153.566369,102.950955 C152.906369,100.900955 153.118369,98.0309549 151.685369,96.3209549 C151.409369,95.9909549 150.538369,95.9109549 150.285369,96.3209549 C149.594369,97.4509549 149.926369,98.8909549 150.178369,100.090955 C150.557369,101.910955 151.036369,103.800955 152.002369,105.400955 C152.814369,106.750955 154.331369,107.460955 155.888369,107.040955 C156.714369,106.820955 157.377369,106.320955 157.918369,105.660955 C158.955369,104.410955 157.988369,102.610955 157.678369,101.200955 C157.558369,100.660955 156.012369,100.640955 156.048369,101.200955" id="Fill-171" fill="#EA8A74" fill-rule="nonzero"></path>
            <path d="M154.553369,96.1909549 C152.879369,93.3609549 148.863369,94.1309549 147.046369,96.2609549 C143.617369,100.280955 147.598369,107.140955 151.322369,109.290955 C151.500369,109.390955 152.610369,109.400955 152.358369,109.000955 C151.185369,107.100955 149.754369,105.440955 148.872369,103.360955 C148.310369,102.040955 148.344369,100.480955 148.386369,99.0809549 C148.457369,96.6909549 151.056369,93.9109549 153.323369,96.4409549 C153.548369,96.6909549 154.806369,96.6209549 154.553369,96.1909549" id="Fill-172" fill="#EA8A74" fill-rule="nonzero"></path>
            <path d="M175.397369,17.3909549 C177.231369,18.8109549 178.651369,20.8709549 179.566369,22.7909549 C183.096369,27.2009549 193.517369,45.5109549 195.456369,48.3009549 C200.715369,55.8809549 194.706369,62.1709549 189.368369,67.3709549 C187.685369,69.0109549 185.968369,70.6309549 184.292369,72.2909549 C179.243369,77.2609549 174.503369,82.5309549 171.899369,89.2809549 C170.183369,93.7409549 168.908369,106.070955 162.464369,106.560955 C162.077369,100.120955 159.690369,86.9809549 150.144369,85.2909549 C148.947369,84.8609549 144.898369,85.2209549 141.538369,92.4309549 C141.538369,92.4309549 122.354369,29.7909549 175.397369,17.3909549" id="Fill-173" fill="#E08E4C" fill-rule="nonzero"></path>
            <path d="M197.388369,51.2809549 L175.397369,17.3909549 C183.451369,6.53095487 212.174369,8.92095487 212.181369,8.92095487 C222.109369,9.75095487 261.110369,28.1009549 273.601369,56.6909549 C273.601369,56.6909549 290.991369,98.7509549 252.687369,125.500955 C257.283369,97.2309549 257.486369,78.7709549 246.363369,60.2809549 C239.203369,62.6909549 221.787369,60.8209549 215.949369,58.1009549 C209.539369,55.1209549 201.103369,52.5809549 195.456369,48.3009549" id="Fill-174" fill="#E08E4C" fill-rule="nonzero"></path>
            <path d="M446.907369,539.290955 C446.907369,539.290955 428.935369,266.960955 360.510369,263.540955 C326.849369,261.860955 311.701369,324.690955 311.701369,324.690955 L289.304369,471.550955 L264.334369,425.460955 C264.334369,425.460955 204.762369,427.970955 127.439369,425.950955 C97.0573694,472.410955 94.9963694,507.980955 100.712369,555.220955 C102.528369,570.220955 115.397369,589.700955 124.917369,600.650955 C142.580369,620.990955 171.318369,634.640955 197.806369,637.910955 C232.546369,642.210955 250.334369,629.930955 272.990369,605.770955 C272.990369,605.770955 294.856369,478.500955 307.772369,470.000955 C333.101369,453.320955 382.259369,553.590955 446.907369,539.290955" id="Fill-175" fill="#253754" fill-rule="nonzero"></path>
            <path d="M274.363369,463.110955 C274.363369,463.110955 224.443369,449.610955 123.274369,463.110955" id="Stroke-176" stroke="#0E243C" stroke-width="4.534"></path>
            <path d="M267.822369,447.730955 C262.019369,447.430955 256.064369,447.150955 250.416369,445.700955 C244.517369,444.180955 238.588369,444.640955 232.550369,443.830955 C220.797369,442.260955 208.751369,441.920955 196.906369,441.500955 C184.536369,441.060955 172.365369,443.310955 160.003369,443.330955 C157.532369,443.330955 155.076369,443.460955 152.618369,443.710955 C149.731369,444.000955 146.901369,445.320955 144.030369,445.470955 C138.960369,445.750955 134.189369,445.020955 129.565369,447.620955 C131.508369,447.870955 133.450369,448.120955 135.393369,448.370955 C135.308369,448.070955 135.224369,447.770955 135.139369,447.480955 C134.669369,445.820955 129.392369,445.820955 128.922369,447.480955 C128.838369,447.770955 128.753369,448.070955 128.669369,448.370955 C127.911369,451.040955 133.178369,450.610955 134.496369,450.030955 C139.105369,448.020955 144.050369,449.940955 148.744369,448.500955 C154.655369,446.680955 160.406369,447.110955 166.486369,446.700955 C178.294369,445.920955 189.978369,444.590955 201.823369,445.230955 C207.687369,445.540955 213.520369,445.760955 219.390369,445.910955 C225.296369,446.060955 231.256369,447.610955 237.132369,447.560955 C247.484369,447.470955 257.378369,450.430955 267.822369,449.920955 C270.494369,449.790955 270.491369,447.870955 267.822369,447.730955" id="Fill-177" fill="#0E243C" fill-rule="nonzero"></path>
            <path d="M144.138369,459.740955 C141.875369,467.180955 142.644369,475.090955 140.797369,482.540955 C138.390369,492.240955 135.538369,501.580955 131.830369,510.930955 C128.734369,518.740955 120.875369,523.830955 113.943369,527.960955 C110.832369,529.810955 106.972369,530.720955 104.060369,532.640955 C102.671369,533.550955 98.6043694,532.360955 98.8553694,535.320955 C98.8993694,535.840955 99.5953694,535.990955 99.9993694,536.060955 C105.809369,537.040955 112.594369,533.970955 117.807369,531.190955 C125.389369,527.150955 133.274369,522.530955 137.967369,515.060955 C140.609369,510.860955 141.932369,505.550955 143.391369,500.850955 C144.806369,496.300955 146.568369,491.760955 146.763369,486.960955 C146.837369,485.140955 147.665369,482.910955 148.035369,481.090955 C148.510369,478.770955 148.398369,476.600955 148.347369,474.220955 C148.239369,469.170955 149.342369,464.760955 147.827369,459.740955 C147.529369,458.750955 144.437369,458.750955 144.138369,459.740955" id="Fill-178" fill="#0E243C" fill-rule="nonzero"></path>
            <path d="M114.398369,366.310955 C112.188369,383.250955 104.201369,412.380955 100.413369,428.830955 C96.5483694,445.650955 95.4233694,450.470955 93.4323694,468.160955 C91.3543694,486.650955 86.9233694,504.330955 88.0603694,523.720955 C99.1653694,529.330955 123.629369,511.370955 133.851369,505.820955 C148.940369,497.630955 162.077369,489.440955 178.184369,483.160955 C197.993369,475.420955 210.228369,488.350955 231.504369,486.290955 C244.055369,485.070955 270.366369,481.960955 278.946369,472.200955 C282.200369,474.610955 285.054369,473.710955 288.184369,474.920955 C283.292369,454.060955 274.969369,436.500955 276.152369,413.750955 C277.336369,390.890955 273.851369,368.200955 276.119369,345.390955 C281.445369,291.840955 216.468369,277.750955 174.272369,288.130955 C157.192369,292.330955 130.032369,293.940955 118.191369,309.270955 C106.304369,324.640955 116.713369,348.550955 114.398369,366.310955" id="Fill-179" fill="#38B9C9" fill-rule="nonzero"></path>
            <path d="M262.189369,259.450955 C266.126369,270.700955 273.218369,279.870955 279.322369,289.980955 C282.458369,295.180955 285.634369,300.900955 286.575369,306.950955 C287.535369,313.130955 284.198369,319.000955 281.548369,324.320955 C279.534369,328.360955 278.295369,332.560955 275.584369,336.240955 C273.332369,339.300955 270.357369,341.820955 267.403369,344.160955 C263.551369,347.230955 257.622369,349.420955 254.926369,353.520955 C254.265369,354.530955 256.945369,354.530955 257.319369,354.430955 C265.605369,352.180955 274.604369,344.840955 280.041369,338.210955 C283.336369,334.190955 284.721369,329.610955 287.009369,325.060955 C289.426369,320.250955 291.607369,315.410955 291.962369,309.990955 C292.373369,303.700955 288.620369,297.510955 285.615369,292.290955 C279.024369,280.850955 270.267369,270.760955 263.829369,259.220955 C263.573369,258.770955 261.966369,258.810955 262.189369,259.450955" id="Fill-180" fill="#00A0B3" fill-rule="nonzero"></path>
            <path d="M196.457369,458.440955 C203.960369,457.300955 208.650369,451.400955 216.757369,453.080955 C223.852369,454.550955 229.419369,459.840955 236.432369,461.720955 C241.652369,463.120955 247.551369,463.000955 252.615369,461.070955 C257.432369,459.240955 263.735369,455.400955 262.903369,449.550955 C262.739369,448.400955 260.507369,448.680955 259.867369,449.150955 C254.616369,453.040955 251.431369,458.240955 244.482369,459.180955 C237.574369,460.120955 231.501369,455.560955 225.517369,452.960955 C220.598369,450.830955 215.276369,450.020955 209.951369,450.470955 C204.395369,450.930955 200.831369,456.110955 195.611369,457.460955 C194.318369,457.790955 195.753369,458.550955 196.457369,458.440955" id="Fill-181" fill="#00A0B3" fill-rule="nonzero"></path>
            <path d="M162.420369,210.690955 C167.286369,217.760955 176.436369,221.600955 184.257369,224.340955 C193.502369,227.580955 202.997369,228.140955 212.708369,227.920955 C221.327369,227.720955 229.018369,225.030955 236.385369,220.680955 C240.662369,218.160955 251.534369,211.560955 247.858369,205.680955 C247.328369,204.840955 245.489369,204.970955 244.921369,205.680955 C240.970369,210.610955 237.223369,215.010955 231.743369,218.410955 C225.405369,222.330955 218.572369,224.630955 211.100369,224.850955 C193.549369,225.390955 178.998369,220.120955 164.686369,210.230955 C164.298369,209.960955 161.849369,209.870955 162.420369,210.690955" id="Fill-182" fill="#00A0B3" fill-rule="nonzero"></path>
            <path d="M272.897369,341.580955 C271.639369,351.410955 272.693369,361.480955 272.725369,371.370955 C272.757369,381.360955 273.107369,392.630955 276.532369,402.100955 C276.646369,402.420955 277.609369,402.400955 277.645369,402.030955 C278.638369,391.970955 276.143369,381.470955 275.879369,371.370955 C275.620369,361.410955 274.354369,351.530955 273.818369,341.580955 C273.801369,341.260955 272.938369,341.260955 272.897369,341.580955" id="Fill-183" fill="#00A0B3" fill-rule="nonzero"></path>
            <path d="M158.717369,79.7709549 C122.971369,136.710955 64.4053694,201.230955 64.4053694,201.230955 C59.4153694,211.060955 76.2453694,216.100955 76.2453694,216.100955 C154.411369,234.900955 148.566369,245.290955 148.566369,245.290955 C178.336369,269.770955 146.719369,287.680955 142.339369,286.900955 C121.476369,290.990955 80.5783694,289.040955 24.5823694,255.600955 C0.813369425,241.410955 -7.29063057,224.030955 7.25936943,202.630955 C61.5973694,122.690955 104.201369,115.520955 148.899369,66.8709549 C148.899369,66.8709549 157.592369,73.0409549 158.717369,79.7709549" id="Fill-184" fill="#F0AA93" fill-rule="nonzero"></path>
            <path d="M161.958369,47.0009549 C163.474369,44.1209549 164.857369,40.4109549 167.264369,38.1209549 C169.630369,35.8709549 171.742369,36.1409549 174.588369,35.2909549 C181.025369,33.3709549 187.046369,28.4409549 192.826369,25.0009549 C196.251369,22.9609549 200.104369,20.1809549 203.037369,25.9109549 C204.802369,29.3709549 205.002369,41.3409549 200.512369,46.6709549 C196.659369,51.2509549 198.053369,50.1309549 193.779369,54.2509549 C191.584369,56.3709549 190.511369,56.0409549 184.805369,60.9809549 C183.506369,62.1009549 185.305369,61.3009549 175.827369,68.2709549 C171.413369,71.5209549 163.861369,77.2009549 159.260369,80.1809549 C155.377369,82.7009549 156.731369,79.2209549 153.221369,76.4509549 C151.741369,75.2909549 149.217369,73.7109549 148.089369,72.2709549 C145.108369,68.4709549 146.936369,70.8009549 151.275369,62.8409549 C154.325369,57.2509549 158.986369,52.6709549 161.958369,47.0009549" id="Fill-185" fill="#F0AA93" fill-rule="nonzero"></path>
            <path d="M220.100369,134.740955 C222.944369,134.820955 226.958369,132.970955 228.779369,132.730955 C231.758369,132.340955 235.199369,134.630955 237.934369,132.750955 C239.775369,131.490955 240.136369,128.150955 239.026369,126.410955 C235.610369,121.080955 226.481369,122.370955 221.833369,124.800955 C219.709369,125.900955 217.086369,128.300955 216.964369,130.980955 C216.836369,133.780955 218.211369,134.690955 220.100369,134.740955" id="Fill-186" fill="#FFFFFE" fill-rule="nonzero"></path>
            <path d="M215.830369,106.560955 C215.830369,109.090955 210.984369,111.150955 205.002369,111.150955 C199.019369,111.150955 194.174369,109.090955 194.174369,106.560955 C194.174369,104.020955 199.019369,101.970955 205.002369,101.970955 C210.984369,101.970955 215.830369,104.020955 215.830369,106.560955" id="Fill-187" fill="#EA9387" fill-rule="nonzero"></path>
            <path d="M255.502369,106.560955 C255.502369,109.090955 251.596369,111.150955 246.777369,111.150955 C241.958369,111.150955 238.053369,109.090955 238.053369,106.560955 C238.053369,104.020955 241.958369,101.970955 246.777369,101.970955 C251.596369,101.970955 255.502369,104.020955 255.502369,106.560955" id="Fill-188" fill="#EA9387" fill-rule="nonzero"></path>
            <path d="M228.622369,90.0209549 C226.920369,92.3009549 228.338369,96.1309549 229.439369,98.4209549 C230.925369,101.510955 234.309369,103.300955 235.605369,106.440955 C237.763369,111.680955 227.667369,114.490955 224.287369,115.140955 C224.802369,115.280955 225.316369,115.420955 225.830369,115.570955 C225.710369,115.130955 225.667369,115.130955 225.313369,114.830955 C224.991369,114.560955 224.346369,114.580955 224.020369,114.830955 C223.629369,115.120955 223.595369,115.130955 223.411369,115.570955 C223.109369,116.290955 224.563369,116.400955 224.954369,116.320955 C229.176369,115.480955 236.040369,113.510955 237.554369,108.900955 C238.448369,106.180955 235.852369,103.920955 234.170369,102.220955 C232.584369,100.620955 231.243369,98.9809549 230.331369,96.9109549 C229.553369,95.1409549 228.548369,92.0009549 229.508369,90.1409549 C229.675369,89.8209549 228.784369,89.8109549 228.622369,90.0209549" id="Fill-189" fill="#EA8A74" fill-rule="nonzero"></path>
            <path d="M198.357369,86.5509549 C201.515369,84.4109549 204.840369,82.7709549 208.765369,83.1709549 C211.827369,83.4809549 214.258369,85.5609549 216.776369,87.1109549 C217.343369,87.4509549 219.996369,87.2209549 219.058369,86.2409549 C212.866369,79.7709549 203.027369,80.6409549 196.644369,86.0609549 C195.938369,86.6609549 197.916369,86.8509549 198.357369,86.5509549" id="Fill-190" fill="#E08E4C" fill-rule="nonzero"></path>
            <path d="M254.526369,84.1209549 C248.613369,80.4109549 240.099369,80.8609549 235.075369,86.0809549 C234.126369,87.0609549 236.794369,87.2709549 237.356369,86.9409549 C239.039369,85.9509549 240.595369,84.8209549 242.364369,83.9809549 C245.949369,82.2909549 249.731369,83.1909549 253.124369,84.8109549 C253.632369,85.0509549 255.510369,84.7409549 254.526369,84.1209549" id="Fill-191" fill="#E08E4C" fill-rule="nonzero"></path>
            <path d="M203.318369,93.8009549 C203.318369,93.8009549 208.098369,96.7509549 212.997369,93.8009549 M241.044369,93.8009549 C241.044369,93.8009549 245.827369,96.7509549 250.725369,93.8009549" id="Stroke-192" stroke="#6C4634" stroke-width="2.267" stroke-linecap="round" stroke-linejoin="round"></path>
            <path d="M25.7523694,261.550955 C25.7523694,261.550955 37.7773694,222.580955 67.8303694,198.430955 L124.213369,215.680955 C124.213369,215.680955 180.597369,237.560955 168.921369,281.120955 C168.921369,281.120955 145.689369,321.350955 98.8063694,303.150955 L25.7523694,261.550955" id="Fill-193" fill="#38B9C9" fill-rule="nonzero"></path>
            <path d="M120.138369,227.970955 C121.197369,232.600955 123.732369,236.880955 125.526369,241.270955 C127.566369,246.260955 129.227369,251.430955 130.532369,256.660955 C132.714369,265.410955 133.131369,274.360955 132.836369,283.330955 C132.434369,295.580955 131.976369,307.800955 130.573369,319.980955 C129.877369,326.020955 128.861369,332.010955 127.612369,337.950955 C126.400369,343.720955 124.237369,349.920955 124.064369,355.800955 C124.042369,356.520955 125.727369,356.350955 126.012369,355.930955 C132.389369,346.530955 134.099369,332.780955 135.741369,321.780955 C137.548369,309.690955 138.327369,297.410955 138.690369,285.200955 C138.964369,276.000955 138.589369,267.020955 136.574369,258.010955 C134.319369,247.920955 130.322369,235.700955 123.617369,227.740955 C123.116369,227.140955 119.848369,226.700955 120.138369,227.970955" id="Fill-194" fill="#00A0B3" fill-rule="nonzero"></path>
            <path d="M383.791369,580.520955 C383.791369,580.520955 357.141369,601.280955 323.200369,591.460955 L294.588369,493.000955 L224.738369,600.720955 C224.738369,600.720955 145.634369,599.040955 142.268369,513.200955 L239.887369,311.230955 C239.887369,311.230955 267.378369,261.300955 302.161369,265.780955 C302.161369,265.780955 347.045369,269.150955 354.337369,342.650955 C354.337369,342.650955 378.183369,488.510955 383.791369,580.520955" id="Fill-195" fill="#253754" fill-rule="nonzero"></path>
            <path d="M328.684369,283.800955 C345.275369,300.040955 349.351369,325.150955 353.678369,347.000955 C356.336369,360.420955 358.132369,374.040955 360.060369,387.570955 C365.592369,426.410955 371.627369,465.170955 376.456369,504.110955 C377.252369,510.530955 378.073369,516.680955 379.927369,522.890955 C380.076369,523.390955 381.511369,523.310955 381.597369,522.780955 C382.720369,515.830955 382.096369,509.170955 381.446369,502.200955 C380.607369,493.220955 379.584369,484.280955 378.452369,475.340955 C375.864369,454.900955 373.128369,434.460955 369.928369,414.110955 C364.819369,381.620955 359.955369,347.620955 348.537369,316.610955 C344.061369,304.450955 339.008369,292.630955 329.419369,283.590955 C329.230369,283.410955 328.409369,283.530955 328.684369,283.800955" id="Fill-196" fill="#0E243C" fill-rule="nonzero"></path>
            <path d="M276.345369,416.480955 C282.691369,427.480955 284.115369,440.330955 286.321369,452.610955 C289.202369,468.640955 293.198369,484.560955 296.627369,500.480955 C302.791369,529.110955 309.466369,558.510955 325.118369,583.630955 C325.336369,583.980955 326.628369,583.940955 326.416369,583.450955 C320.549369,569.970955 315.121369,556.140955 310.765369,542.080955 C306.141369,527.160955 302.970369,511.900955 299.656369,496.650955 C296.282369,481.120955 292.426369,465.610955 289.609369,449.970955 C287.548369,438.530955 285.207369,425.910955 278.463369,416.190955 C278.070369,415.620955 275.937369,415.770955 276.345369,416.480955" id="Fill-197" fill="#0E243C" fill-rule="nonzero"></path>
            <path d="M269.374369,434.600955 C273.016369,435.340955 276.718369,437.320955 279.634369,439.580955 C281.220369,440.800955 282.463369,442.340955 283.480369,444.050955 C284.534369,445.830955 284.383369,446.730955 286.304369,447.730955 C287.162369,448.170955 288.771369,448.210955 289.531369,447.520955 C289.757369,447.320955 289.984369,447.110955 290.210369,446.910955 C290.604369,446.550955 290.706369,446.220955 290.524369,445.730955 C287.468369,437.400955 278.186369,433.180955 269.807369,433.030955 C268.273369,433.000955 267.581369,434.230955 269.374369,434.600955" id="Fill-198" fill="#0E243C" fill-rule="nonzero"></path>
            <path d="M292.195369,481.220955 C292.624369,484.730955 291.010369,487.850955 289.796369,491.050955 C288.423369,494.670955 287.631369,498.410955 286.803369,502.190955 C285.057369,510.150955 284.208369,518.280955 282.201369,526.190955 C279.806369,535.640955 278.180369,545.280955 276.266369,554.830955 C271.816369,577.020955 267.056369,599.530955 254.922369,618.910955 C253.897369,620.550955 258.582369,620.500955 259.390369,619.840955 C267.016369,613.550955 270.293369,601.910955 273.146369,592.860955 C276.946369,580.800955 279.631369,568.390955 282.136369,556.010955 C284.143369,546.100955 285.724369,536.080955 287.871369,526.190955 C289.592369,518.270955 290.537369,510.200955 291.762369,502.190955 C292.392369,498.070955 293.198369,494.110955 294.062369,490.050955 C294.703369,487.040955 295.109369,484.060955 294.144369,481.090955 C293.969369,480.550955 292.119369,480.600955 292.195369,481.220955" id="Fill-199" fill="#0E243C" fill-rule="nonzero"></path>
        </g>
    </g>
</svg>