<?xml version="1.0" encoding="UTF-8"?>
<svg width="801px" height="801px" viewBox="0 0 801 801" version="1.1" xmlns="http://www.w3.org/2000/svg" xmlns:xlink="http://www.w3.org/1999/xlink">
    <title>Group</title>
    <g id="Page-1" stroke="none" stroke-width="1" fill="none" fill-rule="evenodd">
        <g id="Group" transform="translate(0.662781, 0.838292)">
            <rect id="Rectangle" stroke="#979797" fill="#D8D8D8" opacity="0" x="0.5" y="0.5" width="799" height="799"></rect>
            <path d="M712.337219,721.156477 C712.337219,745.46084 570.859001,765.161708 396.344519,765.161708 C221.814394,765.161708 80.337219,745.46084 80.337219,721.156477 C80.337219,696.852113 221.814394,677.161708 396.344519,677.161708 C570.859001,677.161708 712.337219,696.852113 712.337219,721.156477" id="Fill-142" fill="#514F84" fill-rule="nonzero"></path>
            <path d="M267.296917,425.105828 C279.826524,441.164445 321.422744,430.760125 332.65114,415.314749 C348.900717,392.957413 362.587302,316.697173 319.577805,339.303964 C297.501831,350.903586 246.27727,398.154377 267.296917,425.105828" id="Fill-200" fill="#F0AA93" fill-rule="nonzero"></path>
            <polyline id="Fill-201" fill="#F0AA93" fill-rule="nonzero" points="465.422717 207.161708 565.337219 223.176006 559.093866 463.067278 436.269696 487.161708 358.337219 268.539426 421.802627 215.711008 465.422717 207.161708"></polyline>
            <path d="M398.065601,323.604402 C407.887488,273.591819 382.679025,270.195645 382.679025,270.195645 C354.458099,262.034377 339.876938,304.86797 339.876938,304.86797 C339.876938,304.86797 304.393673,433.995736 303.337219,476.881579 C303.337219,476.881579 333.548673,503.967374 348.62145,477.686211 L398.065601,323.604402" id="Fill-202" fill="#F0AA93" fill-rule="nonzero"></path>
            <path d="M373.283976,412.161708 L405.712372,330.384695 C405.712372,330.384695 418.005966,261.491793 374.962745,249.171949 C374.962745,249.171949 360.437743,247.489596 333.045654,287.249567 L288.337219,358.953357 C288.337219,358.953357 303.192761,402.36017 373.283976,412.161708" id="Fill-203" fill="#537E69" fill-rule="nonzero"></path>
            <path d="M263.337219,619.127897 C263.337219,619.127897 277.803516,331.602278 345.890926,328.19486 C379.385246,326.517202 394.466021,389.069889 394.466021,389.069889 L420.169995,551.698539 L445.009533,505.807812 C445.009533,505.807812 504.291145,508.308669 581.236429,506.297563 C611.46047,552.552998 613.512205,587.960966 607.825669,634.987498 C606.023892,649.919699 593.213564,669.311761 583.74642,680.22175 C566.166068,700.468272 537.566752,714.056262 511.206639,717.317796 C476.639585,721.600514 458.944669,709.377575 436.406825,685.317246 C436.406825,685.317246 414.639683,558.617576 401.787696,550.145923 C376.583638,533.546485 327.664851,633.372362 263.337219,619.127897" id="Fill-204" fill="#253754" fill-rule="nonzero"></path>
            <path d="M420.803648,231.161708 L479.337219,212.324235 L458.860369,148.161708 L400.337219,166.999181 C400.337219,166.999181 422.700232,215.547536 420.803648,231.161708" id="Fill-205" fill="#F0AA93" fill-rule="nonzero"></path>
            <path d="M418.177405,214.161708 C430.912999,208.519519 443.182657,203.683357 454.748233,195.41373 C460.287699,191.446403 465.154146,187.196442 469.337219,182.349813 L458.486079,148.161708 L400.337219,167.003897 C400.337219,167.003897 412.669002,193.948226 418.177405,214.161708" id="Fill-206" fill="#EA8B77" fill-rule="nonzero"></path>
            <path d="M348.606306,130.785544 C355.319822,138.888537 362.616217,148.481978 371.692475,154.527735 C382.059393,161.444668 393.009189,158.558239 394.174947,145.259673 C395.267845,132.73782 390.688082,119.229332 385.015421,108.617769 C381.903264,102.813423 377.573307,96.5262557 370.495491,94.2171125 C359.441609,90.6274444 348.346092,96.557744 344.224306,106.508052 C340.373141,115.828594 342.704657,123.648192 348.606306,130.785544" id="Fill-207" fill="#542A1C" fill-rule="nonzero"></path>
            <path d="M363.814906,143.33895 C368.072613,154.252975 373.337631,164.802504 379.776116,174.581386 C386.308062,184.516481 397.045792,203.626437 410.805456,204.147144 C415.052779,204.303356 418.105866,203.189043 422.394728,201.470709 C438.771324,194.920212 452.935989,177.913913 459.488705,161.969856 C471.71144,132.2583 453.247529,76.0010876 426.257818,60.7339507 C401.625424,46.7789961 347.355232,75.9802593 353.876794,109.003514 C356.130263,120.396589 359.432582,132.039603 363.814906,143.33895" id="Fill-208" fill="#F0AA93" fill-rule="nonzero"></path>
            <path d="M385.075416,167.24292 C386.459155,167.38951 389.32027,167.808341 390.735222,167.714104 C396.082907,167.316215 400.421398,165.253476 404.843122,162.290251 C411.085556,158.091477 416.516473,151.557723 424.600425,151.620548 C429.479927,151.662431 433.568721,151.400662 438.136102,149.662516 C443.910353,147.453186 447.811874,141.736152 448.41531,135.6317 C448.873088,130.909388 447.458136,125.41224 448.612987,120.888872 C450.079958,115.129955 453.274004,110.480938 457.810172,107.161708 C464.073414,126.752497 465.529982,147.997666 459.485225,162.740493 C452.920266,178.771225 438.729133,195.869973 422.321937,202.45608 C418.025061,204.183755 414.966269,205.304127 410.71101,205.147065 C396.925636,204.623527 386.167841,185.409685 379.62369,175.420582 C378.115102,173.137957 376.70015,170.813448 375.337219,168.447057 C377.927829,167.096329 380.997026,166.792677 385.075416,167.24292" id="Fill-209" fill="#E0987E" fill-rule="nonzero"></path>
            <path d="M426.196983,60.7373102 C421.454199,58.0450335 415.629728,56.9702098 409.337219,57.1893486 C420.039685,76.7135722 441.257402,85.1556336 445.81297,117.191639 C452.708728,134.545345 456.817061,139.856852 462.131891,153.161708 C468.185181,122.200526 450.701366,74.6056657 426.196983,60.7373102" id="Fill-210" fill="#C98973" fill-rule="nonzero"></path>
            <path d="M450.167976,108.663335 C451.62258,105.16506 451.62258,96.1348732 457.502893,97.1253488 C462.712644,97.9999176 465.621852,103.637199 468.004926,108.136486 C468.056508,108.231319 468.365998,108.220782 468.335049,108.083802 C466.777282,102.836389 462.846757,96.0189665 457.162454,95.2392305 C450.167976,94.2803659 445.969226,102.41491 447.743637,108.663335 C447.939647,109.369312 449.910068,109.285017 450.167976,108.663335" id="Fill-211" fill="#EB9278" fill-rule="nonzero"></path>
            <path d="M439.137639,101.281001 C440.809363,103.83521 445.584226,116.480638 447.287295,118.668464 C449.011261,120.856291 453.336847,115.05698 453.336847,115.05698 C455.917572,109.561244 447.715674,101.814873 454.141364,98.0149634 C461.110365,93.890544 467.055435,104.170188 468.915228,109.236734 C472.666159,101.228661 471.339228,88.907743 469.730193,80.1250328 C466.752434,63.8157807 464.923986,58.28864 460.159572,52.2695001 C443.463226,31.1868084 435.01057,35.9811842 418.94112,43.8636404 C411.616878,47.4646563 405.671809,59.5866806 405.347912,68.1181572 C405.013567,77.2463137 412.57812,81.6533709 419.85012,85.0450254 C428.950569,89.2950616 431.531294,89.5881675 439.137639,101.281001" id="Fill-212" fill="#542A1C" fill-rule="nonzero"></path>
            <path d="M460.592682,95.9180758 C470.781965,100.100199 474.963267,122.563581 463.285186,135.161708 C458.048,132.68763 453.771669,122.09775 451.153076,117.066781 C448.587277,112.139329 446.380479,107.305044 447.763687,101.704726 C448.186041,99.9759771 453.095903,92.8539463 460.592682,95.9180758" id="Fill-213" fill="#F0AA93" fill-rule="nonzero"></path>
            <path d="M393.663396,124.074411 C393.956629,123.123438 396.86801,121.636278 397.737235,121.009041 C399.999316,119.33978 402.606992,118.570908 405.277503,117.721102 C407.48722,117.012931 409.801664,116.638612 412.063744,116.112542 C414.273461,115.596588 416.116638,116.911764 418.06454,115.667405 C418.483444,115.394254 418.368245,113.593475 418.06454,113.259623 C414.336297,109.101645 406.534214,112.116432 402.292814,113.846393 C398.575043,115.37402 393.778595,118.40904 393.338746,122.668185 C393.317801,122.87052 393.51678,124.560014 393.663396,124.074411" id="Fill-216" fill="#542A1C" fill-rule="nonzero"></path>
            <path d="M375.243248,129.195388 C374.069641,127.276575 370.991496,128.524328 369.426687,129.017138 C366.183825,130.055184 361.921779,131.837688 360.490802,135.172019 C360.346675,135.497064 360.192253,136.881125 360.59375,137.059376 C361.777652,137.583642 363.249808,135.947932 364.444005,135.444637 C366.142646,134.731635 367.71775,133.630677 369.426687,132.896705 C370.600294,132.382924 371.81508,131.994968 373.050456,131.648952 C373.688733,131.470702 374.471138,130.558479 375.191774,130.841583 C375.39767,130.925465 375.356491,129.384124 375.243248,129.195388" id="Fill-217" fill="#542A1C" fill-rule="nonzero"></path>
            <path d="M376.605272,142.074324 C377.786068,144.785228 377.506971,147.445557 375.993405,148.04236 C374.458371,148.639164 372.268531,146.939791 371.077001,144.239001 C369.885471,141.538212 370.164568,138.867769 371.688868,138.28108 C373.213168,137.684277 375.413742,139.38365 376.605272,142.074324" id="Fill-218" fill="#6C4634" fill-rule="nonzero"></path>
            <path d="M408.605593,131.084424 C409.777179,133.775105 409.519215,136.445555 407.992929,137.04236 C406.455895,137.639165 404.263202,135.939788 403.070119,133.238992 C401.887785,130.548311 402.167246,127.877861 403.682783,127.281056 C405.209069,126.684251 407.412511,128.383628 408.605593,131.084424" id="Fill-219" fill="#6C4634" fill-rule="nonzero"></path>
            <path d="M379.365113,135.748965 C381.509578,141.080143 384.137599,144.630728 382.129791,150.544837 C381.099606,153.597281 379.890717,156.988885 382.192863,159.723365 C385.30444,163.411735 392.105758,162.309463 395.806011,160.380489 C397.645626,159.4266 394.197662,158.557501 393.17799,159.08744 C390.749699,160.359291 387.333272,161.048211 385.314952,158.631693 C383.664555,156.660323 384.904981,152.91896 385.483145,150.767411 C385.966701,148.997418 387.007397,145.807191 386.082334,144.047796 C384.537058,141.143735 382.718467,138.409255 381.183703,135.505194 C380.910389,134.975256 379.091799,135.060046 379.365113,135.748965" id="Fill-220" fill="#EA8B77" fill-rule="nonzero"></path>
            <path d="M398.264904,170.214789 C395.615941,171.480357 391.928169,172.492811 389.424639,174.294979 C386.941885,176.066773 389.185713,182.303489 391.419152,183.59943 C394.608296,185.452221 396.21845,182.222493 398.794697,181.159416 C401.713751,179.944471 404.570476,181.139167 407.479141,180.157087 C411.281183,178.881395 410.834495,174.639213 408.777653,171.986584 C406.263735,168.746731 401.82802,168.493618 398.264904,170.214789" id="Fill-221" fill="#FFFFFE" fill-rule="nonzero"></path>
            <path d="M315.257731,94.0935281 C321.722932,108.251838 333.640862,118.137522 352.43942,114.346614 C366.363504,111.550557 378.868042,102.565476 388.022031,92.1876017 C397.844043,81.066207 399.618476,76.5108335 406.757962,71.3480769 C413.928761,66.1434318 424.857184,57.9332873 429.982166,50.1734442 C438.624701,37.1042347 421.360506,30.9466264 412.373522,25.9828401 C404.273755,21.5007714 395.72516,20.1289233 388.07422,26.4750298 C380.527659,32.7373594 378.815853,41.2930839 367.355099,41.9109391 C358.837818,42.3717126 353.180507,36.0046618 345.884454,32.7792479 C344.861545,39.8479309 349.683829,50.1839163 346.312405,56.2368034 C346.155838,56.5090786 345.978394,56.7708817 345.790513,57.0326848 C345.790513,57.0326848 319.068588,74.8667102 310.81434,53.0428059 C311.245423,54.1947394 309.914598,57.8599825 309.758031,59.1271094 C309.122366,64.45742 309.221525,69.7667863 309.95635,75.0866248 C310.867573,81.7050065 312.604431,88.2605555 315.257731,94.0935281" id="Fill-222" fill="#542A1C" fill-rule="nonzero"></path>
            <path d="M419.228752,216.047404 L361.337219,259.601029 L432.560207,485.484028 C459.923124,493.223885 472.293378,482.473505 510.751911,474.889903 C523.04903,472.47315 560.828453,472.066886 563.649372,458.13931 C565.341923,449.680677 571.255406,431.398779 569.34345,423.148487 C567.421045,414.877361 573.919608,399.574736 572.958405,391.12652 C571.997203,382.699138 570.221069,374.46968 572.843479,366.208971 C577.701729,350.833427 573.543485,330.270198 573.930055,313.977955 C574.327074,297.456536 575.17335,289.133325 571.96586,272.841081 C570.273308,264.184525 575.810668,253.048714 576.291269,244.204651 C576.782318,234.818902 573.386767,224.276862 563.732955,221.974697 C555.15527,219.922541 545.752206,219.43294 537.007356,218.016223 L479.335228,208.161708 C479.335228,208.161708 435.005004,233.277181 419.228752,216.047404" id="Fill-223" fill="#537E69" fill-rule="nonzero"></path>
            <path d="M551.547206,290.364599 C551.547206,290.364599 567.345478,341.373193 568.554316,370.45393 C569.221262,386.626115 574.588089,398.98204 581.372175,413.308657 C584.717324,420.378122 589.834046,426.99923 591.438884,434.777728 C592.970775,442.191282 592.376776,449.980207 593.752351,457.550166 C596.48266,472.377276 596.055398,487.454632 601.922434,501.458013 C605.069583,508.986265 607.779049,516.94202 608.925362,525.05418 C610.248832,534.490562 621.711958,584.737989 622.337219,594.122236 C608.70652,605.915106 572.86862,603.881852 557.893609,580.431662 C548.347952,565.489856 531.163684,548.566932 513.322891,544.750671 C496.659675,541.184658 481.976452,542.602722 465.35492,543.916516 C448.587493,545.230311 414.25022,548.149854 398.785421,541.487039 C386.467771,536.190153 405.361087,467.883264 399.452367,455.224958 C392.980911,441.377981 391.094706,433.818449 393.283121,419.377136 C395.950903,401.734752 385.884194,362.790129 386.35314,344.928779 C386.75956,329.496907 399.535735,335.982464 408.966761,322.990496 C436.457422,285.140701 495.169468,279.186918 537.312088,287.372067 L551.547206,290.364599" id="Fill-224" fill="#537E69" fill-rule="nonzero"></path>
            <path d="M412.538973,228.200049 C412.77889,228.030887 413.018807,227.861726 413.258724,227.692564 C412.319918,227.629128 411.370682,227.565693 410.421445,227.502257 C413.634246,231.625571 421.363744,232.249354 426.151651,232.830847 C433.119674,233.65551 441.09952,232.820275 447.984093,231.625571 C454.044603,230.568311 460.543223,229.447615 466.196918,226.78332 C469.294976,225.324302 472.153117,223.008903 475.449367,222.067941 C477.942417,221.359577 479.402781,220.164873 480.268568,217.659167 C480.925732,215.766672 476.669814,215.925261 475.814458,216.728779 C472.956317,219.424791 469.51403,220.249454 466.249074,222.374547 C461.523753,225.4406 456.391617,226.857329 450.873527,227.491685 C447.671158,227.851153 445.011209,229.532196 441.652372,229.532196 C439.211478,229.521624 436.603685,230.071399 434.131497,230.261706 C427.173906,230.822053 419.183629,230.589456 413.018807,226.751603 C412.476386,226.423852 410.411014,226.318126 410.369289,227.301378 C410.358858,227.502257 410.348427,227.703137 410.337219,227.904016 C410.306702,228.781542 412.153019,228.474936 412.538973,228.200049" id="Fill-226" fill="#2C5645" fill-rule="nonzero"></path>
            <path d="M399.622277,230.450462 C397.346165,234.6761 394.178063,237.855789 392.588886,242.489348 C391.081731,246.892797 389.984686,251.411302 388.826124,255.908887 C387.513771,261.034043 389.236234,267.675826 389.44129,272.957874 C389.55407,275.865615 389.687356,278.794276 389.974433,281.691558 C390.241005,284.306433 391.63538,286.858551 392.137765,289.442048 C394.23958,300.267631 395.828757,311.124593 397.940825,321.960637 C400.04264,332.744382 401.990664,343.747777 402.636588,354.761632 C402.667346,355.295066 404.13349,355.295066 404.164249,354.761632 C404.789667,344.207995 403.661864,334.125036 401.703587,323.822428 C400.678311,318.435785 399.488991,313.101439 398.412452,307.725256 C397.335913,302.286315 397.059088,296.73232 396.02356,291.27246 C395.070053,286.2519 393.593656,281.681098 393.224557,276.566402 C392.814447,270.876433 392.701666,265.165546 392.219787,259.475577 C391.809676,254.664207 394.331855,249.036995 395.521175,244.372058 C396.782264,239.403795 399.991377,235.481482 401.262718,230.565516 C401.396004,230.042541 399.837585,230.053001 399.622277,230.450462" id="Fill-227" fill="#2C5645" fill-rule="nonzero"></path>
            <path d="M415.260622,370.295225 C413.855579,375.861474 413.315961,381.647444 412.318176,387.307859 C411.126943,393.983173 408.3474,400.166732 408.337219,407.009452 C408.337219,411.790986 409.569178,427.286504 416.574033,427.160949 C417.663451,427.140024 419.38412,425.947256 417.490366,425.465964 C415.097719,424.859117 413.346505,416.666686 413.071605,415.024014 C412.145091,409.604245 411.208395,404.508825 412.755979,399.089056 C415.443889,389.630617 415.840967,380.098938 415.769696,370.295225 C415.769696,370.106893 415.301348,370.127819 415.260622,370.295225" id="Fill-228" fill="#2C5645" fill-rule="nonzero"></path>
            <path d="M611.025111,430.135 C546.048414,470.215229 460.96211,258.905908 449.337219,210.968449 L462.92732,199.161708 C529.879625,303.53121 587.796123,354.61365 587.796123,354.61365 C587.796123,354.61365 625.509434,372.407349 611.025111,430.135" id="Fill-232" fill="#F0AA93" fill-rule="nonzero"></path>
            <path d="M447.556687,203.484667 C447.556687,203.484667 456.96486,210.935932 464.688143,207.028435 C473.939338,196.074972 478.617262,183.292467 484.592864,169.709757 C490.77777,155.649003 485.304495,126.768857 480.009127,120.024267 C472.097471,120.346428 479.433544,142.939244 476.513766,148.93559 L472.924218,132.079312 L462.459065,119.161708 C462.459065,119.161708 457.362535,120.22172 459.643939,126.997487 L465.117214,138.480956 L465.075353,151.024438 L458.04277,136.132301 L449.136925,126.612973 C449.136925,126.612973 444.312489,127.974361 447.431105,134.770912 L451.376468,141.889624 L453.835779,158.974532 L448.289248,149.579911 L437.771768,145.568491 C437.771768,145.568491 432.288028,149.548734 442.763647,154.672128 L447.734594,164.607148 C447.734594,164.607148 441.518293,196.15811 447.556687,203.484667" id="Fill-233" fill="#F0AA93" fill-rule="nonzero"></path>
            <path d="M424.257668,710.902154 C405.310177,710.026253 387.16387,702.497673 375.166913,687.888891 C350.933685,658.348078 351.33948,614.928401 353.004279,577.984137 C354.950013,534.668734 382.762558,467.307755 436.514749,505.419888 C462.787356,524.043217 471.059325,559.246106 479.487369,588.515807 C486.167374,611.727191 494.439343,642.832113 494.337219,667.086236 C494.262458,685.5323 491.34906,696.866879 474.232848,704.176484 C458.261184,710.996001 441.446716,711.694636 424.257668,710.902154" id="Fill-234" fill="#253754" fill-rule="nonzero"></path>
            <polyline id="Fill-235" fill="#F0AA93" fill-rule="nonzero" points="266.337219 596.161708 267.206803 694.109597 289.251912 694.161708 304.337219 596.234663 266.337219 596.161708"></polyline>
            <path d="M295.337219,712.006338 L195.337219,711.871025 C196.70207,699.817712 206.077232,697.153076 206.077232,697.153076 L235.820166,688.170339 L262.698265,672.161708 L272.82394,677.053812 C272.82394,677.053812 274.867577,676.689507 272.816663,681.664881 C272.816663,681.664881 285.46518,684.319108 291.496303,681.67529 L295.337219,713.161708" id="Fill-236" fill="#00121D" fill-rule="nonzero"></path>
            <polyline id="Fill-237" fill="#000814" fill-rule="nonzero" points="295.323706 717.161708 195.337219 717.024287 195.343456 712.161708 295.337219 712.299129 295.323706 717.161708"></polyline>
            <path d="M226.569255,691.596122 C227.935686,691.965906 229.036421,693.584962 229.716473,694.674326 C230.497742,695.923597 230.911045,697.332775 231.205207,698.741953 C231.276903,699.091749 231.78826,699.161708 232.094019,699.161708 C232.304888,699.151714 232.512594,699.14172 232.722409,699.121731 C232.871071,699.101743 233.389808,698.991807 233.332874,698.741953 C233.276994,698.502093 233.122005,698.422139 232.924843,698.242244 C232.74455,698.082338 232.266932,698.082338 232.085585,698.242244 C231.876824,698.432134 231.730271,698.502093 231.668064,698.741953 C232.019161,698.622023 232.370258,698.502093 232.722409,698.372169 C232.512594,698.35218 232.305943,698.332192 232.094019,698.332192 C232.391344,698.47211 232.687615,698.602034 232.983886,698.741953 C232.509431,696.053521 230.408123,690.986478 226.819135,691.166373 C226.523919,691.186361 226.049464,691.456204 226.569255,691.596122" id="Fill-238" fill="#FFFFFE" fill-rule="nonzero"></path>
            <path d="M236.348411,687.514568 C236.779698,688.882166 237.562161,690.13131 238.349014,691.33738 C239.313649,692.801893 239.951252,694.352555 240.790781,695.870911 C240.992707,696.237039 242.354609,696.312418 242.337051,695.773994 C242.227308,692.575755 238.734209,690.142078 237.454613,687.374578 C237.305364,687.051524 236.215622,687.094598 236.348411,687.514568" id="Fill-239" fill="#FFFFFE" fill-rule="nonzero"></path>
            <path d="M244.394867,684.498022 C246.38465,686.813065 247.712505,689.732476 248.49442,692.703106 C248.705397,693.502102 250.60619,693.123091 250.304223,692.580183 C250.099245,692.201172 250.035252,692.129467 249.760282,691.811917 C249.634296,691.658264 249.197343,691.658264 249.071357,691.811917 C248.797387,692.129467 248.732394,692.201172 248.527416,692.580183 C249.130351,692.621157 249.734285,692.662131 250.337219,692.703106 C249.476313,689.261273 247.694507,686.669655 245.205779,684.262421 C245.0048,684.067793 244.102899,684.159985 244.394867,684.498022" id="Fill-240" fill="#FFFFFE" fill-rule="nonzero"></path>
            <path d="M252.502454,679.644684 C254.146337,680.74762 255.141805,683.53226 255.713422,685.476049 C255.868964,686.000216 255.789248,687.157753 256.259763,687.463518 C256.412388,687.561799 256.420165,688.271609 256.511546,688.446332 C256.644729,688.719336 256.991782,688.828537 257.173571,689.046941 C257.317447,689.221663 258.050439,689.221663 257.944476,688.872218 C257.939615,688.850378 257.934754,688.839458 257.929894,688.817617 C257.845318,688.544613 257.290228,688.653815 257.166766,688.817617 C257.155101,688.839458 257.143435,688.850378 257.131769,688.872218 C257.407856,688.894058 257.683943,688.904979 257.96003,688.926819 C258.043634,688.806697 258.127237,688.697496 258.210841,688.577374 C258.28764,688.511853 258.330414,688.424492 258.337219,688.31529 C258.232228,687.834803 257.845318,686.862909 257.842401,686.797388 C257.80546,685.814574 257.407856,684.820839 257.056915,683.947226 C256.309342,682.090799 255.029037,680.037809 253.305439,679.207877 C253.020603,679.065915 251.925977,679.262478 252.502454,679.644684" id="Fill-241" fill="#FFFFFE" fill-rule="nonzero"></path>
            <path d="M359.337219,480.975056 C343.626187,551.373621 324.369967,661.244998 311.364666,661.161708 C270.200925,660.901032 251.337219,643.285755 251.337219,643.285755 L286.118157,474.55434 C286.118157,474.55434 308.466342,411.097652 359.337219,480.975056" id="Fill-242" fill="#253754" fill-rule="nonzero"></path>
            <polyline id="Fill-243" fill="#F0AA93" fill-rule="nonzero" points="347.337219 596.161708 348.212939 694.109597 370.251897 694.161708 385.337219 596.234663 347.337219 596.161708"></polyline>
            <path d="M375.337219,712.006338 L275.337219,711.871025 C276.701999,699.817712 286.078753,697.153076 286.078753,697.153076 L315.820141,688.170339 L342.698922,672.161708 L352.823031,677.053812 C352.823031,677.053812 354.860326,676.689507 352.812636,681.664881 C352.812636,681.664881 365.462575,684.319108 371.491305,681.67529 L375.337219,713.161708" id="Fill-244" fill="#0A1F2B" fill-rule="nonzero"></path>
            <polyline id="Fill-245" fill="#000814" fill-rule="nonzero" points="375.316431 717.161708 275.337219 717.024287 275.341377 712.161708 375.337219 712.299129 375.316431 717.161708"></polyline>
            <path d="M307.56923,691.596617 C308.937619,691.966822 310.036126,693.587722 310.717158,694.678327 C311.497288,695.929021 311.912654,697.339803 312.206784,698.750586 C312.279526,699.10078 312.790827,699.170819 313.096553,699.160814 C313.306345,699.160814 313.512974,699.150808 313.721711,699.130797 C313.871412,699.110786 314.387984,699.000725 314.333164,698.750586 C314.278344,698.520458 314.121264,698.430408 313.926232,698.250309 C313.745959,698.09022 313.269447,698.09022 313.08812,698.250309 C312.876219,698.440414 312.73179,698.510453 312.667482,698.750586 C313.01854,698.630519 313.369599,698.510453 313.721711,698.380381 C313.512974,698.36037 313.306345,698.340359 313.096553,698.340359 C313.392792,698.480436 313.690084,698.610508 313.986323,698.750586 C313.508757,696.059093 311.408733,690.986278 307.819082,691.166378 C307.523898,691.186389 307.049495,691.456539 307.56923,691.596617" id="Fill-246" fill="#FFFFFE" fill-rule="nonzero"></path>
            <path d="M317.348417,687.514568 C317.777743,688.882166 318.560633,690.142078 319.349013,691.33738 C320.31637,692.801893 320.949929,694.352555 321.789916,695.870911 C321.99305,696.237039 323.355695,696.312418 323.337029,695.773994 C323.227227,692.575755 319.732223,690.142078 318.455223,687.374578 C318.305892,687.051524 317.215556,687.094598 317.348417,687.514568" id="Fill-247" fill="#FFFFFE" fill-rule="nonzero"></path>
            <path d="M324.39479,684.498022 C326.383581,686.813065 327.710774,689.732476 328.496296,692.703106 C328.706169,693.502102 330.605014,693.123091 330.305197,692.580183 C330.095324,692.201172 330.035361,692.129467 329.755531,691.811917 C329.635604,691.658264 329.195871,691.658264 329.075944,691.811917 C328.796114,692.129467 328.73615,692.201172 328.526278,692.580183 C329.125913,692.621157 329.735543,692.662131 330.335178,692.703106 C329.475701,689.261273 327.692785,686.669655 325.205297,684.262421 C325.005418,684.067793 324.102967,684.159985 324.39479,684.498022" id="Fill-248" fill="#FFFFFE" fill-rule="nonzero"></path>
            <path d="M333.361858,678.523869 C334.373571,680.615132 335.468724,682.674222 336.438717,684.765484 C336.709897,685.355328 336.647317,687.103409 337.106239,687.403693 C337.366989,687.575284 337.41914,688.047158 337.49215,688.325993 C337.55473,688.551206 338.044941,688.819317 338.201392,689.012357 C338.326552,689.162498 339.150525,689.280467 339.077514,688.94801 C339.077514,688.926561 339.067084,688.915837 339.067084,688.905112 C339.014934,688.626277 338.430852,688.615553 338.274402,688.797868 C338.263972,688.808592 338.253542,688.819317 338.243112,688.830041 C338.524723,688.872939 338.795903,688.905112 339.077514,688.94801 C339.265255,688.186576 339.484285,688.165127 339.202675,687.350071 C338.962784,686.631534 338.827194,685.859376 338.597733,685.087217 C338.263972,683.982601 337.51301,682.974506 336.855918,682.052205 C336.011085,680.872518 335.385284,679.553414 334.540451,678.363003 C334.331851,678.062719 333.153257,678.084168 333.361858,678.523869" id="Fill-249" fill="#FFFFFE" fill-rule="nonzero"></path>
            <path d="M405.613458,330.755319 C405.613458,330.755319 359.074692,334.445131 350.740325,421.822786 C350.740325,421.822786 330.938373,568.41462 325.337219,660.044939 C325.337219,660.044939 351.930949,680.714137 385.801061,670.937179 L414.344699,572.886171 L484.048408,680.161708 C484.048408,680.161708 562.984673,678.483573 566.337219,593.00294 C566.337219,593.00294 477.270208,315.672954 405.613458,330.755319" id="Fill-250" fill="#253754" fill-rule="nonzero"></path>
            <path d="M430.084281,496.528695 C423.373875,506.149464 421.008561,518.651263 418.966263,529.99857 C416.163314,545.495809 412.339217,560.868237 408.994434,576.261468 C405.68091,591.467483 402.429906,606.642296 397.907676,621.546688 C393.656363,635.535806 388.196343,649.337709 382.361208,662.744381 C382.14239,663.243621 383.486555,663.285224 383.715793,662.921195 C399.32478,637.907195 406.003927,608.732863 412.151659,580.224185 C415.569381,564.383718 418.976683,548.553653 422.394406,532.723588 C425.030637,520.481809 425.905907,507.938407 432.282877,496.819918 C432.710092,496.081459 430.490656,495.935847 430.084281,496.528695" id="Fill-251" fill="#0E243C" fill-rule="nonzero"></path>
            <path d="M439.646169,513.161976 C431.072991,513.276337 421.56262,517.476506 418.431546,525.793673 C418.239848,526.292703 418.335697,526.666976 418.761693,527.010059 C419.006641,527.217988 419.251589,527.415521 419.496537,527.613054 C420.35918,528.320013 421.967317,528.288823 422.936459,527.831379 C424.896042,526.895698 424.938642,526.001602 425.886484,524.161429 C426.791726,522.394031 428.250764,521.000906 429.773701,519.732538 C432.681127,517.320559 436.791993,515.46999 440.519462,514.711048 C442.340597,514.336776 440.70051,513.141183 439.646169,513.161976" id="Fill-252" fill="#0E243C" fill-rule="nonzero"></path>
            <path d="M414.961404,560.545765 C412.980344,566.734747 416.275159,574.059418 417.098863,580.227562 C418.214512,588.667083 419.278029,597.200376 421.133969,605.514867 C423.354841,615.496424 424.908408,625.634269 426.931175,635.657503 C429.360579,647.712473 432.071503,659.725766 435.679117,671.489 C438.463027,680.595347 441.841255,692.441934 449.525681,698.703851 C450.370238,699.391515 455.2499,699.474869 454.186384,697.745288 C442.341733,678.417743 437.514204,656.45415 433.051606,634.428041 C431.143533,625.009119 429.475272,615.538101 427.212694,606.192113 C425.42974,598.836185 424.178544,591.386484 422.864789,583.936783 C422.218338,580.290077 421.6553,576.153669 420.299838,572.684088 C418.80883,568.891514 416.546252,564.848879 416.994597,560.681214 C417.067583,560.035226 415.149083,559.993549 414.961404,560.545765" id="Fill-253" fill="#0E243C" fill-rule="nonzero"></path>
            <path d="M378.509328,346.251011 C361.703417,361.99583 356.027874,387.214668 350.562537,408.677288 C347.062619,422.450092 344.655769,436.546348 342.080755,450.517397 C334.776121,490.239415 329.016497,530.629206 325.560722,570.872921 C325.156077,575.578629 325.2822,580.044357 326.092542,584.697895 C326.187134,585.250894 327.683796,585.334365 327.847756,584.812668 C329.983441,577.978436 330.771711,571.154638 331.665083,564.069991 C332.863253,554.679443 334.124485,545.299329 335.375206,535.919215 C338.212978,514.592236 341.576262,493.338296 344.634749,472.04262 C347.146702,454.586634 349.616614,437.109781 352.454385,419.695531 C355.428789,401.383962 358.760543,381.841188 366.496097,364.938201 C369.638666,358.083101 373.853281,351.749698 379.276577,346.470124 C379.570865,346.188407 378.709023,346.0632 378.509328,346.251011" id="Fill-254" fill="#0E243C" fill-rule="nonzero"></path>
            <path d="M368.002695,464.928391 C377.43319,456.540534 382.764369,456.697218 424.337219,455.161708 C423.757518,464.876163 418.426338,464.719478 405.828191,466.390782 C405.911006,466.380336 409.979265,465.419336 410.310523,465.388 C415.45537,465.095521 418.881818,463.789815 421.117808,465.346217 C424.834106,467.936738 424.254405,473.848976 422.328969,483.145605 C422.008063,484.67067 417.722415,487.88793 417.515379,489.559234 C417.297991,491.240984 413.374657,493.925516 412.577568,495.628157 C411.190426,498.615613 409.451323,497.080103 406.687391,498.438037 C405.352008,499.085668 404.078736,500.297363 402.660539,500.683852 C393.499191,503.211699 385.310913,495.126766 378.623647,490.112854 C373.36493,486.174844 365.559669,480.387953 364.42097,473.295357 C363.924084,470.151216 365.704594,466.975738 368.002695,464.928391" id="Fill-255" fill="#F0AA93" fill-rule="nonzero"></path>
            <path d="M372.337219,461.657761 C372.337219,461.657761 313.105413,428.265572 283.648617,378.161708 C283.648617,378.161708 268.617183,390.064491 262.483185,402.465821 C262.483185,402.465821 247.570035,434.819373 296.370905,451.78032 C353.202496,471.524815 340.965904,470.216132 367.993176,478.161708 L372.337219,461.657761" id="Fill-256" fill="#F0AA93" fill-rule="nonzero"></path>
        </g>
    </g>
</svg>