<?xml version="1.0" encoding="UTF-8"?>
<svg width="607px" height="845px" viewBox="0 0 607 845" version="1.1" xmlns="http://www.w3.org/2000/svg" xmlns:xlink="http://www.w3.org/1999/xlink">
    <title>Group</title>
    <g id="Page-1" stroke="none" stroke-width="1" fill="none" fill-rule="evenodd">
        <g id="1534_U1RVRElPIEtBVCAzMTEtMDU" transform="translate(-762.000000, -1192.000000)">
            <g id="Group" transform="translate(762.036000, 1192.021139)">
                <line x1="170.067" y1="801.808861" x2="170.067" y2="841.928861" id="Stroke-101" stroke="#FFFFFE" stroke-width="4.989" stroke-linecap="round" stroke-linejoin="round"></line>
                <line x1="189.95" y1="821.868861" x2="150.185" y2="821.868861" id="Stroke-104" stroke="#FFFFFE" stroke-width="4.989" stroke-linecap="round" stroke-linejoin="round"></line>
                <path d="M606.054,669.918861 C606.054,693.148861 470.384,711.978861 303.034,711.978861 C135.669,711.978861 0,693.148861 0,669.918861 C0,646.688861 135.669,627.868861 303.034,627.868861 C470.384,627.868861 606.054,646.688861 606.054,669.918861" id="Fill-142" fill="#514F84"></path>
                <path d="M178.581,386.278861 C190.656,401.728861 230.743,391.718861 241.564,376.858861 C257.224,355.348861 270.414,281.978861 228.965,303.728861 C207.69,314.888861 158.324,360.348861 178.581,386.278861" id="Fill-200" fill="#F0AA93"></path>
                <polyline id="Fill-201" fill="#F0AA93" points="369.444 176.958861 465.304 192.318861 459.314 422.408861 341.474 445.518861 266.704 235.828861 327.594 185.158861 369.444 176.958861"></polyline>
                <path d="M304.084,289.008861 C313.474,241.148861 289.374,237.898861 289.374,237.898861 C262.394,230.088861 248.454,271.078861 248.454,271.078861 C248.454,271.078861 214.531,394.648861 213.521,435.688861 C213.521,435.688861 242.404,461.608861 256.814,436.458861 L304.084,289.008861" id="Fill-202" fill="#F0AA93"></path>
                <path d="M280.954,373.948861 L312.054,295.688861 C312.054,295.688861 323.844,229.758861 282.564,217.968861 C282.564,217.968861 268.634,216.358861 242.364,254.408861 L199.487,323.028861 C199.487,323.028861 213.734,364.568861 280.954,373.948861" id="Fill-203" fill="#537E69"></path>
                <path d="M174.889,572.208861 C174.889,572.208861 188.779,296.278861 254.154,293.008861 C286.314,291.398861 300.794,351.428861 300.794,351.428861 L325.474,507.498861 L349.324,463.458861 C349.324,463.458861 406.244,465.858861 480.124,463.928861 C509.144,508.318861 511.114,542.298861 505.654,587.428861 C503.924,601.758861 491.624,620.368861 482.534,630.838861 C465.654,650.268861 438.194,663.308861 412.884,666.438861 C379.694,670.548861 362.704,658.818861 341.064,635.728861 C341.064,635.728861 320.164,514.138861 307.824,506.008861 C283.624,490.078861 236.654,585.878861 174.889,572.208861" id="Fill-204" fill="#253754"></path>
                <path d="M326.224,199.858861 L382.394,181.858861 L362.744,120.548861 L306.584,138.548861 C306.584,138.548861 328.044,184.938861 326.224,199.858861" id="Fill-205" fill="#F0AA93"></path>
                <path d="M323.814,183.598861 C336.114,178.208861 347.964,173.588861 359.134,165.688861 C364.484,161.898861 369.184,157.838861 373.224,153.208861 L362.744,120.548861 L306.584,138.548861 C306.584,138.548861 318.494,164.288861 323.814,183.598861" id="Fill-206" fill="#EA8B77"></path>
                <path d="M257.394,104.568861 C263.844,112.288861 270.854,121.428861 279.574,127.188861 C289.534,133.778861 300.054,131.028861 301.174,118.358861 C302.224,106.428861 297.824,93.5588611 292.374,83.4488611 C289.384,77.9188611 285.224,71.9288611 278.424,69.7288611 C267.804,66.3088611 257.144,71.9588611 253.184,81.4388611 C249.484,90.3188611 251.724,97.7688611 257.394,104.568861" id="Fill-207" fill="#542A1C"></path>
                <path d="M271.314,116.548861 C275.414,127.028861 280.484,137.158861 286.684,146.548861 C292.974,156.088861 303.314,174.438861 316.564,174.938861 C320.654,175.088861 323.594,174.018861 327.724,172.368861 C343.494,166.078861 357.134,149.748861 363.444,134.438861 C375.214,105.908861 357.434,51.8888611 331.444,37.2288611 C307.724,23.8288611 255.464,51.8688611 261.744,83.5788611 C263.914,94.5188611 267.094,105.698861 271.314,116.548861" id="Fill-208" fill="#F0AA93"></path>
                <path d="M291.924,138.738861 C293.254,138.878861 296.004,139.278861 297.364,139.188861 C302.504,138.808861 306.674,136.838861 310.924,134.008861 C316.924,129.998861 322.144,123.758861 329.914,123.818861 C334.604,123.858861 338.534,123.608861 342.924,121.948861 C348.474,119.838861 352.224,114.378861 352.804,108.548861 C353.244,104.038861 351.884,98.7888611 352.994,94.4688611 C354.404,88.9688611 357.474,84.5288611 361.834,81.3588611 C367.854,100.068861 369.254,120.358861 363.444,134.438861 C357.134,149.748861 343.494,166.078861 327.724,172.368861 C323.594,174.018861 320.654,175.088861 316.564,174.938861 C303.314,174.438861 292.974,156.088861 286.684,146.548861 C285.234,144.368861 283.874,142.148861 282.564,139.888861 C285.054,138.598861 288.004,138.308861 291.924,138.738861" id="Fill-209" fill="#E0987E"></path>
                <path d="M331.444,37.2288611 C326.884,34.6488611 321.284,33.6188611 315.234,33.8288611 C325.524,52.5388611 345.924,60.6288611 350.304,91.3288611 C356.934,107.958861 360.884,113.048861 365.994,125.798861 C371.814,96.1288611 355.004,50.5188611 331.444,37.2288611" id="Fill-210" fill="#C98973"></path>
                <path d="M354.944,82.6888611 C356.354,79.3688611 356.354,70.7988611 362.054,71.7388611 C367.104,72.5688611 369.924,77.9188611 372.234,82.1888611 C372.284,82.2788611 372.584,82.2688611 372.554,82.1388611 C371.044,77.1588611 367.234,70.6888611 361.724,69.9488611 C354.944,69.0388611 350.874,76.7588611 352.594,82.6888611 C352.784,83.3588611 354.694,83.2788611 354.944,82.6888611" id="Fill-211" fill="#EB9278"></path>
                <path d="M344.204,75.8388611 C345.804,78.2788611 350.374,90.3588611 352.004,92.4488611 C353.654,94.5388611 357.794,88.9988611 357.794,88.9988611 C360.264,83.7488611 352.414,76.3488611 358.564,72.7188611 C365.234,68.7788611 370.924,78.5988611 372.704,83.4388611 C376.294,75.7888611 375.024,64.0188611 373.484,55.6288611 C370.634,40.0488611 368.884,34.7688611 364.324,29.0188611 C348.344,8.8788611 340.254,13.4588611 324.874,20.9888611 C317.864,24.4288611 312.174,36.0088611 311.864,44.1588611 C311.544,52.8788611 318.784,57.0888611 325.744,60.3288611 C334.454,64.3888611 336.924,64.6688611 344.204,75.8388611" id="Fill-212" fill="#542A1C"></path>
                <path d="M364.854,70.8088611 C374.504,74.8488611 378.464,96.5488611 367.404,108.718861 C362.444,106.328861 358.394,96.0988611 355.914,91.2388611 C353.484,86.4788611 351.394,81.8088611 352.704,76.3988611 C353.104,74.7288611 357.754,67.8488611 364.854,70.8088611" id="Fill-213" fill="#F0AA93"></path>
                <path d="M300.564,98.2388611 C300.844,97.2988611 303.624,95.8288611 304.454,95.2088611 C306.614,93.5588611 309.104,92.7988611 311.654,91.9588611 C313.764,91.2588611 315.974,90.8888611 318.134,90.3688611 C320.244,89.8588611 322.004,91.1588611 323.864,89.9288611 C324.264,89.6588611 324.154,87.8788611 323.864,87.5488611 C320.304,83.4388611 312.854,86.4188611 308.804,88.1288611 C305.254,89.6388611 300.674,92.6388611 300.254,96.8488611 C300.234,97.0488611 300.424,98.7188611 300.564,98.2388611" id="Fill-216" fill="#542A1C"></path>
                <path d="M282.924,102.848861 C281.784,101.018861 278.794,102.208861 277.274,102.678861 C274.124,103.668861 269.984,105.368861 268.594,108.548861 C268.454,108.858861 268.304,110.178861 268.694,110.348861 C269.844,110.848861 271.274,109.288861 272.434,108.808861 C274.084,108.128861 275.614,107.078861 277.274,106.378861 C278.414,105.888861 279.594,105.518861 280.794,105.188861 C281.414,105.018861 282.174,104.148861 282.874,104.418861 C283.074,104.498861 283.034,103.028861 282.924,102.848861" id="Fill-217" fill="#542A1C"></path>
                <path d="M283.614,115.418861 C284.714,118.098861 284.454,120.728861 283.044,121.318861 C281.614,121.908861 279.574,120.228861 278.464,117.558861 C277.354,114.888861 277.614,112.248861 279.034,111.668861 C280.454,111.078861 282.504,112.758861 283.614,115.418861" id="Fill-218" fill="#6C4634"></path>
                <path d="M314.404,104.818861 C315.494,107.478861 315.254,110.118861 313.834,110.708861 C312.404,111.298861 310.364,109.618861 309.254,106.948861 C308.154,104.288861 308.414,101.648861 309.824,101.058861 C311.244,100.468861 313.294,102.148861 314.404,104.818861" id="Fill-219" fill="#6C4634"></path>
                <path d="M286.984,109.488861 C289.024,114.518861 291.524,117.868861 289.614,123.448861 C288.634,126.328861 287.484,129.528861 289.674,132.108861 C292.634,135.588861 299.104,134.548861 302.624,132.728861 C304.374,131.828861 301.094,131.008861 300.124,131.508861 C297.814,132.708861 294.564,133.358861 292.644,131.078861 C291.074,129.218861 292.254,125.688861 292.804,123.658861 C293.264,121.988861 294.254,118.978861 293.374,117.318861 C291.904,114.578861 290.174,111.998861 288.714,109.258861 C288.454,108.758861 286.724,108.838861 286.984,109.488861" id="Fill-220" fill="#EA8B77"></path>
                <path d="M305.234,141.348861 C302.684,142.598861 299.134,143.598861 296.724,145.378861 C294.334,147.128861 296.494,153.288861 298.644,154.568861 C301.714,156.398861 303.264,153.208861 305.744,152.158861 C308.554,150.958861 311.304,152.138861 314.104,151.168861 C317.764,149.908861 317.334,145.718861 315.354,143.098861 C312.934,139.898861 308.664,139.648861 305.234,141.348861" id="Fill-221" fill="#FFFFFE"></path>
                <path d="M224.932,68.6888611 C231.126,82.2088611 242.544,91.6488611 260.554,88.0288611 C273.894,85.3588611 285.874,76.7788611 294.644,66.8688611 C304.054,56.2488611 305.754,51.8988611 312.594,46.9688611 C319.464,41.9988611 329.934,34.1588611 334.844,26.7488611 C343.124,14.2688611 326.584,8.3888611 317.974,3.6488611 C310.214,-0.631138904 302.024,-1.9411389 294.694,4.1188611 C287.464,10.0988611 285.824,18.2688611 274.844,18.8588611 C266.684,19.2988611 261.264,13.2188611 254.274,10.1388611 C253.294,16.8888611 257.914,26.7588611 254.684,32.5388611 C254.534,32.7988611 254.364,33.0488611 254.184,33.2988611 C254.184,33.2988611 228.583,50.3288611 220.675,29.4888611 C221.088,30.5888611 219.813,34.0888611 219.663,35.2988611 C219.054,40.3888611 219.149,45.4588611 219.853,50.5388611 C220.726,56.8588611 222.39,63.1188611 224.932,68.6888611" id="Fill-222" fill="#542A1C"></path>
                <path d="M324.694,185.998861 L269.284,227.808861 L337.454,444.648861 C363.644,452.078861 375.484,441.758861 412.294,434.478861 C424.064,432.158861 460.224,431.768861 462.924,418.398861 C464.544,410.278861 470.204,392.728861 468.374,384.808861 C466.534,376.868861 472.754,362.178861 471.834,354.068861 C470.914,345.978861 469.214,338.078861 471.724,330.148861 C476.374,315.388861 472.394,295.648861 472.764,280.008861 C473.144,264.148861 473.954,256.158861 470.884,240.518861 C469.264,232.208861 474.564,221.518861 475.024,213.028861 C475.494,204.018861 472.244,193.898861 463.004,191.688861 C454.794,189.718861 445.794,189.248861 437.424,187.888861 L382.224,178.428861 C382.224,178.428861 339.794,202.538861 324.694,185.998861" id="Fill-223" fill="#537E69"></path>
                <path d="M452.074,257.558861 C452.074,257.558861 467.234,306.478861 468.394,334.368861 C469.034,349.878861 474.184,361.728861 480.694,375.468861 C483.904,382.248861 488.814,388.598861 490.354,396.058861 C491.824,403.168861 491.254,410.638861 492.574,417.898861 C495.194,432.118861 494.784,446.578861 500.414,460.008861 C503.434,467.228861 506.034,474.858861 507.134,482.638861 C508.404,491.688861 519.404,539.878861 520.004,548.878861 C506.924,560.188861 472.534,558.238861 458.164,535.748861 C449.004,521.418861 432.514,505.188861 415.394,501.528861 C399.404,498.108861 385.314,499.468861 369.364,500.728861 C353.274,501.988861 320.324,504.788861 305.484,498.398861 C293.664,493.318861 311.794,427.808861 306.124,415.668861 C299.914,402.388861 298.104,395.138861 300.204,381.288861 C302.764,364.368861 293.104,327.018861 293.554,309.888861 C293.944,295.088861 306.204,301.308861 315.254,288.848861 C341.634,252.548861 397.974,246.838861 438.414,254.688861 L452.074,257.558861" id="Fill-224" fill="#537E69"></path>
                <path d="M318.404,197.088861 C318.634,196.928861 318.864,196.768861 319.094,196.608861 C318.194,196.548861 317.284,196.488861 316.374,196.428861 C319.454,200.328861 326.864,200.918861 331.454,201.468861 C338.134,202.248861 345.784,201.458861 352.384,200.328861 C358.194,199.328861 364.424,198.268861 369.844,195.748861 C372.814,194.368861 375.554,192.178861 378.714,191.288861 C381.104,190.618861 382.504,189.488861 383.334,187.118861 C383.964,185.328861 379.884,185.478861 379.064,186.238861 C376.324,188.788861 373.024,189.568861 369.894,191.578861 C365.364,194.478861 360.444,195.818861 355.154,196.418861 C352.084,196.758861 349.534,198.348861 346.314,198.348861 C343.974,198.338861 341.474,198.858861 339.104,199.038861 C332.434,199.568861 324.774,199.348861 318.864,195.718861 C318.344,195.408861 316.364,195.308861 316.324,196.238861 C316.314,196.428861 316.304,196.618861 316.293623,196.808861 C316.264,197.638861 318.034,197.348861 318.404,197.088861" id="Fill-226" fill="#2C5645"></path>
                <path d="M305.824,199.818861 C303.604,203.858861 300.514,206.898861 298.964,211.328861 C297.494,215.538861 296.424,219.858861 295.294,224.158861 C294.014,229.058861 295.694,235.408861 295.894,240.458861 C296.004,243.238861 296.134,246.038861 296.414,248.808861 C296.674,251.308861 298.034,253.748861 298.524,256.218861 C300.574,266.568861 302.124,276.948861 304.184,287.308861 C306.234,297.618861 308.134,308.138861 308.764,318.668861 C308.794,319.178861 310.224,319.178861 310.254,318.668861 C310.864,308.578861 309.764,298.938861 307.854,289.088861 C306.854,283.938861 305.694,278.838861 304.644,273.698861 C303.594,268.498861 303.324,263.188861 302.314,257.968861 C301.384,253.168861 299.944,248.798861 299.584,243.908861 C299.184,238.468861 299.074,233.008861 298.604,227.568861 C298.204,222.968861 300.664,217.588861 301.824,213.128861 C303.054,208.378861 306.184,204.628861 307.424,199.928861 C307.554,199.428861 306.034,199.438861 305.824,199.818861" id="Fill-227" fill="#2C5645"></path>
                <path d="M321.254,334.208861 C319.874,339.528861 319.344,345.058861 318.364,350.468861 C317.194,356.848861 314.464,362.758861 314.454,369.298861 C314.454,373.868861 315.664,388.678861 322.544,388.558861 C323.614,388.538861 325.304,387.398861 323.444,386.938861 C321.094,386.358861 319.374,378.528861 319.104,376.958861 C318.194,371.778861 317.274,366.908861 318.794,361.728861 C321.434,352.688861 321.824,343.578861 321.754,334.208861 C321.754,334.028861 321.294,334.048861 321.254,334.208861" id="Fill-228" fill="#2C5645"></path>
                <path d="M509.114,390.698861 C446.624,429.058861 364.794,226.818861 353.614,180.938861 L366.684,169.638861 C431.074,269.528861 486.774,318.418861 486.774,318.418861 C486.774,318.418861 523.044,335.448861 509.114,390.698861" id="Fill-232" fill="#F0AA93"></path>
                <path d="M352.194,173.738861 C352.194,173.738861 361.184,180.908861 368.564,177.148861 C377.404,166.608861 381.874,154.308861 387.584,141.238861 C393.494,127.708861 388.264,99.9188611 383.204,93.4288611 C375.644,93.7388611 382.654,115.478861 379.864,121.248861 L376.434,105.028861 L366.434,92.5988611 C366.434,92.5988611 361.564,93.6188611 363.744,100.138861 L368.974,111.188861 L368.934,123.258861 L362.214,108.928861 L353.704,99.7688611 C353.704,99.7688611 349.094,101.078861 352.074,107.618861 L355.844,114.468861 L358.194,130.908861 L352.894,121.868861 L342.844,118.008861 C342.844,118.008861 337.604,121.838861 347.614,126.768861 L352.364,136.328861 C352.364,136.328861 346.424,166.688861 352.194,173.738861" id="Fill-233" fill="#F0AA93"></path>
                <path d="M330.094,660.728861 C311.884,659.888861 294.444,652.668861 282.914,638.658861 C259.624,610.328861 260.014,568.688861 261.614,533.258861 C263.484,491.718861 290.214,427.118861 341.874,463.668861 C367.124,481.528861 375.074,515.288861 383.174,543.358861 C389.594,565.618861 397.544,595.448861 397.444934,618.708861 C397.374,636.398861 394.574,647.268861 378.124,654.278861 C362.774,660.818861 346.614,661.488861 330.094,660.728861" id="Fill-234" fill="#253754"></path>
                <polyline id="Fill-235" fill="#F0AA93" points="178.482 550.728861 179.316 644.708861 200.459 644.758861 214.927 550.798861 178.482 550.728861"></polyline>
                <path d="M205.894,661.908861 L109.693,661.778861 C111.006,650.198861 120.025,647.638861 120.025,647.638861 L148.638,639.008861 L174.495,623.628861 L184.236,628.328861 C184.236,628.328861 186.202,627.978861 184.229,632.758861 C184.229,632.758861 196.397,635.308861 202.199,632.768861 L205.894,663.018861" id="Fill-236" fill="#00121D"></path>
                <polyline id="Fill-237" fill="#000814" points="205.881 666.508861 109.687 666.378861 109.693 661.778861 205.894 661.908861 205.881 666.508861"></polyline>
                <path d="M140.287,641.898861 C141.583,642.268861 142.627,643.888861 143.272,644.978861 C144.013,646.228861 144.405,647.638861 144.684,649.048861 C144.752,649.398861 145.237,649.468861 145.527,649.468861 C145.727,649.458861 145.924,649.448861 146.123,649.428861 C146.264,649.408861 146.756,649.298861 146.702,649.048861 C146.649,648.808861 146.502,648.728861 146.315,648.548861 C146.144,648.388861 145.691,648.388861 145.519,648.548861 C145.321,648.738861 145.182,648.808861 145.123,649.048861 C145.456,648.928861 145.789,648.808861 146.123,648.678861 C145.924,648.658861 145.728,648.638861 145.527,648.638861 C145.809,648.778861 146.09,648.908861 146.371,649.048861 C145.921,646.358861 143.928,641.288861 140.524,641.468861 C140.244,641.488861 139.794,641.758861 140.287,641.898861" id="Fill-238" fill="#FFFFFE"></path>
                <path d="M149.679,638.308861 C150.072,639.578861 150.785,640.738861 151.502,641.858861 C152.381,643.218861 152.962,644.658861 153.727,646.068861 C153.911,646.408861 155.152,646.478861 155.136,645.978861 C155.036,643.008861 151.853,640.748861 150.687,638.178861 C150.551,637.878861 149.558,637.918861 149.679,638.308861" id="Fill-239" fill="#FFFFFE"></path>
                <path d="M156.745,634.898861 C158.735,637.158861 160.063,640.008861 160.845,642.908861 C161.056,643.688861 162.957,643.318861 162.655,642.788861 C162.45,642.418861 162.386,642.348861 162.111,642.038861 C161.985,641.888861 161.548,641.888861 161.422,642.038861 C161.148,642.348861 161.083,642.418861 160.878,642.788861 C161.481,642.828861 162.085,642.868861 162.688,642.908861 C161.827,639.548861 160.045,637.018861 157.556,634.668861 C157.355,634.478861 156.453,634.568861 156.745,634.898861" id="Fill-240" fill="#FFFFFE"></path>
                <path d="M164.96,630.298861 C166.651,631.308861 167.675,633.858861 168.263,635.638861 C168.423,636.118861 168.341,637.178861 168.825,637.458861 C168.982,637.548861 168.99,638.198861 169.084,638.358861 C169.221,638.608861 169.578,638.708861 169.765,638.908861 C169.913,639.068861 170.667,639.068861 170.558,638.748861 C170.553,638.728861 170.548,638.718861 170.543,638.698861 C170.456,638.448861 169.885,638.548861 169.758,638.698861 C169.746,638.718861 169.734,638.728861 169.722,638.748861 C170.006,638.768861 170.29,638.778861 170.574,638.798861 C170.66,638.688861 170.746,638.588861 170.832,638.478861 C170.911,638.418861 170.955,638.338861 170.962,638.238861 C170.854,637.798861 170.456,636.908861 170.453,636.848861 C170.415,635.948861 170.006,635.038861 169.645,634.238861 C168.876,632.538861 167.559,630.658861 165.786,629.898861 C165.493,629.768861 164.367,629.948861 164.96,630.298861" id="Fill-241" fill="#FFFFFE"></path>
                <path d="M267.354,440.348861 C252.344,507.888861 233.947,613.298861 221.522,613.218907 C182.195,612.968861 164.173,596.068861 164.173,596.068861 L197.402,434.188861 C197.402,434.188861 218.753,373.308861 267.354,440.348861" id="Fill-242" fill="#253754"></path>
                <polyline id="Fill-243" fill="#F0AA93" points="255.904 550.728861 256.744 644.708861 277.884 644.758861 292.354 550.798861 255.904 550.728861"></polyline>
                <path d="M283.324,661.908861 L187.118,661.778861 C188.431,650.198861 197.452,647.638861 197.452,647.638861 L226.065,639.008861 L251.924,623.628861 L261.664,628.328861 C261.664,628.328861 263.624,627.978861 261.654,632.758861 C261.654,632.758861 273.824,635.308861 279.624,632.768861 L283.324,663.018861" id="Fill-244" fill="#0A1F2B"></path>
                <polyline id="Fill-245" fill="#000814" points="283.304 666.508861 187.114 666.378861 187.118 661.778861 283.324 661.908861 283.304 666.508861"></polyline>
                <path d="M217.712,641.898861 C219.01,642.268861 220.052,643.888861 220.698,644.978861 C221.438,646.228861 221.832,647.638861 222.111,649.048861 C222.18,649.398861 222.665,649.468861 222.955,649.458861 C223.154,649.458861 223.35,649.448861 223.548,649.428861 C223.69,649.408861 224.18,649.298861 224.128,649.048861 C224.076,648.818861 223.927,648.728861 223.742,648.548861 C223.571,648.388861 223.119,648.388861 222.947,648.548861 C222.746,648.738861 222.609,648.808861 222.548,649.048861 C222.881,648.928861 223.214,648.808861 223.548,648.678861 C223.35,648.658861 223.154,648.638861 222.955,648.638861 C223.236,648.778861 223.518,648.908861 223.799,649.048861 C223.346,646.358861 221.354,641.288861 217.949,641.468861 C217.669,641.488861 217.219,641.758861 217.712,641.898861" id="Fill-246" fill="#FFFFFE"></path>
                <path d="M227.107,638.308861 C227.498,639.578861 228.211,640.748861 228.929,641.858861 C229.81,643.218861 230.387,644.658861 231.152,646.068861 C231.337,646.408861 232.578,646.478861 232.561,645.978861 C232.461,643.008861 229.278,640.748861 228.115,638.178861 C227.979,637.878861 226.986,637.918861 227.107,638.308861" id="Fill-247" fill="#FFFFFE"></path>
                <path d="M234.17,634.898861 C236.16,637.158861 237.488,640.008861 238.274,642.908861 C238.484,643.688861 240.384,643.318861 240.084,642.788861 C239.874,642.418861 239.814,642.348861 239.534,642.038861 C239.414,641.888861 238.974,641.888861 238.854,642.038861 C238.574,642.348861 238.514,642.418861 238.304,642.788861 C238.904,642.828861 239.514,642.868861 240.114,642.908861 C239.254,639.548861 237.47,637.018861 234.981,634.668861 C234.781,634.478861 233.878,634.568861 234.17,634.898861" id="Fill-248" fill="#FFFFFE"></path>
                <path d="M242.514,629.078861 C243.484,631.028861 244.534,632.948861 245.464,634.898861 C245.724,635.448861 245.664,637.078861 246.104,637.358861 C246.354,637.518861 246.404,637.958861 246.474,638.218861 C246.534,638.428861 247.004,638.678861 247.154,638.858861 C247.274,638.998861 248.064,639.108861 247.994,638.798861 C247.994,638.778861 247.984,638.768861 247.984,638.758861 C247.934,638.498861 247.374,638.488861 247.224,638.658861 C247.214,638.668861 247.204,638.678861 247.194,638.688861 C247.464,638.728861 247.724,638.758861 247.994,638.798861 C248.174,638.088861 248.384,638.068861 248.114,637.308861 C247.884,636.638861 247.754,635.918861 247.534,635.198861 C247.214,634.168861 246.494,633.228861 245.864,632.368861 C245.054,631.268861 244.454,630.038861 243.644,628.928861 C243.444,628.648861 242.314,628.668861 242.514,629.078861" id="Fill-249" fill="#FFFFFE"></path>
                <path d="M312.054,295.688861 C312.054,295.688861 267.494,299.228861 259.514,383.058861 C259.514,383.058861 240.554,523.698861 235.191,611.608861 C235.191,611.608861 260.654,631.438861 293.084,622.058861 L320.414,527.988861 L387.154,630.908861 C387.154,630.908861 462.734,629.298861 465.944,547.288861 C465.944,547.288861 380.664,281.218861 312.054,295.688861" id="Fill-250" fill="#253754"></path>
                <path d="M335.784,454.598861 C329.344,463.848861 327.074,475.868861 325.114,486.778861 C322.424,501.678861 318.754,516.458861 315.544,531.258861 C312.364,545.878861 309.244,560.468861 304.904,574.798861 C300.824,588.248861 295.584,601.518861 289.984,614.408861 C289.774,614.888861 291.064,614.928861 291.284,614.578861 C306.264,590.528861 312.674,562.478861 318.574,535.068861 C321.854,519.838861 325.124,504.618861 328.404,489.398861 C330.934,477.628861 331.774,465.568861 337.894,454.878861 C338.304,454.168861 336.174,454.028861 335.784,454.598861" id="Fill-251" fill="#0E243C"></path>
                <path d="M344.094,470.658861 C336.044,470.768861 327.114,474.808861 324.174,482.808861 C323.994,483.288861 324.084,483.648861 324.484,483.978861 C324.714,484.178861 324.944,484.368861 325.174,484.558861 C325.984,485.238861 327.494,485.208861 328.404,484.768861 C330.244,483.868861 330.284,483.008861 331.174,481.238861 C332.024,479.538861 333.394,478.198861 334.824,476.978861 C337.554,474.658861 341.414,472.878861 344.914,472.148861 C346.624,471.788861 345.084,470.638861 344.094,470.658861" id="Fill-252" fill="#0E243C"></path>
                <path d="M320.804,516.598861 C318.904,522.538861 322.064,529.568861 322.854,535.488861 C323.924,543.588861 324.944,551.778861 326.724,559.758861 C328.854,569.338861 330.344,579.068861 332.284,588.688861 C334.614,600.258861 337.214,611.788861 340.674,623.078861 C343.344,631.818861 346.584,643.188861 353.954,649.198861 C354.764,649.858861 359.444,649.938861 358.424,648.278861 C347.064,629.728861 342.434,608.648861 338.154,587.508861 C336.324,578.468861 334.724,569.378861 332.554,560.408861 C330.844,553.348861 329.644,546.198861 328.384,539.048861 C327.764,535.548861 327.224,531.578861 325.924,528.248861 C324.494,524.608861 322.324,520.728861 322.754,516.728861 C322.824,516.108861 320.984,516.068861 320.804,516.598861" id="Fill-253" fill="#0E243C"></path>
                <path d="M285.444,310.848861 C269.454,325.938861 264.054,350.108861 258.854,370.678861 C255.524,383.878861 253.234,397.388861 250.784,410.778861 C243.834,448.848861 238.354,487.558861 235.066,526.128861 C234.681,530.638861 234.801,534.918861 235.572,539.378861 C235.662,539.908861 237.086,539.988861 237.242,539.488861 C239.274,532.938861 240.024,526.398861 240.874,519.608861 C242.014,510.608861 243.214,501.618861 244.404,492.628861 C247.104,472.188861 250.304,451.818861 253.214,431.408861 C255.604,414.678861 257.954,397.928861 260.654,381.238861 C263.484,363.688861 266.654,344.958861 274.014,328.758861 C277.004,322.188861 281.014,316.118861 286.174,311.058861 C286.454,310.788861 285.634,310.668861 285.444,310.848861" id="Fill-254" fill="#0E243C"></path>
                <path d="M276.054,424.598861 C285.164,416.568861 290.314,416.718861 330.474,415.248861 C329.914,424.548861 324.764,424.398861 312.594,425.998861 C312.674,425.988861 316.604,425.068861 316.924,425.038861 C321.894,424.758861 325.204,423.508861 327.364,424.998861 C330.954,427.478861 330.394,433.138861 328.534,442.038861 C328.224,443.498861 324.084,446.578861 323.884,448.178861 C323.674,449.788861 319.884,452.358861 319.114,453.988861 C317.774,456.848861 316.094,455.378861 313.424,456.678861 C312.134,457.298861 310.904,458.458861 309.534,458.828861 C300.684,461.248861 292.774,453.508861 286.314,448.708861 C281.234,444.938861 273.694,439.398861 272.594,432.608861 C272.114,429.598861 273.834,426.558861 276.054,424.598861" id="Fill-255" fill="#F0AA93"></path>
                <path d="M280.194,421.638861 C280.194,421.638861 223.608,389.488861 195.467,341.248861 C195.467,341.248861 181.107,352.708861 175.247,364.648861 C175.247,364.648861 161,395.798861 207.621,412.128861 C261.914,431.138861 250.224,429.878861 276.044,437.528861 L280.194,421.638861" id="Fill-256" fill="#F0AA93"></path>
            </g>
        </g>
    </g>
</svg>