<?xml version="1.0" encoding="UTF-8"?>
<svg width="602px" height="526px" viewBox="0 0 602 526" version="1.1" xmlns="http://www.w3.org/2000/svg" xmlns:xlink="http://www.w3.org/1999/xlink">
    <title>Group</title>
    <g id="Page-1" stroke="none" stroke-width="1" fill="none" fill-rule="evenodd">
        <g id="Group" transform="translate(0.660000, 0.685148)">
            <path d="M600.88,481.894852 C600.88,505.334852 466.37,524.344852 300.44,524.344852 C134.52,524.344852 0,505.334852 0,481.894852 C0,458.444852 134.52,439.444852 300.44,439.444852 C466.37,439.444852 600.88,458.444852 600.88,481.894852" id="Fill-257" fill="#514F84" fill-rule="nonzero"></path>
            <polyline id="Fill-258" fill="#F0AA93" fill-rule="nonzero" points="417.79 367.504852 416.97 460.304852 396.09 460.354852 381.81 367.574852 417.79 367.504852"></polyline>
            <path d="M390.73,477.284852 L485.71,477.144852 C484.41,465.714852 475.51,463.184852 475.51,463.184852 L447.26,454.674852 L421.74,439.484852 L412.11,444.134852 C412.11,444.134852 410.17,443.784852 412.12,448.504852 C412.12,448.504852 400.11,451.024852 394.38,448.504852 L390.73,478.374852" id="Fill-259" fill="#303157" fill-rule="nonzero"></path>
            <polyline id="Fill-260" fill="#2D2E53" fill-rule="nonzero" points="390.74 481.824852 485.72 481.694852 485.71 477.144852 390.73 477.284852 390.74 481.824852"></polyline>
            <path d="M445.25,453.844852 C444.1,456.394852 440.98,458.624852 440.87,461.554852 C440.85,462.024852 442.04,461.974852 442.22,461.644852 C442.9,460.364852 443.4,459.064852 444.19,457.834852 C444.96,456.614852 445.78,455.374852 446.22,453.974852 C446.34,453.604852 445.38,453.564852 445.25,453.844852" id="Fill-262" fill="#FFFFFE" fill-rule="nonzero"></path>
            <path d="M438.47,450.394852 C436.02,452.714852 434.26,455.214852 433.42,458.514852 C434,458.474852 434.57,458.444852 435.15,458.404852 C435.04,458.134852 434.88,457.904852 434.67,457.704852 C434.5,457.514852 434.1,457.514852 433.93,457.704852 C433.72,457.904852 433.56,458.134852 433.45,458.404852 C433.16,458.924852 434.98,459.264852 435.19,458.514852 C435.96,455.654852 437.28,452.844852 439.25,450.614852 C439.53,450.294852 438.66,450.204852 438.47,450.394852" id="Fill-263" fill="#FFFFFE" fill-rule="nonzero"></path>
            <path d="M431.38,446.604852 C430.95,450.094852 428.35,451.974852 425.79,453.934852 C425.71,453.994852 425.67,454.064852 425.66,454.164852 C425.69,454.324852 425.65,454.374852 425.75,454.324852 C425.97,454.334852 426.19,454.344852 426.41,454.364852 C426.39,454.344852 426.37,454.334852 426.36,454.324852 C426.23,454.234852 425.62,454.134852 425.63,454.424852 C425.63,454.434852 425.63,454.454852 425.63,454.464852 C425.63,454.594852 425.83,454.654852 425.93,454.664852 C427.27,454.804852 428.61,453.584852 429.57,452.784852 C431.43,451.214852 432.69,449.094852 432.5,446.604852 C432.47,446.214852 431.43,446.214852 431.38,446.604852" id="Fill-264" fill="#FFFFFE" fill-rule="nonzero"></path>
            <path d="M287.76,138.364852 L260.84,98.0548517 L308.98,65.8948517 L335.91,106.204852 C335.91,106.204852 295.11,127.244852 287.76,138.364852" id="Fill-265" fill="#F0AA93" fill-rule="nonzero"></path>
            <path d="M297.99,129.324852 C312.1,120.014852 335.91,106.204852 335.91,106.204852 L308.98,65.8948517 L294.52,75.5548517 C290.57,92.9248517 289.36,112.834852 297.99,129.324852" id="Fill-266" fill="#EA8A74" fill-rule="nonzero"></path>
            <path d="M356.01,285.484852 C339.73,303.664852 320.52,296.214852 304.36,275.684852 C266.3,227.354852 259.52,189.334852 260.83,169.324852 C259.56,165.314852 272.49,133.574852 299,158.454852 C299,158.454852 308,151.724852 335.06,222.584852 C335.06,222.584852 341.82,237.714852 350.4,231.854852 C350.4,231.854852 379.06,259.754852 356.01,285.484852" id="Fill-267" fill="#F0AA93" fill-rule="nonzero"></path>
            <path d="M262.51,299.104852 C262.51,299.104852 315.94,302.014852 336.09,267.294852 L318.71,173.514852 C318.71,173.514852 316,136.494852 281.64,149.394852 C281.64,149.394852 237.51,167.164852 251.04,212.634852 L262.51,299.104852" id="Fill-268" fill="#0082BD" fill-rule="nonzero"></path>
            <path d="M268.11,476.114852 C286.08,475.284852 303.3,468.154852 314.68,454.324852 C337.68,426.354852 337.3,385.244852 335.72,350.264852 C333.87,309.244852 307.48,245.464852 256.47,281.554852 C231.55,299.194852 223.7,332.514852 215.7,360.234852 C209.36,382.214852 201.52,411.664852 201.608477,434.624852 C201.67,452.094852 204.45,462.824852 220.69,469.744852 C235.84,476.204852 251.8,476.874852 268.11,476.114852" id="Fill-269" fill="#004E79" fill-rule="nonzero"></path>
            <polyline id="Fill-270" fill="#F0AA93" fill-rule="nonzero" points="341.36 367.504852 340.53 460.304852 319.65 460.354852 305.37 367.574852 341.36 367.504852"></polyline>
            <path d="M314.29,477.284852 L409.27,477.144852 C407.97,465.714852 399.07,463.184852 399.07,463.184852 L370.82,454.674852 L345.29,439.484852 L335.67,444.134852 C335.67,444.134852 333.73,443.784852 335.68,448.504852 C335.68,448.504852 323.67,451.024852 317.94,448.504852 L314.29,478.374852" id="Fill-271" fill="#3C406F" fill-rule="nonzero"></path>
            <polyline id="Fill-272" fill="#2D2E53" fill-rule="nonzero" points="314.3 481.824852 409.28 481.694852 409.27 477.144852 314.29 477.284852 314.3 481.824852"></polyline>
            <path d="M378.83,457.104852 C375.48,456.944852 373.53,461.934852 373.08,464.584852 C373.35,464.454852 373.62,464.324852 373.89,464.184852 C373.7,464.194852 373.5,464.204852 373.31,464.234852 C373.63,464.354852 373.95,464.474852 374.27,464.584852 C374.21,464.354852 374.08,464.284852 373.89,464.094852 C373.73,463.944852 373.28,463.934852 373.12,464.094852 C372.95,464.274852 372.8,464.364852 372.75,464.584852 C372.71,464.824852 373.17,464.934852 373.31,464.944852 C373.5,464.964852 373.7,464.974852 373.89,464.984852 C374.17,464.984852 374.63,464.914852 374.7,464.584852 C374.98,463.154852 375.41,461.844852 376.1,460.564852 C376.68,459.474852 377.81,457.874852 379.06,457.514852 C379.53,457.384852 379.1,457.124852 378.83,457.104852" id="Fill-273" fill="#FFFFFE" fill-rule="nonzero"></path>
            <path d="M368.81,453.844852 C367.66,456.394852 364.54,458.624852 364.42,461.554852 C364.41,462.024852 365.6,461.974852 365.78,461.644852 C366.46,460.374852 366.96,459.064852 367.74,457.834852 C368.52,456.614852 369.34,455.374852 369.77,453.974852 C369.89,453.604852 368.94,453.564852 368.81,453.844852" id="Fill-274" fill="#FFFFFE" fill-rule="nonzero"></path>
            <path d="M362.02,450.394852 C359.57,452.714852 357.82,455.214852 356.97,458.514852 C357.55,458.474852 358.13,458.444852 358.71,458.404852 C358.59,458.134852 358.43,457.904852 358.22,457.704852 C358.06,457.514852 357.65,457.514852 357.49,457.704852 C357.28,457.904852 357.12,458.134852 357,458.404852 C356.71,458.924852 358.54,459.264852 358.74,458.514852 C359.52,455.654852 360.83,452.844852 362.8,450.614852 C363.08,450.294852 362.22,450.204852 362.02,450.394852" id="Fill-275" fill="#FFFFFE" fill-rule="nonzero"></path>
            <path d="M353.48,444.724852 C352.1,446.594852 350.56,448.764852 349.65,450.914852 C349.35,451.604852 349.42,452.354852 349.07,453.004852 C348.7,453.664852 349.03,453.844852 349.18,454.464852 C349.43,454.424852 349.69,454.394852 349.95,454.364852 C349.94,454.344852 349.93,454.334852 349.91,454.324852 C349.77,454.174852 349.23,454.174852 349.19,454.424852 C349.18,454.434852 349.18,454.454852 349.18,454.464852 C349.12,454.764852 349.87,454.654852 349.99,454.514852 C350.42,453.994852 350.61,453.884852 350.84,453.244852 C351.13,452.424852 351.3,451.484852 351.64,450.614852 C351.95,449.804852 352.49,449.084852 352.93,448.344852 C353.59,447.244852 353.99,446.014852 354.56,444.864852 C354.76,444.474852 353.67,444.454852 353.48,444.724852" id="Fill-276" fill="#FFFFFE" fill-rule="nonzero"></path>
            <path d="M426.98,420.004852 C426.98,420.004852 406.34,440.644852 375.3,429.204852 C363.79,424.964852 344.87,325.214852 330.05,258.534852 C330.13,151.694852 374.59,161.214852 374.59,161.214852 C374.59,161.214852 425.4,207.264852 426.98,420.004852" id="Fill-277" fill="#004E79" fill-rule="nonzero"></path>
            <path d="M421.34,388.724852 C421.34,388.724852 418.19,141.354852 355.54,125.494852 C312.67,114.644852 293.8,186.294852 293.8,186.294852 L272.67,324.824852 L249.12,281.354852 C249.12,281.354852 192.92,283.714852 119.99,281.814852 C91.33,325.634852 89.38,359.184852 94.78,403.744852 C96.48,417.894852 108.62,436.274852 117.6,446.614852 C134.27,465.794852 161.38,478.664852 186.36,481.754852 C219.13,485.804852 235.92,474.224852 257.28,451.434852 C257.28,451.434852 277.91,331.384852 290.1,323.364852 C313.99,307.634852 360.36,402.214852 421.34,388.724852" id="Fill-278" fill="#004E79" fill-rule="nonzero"></path>
            <path d="M138.1,310.974852 C135.56,317.424852 136.13,325.524852 134.95,332.344852 C133.53,340.464852 131.07,348.204852 127.69,355.714852 C124.5,362.794852 119.87,369.014852 113.64,373.684852 C110.3,376.174852 106.62,377.814852 102.6,378.894852 C100.95,379.334852 95,379.614852 95.39,382.274852 C95.46,382.774852 96.07,382.904852 96.49,382.984852 C99.48,383.534852 102.22,382.354852 105.09,381.784852 C109.11,380.984852 112.93,379.544852 116.56,377.664852 C124.01,373.794852 129.52,367.044852 133.52,359.814852 C137.59,352.484852 139.67,344.064852 141.08,335.854852 C142.34,328.464852 144.43,318.194852 141.64,310.974852 C141.27,310.024852 138.47,310.034852 138.1,310.974852" id="Fill-279" fill="#003E61" fill-rule="nonzero"></path>
            <path d="M310.86,153.174852 C295.73,193.784852 297.8,203.154852 290.74,232.494852 C286.78,248.944852 262.74,241.564852 252.64,255.224852 C243.18,268.004852 236.96,280.024852 230.1,293.994852 C223.56,307.314852 222.47,312.524852 206.41,314.674852 C191.06,316.734852 184.13,321.674852 168.98,319.784852 C153.4,317.844852 133.18,312.334852 118.06,307.784852 C94.15,300.604852 96.74,280.704852 99.7,261.984852 C108.72,204.864852 120.22,145.754852 166.56,106.024852 C181.9,92.8648517 201.39,83.7648517 221.52,81.3748517 C236.45,79.6148517 258.34,82.7048517 271.46,90.4148517 C273.63,91.6948517 278.89,131.764852 300.9,127.524852 L310.86,153.174852" id="Fill-280" fill="#00A3DA" fill-rule="nonzero"></path>
            <path d="M361.8,427.624852 C361.8,427.624852 336.66,447.204852 304.65,437.934852 L277.66,345.064852 L211.77,446.674852 C211.77,446.674852 137.15,445.084852 133.97,364.114852 L226.06,173.594852 C226.06,173.594852 265.57,108.824852 315.05,127.874852 C315.05,127.874852 344.43,134.754852 344.42,202.494852 C344.42,202.494852 356.51,340.824852 361.8,427.624852" id="Fill-281" fill="#004E79" fill-rule="nonzero"></path>
            <path d="M260.43,272.874852 C266.4,283.274852 267.75,295.364852 269.83,306.954852 C272.54,322.054852 276.3,337.044852 279.53,352.044852 C285.37,379.134852 291.73,406.744852 306.44,430.554852 C306.65,430.884852 307.89,430.844852 307.69,430.384852 C296.04,403.814852 288.57,376.574852 282.42,348.284852 C279.34,334.094852 275.8,319.914852 273.2,305.624852 C271.17,294.444852 269.06,282.114852 262.47,272.604852 C262.09,272.054852 260.04,272.194852 260.43,272.874852" id="Fill-282" fill="#003E61" fill-rule="nonzero"></path>
            <path d="M253.87,289.984852 C257.28,290.684852 260.77,292.564852 263.51,294.674852 C265,295.834852 266.17,297.274852 267.12,298.894852 C268.13,300.584852 267.97,301.434852 269.81,302.364852 C270.66,302.794852 272.16,302.824852 272.91,302.174852 C273.13,301.974852 273.35,301.784852 273.57,301.594852 C273.95,301.254852 274.04,300.934852 273.87,300.464852 C270.98,292.584852 262.2,288.604852 254.28,288.474852 C252.81,288.454852 252.14,289.624852 253.87,289.984852" id="Fill-283" fill="#003E61" fill-rule="nonzero"></path>
            <path d="M275.38,333.944852 C275.78,337.564852 274,340.914852 272.72,344.204852 C271.47,347.394852 270.88,350.874852 270.18,354.214852 C268.64,361.604852 267.77,369.114852 265.91,376.444852 C263.68,385.224852 262.16,394.174852 260.39,403.054852 C256.17,424.134852 251.63,445.384852 240.2,463.834852 C239.22,465.414852 243.72,465.354852 244.49,464.714852 C251.59,458.884852 254.66,448.124852 257.34,439.704852 C260.91,428.494852 263.43,416.944852 265.78,405.424852 C267.7,395.994852 269.24,386.494852 271.21,377.094852 C272.81,369.514852 273.81,361.864852 274.96,354.214852 C275.58,350.104852 276.11,346.114852 277.24,342.104852 C278,339.424852 278.09,336.474852 277.25,333.824852 C277.09,333.304852 275.31,333.344852 275.38,333.944852" id="Fill-284" fill="#003E61" fill-rule="nonzero"></path>
            <path d="M309.82,144.014852 C325.77,159.674852 329.74,184.224852 333.69,205.314852 C336.38,219.694852 338.22,234.234852 340.37,248.704852 C343.38,268.944852 346.43,289.184852 349.25,309.454852 C350.59,319.084852 351.76,328.744852 353.08,338.384852 C354.16,346.244852 354.65,354.344852 356.22,362.114852 C356.73,364.644852 357.4,367.084852 358.14,369.554852 C358.29,370.034852 359.66,369.954852 359.75,369.444852 C360.91,362.454852 360.17,355.694852 359.51,348.674852 C358.65,339.574852 357.57,330.514852 356.4,321.444852 C353.78,301.024852 351.03,280.594852 347.69,260.284852 C345,243.924852 342.11,227.594852 338.66,211.384852 C334.88,193.604852 330.15,175.374852 321.92,159.114852 C319.02,153.384852 315.19,148.224852 310.52,143.814852 C310.34,143.644852 309.56,143.754852 309.82,144.014852" id="Fill-285" fill="#003E61" fill-rule="nonzero"></path>
            <path d="M247.95,406.384852 C223.98,386.984852 195.55,355.774852 176.08,308.044852 C210.82,287.404852 230.92,309.024852 230.92,309.024852 C230.92,309.024852 234.45,323.844852 246.9,346.354852 C246.9,346.354852 251.34,358.004852 247.95,406.384852" id="Fill-286" fill="#F0AA93" fill-rule="nonzero"></path>
            <path d="M213.15,332.164852 C189.24,337.034852 178.22,322.324852 173.36,296.664852 C161.9,236.224852 173.43,199.364852 183.82,182.214852 C184.55,178.074852 210.67,155.884852 222.71,190.194852 C222.71,190.194852 233.81,202.444852 225.11,277.774852 C225.11,277.774852 224.69,288.084852 231.45,312.244852 C231.45,312.244852 241.64,326.354852 213.15,332.164852" id="Fill-287" fill="#F0AA93" fill-rule="nonzero"></path>
            <path d="M150.01,256.924852 C150.01,256.924852 208.69,271.034852 239.3,237.774852 L245.18,149.544852 C245.18,149.544852 245.93,114.444852 209.78,108.114852 C209.78,108.114852 170.04,105.584852 158.62,151.624852 L150.01,256.924852" id="Fill-288" fill="#00A3DA" fill-rule="nonzero"></path>
            <path d="M186.81,112.704852 C178.97,115.914852 172.4,123.164852 167.34,129.764852 C163.35,134.964852 159.19,141.584852 159.17,148.314852 C159.17,149.074852 161.06,148.984852 161.34,148.454852 C163.27,144.824852 163.78,140.604852 165.54,136.854852 C166.4,135.034852 167.66,133.444852 168.77,131.774852 C173.53,124.644852 180.17,117.364852 187.75,113.164852 C188.43,112.784852 187.14,112.574852 186.81,112.704852" id="Fill-289" fill="#0082BD" fill-rule="nonzero"></path>
            <path d="M244.71,151.844852 C243.6,180.894852 241.4,210.294852 236.87,239.014852 C236.67,240.284852 240.85,240.324852 240.67,239.014852 C240.55,238.134852 240.55,238.124852 240.15,237.324852 C239.87,236.774852 238.54,236.814852 238.16,237.194852 C237.48,237.874852 237.4,237.954852 236.94,238.774852 C238.18,238.854852 239.43,238.934852 240.67,239.014852 C243.74,226.754852 243.63,213.404852 244.21,200.844852 C244.97,184.514852 246.82,168.214852 246.41,151.844852 C246.39,151.254852 244.73,151.254852 244.71,151.844852" id="Fill-290" fill="#0082BD" fill-rule="nonzero"></path>
            <path d="M158.08,154.124852 C156.46,176.754852 152.46,199.054852 152.18,221.784852 C152.1,227.794852 144.19,265.084852 159.86,258.524852 C161.26,257.944852 159.31,257.184852 158.71,257.174852 C152.67,257.074852 154.7,241.204852 154.97,237.694852 C155.53,230.404852 156.34,223.354852 156.4,216.044852 C156.56,195.424852 161.27,174.734852 159.71,154.124852 C159.67,153.554852 158.12,153.554852 158.08,154.124852" id="Fill-291" fill="#0082BD" fill-rule="nonzero"></path>
            <path d="M374.6,125.444852 C357.4,130.964852 326.3,137.734852 311.53,129.314852 C293.63,119.104852 302.79,72.7548517 312.55,56.6048517 C324.75,36.3948517 355.19,25.0848517 377.96,22.2848517 C403.89,19.1048517 427.24,37.8948517 428.94,64.7148517 C430.64,91.5048517 397.17,118.214852 374.6,125.444852" id="Fill-292" fill="#ED9E86" fill-rule="nonzero"></path>
            <path d="M379.26,22.6448517 C384.2,22.1548517 389.03,22.4648517 393.62,23.4648517 L340.45,49.6248517 L319.21,56.9848517 L311.85,57.4348517 C312.25,56.7148517 312.65,56.0148517 313.05,55.3848517 C325.72,35.4748517 356.44,24.8948517 379.26,22.6448517" id="Fill-293" fill="#EA8A74" fill-rule="nonzero"></path>
            <path d="M346.76,23.6048517 C337.33,20.0748517 320.23,32.6948517 319.96,48.5448517 C325.02,50.1248517 334.61,45.6248517 339.55,43.8548517 C344.41,42.1148517 348.95,40.2248517 351.61,35.5548517 C352.42,34.1148517 353.71,26.2248517 346.76,23.6048517" id="Fill-294" fill="#ED9E86" fill-rule="nonzero"></path>
            <path d="M337.64,38.8748517 C336.65,39.3048517 335.69,39.9448517 334.61,40.1248517 C334.96,40.1748517 335.3,40.2148517 335.64,40.2648517 C334.63,39.8548517 333.55,39.2348517 334.13,38.0148517 C334.64,36.9748517 335.77,36.2248517 336.69,35.5948517 C337.76,34.8648517 338.94,34.3448517 340.05,33.6848517 C340.48,33.4248517 341.18,33.0348517 341.41,32.5548517 C341.61,32.1448517 340.74,32.1248517 340.55,32.1348517 C339.23,32.2348517 338,32.8548517 336.86,33.4948517 C335.27,34.3848517 333.57,35.4048517 332.39,36.8248517 C331.5,37.9048517 331.28,39.0948517 332.4,40.0948517 C334.6,42.0448517 336.62,40.5948517 338.74,39.4148517 C339.54,38.9748517 338.03,38.7048517 337.64,38.8748517" id="Fill-295" fill="#EA8A74" fill-rule="nonzero"></path>
            <path d="M342.35,35.1248517 C345.09,31.9348517 341.32,28.9648517 338.14,29.1748517 C334.14,29.4448517 329.4,32.5848517 329.03,36.8948517 C328.99,37.3448517 330.02,37.1848517 330.2,36.9748517 C331.81,34.9948517 333.06,32.7048517 335.3,31.3248517 C336.75,30.4248517 338.73,29.8048517 340.33,30.8348517 C341.47,31.5748517 341.72,33.8448517 341.1,34.9548517 C340.85,35.4148517 342.12,35.3948517 342.35,35.1248517" id="Fill-296" fill="#EA8A74" fill-rule="nonzero"></path>
            <path d="M418.75,31.0848517 C418.02,33.1548517 416.59,35.0348517 415.14,36.4148517 C412.23,40.8848517 398.88,55.6048517 396.95,58.1648517 C391.71,65.1048517 384.29,61.5748517 378.07,58.3148517 C376.1,57.2948517 374.15,56.2448517 372.17,55.2248517 C366.22,52.1548517 360.1,49.4648517 353.29,49.1148517 C348.79,48.8848517 337.37,51.3748517 335.03,45.7448517 C340.68,43.4948517 351.77,37.4948517 350.47,28.4448517 C350.5,27.2448517 348.99,23.7248517 341.53,22.8348517 C341.53,22.8348517 392.02,-12.7951483 418.75,31.0848517" id="Fill-297" fill="#A26C42" fill-rule="nonzero"></path>
            <path d="M394.56,60.7248517 L418.18,30.8048517 C430.32,34.6948517 436.89,61.0848517 436.89,61.0948517 C439.16,70.2148517 438.46,101.144852 413.65,118.584852 C413.65,118.584852 375.79,151.104852 345.04,132.624852 C371.69,128.154852 388.23,122.744852 401.37,107.194852 C397.05,101.534852 393.45,85.4048517 394.1,79.3748517 C394.82,72.7448517 394.54,64.4348517 396.64,58.0948517" id="Fill-298" fill="#A26C42" fill-rule="nonzero"></path>
            <path d="M350.74,93.5748517 C348.46,94.3148517 345.2,90.5748517 343.44,85.2148517 C341.68,79.8548517 342.09,74.9048517 344.36,74.1548517 C346.63,73.4148517 349.9,77.1548517 351.66,82.5148517 C353.42,87.8748517 353,92.8248517 350.74,93.5748517" id="Fill-299" fill="#EA9387" fill-rule="nonzero"></path>
            <path d="M362.41,129.124852 C360.14,129.864852 357.15,126.974852 355.73,122.654852 C354.31,118.344852 355,114.234852 357.28,113.484852 C359.55,112.744852 362.53,115.634852 363.95,119.954852 C365.37,124.274852 364.68,128.374852 362.41,129.124852" id="Fill-300" fill="#EA9387" fill-rule="nonzero"></path>
            <path d="M369.62,100.404852 C367.58,99.8048517 365.62,100.894852 363.95,102.024852 C361.24,103.874852 359.78,106.264852 358.24,109.094852 C357.36,110.714852 356.16,112.834852 353.97,112.234852 C352.65,111.884852 351.53,110.794852 350.57,109.874852 C348.82,108.194852 347.43,106.104852 346.26,103.994852 C346.16,104.184852 346.06,104.374852 345.95,104.564852 C346.04,104.524852 346.12,104.484852 346.2,104.434852 C347.22,103.894852 345.57,103.524852 345.15,103.554852 C347.42,103.374852 345.35,103.534852 344.78,103.584852 C344.49,103.604852 343.69,103.854852 343.94,104.304852 C346.14,108.164852 349.94,113.114852 354.77,113.304852 C357.33,113.414852 358.79,111.314852 359.85,109.314852 C360.68,107.744852 361.44,106.174852 362.52,104.754852 C363.75,103.134852 367.04,100.384852 369.28,100.794852 C369.57,100.844852 370.13,100.544852 369.62,100.404852" id="Fill-301" fill="#EA8A74" fill-rule="nonzero"></path>
            <path d="M362.67,71.4148517 C365.55,73.6448517 367.88,76.3248517 368.8,79.9048517 C369.67,83.2648517 368.27,86.2148517 367.81,89.4648517 C367.67,90.4148517 370.18,90.2548517 370.54,89.6448517 C374.85,82.5148517 370.44,74.7048517 364.17,70.8548517 C363.77,70.6148517 362.01,70.9048517 362.67,71.4148517" id="Fill-302" fill="#A26C42" fill-rule="nonzero"></path>
            <path d="M382.63,121.244852 C384.4,115.094852 381.8,108.354852 375.79,105.534852 C375.28,105.304852 372.65,105.394852 373.6,106.364852 C375.7,108.514852 377.98,109.894852 379.49,112.644852 C380.88,115.164852 381.05,118.314852 380.76,121.114852 C380.7,121.714852 382.48,121.764852 382.63,121.244852" id="Fill-303" fill="#A26C42" fill-rule="nonzero"></path>
            <path d="M358.48,78.6048517 C358.48,78.6048517 357.26,83.7548517 361.33,87.2748517 M369.59,112.414852 C369.59,112.414852 368.35,117.564852 372.43,121.084852" id="Stroke-304" stroke="#6C4634" stroke-width="2.177" stroke-linecap="round" stroke-linejoin="round"></path>
            <path d="M335.11,105.424852 C335.32,108.304852 336.49,111.114852 337.1,113.924852 C337.47,115.604852 337.34,117.274852 337.03,118.944852 C336.92,119.504852 336.75,120.074852 336.58,120.614852 C336.33,121.444852 335.93,121.314852 336.81,121.544852 C336.57,121.484852 335.96,121.434852 335.82,121.744852 C335.79,121.814852 335.76,121.884852 335.74,121.954852 C335.67,122.094852 335.71,122.234852 335.84,122.334852 C335.87,122.354852 335.9,122.374852 335.93,122.404852 C336.47,122.814852 337.4,122.784852 337.95,122.404852 C339.61,121.244852 339.6,117.174852 339.51,115.514852 C339.31,111.814852 337.17,108.774852 336.13,105.354852 C336.04,105.074852 335.09,105.094852 335.11,105.424852" id="Fill-305" fill="#EA8A74" fill-rule="nonzero"></path>
            <path d="M278.27,154.334852 C287.91,150.874852 280.39,129.994852 301.77,96.0648517 C312.32,79.3348517 328.26,66.1248517 346.03,57.4248517 C354.72,53.1648517 363.2,50.1148517 373,50.0848517 C385.22,50.0348517 392.23,52.5248517 401.66,42.8748517 C402.07,41.7248517 405.95,33.6348517 406.36,29.4448517 C409.54,-3.24514834 356.59,-2.31514834 327.48,2.45485166 C308.18,5.61485166 281.32,19.3548517 265.57,31.0348517 C254.89,38.9448517 240.16,47.4348517 233.81,65.9548517 C233.81,65.9548517 220.58,116.234852 278.27,154.334852" id="Fill-306" fill="#A26C42" fill-rule="nonzero"></path>
        </g>
    </g>
</svg>