<?xml version="1.0" encoding="UTF-8"?>
<svg width="962px" height="822px" viewBox="0 0 962 822" version="1.1" xmlns="http://www.w3.org/2000/svg" xmlns:xlink="http://www.w3.org/1999/xlink">
    <title>Group 2</title>
    <g id="Page-1" stroke="none" stroke-width="1" fill="none" fill-rule="evenodd">
        <g id="Group-2" transform="translate(0.860598, 0.500000)" fill-rule="nonzero">
            <g id="Group" transform="translate(352.371225, 0.000000)">
                <g transform="translate(0.000000, 257.522064)" id="Path">
                    <g transform="translate(0.000000, -0.000000)">
                        <path d="M111.268177,73.9779356 C109.468177,66.8779356 103.568177,64.1779356 98.4681766,59.7779356 C94.7681766,56.5779356 91.5681766,53.4779356 92.6681766,48.5779356 C94.9681766,37.8779356 94.3681766,26.2779356 85.8681766,18.0779356 C76.4681766,9.07793556 62.2681766,4.87793556 49.5681766,7.87793556 C42.7681766,9.47793556 37.1681766,14.7779356 31.4681766,18.5779356 C27.8681766,20.9779356 21.5681766,24.4779356 20.6681766,28.7779356 C19.1681766,35.7779356 18.6681766,41.7779356 21.3681766,48.7779356 C22.6681766,52.1779356 24.8681766,55.5779356 25.9681766,59.0779356 C25.9681766,59.1779356 26.0681766,59.3779356 26.0681766,59.4779356 C26.0681766,60.1779356 26.2681766,61.1779356 26.5681766,62.1779356 C26.7681766,64.5779356 26.5681766,67.0779356 26.4681766,69.3779356 C26.3681766,72.3779356 25.5681766,77.0779356 26.3681766,79.8779356 C27.4681766,83.4779356 29.8681766,81.4779356 31.8681766,79.2779356 C31.9681766,79.1779356 31.9681766,79.1779356 32.0681766,79.0779356 C34.0681766,84.2779356 37.1681766,88.3779356 40.9681766,93.5779356 C43.1681766,96.6779356 46.0681766,100.577936 50.2681766,100.877936 C54.5681766,101.177936 58.8681766,97.6779356 61.9681766,95.2779356 C64.9681766,92.8779356 67.8681766,90.1779356 72.1681766,90.8779356 C77.7681766,91.6779356 83.9681766,95.7779356 88.6681766,98.2779356 C88.3681766,98.0779356 88.6681766,98.1779356 88.3681766,98.0779356 C92.6681766,99.0779356 97.6681766,97.3779356 101.268177,95.0779356 C106.568177,91.4779356 112.868177,80.3779356 111.268177,73.9779356 Z" fill="#F9A01B"></path>
                        <path d="M96.1681766,36.4779356 C95.4681766,29.2779356 94.6681766,22.1779356 91.0681766,15.6779356 C89.5681766,12.9779356 87.1681766,8.77793556 83.6681766,8.77793556 C80.8681766,-9.02206444 49.6681766,5.27793556 39.6681766,8.17793556 C33.0681766,10.0779356 12.3681766,11.6779356 12.3681766,11.6779356 C7.46817656,12.8779356 2.46817656,15.3779356 0.86817656,20.4779356 C-2.03182344,29.5779356 2.56817656,38.4779356 11.1681766,42.4779356 C14.1681766,43.8779356 16.6681766,44.3779356 19.8681766,43.8779356 C19.7681766,39.9779356 21.4681766,35.8779356 24.6681766,33.5779356 C30.6681766,29.2779356 29.2681766,37.2779356 28.1681766,40.9779356 C26.7681766,45.7779356 30.7681766,49.2779356 32.7681766,53.9779356 C34.8681766,59.0779356 37.0681766,64.3779356 35.7681766,70.0779356 C35.0681766,73.0779356 34.5681766,73.1779356 36.0681766,76.0779356 C37.7681766,79.5779356 39.7681766,82.6779356 41.0681766,86.3779356 C38.7681766,84.0779356 35.1681766,82.3779356 32.3681766,80.8779356 C33.9681766,83.4779356 34.7681766,85.3779356 37.1681766,87.3779356 C38.4681766,88.4779356 38.6681766,88.2779356 39.1681766,89.6779356 C39.8681766,91.6779356 39.1681766,95.1779356 39.1681766,97.3779356 C39.1681766,100.977936 39.1681766,104.877936 40.8681766,108.177936 C46.1681766,118.477936 60.1681766,111.677936 64.0681766,103.977936 C66.0681766,100.177936 68.6681766,95.4779356 68.5681766,91.1779356 C59.9681766,95.9779356 55.8681766,78.6779356 53.5681766,74.1779356 C51.4681766,70.0779356 49.1681766,66.1779356 46.8681766,62.2779356 C45.3681766,59.7779356 42.8681766,56.4779356 42.4681766,53.4779356 C41.9681766,49.9779356 43.8681766,48.4779356 47.0681766,50.6779356 C50.1681766,52.8779356 50.4681766,56.5779356 50.9681766,59.8779356 C51.4681766,62.9779356 54.7681766,70.4779356 59.1681766,69.3779356 C60.3681766,69.0779356 61.0681766,67.2779356 61.8681766,66.4779356 C64.3681766,64.1779356 68.0681766,63.1779356 71.0681766,61.5779356 C75.8681766,59.0779356 80.4681766,56.4779356 85.7681766,54.8779356 C88.6681766,53.9779356 92.7681766,54.0779356 94.8681766,51.5779356 C97.9681766,47.9779356 96.5681766,40.7779356 96.1681766,36.4779356 Z" fill="#514E2B"></path>
                    </g>
                    <path d="M137.368177,322.077936 C144.668177,334.877936 148.268177,346.877936 152.368177,360.877936 C155.168177,370.477936 161.468177,378.577936 165.068177,387.777936 C169.168177,398.477936 167.468177,413.177936 172.168177,423.277936 C174.068177,427.377936 178.168177,429.677936 180.068177,433.677936 C183.368177,440.377936 179.068177,442.277936 187.868177,446.977936 C186.968177,446.677936 185.968177,446.277936 185.068177,445.877936 C201.568177,445.877936 227.268177,440.677936 218.368177,418.677936 C217.068177,415.377936 212.968177,413.177936 211.768177,410.077936 C209.068177,403.577936 210.968177,395.077936 209.468177,387.777936 C204.568177,363.977936 196.768177,342.977936 196.068177,318.177936 C183.568177,314.877936 160.368177,307.577936 147.568177,311.677936 C145.268177,312.377936 141.968177,314.977936 140.468177,316.477936 C137.468177,319.177936 135.168177,321.777936 137.368177,322.077936 Z" fill="#514E2B"></path>
                    <path d="M53.5681766,242.177936 C65.3681766,246.877936 76.4681766,259.877936 85.0681766,268.977936 C89.9681766,274.177936 95.3681766,279.277936 99.8681766,284.877936 C102.768177,288.477936 109.468177,294.777936 110.768177,299.077936 C112.268177,303.877936 105.168177,306.577936 101.068177,308.477936 C94.1681766,311.577936 90.5681766,304.077936 84.8681766,300.477936 C76.1681766,294.977936 67.2681766,289.977936 58.7681766,284.177936 C51.5681766,279.277936 42.9681766,275.677936 39.2681766,267.177936 C36.0681766,259.977936 41.6681766,233.777936 53.5681766,242.177936 Z" fill="#F9A01B"></path>
                    <path d="M107.568177,417.577936 C105.768177,413.677936 101.468177,411.377936 99.5681766,406.377936 C96.5681766,398.577936 96.6681766,389.377936 95.5681766,381.177936 C94.2681766,371.077936 84.8681766,345.577936 87.8681766,335.577936 C90.8681766,325.177936 107.068177,332.977936 116.268177,333.577936 C130.768177,334.477936 147.868177,335.977936 165.068177,336.977936 C182.768177,332.777936 201.568177,336.177936 219.368177,332.177936 C233.868177,328.877936 246.968177,319.577936 253.268177,306.477936 C254.168177,298.477936 252.968177,288.977936 250.068177,277.977936 C245.468177,260.577936 241.968177,238.977936 231.468177,223.877936 C220.568177,208.277936 192.468177,214.377936 176.168177,218.977936 C163.268177,222.577936 151.268177,226.277936 141.068177,234.977936 C137.568177,237.977936 127.468177,263.777936 126.868177,275.577936 C93.7681766,278.277936 58.8681766,254.777936 30.1681766,279.877936 C11.0681766,296.477936 22.0681766,316.977936 29.9681766,336.677936 C38.5681766,358.177936 44.1681766,380.777936 51.7681766,402.577936 C56.2681766,415.377936 60.3681766,430.977936 61.1681766,444.277936 C61.4681766,449.177936 59.2681766,454.877936 61.1681766,459.877936 C63.1681766,465.277936 70.5681766,468.177936 73.2681766,473.277936 C74.6681766,475.977936 74.2681766,482.677936 76.2681766,484.177936 C82.2681766,488.677936 86.8681766,481.577936 90.5681766,478.877936 C96.4681766,474.677936 101.768177,469.577936 109.168177,467.477936 C116.668177,465.377936 120.368177,468.977936 123.168177,460.377936 C126.068177,451.777936 119.368177,447.677936 115.968177,441.877936 C111.268177,433.677936 110.968177,424.877936 107.568177,417.577936 Z" fill="#737144"></path>
                    <path d="M161.068177,234.177936 C153.768177,236.777936 146.568177,239.877936 139.668177,243.577936 C136.668177,245.177936 136.068177,249.477936 137.768177,252.177936 C138.968177,253.977936 140.668177,254.877936 142.568177,254.977936 C142.968177,255.277936 143.568177,255.477936 144.168177,255.477936 C147.268177,255.377936 149.768177,253.477936 152.468177,252.177936 C155.668177,250.677936 158.868177,249.177936 162.168177,247.877936 C163.168177,247.477936 164.168177,247.177936 165.168177,246.777936 C163.868177,242.577936 162.468177,238.377936 161.068177,234.177936 Z" fill="#35331D"></path>
                    <path d="M226.768177,220.877936 C212.068177,220.577936 197.568177,221.477936 183.168177,224.977936 C177.868177,226.277936 172.668177,227.877936 167.568177,229.777936 C169.368177,233.477936 170.768177,237.477936 172.068177,241.277936 C172.168177,241.677936 172.368177,241.977936 172.468177,242.377936 C176.468177,241.177936 180.568177,240.477936 184.868177,239.677936 C199.168177,237.077936 213.368177,234.177936 227.568177,231.277936 C234.268177,229.977936 233.568177,221.077936 226.768177,220.877936 Z" fill="#35331D"></path>
                    <path d="M152.168177,244.777936 C154.768177,242.177936 157.768177,239.877936 160.668177,237.877936 C173.568177,228.777936 189.268177,222.377936 204.868177,219.777936 C212.268177,218.577936 224.468177,217.577936 232.168177,222.077936 C233.268177,191.977936 192.368177,123.577936 188.068177,118.777936 C178.068177,107.477936 169.268177,95.4779356 159.268177,84.0779356 C152.268177,76.1779356 130.868177,63.4779356 126.468177,62.9779356 C122.868177,54.8779356 103.568177,50.4779356 96.2681766,52.0779356 C83.4681766,54.7779356 72.6681766,63.1779356 65.4681766,74.0779356 C63.0681766,77.7779356 60.5681766,80.6779356 61.5681766,85.4779356 C61.8681766,86.7779356 62.7681766,87.2779356 63.5681766,87.8779356 C18.1681766,89.8779356 42.3681766,138.977936 35.4681766,166.077936 C33.0681766,175.677936 36.7681766,188.377936 32.8681766,197.477936 C30.0681766,203.877936 25.4681766,229.077936 22.5681766,235.477936 C15.2681766,251.577936 31.3681766,270.777936 47.4681766,272.077936 C73.0681766,274.177936 77.6681766,203.277936 80.5681766,185.077936 C90.0681766,197.377936 104.368177,207.577936 109.568177,222.177936 C113.668177,233.677936 115.068177,264.077936 135.568177,259.877936 C141.368177,258.577936 146.368177,248.877936 152.168177,244.777936 Z" fill="#FFF197"></path>
                    <g transform="translate(85.568177, 460.606473)">
                        <path d="M40.1,8.77146214 C32.6,3.67146214 30,-1.62853786 20.1,0.471462137 C14.7,1.57146214 2.1,6.77146214 0.1,13.0714621 C0.1,13.0714621 0.1,13.0714621 0.1,13.1714621 C0,14.0714621 0,15.0714621 0,15.9714621 C0.5,19.4714621 0.8,23.1714621 1.1,26.9714621 C1.6,29.6714621 2.1,32.4714621 2.7,35.1714621 C4.2,42.2714621 5,49.0714621 4.9,56.2714621 C4.6,71.3714621 3.4,87.3714621 9.4,101.571462 C19.4,107.071462 28.3,98.1714621 32.9,87.2714621 C37.2,76.9714621 37.6,62.2714621 39.6,51.3714621 C45.6,51.5714621 49.1,30.5714621 50.2,24.9714621 C52,14.6714621 47.6,13.8714621 40.1,8.77146214 Z" fill="#514E2B"></path>
                        <path d="M46.6,13.0714621 C38,12.0714621 33.1,21.4714621 30.7,28.9714621 C29.1,33.8714621 28.3,39.0714621 27.2,44.0714621 C27,45.1714621 26.7,46.2714621 26.4,47.3714621 C30.6,48.4714621 34.8,49.7714621 38.9,50.7714621 C39.4,50.8714621 39.9,51.0714621 40.4,51.1714621 C45.9,49.3714621 49,30.2714621 50,24.8714621 C51.3,18.1714621 49.8,15.5714621 46.6,13.0714621 Z" fill="#CFA85E"></path>
                        <path d="M25,51.4714621 C24.2,53.7714621 23.2,55.9714621 22.1,58.1714621 C18.8,64.6714621 13.3,74.0714621 10.6,83.3714621 C10.4,84.4714621 10.2,85.5714621 10.1,86.5714621 C10,87.1714621 9.8,87.6714621 9.5,87.9714621 C9.2,89.5714621 9,91.2714621 8.9,92.7714621 C9.8,96.1714621 11.1,99.5714621 12.5,102.771462 C21.2,105.071462 28.8,96.9714621 32.9,87.1714621 C36.7,78.0714621 37.4,65.4714621 38.9,55.0714621 C34.2,53.9714621 29.6,52.6714621 25,51.4714621 Z" fill="#CFA85E"></path>
                    </g>
                    <g transform="translate(188.168177, 430.506473)">
                        <path d="M40.1,8.77146214 C32.6,3.67146214 30,-1.62853786 20.1,0.471462137 C14.7,1.57146214 2.1,6.77146214 0.1,13.0714621 C0.1,13.0714621 0.1,13.0714621 0.1,13.1714621 C-1.13686838e-13,14.0714621 -1.13686838e-13,15.0714621 -1.13686838e-13,15.9714621 C0.5,19.4714621 0.8,23.1714621 1.1,26.9714621 C1.6,29.6714621 2.1,32.4714621 2.7,35.1714621 C4.2,42.2714621 5,49.0714621 4.9,56.2714621 C4.6,71.3714621 3.4,87.3714621 9.4,101.571462 C19.4,107.071462 28.3,98.1714621 32.9,87.2714621 C37.2,76.9714621 37.6,62.2714621 39.6,51.3714621 C45.6,51.5714621 49.1,30.5714621 50.2,24.9714621 C51.9,14.7714621 47.5,13.8714621 40.1,8.77146214 Z" fill="#35331D"></path>
                        <g transform="translate(8.800000, 12.997918)" fill="#AA962E">
                            <path d="M37.7,0.0735440569 C29.1,-0.926455943 24.2,8.47354406 21.8,15.9735441 C20.2,20.8735441 19.4,26.0735441 18.3,31.0735441 C18.1,32.1735441 17.8,33.2735441 17.5,34.3735441 C21.7,35.4735441 25.9,36.7735441 30,37.7735441 C30.5,37.8735441 31,38.0735441 31.5,38.1735441 C37,36.3735441 40.1,17.2735441 41.1,11.8735441 C42.4,5.27354406 41,2.57354406 37.7,0.0735440569 Z"></path>
                            <path d="M13.2,45.2735441 C9.9,51.7735441 4.4,61.1735441 1.7,70.4735441 C1.5,71.5735441 1.3,72.6735441 1.2,73.6735441 C1.1,74.2735441 0.9,74.7735441 0.6,75.0735441 C0.3,76.6735441 0.1,78.3735441 1.13686838e-13,79.8735441 C0.9,83.2735441 2.2,86.6735441 3.6,89.8735441 C12.3,92.1735441 19.9,84.0735441 24,74.2735441 C27.8,65.1735441 28.5,52.5735441 30,42.1735441 C25.4,40.9735441 20.8,39.6735441 16.2,38.4735441 C15.3,40.7735441 14.4,42.9735441 13.2,45.2735441 Z"></path>
                        </g>
                    </g>
                </g>
                <ellipse id="Oval" fill="#2C2A18" transform="translate(156.171077, 391.976000) rotate(-30.000728) translate(-156.171077, -391.976000) " cx="156.171077" cy="391.976" rx="30.5993268" ry="54.1988076"></ellipse>
                <path d="M182.668177,376.7 C167.668177,350.8 143.668177,336.6 129.068177,345 C127.068177,346.1 125.368177,347.6 123.968177,349.4 C138.568177,341.1 162.468177,355.3 177.468177,381.2 C190.468177,403.7 192.368177,427.6 183.168177,439.1 C183.168177,439.1 183.268177,439.1 183.268177,439 C197.868177,430.5 197.668177,402.6 182.668177,376.7 Z" id="Path" fill="#CFA85E"></path>
                <ellipse id="Oval" fill="#2C2A18" transform="translate(75.355177, 280.293100) rotate(-30.000728) translate(-75.355177, -280.293100) " cx="75.3551766" cy="280.2931" rx="12.6997206" ry="22.499505"></ellipse>
                <path d="M86.3681766,274 C80.1681766,263.3 70.2681766,257.4 64.1681766,260.9 C63.3681766,261.4 62.6681766,262 62.0681766,262.7 C68.1681766,259.3 78.0681766,265.1 84.1681766,275.9 C89.5681766,285.2 90.3681766,295.1 86.5681766,299.9 C86.5681766,299.9 86.5681766,299.9 86.6681766,299.9 C92.6681766,296.2 92.5681766,284.7 86.3681766,274 Z" id="Path" fill="#CFA85E"></path>
                <path d="M151.568177,1.2 L151.568177,414.5 C152.568177,416.5 153.868177,418.3 155.768177,419.3 C157.568177,420.2 158.768177,419.4 159.568177,418.2 L159.568177,0.3 C156.968177,0.6 154.268177,0.9 151.568177,1.2 Z" id="Path" fill="#FFFFFF"></path>
                <path d="M72.5681766,0 L72.5681766,282.5 C73.5681766,283.8 74.5681766,285.2 75.6681766,286.5 C76.4681766,287.4 77.6681766,288.9 78.8681766,289.1 C79.8681766,289.2 80.2681766,288.4 80.5681766,287.5 L80.5681766,1.9 C77.8681766,1.4 75.1681766,0.7 72.5681766,0 Z" id="Path" fill="#FFFFFF"></path>
            </g>
            <path d="M570.039402,429.9 C588.739402,430.3 607.539402,430.9 626.239402,431.7 C644.939402,432.6 663.739402,433.6 682.439402,435 C719.839402,437.7 757.239402,441.5 794.439402,446.7 C813.039402,449.4 831.539402,452.5 850.039402,456.2 C868.439402,460 886.839402,464.3 904.839402,470.1 C913.839402,473 922.739402,476.3 931.439402,480.4 C935.739402,482.5 940.039402,484.7 944.139402,487.4 C948.239402,490.1 952.139402,493.2 955.439402,497.2 C957.039402,499.2 958.539402,501.6 959.439402,504.2 C960.439402,506.8 960.839402,509.8 960.439402,512.7 C960.039402,515.6 958.939402,518.2 957.639402,520.5 C956.939402,521.6 956.139402,522.8 955.339402,523.7 C954.539402,524.7 953.639402,525.7 952.739402,526.6 C949.139402,530.2 945.039402,533 940.939402,535.6 C936.739402,538.1 932.439402,540.3 928.139402,542.3 C919.439402,546.3 910.439402,549.5 901.439402,552.4 C892.439402,555.3 883.339402,557.8 874.139402,560.1 C855.839402,564.7 837.339402,568.4 818.839402,571.6 C781.739402,578 744.439402,582.6 707.039402,586.2 C688.339402,588 669.639402,589.5 650.839402,590.7 C632.139402,591.9 613.339402,593 594.539402,593.8 C557.039402,595.4 519.439402,596.2 481.939402,596.3 C444.339402,596.3 406.839402,595.5 369.339402,594 C331.839402,592.4 294.339402,590.1 256.939402,586.6 C219.539402,583.1 182.139402,578.6 145.039402,572.3 C126.539402,569.1 108.039402,565.5 89.6394018,561 C80.4394018,558.7 71.3394018,556.3 62.3394018,553.5 C53.3394018,550.7 44.3394018,547.5 35.5394018,543.8 C31.1394018,541.9 26.8394018,539.8 22.6394018,537.5 C18.4394018,535.1 14.2394018,532.5 10.4394018,529.2 C9.53940184,528.3 8.53940184,527.6 7.63940184,526.6 L6.33940184,525.2 C5.93940184,524.7 5.53940184,524.2 5.13940184,523.7 C4.23940184,522.7 3.63940184,521.5 2.83940184,520.4 C2.23940184,519.2 1.53940184,518 1.13940184,516.6 C0.239401842,514 -0.260598158,511 0.139401842,508.2 C0.539401842,505.3 1.63940184,502.7 3.03940184,500.4 C4.43940184,498.1 6.13940184,496.1 7.93940184,494.3 C8.83940184,493.4 9.83940184,492.6 10.7394018,491.7 C11.7394018,490.9 12.6394018,490.1 13.6394018,489.4 C17.6394018,486.5 21.8394018,484.1 26.1394018,481.9 C34.7394018,477.6 43.6394018,474.2 52.5394018,471.2 C61.5394018,468.2 70.6394018,465.6 79.7394018,463.3 C88.8394018,461 98.0394018,458.9 107.239402,457 C125.639402,453.2 144.239402,450.1 162.839402,447.4 C200.039402,442.1 237.439402,438.4 274.839402,435.7 C293.539402,434.4 312.239402,433.3 331.039402,432.4 C349.739402,431.6 368.539402,431 387.239402,430.6 C368.539402,431.5 349.839402,432.5 331.139402,433.8 C312.439402,435 293.739402,436.5 275.139402,438.2 C237.839402,441.6 200.539402,445.9 163.639402,451.8 C145.139402,454.8 126.739402,458.1 108.539402,462.1 C99.4394018,464.1 90.3394018,466.3 81.3394018,468.7 C72.3394018,471.1 63.4394018,473.8 54.6394018,476.8 C45.8394018,479.9 37.2394018,483.3 29.1394018,487.5 C25.1394018,489.6 21.1394018,491.9 17.6394018,494.6 C16.7394018,495.2 15.9394018,496 15.0394018,496.7 C14.2394018,497.4 13.3394018,498.1 12.6394018,498.9 C11.1394018,500.4 9.83940184,502.1 8.73940184,503.8 C7.73940184,505.5 7.03940184,507.3 6.83940184,509.1 C6.63940184,510.9 6.93940184,512.7 7.53940184,514.5 C7.83940184,515.4 8.33940184,516.2 8.73940184,517.1 C9.33940184,517.9 9.83940184,518.8 10.5394018,519.6 C10.8394018,520 11.1394018,520.4 11.5394018,520.8 L12.6394018,521.9 C13.3394018,522.7 14.2394018,523.3 15.0394018,524.1 C18.3394018,526.9 22.2394018,529.3 26.1394018,531.5 C30.1394018,533.7 34.2394018,535.6 38.5394018,537.4 C47.0394018,541 55.8394018,544 64.6394018,546.6 C73.5394018,549.3 82.5394018,551.6 91.6394018,553.8 C109.739402,558.1 128.139402,561.6 146.539402,564.6 C183.439402,570.7 220.639402,574.9 257.839402,578.2 C332.339402,584.8 407.239402,587.4 482.139402,587.4 C557.039402,587.4 631.939402,584.6 706.439402,577.9 C743.739402,574.5 780.839402,570.2 817.739402,564 C836.139402,560.9 854.439402,557.3 872.539402,552.9 C881.539402,550.7 890.539402,548.3 899.439402,545.5 C908.239402,542.7 917.039402,539.7 925.439402,535.9 C929.639402,534 933.739402,532 937.639402,529.7 C941.539402,527.4 945.239402,524.8 948.239402,521.8 C948.939402,521 949.739402,520.3 950.339402,519.5 C951.039402,518.7 951.539402,517.9 952.139402,517 C953.139402,515.3 953.839402,513.5 954.139402,511.7 C954.439402,509.9 954.239402,508.1 953.539402,506.3 C952.939402,504.5 951.839402,502.8 950.639402,501.2 C948.039402,498 944.539402,495.1 940.839402,492.6 C937.139402,490.1 933.139402,487.9 928.939402,485.9 C920.739402,481.9 912.039402,478.6 903.239402,475.6 C885.639402,469.7 867.539402,465.1 849.239402,461.1 C830.939402,457.1 812.539402,453.8 794.039402,450.9 C757.039402,445 719.839402,440.7 682.539402,437.3 C663.839402,435.6 645.239402,434.1 626.539402,432.9 C607.439402,431.8 588.739402,430.8 570.039402,429.9 Z" id="Path" fill="#F9DA61"></path>
            <path d="M577.639402,439.8 C606.639402,440.7 635.639402,442.1 664.639402,444.2 C693.639402,446.3 722.539402,448.9 751.339402,452.8 C765.739402,454.7 780.139402,457 794.339402,459.8 C801.439402,461.2 808.539402,462.8 815.639402,464.6 C822.739402,466.4 829.739402,468.5 836.539402,471.1 C839.939402,472.4 843.339402,473.9 846.639402,475.7 C849.839402,477.6 853.139402,479.6 855.439402,482.9 C856.639402,484.5 857.539402,486.6 857.339402,488.8 C857.239402,491 856.239402,493 854.939402,494.5 C852.439402,497.6 849.139402,499.6 845.939402,501.4 C839.439402,504.9 832.439402,507.4 825.439402,509.6 C818.439402,511.7 811.339402,513.6 804.239402,515.2 C775.839402,521.6 746.939402,525.6 718.039402,528.8 C689.139402,532 660.139402,534.3 631.139402,536.1 C573.139402,539.6 515.039402,541 456.939402,540.9 C398.839402,540.6 340.739402,538.7 282.739402,534.5 C253.739402,532.4 224.839402,529.7 195.939402,525.9 C181.539402,524 167.139402,521.8 152.839402,519.1 C145.639402,517.7 138.539402,516.3 131.439402,514.6 C124.339402,512.9 117.239402,511 110.339402,508.8 C103.439402,506.5 96.4394018,503.9 90.0394018,500 C88.4394018,499 86.9394018,497.9 85.5394018,496.5 C84.1394018,495.2 82.8394018,493.6 82.0394018,491.6 C81.8394018,491.1 81.7394018,490.6 81.6394018,490 C81.5394018,489.5 81.5394018,488.9 81.5394018,488.4 C81.6394018,487.3 81.8394018,486.2 82.2394018,485.2 C83.0394018,483.2 84.4394018,481.7 85.8394018,480.4 C87.2394018,479.1 88.8394018,478 90.4394018,477 C92.0394018,476 93.6394018,475.1 95.3394018,474.3 C98.6394018,472.7 102.039402,471.3 105.539402,470.1 C112.439402,467.7 119.439402,465.7 126.539402,463.9 C140.739402,460.4 155.039402,457.8 169.339402,455.5 C183.739402,453.2 198.139402,451.4 212.539402,449.7 C241.439402,446.5 270.439402,444.2 299.339402,442.5 C313.839402,441.6 328.339402,440.9 342.839402,440.4 C357.339402,439.8 371.839402,439.4 386.339402,439.1 C328.339402,441.3 270.339402,444.7 212.639402,451.7 C198.239402,453.4 183.839402,455.4 169.539402,457.7 C155.239402,460.1 140.939402,462.7 126.939402,466.3 C119.939402,468.1 112.939402,470.1 106.239402,472.5 C102.839402,473.7 99.5394018,475.1 96.3394018,476.7 C94.7394018,477.5 93.1394018,478.3 91.7394018,479.3 C90.2394018,480.2 88.8394018,481.3 87.6394018,482.4 C86.4394018,483.6 85.3394018,484.9 84.8394018,486.3 C84.2394018,487.7 84.2394018,489.2 84.7394018,490.6 C85.2394018,492 86.3394018,493.3 87.5394018,494.4 C88.7394018,495.6 90.1394018,496.6 91.6394018,497.5 C97.6394018,501.2 104.439402,503.7 111.239402,505.9 C118.139402,508.1 125.139402,509.9 132.139402,511.5 C139.139402,513.1 146.239402,514.5 153.439402,515.8 C167.639402,518.4 182.039402,520.5 196.439402,522.4 C225.239402,526.1 254.139402,528.8 283.039402,530.8 C340.939402,534.9 398.939402,536.6 456.939402,536.9 C514.939402,537.2 573.039402,535.9 630.939402,532.5 C659.939402,530.8 688.839402,528.5 717.639402,525.4 C732.039402,523.8 746.439402,522 760.739402,519.9 C775.039402,517.8 789.339402,515.4 803.439402,512.2 C810.539402,510.6 817.539402,508.9 824.439402,506.8 C831.339402,504.7 838.139402,502.3 844.439402,499 C847.539402,497.3 850.539402,495.4 852.639402,492.8 C853.639402,491.5 854.339402,490.1 854.439402,488.6 C854.539402,487.1 853.939402,485.7 853.039402,484.4 C851.139402,481.7 848.139402,479.7 845.139402,478 C842.039402,476.3 838.739402,474.8 835.439402,473.5 C828.739402,470.9 821.839402,468.8 814.839402,467 C807.839402,465.1 800.739402,463.6 793.739402,462.1 C779.539402,459.2 765.239402,456.9 750.839402,454.8 C722.139402,450.7 693.239402,447.7 664.339402,445.3 C649.839402,444.1 635.439402,443.1 620.939402,442.2 C606.639402,441.3 592.139402,440.5 577.639402,439.8 Z" id="Path" fill="#FFEC5F"></path>
        </g>
    </g>
</svg>