<?xml version="1.0" encoding="UTF-8"?>
<svg width="801px" height="840px" viewBox="0 0 801 840" version="1.1" xmlns="http://www.w3.org/2000/svg" xmlns:xlink="http://www.w3.org/1999/xlink">
    <title>Group 2</title>
    <g id="Page-1" stroke="none" stroke-width="1" fill="none" fill-rule="evenodd">
        <g id="Group-2" transform="translate(0.662781, 0.000000)">
            <rect id="Rectangle" stroke="#979797" fill="#D8D8D8" opacity="0" x="0.5" y="20.3382922" width="799" height="799"></rect>
            <g id="7" transform="translate(64.337219, 0.000000)" fill-rule="nonzero">
                <g transform="translate(85.000000, 28.000000)">
                    <g id="Group" transform="translate(0.000000, 0.000000)">
                        <path d="M495.24349,715.458222 C485.783538,703.998588 471.21383,699.097178 456.851274,697.578431 C449.11759,696.750024 441.314855,696.853575 433.546646,697.129711 C424.880777,697.440363 416.249434,697.889084 407.61809,698.268771 C376.925032,699.614933 346.231975,700.961094 315.538915,702.341773 L299.657243,701.444332 C283.119589,700.512374 266.61646,699.407831 250.078805,698.95911 C233.989981,698.51039 217.79758,698.717491 201.777807,700.581408 C193.871496,701.478849 185.999711,702.825011 178.231502,704.688927 C170.912122,706.449293 163.31654,708.41676 156.584092,711.83394 C145.77765,717.322138 132.830634,728.367569 135.350987,741.967255 C136.732002,749.31937 142.428688,754.393365 148.677781,757.845062 C155.755483,761.745479 163.282014,764.886524 170.981173,767.371745 C186.414015,772.342189 202.537365,774.827411 218.626189,776.518743 C235.543623,778.313625 252.564632,779.487202 269.551117,780.41916 C304.111016,782.24856 338.739967,782.490178 373.299868,781.144017 C390.838758,780.453677 408.377648,779.383651 425.847488,777.899421 C434.409781,777.174565 442.972073,776.346158 451.499841,775.4142 C458.681119,774.654826 465.931447,773.964487 472.974624,772.514774 C485.714487,769.856967 498.937705,763.609396 503.426004,750.423913 C507.569049,738.308456 503.08075,724.950389 495.24349,715.458222 Z" id="Path" fill="#E4ECEF"></path>
                        <g>
                            <g id="Path">
                                <path d="M469.901865,123.181525 C462.996791,119.419176 455.194056,117.65881 447.391321,118.34915 C450.671232,103.679437 446.942491,87.9396987 438.414724,75.6171403 C428.782145,61.7758351 413.418353,52.9394907 396.984275,49.7294125 C392.84123,48.9010052 388.594609,48.4177676 384.347988,48.2796997 C382.207415,48.2106658 380.066841,48.2106658 377.926268,48.3142167 C375.889271,48.4177676 373.403444,49.0045561 371.366447,48.5213185 C369.087772,47.93453 368.43179,45.5183421 367.499605,43.6199087 C366.636471,41.8250263 365.66976,40.0991777 364.599474,38.4078462 C362.527951,35.094217 360.111175,31.9186557 357.452721,29.0537471 C346.646279,17.4215281 331.455113,9.96586251 315.538915,9.13745522 C298.03455,8.20549702 280.323033,15.177925 268.032,27.6385514 C260.678095,13.9353141 246.83342,3.92539269 231.573205,0.922416274 C215.139127,-2.32217894 198.290744,3.16601935 186.241388,14.6601705 C180.648278,19.9757839 176.263555,26.4994913 173.467,33.6790212 C163.592743,20.0103009 147.987274,10.9323377 131.207942,8.82680248 C113.013069,6.54868244 94.8527226,13.4865935 82.0438087,26.4304574 C75.6911399,32.8506139 70.7540113,40.6514493 67.8193545,49.1771409 C62.606023,45.0005875 55.7699989,43.1366711 49.0720763,43.5163578 C40.5443088,43.9650784 32.8106251,47.93453 26.3889055,53.4227283 C14.2014484,63.7778194 4.91412268,79.6901428 4.43076744,95.9131189 C4.18908982,103.782988 6.5022899,111.445756 11.7156214,117.279124 C0.149621022,133.398549 -3.06123879,154.764553 3.01522709,173.645336 C9.22979447,192.97484 25.2495681,207.471967 44.5837776,213.13275 C53.6639511,215.790557 63.2620051,216.44638 72.5493308,214.858599 C72.4457547,214.996667 72.3421786,215.169252 72.2731278,215.376353 C66.6454918,229.942515 67.2669485,246.476144 73.5160413,260.76617 C79.5925072,274.641992 91.2620837,285.273218 105.210335,290.934002 C112.598765,293.936978 120.574126,295.386691 128.549488,295.214106 C131.898449,306.67374 141.116724,315.475568 151.957692,320.066325 C165.008283,325.58904 179.612517,324.484497 192.628583,319.410502 C199.913437,316.580111 206.714935,312.679693 213.033079,308.088936 C221.526321,325.968727 242.897528,335.39186 262.162686,331.871129 C267.030764,330.973687 271.69169,329.178805 275.86926,326.520998 C281.255218,339.361311 289.921087,351.028048 301.901392,358.380163 C313.916223,365.732278 328.93476,367.699745 342.261555,362.798335 C348.890428,360.382147 354.656166,356.412696 359.075414,351.028048 C371.573599,357.172069 385.936155,349.440268 395.741361,341.294261 C405.995398,332.803087 416.732789,320.376977 413.038574,306.052435 C411.899237,301.599745 409.41341,297.526743 405.788245,294.834419 C423.948592,289.070085 442.108939,281.338284 455.850038,267.842148 C469.107782,254.863768 476.461686,236.397188 473.734182,217.827058 C472.491268,209.439435 468.96968,201.535048 463.134892,195.425545 C477.152194,190.834787 487.993162,177.787373 490.409938,163.255728 C493.241018,146.791133 484.367997,131.051395 469.901865,123.181525 Z" fill="#F7BBBA"></path>
                                <path d="M277.940783,209.957189 C266.064054,195.805231 247.454877,188.625701 229.225479,188.487633 C210.132947,188.349566 192.076177,196.322986 177.610045,208.472959 C170.532343,214.409878 164.352301,221.347789 159.035393,228.907006 C153.649435,218.448364 145.018091,209.750087 134.487852,204.36544 C121.920616,197.945283 107.247332,196.668155 93.6788599,200.60309 C85.945176,202.846693 78.7984235,206.712594 72.6874323,211.924656 C71.6516711,212.787581 71.7897726,214.547946 72.6874323,215.445387 C73.6886682,216.44638 75.1732592,216.308312 76.2090205,215.445387 C86.0487522,207.023247 99.133869,202.777659 112.011834,203.329931 C124.371918,203.882202 136.110545,209.301367 144.914515,217.930609 C149.713542,222.659434 153.718486,228.354734 156.273363,234.533272 C157.067447,236.466222 159.587799,237.053011 160.830713,235.12006 C170.601394,219.932594 184.273442,206.98873 200.845622,199.533064 C216.796345,192.353534 234.956692,191.387059 251.39077,197.427529 C260.263791,200.672124 268.308203,206.125805 274.45372,213.443403 C275.316854,214.478912 277.077648,214.340844 277.975308,213.443403 C278.942018,212.476928 278.803917,210.992698 277.940783,209.957189 Z" fill="#F3999B"></path>
                                <path d="M383.105074,162.807008 C380.481146,147.723091 370.296161,134.019854 357.521772,125.839332 C345.610518,118.211082 329.763369,115.104554 316.850879,122.21505 C305.699183,128.359071 297.689297,141.268418 299.898921,154.212282 C300.140598,155.696512 300.589428,157.180741 301.141834,158.595937 C301.625189,159.838548 302.799052,160.701472 304.214592,160.321786 C305.388455,160.011133 306.458742,158.526903 305.940861,157.249775 C303.869339,151.934162 304.111016,146.618548 306.148013,141.302935 C308.081434,136.332491 311.810175,131.6727 316.194897,128.497139 C321.132026,124.941891 326.794187,123.181525 332.905178,123.147009 C339.430474,123.112492 345.852196,125.010925 351.548882,128.082935 C363.701814,134.606643 373.50702,146.307896 377.270286,159.631446 C379.100131,166.120637 379.341809,172.92048 377.477438,179.444187 C375.889271,184.966903 372.885564,190.00638 369.053247,194.286485 C360.836208,203.398965 349.511885,209.439435 338.049459,213.443403 C336.599393,213.961158 335.149328,214.409878 333.664737,214.858599 C332.698026,215.169252 331.765841,216.170244 331.834892,217.24027 C333.250432,234.809408 322.651142,251.066901 308.11596,260.282932 C300.34775,265.218859 291.54378,268.118284 282.325505,268.774107 C272.244096,269.498963 262.162686,267.876665 252.633683,264.597553 C241.75819,260.835203 231.573205,254.898285 222.631133,247.649721 C221.215593,246.510661 219.005969,246.821313 218.488088,248.754264 C215.657007,258.764185 208.855509,267.427945 199.947962,272.778075 C190.591586,278.369824 179.301788,279.715986 168.806074,276.885595 C162.902235,275.297814 157.378175,272.467422 152.751775,268.428937 C151.750539,267.531496 150.231423,267.427945 149.230187,268.428937 C148.332527,269.326378 148.228951,271.052227 149.230187,271.949668 C158.517513,280.026639 171.015698,284.168675 183.272206,283.167683 C195.11441,282.201208 206.197055,276.402357 213.896213,267.358911 C217.383276,263.251391 220.179831,258.5916 222.078727,253.552123 C238.305653,265.909198 258.261319,274.400373 278.872968,273.951652 C288.988902,273.710033 298.863159,271.259329 307.701655,266.323402 C316.02227,261.663611 323.238074,255.070869 328.520456,247.131966 C334.00999,238.88241 337.186325,229.010557 336.806546,219.069669 C348.924954,215.169252 360.836208,209.26685 370.019958,200.361471 C374.749934,195.770714 378.58225,190.35155 380.999027,184.242046 C383.830107,177.442203 384.347988,169.986537 383.105074,162.807008 Z" fill="#F3999B"></path>
                                <path d="M312.397106,63.7778194 C306.665894,63.2255479 300.623953,64.4681588 295.134419,66.0214225 C289.196055,67.7127541 283.430317,70.2324929 278.18246,73.4770881 C273.694161,76.2384457 269.516591,79.5175579 265.822376,83.2799077 C263.198448,72.0618923 252.426531,63.7778194 241.205784,61.7413182 C234.059032,60.4641903 227.015855,61.6032503 220.663187,65.0894643 C214.06884,68.6792292 208.751932,74.3745293 205.057717,80.8637198 C202.433789,85.4889938 200.534893,90.4939545 199.430081,95.7060171 C193.215514,85.6615787 181.30426,79.414007 169.496582,78.8962525 C161.762898,78.5510828 154.06374,80.8637198 147.849172,85.4889938 C141.254826,90.3558866 136.455799,97.1212128 133.555667,104.749463 C131.553195,110.065077 130.55196,115.794894 130.690061,121.524711 C123.267106,113.585808 112.63329,108.235677 101.792323,109.443771 C98.2707347,109.823458 94.9217733,110.858967 91.9525912,112.550299 C91.8835404,112.446748 91.7799643,112.343197 91.6763882,112.239646 C83.8046028,105.198184 72.0659756,103.64492 62.4333961,107.75244 C60.6035513,108.511813 58.911808,109.512805 57.3236407,110.651865 C53.9401541,106.130142 48.6577718,103.127166 43.0991865,102.05714 C35.8143325,100.641944 28.4949533,102.402309 22.0387083,105.854006 C18.2409172,107.890508 14.7883797,110.513797 11.5775199,113.344189 C10.5762841,114.24163 10.6798602,115.967479 11.5775199,116.86492 C12.5787558,117.865912 14.0978722,117.762361 15.0991081,116.86492 C20.0017113,112.515782 25.6638726,108.822466 32.0510669,107.234685 C37.6787028,105.819489 43.5480164,106.440795 48.4506195,109.271186 C51.1090734,110.82445 53.1460704,112.860951 54.5961362,115.587792 C55.3902198,117.037505 57.3926915,117.141056 58.4975035,116.105547 C66.3347634,108.787949 79.765134,108.54633 87.878597,115.518758 C87.1190388,116.209097 86.4285313,116.933954 85.7380238,117.727844 C81.974758,122.21505 79.6960833,127.772283 79.2472534,133.605651 C78.7638982,139.887739 81.0080475,146.411447 85.9797014,150.415415 C87.0154626,151.243822 88.4655284,151.450924 89.5012896,150.415415 C90.3644239,149.552491 90.5370508,147.757608 89.5012896,146.894684 C87.5678686,145.34142 86.3940059,143.857191 85.3582447,141.579071 C85.3582447,141.544554 85.3237193,141.47552 85.2891939,141.406486 C85.2546685,141.302935 85.2201432,141.199384 85.1856178,141.095833 C85.116567,140.854214 85.0129909,140.612596 84.9439402,140.370977 C84.7713133,139.784188 84.5986864,139.1974 84.4951103,138.610611 C84.2534327,137.471551 84.1843819,136.815729 84.1843819,135.469567 C84.1153312,130.740742 85.7034984,126.149985 88.5691045,122.180533 C89.7429672,120.558236 91.7109135,118.590768 93.3681315,117.486225 C95.6468062,115.967479 97.7183287,115.173588 100.445833,114.655834 C106.280621,113.516774 112.391613,114.93197 117.570419,117.693327 C123.784986,120.972439 128.929267,126.046434 132.347279,132.190455 C133.728294,134.675677 137.629661,132.984345 136.904628,130.292021 C133.244939,116.588784 137.767763,100.849046 148.505154,91.3913958 C153.61491,86.8696726 160.140205,84.1773489 166.769077,83.9357301 C173.467,83.6941114 180.130397,85.5235108 185.827084,89.1132757 C192.076177,93.0136934 196.771628,98.9851292 198.359795,106.233693 C198.981251,109.029568 203.158822,108.304711 203.227873,105.577871 C203.573126,92.5994897 209.304338,78.7236676 220.317933,71.268002 C225.56579,67.6782371 231.400578,65.8833546 237.684196,66.4011092 C243.208256,66.8498298 249.112095,69.2315008 253.427767,72.8212657 C258.433946,77.0323361 261.644806,82.7276362 261.472179,89.1823096 C261.437654,91.2188109 264.30326,92.6340067 265.7188,90.9426751 C272.865552,82.3824665 282.29098,75.7897251 292.855744,72.0964093 C301.935918,68.920848 312.776885,66.8153128 321.511805,71.6476887 C323.376175,72.6831978 325.136969,74.0638766 326.138205,75.6861742 C326.725136,76.6181324 326.863238,76.9978191 327.104916,78.1368791 C327.104916,78.2059131 327.139441,78.274947 327.139441,78.309464 C327.139441,78.3439809 327.139441,78.4130149 327.139441,78.5165658 C327.139441,78.7927016 327.173966,79.0343203 327.173966,79.3104561 C327.173966,80.0353125 327.139441,80.1043464 326.932289,80.8637198 C326.17273,83.9702471 330.971757,85.281892 331.731316,82.1753647 C334.45882,70.6466965 321.649906,64.6407437 312.397106,63.7778194 Z" fill="#F3999B"></path>
                                <path d="M247.28225,145.34142 C241.447462,138.334475 232.05656,133.260481 222.734709,134.226956 C218.315461,134.675677 214.345043,136.332491 211.065132,139.335468 C208.165001,141.993274 205.989902,145.548522 204.988667,149.345389 C203.849329,153.729044 204.298159,158.457869 206.749461,162.32377 C207.474494,163.46283 208.959085,163.911551 210.167473,163.221211 C211.30681,162.565389 211.790165,160.943091 211.065132,159.804031 C210.823455,159.424344 210.616303,159.079175 210.40915,158.699488 C210.3401,158.56142 210.271049,158.388835 210.201998,158.250767 C210.167473,158.21625 210.167473,158.181733 210.132947,158.147217 C210.132947,158.1127 210.132947,158.1127 210.098422,158.043666 C209.787694,157.249775 209.580541,156.455885 209.44244,155.627478 C209.44244,155.592961 209.44244,155.558444 209.407915,155.523927 C209.407915,155.48941 209.407915,155.454893 209.407915,155.420376 C209.407915,155.247791 209.373389,155.075206 209.373389,154.937138 C209.338864,154.522935 209.338864,154.108731 209.338864,153.694527 C209.338864,153.314841 209.373389,152.935154 209.407915,152.555467 C209.407915,152.486433 209.407915,152.451916 209.407915,152.451916 C209.407915,152.417399 209.407915,152.382882 209.407915,152.348365 C209.44244,152.106747 209.476965,151.830611 209.546016,151.588992 C210.201998,148.516982 211.652064,145.824658 213.792637,143.615572 C215.035551,142.338444 215.967736,141.613588 217.555903,140.78518 C218.936918,140.060324 220.628661,139.508052 222.458506,139.266434 C225.980094,138.783196 229.812411,139.473536 233.264948,140.923248 C237.304417,142.649097 240.929581,145.479488 243.760662,148.896668 C244.623796,149.932178 246.38459,149.79411 247.28225,148.896668 C248.283486,147.826642 248.145384,146.37693 247.28225,145.34142 Z" fill="#F3999B"></path>
                                <path d="M403.751248,296.387683 C403.405994,295.179589 401.955929,294.178597 400.67849,294.661834 C400.436812,294.765385 400.195135,294.834419 399.918932,294.903453 C399.849881,294.93797 399.435576,294.972487 399.435576,295.007004 C398.88317,295.076038 398.296239,295.041521 397.743833,295.007004 C396.56997,294.903453 395.396108,294.696351 394.222245,294.592801 C391.563791,294.316665 388.801761,294.834419 387.075492,297.078022 C386.143307,298.286116 385.729003,299.770346 385.383749,301.254576 C385.245648,301.841364 385.107546,302.393636 384.934919,302.945907 C384.865868,303.222043 384.762292,303.463662 384.658716,303.705281 C384.55514,304.015933 384.624191,303.843349 384.417039,304.223035 C383.415803,306.397604 382.310991,307.847317 380.584722,309.435098 C379.03108,310.850294 377.201235,312.023871 375.129713,313.024863 C373.299868,313.887787 370.848566,314.64716 368.604417,315.026847 C366.601945,315.372017 364.081593,315.441051 361.768393,315.233949 C358.799211,314.957813 355.899079,314.232957 353.067999,313.300998 C346.542703,311.126429 340.535286,307.640215 334.596922,304.223035 C333.112331,303.360111 330.661029,304.430137 330.868181,306.363087 C331.282486,310.367056 330.453877,313.991338 328.485931,317.408518 C326.517984,320.825698 323.583327,323.725124 320.268891,325.830659 C312.431631,330.766585 302.833577,330.732069 294.029607,328.177813 C288.471022,326.555515 283.292216,324.001259 278.355087,321.0328 C275.593057,319.375985 273.10723,323.65609 275.834735,325.312904 C285.294687,331.042721 296.308282,335.49541 307.598079,334.839588 C317.403285,334.252799 326.690611,329.35139 332.111095,321.0328 C334.148092,317.926272 335.460056,314.336508 335.874361,310.677709 C345.334315,316.027839 355.760978,321.205385 366.774572,320.23891 C376.683355,319.375985 387.110018,313.715202 389.941098,303.567213 C390.286352,302.393636 390.320878,300.805855 391.218537,299.873897 C391.218537,299.873897 391.287588,299.804863 391.356639,299.770346 C391.42569,299.735829 391.563791,299.666795 391.598316,299.632278 C391.632842,299.632278 391.632842,299.632278 391.701893,299.597761 C391.874519,299.563244 392.012621,299.528727 392.185248,299.49421 C392.185248,299.49421 392.219773,299.49421 392.219773,299.49421 C392.357875,299.49421 392.495976,299.459693 392.668603,299.459693 C392.979331,299.459693 393.29006,299.459693 393.600788,299.49421 C396.431869,299.666795 399.297475,300.529719 402.059505,299.459693 C403.267893,298.941939 404.131027,297.768362 403.751248,296.387683 Z" fill="#F3999B"></path>
                                <path d="M361.215987,349.681887 C355.035945,348.577344 349.649987,344.884026 346.473652,339.430345 C344.885483,336.668987 340.569812,339.154209 342.192504,341.950084 C345.921246,348.404759 352.515593,353.133584 359.904023,354.479746 C361.215987,354.721364 362.597002,354.134576 362.976781,352.753897 C363.28751,351.545803 362.562477,349.923505 361.215987,349.681887 Z" fill="#F3999B"></path>
                                <path d="M451.568892,123.871865 C450.740283,120.799855 445.941256,122.076982 446.769865,125.18351 C450.360504,138.576094 445.596002,153.556459 435.514593,163.152177 C432.683512,165.844501 429.541703,167.984553 425.916539,169.675885 C424.742676,170.228156 424.362897,172.023039 425.018879,173.093065 C429.300025,179.789357 430.508413,188.107947 428.402365,195.736197 C426.365368,203.122829 421.221088,209.128782 414.523165,212.649513 C410.898001,214.547946 406.824007,215.687006 402.784538,215.825074 C401.438048,215.859591 400.298711,216.929617 400.298711,218.310296 C400.298711,219.621941 401.438048,220.864552 402.784538,220.795518 C411.484932,220.450348 419.909123,216.584447 425.812962,210.198808 C431.993004,203.537033 435.031237,194.390035 434.202628,185.346589 C433.788324,180.997451 432.614461,176.717347 430.577464,172.851446 C443.524479,165.74095 451.87962,151.485441 452.811805,136.850246 C453.122533,132.501107 452.673704,128.082935 451.568892,123.871865 Z" fill="#F3999B"></path>
                            </g>
                            <path d="M51.4198017,61.0509788 C50.9364465,57.8063836 48.3470434,55.5627805 45.1016582,55.2866447 C42.1670014,55.0450259 39.4049715,56.3911878 36.781043,57.5647648 C31.9474908,59.7048169 27.1484637,62.5006915 23.6268756,66.5046601 C20.6576934,69.8528062 17.8266127,74.9268009 19.0350008,79.3449731 C18.9314246,80.2769313 18.8968993,81.1743725 19.0004754,82.1063307 C19.3457291,85.1438241 21.2100994,88.0432496 24.5245353,88.2503514 C27.2865652,88.4229363 30.221222,86.7316047 32.6034729,85.4544768 C37.2643983,82.969255 41.5455447,79.5175579 44.9290314,75.4790724 C48.1398912,71.5786547 52.2138853,66.3665922 51.4198017,61.0509788 Z M39.1287685,67.2985504 C39.0597177,66.9533807 38.9561416,66.608211 38.7835147,66.2630413 C38.7835147,66.2630413 38.8180401,66.2285243 38.8180401,66.2285243 C39.6811745,65.9523886 40.3026312,65.434634 40.6824103,64.8133285 C40.7859864,64.7442946 40.9240879,64.6752607 41.0276641,64.6062267 C40.4062073,65.5036679 39.7847506,66.4011092 39.1287685,67.2985504 Z" id="Shape" fill="#F7D1D0"></path>
                            <path d="M34.1571147,160.528887 C34.1225893,157.905598 33.811861,155.282308 33.259455,152.728052 C32.983252,146.411447 31.049831,140.198392 27.4591921,134.882778 C26.2162786,133.053379 22.8327919,132.397557 21.6934546,134.744711 C20.7612695,134.951812 19.9326605,135.504084 19.4838306,136.332491 C15.5824633,143.373953 15.2026842,151.968679 18.0682903,159.35531 C18.2754425,160.356303 18.5516455,161.322778 18.8278485,162.289253 C19.3457291,164.636407 20.0362366,166.949044 20.9684217,169.192647 C22.0732337,171.919488 24.1447562,174.335676 27.355616,174.094057 C30.497425,173.852438 32.4653714,171.09108 33.3285057,168.329723 C34.088064,165.913535 34.1916401,163.048626 34.1571147,160.528887 Z" id="Path" fill="#F7D1D0"></path>
                            <path d="M130.482909,25.4294652 C129.6543,24.6355749 128.618539,24.1523373 127.513727,23.9452355 C127.306574,23.8762016 127.099422,23.8416846 126.89227,23.8416846 C125.752933,23.6690998 124.544544,23.7036167 123.405207,23.7726507 C122.921852,23.8071676 122.403971,23.8416846 121.920616,23.8762016 C121.644413,23.6690998 121.299159,23.5310319 120.91938,23.4619979 C115.464371,22.5645567 110.492717,24.497507 106.107995,27.7075853 C102.241153,30.5379769 96.1992122,34.7490473 96.9587704,40.2717626 C97.3385495,42.9986032 99.3755466,45.1041384 102.034,45.7254439 C104.381726,46.2777154 106.798502,45.7944779 109.008126,45.0696215 C114.083356,43.4128069 118.985959,41.1001699 123.474258,38.2352613 C125.683882,36.7855486 127.997082,35.2668019 129.930503,33.4719193 C132.209178,31.2973502 132.899685,27.7766192 130.482909,25.4294652 Z" id="Path" fill="#F7D1D0"></path>
                        </g>
                        <g transform="translate(40.797650, 288.474498)" fill="#F4BAAB">
                            <circle id="Oval" transform="translate(23.818406, 80.131454) rotate(-17.818889) translate(-23.818406, -80.131454) " cx="23.8184057" cy="80.131454" r="1"></circle>
                            <path d="M408.83782,384.217196 C407.663957,377.244768 406.455569,370.306857 405.143605,363.368946 C402.588727,349.596675 399.792172,335.85892 396.753939,322.155683 C390.642948,294.680175 383.599771,267.446285 375.555359,240.454014 C375.037478,238.762683 374.554123,237.071351 374.036243,235.38002 C371.930195,224.231038 369.616995,213.151091 367.131168,202.071143 C365.197747,193.510934 363.16075,184.985243 361.020176,176.494068 C359.017705,168.520648 357.015233,160.512711 354.011525,152.815426 C351.076869,145.290727 347.210027,138.318299 341.927643,132.139761 C336.852413,126.202842 330.775947,121.232398 324.492329,116.641641 C317.103899,111.256994 309.370215,106.355584 301.774633,101.316107 C293.281391,95.6898403 284.822674,90.0635742 276.329432,84.437308 C275.397247,83.8160025 274.154334,83.8505195 273.153098,84.3337571 C262.588333,75.9116163 250.987807,68.8011204 239.007503,62.4845148 C231.895275,58.722165 224.610422,55.235951 217.256517,51.9223219 C208.763275,48.0564212 200.200982,44.2940714 191.500588,40.9804422 C174.099799,34.3531838 155.387046,29.7624268 136.708819,32.6963692 C121.345027,35.1125573 106.326489,42.7408077 97.2463157,55.6846716 C96.4522321,56.7892147 95.7617246,57.9282747 95.0712171,59.1018517 C91.7567812,58.0663426 88.511396,56.8237317 85.3695869,55.304985 C85.1624347,55.201434 84.9552824,55.1324001 84.7481302,55.0633662 C84.6790795,53.1304158 84.3683511,51.2319825 83.9195212,49.402583 C83.6433182,48.229006 83.2635391,47.089946 82.8147092,45.9854029 C82.3658794,38.8403901 79.5693241,31.764411 75.3917538,26.0691109 C68.314052,16.4043592 57.7838129,10.2258215 46.9773707,5.60054748 C40.6247018,2.87370681 33.7541525,-0.370888413 26.7455015,0.561069788 C25.5716388,-0.198303561 23.9834715,-0.301854472 22.6715073,0.975273433 C11.8650652,11.6065003 7.1005635,27.7604425 10.6221517,42.5337059 C14.0401637,56.9963165 24.8811313,68.6975695 38.6912809,73.875115 C45.7689826,76.5329218 53.8479202,78.3278042 61.4435026,78.2932872 C66.3806311,78.2587703 71.2487089,77.1887442 75.2881776,74.6690054 C75.4953299,74.8761072 75.7024821,75.083209 75.9441598,75.2903108 C77.4632762,95.4827385 76.1858374,115.847751 72.0427925,135.660492 C69.97127,145.60138 67.2092401,155.369682 63.791228,164.930883 C62.0994847,169.625191 60.2696398,174.284982 58.2326427,178.841222 C56.6099501,182.465504 54.7801053,186.124303 52.0871261,188.88566 C50.9132634,190.093754 49.5667738,191.129263 48.3238603,191.50895 C46.8392692,191.957671 45.5618304,192.026705 44.0081885,191.370882 C40.6247018,189.92117 38.518654,185.779133 36.861436,182.534538 C32.8219674,174.561118 30.6123434,165.690256 29.6801583,156.853912 C27.8848388,140.182215 29.749209,123.441485 30.6468688,106.769788 C30.7504449,106.700754 30.854021,106.666237 30.9575971,106.597203 C36.4126062,102.938404 40.4175496,97.8298925 42.7307497,91.6858718 C43.2486303,90.3051929 42.3854959,88.5793444 41.1771078,87.889005 C39.7960929,87.0605977 38.2769764,87.4748014 37.1031137,88.4067596 C35.100642,89.9945402 33.0981704,91.5823208 31.0956986,93.1701015 C31.0956986,90.6503626 31.0956986,88.1306238 30.9921225,85.610885 C30.8194956,80.9856109 30.8194956,74.7035223 25.0882835,73.5989793 C19.9094774,72.5634702 16.0771608,76.256786 14.3508921,80.7439921 C13.4877577,82.9875952 13.0389279,85.4037831 12.4865219,87.7164202 C11.8650652,90.4087439 11.209083,93.0665506 10.6221517,95.7588743 C8.17085011,106.390101 5.92670078,117.090362 4.02780519,127.859657 C2.23248572,138.145714 0.609793123,148.535322 0.126437882,158.993964 C-0.736696474,178.081849 2.64679021,198.032658 15.628331,212.771404 C26.8145522,225.473649 44.6296453,233.343518 61.3744518,227.717252 C78.4645121,221.952918 89.340005,205.798976 97.0046381,190.404407 C106.084812,172.14493 111.712448,152.332189 113.680394,132.03621 C113.887546,129.896158 114.060173,127.756106 114.163749,125.581537 C114.405427,125.719605 114.647104,125.857672 114.923307,125.926706 C145.202061,136.59245 175.446288,147.396262 205.621466,158.338142 C213.078946,161.030465 220.501902,163.757306 227.924857,166.44963 C231.066666,167.58869 234.450153,168.520648 237.281234,170.350047 C239.69801,171.903311 240.492094,174.388533 240.630195,177.14989 C240.837347,180.91224 240.561144,184.709107 240.457568,188.43694 C240.353992,192.337357 240.215891,196.203258 240.077789,200.103676 C239.767061,207.869994 239.387282,215.636312 238.938452,223.402631 C237.143132,254.778557 234.139425,286.119966 229.927329,317.254273 C225.715233,348.388581 220.29475,379.350303 213.734929,410.070407 C212.940845,413.832757 212.181287,417.595106 211.249102,421.288422 C210.524069,424.118814 209.315681,427.294375 207.727513,429.158291 C205.103585,432.161268 201.340319,434.025184 197.74968,435.405863 C189.567167,438.546907 179.347656,440.169205 173.754545,447.624871 C172.442581,449.350719 171.544921,451.318186 171.027041,453.389205 C170.543685,455.322155 172.028276,457.876411 174.272426,457.669309 C185.044343,456.6338 195.781734,455.598291 206.553651,454.562782 C212.043185,454.045027 217.53272,453.492756 223.022254,452.975001 C227.993908,452.491763 233.138189,452.319179 238.075317,451.38722 C242.977921,450.455262 246.56856,447.555837 248.363879,442.896046 C250.055622,438.51239 250.608028,433.541947 251.540213,428.916673 C253.715312,418.319963 255.890411,407.723253 258.065509,397.126543 C266.731378,354.981322 275.397247,312.836101 284.097641,270.69088 L297.010131,208.008062 C309.78452,241.247905 322.144604,274.694849 333.986807,308.279861 C340.201375,325.848999 346.277842,343.452654 352.250731,361.090826 C355.254439,369.961687 358.223621,378.867065 361.158278,387.772444 C362.573818,392.121582 364.023884,396.47072 365.439424,400.819859 C366.854965,405.099963 368.512183,409.552652 368.166929,414.143409 C367.579998,422.358448 360.087991,428.571503 355.668743,434.922625 C350.869716,441.82602 347.589806,451.628839 352.63051,459.291607 C353.597221,460.775836 355.634218,461.53521 357.256911,460.4997 C368.201454,453.423722 378.490016,445.277717 387.880918,436.165236 C392.472792,431.712547 396.926566,427.087273 400.931509,422.116829 C404.936453,417.111869 408.458041,411.589153 409.700954,405.203514 C410.978393,398.231086 409.977157,391.155107 408.83782,384.217196 Z" id="Path"></path>
                        </g>
                        <path d="M458.508492,688.465951 C457.058426,682.218379 454.676175,676.143393 452.259399,670.275508 C451.534366,668.480625 448.599709,667.755769 447.115118,668.894829 C439.105231,674.900782 431.095345,680.941252 423.050932,686.947204 C421.221088,688.327883 419.356717,689.708562 417.423296,690.951173 C415.593452,692.12475 413.625505,693.091225 411.933762,694.40287 C408.96458,696.68099 407.549039,700.201721 407.963344,703.722452 C407.790717,703.998588 407.652616,704.309241 407.549039,704.688927 C405.339415,712.489763 399.815356,718.633783 395.499684,725.226525 C390.907809,732.23347 386.488561,741.898221 389.008913,750.527464 C389.768472,753.08172 391.770943,754.842085 394.394872,754.80902 C396.604496,754.773051 398.848645,753.599474 400.713015,752.460414 C404.303654,750.285845 407.272836,747.144801 410.207493,744.107307 C416.594687,737.411015 423.085458,730.818274 429.645279,724.294566 C437.10276,716.907935 444.629291,709.659371 452.293924,702.514358 C452.501077,702.307256 452.673704,702.100154 452.811805,701.858536 C454.538074,700.512374 456.160766,699.028144 457.369154,697.129711 C459.060898,694.471904 459.198999,691.434411 458.508492,688.465951 Z" id="Path" fill="#6B2F24"></path>
                        <path d="M291.164001,715.044018 C280.461135,712.834932 269.723743,710.729397 258.951827,708.796447 C257.467236,708.520311 255.913594,708.969032 255.015934,710.073575 C254.532579,710.246159 254.049224,710.522295 253.600394,710.867465 C245.832184,716.907935 236.717486,721.084488 227.809939,725.122974 C218.936918,729.126942 208.820983,733.614148 206.128004,743.934723 C205.610123,745.90219 206.783986,748.007725 208.751932,748.559997 C214.931974,750.216811 221.215593,749.699057 227.464685,748.870649 C234.231659,747.973208 241.033157,747.04125 247.800131,746.109292 C254.394477,745.21185 260.954298,744.314409 267.548645,743.416968 C270.828555,742.968247 274.142991,742.519527 277.422902,742.070806 C280.357559,741.656603 283.879147,741.725636 286.503075,740.241407 C289.748461,738.412007 290.12824,734.028352 290.956849,730.783757 C291.889034,727.055924 292.855744,723.362608 293.787929,719.634775 C294.271285,717.805376 293.200998,715.458222 291.164001,715.044018 Z" id="Path" fill="#6B2F24"></path>
                        <path d="M448.21993,651.084072 C446.700814,643.317754 445.112647,635.551436 443.455429,627.785117 C436.964658,597.09953 429.610754,566.552012 421.911595,536.142561 C414.212437,505.871178 406.375177,475.599795 398.054561,445.500996 C396.12114,438.459535 393.842466,431.418073 390.320878,424.963399 C387.040967,418.991963 382.552668,413.710867 377.581014,409.085593 C372.643886,404.425802 367.257928,400.042146 361.699342,396.141729 C358.108703,393.656507 354.241861,393.552956 350.478596,395.762042 C347.267736,397.625959 344.194976,399.800528 341.087692,401.871546 C328.693083,410.086585 316.643727,418.750344 304.870574,427.862825 C298.828634,432.522616 292.821219,437.320474 286.951905,442.221884 C282.256454,446.122302 275.800209,450.264338 274.45372,456.684495 C273.832263,459.721988 274.729923,462.517863 277.077648,464.381779 C274.868024,495.964807 272.175045,527.513318 269.033236,559.027312 C265.753325,591.645849 261.99006,624.195352 257.743439,656.710338 C255.361188,674.900782 252.80631,693.091225 250.078805,711.247152 C249.699026,713.835924 251.080041,715.734358 253.70397,716.010494 C266.16763,717.253104 278.596765,718.495715 291.060425,719.738326 C292.717643,719.910911 294.236759,718.461198 294.685589,716.976969 C303.55861,688.569502 311.361345,659.816866 318.093793,630.822611 C324.791715,602.035457 330.419351,572.972168 334.976701,543.770811 C336.530343,533.795407 337.945883,523.785485 339.257847,513.741047 C344.954534,535.107052 351.238154,556.300471 358.143229,577.321306 C367.085301,604.658747 377.028608,631.720052 387.938627,658.332636 C394.118669,673.382035 400.574914,688.327883 407.307362,703.135664 C408.377648,705.517335 411.553983,705.310233 413.211201,703.895037 C419.322192,698.648457 425.433183,693.401878 431.544175,688.155298 L440.693399,680.285429 C443.317327,678.007309 446.044832,675.867257 448.081829,673.002348 C452.604653,666.651226 449.600945,658.021983 448.21993,651.084072 Z" id="Path" fill="#29AEC4"></path>
                        <path d="M385.832579,409.775932 C354.932369,389.169301 323.963106,368.528152 291.509255,350.372226 C275.247803,341.259744 258.641098,332.803087 241.585563,325.312904 C232.95422,321.516037 224.2193,317.753688 215.242703,314.854262 C206.645885,312.092904 197.634762,310.470607 188.554588,311.299014 C169.393006,312.990346 152.026742,323.207369 138.45827,336.427369 C137.94039,336.910606 137.629661,337.462878 137.457034,338.015149 C137.284408,338.153217 137.111781,338.291285 136.973679,338.46387 C134.418802,340.949092 136.5939,344.469823 139.321405,344.814992 C139.321405,344.849509 139.321405,344.849509 139.321405,344.849509 C139.528557,345.954054 139.597608,347.127631 139.701184,348.232174 C139.908336,350.613845 140.046438,353.030033 139.977387,355.411704 C139.908336,359.967944 139.217829,364.731286 137.249882,368.907839 C134.108073,375.638648 126.89227,381.575567 119.641941,380.540058 C117.950198,380.298439 116.258455,380.816194 115.39532,382.23139 C113.289272,382.818178 112.426138,384.854679 112.771392,386.856664 C114.359559,395.865593 112.046359,404.943556 109.318854,413.469248 C107.868789,417.990971 106.211571,422.478177 104.72698,426.9999 C104.001947,429.208986 103.276914,431.418073 102.655457,433.661676 C101.999475,436.043347 100.929188,438.804704 101.619696,441.255409 C102.344729,443.913216 104.657929,445.12131 106.971129,446.225853 C109.249804,447.330396 111.528478,448.400422 113.807153,449.435931 C118.571655,451.645017 123.336156,453.750552 128.169709,455.787054 C130.586485,456.822563 133.037787,457.823555 135.489088,458.824547 C137.905864,459.791022 140.426217,460.653946 143.08467,460.343294 C147.400342,459.825539 150.507626,456.719012 152.302945,452.922145 C154.616146,447.986218 155.92811,442.49802 157.550802,437.320474 C159.069919,432.419065 160.623561,427.552172 162.142677,422.650762 C177.368367,424.100475 192.525006,428.000892 206.645885,434.006845 C221.733473,440.427002 235.854351,449.228829 248.17991,459.998124 C254.429003,465.486322 260.263791,471.457758 265.546173,477.877915 C268.239152,481.12251 270.79403,486.438123 275.627582,486.404102 C278.216986,486.369089 280.771863,484.919377 283.085063,483.918385 C285.156586,483.020943 287.228108,482.123502 289.299631,481.191544 C306.113488,473.59781 322.305889,464.657915 337.66968,454.509926 C353.171575,444.292903 367.879384,432.798751 381.551433,420.269091 C383.20865,418.750344 384.865868,417.197081 386.488561,415.643817 C388.421982,413.917969 387.766,411.05306 385.832579,409.775932 Z" id="Path" fill="#C7DBED"></path>
                        <path d="M289.403207,501.660107 C288.954377,482.503189 286.779278,463.415304 283.016013,444.638072 C279.287272,426.102459 273.935839,407.877499 266.996239,390.273844 C265.200919,385.752121 263.336549,381.264915 261.368603,376.812225 C260.367367,374.568622 259.331606,372.325019 258.295845,370.115933 C257.329134,368.079432 256.466,365.904863 255.084985,364.10998 C251.666973,359.622774 246.798895,360.175046 241.792716,360.761834 C236.648435,361.38314 231.504154,362.004445 226.359873,362.591234 C223.77047,362.901886 221.215593,363.212539 218.626189,363.523192 C216.623718,363.764811 214.862924,365.076455 214.862924,367.285542 C214.862924,368.148466 215.242703,369.080424 215.86416,369.80528 C215.93321,369.943348 216.002261,370.081416 216.105837,370.219484 C230.744596,391.654523 241.516513,415.505749 248.352537,440.530553 C255.188561,465.589873 258.088692,491.650186 257.087456,517.606948 C256.604101,529.99854 255.671916,544.219532 246.453641,553.504597 C243.035629,556.956294 248.318011,562.23739 251.770549,558.82021 C253.531343,557.094362 255.257612,555.368513 257.018406,553.642665 C257.639862,556.473056 258.295845,559.303448 258.917301,562.133839 C259.918537,566.586529 260.816197,571.729557 265.787851,573.386372 C269.965421,574.767051 274.384669,572.281829 277.181224,569.313369 C280.357559,565.965223 282.256454,561.408983 283.879147,557.128879 C287.090007,548.465119 288.194819,539.145537 288.816275,529.99854 C289.472258,520.506373 289.644884,511.08324 289.403207,501.660107 Z" id="Path" fill="#F4BAAB"></path>
                        <path d="M440.935076,680.423497 C428.747619,648.667884 420.772258,615.531593 413.487404,582.360784 C406.168024,549.017391 399.504627,515.466895 389.768472,482.710291 C384.865868,466.176662 379.341809,449.056244 367.499605,436.077864 C366.291217,434.766219 364.357796,436.733686 365.531659,438.045331 C372.954614,446.156819 377.753641,455.994155 381.516907,466.245696 C381.171653,466.107628 380.791874,466.073111 380.37757,466.280213 C374.232053,468.972536 367.257928,464.554364 361.975545,461.723973 C356.451485,458.720996 351.031002,455.441884 346.887957,450.644025 C345.714094,449.297863 343.780671,451.265331 344.920009,452.611492 C349.580936,458.030657 355.830029,461.620422 362.079121,464.934051 C368.086537,468.109612 374.957086,471.66486 381.758585,468.696401 C381.965737,468.59285 382.138364,468.489299 382.24194,468.351231 C383.070549,470.698385 383.864633,473.080056 384.589665,475.42721 C384.244412,474.840421 383.519379,474.460735 382.725295,474.909455 C374.888035,479.396661 365.807862,475.77238 358.833736,471.31969 C351.756035,466.797967 344.402128,461.620422 339.430474,454.751545 C338.394713,453.336349 336.012462,454.717028 337.048223,456.132223 C342.537758,463.69144 350.616697,469.490291 358.488482,474.357184 C366.084065,479.016975 375.785695,482.054468 384.10631,477.291126 C384.624191,477.01499 384.796818,476.531753 384.762292,476.083032 C385.142071,477.222092 385.487325,478.395669 385.832579,479.534729 C390.769707,495.688671 394.947278,512.118749 398.745069,528.583344 C406.340651,561.339949 412.589744,594.37269 421.082986,626.922193 C425.882013,645.319738 431.406073,663.510182 438.207572,681.251904 C438.898079,682.805168 441.556533,682.080312 440.935076,680.423497 Z" id="Path" fill="#F0F7FA"></path>
                        <path d="M297.447619,479.362144 C297.06784,477.636296 294.409386,478.361152 294.789165,480.087001 C296.446383,487.749768 294.75464,495.723188 290.266341,502.108828 C289.23058,503.558541 291.647356,504.93922 292.648592,503.489507 C297.551195,496.517079 299.242938,487.715251 297.447619,479.362144 Z" id="Path" fill="#F0F7FA"></path>
                        <path d="M306.044437,475.496244 C305.664658,473.770395 303.006204,474.495252 303.385983,476.2211 C304.732473,482.675774 304.387219,489.337549 302.419273,495.619637 C301.452562,498.691648 300.071547,501.660107 298.345279,504.386948 C296.688061,506.941204 294.340335,509.633527 291.09495,509.702561 C289.334156,509.737078 289.299631,512.498436 291.09495,512.464863 C298.345279,512.325851 302.419273,503.834676 304.559846,498.001308 C307.149249,490.821779 307.632604,482.986426 306.044437,475.496244 Z" id="Path" fill="#F0F7FA"></path>
                        <path d="M342.399656,512.636504 C339.01617,507.079272 335.598158,501.487522 332.214671,495.93029 C336.32319,492.996348 337.048223,487.335565 335.874361,482.641257 C334.217143,476.013998 328.589507,471.31969 325.620324,465.313737 C324.826241,463.725957 322.44399,465.106636 323.238074,466.694416 C325.827477,471.975513 330.522928,476.117549 332.663501,481.640264 C334.113567,485.368097 334.217143,490.614677 331.006283,493.341517 C326.000104,485.33358 321.54633,477.049507 317.610438,468.489299 C316.885405,466.867001 314.503154,468.282197 315.228187,469.869978 C319.164079,478.430186 323.617853,486.714259 328.589507,494.687679 C328.554981,494.963815 328.589507,495.274468 328.796659,495.550604 L331.834892,500.555564 C331.662265,500.659115 331.524163,500.8317 331.386062,501.107836 C325.862002,513.879115 323.4107,527.582352 321.339178,541.285589 C319.164079,555.713683 316.91993,570.141777 314.434103,584.535353 C309.393399,613.667676 303.593136,642.627414 296.998789,671.449085 C293.304574,687.672061 289.368681,703.826003 285.191111,719.910911 C284.742281,721.63676 287.400735,722.361616 287.849565,720.635768 C295.237995,692.12475 301.901392,663.441148 307.805231,634.619477 C313.674545,605.901358 318.7843,577.010654 323.134497,547.981882 C325.413172,532.863449 327.484695,517.434363 333.49211,503.247888 L340.051931,513.982666 C340.949591,515.570446 343.331841,514.155251 342.399656,512.636504 Z" id="Path" fill="#F0F7FA"></path>
                        <path d="M382.069313,442.394469 C380.964501,440.461519 379.859689,438.494051 378.754877,436.561101 C377.857217,435.007837 375.474967,436.423033 376.372626,437.94178 C377.477438,439.87473 378.58225,441.842198 379.687062,443.775148 C380.550197,445.328412 382.966973,443.947733 382.069313,442.394469 Z" id="Path" fill="#F0F7FA"></path>
                        <path d="M390.424454,459.031649 C389.526794,457.133215 388.629134,455.200265 387.731475,453.301832 C386.971916,451.679534 384.589665,453.09473 385.349224,454.682511 C386.246883,456.580944 387.144543,458.513894 388.042203,460.412328 C388.801761,462.000108 391.184012,460.61943 390.424454,459.031649 Z" id="Path" fill="#F0F7FA"></path>
                        <path d="M396.949749,479.051492 C395.983039,477.463711 395.465158,475.77238 395.396108,473.94298 C395.327057,472.182615 392.565027,472.148098 392.634078,473.94298 C392.737654,476.255617 393.359111,478.464703 394.567499,480.432171 C395.499684,481.950917 397.881935,480.570238 396.949749,479.051492 Z" id="Path" fill="#F0F7FA"></path>
                        <path d="M403.026215,501.832692 C402.197606,498.795199 401.403523,495.723188 400.574914,492.685695 C400.126084,490.959846 397.433105,491.684703 397.91646,493.410551 C398.745069,496.448045 399.539153,499.520055 400.367762,502.557549 C400.816591,504.283397 403.475045,503.558541 403.026215,501.832692 Z" id="Path" fill="#F0F7FA"></path>
                        <path d="M409.240783,524.372274 C408.791953,522.128671 408.308598,519.885068 407.859768,517.675982 C407.514514,515.950133 404.821535,516.674989 405.201314,518.400838 C405.650144,520.644441 406.133499,522.888044 406.582329,525.09713 C406.927583,526.857496 409.586036,526.132639 409.240783,524.372274 Z" id="Path" fill="#F0F7FA"></path>
                        <path d="M416.042281,547.671229 C415.558926,545.979897 415.110096,544.288566 414.626741,542.597234 C414.143386,540.871386 411.484932,541.630759 411.968287,543.322091 C412.451643,545.013422 412.900472,546.704754 413.383828,548.396085 C413.867183,550.087417 416.525637,549.36256 416.042281,547.671229 Z" id="Path" fill="#F0F7FA"></path>
                        <path d="M419.598395,572.557965 C418.942413,570.383395 418.286431,568.174309 417.630449,565.99974 C417.112568,564.308409 414.454114,565.033265 414.971995,566.724597 C415.627977,568.899166 416.283959,571.108252 416.939941,573.282821 C417.423296,574.974152 420.116276,574.249296 419.598395,572.557965 Z" id="Path" fill="#F0F7FA"></path>
                        <path d="M426.05464,601.724805 C425.191506,599.515718 424.328371,597.306632 423.465237,595.097546 C422.84378,593.475249 420.150801,594.165588 420.806783,595.822403 C421.669917,598.031489 422.533052,600.240575 423.396186,602.449661 C424.052168,604.106475 426.710622,603.381619 426.05464,601.724805 Z" id="Path" fill="#F0F7FA"></path>
                        <path d="M432.752563,620.018799 C432.165631,618.085848 431.5787,616.152898 430.957243,614.219948 C430.439363,612.528616 427.780909,613.253473 428.298789,614.944804 C428.885721,616.877755 429.472652,618.810705 430.094109,620.743655 C430.611989,622.434987 433.270443,621.71013 432.752563,620.018799 Z" id="Path" fill="#F0F7FA"></path>
                        <path d="M435.169339,634.653994 C434.237154,633.135248 431.854903,634.515926 432.787088,636.034673 C433.753798,637.622454 434.271679,639.279268 434.375255,641.143185 C434.444306,642.90355 437.206336,642.938067 437.137285,641.143185 C437.033709,638.830548 436.377727,636.655979 435.169339,634.653994 Z" id="Path" fill="#F0F7FA"></path>
                        <path d="M441.936312,661.611748 C441.625584,659.954934 441.349381,658.298119 441.038652,656.641304 C440.727924,654.880939 438.06947,655.640312 438.380199,657.366161 C438.690927,659.022975 438.96713,660.67979 439.277858,662.336605 C439.588587,664.062453 442.247041,663.337597 441.936312,661.611748 Z" id="Path" fill="#F0F7FA"></path>
                        <path d="M446.010306,670.413576 C445.561476,669.826787 444.801918,669.516134 444.111411,669.930338 C443.524479,670.275508 443.179226,671.207466 443.628056,671.828771 C444.111411,672.484594 444.456665,673.243967 444.353088,674.072374 C444.249512,674.797231 444.525715,675.556604 445.319799,675.763706 C445.975781,675.936291 446.907966,675.556604 447.011542,674.797231 C447.218694,673.243967 446.977017,671.690704 446.010306,670.413576 Z" id="Path" fill="#F0F7FA"></path>
                        <path d="M456.609596,687.706578 C444.905494,701.099162 432.718037,714.11206 420.150801,726.710754 C420.116276,726.64172 420.08175,726.607203 420.047225,726.538169 C415.213672,720.566734 407.514514,717.701825 399.953457,718.702817 C398.192663,718.944436 398.952221,721.602243 400.67849,721.360624 C407.272836,720.463183 413.936234,723.328091 418.079279,728.47112 C418.113804,728.505637 418.148329,728.574671 418.21738,728.609188 C414.55769,732.267987 410.863475,735.857751 407.134735,739.447516 C404.821535,741.656603 402.54286,743.934723 400.126084,746.040258 C397.709308,748.111276 394.636549,750.147777 391.391164,748.9742 C389.733946,748.352895 389.008913,751.045218 390.666131,751.632007 C391.529266,751.94266 392.426925,752.115245 393.255534,752.115245 L393.255534,754.358848 C393.255534,756.119213 396.017564,756.15373 396.017564,754.358848 L396.017564,751.666524 C397.398579,751.217803 398.710544,750.492947 399.953457,749.630023 C400.367762,750.354879 400.747541,751.079735 401.161845,751.804592 C402.024979,753.357855 404.40723,751.977177 403.544096,750.423913 C403.095266,749.595506 402.611911,748.767098 402.163081,747.904174 C402.922639,747.248352 403.647672,746.558012 404.33818,745.90219 C405.75372,744.556028 407.203786,743.209866 408.619326,741.829187 C408.96458,742.312425 409.344359,742.795663 409.689613,743.244383 C409.896765,743.555036 410.138442,743.762138 410.518222,743.865689 C410.863475,743.96924 411.27778,743.900206 411.588508,743.727621 C412.17544,743.347934 412.555219,742.450493 412.071863,741.829187 C411.657559,741.276916 411.27778,740.759161 410.863475,740.20689 C410.794425,740.103339 410.690848,739.999788 410.587272,739.896237 C412.17544,738.37749 413.763607,736.824227 415.351774,735.270963 C415.627977,735.754201 415.938705,736.202921 416.214908,736.686159 C416.594687,737.307464 417.457822,737.5836 418.113804,737.169396 C418.735261,736.78971 419.011464,735.926785 418.597159,735.270963 C418.182855,734.615141 417.76855,733.924801 417.354246,733.268979 C417.492347,733.130911 417.664974,732.958326 417.803076,732.820258 C419.771022,730.887308 421.738968,728.91984 423.672389,726.952373 C423.983118,727.504645 424.328371,728.056916 424.6391,728.574671 C425.018879,729.195976 425.882013,729.472112 426.537995,729.057908 C427.159452,728.643705 427.435655,727.815297 427.02135,727.159475 C426.607046,726.469136 426.227267,725.813313 425.812962,725.122974 C425.778437,725.05394 425.709386,724.984906 425.640336,724.915872 C426.779673,723.742295 427.953536,722.568718 429.092873,721.395141 C429.472652,722.016446 429.886957,722.672269 430.266736,723.293574 C430.646515,723.91488 431.509649,724.191015 432.165631,723.776812 C432.787088,723.397125 433.063291,722.534201 432.648986,721.878378 C432.234682,721.222556 431.820378,720.532217 431.406073,719.876394 C431.302497,719.703809 431.12987,719.565741 430.957243,719.427674 C432.269207,718.081512 433.581172,716.73535 434.85861,715.354671 C434.893136,715.389188 434.893136,715.423705 434.927661,715.458222 C435.480067,716.010494 435.997948,716.528248 436.550354,717.08052 C437.068234,717.598274 438.00042,717.632791 438.5183,717.08052 C439.036181,716.528248 439.070706,715.665324 438.5183,715.113052 C437.965894,714.560781 437.448014,714.043026 436.895608,713.490755 C436.861082,713.456238 436.792031,713.421721 436.757506,713.352687 C437.965894,712.075559 439.174282,710.798431 440.38267,709.521303 C440.658873,709.90099 440.969602,710.280676 441.245805,710.660363 C441.487482,710.971016 441.694635,711.178118 442.074414,711.281669 C442.419667,711.385219 442.833972,711.316186 443.1447,711.143601 C443.697106,710.763914 444.111411,709.866473 443.628056,709.245167 C443.213751,708.692896 442.799447,708.175141 442.419667,707.62287 C442.385142,707.553836 442.316091,707.519319 442.281566,707.450285 C442.868497,706.828979 443.455429,706.173157 444.04236,705.551851 C444.663817,704.896029 445.250748,704.20569 445.872205,703.549867 C446.217459,704.033105 446.562712,704.481825 446.907966,704.965063 C447.356796,705.551851 448.116354,705.862504 448.806862,705.448301 C449.393793,705.103131 449.739047,704.171173 449.290217,703.549867 C448.772336,702.859528 448.254456,702.169188 447.7711,701.478849 C448.772336,700.374306 449.808098,699.235246 450.809333,698.130703 C451.189112,698.993627 451.741518,699.753 452.432026,700.374306 C452.984432,700.857543 453.847566,700.926577 454.399972,700.374306 C454.883328,699.891068 454.952378,698.924593 454.399972,698.406839 C453.74399,697.854567 453.398736,697.302296 453.191584,696.542922 C453.122533,696.301303 452.984432,696.094202 452.811805,695.921617 C454.745226,693.747048 456.678647,691.572478 458.577543,689.397909 C459.751405,688.327883 457.783459,686.360416 456.609596,687.706578 Z" id="Path" fill="#F0F7FA"></path>
                        <path d="M419.494819,696.232269 C417.595923,695.369345 415.00652,697.02616 413.452878,698.027152 C411.968287,698.993627 410.690848,700.09817 409.516986,701.375298 C407.928818,700.236238 405.926347,699.235246 403.923875,699.338797 C402.266657,699.442348 400.67849,700.581408 400.402287,702.307256 C400.126084,704.136656 401.507099,705.551851 403.129791,706.13864 C403.785774,706.380259 404.510806,706.48381 405.201314,706.518327 C404.683433,706.93253 404.131027,707.381251 403.647672,707.829972 C403.233368,708.209658 403.164317,708.658379 403.267893,709.072582 C403.164317,709.072582 403.060741,709.072582 402.957165,709.072582 C401.196371,709.176133 401.161845,711.937491 402.957165,711.83394 C407.134735,711.626838 411.139678,712.489763 414.799368,714.491747 C416.35301,715.354671 417.76855,712.973 416.180383,712.110076 C415.420825,711.695872 414.661266,711.316186 413.867183,711.005533 C414.661266,710.798431 415.282723,709.935507 414.730317,709.038065 C414.246962,708.278692 413.798132,707.519319 413.314777,706.759945 C414.177911,706.828979 415.110096,706.690911 416.076807,706.242191 C418.182855,705.275716 419.840073,703.411799 420.772258,701.306264 C421.497291,699.580416 421.497291,697.164228 419.494819,696.232269 Z M404.441756,702.134671 C405.097738,702.169188 405.788245,702.445324 406.375177,702.72146 C406.789481,702.928562 407.203786,703.170181 407.549039,703.411799 C406.478753,703.791486 404.717959,704.136656 403.751248,703.480833 C402.750012,702.755977 403.336944,702.100154 404.441756,702.134671 Z M406.306126,709.176133 C407.203786,708.41676 408.135971,707.760938 409.137207,707.174149 C409.48246,706.967047 409.689613,706.690911 409.758663,706.380259 C409.862239,706.552844 409.965816,706.725428 410.000341,706.759945 L412.313541,710.453261 C412.313541,710.453261 412.313541,710.453261 412.313541,710.453261 C410.414645,709.797439 408.377648,709.348718 406.306126,709.176133 Z M418.320956,699.960102 C418.113804,701.030128 417.112568,702.134671 416.318484,702.825011 C415.248198,703.756969 413.936234,704.447308 412.555219,703.791486 C412.209965,703.618901 411.899237,703.411799 411.588508,703.170181 C412.865947,701.789502 414.350538,700.615925 416.007756,699.718483 C416.939941,699.235246 418.735261,697.992635 418.320956,699.960102 Z" id="Shape" fill="#F0F7FA"></path>
                        <path d="M259.74591,710.798431 C258.882776,708.934515 256.880304,707.933522 254.981409,709.003549 C252.875361,710.177126 251.252668,712.593313 250.078805,714.595298 C249.975229,714.767883 249.940704,714.90595 249.906179,715.078535 C248.076334,713.076551 246.798895,710.177126 244.244017,709.348718 C240.480751,708.175141 237.546095,712.420729 239.030686,715.768875 C240.860531,720.014462 245.763134,719.876394 249.59545,718.875402 C250.113331,721.809345 250.596686,724.777804 251.114567,727.711746 C251.425295,729.472112 254.083749,728.712739 253.773021,726.98689 C253.358716,724.536185 252.944412,722.050963 252.530107,719.600258 C253.393241,719.80736 254.325426,719.80736 255.223086,719.600258 C258.882776,718.771851 261.368603,714.353679 259.74591,710.798431 Z M241.896292,715.354671 C241.205784,714.45723 241.067683,712.938483 242.068919,712.213627 C243.001104,711.523287 243.967814,712.282661 244.658322,712.938483 C245.797659,714.077543 246.591743,715.389188 247.592979,716.562765 C245.521456,717.011486 243.277307,717.08052 241.896292,715.354671 Z M254.083749,716.976969 C253.289665,717.046003 252.599158,716.907935 251.977701,716.631799 C251.977701,716.597282 251.943176,716.528248 251.943176,716.493731 C252.150328,716.39018 252.322955,716.217595 252.461056,715.975977 C253.186089,714.733366 254.014698,713.594306 255.015934,712.558796 C255.913594,711.626838 256.98388,710.69488 257.43271,712.489763 C257.916065,714.560781 256.120746,716.838901 254.083749,716.976969 Z" id="Shape" fill="#F0F7FA"></path>
                        <path d="M247.178674,727.435611 C245.176202,724.087465 242.379647,721.360624 238.92711,719.531224 C237.373468,718.702817 235.957927,721.084488 237.546095,721.912895 C240.584328,723.535193 243.035629,725.84783 244.796423,728.81629 C245.728608,730.369553 248.110859,728.988874 247.178674,727.435611 Z" id="Path" fill="#F0F7FA"></path>
                        <path d="M237.856823,729.61018 C236.752011,726.98689 235.198369,724.639736 233.126847,722.672269 C231.814882,721.464175 229.881461,723.397125 231.1589,724.639736 C232.885169,726.262034 234.266184,728.160467 235.198369,730.335036 C235.888877,731.957334 238.54733,731.266994 237.856823,729.61018 Z" id="Path" fill="#F0F7FA"></path>
                        <path d="M288.747225,732.440571 C275.662108,733.441564 262.611516,735.063861 249.699026,737.272947 C249.14662,737.031328 248.421587,737.100362 248.007283,737.549083 C248.007283,737.549083 247.972758,737.549083 247.972758,737.549083 C242.241545,738.550075 236.510333,739.86172 230.779121,740.862712 C228.8457,735.132895 224.564554,730.335036 218.971443,727.849814 C217.348751,727.124958 215.967736,729.506629 217.590428,730.231485 C222.458506,732.371537 226.221772,736.340989 228.017091,741.311433 C221.284643,742.381459 214.483145,742.899213 207.57807,742.001772 C205.817276,741.760153 205.851801,744.521511 207.57807,744.76313 C208.959085,744.935715 210.3401,745.073783 211.721115,745.142817 C211.790165,746.523495 212.20447,747.83514 212.929503,749.008717 C213.861688,750.527464 216.243939,749.146785 215.311754,747.628038 C214.828398,746.868665 214.586721,746.074775 214.483145,745.21185 C216.036786,745.21185 217.590428,745.177333 219.109545,745.073783 L219.109545,748.214827 C219.109545,749.975192 221.871575,750.009709 221.871575,748.214827 L221.871575,744.866681 C223.459742,744.728613 225.082434,744.521511 226.670602,744.279892 C226.636076,745.418952 226.912279,746.523495 227.361109,747.559004 C227.637312,748.249344 228.673073,748.387412 229.260005,748.042242 C229.985038,747.628038 230.054088,746.834148 229.74336,746.143809 C229.432632,745.418952 229.398106,744.590545 229.467157,743.796655 C229.605258,743.762138 229.74336,743.762138 229.846936,743.727621 C229.950512,743.727621 230.088614,743.693104 230.19219,743.658587 C231.124375,743.486002 232.022035,743.347934 232.95422,743.175349 C233.092321,744.556028 233.264948,745.90219 233.40305,747.282869 C233.4721,748.042242 233.989981,748.663548 234.784065,748.663548 C235.474572,748.663548 236.23413,748.007725 236.16508,747.282869 C235.992453,745.729605 235.819826,744.210858 235.647199,742.657595 C236.959163,742.415976 238.271127,742.13984 239.583092,741.863704 C239.583092,742.001772 239.583092,742.13984 239.583092,742.312425 C239.755719,743.658587 239.962871,744.970232 240.135498,746.316394 C240.239074,747.04125 241.171259,747.455454 241.827241,747.282869 C242.621325,747.075767 242.897528,746.316394 242.793951,745.591537 C242.621325,744.245375 242.414172,742.93373 242.241545,741.587569 C242.241545,741.518535 242.20702,741.449501 242.172495,741.380467 C243.898763,741.035297 245.625032,740.690127 247.351301,740.379475 C247.454877,740.344958 247.558453,740.344958 247.662029,740.310441 C247.800131,741.587569 248.076334,742.864696 248.490638,744.107307 C249.07757,745.764122 251.770549,745.039266 251.149092,743.382451 C250.734788,742.208874 250.49311,741.069814 250.389534,739.86172 C252.564632,739.482033 254.705206,739.136864 256.880304,738.826211 C256.880304,738.826211 256.880304,738.860728 256.880304,738.860728 C257.052931,740.344958 257.260083,741.829187 257.43271,743.313417 C257.536286,744.038273 257.985116,744.694096 258.813725,744.694096 C259.469707,744.694096 260.298316,744.07279 260.19474,743.313417 C260.022113,741.829187 259.814961,740.344958 259.642334,738.860728 C259.607809,738.72266 259.573283,738.550075 259.538758,738.412007 C261.195976,738.170389 262.887719,737.92877 264.544937,737.721668 L264.544937,742.415976 C264.544937,744.176341 267.306967,744.210858 267.306967,742.415976 L267.306967,737.514566 C267.306967,737.445532 267.306967,737.411015 267.306967,737.341981 C269.44754,737.065845 271.588114,736.824227 273.728687,736.582608 C273.487009,736.78971 273.348908,737.100362 273.348908,737.514566 L273.245332,741.967255 C273.210806,743.762138 275.972836,743.727621 276.007362,741.967255 L276.110938,737.514566 C276.110938,736.962295 275.86926,736.582608 275.524006,736.375506 C277.837206,736.133887 280.115881,735.892268 282.429081,735.685167 C282.256454,735.857751 282.152878,736.030336 282.118353,736.271955 C281.945726,737.445532 281.738574,738.653626 281.565947,739.827203 C281.462371,740.552059 281.738574,741.311433 282.532657,741.518535 C283.188639,741.691119 284.120825,741.311433 284.224401,740.552059 C284.397028,739.378482 284.60418,738.170389 284.776807,736.996812 C284.880383,736.410023 284.707756,735.823235 284.258926,735.512582 C285.778042,735.374514 287.297159,735.236446 288.78175,735.132895 C290.508019,735.063861 290.508019,732.302504 288.747225,732.440571 Z" id="Path" fill="#F0F7FA"></path>
                        <path d="M283.741045,377.295463 C278.665815,368.735254 273.314382,360.34763 267.686746,352.132592 C265.062818,348.301208 262.50794,344.331755 259.538758,340.74199 C256.91483,337.600946 253.773021,336.427369 250.009755,338.291285 C240.860531,342.882042 231.918459,347.887004 222.872811,352.684863 C217.003497,355.79139 207.923323,359.829876 208.09595,367.803296 C208.165001,370.184967 209.131712,372.394053 210.271049,374.465071 C211.548488,376.777708 212.894977,379.021311 214.206942,381.299432 C217.141598,386.338909 220.145306,391.34387 223.218064,396.314314 C224.046673,397.694992 226.08367,396.659483 225.772942,395.347838 C235.405521,395.55494 244.761898,391.723557 253.773021,388.789614 C263.474651,385.64857 273.210806,382.507525 282.912436,379.331964 C283.741045,379.055828 284.224401,378.089353 283.741045,377.295463 Z" id="Path" fill="#C7DBED"></path>
                        <path d="M263.129397,330.076246 C261.817433,328.143296 259.642334,326.797134 257.88154,325.347421 C254.256376,322.413479 250.631211,319.445019 247.006047,316.511077 C243.898763,314.025855 240.756954,311.506116 237.097265,309.814784 C233.195897,308.019902 229.018327,307.260529 224.737181,307.571181 C221.664422,307.8128 218.626189,308.50314 215.622482,309.262513 C213.136655,309.538649 210.685353,309.849301 208.199526,310.056403 C207.819747,310.09092 207.405443,310.09092 207.025664,310.125437 C206.507783,309.952852 205.989902,309.780267 205.472022,309.607683 C197.289508,307.122461 188.69269,306.604706 180.372075,304.74079 C176.367131,303.843349 172.465764,302.669772 168.90965,300.736821 C165.422588,298.838388 162.487931,296.456717 159.449698,293.936978 C153.131554,288.621365 146.571733,282.649929 138.216593,280.958597 C128.169709,278.922096 118.847858,283.236717 109.180753,285.204185 C99.962478,287.068101 90.6751523,284.548362 81.5259281,283.54737 C72.1695517,282.511861 62.7441245,283.650921 55.3902198,290.03656 C49.0720763,295.524759 45.6540642,303.774315 44.5492522,311.885803 C43.2027626,322.137343 45.8266911,332.457917 49.1756524,342.053635 C50.0042614,344.469823 50.9019211,346.886012 51.7995808,349.267683 C51.903157,349.578336 52.0412585,349.854471 52.2138853,350.09609 C52.9043928,351.92549 53.8020526,353.685855 54.9068645,355.308153 C55.7699989,356.619798 56.702184,357.896926 58.2558258,358.41468 C60.0511453,359.001469 61.6738379,358.380163 63.0548529,357.206586 C64.9882738,355.549772 66.7490679,353.720372 68.5443874,351.92549 C74.2410741,346.299224 79.765134,340.465854 85.945176,335.357343 C88.7762567,334.252799 91.6418628,333.320841 94.611045,332.630502 C103.691218,330.455933 113.634526,330.628518 122.196819,334.425384 C122.680174,337.117708 123.129004,339.879066 123.957613,342.467838 C125.09695,345.88502 127.686354,348.232174 131.276992,348.715411 C134.384276,349.129615 136.939154,348.197657 139.045202,346.575359 C140.150014,347.334733 141.289351,348.025072 142.497739,348.611861 C147.331292,350.993532 152.475572,352.512278 157.447226,354.548779 C159.13897,355.239119 161.659322,356.516247 163.523692,357.758858 C165.008283,358.794367 166.734552,360.416664 167.701262,361.969928 C170.981173,367.147474 170.70497,373.809249 171.533579,379.677134 C173.397949,393.000684 181.511412,405.01259 193.042887,411.84695 C194.527478,412.744392 196.357323,412.364705 197.600237,411.260162 C206.749461,403.045123 215.553431,394.450397 223.943097,385.510502 C228.086142,381.09233 232.125611,376.605124 236.061503,372.014366 C239.341414,368.2175 242.621325,364.351599 245.486931,360.24408 C246.557217,359.174054 247.592979,358.104027 248.594214,356.999484 C251.45982,353.892957 254.118274,350.613845 256.673152,347.231182 C259.055403,344.055619 261.782907,340.672956 263.474651,337.048674 C264.544937,334.770554 264.613988,332.250815 263.129397,330.076246 Z" id="Path" fill="#6B2F24"></path>
                        <path d="M122.542073,326.175828 C121.609888,322.586063 118.537129,319.652121 114.704813,319.583087 C111.183225,319.514053 107.799738,321.757656 106.418723,324.967734 C104.934132,328.419431 105.590114,332.4234 107.661636,335.460893 C108.800974,337.117708 110.976072,337.877081 112.805917,336.807055 C113.047595,336.668987 113.289272,336.461886 113.496425,336.254784 C113.600001,336.220267 113.703577,336.18575 113.772628,336.151233 C114.186932,337.290293 114.981016,338.222251 116.258455,338.567421 C117.777571,338.981624 119.780043,338.325802 120.505076,336.841572 C122.162294,333.527943 123.508783,329.903661 122.542073,326.175828 Z" id="Path" fill="#F4BAAB"></path>
                        <path d="M362.83868,422.409143 C349.442834,415.091546 336.668444,406.669405 324.722665,397.177238 C313.743596,388.478961 303.800288,378.572591 292.51049,370.288518 C286.330448,365.732278 279.701577,361.866377 272.485773,359.139537 C271.380961,358.725333 270.690454,359.760842 270.828555,360.6928 C269.585642,356.792383 268.170102,352.960999 266.581934,349.164132 C265.925952,347.541834 263.232973,348.266691 263.923481,349.888988 C267.824848,359.346638 270.79403,369.149458 272.727451,379.228413 C263.888955,383.059797 255.11951,387.098283 246.142913,390.619014 C241.930817,392.275828 237.615145,393.725541 233.161372,394.692016 C230.848172,395.175254 228.500447,395.589457 226.152721,395.693008 C224.357402,395.762042 220.766763,395.278805 221.215593,392.655515 C221.526321,390.929666 218.867867,390.170293 218.557139,391.930658 C217.72853,396.832068 222.700184,398.695985 226.739652,398.419849 C232.194662,398.074679 237.58062,396.624966 242.724901,394.830084 C253.600394,391.033217 264.061582,385.959223 274.626347,381.368465 C274.9716,381.230398 275.178753,380.988779 275.282329,380.74716 C275.558532,380.436507 275.731159,380.022304 275.627582,379.539066 C274.45372,373.291494 272.900078,367.112957 270.966657,361.072487 C271.104758,361.38314 271.346436,361.624758 271.760741,361.762826 C284.742281,366.698753 295.514198,375.707682 305.837285,384.751129 C316.747303,394.312329 327.795423,403.52836 339.844779,411.639849 C346.818906,416.334156 354.034709,420.717812 361.423139,424.756297 C362.976781,425.619222 364.392322,423.237551 362.83868,422.409143 Z" id="Path" fill="#F0F7FA"></path>
                        <path d="M275.903785,419.268099 C275.351379,416.74836 274.00489,414.47024 272.002418,412.847942 C270.655929,411.743399 268.687982,413.67635 270.034472,414.81541 C271.69169,416.196089 272.761976,417.921937 273.245332,420.027472 C273.590585,421.753321 276.249039,421.028464 275.903785,419.268099 Z" id="Path" fill="#F0F7FA"></path>
                        <path d="M257.329134,547.187991 C256.91483,549.604179 256.466,551.98585 256.051695,554.402038 C255.740967,556.127887 258.399421,556.88726 258.710149,555.126894 C259.124454,552.710707 259.573283,550.329036 259.987588,547.912848 C260.298316,546.186999 257.639862,545.462143 257.329134,547.187991 Z" id="Path" fill="#F0F7FA"></path>
                        <path d="M267.445069,550.294519 C267.168866,548.534153 264.475887,549.293526 264.786615,551.019375 C265.891427,557.612116 265.062818,564.480993 262.438889,570.625014 C261.748382,572.247312 264.130633,573.662508 264.82114,572.005693 C267.790322,565.136816 268.687982,557.715667 267.445069,550.294519 Z" id="Path" fill="#F0F7FA"></path>
                        <path d="M276.352615,551.675197 C276.214514,549.914832 273.452484,549.914832 273.590585,551.675197 C274.246567,559.303448 272.313147,566.828147 268.101051,573.213787 C267.13434,574.698017 269.516591,576.078696 270.483302,574.594466 C274.9716,567.863657 277.043123,559.752169 276.352615,551.675197 Z" id="Path" fill="#F0F7FA"></path>
                        <path d="M283.568419,550.121934 C283.361266,548.396085 280.599236,548.361568 280.806389,550.121934 C281.496896,555.541098 280.702812,560.960262 278.355087,565.930706 C277.595529,567.518487 279.97778,568.933683 280.737338,567.311385 C283.292216,561.926738 284.327977,556.058853 283.568419,550.121934 Z" id="Path" fill="#F0F7FA"></path>
                        <path d="M71.3754681,379.6081 C70.6849606,380.816194 69.9944531,382.024288 69.3039456,383.232382 C68.4062859,384.785646 70.8230621,386.166324 71.6861964,384.613061 C72.3767039,383.404967 73.0672114,382.196873 73.7577189,380.988779 C74.6208533,379.470032 72.2386024,378.054836 71.3754681,379.6081 Z" id="Path" fill="#F0F7FA"></path>
                        <path d="M67.6467276,361.83186 C65.3680529,367.52716 64.4703932,373.671181 65.0227992,379.780685 C65.1954261,381.54105 67.957456,381.54105 67.7848291,379.780685 C67.2669485,373.878283 68.0955575,368.079432 70.3051815,362.556717 C70.9611636,360.899902 68.2681844,360.209563 67.6467276,361.83186 Z" id="Path" fill="#F0F7FA"></path>
                        <path d="M61.5357364,362.384132 C59.9130438,368.2175 59.1534856,374.25797 59.2915871,380.332956 C59.3261124,382.093322 62.0881424,382.127839 62.053617,380.332956 C61.9155155,374.499588 62.6405484,368.769771 64.1941902,363.143505 C64.6775455,361.38314 61.9845663,360.658283 61.5357364,362.384132 Z" id="Path" fill="#F0F7FA"></path>
                        <path d="M54.6651869,364.765803 C54.4235093,369.770763 54.216357,374.775724 53.9746794,379.780685 C53.9056287,381.54105 56.6676586,381.54105 56.7367094,379.780685 C56.978387,374.775724 57.1855392,369.770763 57.4272169,364.765803 C57.4962676,363.005437 54.7342377,363.005437 54.6651869,364.765803 Z" id="Path" fill="#F0F7FA"></path>
                        <path d="M149.092086,453.508934 C145.259769,452.680526 141.427453,451.817602 137.664187,450.678542 C133.866396,449.504965 130.241231,447.882667 126.616067,446.225853 C118.882383,442.705122 111.183225,439.149874 103.449541,435.629143 C101.861374,434.904287 100.445833,437.285958 102.068526,438.010814 C110.009362,441.635096 117.915673,445.259378 125.856509,448.918177 C129.274521,450.47144 132.727058,452.024704 136.352223,453.163764 C140.288115,454.406375 144.362109,455.303816 148.401578,456.201257 C150.093321,456.580944 150.85288,453.88862 149.092086,453.508934 Z" id="Path" fill="#F0F7FA"></path>
                        <path d="M163.627268,420.924914 C156.963871,419.199065 150.576677,416.644809 144.569262,413.33118 C143.01562,412.468256 141.600079,414.849927 143.188247,415.712851 C149.402814,419.164548 156.031686,421.787838 162.902235,423.58272 C164.628504,424.031441 165.353537,421.373634 163.627268,420.924914 Z" id="Path" fill="#F0F7FA"></path>
                        <path d="M148.401578,352.581312 C148.367053,353.582304 148.298002,354.548779 148.194426,355.515255 L140.115488,353.478753 C138.38922,353.030033 137.664187,355.687839 139.390455,356.13656 C142.083435,356.8269 144.776414,357.517239 147.469393,358.173061 C147.572969,358.207578 147.64202,358.207578 147.745596,358.207578 C147.227715,360.554732 146.433632,362.763818 145.397871,364.903871 C143.46445,364.627735 141.703656,363.868361 140.080963,362.798335 C138.596372,361.797343 137.215357,364.179014 138.699948,365.180006 C140.357166,366.284549 142.11796,367.043923 144.051381,367.458126 C142.670366,369.770763 141.047673,371.945333 139.252354,374.016351 C137.94039,373.291494 136.870103,372.325019 135.937918,371.151442 C135.489088,370.564654 134.453327,370.668205 133.969972,371.151442 C133.38304,371.738231 133.521142,372.532121 133.969972,373.11891 C134.902157,374.292487 136.041494,375.327996 137.318933,376.121886 C137.04273,376.398022 136.766527,376.708674 136.455799,376.98481 C134.798581,378.607108 133.037787,380.125855 131.173416,381.506533 C131.138891,381.437499 131.104366,381.333948 131.06984,381.264915 C130.448384,379.884236 129.861452,378.503557 129.239995,377.122878 C128.929267,376.432539 127.928031,376.294471 127.3411,376.639641 C126.650592,377.053844 126.547016,377.847734 126.857745,378.538074 C127.479201,379.918753 128.066133,381.299432 128.687589,382.68011 C128.75664,382.818178 128.860216,382.921729 128.963792,383.02528 C126.823219,384.371442 124.544544,385.475985 122.127768,386.269875 L122.127768,381.09233 C122.127768,379.331964 119.365738,379.297447 119.365738,381.09233 L119.365738,386.753113 C119.365738,386.856664 119.365738,386.925698 119.400264,387.029249 C117.881147,387.374418 116.29298,387.547003 114.670287,387.58152 C112.909493,387.616037 112.874968,390.377395 114.670287,390.343822 C123.854037,390.170293 132.002025,385.3034 138.38922,378.952278 C145.639548,371.772748 150.956456,363.108988 151.164554,352.684863 C151.198133,350.820947 148.436104,350.820947 148.401578,352.581312 Z" id="Path" fill="#F0F7FA"></path>
                        <path d="M380.89545,409.637864 C361.319563,432.557133 332.14562,443.222876 308.012384,460.27426 C301.279936,465.003085 294.927267,470.249664 289.299631,476.290134 C288.091243,477.601779 290.024664,479.534729 291.267577,478.257601 C311.810175,456.235774 340.984116,445.880683 364.772101,428.207994 C371.366447,423.306585 377.511964,417.88742 382.828871,411.639849 C383.968209,410.25917 382.034788,408.291702 380.89545,409.637864 Z" id="Path" fill="#F0F7FA"></path>
                        <path d="M65.0227992,351.92549 C64.539444,351.58032 64.0560887,351.614837 63.710835,351.856456 C63.4691574,351.545803 63.1239036,351.23515 62.882226,350.959015 C62.2952946,350.268675 61.7083633,349.543819 61.1904827,348.784445 C60.2237722,347.403767 59.3261124,345.954054 58.5665542,344.435306 C57.0129124,341.328778 56.0116765,338.015149 55.4937959,334.597969 C55.2175929,332.837604 52.5591391,333.596977 52.8353421,335.322826 C53.6639511,340.74199 55.7699989,345.919537 58.9808587,350.372226 C60.0511453,351.856456 61.8464648,354.928466 63.8489365,355.170085 C65.8168828,355.515255 66.576441,353.030033 65.0227992,351.92549 Z" id="Path" fill="#F0F7FA"></path>
                        <path d="M75.24231,345.022094 C69.2003695,341.742982 65.0573246,335.875097 63.9179872,329.109771 C63.6072589,327.349405 60.948805,328.108779 61.2595334,329.834627 C62.5369723,337.255776 67.2324232,343.814 73.861295,347.403767 C75.3804115,348.266691 76.7959518,345.88502 75.24231,345.022094 Z" id="Path" fill="#F0F7FA"></path>
                        <path d="M81.7676057,337.531912 C78.0388653,334.287316 75.1387339,330.248831 73.4124652,325.623557 C72.7910084,323.966742 70.1325546,324.691599 70.7540113,326.348413 C72.6529069,331.422408 75.6911399,335.944131 79.8341848,339.499379 C81.146149,340.672956 83.1140953,338.705489 81.7676057,337.531912 Z" id="Path" fill="#F0F7FA"></path>
                        <path d="M205.78275,394.76105 C199.533657,391.723557 194.458427,386.476977 191.799974,379.987787 C189.106994,373.429562 189.935603,365.801312 186.414015,359.55374 C179.750618,347.714419 163.040337,350.337709 151.81959,347.610868 C143.326348,345.574367 135.316461,341.604914 128.514963,336.116716 C127.133948,335.012173 125.166001,336.945123 126.547016,338.084183 C132.347279,342.778491 138.9071,346.437291 146.019327,348.818962 C152.855351,351.131599 159.794952,351.614837 166.907179,352.477761 C173.01817,353.202618 180.026821,354.65233 183.61746,360.24408 C185.585406,363.350607 186.206863,367.07844 186.759269,370.668205 C187.3462,374.292487 187.933132,377.847734 189.348672,381.230398 C192.248804,388.133792 197.634762,393.863609 204.401735,397.177238 C205.955377,397.936611 207.370917,395.55494 205.78275,394.76105 Z" id="Path" fill="#F0F7FA"></path>
                        <path d="M225.013384,373.9128 C218.557139,371.496612 212.791401,367.251025 208.613831,361.762826 C204.263634,356.033009 202.640941,348.715411 197.87644,343.227212 C189.106994,333.079222 174.778964,331.215306 162.556982,327.86716 C155.064975,325.830659 147.572969,323.000267 142.083435,317.27045 C140.840521,315.993322 138.9071,317.926272 140.115488,319.237917 C149.989745,329.558492 164.870182,330.663035 177.782672,334.70152 C184.100815,336.668987 190.453484,339.395828 195.079884,344.262721 C200.224165,349.612853 201.777807,357.27562 206.23158,363.143505 C210.823455,369.253009 217.107073,373.878283 224.288351,376.570607 C225.945569,377.191912 226.670602,374.534105 225.013384,373.9128 Z" id="Path" fill="#F0F7FA"></path>
                        <path d="M251.90865,345.125645 C244.416644,335.081207 236.026978,324.726116 222.769234,323.034784 C215.346279,322.068309 207.923323,323.414471 200.465843,323.034784 C193.491717,322.689614 186.690218,320.825698 180.233973,318.236925 C172.741967,315.199432 165.733316,311.091912 158.931817,306.777291 C157.412701,305.810816 156.031686,308.227004 157.550802,309.158962 C168.944176,316.373009 181.235209,323.172852 194.769156,325.209353 C201.812332,326.279379 208.786458,325.520006 215.829634,325.450972 C222.907336,325.381938 229.432632,326.7281 235.232895,330.93917 C240.964107,335.115724 245.348829,340.914575 249.526399,346.540842 C250.562161,347.921521 252.978937,346.575359 251.90865,345.125645 Z" id="Path" fill="#F0F7FA"></path>
                        <path d="M117.570419,331.077238 C117.259691,331.008204 116.948962,330.93917 116.638234,330.904653 C116.500132,329.662042 116.362031,328.419431 116.189404,327.176821 C116.085828,326.451964 115.602473,325.796142 114.808389,325.796142 C114.117881,325.796142 113.323798,326.417447 113.427374,327.176821 L113.807153,330.352382 C113.703577,330.317865 113.600001,330.317865 113.461899,330.283348 C111.735631,329.938178 110.976072,332.595985 112.736866,332.941155 C114.117881,333.21729 115.464371,333.493426 116.845386,333.769562 C118.571655,334.114732 119.331213,331.456925 117.570419,331.077238 Z" id="Path" fill="#F0F7FA"></path>
                        <path d="M98.857666,511.600995 C97.9254809,510.082248 95.5432301,511.462927 96.4754152,512.981674 C96.9242451,513.741047 96.7516182,514.880107 95.9230092,515.294311 C95.0253495,515.743031 93.9550629,515.018175 93.7133852,514.155251 C93.23003,512.429402 90.5715762,513.154258 91.0549314,514.880107 C91.7454389,517.399846 94.6800957,518.953109 97.0968719,517.779532 C99.3755466,516.744023 100.135105,513.70653 98.857666,511.600995 Z" id="Path" fill="#F0F7FA"></path>
                        <path d="M92.7121494,485.506165 C91.296609,483.849351 90.2953732,481.9164 89.6739165,479.845382 C89.1560358,478.15405 86.497582,478.878907 87.0154626,480.570238 C87.7750209,483.124494 89.0524597,485.402614 90.7787284,487.473632 C91.9180658,488.819794 93.8514867,486.852327 92.7121494,485.506165 Z" id="Path" fill="#F0F7FA"></path>
                        <path d="M394.18772,69.4386026 C392.116197,68.0579238 390.044675,66.6772449 387.973152,65.2965661 C386.488561,64.295574 385.107546,66.7117619 386.592137,67.6782371 C388.66366,69.0589159 390.735182,70.4395947 392.806705,71.8202735 C394.291296,72.8212657 395.672311,70.4395947 394.18772,69.4386026 Z" id="Path" fill="#F0F7FA"></path>
                        <path d="M411.519457,69.9908741 C410.069392,68.920848 408.722902,67.7127541 407.514514,66.3665922 C406.340651,65.0549473 404.372705,66.9878977 405.546568,68.3340595 C406.927583,69.8528062 408.446699,71.1989681 410.103917,72.407062 C410.725374,72.8557826 411.657559,72.5106129 412.002813,71.9238244 C412.451643,71.1989681 412.140914,70.4395947 411.519457,69.9908741 Z" id="Path" fill="#F0F7FA"></path>
                        <path d="M417.872126,88.1122836 C416.560162,86.5935369 415.213672,85.0402732 413.901708,83.5215265 C412.727846,82.1753647 410.794425,84.142832 411.933762,85.4889938 C413.245726,87.0077405 414.592216,88.5610042 415.90418,90.0797509 C417.078043,91.4259127 419.045989,89.4584454 417.872126,88.1122836 Z" id="Path" fill="#F0F7FA"></path>
                        <path d="M433.546646,94.3598552 C432.856139,92.219803 432.165631,90.0797509 431.475124,87.9051817 C430.922718,86.2138502 428.264264,86.9387066 428.81667,88.6300381 C429.507177,90.7700903 430.197685,92.9101424 430.888192,95.0847116 C431.440598,96.7760431 434.099052,96.0511868 433.546646,94.3598552 Z" id="Path" fill="#F0F7FA"></path>
                        <path d="M435.376491,109.547322 C434.651458,108.8915 434.375255,108.097609 434.444306,107.131134 C434.513357,106.371761 433.753798,105.750455 433.063291,105.750455 C432.269207,105.750455 431.751327,106.371761 431.682276,107.131134 C431.544175,108.753432 432.200157,110.375729 433.408545,111.480273 C434.720509,112.688366 436.688455,110.755416 435.376491,109.547322 Z" id="Path" fill="#F0F7FA"></path>
                        <path d="M467.588665,153.004188 L464.377805,143.719123 C463.790874,142.062308 461.13242,142.752648 461.719352,144.443979 C462.789638,147.550507 463.859925,150.622517 464.930211,153.729044 C465.482617,155.385859 468.175597,154.661002 467.588665,153.004188 Z" id="Path" fill="#F0F7FA"></path>
                        <path d="M475.564027,145.824658 C475.149722,144.09881 472.491268,144.823666 472.905573,146.549514 C473.388928,148.65505 473.250827,150.829619 472.353167,152.831603 C471.628134,154.453901 474.010385,155.834579 474.735418,154.212282 C475.943806,151.519958 476.254534,148.724084 475.564027,145.824658 Z" id="Path" fill="#F0F7FA"></path>
                        <path d="M472.042439,167.570349 C471.351931,169.296198 470.695949,171.022046 470.005441,172.782412 C469.349459,174.439227 472.042439,175.164083 472.663895,173.507268 C473.354403,171.78142 474.010385,170.055571 474.700892,168.295206 C475.356875,166.638391 472.698421,165.913535 472.042439,167.570349 Z" id="Path" fill="#F0F7FA"></path>
                        <path d="M456.95485,225.55886 C456.575071,223.487841 456.229817,221.416823 455.850038,219.345805 C455.53931,217.58544 452.880856,218.344813 453.191584,220.070661 C453.571363,222.14168 453.916617,224.212698 454.296396,226.283716 C454.607125,228.044082 457.265578,227.284708 456.95485,225.55886 Z" id="Path" fill="#F0F7FA"></path>
                        <path d="M465.24094,222.452332 C464.930211,220.691967 462.237232,221.45134 462.582486,223.177189 C463.065841,225.765962 462.755113,228.320217 461.788402,230.770922 C461.13242,232.427737 463.790874,233.152593 464.446856,231.495779 C465.586194,228.596353 465.827871,225.524343 465.24094,222.452332 Z" id="Path" fill="#F0F7FA"></path>
                        <path d="M454.399972,244.819329 C453.364211,246.545178 452.362975,248.271026 451.327214,250.031392 C450.429554,251.550138 452.811805,252.965334 453.709465,251.412071 C454.745226,249.686222 455.746462,247.960373 456.782223,246.200008 C457.714408,244.681261 455.332157,243.300582 454.399972,244.819329 Z" id="Path" fill="#F0F7FA"></path>
                    </g>
                    <path d="M33.1213535,336.358335 C32.3617953,335.253792 31.602237,334.114732 30.8426788,333.010189 C30.221222,332.112747 29.5652399,330.663035 28.7366309,329.938178 C27.5972936,328.971703 26.0436518,329.523975 25.0078905,330.317865 C24.4554845,330.732069 23.9721293,331.249823 23.4197233,331.664027 C22.6256397,332.250815 22.6946904,332.009196 22.2113352,331.111755 C20.9338964,328.730084 19.7255083,326.313896 18.4825948,323.932225 C17.9647142,322.931233 16.6527499,323.138335 16.100344,323.932225 C15.0645827,325.347421 14.0633469,326.762617 13.0275856,328.21233 C10.9905886,325.520006 9.47147209,322.482513 8.47023623,319.237917 C7.95235562,317.546586 5.2939018,318.271442 5.81178241,319.962774 C7.08922126,324.242878 9.19526909,328.074262 12.0954005,331.456925 C12.7168573,332.181781 13.7871439,331.836612 14.2704991,331.180789 C15.2026842,329.869144 16.1348693,328.557499 17.0670544,327.280371 C17.7230365,328.557499 18.3790187,329.834627 19.0350008,331.077238 C19.7255083,332.4234 20.3814904,334.252799 21.9696576,334.736037 C22.9708934,335.012173 23.9721293,334.597969 24.7662129,334.045698 C25.2495681,333.700528 26.2162786,332.492434 26.9413115,332.285332 C28.184225,334.114732 29.4271384,335.944131 30.7045773,337.77353 C31.7403385,339.223243 34.1225893,337.842564 33.1213535,336.358335 Z" id="Path" fill="#E8C221"></path>
                    <path d="M35.0547743,347.956038 C34.3297416,350.165124 33.6392341,352.37421 32.9142012,354.583296 C31.602237,353.547787 30.2557474,352.512278 28.9437832,351.476769 C27.6663443,350.475777 26.0091264,348.646378 24.2138069,348.853479 C22.6601651,349.060581 21.9696576,350.372226 21.3827262,351.683871 C20.5541172,353.444236 19.7600336,355.204602 18.96595,356.964967 L13.1311618,351.649354 C12.4061289,350.993532 11.0941647,351.200633 10.8179617,352.270659 L8.26308399,362.694784 C7.8487795,364.420633 10.5072333,365.145489 10.9215378,363.419641 C11.5775199,360.6928 12.2680274,357.96596 12.9240095,355.204602 C14.7538544,356.861416 16.6182246,358.552748 18.4480694,360.209563 C19.0350008,360.761834 20.2433889,360.796351 20.623168,359.933427 C21.2791501,358.483714 21.9696576,357.034001 22.6256397,355.549772 C23.0054188,354.686847 23.9030785,351.752905 24.7316875,351.718388 C25.2495681,351.683871 26.3198547,352.857448 26.7341592,353.202618 C27.355616,353.685855 27.9770727,354.20361 28.6330548,354.686847 C29.9795444,355.756873 31.326034,356.792383 32.6725236,357.862409 C33.5011326,358.518231 34.6404698,358.311129 34.9857236,357.241103 C35.9179087,354.376195 36.8155684,351.545803 37.7477535,348.680894 C38.2656341,346.989563 35.6071803,346.264707 35.0547743,347.956038 Z" id="Path" fill="#E8C221"></path>
                    <path d="M46.8279269,363.523192 C46.6553001,365.283557 46.4826732,367.07844 46.3100463,368.838805 C44.5837776,368.113949 42.8229835,367.354575 41.0967148,366.629719 C40.2681058,366.284549 39.3359207,366.526168 39.0597177,367.458126 C38.3001595,370.115933 37.7822789,372.808257 37.5751266,375.569614 C35.2619266,374.327004 32.983252,373.084393 30.6700519,371.841782 C29.9104937,371.427578 28.8747324,371.772748 28.6330548,372.670189 C27.9425473,375.569614 27.3901414,378.503557 27.0103622,381.506533 C26.7686846,383.266899 29.5307146,383.232382 29.7723922,381.506533 C30.0485952,379.366481 30.4283743,377.226429 30.9117295,375.120894 C33.3285057,376.432539 35.7452818,377.709667 38.1275326,379.021311 C39.0597177,379.539066 40.1645297,378.883244 40.1990551,377.813218 C40.2681058,375.05186 40.6478849,372.359536 41.3038671,369.701729 C43.1337119,370.461103 44.9635567,371.254993 46.7934016,372.014366 C47.7946374,372.42857 48.7613479,371.945333 48.864924,370.806273 C49.1066016,368.355568 49.3482793,365.93938 49.5554315,363.488675 C49.7280584,361.762826 46.9660284,361.762826 46.8279269,363.523192 Z" id="Path" fill="#E8C221"></path>
                </g>
                <rect id="Rectangle" stroke="#979797" fill="#D8D8D8" opacity="0" x="0" y="0" width="676" height="840"></rect>
            </g>
        </g>
    </g>
</svg>