<?xml version="1.0" encoding="UTF-8"?>
<svg width="801px" height="840px" viewBox="0 0 801 840" version="1.1" xmlns="http://www.w3.org/2000/svg" xmlns:xlink="http://www.w3.org/1999/xlink">
    <title>Group</title>
    <g id="Page-1" stroke="none" stroke-width="1" fill="none" fill-rule="evenodd">
        <g id="Group" transform="translate(0.662781, 0.000000)">
            <rect id="Rectangle" stroke="#979797" fill="#D8D8D8" opacity="0" x="0.5" y="17.3382922" width="799" height="799"></rect>
            <g id="8" transform="translate(55.337219, 0.000000)">
                <rect id="Rectangle" stroke="#979797" opacity="0" x="0" y="0" width="651" height="840"></rect>
                <g transform="translate(76.000000, 24.000000)" fill-rule="nonzero">
                    <path d="M497.20485,720.032763 C487.707433,708.499858 473.080023,703.567109 458.660586,702.038651 C450.896274,701.204947 443.062637,701.30916 435.263663,701.587062 C426.563473,701.899701 417.897946,702.35129 409.232419,702.733405 C378.417805,704.088174 347.60319,705.442943 316.788574,706.83245 L300.844004,705.92927 C284.240854,704.991353 267.672367,703.879748 251.069217,703.428158 C234.916674,702.976568 218.660145,703.184994 202.576927,705.060829 C194.639304,705.964008 186.736343,707.318777 178.937369,709.194611 C171.589002,710.966232 163.963338,712.946279 157.204227,716.385308 C146.354987,721.908597 133.356696,733.024651 135.88703,746.711291 C137.273515,754.110415 142.992762,759.216852 149.266604,762.690618 C156.372336,766.615975 163.928676,769.777102 171.658326,772.278214 C187.152289,777.280438 203.339493,779.781551 219.492036,781.483696 C236.476469,783.290055 253.564888,784.471136 270.618646,785.409053 C305.315416,787.250149 340.081511,787.493313 374.778283,786.138544 C392.386634,785.44379 409.994986,784.366923 427.534012,782.873203 C436.130215,782.143712 444.726418,781.310008 453.287959,780.372091 C460.497678,779.607862 467.77672,778.913109 474.847791,777.454127 C487.638109,774.779326 500.913696,768.491809 505.41977,755.22202 C509.579223,743.029099 505.073149,729.585622 497.20485,720.032763 Z" id="Path" fill="#E4ECEF"></path>
                    <path d="M471.762863,123.969131 C464.830441,120.182725 456.996805,118.411104 449.163168,119.105858 C452.456068,104.342349 448.712561,88.501973 440.15102,76.1006258 C430.480292,62.1708213 415.055653,53.2779785 398.55649,50.0473755 C394.397037,49.2136715 390.133597,48.7273441 385.870158,48.5883935 C383.721107,48.5189181 381.572057,48.5189181 379.423006,48.6231311 C377.377942,48.7273441 374.88227,49.3178845 372.837205,48.8315571 C370.549506,48.2410168 369.890926,45.8093801 368.955049,43.8988084 C368.088496,42.0924497 367.117957,40.3555663 366.043432,38.6534206 C363.963706,35.3186046 361.537358,32.1227392 358.868376,29.2395128 C348.019136,17.532919 332.767806,10.0295829 316.788574,9.19587884 C299.214885,8.25796183 281.433224,15.2749706 269.093513,27.8152684 C261.710484,14.0244146 247.810978,3.9504911 232.490326,0.928314077 C215.991163,-2.33702663 199.076054,3.18626244 186.978978,14.7539056 C181.363716,20.1035063 176.961629,26.6689254 174.153998,33.8943602 C164.240635,20.138244 148.573362,11.0022375 131.727577,8.88323984 C113.460646,6.59055381 95.2283769,13.5728249 82.3687347,26.5994501 C75.9909068,33.0606562 71.0342252,40.911369 68.087946,49.4915728 C62.8539676,45.2883151 55.9908702,43.412481 49.2664211,43.7945954 C40.7048803,44.2461851 32.9405682,48.2410168 26.493416,53.7643059 C14.2576917,64.185606 4.93358455,80.1996706 4.44831503,96.5263741 C4.20568027,104.446562 6.52804154,112.158324 11.7620199,118.02899 C0.150213581,134.251481 -3.07336251,155.754097 3.02716858,174.755601 C9.26634811,194.208694 25.3495664,208.798514 44.760347,214.495492 C53.8764816,217.170292 63.5125477,217.830308 72.8366549,216.232375 C72.7326686,216.371326 72.6286822,216.545014 72.559358,216.75344 C66.9094343,231.412736 67.5333523,248.052078 73.8071939,262.433472 C79.907725,276.398015 91.6235177,287.097216 105.627009,292.794193 C113.044701,295.816371 121.051648,297.275353 129.058595,297.101664 C132.420819,308.63457 141.675602,317.492675 152.559504,322.112785 C165.661781,327.670811 180.323853,326.559206 193.391468,321.452769 C200.705173,318.60428 207.533608,314.678924 213.876774,310.058814 C222.403653,328.052926 243.859498,337.536309 263.200955,333.993067 C268.088312,333.089887 272.767696,331.283529 276.961812,328.608728 C282.369101,341.53114 291.06929,353.272473 303.097041,360.671596 C315.159455,368.07072 330.237472,370.050767 343.617046,365.118018 C350.272173,362.686381 356.060745,358.691549 360.497495,353.272473 C373.045178,359.455778 387.464615,351.674541 397.308654,343.47645 C407.6033,334.930984 418.383216,322.425424 414.67437,308.009292 C413.530521,303.528133 411.034849,299.429088 407.395327,296.71955 C425.627596,290.918359 443.859866,283.137122 457.655385,269.554694 C470.965634,256.493331 478.348663,237.908679 475.610357,219.219814 C474.362521,210.778561 470.826986,202.823636 464.96909,196.675068 C479.041906,192.054959 489.925808,178.924121 492.352155,164.299563 C495.194448,147.729695 486.286286,131.889319 471.762863,123.969131 Z" id="Path" fill="#9A9190"></path>
                    <path d="M279.041538,211.299626 C267.117773,197.057183 248.434896,189.831748 230.133303,189.692797 C210.965157,189.553847 192.836874,197.578248 178.313451,209.805907 C171.207719,215.780785 165.003201,222.763057 159.665237,230.370606 C154.257948,219.845092 145.592421,211.0912 135.020477,205.672124 C122.40347,199.210918 107.672074,197.925624 94.0498653,201.885719 C86.285553,204.143667 79.1104965,208.034286 72.9753033,213.279673 C71.9354401,214.148115 72.0740885,215.919736 72.9753033,216.822915 C73.9805045,217.830308 75.4709751,217.691357 76.5108384,216.822915 C86.3895393,208.346925 99.5264784,204.074192 112.455445,204.629994 C124.86448,205.185797 136.649597,210.639611 145.488434,219.324027 C150.306467,224.083088 154.327272,229.814803 156.892268,236.032845 C157.689496,237.978155 160.21983,238.568695 161.467666,236.623386 C171.277043,221.338812 185.003238,208.312187 201.64105,200.808851 C217.654944,193.583416 235.887213,192.610761 252.386377,198.689853 C261.294539,201.955194 269.37081,207.443745 275.540665,214.808131 C276.407218,215.850261 278.174985,215.71131 279.0762,214.808131 C280.046739,213.835476 279.908091,212.341756 279.041538,211.299626 Z" id="Path" fill="#6C6464"></path>
                    <path d="M384.622322,163.847973 C381.988002,148.667612 371.76268,134.876759 358.9377,126.643932 C346.979272,118.966907 331.069363,115.840517 318.105734,122.996476 C306.909873,129.179781 298.868264,142.171669 301.086639,155.198294 C301.329274,156.692014 301.779881,158.185733 302.334475,159.609978 C302.819744,160.860534 303.998256,161.728975 305.419403,161.346861 C306.597914,161.034222 307.67244,159.540502 307.152508,158.255209 C305.072782,152.905608 305.315416,147.556007 307.360481,142.206406 C309.301559,137.204182 313.045066,132.514597 317.447154,129.318732 C322.403836,125.740752 328.088422,123.969131 334.223615,123.934393 C340.774753,123.899656 347.221907,125.810228 352.941155,128.90188 C365.142217,135.467299 374.986256,147.243368 378.764426,160.652108 C380.601518,167.182789 380.844152,174.02611 378.972399,180.591529 C377.377942,186.149555 374.362338,191.221255 370.514844,195.528725 C362.265262,204.69947 350.896091,210.778561 339.388269,214.808131 C337.93246,215.329196 336.476652,215.780785 334.986181,216.232375 C334.015642,216.545014 333.079765,217.552406 333.149089,218.629274 C334.570236,236.310747 323.928969,252.672188 309.336221,261.947145 C301.537246,266.914631 292.698409,269.832595 283.443626,270.492611 C273.32229,271.222102 263.200955,269.589432 253.634213,266.289353 C242.715648,262.502948 232.490326,256.528069 223.51284,249.233159 C222.091694,248.086816 219.873319,248.399455 219.353387,250.344764 C216.511094,260.418688 209.682659,269.137842 200.739835,274.522181 C191.346404,280.149683 180.011894,281.504452 169.474613,278.655963 C163.547393,277.05803 158.001455,274.209542 153.356733,270.145234 C152.351532,269.242055 150.826399,269.137842 149.821198,270.145234 C148.919983,271.048414 148.815997,272.785297 149.821198,273.688477 C159.145305,281.817091 171.692988,285.985611 183.998037,284.978218 C195.88714,284.005564 207.013677,278.169636 214.743327,269.068367 C218.2442,264.934584 221.051831,260.244999 222.958247,255.1733 C239.249438,267.609385 259.284136,276.154851 279.977415,275.703261 C290.133413,275.460098 300.046776,272.993723 308.920276,268.026237 C317.273844,263.336652 324.518224,256.701757 329.821527,248.712094 C335.332802,240.409791 338.521716,230.474819 338.140433,220.47037 C350.306835,216.545014 362.265262,210.604873 371.485383,201.642555 C376.234092,197.022445 380.081586,191.568631 382.507934,185.420064 C385.350226,178.576744 385.870158,171.073408 384.622322,163.847973 Z" id="Path" fill="#6C6464"></path>
                    <path d="M313.634322,64.185606 C307.880412,63.6298033 301.814543,64.8803593 296.303268,66.4435544 C290.341385,68.1457001 284.552813,70.6815498 279.284173,73.9468905 C274.778099,76.7259038 270.583984,80.0259822 266.875138,83.8123879 C264.240818,72.5226461 253.42624,64.185606 242.161055,62.1360836 C234.985998,60.85079 227.914928,61.997133 221.5371,65.5056374 C214.916637,69.1183547 209.578673,74.8500698 205.869827,81.3807512 C203.235507,86.0355986 201.329091,91.0725604 200.219903,96.3179481 C193.980724,86.209287 182.022297,79.9217692 170.167855,79.4007042 C162.403543,79.0533275 154.673893,81.3807512 148.434713,86.0355986 C141.814251,90.9336097 136.996218,97.7421925 134.084601,105.419217 C132.074198,110.768818 131.068997,116.53527 131.207646,122.301723 C123.755292,114.31206 113.079363,108.927721 102.195461,110.14354 C98.6599257,110.525654 95.2977012,111.567784 92.3167598,113.26993 C92.2474356,113.165717 92.1434493,113.061504 92.039463,112.957291 C84.1365022,105.870807 72.3513854,104.307612 62.6806571,108.441394 C60.8435654,109.205623 59.145122,110.213015 57.5506651,111.359358 C54.1537784,106.808724 48.8504758,103.786547 43.2698764,102.709679 C35.9561715,101.285435 28.6078046,103.057056 22.1259903,106.530822 C18.3131584,108.580345 14.8469476,111.220407 11.6233715,114.068896 C10.6181703,114.972075 10.7221567,116.708959 11.6233715,117.612138 C12.6285726,118.61953 14.1537054,118.515317 15.1589065,117.612138 C20.0809259,113.235192 25.7655117,109.518262 32.1780018,107.920329 C37.8279253,106.496085 43.7204838,107.121363 48.6425032,109.969851 C51.3114855,111.533046 53.3565499,113.582569 54.8123585,116.326844 C55.609587,117.785826 57.6199893,117.890039 58.7291767,116.847909 C66.5974754,109.483524 80.0810355,109.24036 88.226631,116.257369 C87.4640647,116.952122 86.7708225,117.681613 86.0775803,118.48058 C82.2994105,122.996476 80.0117113,128.589241 79.5611039,134.459907 C79.0758344,140.782162 81.3288715,147.347581 86.3202151,151.377151 C87.3600783,152.210855 88.8158869,152.419281 89.8557501,151.377151 C90.7223028,150.508709 90.8956134,148.70235 89.8557501,147.833908 C87.9146721,146.270713 86.7361604,144.776994 85.6962971,142.484308 C85.6962971,142.44957 85.661635,142.380095 85.6269729,142.310619 C85.5923108,142.206406 85.5576487,142.102193 85.5229866,141.99798 C85.4536624,141.754817 85.349676,141.511653 85.2803518,141.268489 C85.1070413,140.677949 84.9337307,140.087409 84.8297444,139.496868 C84.5871096,138.350525 84.5177854,137.69051 84.5177854,136.335741 C84.4484612,131.57668 86.0429182,126.956571 88.9198732,122.961739 C90.0983849,121.329068 92.0741251,119.349021 93.7379063,118.237416 C96.0256054,116.708959 98.1053319,115.909992 100.843639,115.388927 C106.701535,114.242584 112.836728,115.666829 118.036044,118.445842 C124.275224,121.74592 129.439878,126.852358 132.871427,133.035662 C134.257911,135.536774 138.174729,133.834629 137.446825,131.125091 C133.772642,117.334237 138.313378,101.493861 149.093293,91.9757397 C154.223286,87.4251053 160.774424,84.7155673 167.429549,84.4724036 C174.153998,84.2292399 180.843785,86.0703363 186.563033,89.6830537 C192.836874,93.6084101 197.550921,99.6180265 199.145378,106.912937 C199.769296,109.726688 203.963411,108.997197 204.032735,106.252921 C204.379356,93.1915581 210.133266,79.2270159 221.190479,71.7236798 C226.45912,68.1109624 232.317016,66.3046037 238.62552,66.8256687 C244.171457,67.2772584 250.098678,69.6741574 254.431441,73.2868748 C259.457447,77.5248702 262.681023,83.2565853 262.507712,89.752529 C262.47305,91.8020514 265.350005,93.2262957 266.771152,91.52415 C273.946208,82.9092086 283.408964,76.2743142 294.015569,72.5573838 C303.131703,69.3615184 314.015606,67.2425207 322.785119,72.1057941 C324.656873,73.1479241 326.42464,74.5374308 327.429842,76.1701012 C328.019097,77.1080182 328.157746,77.4901325 328.400381,78.6364755 C328.400381,78.7059509 328.435043,78.7754262 328.435043,78.8101639 C328.435043,78.8449015 328.435043,78.9143769 328.435043,79.0185899 C328.435043,79.2964912 328.469705,79.5396549 328.469705,79.8175562 C328.469705,80.5470472 328.435043,80.6165226 328.22707,81.3807512 C327.464504,84.5071413 332.282537,85.8271726 333.045103,82.7007826 C335.78341,71.0984018 322.923767,65.0540477 313.634322,64.185606 Z" id="Path" fill="#6C6464"></path>
                    <path d="M248.261586,146.270713 C242.403689,139.218967 232.975596,134.11253 223.616827,135.085185 C219.180077,135.536774 215.193934,137.204182 211.901034,140.226359 C208.989417,142.90116 206.805704,146.479139 205.800503,150.300283 C204.656653,154.711967 205.107261,159.471027 207.56827,163.361646 C208.296175,164.507989 209.786645,164.959578 210.999819,164.264825 C212.143669,163.604809 212.628938,161.972139 211.901034,160.825796 C211.658399,160.443682 211.450427,160.096305 211.242454,159.714191 C211.17313,159.57524 211.103806,159.401552 211.034481,159.262601 C210.999819,159.227863 210.999819,159.193126 210.965157,159.158388 C210.965157,159.12365 210.965157,159.12365 210.930495,159.054175 C210.618536,158.255209 210.410563,157.456242 210.271915,156.622538 C210.271915,156.587801 210.271915,156.553063 210.237253,156.518325 C210.237253,156.483588 210.237253,156.44885 210.237253,156.414112 C210.237253,156.240424 210.202591,156.066736 210.202591,155.927785 C210.167929,155.510933 210.167929,155.094081 210.167929,154.677229 C210.167929,154.295115 210.202591,153.913 210.237253,153.530886 C210.237253,153.461411 210.237253,153.426673 210.237253,153.426673 C210.237253,153.391935 210.237253,153.357198 210.237253,153.32246 C210.271915,153.079296 210.306577,152.801395 210.375901,152.558231 C211.034481,149.466579 212.49029,146.757041 214.639341,144.53383 C215.887176,143.248536 216.823053,142.519045 218.41751,141.685341 C219.803995,140.95585 221.502438,140.400048 223.33953,140.156884 C226.875065,139.670557 230.722559,140.36531 234.18877,141.824292 C238.244236,143.561175 241.883758,146.409664 244.726051,149.848693 C245.592603,150.890823 247.360371,150.751873 248.261586,149.848693 C249.266787,148.771825 249.128138,147.312843 248.261586,146.270713 Z" id="Path" fill="#6C6464"></path>
                    <path d="M405.350263,298.282745 C405.003642,297.066927 403.547833,296.059534 402.265335,296.545862 C402.022701,296.650075 401.780066,296.71955 401.502769,296.789025 C401.433445,296.823763 401.017499,296.858501 401.017499,296.893238 C400.462906,296.962714 399.87365,296.927976 399.319056,296.893238 C398.140544,296.789025 396.962033,296.580599 395.783521,296.476386 C393.114539,296.198485 390.34157,296.71955 388.608465,298.977498 C387.672588,300.193317 387.256642,301.687036 386.910021,303.180756 C386.771373,303.771296 386.632724,304.327099 386.459414,304.882902 C386.39009,305.160803 386.286103,305.403967 386.182117,305.64713 C386.078131,305.959769 386.147455,305.786081 385.939482,306.168195 C384.934281,308.356668 383.825094,309.81565 382.091988,311.413583 C380.532193,312.837827 378.695102,314.018908 376.615375,315.0263 C374.778283,315.894742 372.317274,316.658971 370.064237,317.041085 C368.053834,317.388462 365.5235,317.457937 363.201139,317.249511 C360.220198,316.97161 357.308581,316.242119 354.466288,315.304202 C347.915149,313.115729 341.883941,309.607224 335.922058,306.168195 C334.431587,305.299754 331.970578,306.376621 332.17855,308.321931 C332.594496,312.3515 331.762605,315.998955 329.786865,319.437984 C327.811125,322.877013 324.864845,325.794977 321.537283,327.913975 C313.668984,332.881461 304.032918,332.846724 295.194081,330.276136 C289.613481,328.643466 284.414165,326.072879 279.457483,323.085439 C276.684515,321.418031 274.188843,325.725502 276.927149,327.39291 C286.424567,333.159363 297.48178,337.640522 308.816289,336.980506 C318.660328,336.389966 327.984435,331.457217 333.426386,323.085439 C335.471451,319.959049 336.788611,316.346332 337.204556,312.664139 C346.701976,318.048477 357.169932,323.259128 368.227145,322.286473 C378.17517,321.418031 388.643127,315.721054 391.48542,305.50818 C391.832041,304.327099 391.866703,302.729166 392.767918,301.791249 C392.767918,301.791249 392.837242,301.721774 392.906566,301.687036 C392.97589,301.652299 393.114539,301.582823 393.149201,301.548086 C393.183863,301.548086 393.183863,301.548086 393.253187,301.513348 C393.426498,301.47861 393.565146,301.443873 393.738457,301.409135 C393.738457,301.409135 393.773119,301.409135 393.773119,301.409135 C393.911767,301.409135 394.050416,301.374397 394.223726,301.374397 C394.535685,301.374397 394.847644,301.374397 395.159603,301.409135 C398.001896,301.582823 400.878851,302.451265 403.65182,301.374397 C404.864994,300.853332 405.731546,299.672252 405.350263,298.282745 Z" id="Path" fill="#6C6464"></path>
                    <path d="M362.646545,351.917704 C356.442028,350.806099 351.034739,347.089167 347.845825,341.600616 C346.251366,338.821602 341.918603,341.322714 343.547722,344.136466 C347.291231,350.632411 353.911694,355.391471 361.329385,356.74624 C362.646545,356.989404 364.03303,356.398863 364.414313,355.009357 C364.726272,353.793538 363.998368,352.160868 362.646545,351.917704 Z" id="Path" fill="#6C6464"></path>
                    <path d="M453.357283,124.663884 C452.525393,121.572232 447.70736,122.857526 448.53925,125.983916 C452.144109,139.462131 447.360738,154.538278 437.239403,164.19535 C434.39711,166.904888 431.242858,169.058623 427.603337,170.760769 C426.424825,171.316571 426.043542,173.12293 426.702122,174.199798 C431.000223,180.938905 432.213397,189.310683 430.099008,196.987707 C428.053944,204.421568 422.88929,210.465922 416.164841,214.009164 C412.525319,215.919736 408.435191,217.066079 404.379724,217.20503 C403.027902,217.239767 401.884052,218.316635 401.884052,219.706142 C401.884052,221.026173 403.027902,222.276729 404.379724,222.207254 C413.114575,221.859877 421.57213,217.969258 427.49935,211.54279 C433.703868,204.83842 436.754133,195.632938 435.922243,186.53167 C435.506297,182.154724 434.327786,177.847253 432.282721,173.956634 C445.281012,166.800675 453.669242,152.454018 454.605119,137.725247 C454.917078,133.348301 454.466471,128.90188 453.357283,124.663884 Z" id="Path" fill="#6C6464"></path>
                    <path d="M51.6234445,61.4413303 C51.138175,58.1759896 48.5385169,55.9180412 45.2802787,55.6401399 C42.3339994,55.3969762 39.5610308,56.7517452 36.9267105,57.9328259 C32.0740155,60.0865613 27.2559824,62.9003123 23.7204473,66.9298817 C20.739506,70.2994354 17.8972131,75.4058725 19.1103869,79.8522939 C19.0064006,80.7902109 18.9717385,81.6933902 19.0757248,82.6313073 C19.4223459,85.688222 21.2940997,88.606186 24.6216622,88.814612 C27.3946308,88.9883003 30.3409101,87.2861546 32.7325955,86.000861 C37.41198,83.4997489 41.7100815,80.0259822 45.1069681,75.9616752 C48.3305442,72.0363188 52.420673,66.790931 51.6234445,61.4413303 Z M39.2837339,67.728848 C39.2144097,67.3814714 39.1104234,67.0340947 38.9371128,66.686718 C38.9371128,66.686718 38.9717749,66.6519804 38.9717749,66.6519804 C39.8383276,66.374079 40.4622456,65.853014 40.8435288,65.227736 C40.9475151,65.1582607 41.0861635,65.0887853 41.1901499,65.01931 C40.5662319,65.9224894 39.942314,66.8256687 39.2837339,67.728848 Z" id="Shape" fill="#FFF2F1"></path>
                    <path d="M34.2923904,161.555287 C34.2577283,158.915224 33.9457693,156.275162 33.3911756,153.704574 C33.1138787,147.347581 31.1728007,141.094801 27.5679414,135.7452 C26.3201055,133.904104 22.9232188,133.244088 21.7793693,135.60625 C20.8434923,135.814676 20.0116017,136.370478 19.5609943,137.204182 C15.6441761,144.290666 15.2628929,152.940346 18.1398479,160.374206 C18.3478205,161.381599 18.6251174,162.354253 18.9024143,163.326908 C19.4223459,165.689069 20.1155881,168.016493 21.051465,170.274441 C22.1606525,173.018717 24.240379,175.450354 27.4639551,175.20719 C30.6182069,174.964027 32.5939471,172.185013 33.4604998,169.406 C34.2230662,166.974363 34.3270525,164.091137 34.2923904,161.555287 Z" id="Path" fill="#FFF2F1"></path>
                    <path d="M130.999673,25.5920577 C130.167782,24.7930914 129.127919,24.306764 128.018732,24.098338 C127.810759,24.0288627 127.602786,23.994125 127.394814,23.994125 C126.250964,23.8204367 125.03779,23.8551744 123.893941,23.9246497 C123.408671,23.9593874 122.888739,23.994125 122.40347,24.0288627 C122.126173,23.8204367 121.779552,23.681486 121.398269,23.6120107 C115.921656,22.7088314 110.930312,24.6541407 106.528224,27.8847438 C102.646068,30.7332325 96.5801992,34.9712279 97.3427656,40.5292547 C97.7240488,43.2735304 99.7691132,45.3925281 102.438096,46.0178061 C104.795119,46.5736088 107.221466,46.0872814 109.439841,45.3577904 C114.535171,43.6903824 119.457191,41.3629587 123.963265,38.4797323 C126.18164,37.0207503 128.504001,35.4922929 130.445079,33.6859342 C132.732778,31.4974611 133.42602,27.9542191 130.999673,25.5920577 Z" id="Path" fill="#FFF2F1"></path>
                    <circle id="Oval" fill="#F4BAAB" transform="translate(64.871961, 370.962769) rotate(-17.818889) translate(-64.871961, -370.962769) " cx="64.8719613" cy="370.962769" r="1"></circle>
                    <path d="M451.416205,676.992793 C450.237694,669.975785 449.02452,662.993514 447.70736,656.011242 C445.142364,642.150913 442.334733,628.325322 439.284467,614.534468 C433.149274,586.883285 426.078204,559.475266 418.001933,532.31041 C417.482001,530.608264 416.996731,528.906118 416.4768,527.203973 C414.362411,515.983706 412.04005,504.832915 409.544378,493.682124 C407.6033,485.067182 405.558236,476.486979 403.409185,467.941513 C401.398783,459.917111 399.38838,451.857973 396.372777,444.111473 C393.426498,436.538661 389.544342,429.521653 384.241039,423.30361 C379.145709,417.328732 373.045178,412.326507 366.736674,407.706398 C359.318983,402.287322 351.554671,397.354573 343.929005,392.282874 C335.402126,386.620634 326.90991,380.958394 318.383031,375.296154 C317.447154,374.670876 316.199318,374.705614 315.194117,375.191941 C304.587512,366.715951 292.941044,359.559991 280.913292,353.202998 C273.772898,349.416592 266.459193,345.908087 259.076164,342.57327 C250.549285,338.682652 241.953082,334.896246 233.218231,331.56143 C215.748528,324.891798 196.961665,320.271688 178.209465,323.22439 C162.784826,325.656027 147.706809,333.333051 138.590675,346.359676 C137.793446,347.471283 137.100204,348.617626 136.406962,349.798707 C133.079399,348.756577 129.821161,347.506021 126.666909,345.977562 C126.458937,345.873349 126.250964,345.803874 126.042991,345.734398 C125.973667,343.789089 125.661708,341.878517 125.211101,340.037421 C124.933804,338.85634 124.552521,337.709997 124.101913,336.598392 C123.651306,329.407695 120.843675,322.286473 116.64956,316.554758 C109.543828,306.828211 98.9718847,300.610169 88.1226447,295.955321 C81.7448168,293.211045 74.8470572,289.945705 67.8106492,290.883622 C66.6321375,290.119393 65.0376805,290.01518 63.7205204,291.300474 C52.8712804,301.999675 48.0879094,318.256903 51.6234445,333.124625 C55.0549932,347.679709 65.9388953,359.455778 79.8037387,364.666428 C86.9094709,367.341229 95.0204043,369.147587 102.646068,369.11285 C107.60275,369.078112 112.490107,368.001244 116.545574,365.465395 C116.753546,365.673821 116.961519,365.882247 117.204154,366.090673 C118.729286,386.412208 117.446788,406.907431 113.287335,426.846852 C111.207609,436.8513 108.43464,446.68206 105.003092,456.304394 C103.304648,461.028717 101.467556,465.718302 99.4224921,470.303674 C97.793373,473.951129 95.9562812,477.633322 93.2526368,480.412335 C92.0741251,481.628153 90.7223028,482.670283 89.4744669,483.052398 C87.9839963,483.503987 86.7014983,483.573463 85.1417034,482.913447 C81.7448168,481.454465 79.6304281,477.285945 77.9666469,474.020604 C73.9111802,465.996203 71.6928053,457.068623 70.7569284,448.17578 C68.9544987,431.397487 70.8262526,414.549718 71.7274674,397.771425 C71.8314537,397.70195 71.9354401,397.667212 72.0394264,397.597737 C77.5160395,393.915544 81.5368441,388.774369 83.8592054,382.591064 C84.379137,381.201558 83.5125843,379.464674 82.2994105,378.769921 C80.9129262,377.936217 79.3877934,378.353069 78.2092817,379.290986 C76.1988794,380.888919 74.1884771,382.486851 72.1780748,384.084784 C72.1780748,381.548934 72.1780748,379.013085 72.0740885,376.477235 C71.900778,371.822388 71.900778,365.500132 66.146868,364.388527 C60.9475517,363.346397 57.1000576,367.063327 55.3669522,371.579224 C54.5003995,373.837172 54.0497921,376.268809 53.4951984,378.596233 C52.8712804,381.305771 52.2127004,383.980571 51.6234445,386.690109 C49.1624348,397.389311 46.9093978,408.157987 45.0029818,418.99614 C43.2005522,429.347964 41.5714331,439.804002 41.0861635,450.329515 C40.2196108,469.539445 43.6164975,489.617817 56.6494502,504.450801 C67.8799734,517.234262 85.7656213,525.15445 102.576744,519.492211 C119.734488,513.69102 130.653052,497.433792 138.34804,481.940792 C147.464174,463.564567 153.114098,443.625146 155.089838,423.199397 C155.297811,421.045662 155.471121,418.891927 155.575108,416.703454 C155.817743,416.842404 156.060377,416.981355 156.337674,417.05083 C186.736343,427.784769 217.10035,438.657659 247.395033,449.6695 C254.882049,452.379038 262.334402,455.123313 269.786755,457.832851 C272.941007,458.979194 276.337894,459.917111 279.180187,461.758208 C281.606534,463.321403 282.403763,465.822515 282.542411,468.601528 C282.750384,472.387934 282.473087,476.209077 282.369101,479.960745 C282.265114,483.886102 282.126466,487.776721 281.987817,491.702077 C281.675858,499.518052 281.294575,507.334027 280.843968,515.150002 C279.041538,546.726542 276.025935,578.268343 271.797157,609.601719 C267.56838,640.935095 262.126429,672.094782 255.540629,703.011306 C254.7434,706.797712 253.980834,710.584118 253.044957,714.301048 C252.317052,717.149537 251.103879,720.345402 249.509422,722.221236 C246.875101,725.243413 243.096932,727.119247 239.492072,728.508754 C231.277153,731.669882 221.017169,733.302552 215.401907,740.805888 C214.084747,742.542771 213.183532,744.522818 212.6636,746.607078 C212.178331,748.552388 213.668802,751.122975 215.921839,750.914549 C226.736416,749.872419 237.516332,748.830289 248.33091,747.788159 C253.842185,747.267094 259.35346,746.711291 264.864736,746.190226 C269.856079,745.703899 275.020734,745.530211 279.977415,744.592294 C284.899434,743.654377 288.504294,740.736413 290.306723,736.046828 C292.005167,731.635144 292.55976,726.63292 293.495637,721.978072 C295.67935,711.313609 297.863063,700.649145 300.046776,689.984681 C308.746965,647.569989 317.447154,605.155298 326.182006,562.740606 L339.145634,499.657003 C351.970616,533.109376 364.379651,566.770176 376.268754,600.569926 C382.507934,618.251398 388.608465,635.967609 394.605009,653.718556 C397.620613,662.646137 400.601554,671.608455 403.547833,680.570773 C404.96898,684.947719 406.424788,689.324665 407.845935,693.701611 C409.267081,698.009082 410.930863,702.490241 410.584241,707.110351 C409.994986,715.377916 402.473308,721.630696 398.036558,728.022426 C393.218525,734.96996 389.925625,744.835457 394.986293,752.547219 C395.956832,754.040939 398.001896,754.805168 399.631015,753.763038 C410.618904,746.641816 420.948212,738.443727 430.376305,729.272983 C434.986366,724.791823 439.457778,720.136976 443.478582,715.134752 C447.499387,710.09779 451.034922,704.539763 452.282758,698.113295 C453.565256,691.096286 452.560055,683.975065 451.416205,676.992793 Z" id="Path" fill="#F4BAAB"></path>
                    <path d="M460.324367,692.867907 C458.868559,686.58039 456.476873,680.46656 454.050525,674.561157 C453.322621,672.754798 450.376342,672.025307 448.885871,673.17165 C440.844262,679.216004 432.802653,685.295096 424.726382,691.33945 C422.88929,692.728957 421.017536,694.118463 419.076458,695.369019 C417.239366,696.5501 415.263626,697.522755 413.565183,698.842786 C410.584241,701.135472 409.163095,704.678714 409.57904,708.221956 C409.40573,708.499858 409.267081,708.812497 409.163095,709.194611 C406.94472,717.045324 401.398783,723.228628 397.066019,729.863523 C392.455959,736.915269 388.019209,746.641816 390.549543,755.326233 C391.312109,757.89682 393.322511,759.668441 395.956832,759.635624 C398.175207,759.598966 400.428244,758.417885 402.299998,757.271542 C405.904857,755.083069 408.885798,751.921941 411.832077,748.865027 C418.244567,742.125919 424.761044,735.491025 431.346844,728.925606 C438.83386,721.491745 446.390199,714.196835 454.085188,707.006138 C454.29316,706.797712 454.466471,706.589286 454.605119,706.346122 C456.338225,704.991353 457.967344,703.497633 459.180517,701.587062 C460.878961,698.912261 461.017609,695.855347 460.324367,692.867907 Z" id="Path" fill="#6B2F24"></path>
                    <path d="M292.317126,719.615911 C281.571872,717.3927 270.791956,715.273703 259.977378,713.328393 C258.486908,713.050492 256.927113,713.502082 256.025898,714.613687 C255.540629,714.787375 255.055359,715.065277 254.604752,715.412653 C246.805777,721.491745 237.654981,725.695003 228.712157,729.75931 C219.803995,733.788879 209.647997,738.304776 206.944353,748.691338 C206.424421,750.671385 207.602933,752.790383 209.578673,753.346186 C215.78319,755.013594 222.091694,754.492529 228.365536,753.658825 C235.159309,752.755645 241.987744,751.817728 248.781517,750.879811 C255.40198,749.976632 261.987781,749.073453 268.608243,748.170273 C271.901144,747.718684 275.228706,747.267094 278.521606,746.815504 C281.467886,746.398652 285.003421,746.468128 287.637741,744.974408 C290.895979,743.133312 291.277262,738.721628 292.109153,735.456287 C293.04503,731.704619 294.015569,727.987689 294.951446,724.236021 C295.436715,722.394924 294.36219,720.032763 292.317126,719.615911 Z" id="Path" fill="#6B2F24"></path>
                    <path d="M449.995059,655.247014 C448.469926,647.431039 446.875469,639.615064 445.211688,631.799088 C438.695211,600.917302 431.312182,570.174467 423.582532,539.570582 C415.852882,509.105648 407.984583,478.640714 399.631015,448.349468 C397.689937,441.262984 395.402238,434.1765 391.866703,427.680556 C388.573803,421.67094 384.067728,416.356077 379.076385,411.701229 C374.119703,407.011644 368.712414,402.599961 363.131815,398.674604 C359.526956,396.173492 355.6448,396.069279 351.86663,398.29249 C348.643054,400.168324 345.558124,402.356797 342.438534,404.441057 C329.994838,412.708622 317.897762,421.427776 306.077983,430.59852 C300.012114,435.288105 293.980907,440.116641 288.088348,445.04939 C283.374302,448.974746 276.892487,453.143266 275.540665,459.604472 C274.916747,462.661387 275.817962,465.475138 278.174985,467.350972 C275.95661,499.135938 273.252966,530.886165 270.098714,562.601656 C266.805814,595.428751 263.027644,628.186371 258.764205,660.909254 C256.372519,679.216004 253.807523,697.522755 251.069217,715.794768 C250.687933,718.400093 252.074418,720.310664 254.708738,720.588566 C267.221759,721.839122 279.700118,723.089678 292.213139,724.340234 C293.876921,724.513922 295.402053,723.05494 295.852661,721.56122 C304.760823,692.97212 312.594459,664.035644 319.35357,634.856003 C326.078019,605.884789 331.727943,576.635673 336.303341,547.247607 C337.863136,537.208421 339.284283,527.134497 340.601443,517.025836 C346.320691,538.528452 352.629196,559.85738 359.561618,581.012619 C368.539104,608.524852 378.521791,635.759183 389.475017,662.541924 C395.679535,677.687547 402.161349,692.728957 408.92046,707.631416 C409.994986,710.028315 413.1839,709.819889 414.847681,708.395645 C420.982874,703.115519 427.118067,697.835394 433.25326,692.555268 L442.438719,684.63508 C445.073039,682.342394 447.811346,680.188659 449.85641,677.305432 C454.397147,670.913702 451.381543,662.229285 449.995059,655.247014 Z" id="Path" fill="#29AEC4"></path>
                    <path d="M387.360629,412.395983 C356.338042,391.657596 325.246129,370.884471 292.663747,352.612458 C276.337894,343.441712 259.665419,334.930984 242.542338,327.39291 C233.876811,323.571767 225.107297,319.785361 216.095149,316.867397 C207.464284,314.088383 198.417474,312.455713 189.301339,313.289417 C170.063869,314.991563 152.628829,325.273912 139.00662,338.578439 C138.486688,339.064766 138.174729,339.620569 138.001419,340.176371 C137.828108,340.315322 137.654798,340.454273 137.516149,340.627961 C134.951153,343.129073 137.134866,346.672315 139.873173,347.019692 C139.873173,347.05443 139.873173,347.05443 139.873173,347.05443 C140.081145,348.166036 140.15047,349.347117 140.254456,350.458722 C140.462428,352.855621 140.601077,355.287258 140.531753,357.684157 C140.462428,362.269529 139.769186,367.063327 137.793446,371.266585 C134.639194,378.04043 127.394814,384.015309 120.115771,382.973179 C118.417328,382.730015 116.718884,383.25108 115.852331,384.675324 C113.737943,385.265865 112.87139,387.315387 113.218011,389.330172 C114.812468,398.396703 112.490107,407.532709 109.7518,416.112913 C108.295992,420.663548 106.632211,425.179444 105.14174,429.730079 C104.413836,431.953289 103.685931,434.1765 103.062013,436.434448 C102.403433,438.831348 101.328908,441.610361 102.02215,444.076735 C102.750054,446.751536 105.072416,447.967354 107.394777,449.078959 C109.682476,450.190565 111.970175,451.267432 114.257874,452.309562 C119.041245,454.532773 123.824616,456.651771 128.677312,458.701293 C131.103659,459.743423 133.564669,460.750815 136.025679,461.758208 C138.452026,462.730863 140.98236,463.599304 143.651342,463.286665 C147.984106,462.7656 151.103696,459.63921 152.906125,455.818067 C155.228487,450.85058 156.545647,445.327291 158.174766,440.116641 C159.699899,435.183892 161.259694,430.285881 162.784826,425.353133 C178.070816,426.812115 193.287482,430.737471 207.464284,436.781825 C222.611626,443.243031 236.788428,452.101136 249.162801,462.939289 C255.436642,468.462578 261.294539,474.472194 266.597841,480.9334 C269.301486,484.198741 271.866482,489.548342 276.719177,489.514268 C279.318835,489.478866 281.883831,488.019884 284.206192,487.012492 C286.285919,486.109313 288.365645,485.206133 290.445372,484.268216 C307.325819,476.625929 323.582347,467.628874 339.006986,457.415999 C354.570274,447.13365 369.336332,435.566007 383.062527,422.956234 C384.726309,421.427776 386.39009,419.864581 388.019209,418.301386 C389.960287,416.564503 389.301707,413.681277 387.360629,412.395983 Z" id="Path" fill="#C7DBED"></path>
                    <path d="M290.549358,504.867653 C290.098751,485.588247 287.915038,466.378318 284.136868,447.481027 C280.39336,428.826899 275.020734,410.485411 268.05365,392.769201 C266.25122,388.218566 264.379466,383.70267 262.403726,379.221511 C261.398525,376.963562 260.358662,374.705614 259.318798,372.482403 C258.348259,370.432881 257.481707,368.244408 256.095222,366.438049 C252.663674,361.922152 247.776316,362.477955 242.750311,363.068495 C237.585656,363.693773 232.421002,364.319052 227.256348,364.909592 C224.65669,365.222231 222.091694,365.53487 219.492036,365.847509 C217.481633,366.090673 215.713866,367.410704 215.713866,369.633915 C215.713866,370.502356 216.095149,371.440273 216.719067,372.169764 C216.788391,372.308715 216.857716,372.447666 216.961702,372.586616 C231.658436,394.158708 242.473014,418.162436 249.336111,443.347244 C256.199209,468.566791 259.110826,494.793729 258.105625,520.916455 C257.620355,533.387277 256.684478,547.699196 247.429695,557.043629 C243.998146,560.517396 249.301449,565.832259 252.76766,562.39323 C254.535427,560.656346 256.268533,558.919463 258.0363,557.182579 C258.660218,560.031068 259.318798,562.879557 259.942716,565.728046 C260.947917,570.209205 261.849132,575.385117 266.840476,577.052525 C271.034591,578.442032 275.471341,575.94092 278.278972,572.95348 C281.467886,569.583927 283.374302,564.998555 285.003421,560.691084 C288.226997,551.971929 289.336184,542.592759 289.960102,533.387277 C290.618682,523.834419 290.791993,514.351036 290.549358,504.867653 Z" id="Path" fill="#F4BAAB"></path>
                    <path d="M442.681354,684.774031 C430.44563,652.815377 422.438683,619.467217 415.124978,586.084319 C407.776611,552.527732 401.086824,518.76272 391.312109,485.796673 C386.39009,469.157331 380.844152,451.927448 368.955049,438.866085 C367.741875,437.546054 365.800797,439.526101 366.979309,440.846132 C374.431662,449.009484 379.249695,458.909719 383.027865,469.226806 C382.681244,469.087856 382.299961,469.053118 381.884016,469.261544 C375.71416,471.971082 368.712414,467.524661 363.409112,464.676172 C357.863174,461.653995 352.421223,458.353916 348.26177,453.525381 C347.083259,452.170612 345.142179,454.150659 346.286029,455.505428 C350.965415,460.959241 357.239257,464.571959 363.513098,467.906775 C369.544305,471.10264 376.442065,474.68062 383.2705,471.693181 C383.478473,471.588968 383.651783,471.484755 383.755769,471.345804 C384.58766,473.707965 385.384889,476.104864 386.112793,478.467026 C385.766172,477.876485 385.038267,477.494371 384.241039,477.945961 C376.37274,482.461857 367.256606,478.814402 360.25486,474.333243 C353.149128,469.782609 345.766097,464.571959 340.774753,457.659163 C339.73489,456.234919 337.343205,457.624425 338.383068,459.04867 C343.894343,466.656219 352.005278,472.492147 359.908239,477.390158 C367.533903,482.079743 377.273955,485.136658 385.627523,480.34286 C386.147455,480.064958 386.320766,479.578631 386.286103,479.127041 C386.667387,480.273384 387.014008,481.454465 387.360629,482.600808 C392.31731,498.858036 396.511425,515.393166 400.324257,531.963033 C407.949921,564.929079 414.223763,598.173027 422.750641,630.930647 C427.568675,649.445823 433.114612,667.752574 439.943047,685.607735 C440.636289,687.17093 443.305272,686.441439 442.681354,684.774031 Z" id="Path" fill="#F0F7FA"></path>
                    <path d="M298.625629,482.42712 C298.244346,480.690236 295.575364,481.419727 295.956647,483.156611 C297.620428,490.868373 295.921985,498.892774 291.415911,505.319242 C290.376048,506.778224 292.802395,508.167731 293.807596,506.708749 C298.729616,499.69174 300.428059,490.833635 298.625629,482.42712 Z" id="Path" fill="#F0F7FA"></path>
                    <path d="M307.256494,478.536501 C306.875211,476.799618 304.206229,477.529109 304.587512,479.265992 C305.939334,485.761936 305.592713,492.466306 303.616973,498.788561 C302.646434,501.880213 301.25995,504.867653 299.526844,507.611928 C297.863063,510.182516 295.50604,512.892054 292.247801,512.961529 C290.480034,512.996267 290.445372,515.77528 292.247801,515.7418 C299.526844,515.601592 303.616973,507.056126 305.766024,501.18546 C308.365682,493.960025 308.850951,486.074575 307.256494,478.536501 Z" id="Path" fill="#F0F7FA"></path>
                    <path d="M343.755695,515.914231 C340.358808,510.321467 336.927259,504.693964 333.530373,499.1012 C337.655163,496.148498 338.383068,490.451521 337.204556,485.727198 C335.540775,479.057566 329.890851,474.333243 326.90991,468.288889 C326.112681,466.690957 323.720996,468.080463 324.518224,469.678396 C327.117883,474.993259 331.831929,479.161779 333.98098,484.719806 C335.436789,488.471474 335.540775,493.751599 332.317199,496.495875 C327.291193,488.436736 322.819781,480.099696 318.868301,471.484755 C318.140396,469.852084 315.748711,471.276329 316.476615,472.874261 C320.428096,481.489203 324.899508,489.826243 329.890851,497.850644 C329.856189,498.128545 329.890851,498.441184 330.098824,498.719086 L333.149089,503.756047 C332.975779,503.86026 332.83713,504.033949 332.698482,504.31185 C327.152545,517.164787 324.691535,530.955641 322.611808,544.746495 C320.428096,559.26684 318.175059,573.787184 315.679387,588.272792 C310.618719,617.591383 304.795485,646.736285 298.175022,675.742237 C294.466176,692.068941 290.514696,708.326169 286.320581,724.513922 C285.869973,726.250805 288.538956,726.980296 288.989563,725.243413 C296.407254,696.5501 303.097041,667.683099 309.024262,638.677147 C314.91682,609.775408 320.046812,580.69998 324.414238,551.485602 C326.701937,536.270504 328.781664,520.742767 334.812871,506.465585 L341.398671,517.269 C342.299886,518.866933 344.691572,517.442688 343.755695,515.914231 Z" id="Path" fill="#F0F7FA"></path>
                    <path d="M383.582459,445.223078 C382.473271,443.277769 381.364084,441.297722 380.254897,439.352413 C379.353682,437.789218 376.961996,439.213462 377.863211,440.741919 C378.972399,442.687229 380.081586,444.667276 381.190773,446.612585 C382.057326,448.17578 384.483674,446.786273 383.582459,445.223078 Z" id="Path" fill="#F0F7FA"></path>
                    <path d="M391.970689,461.966634 C391.069474,460.056062 390.16826,458.110753 389.267045,456.200181 C388.504478,454.567511 386.112793,455.991755 386.875359,457.589688 C387.776574,459.500259 388.677789,461.445569 389.579004,463.356141 C390.34157,464.954073 392.733256,463.564567 391.970689,461.966634 Z" id="Path" fill="#F0F7FA"></path>
                    <path d="M398.521828,482.114481 C397.551289,480.516548 397.031357,478.814402 396.962033,476.973306 C396.892709,475.201685 394.11974,475.166947 394.189064,476.973306 C394.29305,479.30073 394.916968,481.52394 396.130142,483.503987 C397.066019,485.032445 399.457705,483.642938 398.521828,482.114481 Z" id="Path" fill="#F0F7FA"></path>
                    <path d="M404.622359,505.041341 C403.790468,501.984426 402.99324,498.892774 402.161349,495.835859 C401.710742,494.098976 399.007097,494.828467 399.492367,496.56535 C400.324257,499.622265 401.121486,502.713917 401.953376,505.770832 C402.403984,507.507715 405.072966,506.778224 404.622359,505.041341 Z" id="Path" fill="#F0F7FA"></path>
                    <path d="M410.861538,527.725038 C410.410931,525.467089 409.925661,523.209141 409.475054,520.98593 C409.128433,519.249047 406.424788,519.978538 406.806072,521.715421 C407.256679,523.97337 407.741949,526.231318 408.192556,528.454529 C408.539177,530.22615 411.208159,529.496659 410.861538,527.725038 Z" id="Path" fill="#F0F7FA"></path>
                    <path d="M417.689974,551.172963 C417.204704,549.470817 416.754097,547.768672 416.268827,546.066526 C415.783558,544.329643 413.114575,545.093871 413.599845,546.796017 C414.085114,548.498163 414.535722,550.200308 415.020991,551.902454 C415.506261,553.6046 418.175243,552.875109 417.689974,551.172963 Z" id="Path" fill="#F0F7FA"></path>
                    <path d="M421.260171,576.218821 C420.601591,574.030348 419.943011,571.807137 419.284431,569.618664 C418.764499,567.916519 416.095517,568.64601 416.615448,570.348155 C417.274028,572.536628 417.932608,574.759839 418.591188,576.948312 C419.076458,578.650458 421.780102,577.920967 421.260171,576.218821 Z" id="Path" fill="#F0F7FA"></path>
                    <path d="M427.741985,605.57215 C426.875432,603.348939 426.00888,601.125728 425.142327,598.902518 C424.518409,597.269847 421.814765,597.964601 422.473345,599.632009 C423.339897,601.855219 424.20645,604.07843 425.073003,606.301641 C425.731583,607.969049 428.400565,607.239558 427.741985,605.57215 Z" id="Path" fill="#F0F7FA"></path>
                    <path d="M434.466434,623.983113 C433.877178,622.037804 433.287922,620.092495 432.664005,618.147185 C432.144073,616.44504 429.475091,617.174531 429.995022,618.876676 C430.584278,620.821986 431.173534,622.767295 431.797452,624.712604 C432.317383,626.41475 434.986366,625.685259 434.466434,623.983113 Z" id="Path" fill="#F0F7FA"></path>
                    <path d="M436.892782,638.711884 C435.956905,637.183427 433.565219,638.572934 434.501096,640.101391 C435.471635,641.699324 435.991567,643.366732 436.095553,645.242566 C436.164877,647.014187 438.937846,647.048924 438.868522,645.242566 C438.764536,642.915142 438.105956,640.726669 436.892782,638.711884 Z" id="Path" fill="#F0F7FA"></path>
                    <path d="M443.686555,665.842002 C443.374596,664.174594 443.097299,662.507186 442.78534,660.839778 C442.473381,659.068157 439.804399,659.832386 440.116358,661.569269 C440.428317,663.236677 440.705614,664.904085 441.017573,666.571493 C441.329532,668.308377 443.998514,667.578886 443.686555,665.842002 Z" id="Path" fill="#F0F7FA"></path>
                    <path d="M447.776684,674.700107 C447.326076,674.109567 446.56351,673.796928 445.870268,674.21378 C445.281012,674.561157 444.934391,675.499074 445.384998,676.124352 C445.870268,676.784367 446.216889,677.548596 446.112903,678.3823 C446.008916,679.111791 446.286213,679.87602 447.083442,680.084446 C447.742022,680.258134 448.677899,679.87602 448.781885,679.111791 C448.989858,677.548596 448.747223,675.985401 447.776684,674.700107 Z" id="Path" fill="#F0F7FA"></path>
                    <path d="M458.417951,692.103679 C446.667496,705.581894 434.431772,718.677994 421.814765,731.357243 C421.780102,731.287767 421.74544,731.25303 421.710778,731.183554 C416.858083,725.173938 409.128433,722.290711 401.537431,723.298104 C399.769664,723.541267 400.53223,726.216068 402.265335,725.972904 C408.885798,725.069725 415.575585,727.952951 419.735038,733.128864 C419.7697,733.163601 419.804362,733.233077 419.873686,733.267814 C416.199503,736.950007 412.490657,740.562724 408.74715,744.175442 C406.424788,746.398652 404.137089,748.691338 401.710742,750.810336 C399.284394,752.894596 396.199466,754.944119 392.941228,753.763038 C391.277447,753.13776 390.549543,755.847298 392.213324,756.437838 C393.079877,756.750477 393.981091,756.924166 394.812982,756.924166 L394.812982,759.182114 C394.812982,760.953735 397.585951,760.988473 397.585951,759.182114 L397.585951,756.472576 C398.972435,756.020986 400.289595,755.291495 401.537431,754.423054 C401.953376,755.152545 402.33466,755.882036 402.750605,756.611527 C403.617158,758.174722 406.008843,756.785215 405.14229,755.22202 C404.691683,754.388316 404.206413,753.554612 403.755806,752.68617 C404.518372,752.026154 405.246277,751.331401 405.939519,750.671385 C407.360665,749.316616 408.816474,747.961847 410.23762,746.572341 C410.584241,747.058668 410.965525,747.544995 411.312146,747.996585 C411.520118,748.309224 411.762753,748.51765 412.144036,748.621863 C412.490657,748.726076 412.906603,748.656601 413.218562,748.482912 C413.807818,748.100798 414.189101,747.197619 413.703831,746.572341 C413.287886,746.016538 412.906603,745.495473 412.490657,744.93967 C412.421333,744.835457 412.317347,744.731244 412.213361,744.627031 C413.807818,743.098574 415.402275,741.535379 416.996731,739.972184 C417.274028,740.458511 417.585987,740.910101 417.863284,741.396428 C418.244567,742.021706 419.11112,742.299608 419.7697,741.882756 C420.393618,741.500641 420.670915,740.6322 420.25497,739.972184 C419.839024,739.312168 419.423079,738.617415 419.007134,737.957399 C419.145782,737.818449 419.319093,737.64476 419.457741,737.50581 C421.433481,735.5605 423.409222,733.580453 425.3503,731.600406 C425.662259,732.156209 426.00888,732.712012 426.320839,733.233077 C426.702122,733.858355 427.568675,734.136256 428.227255,733.719404 C428.851173,733.302552 429.128469,732.468848 428.712524,731.808832 C428.296579,731.114079 427.915296,730.454063 427.49935,729.75931 C427.464688,729.689835 427.395364,729.620359 427.32604,729.550884 C428.469889,728.369803 429.648401,727.188722 430.792251,726.007642 C431.173534,726.63292 431.589479,727.292935 431.970762,727.918213 C432.352046,728.543491 433.218598,728.821393 433.877178,728.404541 C434.501096,728.022426 434.778393,727.153985 434.362448,726.493969 C433.946503,725.833953 433.530557,725.1392 433.114612,724.479184 C433.010626,724.305496 432.837315,724.166545 432.664005,724.027595 C433.981165,722.672826 435.298325,721.318057 436.580823,719.92855 C436.615485,719.963288 436.615485,719.998025 436.650147,720.032763 C437.204741,720.588566 437.724672,721.109631 438.279266,721.665433 C438.799198,722.186498 439.735075,722.221236 440.255006,721.665433 C440.774938,721.109631 440.8096,720.241189 440.255006,719.685386 C439.700413,719.129584 439.180481,718.608519 438.625887,718.052716 C438.591225,718.017978 438.521901,717.983241 438.487239,717.913765 C439.700413,716.628472 440.913586,715.343178 442.12676,714.057884 C442.404057,714.439999 442.716016,714.822113 442.993313,715.204227 C443.235948,715.516866 443.44392,715.725292 443.825203,715.829505 C444.171825,715.933718 444.58777,715.864243 444.899729,715.690555 C445.454323,715.30844 445.870268,714.405261 445.384998,713.779983 C444.969053,713.22418 444.553108,712.703115 444.171825,712.147313 C444.137162,712.077837 444.067838,712.0431 444.033176,711.973624 C444.622432,711.348346 445.211688,710.688331 445.800944,710.063053 C446.424862,709.403037 447.014117,708.708284 447.638035,708.048268 C447.984656,708.534595 448.331278,708.986185 448.677899,709.472512 C449.128506,710.063053 449.891072,710.375692 450.584315,709.95884 C451.17357,709.611463 451.520192,708.673546 451.069584,708.048268 C450.549652,707.353515 450.029721,706.658761 449.544451,705.964008 C450.549652,704.852402 451.589516,703.706059 452.594717,702.594454 C452.976,703.462896 453.530594,704.227124 454.223836,704.852402 C454.77843,705.33873 455.644982,705.408205 456.199576,704.852402 C456.684846,704.366075 456.75417,703.39342 456.199576,702.872355 C455.540996,702.316553 455.194375,701.76075 454.986402,700.996521 C454.917078,700.753358 454.77843,700.544932 454.605119,700.371243 C456.546197,698.18277 458.487275,695.994297 460.393691,693.805824 C461.572203,692.728957 459.596463,690.74891 458.417951,692.103679 Z" id="Path" fill="#F0F7FA"></path>
                    <path d="M421.156185,700.683882 C419.249769,699.815441 416.65011,701.482849 415.090316,702.490241 C413.599845,703.462896 412.317347,704.574501 411.138835,705.859795 C409.544378,704.713452 407.533976,703.706059 405.523574,703.810272 C403.859792,703.914485 402.265335,705.060829 401.988039,706.797712 C401.710742,708.638808 403.097226,710.063053 404.726345,710.653593 C405.384925,710.896757 406.112829,711.00097 406.806072,711.035707 C406.28614,711.452559 405.731546,711.904149 405.246277,712.355739 C404.830331,712.737853 404.761007,713.189443 404.864994,713.606295 C404.761007,713.606295 404.657021,713.606295 404.553035,713.606295 C402.785267,713.710508 402.750605,716.489521 404.553035,716.385308 C408.74715,716.176882 412.767954,717.045324 416.442138,719.060108 C418.001933,719.92855 419.423079,717.531651 417.828622,716.663209 C417.066056,716.246357 416.303489,715.864243 415.506261,715.551604 C416.303489,715.343178 416.927407,714.474736 416.372814,713.571557 C415.887544,712.807328 415.436937,712.0431 414.951667,711.278871 C415.81822,711.348346 416.754097,711.209396 417.724636,710.757806 C419.839024,709.785151 421.502806,707.909317 422.438683,705.79032 C423.166587,704.053436 423.166587,701.621799 421.156185,700.683882 Z M406.043505,706.624024 C406.702085,706.658761 407.395327,706.936663 407.984583,707.214564 C408.400529,707.42299 408.816474,707.666154 409.163095,707.909317 C408.08857,708.291432 406.320802,708.638808 405.350263,707.978793 C404.345062,707.249302 404.934318,706.589286 406.043505,706.624024 Z M407.915259,713.710508 C408.816474,712.946279 409.752351,712.286263 410.757552,711.695723 C411.104173,711.487297 411.312146,711.209396 411.38147,710.896757 C411.485456,711.070445 411.589443,711.244133 411.624105,711.278871 L413.946466,714.995801 C413.946466,714.995801 413.946466,714.995801 413.946466,714.995801 C412.04005,714.335786 409.994986,713.884196 407.915259,713.710508 Z M419.977673,704.43555 C419.7697,705.512418 418.764499,706.624024 417.967271,707.318777 C416.892745,708.256694 415.575585,708.951447 414.189101,708.291432 C413.84248,708.117743 413.530521,707.909317 413.218562,707.666154 C414.50106,706.276647 415.99153,705.095566 417.655312,704.192387 C418.591188,703.706059 420.393618,702.455503 419.977673,704.43555 Z" id="Shape" fill="#F0F7FA"></path>
                    <path d="M260.774607,715.343178 C259.908054,713.467344 257.897652,712.459952 255.991236,713.536819 C253.876847,714.7179 252.247728,717.149537 251.069217,719.164321 C250.96523,719.33801 250.930568,719.47696 250.895906,719.650649 C249.058814,717.635864 247.776316,714.7179 245.21132,713.884196 C241.43315,712.703115 238.486871,716.975848 239.977342,720.345402 C241.814434,724.618135 246.736453,724.479184 250.583947,723.471792 C251.103879,726.424494 251.589148,729.411933 252.10908,732.364635 C252.421039,734.136256 255.090021,733.372027 254.778062,731.635144 C254.362117,729.168769 253.946172,726.667657 253.530226,724.201283 C254.396779,724.409709 255.332656,724.409709 256.233871,724.201283 C259.908054,723.367579 262.403726,718.921158 260.774607,715.343178 Z M242.854297,719.92855 C242.161055,719.025371 242.022406,717.496913 243.027607,716.767422 C243.963484,716.072669 244.934023,716.836898 245.627266,717.496913 C246.771115,718.643256 247.568344,719.963288 248.573545,721.144368 C246.493818,721.595958 244.240781,721.665433 242.854297,719.92855 Z M255.090021,721.56122 C254.292793,721.630696 253.59955,721.491745 252.975633,721.213844 C252.975633,721.179106 252.94097,721.109631 252.94097,721.074893 C253.148943,720.97068 253.322254,720.796992 253.460902,720.553828 C254.188806,719.303272 255.020697,718.156929 256.025898,717.114799 C256.927113,716.176882 258.001638,715.238965 258.452246,717.045324 C258.937515,719.129584 257.135086,721.42227 255.090021,721.56122 Z" id="Shape" fill="#F0F7FA"></path>
                    <path d="M248.157599,732.086734 C246.147197,728.71718 243.339566,725.972904 239.873356,724.131808 C238.313561,723.298104 236.892414,725.695003 238.486871,726.528707 C241.537137,728.161377 243.998146,730.488801 245.765914,733.47624 C246.701791,735.039435 249.093476,733.649929 248.157599,732.086734 Z" id="Path" fill="#F0F7FA"></path>
                    <path d="M238.79883,734.275207 C237.689643,731.635144 236.129848,729.272983 234.050121,727.292935 C232.732961,726.077117 230.791883,728.022426 232.074381,729.272983 C233.807487,730.905653 235.193971,732.816225 236.129848,735.004698 C236.82309,736.637368 239.492072,735.942615 238.79883,734.275207 Z" id="Path" fill="#F0F7FA"></path>
                    <path d="M289.890778,737.123695 C276.753839,738.131088 263.651562,739.763758 250.687933,741.986969 C250.13334,741.743805 249.405435,741.81328 248.98949,742.26487 C248.98949,742.26487 248.954828,742.26487 248.954828,742.26487 C243.200918,743.272262 237.447008,744.592294 231.693098,745.599686 C229.75202,739.833233 225.453918,735.004698 219.838657,732.503586 C218.209538,731.774095 216.823053,734.170994 218.452173,734.900485 C223.33953,737.05422 227.1177,741.049052 228.920129,746.051276 C222.161018,747.128143 215.332583,747.649208 208.400161,746.746029 C206.632394,746.502865 206.667056,749.281879 208.400161,749.525042 C209.786645,749.698731 211.17313,749.837681 212.559614,749.907157 C212.628938,751.296663 213.044884,752.616695 213.772788,753.797776 C214.708665,755.326233 217.10035,753.936726 216.164473,752.408269 C215.679204,751.64404 215.436569,750.845074 215.332583,749.976632 C216.892378,749.976632 218.452173,749.941894 219.977305,749.837681 L219.977305,752.998809 C219.977305,754.77043 222.750274,754.805168 222.750274,752.998809 L222.750274,749.629255 C224.344731,749.490305 225.97385,749.281879 227.568307,749.038715 C227.533645,750.185058 227.810942,751.296663 228.261549,752.338793 C228.538846,753.033547 229.578709,753.172497 230.167965,752.825121 C230.895869,752.408269 230.965194,751.609302 230.653235,750.914549 C230.341276,750.185058 230.306614,749.351354 230.375938,748.552388 C230.514586,748.51765 230.653235,748.51765 230.757221,748.482912 C230.861207,748.482912 230.999856,748.448175 231.103842,748.413437 C232.039719,748.239749 232.940934,748.100798 233.876811,747.92711 C234.015459,749.316616 234.18877,750.671385 234.327418,752.060892 C234.396742,752.825121 234.916674,753.450399 235.713903,753.450399 C236.407145,753.450399 237.169711,752.790383 237.100387,752.060892 C236.927076,750.497697 236.753766,748.96924 236.580455,747.406045 C237.897615,747.162881 239.214775,746.88498 240.531936,746.607078 C240.531936,746.746029 240.531936,746.88498 240.531936,747.058668 C240.705246,748.413437 240.913219,749.733468 241.086529,751.088237 C241.190516,751.817728 242.126393,752.23458 242.784973,752.060892 C243.582201,751.852466 243.859498,751.088237 243.755512,750.358746 C243.582201,749.003977 243.374228,747.683946 243.200918,746.329177 C243.200918,746.259702 243.166256,746.190226 243.131594,746.120751 C244.864699,745.773374 246.597805,745.425998 248.33091,745.113359 C248.434896,745.078621 248.538883,745.078621 248.642869,745.043883 C248.781517,746.329177 249.058814,747.614471 249.47476,748.865027 C250.064015,750.532435 252.76766,749.802944 252.143742,748.135536 C251.727797,746.954455 251.485162,745.808112 251.381176,744.592294 C253.564888,744.210179 255.713939,743.862803 257.897652,743.550164 C257.897652,743.550164 257.897652,743.584901 257.897652,743.584901 C258.070962,745.078621 258.278935,746.572341 258.452246,748.06606 C258.556232,748.795551 259.006839,749.455567 259.83873,749.455567 C260.49731,749.455567 261.329201,748.830289 261.225214,748.06606 C261.051904,746.572341 260.843931,745.078621 260.670621,743.584901 C260.635959,743.445951 260.601296,743.272262 260.566634,743.133312 C262.230415,742.890148 263.928859,742.646984 265.59264,742.438558 L265.59264,747.162881 C265.59264,748.934502 268.365609,748.96924 268.365609,747.162881 L268.365609,742.230132 C268.365609,742.160657 268.365609,742.125919 268.365609,742.056444 C270.514659,741.778543 272.66371,741.535379 274.812761,741.292215 C274.570126,741.500641 274.431478,741.81328 274.431478,742.230132 L274.327491,746.711291 C274.292829,748.51765 277.065798,748.482912 277.10046,746.711291 L277.204446,742.230132 C277.204446,741.67433 276.961812,741.292215 276.615191,741.083789 C278.937552,740.840626 281.225251,740.597462 283.547612,740.389036 C283.374302,740.562724 283.270315,740.736413 283.235653,740.979576 C283.062343,742.160657 282.85437,743.376475 282.681059,744.557556 C282.577073,745.287047 282.85437,746.051276 283.651599,746.259702 C284.310179,746.43339 285.246056,746.051276 285.350042,745.287047 C285.523352,744.105966 285.731325,742.890148 285.904636,741.709067 C286.008622,741.118527 285.835311,740.527987 285.384704,740.215348 C286.909837,740.076397 288.434969,739.937446 289.92544,739.833233 C291.658546,739.763758 291.658546,736.984745 289.890778,737.123695 Z" id="Path" fill="#F0F7FA"></path>
                    <path d="M284.864772,379.707838 C279.769442,371.092897 274.396816,362.651643 268.746892,354.384079 C266.112572,350.528198 263.547576,346.533365 260.566634,342.920647 C257.932314,339.759519 254.778062,338.578439 250.999892,340.454273 C241.814434,345.074383 232.836948,350.111346 223.755475,354.939881 C217.862917,358.066271 208.746782,362.130578 208.920093,370.15498 C208.989417,372.551879 209.959956,374.775089 211.103806,376.859349 C212.386304,379.186773 213.738126,381.444721 215.055286,383.737407 C218.001565,388.809107 221.017169,393.846069 224.102096,398.848293 C224.933987,400.237799 226.979051,399.195669 226.667092,397.875638 C236.33782,398.084064 245.731252,394.228183 254.778062,391.275481 C264.518115,388.114353 274.292829,384.953226 284.032882,381.75736 C284.864772,381.479459 285.350042,380.506804 284.864772,379.707838 Z" id="Path" fill="#C7DBED"></path>
                    <path d="M264.171494,332.186708 C262.854333,330.241399 260.670621,328.88663 258.902853,327.427648 C255.263332,324.474946 251.62381,321.487507 247.984289,318.534805 C244.864699,316.033693 241.710447,313.497843 238.036264,311.795697 C234.119446,309.989339 229.92533,309.22511 225.627229,309.537749 C222.542301,309.780913 219.492036,310.475666 216.476432,311.239895 C213.980761,311.517796 211.519751,311.830435 209.024079,312.038861 C208.642796,312.073599 208.226851,312.073599 207.845567,312.108336 C207.325636,311.934648 206.805704,311.76096 206.285772,311.587271 C198.070853,309.086159 189.439988,308.565094 181.08642,306.68926 C177.065615,305.786081 173.148797,304.605 169.5786,302.659691 C166.077727,300.749119 163.131447,298.35222 160.081182,295.816371 C153.738016,290.46677 147.152215,284.457153 138.763985,282.755008 C128.677312,280.705485 119.318542,285.047694 109.613152,287.027741 C100.358369,288.903575 91.0342618,286.367725 81.8488031,285.360333 C72.4553717,284.318203 62.9926161,285.464546 55.609587,291.891014 C49.2664211,297.414303 45.8348724,305.716606 44.7256849,313.879957 C43.3738627,324.197045 46.0081829,334.583607 49.3704075,344.240679 C50.2022981,346.672315 51.1035129,349.103953 52.0047277,351.500852 C52.108714,351.813491 52.2473625,352.091393 52.420673,352.334556 C53.1139152,354.175653 54.01513,355.947274 55.1243175,357.579944 C55.9908702,358.899975 56.9267471,360.185269 58.486542,360.706334 C60.2889716,361.296874 61.9180907,360.671596 63.3045751,359.490516 C65.2456531,357.823108 67.0134207,355.982011 68.8158503,354.175653 C74.5350982,348.513413 80.0810355,342.642746 86.285553,337.501571 C89.1278459,336.389966 92.0048009,335.452049 94.9857422,334.757295 C104.101877,332.568822 114.084564,332.742511 122.680767,336.563654 C123.166036,339.273192 123.616644,342.052205 124.448534,344.657531 C125.592384,348.096561 128.192042,350.458722 131.796901,350.94505 C134.916491,351.361902 137.481487,350.423985 139.595876,348.791314 C140.705063,349.555543 141.848913,350.250296 143.062087,350.840837 C147.914782,353.237736 153.079436,354.766193 158.07078,356.815715 C159.769223,357.510469 162.299557,358.795762 164.171311,360.046318 C165.661781,361.088448 167.394887,362.721119 168.365426,364.284314 C171.658326,369.494964 171.381029,376.199334 172.21292,382.104737 C174.084674,395.513477 182.230269,407.602185 193.807413,414.480243 C195.297884,415.383422 197.134976,415.001308 198.382812,413.889703 C207.56827,405.622138 216.407108,396.972459 224.83,387.975403 C228.989453,383.528981 233.04492,379.013085 236.996401,374.392975 C240.289301,370.571832 243.582201,366.681213 246.459156,362.54743 C247.533682,361.470563 248.573545,360.393695 249.578746,359.28209 C252.455701,356.1557 255.124683,352.855621 257.689679,349.45133 C260.081365,346.255463 262.819671,342.851172 264.518115,339.203717 C265.59264,336.911031 265.661964,334.375181 264.171494,332.186708 Z" id="Path" fill="#6B2F24"></path>
                    <path d="M123.027388,328.261352 C122.091511,324.648634 119.006583,321.695933 115.159089,321.626457 C111.623554,321.556982 108.226668,323.81493 106.840183,327.045533 C105.349713,330.5193 106.008293,334.548869 108.088019,337.605784 C109.231869,339.273192 111.415582,340.037421 113.252673,338.960553 C113.495308,338.821602 113.737943,338.613176 113.945916,338.40475 C114.049902,338.370013 114.153888,338.335275 114.223212,338.300537 C114.639158,339.44688 115.436386,340.384797 116.718884,340.732174 C118.244017,341.149026 120.254419,340.48901 120.982324,338.995291 C122.646105,335.660475 123.997927,332.01302 123.027388,328.261352 Z" id="Path" fill="#F4BAAB"></path>
                    <path d="M364.275665,425.109969 C350.826766,417.745584 338.001785,409.269593 326.008695,399.716734 C314.986145,390.962842 305.003457,380.993132 293.668948,372.656092 C287.46443,368.07072 280.809306,364.180101 273.564925,361.435825 C272.455737,361.018973 271.762495,362.061103 271.901144,362.99902 C270.653308,359.073664 269.232161,355.217783 267.637704,351.396639 C266.979124,349.763969 264.27548,350.49346 264.968722,352.12613 C268.88554,361.644251 271.866482,371.509749 273.80756,381.653147 C264.93406,385.509028 256.129884,389.573336 247.117736,393.116578 C242.888959,394.783986 238.556195,396.242968 234.084783,397.215622 C231.762422,397.70195 229.405399,398.118802 227.048375,398.223015 C225.245946,398.29249 221.641086,397.806163 222.091694,395.1661 C222.403653,393.429217 219.734671,392.664988 219.422712,394.436609 C218.590821,399.369358 223.582165,401.245192 227.637631,400.96729 C233.114244,400.619914 238.521533,399.160932 243.686187,397.354573 C254.604752,393.53343 265.10737,388.426992 275.713976,383.806883 C276.060597,383.667932 276.268569,383.424768 276.372556,383.181605 C276.649853,382.868966 276.823163,382.452114 276.719177,381.965786 C275.540665,375.678269 273.98087,369.460226 272.039792,363.381134 C272.178441,363.693773 272.421075,363.936937 272.837021,364.075888 C285.869973,369.043374 296.684551,378.109905 307.048522,387.211174 C318.001748,396.833508 329.093623,406.108465 341.190699,414.271817 C348.192446,418.99614 355.436827,423.407823 362.854518,427.47213 C364.414313,428.340572 365.835459,425.943673 364.275665,425.109969 Z" id="Path" fill="#F0F7FA"></path>
                    <path d="M276.996474,421.948841 C276.44188,419.412992 275.090058,417.120306 273.079655,415.487635 C271.727833,414.37603 269.752093,416.321339 271.103915,417.467682 C272.767696,418.857189 273.842222,420.594072 274.327491,422.71307 C274.674112,424.449953 277.343095,423.720462 276.996474,421.948841 Z" id="Path" fill="#F0F7FA"></path>
                    <path d="M258.348259,550.686636 C257.932314,553.118272 257.481707,555.515171 257.065761,557.946808 C256.753802,559.683692 259.422785,560.44792 259.734744,558.676299 C260.150689,556.244662 260.601296,553.847763 261.017242,551.416127 C261.329201,549.679243 258.660218,548.949752 258.348259,550.686636 Z" id="Path" fill="#F0F7FA"></path>
                    <path d="M268.504257,553.813026 C268.22696,552.041405 265.523316,552.805633 265.835275,554.542517 C266.944462,561.177411 266.112572,568.090207 263.478251,574.273512 C262.785009,575.906182 265.176695,577.330426 265.869937,575.663018 C268.850878,568.750223 269.752093,561.281624 268.504257,553.813026 Z" id="Path" fill="#F0F7FA"></path>
                    <path d="M277.447081,555.202532 C277.308433,553.430911 274.535464,553.430911 274.674112,555.202532 C275.332692,562.879557 273.391614,570.452368 269.162837,576.878837 C268.192298,578.372556 270.583984,579.762063 271.554523,578.268343 C276.060597,571.494498 278.140323,563.331147 277.447081,555.202532 Z" id="Path" fill="#F0F7FA"></path>
                    <path d="M284.691462,553.639337 C284.483489,551.902454 281.71052,551.867716 281.918493,553.639337 C282.611735,559.093151 281.814507,564.546965 279.457483,569.549189 C278.694917,571.147122 281.086602,572.571366 281.849169,570.938696 C284.414165,565.51962 285.454028,559.614216 284.691462,553.639337 Z" id="Path" fill="#F0F7FA"></path>
                    <path d="M71.6581432,382.035262 C70.964901,383.25108 70.2716589,384.466898 69.5784167,385.682717 C68.6772019,387.245912 71.1035495,388.635419 71.9701022,387.072223 C72.6633443,385.856405 73.3565865,384.640587 74.0498287,383.424768 C74.9163814,381.896311 72.5246959,380.472067 71.6581432,382.035262 Z" id="Path" fill="#F0F7FA"></path>
                    <path d="M67.9146355,364.145363 C65.6269363,369.877078 64.7257215,376.060383 65.2803152,382.20895 C65.4536258,383.980571 68.2265945,383.980571 68.0532839,382.20895 C67.5333523,376.268809 68.3652429,370.432881 70.5836178,364.874854 C71.2421979,363.207446 68.5385534,362.512693 67.9146355,364.145363 Z" id="Path" fill="#F0F7FA"></path>
                    <path d="M61.7794423,364.701166 C60.1503232,370.571832 59.3877568,376.650923 59.5264052,382.764753 C59.5610673,384.536374 62.334036,384.571111 62.2993739,382.764753 C62.1607255,376.894087 62.8886298,371.127634 64.4484246,365.465395 C64.9336942,363.693773 62.2300497,362.964282 61.7794423,364.701166 Z" id="Path" fill="#F0F7FA"></path>
                    <path d="M54.8816827,367.098065 C54.6390479,372.135027 54.4310753,377.171988 54.1884405,382.20895 C54.1191163,383.980571 56.892085,383.980571 56.9614092,382.20895 C57.204044,377.171988 57.4120166,372.135027 57.6546514,367.098065 C57.7239756,365.326444 54.9510069,365.326444 54.8816827,367.098065 Z" id="Path" fill="#F0F7FA"></path>
                    <path d="M149.682549,456.408607 C145.835055,455.574903 141.987561,454.706461 138.209391,453.560118 C134.39656,452.379038 130.757038,450.746367 127.117517,449.078959 C119.353204,445.535717 111.623554,441.957738 103.859242,438.414496 C102.264785,437.685005 100.843639,440.081904 102.472758,440.811395 C110.445043,444.45885 118.382665,448.106305 126.35495,451.788497 C129.786499,453.351692 133.25271,454.914887 136.892231,456.06123 C140.843712,457.311786 144.93384,458.214966 148.989307,459.118145 C150.68775,459.500259 151.450317,456.790721 149.682549,456.408607 Z" id="Path" fill="#F0F7FA"></path>
                    <path d="M164.275297,423.616249 C157.58551,421.879366 151.17302,419.308779 145.141813,415.973963 C143.582018,415.105521 142.160872,417.50242 143.755329,418.370862 C149.994508,421.844628 156.649633,424.484691 163.547393,426.29105 C165.280498,426.742639 166.008402,424.067839 164.275297,423.616249 Z" id="Path" fill="#F0F7FA"></path>
                    <path d="M148.989307,354.835668 C148.954645,355.843061 148.885321,356.815715 148.781335,357.78837 L140.670401,355.738848 C138.937296,355.287258 138.209391,357.962058 139.942497,358.413648 C142.646141,359.108401 145.349786,359.803155 148.05343,360.46317 C148.157417,360.497908 148.226741,360.497908 148.330727,360.497908 C147.810795,362.860069 147.013567,365.08328 145.973704,367.237016 C144.032626,366.959114 142.264858,366.194886 140.635739,365.118018 C139.145268,364.110625 137.758784,366.507525 139.249255,367.514917 C140.913036,368.626522 142.680803,369.390751 144.621881,369.807603 C143.235397,372.135027 141.606278,374.3235 139.803848,376.40776 C138.486688,375.678269 137.412163,374.705614 136.476286,373.524533 C136.025679,372.933993 134.985815,373.038206 134.500546,373.524533 C133.91129,374.115074 134.049938,374.91404 134.500546,375.50458 C135.436423,376.685661 136.580272,377.727791 137.86277,378.526757 C137.585473,378.804659 137.308177,379.117298 136.996218,379.395199 C135.332436,381.027869 133.564669,382.556327 131.692915,383.945833 C131.658253,383.876358 131.623591,383.772145 131.588929,383.70267 C130.965011,382.313163 130.375755,380.923656 129.751837,379.53415 C129.439878,378.839396 128.434677,378.700446 127.845421,379.047822 C127.152179,379.464674 127.048193,380.263641 127.360151,380.958394 C127.984069,382.347901 128.573325,383.737407 129.197243,385.126914 C129.266567,385.265865 129.370554,385.370078 129.47454,385.474291 C127.325489,386.82906 125.03779,387.940665 122.611443,388.739632 L122.611443,383.528981 C122.611443,381.75736 119.838474,381.722623 119.838474,383.528981 L119.838474,389.225959 C119.838474,389.330172 119.838474,389.399647 119.873136,389.50386 C118.348003,389.851237 116.753546,390.024925 115.124427,390.059663 C113.35666,390.094401 113.321998,392.873414 115.124427,392.839934 C124.344548,392.664988 132.524806,387.766977 138.937296,381.375246 C146.216338,374.149811 151.554303,365.430657 151.76353,354.939881 C151.796938,353.064047 149.023969,353.064047 148.989307,354.835668 Z" id="Path" fill="#F0F7FA"></path>
                    <path d="M382.403947,412.257032 C362.750532,435.322843 333.461048,446.056782 309.232235,463.21719 C302.473123,467.97625 296.095295,473.256376 290.445372,479.335467 C289.232198,480.655499 291.173276,482.600808 292.421112,481.315514 C313.045066,459.152883 342.334548,448.731583 366.216743,430.945897 C372.837205,426.013148 379.007061,420.559335 384.345025,414.271817 C385.488875,412.88231 383.547797,410.902263 382.403947,412.257032 Z" id="Path" fill="#F0F7FA"></path>
                    <path d="M65.2803152,354.175653 C64.7950457,353.828276 64.3097762,353.863014 63.9631551,354.106177 C63.7205204,353.793538 63.3738993,353.480899 63.1312645,353.202998 C62.5420087,352.508245 61.9527528,351.778754 61.4328212,351.014525 C60.4622822,349.625018 59.5610673,348.166036 58.798501,346.637578 C57.2387061,343.511187 56.2335049,340.176371 55.7135733,336.737342 C55.4362764,334.965721 52.7672941,335.72995 53.044591,337.466833 C53.8764816,342.920647 55.9908702,348.131299 59.2144463,352.612458 C60.2889716,354.106177 62.0914013,357.19783 64.1018036,357.440993 C66.0775437,357.78837 66.8401101,355.287258 65.2803152,354.175653 Z" id="Path" fill="#F0F7FA"></path>
                    <path d="M75.5402993,347.228118 C69.4744304,343.928039 65.3149773,338.022636 64.1711278,331.214053 C63.8591688,329.442432 61.1901864,330.206661 61.5021454,331.943544 C62.7846434,339.412143 67.4986902,346.0123 74.153815,349.625018 C75.6789478,350.49346 77.1000942,348.096561 75.5402993,347.228118 Z" id="Path" fill="#F0F7FA"></path>
                    <path d="M82.0914378,339.690044 C78.3479301,336.424703 75.436313,332.360396 73.7032076,327.705549 C73.0792896,326.038141 70.4103073,326.767632 71.0342252,328.43504 C72.9406412,333.541477 75.9909068,338.092111 80.1503598,341.670091 C81.4675199,342.851172 83.4432601,340.871125 82.0914378,339.690044 Z" id="Path" fill="#F0F7FA"></path>
                    <path d="M206.597731,397.285098 C200.32389,394.228183 195.22856,388.948058 192.559577,382.417376 C189.855933,375.817219 190.687824,368.140195 187.152289,361.852677 C180.462502,349.937657 163.686041,352.57772 152.420856,349.833444 C143.893977,347.783922 135.852368,343.789089 129.023933,338.2658 C127.637448,337.154194 125.661708,339.099504 127.048193,340.245847 C132.871427,344.97017 139.457227,348.652364 146.597622,351.049263 C153.460719,353.376686 160.427803,353.863014 167.568197,354.731455 C173.70339,355.460946 180.739799,356.919928 184.344658,362.54743 C186.320398,365.673821 186.944316,369.425489 187.49891,373.038206 C188.088166,376.685661 188.677421,380.263641 190.098568,383.667932 C193.010185,390.615466 198.417474,396.381918 205.211247,399.716734 C206.771042,400.480963 208.192188,398.084064 206.597731,397.285098 Z" id="Path" fill="#F0F7FA"></path>
                    <path d="M225.904526,376.303547 C219.422712,373.87191 213.634139,369.599177 209.440024,364.075888 C205.072599,358.309435 203.44348,350.94505 198.660109,345.421759 C189.855933,335.208885 175.471158,333.333051 163.200772,329.963497 C155.679094,327.913975 148.157417,325.065486 142.646141,319.299033 C141.398305,318.01374 139.457227,319.959049 140.670401,321.279081 C150.583764,331.665643 165.523133,332.777248 178.486761,336.841555 C184.829927,338.821602 191.207755,341.565878 195.852478,346.463889 C201.017132,351.848229 202.576927,359.559991 207.048339,365.465395 C211.658399,371.613962 217.966903,376.268809 225.176622,378.978347 C226.840403,379.603625 227.568307,376.928825 225.904526,376.303547 Z" id="Path" fill="#F0F7FA"></path>
                    <path d="M252.906308,347.332331 C245.384631,337.22367 236.961738,326.80237 223.651489,325.100224 C216.199135,324.127569 208.746782,325.482338 201.259767,325.100224 C194.258021,324.752847 187.429585,322.877013 180.947771,320.271688 C173.426094,317.214773 166.389686,313.080991 159.56125,308.738783 C158.036117,307.766128 156.649633,310.197765 158.174766,311.135682 C169.613262,318.395854 181.952972,325.239175 195.540519,327.288697 C202.611589,328.365565 209.613335,327.601336 216.684405,327.531861 C223.790137,327.462385 230.341276,328.817154 236.16451,333.05515 C241.91842,337.258407 246.320508,343.094335 250.514623,348.756577 C251.554486,350.146083 253.980834,348.791314 252.906308,347.332331 Z" id="Path" fill="#F0F7FA"></path>
                    <path d="M118.036044,333.1941 C117.724085,333.124625 117.412126,333.05515 117.100167,333.020412 C116.961519,331.769856 116.822871,330.5193 116.64956,329.268744 C116.545574,328.539253 116.060304,327.879237 115.263076,327.879237 C114.569833,327.879237 113.772605,328.504515 113.876591,329.268744 L114.257874,332.464609 C114.153888,332.429872 114.049902,332.429872 113.911253,332.395134 C112.178148,332.047757 111.415582,334.722558 113.183349,335.069934 C114.569833,335.347836 115.921656,335.625737 117.30814,335.903638 C119.041245,336.251015 119.803812,333.576215 118.036044,333.1941 Z" id="Path" fill="#F0F7FA"></path>
                    <path d="M99.2491815,514.872101 C98.3133046,513.343644 95.9216191,514.73315 96.857496,516.261608 C97.3081035,517.025836 97.1347929,518.172179 96.3029023,518.589031 C95.4016875,519.040621 94.3271621,518.31113 94.0845274,517.442688 C93.5992578,515.705805 90.9302755,516.435296 91.415545,518.172179 C92.1087872,520.708029 95.0550664,522.271224 97.481414,521.090143 C99.7691132,520.048013 100.53168,516.991099 99.2491815,514.872101 Z" id="Path" fill="#F0F7FA"></path>
                    <path d="M93.0793262,488.610425 C91.6581798,486.943017 90.6529786,484.997707 90.0290607,482.913447 C89.5091291,481.211301 86.8401467,481.940792 87.3600783,483.642938 C88.1226447,486.213526 89.4051427,488.506212 91.1382481,490.590472 C92.2820977,491.945241 94.2231758,489.965194 93.0793262,488.610425 Z" id="Path" fill="#F0F7FA"></path>
                    <path d="M395.748859,69.8825834 C393.669132,68.4930767 391.589406,67.10357 389.509679,65.7140634 C388.019209,64.706671 386.632724,67.1383077 388.123195,68.1109624 C390.202922,69.5004691 392.282648,70.8899758 394.362375,72.2794824 C395.852845,73.2868748 397.23933,70.8899758 395.748859,69.8825834 Z" id="Path" fill="#F0F7FA"></path>
                    <path d="M413.149237,70.4383861 C411.693429,69.3615184 410.341607,68.1457001 409.128433,66.790931 C407.949921,65.4708997 405.974181,67.416209 407.152693,68.7709781 C408.539177,70.2994354 410.06431,71.6542044 411.728091,72.8700228 C412.352009,73.3216125 413.287886,72.9742358 413.634507,72.3836954 C414.085114,71.6542044 413.773155,70.8899758 413.149237,70.4383861 Z" id="Path" fill="#F0F7FA"></path>
                    <path d="M419.527065,88.6756613 C418.209905,87.147204 416.858083,85.584009 415.540923,84.0555516 C414.362411,82.7007826 412.421333,84.6808296 413.565183,86.0355986 C414.882343,87.564056 416.234165,89.127251 417.551325,90.6557084 C418.729837,92.0104774 420.705577,90.0304304 419.527065,88.6756613 Z" id="Path" fill="#F0F7FA"></path>
                    <path d="M435.263663,94.9631791 C434.57042,92.8094437 433.877178,90.6557084 433.183936,88.4672353 C432.629342,86.7650896 429.96036,87.4945807 430.514954,89.1967263 C431.208196,91.3504617 431.901438,93.5041971 432.59468,95.6926701 C433.149274,97.3948158 435.818256,96.6653248 435.263663,94.9631791 Z" id="Path" fill="#F0F7FA"></path>
                    <path d="M437.100754,110.247753 C436.37285,109.587737 436.095553,108.788771 436.164877,107.816116 C436.234202,107.051887 435.471635,106.426609 434.778393,106.426609 C433.981165,106.426609 433.461233,107.051887 433.391909,107.816116 C433.25326,109.448786 433.91184,111.081457 435.125014,112.193062 C436.442174,113.40888 438.417915,111.463571 437.100754,110.247753 Z" id="Path" fill="#F0F7FA"></path>
                    <path d="M469.440502,153.982476 L466.216926,144.638043 C465.62767,142.970635 462.958687,143.665388 463.547943,145.367534 C464.622469,148.493924 465.696994,151.585577 466.771519,154.711967 C467.326113,156.379375 470.029757,155.649884 469.440502,153.982476 Z" id="Path" fill="#F0F7FA"></path>
                    <path d="M477.447449,146.757041 C477.031503,145.020157 474.362521,145.749648 474.778466,147.486532 C475.263736,149.60553 475.125087,151.794003 474.223873,153.808787 C473.495968,155.441458 475.887654,156.830964 476.615558,155.198294 C477.828732,152.488756 478.140691,149.675005 477.447449,146.757041 Z" id="Path" fill="#F0F7FA"></path>
                    <path d="M473.911914,168.641771 C473.218671,170.378654 472.560091,172.115538 471.866849,173.887159 C471.208269,175.554567 473.911914,176.284058 474.535832,174.61665 C475.229074,172.879766 475.887654,171.142883 476.580896,169.371262 C477.239476,167.703854 474.570494,166.974363 473.911914,168.641771 Z" id="Path" fill="#F0F7FA"></path>
                    <path d="M458.764572,227.001052 C458.383289,224.916792 458.036668,222.832532 457.655385,220.748272 C457.343426,218.976651 454.674443,219.740879 454.986402,221.477763 C455.367686,223.562023 455.714307,225.646283 456.09559,227.730543 C456.407549,229.502164 459.076531,228.737935 458.764572,227.001052 Z" id="Path" fill="#F0F7FA"></path>
                    <path d="M467.083478,223.874662 C466.771519,222.103041 464.067875,222.86727 464.414496,224.604153 C464.899765,227.209478 464.587806,229.780065 463.617267,232.24644 C462.958687,233.913848 465.62767,234.643339 466.28625,232.975931 C467.430099,230.057967 467.672734,226.966314 467.083478,223.874662 Z" id="Path" fill="#F0F7FA"></path>
                    <path d="M456.199576,246.38467 C455.159713,248.121554 454.154512,249.858437 453.114649,251.630058 C452.213434,253.158515 454.605119,254.58276 455.506334,253.019565 C456.546197,251.282681 457.551398,249.545798 458.591262,247.774177 C459.527139,246.245719 457.135453,244.856213 456.199576,246.38467 Z" id="Path" fill="#F0F7FA"></path>
                    <path d="M33.2525272,338.508963 C32.4899608,337.397358 31.7273944,336.251015 30.964828,335.13941 C30.3409101,334.23623 29.68233,332.777248 28.8504394,332.047757 C27.7065898,331.075103 26.1467949,331.630905 25.1069317,332.429872 C24.5523379,332.846724 24.0670684,333.367789 23.5124747,333.784641 C22.7152462,334.375181 22.7845704,334.132017 22.2993009,333.228838 C21.0168029,330.831939 19.8036291,328.400302 18.5557932,326.003403 C18.0358615,324.996011 16.7187014,325.204437 16.1641077,326.003403 C15.1242444,327.427648 14.1190433,328.851892 13.07918,330.310874 C11.0341156,327.601336 9.50898287,324.544421 8.50378172,321.279081 C7.9838501,319.576935 5.31486775,320.306426 5.83479937,322.008572 C7.11729739,326.316042 9.231686,330.171923 12.1433031,333.576215 C12.7672211,334.305706 13.8417464,333.958329 14.3270159,333.298313 C15.2628929,331.978282 16.1987698,330.658251 17.1346467,329.372957 C17.7932268,330.658251 18.4518069,331.943544 19.1103869,333.1941 C19.8036291,334.548869 20.4622091,336.389966 22.0566661,336.876293 C23.0618673,337.154194 24.0670684,336.737342 24.8642969,336.18154 C25.3495664,335.834163 26.3201055,334.618345 27.0480097,334.409919 C28.2958457,336.251015 29.5436816,338.092111 30.8261796,339.933208 C31.8660428,341.39219 34.2577283,340.002683 33.2525272,338.508963 Z" id="Path" fill="#E8C221"></path>
                    <path d="M35.1936051,350.180821 C34.465701,352.404032 33.7724588,354.627242 33.0445545,356.850453 C31.7273944,355.808323 30.3755722,354.766193 29.058412,353.724063 C27.775914,352.716671 26.1121328,350.875574 24.3097032,351.084 C22.7499083,351.292426 22.0566661,352.612458 21.4674103,353.932489 C20.6355197,355.70411 19.8382912,357.475731 19.0410627,359.247352 L13.1831664,353.897751 C12.4552621,353.237736 11.138102,353.446162 10.8608051,354.523029 L8.29580907,365.013805 C7.87986377,366.750688 10.5488461,367.480179 10.9647914,365.743296 C11.6233715,362.99902 12.3166137,360.254744 12.9751937,357.475731 C14.8122855,359.143139 16.6840393,360.845285 18.5211311,362.512693 C19.1103869,363.068495 20.3235607,363.103233 20.7048439,362.234791 C21.363424,360.775809 22.0566661,359.316827 22.7152462,357.823108 C23.0965294,356.954666 23.9977442,354.001964 24.8296348,353.967227 C25.3495664,353.932489 26.4240918,355.11357 26.8400371,355.460946 C27.4639551,355.947274 28.087873,356.468339 28.7464531,356.954666 C30.0982753,358.031534 31.4500975,359.073664 32.8019198,360.150531 C33.6338104,360.810547 34.7776598,360.602121 35.1242809,359.525253 C36.0601578,356.642027 36.9613726,353.793538 37.8972496,350.910312 C38.4171812,349.208166 35.7481988,348.478675 35.1936051,350.180821 Z" id="Path" fill="#E8C221"></path>
                    <path d="M47.0133841,365.847509 C46.8400735,367.61913 46.666763,369.425489 46.4934525,371.19711 C44.760347,370.467619 42.9925795,369.70339 41.2594741,368.973899 C40.4275835,368.626522 39.4917065,368.869686 39.2144097,369.807603 C38.4518433,372.482403 37.9319117,375.191941 37.723939,377.970955 C35.4015777,376.720399 33.1138787,375.469843 30.7915175,374.219287 C30.0289511,373.802435 28.9890878,374.149811 28.7464531,375.052991 C28.0532109,377.970955 27.4986172,380.923656 27.117334,383.945833 C26.8746992,385.717454 29.6476679,385.682717 29.8903026,383.945833 C30.1675995,381.792098 30.5488827,379.638363 31.0341522,377.519365 C33.4604998,378.839396 35.8868473,380.12469 38.2785328,381.444721 C39.2144097,381.965786 40.3235971,381.305771 40.3582593,380.228903 C40.4275835,377.44989 40.8088667,374.740352 41.4674467,372.065551 C43.3045385,372.82978 45.1416302,373.628746 46.978722,374.392975 C47.9839231,374.809827 48.9544622,374.3235 49.0584485,373.177157 C49.3010832,370.710782 49.543718,368.279146 49.7516906,365.812771 C49.9250012,364.075888 47.1520325,364.075888 47.0133841,365.847509 Z" id="Path" fill="#E8C221"></path>
                </g>
            </g>
        </g>
    </g>
</svg>