<?xml version="1.0" encoding="UTF-8" standalone="no"?>
<!DOCTYPE svg PUBLIC "-//W3C//DTD SVG 1.1//EN" "http://www.w3.org/Graphics/SVG/1.1/DTD/svg11.dtd">
<svg width="100%" height="100%" viewBox="0 0 567 107" version="1.1" xmlns="http://www.w3.org/2000/svg" xmlns:xlink="http://www.w3.org/1999/xlink" xml:space="preserve" xmlns:serif="http://www.serif.com/" style="fill-rule:evenodd;clip-rule:evenodd;stroke-linejoin:round;stroke-miterlimit:2;">
    <g transform="matrix(0.983929,0,0,0.983929,534.628,58.5424)">
        <path d="M0,-16.339C-3.117,-16.339 -5.987,-15.584 -8.629,-14.075C-11.27,-12.582 -13.37,-10.531 -14.912,-7.923C-16.437,-5.331 -17.209,-2.493 -17.209,0.575C-17.209,5.217 -15.486,9.27 -12.024,12.731C-8.432,16.291 -4.347,18.079 0.23,18.079C3.314,18.079 6.152,17.291 8.761,15.717C11.386,14.142 13.453,12.042 14.995,9.401C16.521,6.76 17.291,3.872 17.291,0.772C17.291,-2.345 16.521,-5.2 14.962,-7.808C13.403,-10.417 11.32,-12.5 8.662,-14.026C6.021,-15.568 3.134,-16.339 0,-16.339M24.559,14.946C22.114,19.178 18.719,22.492 14.371,24.904C9.975,27.298 5.054,28.496 -0.394,28.496C-5.446,28.496 -10.105,27.283 -14.354,24.854C-18.603,22.411 -21.966,19.113 -24.443,14.929C-26.92,10.746 -28.167,6.136 -28.167,1.1C-28.167,-4.413 -26.97,-9.252 -24.558,-13.452C-22.13,-17.684 -18.718,-20.998 -14.321,-23.409C-10.039,-25.772 -5.266,-26.969 0,-26.969C5.119,-26.969 9.893,-25.756 14.322,-23.36C18.702,-20.916 22.114,-17.619 24.559,-13.452C26.987,-9.203 28.201,-4.445 28.201,0.772C28.201,5.955 26.987,10.68 24.559,14.946M-52.044,28.496C-56.112,28.496 -59.721,27.693 -62.888,26.101C-66.037,24.494 -68.53,22.164 -70.352,19.113C-72.173,16.045 -73.174,12.403 -73.338,8.17L-62.379,8.17C-62.182,11.254 -61.165,13.617 -59.295,15.29C-57.441,16.948 -54.931,17.784 -51.748,17.784C-49.665,17.784 -47.893,17.505 -46.417,16.963C-44.94,16.422 -43.841,15.701 -43.103,14.782C-42.364,13.863 -42.004,12.863 -42.004,11.78C-42.004,10.402 -42.414,9.335 -43.25,8.597C-43.857,8.088 -44.432,7.695 -44.973,7.432C-45.515,7.154 -46.236,6.891 -47.139,6.628C-48.959,6.185 -51.01,5.759 -53.291,5.332C-55.046,5.086 -56.752,4.758 -58.393,4.381C-60.181,3.889 -61.854,3.364 -63.38,2.789C-64.446,2.396 -65.217,2.051 -65.692,1.723L-66.66,1.018C-67.169,0.558 -67.563,0.246 -67.858,0.05C-68.563,-0.492 -69.154,-1.098 -69.63,-1.771C-70.105,-2.444 -70.614,-3.313 -71.123,-4.38C-71.959,-6.036 -72.369,-8.186 -72.369,-10.81C-72.369,-14.042 -71.483,-16.897 -69.729,-19.341C-67.973,-21.802 -65.562,-23.672 -62.526,-24.985C-59.475,-26.313 -56.046,-26.969 -52.24,-26.969C-48.353,-26.969 -44.907,-26.182 -41.905,-24.624C-38.887,-23.082 -36.524,-20.834 -34.785,-17.898C-33.063,-14.977 -32.145,-11.499 -32.046,-7.497L-42.726,-7.497C-42.873,-10.483 -43.775,-12.713 -45.416,-14.223C-47.04,-15.732 -49.386,-16.486 -52.421,-16.486C-55.406,-16.486 -57.654,-15.978 -59.18,-14.944C-60.706,-13.927 -61.46,-12.648 -61.46,-11.106C-61.46,-9.859 -61.132,-8.973 -60.459,-8.464C-59.754,-7.907 -59.147,-7.513 -58.622,-7.283C-58.113,-7.037 -57.441,-6.824 -56.604,-6.627C-55.801,-6.414 -54.914,-6.201 -53.914,-6.004L-50.797,-5.479C-46.564,-4.806 -43.25,-4.068 -40.839,-3.264C-38.05,-2.379 -35.803,-0.885 -34.097,1.199C-32.374,3.282 -31.373,6.071 -31.095,9.565L-30.996,11.386C-30.996,14.847 -31.882,17.882 -33.687,20.474C-35.475,23.066 -37.968,25.051 -41.15,26.429C-44.35,27.807 -47.976,28.496 -52.044,28.496M-107.483,-16.634C-110.568,-16.634 -113.373,-15.896 -115.899,-14.42C-118.426,-12.943 -120.428,-10.942 -121.888,-8.382C-123.348,-5.839 -124.069,-3.018 -124.069,0.099C-124.069,5.119 -122.494,9.253 -119.361,12.501C-116.244,15.701 -112.225,17.308 -107.303,17.308C-104.252,17.308 -101.479,16.553 -98.985,15.044C-96.476,13.535 -94.508,11.5 -93.047,8.909C-91.587,6.333 -90.865,3.479 -90.865,0.328C-90.865,-2.804 -91.587,-5.675 -93.063,-8.268C-94.54,-10.86 -96.541,-12.91 -99.084,-14.387C-101.61,-15.88 -104.416,-16.634 -107.483,-16.634M-91.193,22.541C-93.572,24.494 -96.197,25.97 -99.101,26.987C-102.004,28.004 -105.121,28.496 -108.451,28.496C-113.472,28.496 -118.064,27.266 -122.199,24.805C-126.333,22.328 -129.581,18.981 -131.977,14.733C-134.355,10.484 -135.553,5.791 -135.553,0.673C-135.553,-4.806 -134.404,-9.695 -132.092,-13.993C-129.762,-18.275 -126.48,-21.654 -122.298,-24.131C-118.131,-26.592 -113.423,-27.822 -108.156,-27.822C-105.023,-27.822 -102.021,-27.363 -99.166,-26.428C-96.328,-25.509 -93.72,-24.148 -91.391,-22.343L-91.391,-44.785L-80.087,-44.785L-80.087,27.397L-91.193,27.397L-91.193,22.541ZM-152.999,-2.362C-152.999,-7.005 -154,-10.499 -156.001,-12.828C-158.002,-15.174 -160.89,-16.339 -164.68,-16.339C-167.009,-16.339 -169.174,-15.683 -171.159,-14.37C-173.145,-13.058 -174.735,-11.27 -175.917,-9.006C-177.114,-6.758 -177.705,-4.265 -177.705,-1.542L-177.705,27.348L-188.942,27.348L-188.942,-25.903L-178.476,-25.903L-178.476,-21.146C-174.588,-25.017 -169.634,-26.969 -163.613,-26.969C-159.577,-26.969 -155.902,-25.968 -152.572,-23.951C-149.226,-21.949 -146.601,-19.21 -144.682,-15.732C-142.762,-12.271 -141.794,-8.415 -141.794,-4.182L-141.794,27.348L-152.999,27.348L-152.999,-2.362ZM-222.629,-16.092C-226.304,-16.092 -229.503,-15.125 -232.193,-13.172C-234.884,-11.22 -236.737,-8.563 -237.771,-5.183L-207.586,-5.183C-208.636,-8.563 -210.506,-11.22 -213.18,-13.172C-215.854,-15.125 -219.004,-16.092 -222.629,-16.092M-238.05,5.529C-237.476,7.924 -236.476,10.024 -235.031,11.796C-233.588,13.584 -231.8,14.962 -229.667,15.93C-227.534,16.914 -225.188,17.407 -222.629,17.407C-219.364,17.407 -216.657,16.816 -214.525,15.651C-212.393,14.47 -210.538,12.518 -208.98,9.761L-197.103,9.761C-199.826,16.258 -203.287,21.016 -207.471,24.001C-211.638,27.003 -216.707,28.496 -222.629,28.496C-227.682,28.496 -232.292,27.298 -236.426,24.904C-240.593,22.459 -243.841,19.129 -246.171,14.897C-248.55,10.598 -249.73,5.89 -249.73,0.772C-249.73,-4.363 -248.565,-9.055 -246.22,-13.32C-243.857,-17.602 -240.593,-20.949 -236.426,-23.36C-232.292,-25.756 -227.682,-26.969 -222.629,-26.969C-217.494,-26.969 -212.852,-25.723 -208.685,-23.262C-204.518,-20.735 -201.335,-17.323 -199.12,-13.025C-196.938,-8.793 -195.855,-4.117 -195.855,1.018C-195.855,1.969 -195.954,3.479 -196.151,5.529L-238.05,5.529ZM-265.814,-44.835L-256.151,-44.835L-256.151,27.348L-265.814,27.348L-265.814,-44.835ZM-304.39,-15.962C-307.474,-15.962 -310.279,-15.223 -312.806,-13.763C-315.332,-12.32 -317.333,-10.318 -318.81,-7.792C-320.287,-5.249 -321.025,-2.46 -321.025,0.575C-321.025,5.513 -319.45,9.565 -316.316,12.731C-313.15,15.913 -309.098,17.489 -304.209,17.489C-301.191,17.489 -298.435,16.767 -295.941,15.29C-293.432,13.814 -291.463,11.796 -290.002,9.253C-288.542,6.71 -287.821,3.872 -287.821,0.772C-287.821,-2.345 -288.542,-5.167 -290.002,-7.71C-291.463,-10.253 -293.448,-12.271 -295.991,-13.747C-298.517,-15.223 -301.322,-15.962 -304.39,-15.962M-288.247,22.344C-292.956,26.446 -298.55,28.496 -305.013,28.496C-310.148,28.496 -314.824,27.298 -319.056,24.904C-323.19,22.525 -326.471,19.195 -328.899,14.897C-331.311,10.598 -332.508,5.759 -332.508,0.328C-332.508,-4.659 -331.294,-9.252 -328.883,-13.402C-326.471,-17.569 -323.174,-20.883 -319.007,-23.311C-314.84,-25.739 -310.279,-26.969 -305.309,-26.969C-298.418,-26.969 -292.595,-24.886 -287.821,-20.719L-287.821,-25.903L-276.321,-25.903L-276.321,27.447L-288.247,27.447L-288.247,22.344ZM-360.322,28.496C-365.457,28.496 -370.132,27.298 -374.365,24.904C-378.597,22.492 -381.911,19.161 -384.306,14.897C-386.718,10.598 -387.916,5.89 -387.916,0.772C-387.916,-4.363 -386.734,-9.071 -384.355,-13.353C-381.96,-17.619 -378.63,-20.949 -374.365,-23.36C-370.132,-25.756 -365.457,-26.969 -360.322,-26.969C-353.924,-26.969 -348.396,-25.197 -343.753,-21.654C-339.11,-18.11 -335.813,-12.976 -333.894,-6.25L-345.049,-6.25C-346.493,-9.383 -348.543,-11.778 -351.217,-13.402C-353.891,-15.043 -356.795,-15.863 -359.896,-15.863C-362.75,-15.863 -365.44,-15.191 -367.967,-13.862C-370.51,-12.533 -372.544,-10.597 -374.103,-8.054C-375.661,-5.495 -376.432,-2.526 -376.432,0.87C-376.432,3.872 -375.726,6.661 -374.299,9.204C-372.872,11.746 -370.936,13.765 -368.508,15.257C-366.064,16.75 -363.406,17.489 -360.519,17.489C-353.284,17.489 -348.149,14.191 -345.147,7.596L-333.795,7.596C-335.075,12.14 -337.01,15.979 -339.569,19.113C-342.129,22.23 -345.18,24.576 -348.724,26.151C-352.267,27.708 -356.139,28.496 -360.322,28.496" style="fill:rgb(17,77,134);"/>
    </g>
    <g transform="matrix(0.983929,0,0,0.983929,28.5656,19.0621)">
        <path d="M0,-18.501L0.002,-18.501C2.78,-18.501 5.054,-16.227 5.054,-13.448L5.054,-5.052C5.054,-2.273 2.78,0 0.002,0L0,0C-2.778,0 -5.053,-2.273 -5.053,-5.052L-5.053,-13.448C-5.053,-16.227 -2.778,-18.501 0,-18.501" style="fill:rgb(36,146,235);"/>
    </g>
    <g transform="matrix(0.983929,0,0,0.983929,76.7372,19.0621)">
        <path d="M0,-18.501L0.001,-18.501C2.78,-18.501 5.054,-16.227 5.054,-13.448L5.054,-5.052C5.054,-2.273 2.78,0 0.001,0L0,0C-2.778,0 -5.053,-2.273 -5.053,-5.052L-5.053,-13.448C-5.053,-16.227 -2.778,-18.501 0,-18.501" style="fill:rgb(36,146,235);"/>
    </g>
    <g transform="matrix(0.983929,0,0,0.983929,71.6758,81.8699)">
        <path d="M0,-48.695L-38.906,-48.695C-41.671,-48.695 -43.933,-46.433 -43.933,-43.668L-43.933,-4.762C-43.933,-1.997 -41.671,0.265 -38.906,0.265L-7.116,0.265L5.027,12.408L5.027,-43.668C5.027,-46.433 2.765,-48.695 0,-48.695M-57.256,-73.231L-54.201,-73.231L-54.201,-68.885C-54.201,-63.171 -49.528,-58.498 -43.813,-58.498L-43.811,-58.498C-38.096,-58.498 -33.423,-63.171 -33.423,-68.885L-33.423,-73.231L-5.243,-73.231L-5.243,-68.885C-5.243,-63.171 -0.57,-58.498 5.145,-58.498L5.147,-58.498C10.862,-58.498 15.535,-63.171 15.535,-68.885L15.535,-73.231L18.587,-73.231C24.617,-73.231 29.549,-68.299 29.549,-62.269L29.549,13.574C29.549,19.601 24.615,24.536 18.587,24.536L-19.678,24.536L-68.217,-24.005L-68.217,-62.269C-68.217,-68.299 -63.285,-73.231 -57.256,-73.231" style="fill:rgb(36,146,235);"/>
    </g>
    <g transform="matrix(0.983929,0,0,0.983929,52.3144,106.011)">
        <path d="M0,-48.54L-48.54,-48.54L0,0L0,-48.54Z" style="fill:rgb(17,77,134);"/>
    </g>
</svg>
