<?xml version="1.0" encoding="UTF-8"?>
<svg width="1220px" height="1487px" viewBox="0 0 1220 1487" version="1.1" xmlns="http://www.w3.org/2000/svg" xmlns:xlink="http://www.w3.org/1999/xlink">
    <title>Group</title>
    <g id="Page-1" stroke="none" stroke-width="1" fill="none" fill-rule="evenodd">
        <g id="2534_R0lVIE5JQyA1NDktNDU" transform="translate(-469.000000, -314.000000)">
            <g id="Group" transform="translate(1078.933838, 1057.185644) scale(-1, 1) rotate(-263.000000) translate(-1078.933838, -1057.185644) translate(395.473809, 527.382643)">
                <path d="M1312.53006,492.146 C1285.69006,499.626 1257.88006,483.916 1250.41006,457.082 L1161.54006,137.725 C1154.08006,110.88 1169.78006,83.07 1196.62006,75.606 C1223.46006,68.142 1251.28006,83.839 1258.74006,110.685 L1347.60006,430.042 C1355.07006,456.876 1339.37006,484.686 1312.53006,492.146" id="Fill-1" fill="#E36957"></path>
                <path d="M1312.53006,492.146 L1307.85006,475.336 C1304.85006,476.156 1301.89006,476.546 1298.97006,476.546 C1291.79006,476.556 1284.85006,474.166 1279.20006,469.936 C1273.56006,465.685 1269.29006,459.747 1267.23006,452.404 L1178.37006,133.039 C1177.53006,130.051 1177.15006,127.084 1177.15006,124.171 C1177.14006,116.99 1179.53006,110.042 1183.76006,104.395 C1188.00006,98.757 1193.94006,94.485 1201.30006,92.429 C1204.29006,91.596 1207.25006,91.207 1210.17006,91.207 C1217.34006,91.207 1224.29006,93.593 1229.94006,97.818 C1235.58006,102.066 1239.86006,108.005 1241.92006,115.363 L1330.79006,434.724 C1331.61006,437.71 1331.99006,440.667 1331.99006,443.585 C1332.00006,450.762 1329.62006,457.71 1325.39006,463.357 C1321.14006,468.999 1315.20006,473.276 1307.85006,475.336 L1317.21006,508.976 C1332.17006,504.816 1344.70006,495.856 1353.34006,484.286 C1362.00006,472.726 1366.92006,458.495 1366.92006,443.585 C1366.92006,437.554 1366.11006,431.416 1364.43006,425.359 L1275.56006,106.003 C1271.40006,91.036 1262.44006,78.509 1250.87006,69.867 C1239.30006,61.204 1225.07006,56.292 1210.17006,56.283 C1204.12006,56.283 1197.99006,57.097 1191.94006,58.787 C1176.97006,62.929 1164.45006,71.903 1155.81006,83.464 C1147.15006,95.031 1142.22006,109.262 1142.22006,124.171 C1142.22006,130.212 1143.03006,136.351 1144.72006,142.402 L1233.59006,461.759 C1237.74006,476.726 1246.70006,489.246 1258.27006,497.886 C1269.83006,506.546 1284.06006,511.466 1298.97006,511.476 C1305.01006,511.476 1311.15006,510.656 1317.21006,508.976 L1312.53006,492.146" id="Fill-2" fill="#1C0000"></path>
                <path d="M825.450057,750.916 L825.450057,750.866 C788.257057,780.606 744.637057,803.526 695.872057,817.076 C522.876057,865.156 344.350057,779.936 269.836057,623.176 C260.898057,604.436 253.505057,584.686 247.736057,564.036 C193.836057,370.426 307.117057,169.802 500.776057,115.898 C555.402057,100.716 610.649057,98.835 662.920057,108.307 L1166.78006,156.541 L1245.47006,439.318 L825.450057,750.916" id="Fill-3" fill="#F3B36D"></path>
                <path d="M825.450057,750.916 L842.900057,750.916 L842.900057,750.866 C842.900057,744.126 839.080057,738.046 833.010057,735.126 C826.930057,732.216 819.800057,733.026 814.540057,737.236 C779.132057,765.546 737.652057,787.346 691.199057,800.246 C660.100057,808.886 628.861057,813.006 598.138057,813.006 C465.958057,813.026 343.101057,736.706 285.609057,615.676 L285.598057,615.656 C277.098057,597.836 270.056057,579.046 264.559057,559.346 C255.896057,528.246 251.775057,496.986 251.775057,466.251 C251.770057,390.465 276.871057,317.72 321.140057,258.607 C365.432057,199.494 428.757057,154.076 505.456057,132.721 C536.520057,124.087 567.750057,119.976 598.475057,119.976 C619.225057,119.976 639.740057,121.851 659.805057,125.492 L661.256057,125.691 L1153.17006,172.78 L1225.43006,432.439 L815.040057,736.896 L825.450057,750.916 L842.900057,750.916 L825.450057,750.916 L835.850057,764.936 L1255.88006,453.345 C1261.68006,449.033 1264.23006,441.598 1262.30006,434.636 L1183.60006,151.859 C1181.66006,144.902 1175.63006,139.844 1168.45006,139.158 L664.578057,90.923 L662.920057,108.307 L666.031057,91.124 C643.935057,87.124 621.334057,85.048 598.475057,85.048 C564.637057,85.048 530.230057,89.584 496.097057,99.075 C411.785057,122.534 341.880057,172.638 293.193057,237.676 C244.484057,302.705 216.851057,382.734 216.851057,466.251 C216.851057,500.116 221.398057,534.536 230.916057,568.716 C236.945057,590.336 244.696057,611.026 254.075057,630.686 L254.070057,630.666 C317.490057,764.026 452.508057,847.916 598.138057,847.936 C631.982057,847.936 666.387057,843.386 700.547057,833.896 C751.623057,819.716 797.387057,795.676 836.350057,764.506 L825.450057,750.866 L807.980057,750.866 L807.980057,750.916 C807.980057,757.486 811.720057,763.556 817.590057,766.516 C823.470057,769.466 830.570057,768.856 835.850057,764.936 L825.450057,750.916" id="Fill-4" fill="#1C0000"></path>
                <path d="M632.097057,222.622 C599.824057,222.622 567.000057,226.943 534.408057,236.005 C378.352057,279.42 274.484057,418.173 268.253057,571.716 C273.098057,586.946 278.893057,601.606 285.598057,615.656 L285.609057,615.676 C286.762057,618.096 287.938057,620.506 289.140057,622.886 C293.943057,617.216 298.976057,611.746 304.228057,606.486 C352.209057,558.476 418.688057,528.726 491.938057,528.736 C491.945057,528.736 491.953057,528.736 491.961057,528.736 C565.178057,528.736 631.637057,558.486 679.604057,606.486 C723.312057,650.186 751.882057,709.196 756.643057,774.706 C777.383057,764.066 796.726057,751.476 814.540057,737.236 C815.010057,736.856 815.500057,736.506 816.000057,736.176 L1225.43006,432.439 L1181.59006,274.865 L696.545057,228.414 C675.468057,224.595 653.908057,222.622 632.097057,222.622" id="Fill-5" fill="#EA8841"></path>
                <path d="M1181.59006,274.865 L1225.43006,432.439 L816.000057,736.176 C815.500057,736.506 815.010057,736.856 814.540057,737.236 C796.726057,751.476 777.383057,764.066 756.643057,774.706 C757.100057,781.036 757.339057,787.426 757.346057,793.866 C781.901057,781.956 804.676057,767.476 825.450057,750.866 L825.450057,750.916 L1245.47006,439.318 L1200.22006,276.648 L1181.59006,274.865 M268.253057,571.716 C267.560057,588.716 268.068057,605.906 269.836057,623.176 C272.214057,628.176 274.706057,633.116 277.293057,637.976 C281.061057,632.796 285.018057,627.776 289.140057,622.886 C287.938057,620.506 286.762057,618.096 285.609057,615.676 L285.598057,615.656 C278.893057,601.606 273.098057,586.946 268.253057,571.716" id="Fill-6" fill="#180000"></path>
                <path d="M447.283057,648.616 C410.240057,659.966 379.156057,685.136 360.082057,718.076 C372.168057,729.496 385.037057,740.006 398.566057,749.546 L447.283057,749.546 L447.283057,648.616" id="Fill-7" fill="#EA8841"></path>
                <path d="M360.082057,718.076 C357.049057,723.316 354.323057,728.736 351.922057,734.346 C357.650057,739.596 363.541057,744.676 369.580057,749.546 L398.566057,749.546 C385.037057,740.006 372.168057,729.496 360.082057,718.076" id="Fill-8" fill="#180000"></path>
                <path d="M536.545057,648.616 L536.545057,749.546 L637.475057,749.546 C622.732057,701.406 584.666057,663.356 536.545057,648.616" id="Fill-9" fill="#EA8841"></path>
                <path d="M837.520057,834.276 C814.120057,840.786 789.865057,827.086 783.353057,803.686 L580.109057,73.257 C573.598057,49.851 587.293057,25.599 610.695057,19.089 C634.103057,12.57 658.359057,26.271 664.871057,49.676 L868.110057,780.106 C874.630057,803.506 860.930057,827.766 837.520057,834.276" id="Fill-10" fill="#E36957"></path>
                <path d="M837.520057,834.276 L832.850057,817.456 C830.440057,818.126 828.060057,818.436 825.710057,818.436 C819.950057,818.436 814.350057,816.516 809.810057,813.106 C805.261057,809.686 801.830057,804.926 800.174057,799.006 L596.930057,68.576 C596.260057,66.164 595.947057,63.781 595.947057,61.443 C595.943057,55.679 597.865057,50.081 601.270057,45.535 C604.688057,40.994 609.451057,37.57 615.371057,35.913 L615.383057,35.908 C617.797057,35.236 620.174057,34.923 622.518057,34.923 C628.279057,34.923 633.873057,36.843 638.416057,40.25 C642.961057,43.669 646.391057,48.429 648.048057,54.359 L851.290057,784.786 C851.960057,787.196 852.270057,789.576 852.270057,791.916 C852.280057,797.686 850.350057,803.276 846.950057,807.816 C843.530057,812.366 838.760057,815.796 832.840057,817.456 L832.850057,817.456 L837.520057,834.276 L842.210057,851.096 C855.750057,847.336 867.080057,839.216 874.900057,828.756 C882.740057,818.286 887.190057,805.416 887.200057,791.916 C887.200057,786.446 886.460057,780.896 884.930057,775.416 L681.694057,44.994 C677.934057,31.459 669.816057,20.117 659.351057,12.298 C648.889057,4.459 636.014057,-1.13686838e-13 622.518057,-1.13686838e-13 C617.047057,-1.13686838e-13 611.487057,0.742 606.006057,2.271 L606.021057,2.266 C592.478057,6.023 581.135057,14.139 573.314057,24.605 C565.480057,35.07 561.027057,47.942 561.022057,61.443 C561.022057,66.91 561.763057,72.463 563.285057,77.939 L766.529057,808.366 C770.286057,821.896 778.406057,833.246 788.871057,841.066 C799.336057,848.896 812.210057,853.356 825.710057,853.356 C831.180057,853.356 836.720057,852.626 842.200057,851.106 L842.210057,851.096 L837.520057,834.276" id="Fill-11" fill="#1C0000"></path>
                <path d="M212.779057,449.608 C211.473057,450.007 159.639057,463.62 106.738057,504.006 C80.3180574,524.216 53.6150574,551.266 33.4780574,586.846 C13.3300574,622.396 -0.0319426496,666.486 2.84217094e-14,719.466 C2.84217094e-14,743.716 2.76905735,769.826 8.84805735,797.876 C10.8890574,807.306 20.1850574,813.286 29.6120574,811.246 C39.0350574,809.206 45.0230574,799.916 42.9810574,790.486 C37.3830574,764.666 34.9230574,741.056 34.9230574,719.466 C34.9570574,672.306 46.5670574,634.706 63.8730574,604.046 C76.8710574,581.076 93.1740574,562.026 110.455057,546.326 C136.357057,522.786 164.476057,506.866 186.012057,496.976 C196.774057,492.026 205.875057,488.576 212.199057,486.386 C215.359057,485.286 217.822057,484.516 219.451057,484.026 C220.266057,483.776 220.871057,483.606 221.246057,483.496 L221.644057,483.386 L221.709057,483.376 L220.158057,477.586 L221.685057,483.376 L221.709057,483.376 L220.158057,477.586 L221.685057,483.376 C231.010057,480.916 236.574057,471.366 234.113057,462.042 C231.654057,452.716 222.104057,447.152 212.779057,449.613 L212.779057,449.608" id="Fill-12" fill="#1C0000"></path>
                <path d="M464.744057,821.346 L464.744057,961.726 C392.783057,950.096 335.990057,893.266 324.414057,821.346 L464.744057,821.346 M464.744057,767.006 L324.414057,767.006 C335.990057,695.096 392.828057,638.256 464.744057,626.676 L464.744057,767.006 M519.083057,961.726 L519.083057,821.346 L659.458057,821.346 C647.883057,893.306 591.044057,950.146 519.083057,961.726 M519.083057,767.006 L519.083057,626.676 C591.000057,638.256 647.831057,695.046 659.414057,767.006 L519.083057,767.006 M491.938057,546.206 C354.967057,546.206 243.943057,657.236 243.943057,794.206 C243.943057,931.116 354.967057,1042.146 491.938057,1042.146 C628.853057,1042.146 739.882057,931.116 739.882057,794.206 C739.882057,657.236 628.853057,546.206 491.938057,546.206" id="Fill-13" fill="#E36957"></path>
                <path d="M464.744057,821.346 L447.283057,821.346 L447.283057,961.726 L464.744057,961.726 L467.527057,944.486 C403.039057,934.096 351.994057,883.006 341.656057,818.576 L324.414057,821.346 L324.414057,838.806 L464.744057,838.806 L464.744057,821.346 L447.283057,821.346 L464.744057,821.346 L464.744057,803.886 L324.414057,803.886 C319.298057,803.886 314.435057,806.126 311.120057,810.026 C307.805057,813.916 306.357057,819.066 307.176057,824.116 C319.984057,903.516 382.518057,966.096 461.955057,978.966 C467.006057,979.776 472.170057,978.336 476.064057,975.016 C479.961057,971.706 482.209057,966.836 482.209057,961.726 L482.209057,821.346 C482.209057,816.746 480.343057,812.256 477.096057,809.006 C473.841057,805.746 469.344057,803.886 464.744057,803.886 L464.744057,821.346 M464.744057,767.006 L464.744057,749.546 L324.414057,749.546 L324.414057,767.006 L341.656057,769.776 C351.994057,705.356 403.084057,654.256 467.521057,643.916 L464.744057,626.676 L447.283057,626.676 L447.283057,767.006 L464.744057,767.006 L464.744057,749.546 L464.744057,767.006 L482.209057,767.006 L482.209057,626.676 C482.209057,621.566 479.965057,616.706 476.064057,613.386 C472.175057,610.066 467.019057,608.626 461.968057,609.436 C382.562057,622.256 319.990057,684.836 307.176057,764.226 C306.357057,769.276 307.805057,774.436 311.120057,778.326 C314.435057,782.216 319.298057,784.466 324.414057,784.466 L464.744057,784.466 C469.344057,784.466 473.841057,782.606 477.096057,779.356 C480.343057,776.106 482.209057,771.606 482.209057,767.006 L464.744057,767.006 M519.083057,961.726 L536.545057,961.726 L536.545057,838.806 L659.458057,838.806 L659.458057,821.346 L642.216057,818.576 C631.877057,883.056 580.793057,934.146 516.307057,944.486 L519.083057,961.726 L536.545057,961.726 L519.083057,961.726 L521.851057,978.966 C601.303057,966.146 663.887057,903.566 676.695057,824.116 C677.512057,819.066 676.067057,813.916 672.750057,810.026 C669.434057,806.126 664.571057,803.886 659.458057,803.886 L519.083057,803.886 C514.484057,803.886 509.986057,805.746 506.732057,809.006 C503.482057,812.256 501.617057,816.746 501.617057,821.346 L501.617057,961.726 C501.617057,966.836 503.863057,971.696 507.756057,975.016 C511.650057,978.326 516.803057,979.776 521.851057,978.966 L519.083057,961.726 M519.083057,767.006 L536.545057,767.006 L536.545057,626.676 L519.083057,626.676 L516.307057,643.916 C580.742057,654.266 631.824057,705.306 642.172057,769.776 L659.414057,767.006 L659.414057,749.546 L519.083057,749.546 L519.083057,767.006 L536.545057,767.006 L519.083057,767.006 L519.083057,784.466 L659.414057,784.466 C664.527057,784.466 669.383057,782.216 672.705057,778.326 C676.023057,774.436 677.461057,769.276 676.652057,764.226 C663.838057,684.786 601.246057,622.246 521.857057,609.436 C516.803057,608.626 511.650057,610.066 507.756057,613.386 C503.863057,616.706 501.617057,621.566 501.617057,626.676 L501.617057,767.006 C501.617057,771.606 503.482057,776.106 506.732057,779.356 C509.986057,782.606 514.484057,784.466 519.083057,784.466 L519.083057,767.006 M491.938057,546.206 L491.938057,528.735997 C418.688057,528.726 352.209057,558.476 304.228057,606.486 C256.219057,654.476 226.479057,720.946 226.479057,794.206 C226.479057,867.426 256.219057,933.886 304.228057,981.856 C352.214057,1029.866 418.688057,1059.616 491.938057,1059.606 C565.164057,1059.606 631.624057,1029.866 679.600057,981.856 C727.601057,933.886 757.353057,867.426 757.346059,794.206 C757.353057,720.946 727.609057,654.476 679.604057,606.486 C631.631057,558.476 565.164057,528.726 491.938057,528.735997 L491.938057,563.666 C555.629057,563.666 613.139057,589.436 654.902057,631.186 C696.646057,672.956 722.413057,730.486 722.420057,794.206 C722.413057,857.886 696.646057,915.396 654.902057,957.166 C613.139057,998.906 555.629057,1024.676 491.938057,1024.686 C428.219057,1024.676 370.696057,998.906 328.926057,957.166 C287.182057,915.396 261.412057,857.886 261.408057,794.206 C261.412057,730.486 287.182057,672.956 328.926057,631.186 C370.696057,589.436 428.219057,563.666 491.938057,563.666 L491.938057,546.206" id="Fill-14" fill="#1C0000"></path>
                <path d="M491.938057,585.846 C376.877057,585.846 283.580057,679.146 283.580057,794.206 C283.580057,909.216 376.877057,1002.516 491.938057,1002.516 C606.951057,1002.516 700.245057,909.216 700.245057,794.206 C700.245057,679.146 606.951057,585.846 491.938057,585.846 M519.083057,784.466 C514.484057,784.466 509.986057,782.606 506.732057,779.356 C503.482057,776.106 501.617057,771.606 501.617057,767.006 L501.617057,626.676 C501.617057,621.566 503.863057,616.706 507.756057,613.386 C510.939057,610.676 514.961057,609.216 519.088057,609.216 C520.009057,609.216 520.934057,609.286 521.857057,609.436 C601.246057,622.246 663.838057,684.786 676.652057,764.226 C677.461057,769.276 676.023057,774.436 672.705057,778.326 C669.383057,782.216 664.527057,784.466 659.414057,784.466 L519.083057,784.466 M324.414057,784.466 C319.298057,784.466 314.435057,782.216 311.120057,778.326 C307.805057,774.436 306.357057,769.276 307.176057,764.226 C319.990057,684.836 382.562057,622.256 461.968057,609.436 C462.891057,609.286 463.814057,609.216 464.734057,609.216 C468.859057,609.216 472.886057,610.676 476.064057,613.386 C479.965057,616.706 482.209057,621.566 482.209057,626.676 L482.209057,767.006 C482.209057,771.606 480.343057,776.106 477.096057,779.356 C473.841057,782.606 469.344057,784.466 464.744057,784.466 L324.414057,784.466 M519.083057,979.186 C514.964057,979.186 510.939057,977.726 507.756057,975.016 C503.863057,971.696 501.617057,966.836 501.617057,961.726 L501.617057,821.346 C501.617057,816.746 503.482057,812.256 506.732057,809.006 C509.986057,805.746 514.484057,803.886 519.083057,803.886 L659.458057,803.886 C664.571057,803.886 669.434057,806.126 672.750057,810.026 C676.067057,813.916 677.512057,819.066 676.695057,824.116 C663.887057,903.566 601.303057,966.146 521.851057,978.966 C520.930057,979.116 520.004057,979.186 519.083057,979.186 M464.744057,803.886 L464.744057,803.886 C469.344057,803.886 473.841057,805.746 477.096057,809.006 C480.343057,812.256 482.209057,816.746 482.209057,821.346 L482.209057,961.726 C482.209057,966.836 479.961057,971.706 476.064057,975.016 C472.881057,977.726 468.851057,979.186 464.730057,979.186 C463.809057,979.186 462.879057,979.116 461.955057,978.966 C382.518057,966.096 319.984057,903.516 307.176057,824.116 C306.357057,819.066 307.805057,813.916 311.120057,810.026 C314.435057,806.126 319.298057,803.886 324.414057,803.886 L464.744057,803.886" id="Fill-15" fill="#DB3A36"></path>
                <path d="M519.088057,609.216 C514.961057,609.216 510.939057,610.676 507.756057,613.386 C503.863057,616.706 501.617057,621.566 501.617057,626.676 L501.617057,767.006 C501.617057,771.606 503.482057,776.106 506.732057,779.356 C509.986057,782.606 514.484057,784.466 519.083057,784.466 L659.414057,784.466 C664.527057,784.466 669.383057,782.216 672.705057,778.326 C676.023057,774.436 677.461057,769.276 676.652057,764.226 C663.838057,684.786 601.246057,622.246 521.857057,609.436 C520.934057,609.286 520.009057,609.216 519.088057,609.216 M519.083057,654.206 L519.083057,626.676 C591.000057,638.256 647.831057,695.046 659.414057,767.006 L631.883057,767.006 C632.170057,768.446 632.408057,769.886 632.654057,771.376 L514.762057,771.376 L514.762057,653.436 C516.199057,653.686 517.637057,653.916 519.083057,654.206 M464.734057,609.216 C463.814057,609.216 462.891057,609.286 461.968057,609.436 C382.562057,622.256 319.990057,684.836 307.176057,764.226 C306.357057,769.276 307.805057,774.436 311.120057,778.326 C314.435057,782.216 319.298057,784.466 324.414057,784.466 L464.744057,784.466 C469.344057,784.466 473.841057,782.606 477.096057,779.356 C480.343057,776.106 482.209057,771.606 482.209057,767.006 L469.117057,767.006 L469.117057,771.376 L351.171057,771.376 C351.417057,769.886 351.656057,768.446 351.945057,767.006 L324.414057,767.006 C335.990057,695.096 392.828057,638.256 464.744057,626.676 L464.744057,654.206 C466.182057,653.916 467.629057,653.686 469.117057,653.436 L469.117057,767.006 L482.209057,767.006 L482.209057,626.676 C482.209057,621.566 479.965057,616.706 476.064057,613.386 C472.886057,610.676 468.859057,609.216 464.734057,609.216 M659.458057,803.886 L519.083057,803.886 C514.484057,803.886 509.986057,805.746 506.732057,809.006 C503.482057,812.256 501.617057,816.746 501.617057,821.346 L501.617057,961.726 C501.617057,966.836 503.863057,971.696 507.756057,975.016 C510.939057,977.726 514.964057,979.186 519.083057,979.186 C520.004057,979.186 520.930057,979.116 521.851057,978.966 C601.303057,966.146 663.887057,903.566 676.695057,824.116 C677.512057,819.066 676.067057,813.916 672.750057,810.026 C669.434057,806.126 664.571057,803.886 659.458057,803.886 M514.762057,934.916 L514.762057,816.976 L632.654057,816.976 C632.408057,818.466 632.170057,819.896 631.883057,821.346 L659.458057,821.346 C647.883057,893.306 591.044057,950.146 519.083057,961.726 L519.083057,934.146 C517.637057,934.436 516.199057,934.676 514.762057,934.916 M464.744057,803.886 L324.414057,803.886 C319.298057,803.886 314.435057,806.126 311.120057,810.026 C307.805057,813.916 306.357057,819.066 307.176057,824.116 C319.984057,903.516 382.518057,966.096 461.955057,978.966 C462.879057,979.116 463.809057,979.186 464.730057,979.186 C468.851057,979.186 472.881057,977.726 476.064057,975.016 C479.961057,971.706 482.209057,966.836 482.209057,961.726 L482.209057,821.346 C482.209057,816.746 480.343057,812.256 477.096057,809.006 C473.841057,805.746 469.344057,803.886 464.744057,803.886 M464.744057,961.726 C392.783057,950.096 335.990057,893.266 324.414057,821.346 L351.945057,821.346 C351.656057,819.896 351.417057,818.466 351.171057,816.976 L469.117057,816.976 L469.117057,934.916 C467.629057,934.676 466.182057,934.436 464.744057,934.146 L464.744057,961.726" id="Fill-16" fill="#180000"></path>
                <path d="M556.779057,794.186 C556.779057,830.006 527.740057,859.036 491.922057,859.036 C456.101057,859.036 427.064057,830.006 427.064057,794.186 C427.064057,758.366 456.101057,729.326 491.922057,729.326 C527.740057,729.326 556.779057,758.366 556.779057,794.186" id="Fill-17" fill="#F3B36D"></path>
                <path d="M556.779057,794.186 L539.316057,794.186 C539.307057,807.326 534.038057,819.066 525.434057,827.696 C516.803057,836.296 505.064057,841.566 491.922057,841.576 C478.776057,841.566 467.039057,836.296 458.406057,827.696 C449.802057,819.066 444.535057,807.326 444.525057,794.186 C444.535057,781.036 449.802057,769.296 458.406057,760.666 C467.039057,752.066 478.776057,746.796 491.922057,746.786 C505.064057,746.796 516.803057,752.066 525.434057,760.666 C534.038057,769.296 539.307057,781.036 539.316057,794.186 L574.240065,794.186 C574.250057,771.506 564.998057,750.816 550.129057,735.966 C535.287057,721.106 514.596057,711.856 491.922057,711.865992 C469.244057,711.856 448.555057,721.106 433.712057,735.966 C418.842057,750.816 409.592057,771.506 409.601051,794.186 C409.592057,816.856 418.842057,837.546 433.712057,852.386 C448.555057,867.256 469.244057,876.516 491.922057,876.506008 C514.596057,876.516 535.287057,867.256 550.129057,852.386 C564.998057,837.546 574.250057,816.856 574.240065,794.186 L556.779057,794.186" id="Fill-18" fill="#1C0000"></path>
            </g>
        </g>
    </g>
</svg>