<?xml version="1.0" encoding="UTF-8"?>
<svg width="1973px" height="1988px" viewBox="0 0 1973 1988" version="1.1" xmlns="http://www.w3.org/2000/svg" xmlns:xlink="http://www.w3.org/1999/xlink">
    <title>Group 8</title>
    <g id="Page-1" stroke="none" stroke-width="1" fill="none" fill-rule="evenodd">
        <g id="2534_R0lVIE5JQyA1NDktNDU" transform="translate(-95.000000, -67.000000)">
            <g id="Group-8" transform="translate(95.382170, 67.813812)">
                <g id="Group-4" fill-rule="nonzero">
                    <g id="Group-3" transform="translate(0.000000, -0.000000)">
                        <g id="Group-2" transform="translate(986.117830, 993.186188) scale(-1, 1) rotate(132.000000) translate(-986.117830, -993.186188) translate(237.617830, 340.186188)">
                            <g id="Group" transform="translate(735.544432, 739.531782)" fill="#FFFFFF">
                                <path d="M81.1021898,270.718295 L75.4504692,250.153846 C73.7443561,243.959862 71.2752607,237.998285 68.1032325,232.406445 L57.3649635,213.813929 L191.028154,80.5675676 L210.809176,105.357588 C241.741749,143.972271 261.310832,190.397219 267.326382,239.449064 L271,271 L81.1021898,270.718295 Z" id="Path"></path>
                                <path d="M38.4316997,202.827443 C32.8258994,199.654743 26.8456726,197.193347 20.62878,195.503119 L0,189.869023 L0,0 L31.649635,3.66216216 C80.8584593,9.64486746 127.432169,29.1529236 166.160584,60.0031185 L191.028154,79.7224532 L57.3649635,212.968815 L38.4316997,202.827443 Z" id="Path"></path>
                            </g>
                            <path d="M437.658026,1084.68331 C217.205108,1052.8049 64.3188899,848.163152 96.1821089,627.605175 C113.521579,507.570737 183.911065,401.706443 287.863095,339.31045 C395.828498,274.839656 676.199388,171.629834 921.523917,121.014605 L941.308153,117.055873 L1206.98218,561.28226 L1193.98111,576.551659 C1121.75099,662.166327 1044.5536,743.461736 962.788181,820.013734 L943.003945,838.676332 L923.502341,819.4482 C819.327738,714.524105 649.861624,713.955037 544.987507,818.17575 C483.440868,879.338174 455.340187,966.554009 469.595436,1052.16514 L475.530706,1090.05587 L437.658026,1084.68331 Z" id="Path" fill="#7A4EF4"></path>
                            <path d="M913.635767,70.0414081 L924.667196,55.0569799 C927.495767,51.2790662 931.056232,48.1090115 935.13291,45.7270529 L955.215767,33.5698752 C959.617732,30.9405322 964.539446,29.3007268 969.641482,28.7635492 L987.744339,26.7844738 L1309.63577,563.962089 L1298.60434,578.946518 C1295.80405,582.826919 1292.24359,586.095928 1288.13862,588.55917 L1268.05577,600.433622 C1263.90484,602.942807 1259.28366,604.579078 1254.47862,605.239948 L1236.09291,607.784474 L913.635767,70.0414081 Z" id="Path" fill-opacity="0" fill="#1343E6"></path>
                            <g id="Group" transform="translate(734.787326, 1010.685662)" fill="#FFFFFF">
                                <path d="M0.282881002,81.1021898 L20.9331942,75.4504692 C27.1565762,73.7549531 33.1430454,71.2858577 38.7546973,68.1032325 L57.4248434,57.3649635 L191.227557,191.028154 L166.334029,210.809176 C127.565188,241.755879 80.9428627,261.324961 31.6826722,267.326382 L0,271 L0.282881002,81.1021898 Z" id="Path"></path>
                                <path d="M57.7077244,57.0823775 L68.4572025,38.4316997 C71.6325418,32.822367 74.1042145,26.8421403 75.8121086,20.62878 L81.4697286,1.13686838e-13 L271,1.13686838e-13 L268.17119,31.367049 C262.149361,80.572341 242.559851,127.142518 211.59499,165.877998 L191.793319,190.745568 L57.7077244,57.0823775 Z" id="Path"></path>
                            </g>
                            <circle id="Oval" fill-opacity="0" fill="#1343E6" cx="735.088939" cy="1010.23017" r="79"></circle>
                            <g id="Group" transform="translate(466.461281, 739.219492)" fill="#FFFFFF">
                                <path d="M237.386149,537.172775 C188.23649,531.154319 141.718966,511.575785 103.027282,480.628272 L78.1878279,460.837696 L211.699895,327.109948 L230.329486,337.853403 C235.928948,341.037565 241.902413,343.507853 248.112277,345.204188 L268.717733,350.858639 L268.717733,540 L237.386149,537.172775 Z" id="Path"></path>
                                <path d="M78.1878279,80.5759162 L103.027282,60.7853403 C141.718966,29.8378272 188.23649,10.2592932 237.386149,4.2408377 L269,1.13686838e-13 L269,189.141361 L248.394544,194.795812 C242.18468,196.492147 236.211215,198.962435 230.611752,202.146597 L211.982162,212.890052 L78.1878279,80.5759162 Z" id="Path"></path>
                                <path d="M58.429171,437.65445 C27.5315714,398.900262 7.98461438,352.307592 1.97586569,303.078534 L2.27373675e-13,271.696335 L189.118573,271.696335 L194.763903,292.335079 C196.453974,298.558508 198.920278,304.541623 202.102833,310.146597 L212.828961,328.806283 L79.316894,462.534031 L58.429171,437.65445 Z" id="Path"></path>
                                <path d="M0,271.696335 L3.66946485,240.031414 C9.67821354,190.802356 29.2251705,144.209686 60.1227702,105.455497 L79.8814271,80.5759162 L213.393494,214.303665 L202.667366,232.963351 C199.484811,238.568325 197.018507,244.55144 195.328437,250.774869 L189.683106,271.413613 L0,271.696335 Z" id="Path"></path>
                            </g>
                            <path d="M1468.75472,1249.76344 L908.650755,1249.76344 C1039.20751,1155.93812 1070.94815,974.949671 980.111321,842.260367 C1058.79562,768.700692 1133.38082,690.866757 1203.53151,609.11887 C1213.59389,624.732285 1231.00711,634.029686 1249.57132,633.704701 C1260.89768,633.73296 1272.01926,630.709186 1281.77094,624.944232 L1301.82509,613.075211 C1329.38543,598.447348 1339.87502,564.235599 1325.25456,536.661319 C1325.07449,536.322204 1324.8909,535.983089 1324.70377,535.643974 L1019.65472,25.2760418 C1001.90609,-0.454301601 967.072592,-7.67462312 940.567925,8.88548808 L920.513774,20.7545098 C893.11938,35.4742161 882.767483,69.5799912 897.352642,97.0553634 C653.595849,149.335578 383.853396,249.091879 274.544151,314.654094 C70.2107123,437.141691 3.81311321,702.170587 126.242292,906.607421 C197.261526,1025.19873 320.774618,1102.56638 458.420943,1114.68267 C479.160042,1168.73264 515.17984,1215.57289 562.081132,1249.48085 L28.245283,1249.48085 C12.6468255,1249.48085 0,1262.13407 0,1277.74042 C0,1293.34678 12.6468255,1306 28.245283,1306 L1468.75472,1306 C1484.35317,1306 1497,1293.34678 1497,1277.74042 C1497,1262.13407 1484.35317,1249.48085 1468.75472,1249.48085 L1468.75472,1249.76344 Z M923.620755,1157.91982 L827.586792,1061.83727 C831.975403,1054.19305 835.393083,1046.02604 837.755094,1037.53403 L974.462264,1037.53403 C969.035639,1081.61191 951.428236,1123.30184 923.620755,1157.91982 Z M838.884906,981.014883 C836.519363,972.52288 833.101684,964.359395 828.716604,956.711648 L924.750566,860.629091 C952.19792,895.451953 969.41342,937.237268 974.462264,981.297478 L838.884906,981.014883 Z M788.890755,916.865646 C781.250406,912.474815 773.087519,909.055406 764.599811,906.692199 L764.599811,771.046237 C808.567125,776.231869 850.228917,793.547924 884.924717,821.065686 L788.890755,916.865646 Z M950.736226,69.0783837 L970.507925,57.2093621 L973.332453,57.2093621 L1274.99208,562.490571 C1274.38833,563.303033 1273.61865,563.977731 1272.73245,564.468741 L1252.6783,576.337763 L1249.85377,576.337763 L946.216981,71.056554 C947.145545,70.1027933 948.317724,69.4174986 949.606415,69.0783837 L950.736226,69.0783837 Z M442.321132,1055.89923 C237.54283,1026.68942 95.2042571,836.92284 124.399288,632.040918 C140.357873,520.058818 206.017564,421.277472 303.071887,363.257031 C408.991698,299.672987 688.055094,197.938515 927.575094,148.484258 L1172.17925,557.965506 C1100.66925,642.613532 1024.27635,723.004959 943.392453,798.737089 C828.183474,682.908154 640.938432,682.456001 525.171608,797.723276 C457.344092,865.256597 426.369608,961.452192 442.038679,1055.89923 L442.321132,1055.89923 Z M586.654528,821.062153 C621.350328,793.544392 663.01212,776.228337 706.979434,771.042705 L706.979434,907.536454 C698.488196,909.896129 690.32884,913.315537 682.688491,917.709901 L586.654528,821.062153 Z M643.145094,956.990711 C638.749422,964.631394 635.335274,972.798411 632.976792,981.293946 L496.834528,981.293946 C502.03166,937.307917 519.338958,895.628575 546.828679,860.908155 L643.145094,956.990711 Z M547.111132,1158.19889 C519.62141,1123.47847 502.314113,1081.79913 497.116981,1037.8131 L632.69434,1037.8131 C635.052821,1046.30863 638.466969,1054.47565 642.862642,1062.11633 L547.111132,1158.19889 Z M706.979434,1246.65136 C663.01212,1241.46573 621.350328,1224.14967 586.654528,1196.63191 L682.688491,1100.54935 C690.32884,1104.94372 698.488196,1108.36313 706.979434,1110.7228 L706.979434,1246.65136 Z M684.948113,1008.14408 C684.948113,980.36138 707.456073,957.842031 735.224717,957.842031 C762.993361,957.842031 785.501321,980.36138 785.501321,1008.14408 C785.501321,1035.92677 762.993361,1058.44612 735.224717,1058.44612 L735.224717,1058.44612 C707.999795,1058.45672 685.714267,1036.78515 684.948113,1009.55705 L684.948113,1008.14408 Z M763.47,1246.65136 L763.47,1112.13578 C771.957708,1109.77257 780.120594,1106.35316 787.760943,1101.96233 L883.794906,1198.04489 C848.950818,1225.06811 807.299618,1241.89315 763.47,1246.65136 L763.47,1246.65136 Z" id="Shape" fill="#473D37"></path>
                        </g>
                    </g>
                </g>
                <g id="Group-7" transform="translate(680.844354, 656.686188)" fill="#FFFFFF">
                    <g id="Group-6" transform="translate(88.963854, 88.963854) rotate(-26.000000) translate(-88.963854, -88.963854) translate(22.432169, 22.432169)">
                        <path d="M127.876752,101.690482 L27.6662435,7.71093452 C21.0433618,1.50913843 10.6491168,1.83762339 4.44673542,8.45331054 C-1.76221624,15.0689977 -1.42712996,25.4688316 5.18918149,31.6706277 L105.39969,125.650175 C112.016002,131.851972 122.410247,131.523487 128.619198,124.90123 C134.82158,118.285543 134.493064,107.892278 127.876752,101.690482" id="Fill-3"></path>
                        <path d="M31.3668237,127.874125 L125.35031,27.6623731 C131.558068,21.0459795 131.223046,10.6516056 124.608006,4.44914725 C117.992967,-1.75988146 107.60072,-1.43136142 101.392962,5.19160253 L7.4160451,105.396784 C1.20828707,112.013178 1.54330893,122.414122 8.15834844,128.616581 C14.773388,134.825609 25.1656347,134.490519 31.3668237,127.874125" id="Fill-4"></path>
                    </g>
                </g>
                <g id="Group-7-Copy" transform="translate(650.137423, 930.855222)" fill="#FFFFFF">
                    <g id="Group-6" transform="translate(88.963854, 88.963854) rotate(-26.000000) translate(-88.963854, -88.963854) translate(22.432169, 22.432169)">
                        <path d="M127.876752,101.690482 L27.6662435,7.71093452 C21.0433618,1.50913843 10.6491168,1.83762339 4.44673542,8.45331054 C-1.76221624,15.0689977 -1.42712996,25.4688316 5.18918149,31.6706277 L105.39969,125.650175 C112.016002,131.851972 122.410247,131.523487 128.619198,124.90123 C134.82158,118.285543 134.493064,107.892278 127.876752,101.690482" id="Fill-3"></path>
                        <path d="M31.3668237,127.874125 L125.35031,27.6623731 C131.558068,21.0459795 131.223046,10.6516056 124.608006,4.44914725 C117.992967,-1.75988146 107.60072,-1.43136142 101.392962,5.19160253 L7.4160451,105.396784 C1.20828707,112.013178 1.54330893,122.414122 8.15834844,128.616581 C14.773388,134.825609 25.1656347,134.490519 31.3668237,127.874125" id="Fill-4"></path>
                    </g>
                </g>
                <g id="Group-7-Copy-2" transform="translate(881.170529, 1050.758479)" fill="#FFFFFF">
                    <g id="Group-6" transform="translate(88.963854, 88.963854) rotate(-26.000000) translate(-88.963854, -88.963854) translate(22.432169, 22.432169)">
                        <path d="M127.876752,101.690482 L27.6662435,7.71093452 C21.0433618,1.50913843 10.6491168,1.83762339 4.44673542,8.45331054 C-1.76221624,15.0689977 -1.42712996,25.4688316 5.18918149,31.6706277 L105.39969,125.650175 C112.016002,131.851972 122.410247,131.523487 128.619198,124.90123 C134.82158,118.285543 134.493064,107.892278 127.876752,101.690482" id="Fill-3"></path>
                        <path d="M31.3668237,127.874125 L125.35031,27.6623731 C131.558068,21.0459795 131.223046,10.6516056 124.608006,4.44914725 C117.992967,-1.75988146 107.60072,-1.43136142 101.392962,5.19160253 L7.4160451,105.396784 C1.20828707,112.013178 1.54330893,122.414122 8.15834844,128.616581 C14.773388,134.825609 25.1656347,134.490519 31.3668237,127.874125" id="Fill-4"></path>
                    </g>
                </g>
            </g>
        </g>
    </g>
</svg>
