<?xml version="1.0" encoding="UTF-8"?>
<svg width="1002px" height="778px" viewBox="0 0 1002 778" version="1.1" xmlns="http://www.w3.org/2000/svg" xmlns:xlink="http://www.w3.org/1999/xlink">
    <title>Fill 4</title>
    <g id="Page-1" stroke="none" stroke-width="1" fill="none" fill-rule="evenodd">
        <g id="cat-01" transform="translate(-2248.000000, -611.000000)" fill="#2D2E2C">
            <path d="M3240.18,1112.27 C3245.6,1112.27 3250,1107.87 3250,1102.45 C3250,1097.02 3245.6,1092.63 3240.18,1092.63 L3090.48,1092.63 C3091.57,1083.55 3092.21,1074.71 3092.46,1066.11 L3238.86,1009.52 C3243.92,1007.57 3246.43,1001.88 3244.48,996.824 C3242.52,991.765 3236.84,989.253 3231.78,991.205 L3092.35,1045.1 C3088.83,959.45 3049.38,903.144 3049.38,903.144 C3094.35,681.966 3057.89,611.481 3057.89,611.481 C2910.84,647.938 2833.07,751.236 2833.07,751.236 C2810.31,743.387 2781.97,742.635 2764.75,743.087 C2754.4,743.358 2744.03,743.358 2733.67,743.087 C2716.46,742.635 2688.12,743.387 2665.36,751.236 C2665.36,751.236 2587.58,647.938 2440.54,611.481 C2440.54,611.481 2404.08,681.966 2449.04,903.144 C2449.04,903.144 2409.6,959.45 2406.08,1045.1 L2266.65,991.205 C2261.59,989.255 2255.91,991.767 2253.95,996.824 C2252,1001.88 2254.51,1007.57 2259.57,1009.52 L2405.97,1066.11 C2406.22,1074.71 2406.86,1083.55 2407.94,1092.63 L2258.25,1092.63 C2252.83,1092.63 2248.43,1097.02 2248.43,1102.45 C2248.43,1107.87 2252.83,1112.27 2258.25,1112.27 L2410.94,1112.27 C2412.37,1119.94 2414.15,1127.75 2416.28,1135.69 L2265.04,1183.01 C2259.86,1184.63 2256.98,1190.13 2258.6,1195.31 C2259.91,1199.51 2263.79,1202.2 2267.97,1202.2 C2268.94,1202.2 2269.93,1202.05 2270.9,1201.75 L2421.95,1154.49 C2429.2,1176.1 2439.2,1198.53 2452.69,1221.54 C2452.69,1221.54 2539.61,1390.75 2734.96,1388.5 C2744.46,1388.39 2753.96,1388.39 2763.47,1388.5 C2958.82,1390.75 3045.74,1221.54 3045.74,1221.54 C3059.23,1198.53 3069.23,1176.1 3076.47,1154.49 L3227.53,1201.75 C3228.5,1202.05 3229.49,1202.2 3230.46,1202.2 C3234.64,1202.2 3238.52,1199.51 3239.83,1195.31 C3241.45,1190.13 3238.57,1184.63 3233.39,1183.01 L3082.15,1135.69 C3084.28,1127.75 3086.06,1119.94 3087.49,1112.27 L3240.18,1112.27" id="Fill-4"></path>
        </g>
    </g>
</svg>