<?xml version="1.0" encoding="UTF-8"?>
<svg width="295px" height="532px" viewBox="0 0 295 532" version="1.1" xmlns="http://www.w3.org/2000/svg" xmlns:xlink="http://www.w3.org/1999/xlink">
    <title>Group</title>
    <g id="Page-1" stroke="none" stroke-width="1" fill="none" fill-rule="evenodd">
        <g id="love_coffee" transform="translate(-391.000000, -89.000000)">
            <g id="Group" transform="translate(391.724000, 89.021953)">
                <polyline id="Fill-6" fill="#FAF9F7" points="39.388 222.939047 42.919 287.811047 250.545 287.811047 254.076 222.939047 39.388 222.939047"></polyline>
                <path d="M241.273,458.145047 L52.192,458.145047 L54.517,500.849047 C54.526,501.005047 54.529,501.163047 54.529,501.319047 L54.517,514.446047 L238.948,514.446047 L238.936,501.319047 C238.936,501.163047 238.94,501.005047 238.948,500.849047 L241.273,458.145047" id="Fill-7" fill="#FAF9F7"></path>
                <polygon id="Fill-8" fill="#FAF9F7" points="17 205.939047 276.464 205.939047 276.464 186.869047 17 186.869047"></polygon>
                <polygon id="Fill-9" fill="#FAF9F7" points="45.856 169.869047 247.609 169.869047 247.609 141.168047 45.856 141.168047"></polygon>
                <path d="M45.856,169.869047 L247.609,169.869047 L247.609,141.168047 L45.856,141.168047 L45.856,169.869047 Z M17,205.939047 L276.464,205.939047 L276.464,186.869047 L17,186.869047 L17,205.939047 Z M42.919,287.811047 L39.388,222.939047 L254.076,222.939047 L250.545,287.811047 L42.919,287.811047 Z M38.267,441.145047 L30.845,304.811047 L262.619,304.811047 L255.198,441.145047 L38.267,441.145047 Z M238.948,514.446047 L54.517,514.446047 L54.529,501.319047 C54.529,501.163047 54.526,501.005047 54.517,500.849047 L52.192,458.145047 L241.273,458.145047 L238.948,500.849047 C238.94,501.005047 238.936,501.163047 238.936,501.319047 L238.948,514.446047 Z M284.964,169.869047 L264.609,169.869047 L264.609,132.668047 C264.609,127.974047 260.804,124.168047 256.109,124.168047 L37.356,124.168047 C32.661,124.168047 28.856,127.974047 28.856,132.668047 L28.856,169.869047 L8.5,169.869047 C3.805,169.869047 0,173.675047 0,178.369047 L0,214.439047 C0,219.133047 3.805,222.939047 8.5,222.939047 L22.362,222.939047 L25.895,287.811047 L21.869,287.811047 C19.534,287.811047 17.303,288.771047 15.697,290.467047 C14.092,292.162047 13.255,294.442047 13.382,296.773047 L21.73,450.107047 C21.975,454.616047 25.702,458.145047 30.217,458.145047 L35.167,458.145047 L37.529,501.538047 L37.509,522.938047 C37.507,525.194047 38.401,527.358047 39.995,528.954047 C41.59,530.549047 43.753,531.446047 46.009,531.446047 L247.456,531.446047 C249.712,531.446047 251.875,530.549047 253.47,528.954047 C255.064,527.358047 255.958,525.194047 255.956,522.938047 L255.936,501.538047 L258.298,458.145047 L263.248,458.145047 C267.763,458.145047 271.49,454.616047 271.735,450.107047 L280.082,296.773047 C280.209,294.442047 279.372,292.162047 277.767,290.467047 C276.161,288.771047 273.93,287.811047 271.595,287.811047 L267.57,287.811047 L271.102,222.939047 L284.964,222.939047 C289.658,222.939047 293.464,219.133047 293.464,214.439047 L293.464,178.369047 C293.464,173.675047 289.658,169.869047 284.964,169.869047 L284.964,169.869047 Z" id="Fill-10" fill="#2D2E2C"></path>
                <path d="M159.777,58.2980472 C165.545,68.6940472 170.101,76.9060472 162.785,89.5460472 C160.71,93.1310472 161.935,97.7200472 165.52,99.7940472 C166.702,100.479047 167.994,100.805047 169.27,100.805047 C171.859,100.805047 174.377,99.4620472 175.768,97.0600472 C187.342,77.0620472 178.991,62.0110472 172.894,51.0210472 C170.451,46.6190472 168.144,42.4610472 167.461,38.7860472 C164.72,24.0390472 174.454,13.1330472 174.939,12.6030472 C177.744,9.58004719 177.584,4.85304719 174.571,2.02904719 C171.548,-0.804952812 166.802,-0.650952812 163.971,2.37004719 C163.339,3.04304719 148.549,19.1250472 152.713,41.5270472 C153.843,47.6030472 156.859,53.0410472 159.777,58.2980472" id="Fill-11" fill="#2D2E2C"></path>
                <path d="M117.702,58.2980472 C123.47,68.6940472 128.026,76.9060472 120.71,89.5460472 C118.635,93.1310472 119.859,97.7200472 123.444,99.7940472 C124.627,100.479047 125.919,100.805047 127.194,100.805047 C129.783,100.805047 132.302,99.4620472 133.693,97.0600472 C145.267,77.0620472 136.916,62.0110472 130.818,51.0210472 C128.376,46.6190472 126.068,42.4610472 125.386,38.7860472 C122.645,24.0390472 132.379,13.1330472 132.863,12.6030472 C135.669,9.58004719 135.509,4.85304719 132.496,2.02904719 C129.474,-0.804952812 124.727,-0.650952812 121.896,2.37004719 C121.264,3.04304719 106.474,19.1250472 110.638,41.5270472 C111.768,47.6030472 114.784,53.0410472 117.702,58.2980472" id="Fill-12" fill="#2D2E2C"></path>
                <polyline id="Fill-13" fill="#9A7E57" points="30.845 304.811047 38.267 441.145047 255.198 441.145047 262.619 304.811047 30.845 304.811047"></polyline>
            </g>
        </g>
    </g>
</svg>