<?xml version="1.0" encoding="UTF-8"?>
<svg width="88px" height="48px" viewBox="0 0 88 48" version="1.1" xmlns="http://www.w3.org/2000/svg" xmlns:xlink="http://www.w3.org/1999/xlink">
    <title>Group 3</title>
    <g id="Page-1" stroke="none" stroke-width="1" fill="none" fill-rule="evenodd">
        <g id="3983643" transform="translate(-324.000000, -405.000000)">
            <g id="Group-3" transform="translate(324.000000, 405.000000)">
                <path d="M85.39814,5.00609647 C84.0014292,4.97306805 82.8095625,6.0218474 82.6862483,7.41005727 C80.9730992,26.79215 64.7155078,42.2215032 44.9643558,42.6803441 C23.9449028,43.1681485 6.60703881,26.9852392 5.31580744,6.46036318 C5.22816269,5.07266144 4.05718807,4 2.66353464,4 C1.11599334,4 -0.0931984702,5.31097418 0.00565665424,6.85009853 C1.50020346,30.1676545 21.2044757,48.5426345 45.0912369,47.9877571 C67.5410318,47.4664162 86.0238827,29.9379799 87.9892653,7.91259737 C88.125828,6.3780462 86.9426239,5.04268179 85.39814,5.00609647" id="Fill-9" fill="#E26141"></path>
                <path d="M55,12 C55,5.37261875 49.6278893,0 43,0 C36.3726187,0 31,5.37261875 31,12 C31,18.6273813 36.3726187,24 43,24 C49.6278893,24 55,18.6273813 55,12" id="Fill-12" fill="#F4C3AE"></path>
            </g>
        </g>
    </g>
</svg>