<?xml version="1.0" encoding="UTF-8"?>
<svg width="86px" height="86px" viewBox="0 0 86 86" version="1.1" xmlns="http://www.w3.org/2000/svg" xmlns:xlink="http://www.w3.org/1999/xlink">
    <title>Group</title>
    <g id="Page-1" stroke="none" stroke-width="1" fill="none" fill-rule="evenodd">
        <g id="3983643" transform="translate(-610.000000, -30.000000)">
            <g id="Group" transform="translate(610.000000, 30.000000)">
                <path d="M42.9590551,2.59885235 L42.9590551,2.59885235 C42.9590551,3.96134716 44.0103744,5.10209122 45.3692374,5.18788331 C65.4497276,6.450045 81.2827714,23.3728995 80.7941915,43.8822998 C80.3157903,63.9583773 63.9389105,80.3286725 43.8620555,80.7961667 C23.3591472,81.2738397 6.44715606,65.445198 5.18571826,45.3683934 C5.09992595,44.0095338 3.95917903,42.9582171 2.5981349,42.9582171 C1.09022597,42.9582171 -0.0905088876,44.2378281 0.00546217257,45.742825 C1.46175031,68.5540709 20.6835904,86.5304232 43.9856546,85.9880427 C66.8187693,85.4565679 85.4451526,66.838956 85.9875345,44.0066256 C86.5415493,20.6973494 68.5600624,1.4624706 45.744397,0.00545907066 C44.2386692,-0.0905117487 42.9590551,1.0909472 42.9590551,2.59885235" id="Fill-8" fill="#E26141"></path>
                <path d="M69,42.9996383 C69,27.5360718 56.4639282,15 40.9996383,15 C25.5360718,15 13,27.5360718 13,42.9996383 C13,58.4639282 25.5360718,71 40.9996383,71 C56.4639282,71 69,58.4639282 69,42.9996383" id="Fill-268" fill="#F4C3AE"></path>
                <path d="M39.356552,19.6659574 C42.748937,19.6659574 44.4087746,20.9269504 46.166293,22.2617021 C47.9392346,23.6078014 49.7724005,25 53.4027445,25 C57.033823,25 58.8662543,23.6078014 60.639196,22.2617021 C61.6696173,21.4794326 62.6684577,20.7248227 64,20.2326241 C63.7752609,20.0808511 63.5505218,19.9304965 63.3221106,19.7851064 C62.1007344,20.3092199 61.1474295,21.0297872 60.2124855,21.7390071 C58.4557016,23.0730496 56.7951295,24.3340426 53.4027445,24.3340426 C50.0103595,24.3340426 48.3505218,23.0730496 46.5930035,21.7390071 C44.8200618,20.3921986 42.986896,19 39.356552,19 C35.726208,19 33.8930421,20.3921986 32.1201005,21.7390071 C30.6115578,22.8843972 29.1713181,23.9737589 26.6477773,24.2595745 C26.425976,24.4950355 26.2137225,24.7390071 26,24.9815603 C29.1801314,24.8170213 30.8906455,23.5198582 32.546811,22.2617021 C34.3043293,20.9269504 35.9649014,19.6659574 39.356552,19.6659574" id="Fill-270" fill="#121311"></path>
                <path d="M32.0864338,28.2617021 C33.8199038,26.9262411 35.4577541,25.6659574 38.8029962,25.6659574 C42.1489627,25.6659574 43.7860886,26.9262411 45.5195586,28.2617021 C47.2682408,29.6078014 49.0763232,31 52.6569927,31 C56.2383866,31 58.0457446,29.6078014 59.7944268,28.2617021 C61.5286212,26.9262411 63.1664714,25.6659574 66.512438,25.6659574 C67.467911,25.6659574 68.2814032,25.7716312 69,25.9489362 C68.7761629,25.6723404 68.5465306,25.4007092 68.3118276,25.1326241 C67.7641873,25.0475177 67.1687371,25 66.512438,25 C62.931044,25 61.1222373,26.3921986 59.3735551,27.7382979 C57.6408095,29.0730496 56.0029592,30.3340426 52.6569927,30.3340426 C49.3110262,30.3340426 47.6739003,29.0730496 45.9404303,27.7382979 C44.1917481,26.3921986 42.3836657,25 38.8029962,25 C35.2223267,25 33.4142443,26.3921986 31.6655621,27.7382979 C29.9328165,29.0730496 28.2956906,30.3340426 24.9497241,30.3340426 C23.9290558,30.3340426 23.0684782,30.2156028 22.3151105,30.0148936 C22.2057273,30.2134752 22.1035881,30.4156028 22,30.6177305 C22.8388459,30.8553191 23.8030116,31 24.9497241,31 C28.5303936,31 30.3377516,29.6078014 32.0864338,28.2617021" id="Fill-271" fill="#121311"></path>
                <path d="M32.1372764,34.2613784 C33.8846294,32.9264688 35.5355969,31.6653269 38.9076305,31.6653269 C42.2803943,31.6653269 43.9306316,32.9264688 45.6779847,34.2613784 C47.4406718,35.6083461 49.2632348,37 52.8725812,37 C56.4826579,37 58.3044907,35.6083461 60.0671778,34.2613784 C61.815261,32.9264688 63.4662286,31.6653269 66.8389923,31.6653269 C70.2110259,31.6653269 71.8619934,32.9264688 73.6086163,34.2613784 C73.7385907,34.3606809 73.8692954,34.4599834 74,34.559286 C73.864184,34.1634945 73.7196057,33.7712496 73.5655349,33.3839697 C71.935743,32.1582929 70.1314348,31 66.8389923,31 C63.2289157,31 61.4056225,32.3916539 59.6429354,33.7386216 C57.8963125,35.0735312 56.245345,36.3346731 52.8725812,36.3346731 C49.4998175,36.3346731 47.8495801,35.0735312 46.1022271,33.7386216 C44.33954,32.3916539 42.516977,31 38.9076305,31 C35.298284,31 33.4757211,32.3916539 31.713034,33.7386216 C29.9664111,35.0735312 28.3161738,36.3346731 24.94341,36.3346731 C22.8346112,36.3346731 21.3990507,35.8417071 20.1927711,35.1451708 C20.1234027,35.3622178 20.0635268,35.5835205 20,35.8026954 C21.253012,36.4956851 22.7747353,37 24.94341,37 C28.5527565,37 30.3745893,35.6083461 32.1372764,34.2613784" id="Fill-272" fill="#121311"></path>
                <path d="M33.0169931,39.2617021 C34.7539955,37.9269504 36.3951833,36.6659574 39.7472423,36.6659574 C43.1000272,36.6659574 44.7404892,37.9269504 46.4774916,39.2617021 C48.2297373,40.6078014 50.0415041,42 53.6294702,42 C57.2181623,42 59.0292032,40.6078014 60.7814489,39.2617021 C62.5191772,37.9269504 64.160365,36.6659574 67.5131499,36.6659574 C70.8652089,36.6659574 72.5063967,37.9269504 74.2426733,39.2617021 C74.8037693,39.6921986 75.3713982,40.1276596 76,40.5205674 C75.9789498,40.2382979 75.961529,39.9546099 75.9317684,39.6751773 C75.4976993,39.3780142 75.0839544,39.0609929 74.6644026,38.7382979 C72.912157,37.3921986 71.101116,36 67.5131499,36 C63.9244579,36 62.1119652,37.3921986 60.3597195,38.7382979 C58.6234429,40.0737589 56.9822551,41.3347518 53.6294702,41.3347518 C50.2766854,41.3347518 48.6362234,40.0737589 46.899221,38.7382979 C45.1469753,37.3921986 43.3352085,36 39.7472423,36 C36.1592762,36 34.3475094,37.3921986 32.5952637,38.7382979 C30.8589872,40.0737589 29.2185252,41.3347518 25.8657403,41.3347518 C23.1161519,41.3347518 21.5185161,40.4858156 20.0747644,39.4439716 C20.0450038,39.6985816 20.021776,39.9546099 20,40.2106383 C21.4306861,41.1914894 23.1313951,42 25.8657403,42 C29.4537065,42 31.2647474,40.6078014 33.0169931,39.2617021" id="Fill-273" fill="#121311"></path>
                <path d="M33.0185897,45.2617021 C34.7582303,43.9269504 36.4019109,42.6659574 39.7590612,42.6659574 C43.1169384,42.6659574 44.759892,43.9269504 46.4995327,45.2617021 C48.2544397,46.6078014 50.0689584,48 53.6623741,48 C57.2565168,48 59.0703084,46.6078014 60.8252155,45.2617021 C62.5655831,43.9269504 64.2092637,42.6659574 67.5671409,42.6659574 C70.9242912,42.6659574 72.5679718,43.9269504 74.3068855,45.2617021 C74.8193997,45.6546099 75.3384567,46.0510638 75.9047669,46.4163121 C75.9374805,46.1702128 75.9738291,45.9248227 76,45.6765957 C75.5659985,45.3794326 75.1501714,45.0617021 74.7292554,44.7382979 C72.9743483,43.3921986 71.1605567,42 67.5671409,42 C63.9729982,42 62.1577526,43.3921986 60.4028456,44.7382979 C58.6639319,46.0730496 57.0202513,47.3340426 53.6623741,47.3340426 C50.3044968,47.3340426 48.6615433,46.0730496 46.9219026,44.7382979 C45.1669955,43.3921986 43.3524769,42 39.7590612,42 C36.1656454,42 34.3511268,43.3921986 32.5962198,44.7382979 C30.8573061,46.0730496 29.2143525,47.3340426 25.8564752,47.3340426 C23.067089,47.3340426 21.4612109,46.4631206 20,45.4028369 C20.0283519,45.7014184 20.0661543,45.9978723 20.1046838,46.293617 C21.5113719,47.2361702 23.1964898,48 25.8564752,48 C29.449891,48 31.2636826,46.6078014 33.0185897,45.2617021" id="Fill-274" fill="#121311"></path>
                <path d="M32.4010497,51.2620877 C34.1255116,49.9264688 35.7548506,48.6653269 39.082709,48.6653269 C42.411288,48.6653269 44.0399065,49.9264688 45.7643684,51.2620877 C47.5039635,52.6083461 49.30265,54 52.8647124,54 C56.4274953,54 58.2254613,52.6083461 59.9650564,51.2620877 C61.6902389,49.9264688 63.319578,48.6653269 66.648157,48.6653269 C69.9760153,48.6653269 71.6053544,49.9264688 73.3290957,51.2620877 C73.4797069,51.3784135 73.6317593,51.4954486 73.7845323,51.6117744 C73.8594776,51.3862159 73.9308197,51.1606573 74,50.9329708 C73.9156866,50.8684242 73.8320938,50.8038775 73.7477803,50.7386216 C72.0081852,49.3923632 70.2102193,48 66.648157,48 C63.085374,48 61.2859668,49.3923632 59.5463717,50.7386216 C57.8226304,52.0735312 56.1932914,53.3346731 52.8647124,53.3346731 C49.5361334,53.3346731 47.9075149,52.0735312 46.183053,50.7386216 C44.4434579,49.3923632 42.6447714,48 39.082709,48 C35.5206467,48 33.7219601,49.3923632 31.982365,50.7386216 C30.2586237,52.0735312 28.6300053,53.3346731 25.3014263,53.3346731 C23.4407658,53.3346731 22.1119284,52.9403003 21,52.3593805 C21.1095354,52.6622532 21.2291596,52.9601608 21.350225,53.2580683 C22.4059445,53.705639 23.6663222,54 25.3014263,54 C28.8634887,54 30.6614546,52.6083461 32.4010497,51.2620877" id="Fill-275" fill="#121311"></path>
                <path d="M32.9012047,57.2613784 C34.6374382,55.9264688 36.2778995,54.6653269 39.6284747,54.6653269 C42.9797754,54.6653269 44.6195112,55.9264688 46.3557447,57.2613784 C48.1072147,58.6076368 49.9181795,60 53.5045573,60 C57.0916607,60 58.9019,58.6076368 60.65337,57.2613784 C62.3903291,55.9264688 64.0307904,54.6653269 67.3820911,54.6653269 C69.8286349,54.6653269 71.3617153,55.3391654 72.6872893,56.2215392 C72.7946703,56.0243528 72.8976979,55.8250384 73,55.6250148 C71.6192844,54.7199433 69.9606844,54 67.3820911,54 C63.7949877,54 61.9832973,55.3916539 60.2318273,56.7386216 C58.4963194,58.0735312 56.855858,59.3339638 53.5045573,59.3339638 C50.1532566,59.3339638 48.5135209,58.0735312 46.7772874,56.7386216 C45.0258174,55.3916539 43.2148525,54 39.6284747,54 C36.0420968,54 34.231132,55.3916539 32.479662,56.7386216 C30.7441541,58.0735312 29.1044183,59.3339638 25.7531176,59.3339638 C25.4911952,59.3339638 25.2423326,59.3240336 25,59.3091382 C25.1683269,59.5396619 25.3373793,59.7694763 25.5129616,59.9943256 C25.5934973,59.9957442 25.6704052,60 25.7531176,60 C29.3394954,60 31.1497347,58.6076368 32.9012047,57.2613784" id="Fill-276" fill="#121311"></path>
                <path d="M39.0827018,60.6659574 C42.4756786,60.6659574 44.1358058,61.9269504 45.8936307,63.2617021 C47.6668817,64.6078014 49.5003673,66 53.1313446,66 C56.7630565,66 58.5958076,64.6078014 60.3690585,63.2617021 C62.127618,61.9269504 63.7884798,60.6659574 67.1814566,60.6659574 C68.0754278,60.6659574 68.8467258,60.7553191 69.5342829,60.9092199 C69.6922154,60.7205674 69.8472095,60.529078 70,60.3368794 C69.1890352,60.1269504 68.2664158,60 67.1814566,60 C63.5497447,60 61.7155245,61.3921986 59.9422736,62.7382979 C58.1851832,64.0730496 56.5243214,65.3347518 53.1313446,65.3347518 C49.7383678,65.3347518 48.0782406,64.0730496 46.3204157,62.7382979 C44.5471647,61.3921986 42.7136791,60 39.0827018,60 C35.4517244,60 33.6182388,61.3921986 31.8449879,62.7382979 C30.9524859,63.4170213 30.0827555,64.0751773 29,64.5595745 C29.1909881,64.7170213 29.3834453,64.8723404 29.5781062,65.0248227 C30.6057691,64.5234043 31.4461166,63.8886525 32.2717728,63.2617021 C34.0295978,61.9269504 35.6904596,60.6659574 39.0827018,60.6659574" id="Fill-277" fill="#121311"></path>
                <path d="M45.7642966,69.062883 C46.7729013,69.7756461 47.8000329,70.5017319 49.1599078,71 C49.7787064,70.9646949 50.3923175,70.9100719 51,70.8394618 C48.8864507,70.4697575 47.5680761,69.5424993 46.1948619,68.5719424 C44.4059039,67.3076206 42.5561777,66 38.893038,66 C36.1629133,66 34.4406521,66.7260858 33,67.6200373 C33.223805,67.7359446 33.4453868,67.8551825 33.6728972,67.9657607 C34.9831199,67.1970424 36.5164066,66.6254996 38.893038,66.6254996 C42.316069,66.6254996 43.9909012,67.8092193 45.7642966,69.062883" id="Fill-279" fill="#121311"></path>
            </g>
        </g>
    </g>
</svg>