<?xml version="1.0" encoding="UTF-8"?>
<svg width="177px" height="85px" viewBox="0 0 177 85" version="1.1" xmlns="http://www.w3.org/2000/svg" xmlns:xlink="http://www.w3.org/1999/xlink">
    <title>Group</title>
    <g id="Page-1" stroke="none" stroke-width="1" fill="none" fill-rule="evenodd">
        <g id="3983643" transform="translate(-155.000000, -25.000000)">
            <g id="Group" transform="translate(155.530000, 25.795000)">
                <polyline id="Fill-102" fill="#F4C3AE" points="27.226 9.266 175.502 9.266 101.364 83.405 27.226 9.266"></polyline>
                <polyline id="Fill-287" fill="#121311" points="75.005 61.502 75.539 62.036 77.274 60.301 76.74 59.768 75.005 61.502"></polyline>
                <polyline id="Fill-288" fill="#121311" points="79.542 58.033 79.008 57.499 77.274 59.234 77.808 59.768 79.542 58.033"></polyline>
                <polyline id="Fill-289" fill="#121311" points="75.539 57.499 75.005 58.033 76.74 59.768 77.274 59.234 75.539 57.499"></polyline>
                <polyline id="Fill-290" fill="#121311" points="77.274 60.301 77.982 61.01 78.516 60.476 77.808 59.768 77.274 60.301"></polyline>
                <polyline id="Fill-291" fill="#121311" points="77.274 59.234 76.74 59.768 77.274 60.301 77.808 59.768 77.274 59.234"></polyline>
                <polyline id="Fill-292" fill="#121311" points="64.517 58.033 63.983 57.499 62.249 59.234 62.783 59.768 64.517 58.033"></polyline>
                <polyline id="Fill-293" fill="#121311" points="59.98 61.502 60.515 62.036 62.249 60.301 61.715 59.768 59.98 61.502"></polyline>
                <polyline id="Fill-294" fill="#121311" points="63.983 62.036 64.517 61.502 62.783 59.768 62.249 60.301 63.983 62.036"></polyline>
                <polyline id="Fill-295" fill="#121311" points="59.98 58.033 61.715 59.768 62.249 59.234 60.515 57.499 59.98 58.033"></polyline>
                <polyline id="Fill-296" fill="#121311" points="62.249 60.301 62.783 59.768 62.249 59.234 61.715 59.768 62.249 60.301"></polyline>
                <polyline id="Fill-297" fill="#121311" points="69.413 69.13 68.88 68.595 67.145 70.33 67.679 70.864 69.413 69.13"></polyline>
                <polyline id="Fill-298" fill="#121311" points="64.877 72.598 65.411 73.132 67.145 71.398 66.611 70.864 64.877 72.598"></polyline>
                <polyline id="Fill-299" fill="#121311" points="68.88 73.132 69.413 72.598 67.679 70.864 67.145 71.398 68.88 73.132"></polyline>
                <polyline id="Fill-300" fill="#121311" points="64.877 69.13 66.611 70.864 67.145 70.33 65.411 68.595 64.877 69.13"></polyline>
                <polyline id="Fill-301" fill="#121311" points="67.145 71.398 67.679 70.864 67.145 70.33 66.611 70.864 67.145 71.398"></polyline>
                <polyline id="Fill-302" fill="#121311" points="81.854 47.089 82.389 47.623 84.123 45.889 83.589 45.355 81.854 47.089"></polyline>
                <polyline id="Fill-303" fill="#121311" points="86.392 43.621 85.857 43.087 84.123 44.821 84.657 45.355 86.392 43.621"></polyline>
                <polyline id="Fill-304" fill="#121311" points="81.854 43.621 83.589 45.355 84.123 44.821 82.389 43.087 81.854 43.621"></polyline>
                <polyline id="Fill-305" fill="#121311" points="85.857 47.623 86.392 47.089 84.657 45.355 84.123 45.889 85.857 47.623"></polyline>
                <polyline id="Fill-306" fill="#121311" points="84.123 45.889 84.657 45.355 84.123 44.821 83.589 45.355 84.123 45.889"></polyline>
                <polyline id="Fill-307" fill="#121311" points="71.367 43.621 70.832 43.087 69.098 44.821 69.632 45.355 71.367 43.621"></polyline>
                <polyline id="Fill-308" fill="#121311" points="66.83 47.089 67.364 47.623 69.098 45.889 68.564 45.355 66.83 47.089"></polyline>
                <polyline id="Fill-309" fill="#121311" points="70.832 47.623 71.367 47.089 69.632 45.355 69.098 45.889 70.832 47.623"></polyline>
                <polyline id="Fill-310" fill="#121311" points="66.83 43.621 68.564 45.355 69.098 44.821 67.364 43.087 66.83 43.621"></polyline>
                <polyline id="Fill-311" fill="#121311" points="69.098 45.889 69.632 45.355 69.098 44.821 68.564 45.355 69.098 45.889"></polyline>
                <polyline id="Fill-312" fill="#121311" points="109.592 29.209 109.058 28.675 107.323 30.409 107.857 30.943 109.592 29.209"></polyline>
                <polyline id="Fill-313" fill="#121311" points="105.055 32.678 105.589 33.211 107.323 31.477 106.789 30.943 105.055 32.678"></polyline>
                <polyline id="Fill-314" fill="#121311" points="107.323 31.477 107.419 31.573 107.953 31.039 107.857 30.943 107.323 31.477"></polyline>
                <polyline id="Fill-315" fill="#121311" points="105.589 28.675 105.055 29.209 106.789 30.943 107.323 30.409 105.589 28.675"></polyline>
                <polyline id="Fill-316" fill="#121311" points="107.323 30.409 106.789 30.943 107.323 31.477 107.857 30.943 107.323 30.409"></polyline>
                <polyline id="Fill-317" fill="#121311" points="94.567 29.209 94.033 28.675 92.298 30.409 92.832 30.943 94.567 29.209"></polyline>
                <polyline id="Fill-318" fill="#121311" points="90.03 32.678 90.564 33.211 92.298 31.477 91.765 30.943 90.03 32.678"></polyline>
                <polyline id="Fill-319" fill="#121311" points="94.033 33.211 94.567 32.678 92.832 30.943 92.298 31.477 94.033 33.211"></polyline>
                <polyline id="Fill-320" fill="#121311" points="90.03 29.209 91.765 30.943 92.298 30.409 90.564 28.675 90.03 29.209"></polyline>
                <polyline id="Fill-321" fill="#121311" points="92.298 31.477 92.832 30.943 92.298 30.409 91.765 30.943 92.298 31.477"></polyline>
                <polyline id="Fill-322" fill="#121311" points="75.005 32.678 75.539 33.211 77.274 31.477 76.74 30.943 75.005 32.678"></polyline>
                <polyline id="Fill-323" fill="#121311" points="79.542 29.209 79.008 28.675 77.274 30.409 77.808 30.943 79.542 29.209"></polyline>
                <polyline id="Fill-324" fill="#121311" points="75.005 29.209 76.74 30.943 77.274 30.409 75.539 28.675 75.005 29.209"></polyline>
                <polyline id="Fill-325" fill="#121311" points="79.008 33.211 79.542 32.678 77.808 30.943 77.274 31.477 79.008 33.211"></polyline>
                <polyline id="Fill-326" fill="#121311" points="77.274 31.477 77.808 30.943 77.274 30.409 76.74 30.943 77.274 31.477"></polyline>
                <polyline id="Fill-327" fill="#121311" points="64.517 29.209 63.983 28.675 62.249 30.409 62.783 30.943 64.517 29.209"></polyline>
                <polyline id="Fill-328" fill="#121311" points="59.98 32.678 60.515 33.211 62.249 31.477 61.715 30.943 59.98 32.678"></polyline>
                <polyline id="Fill-329" fill="#121311" points="63.983 33.211 64.517 32.678 62.783 30.943 62.249 31.477 63.983 33.211"></polyline>
                <polyline id="Fill-330" fill="#121311" points="59.98 29.209 61.715 30.943 62.249 30.409 60.515 28.675 59.98 29.209"></polyline>
                <polyline id="Fill-331" fill="#121311" points="62.249 31.477 62.783 30.943 62.249 30.409 61.715 30.943 62.249 31.477"></polyline>
                <polyline id="Fill-332" fill="#121311" points="111.905 18.265 112.438 18.799 114.173 17.064 113.639 16.531 111.905 18.265"></polyline>
                <polyline id="Fill-333" fill="#121311" points="116.441 14.796 115.907 14.262 114.173 15.996 114.706 16.531 116.441 14.796"></polyline>
                <polyline id="Fill-334" fill="#121311" points="115.907 18.799 116.441 18.265 114.706 16.531 114.173 17.064 115.907 18.799"></polyline>
                <polyline id="Fill-335" fill="#121311" points="111.905 14.796 113.639 16.531 114.173 15.996 112.438 14.262 111.905 14.796"></polyline>
                <polyline id="Fill-336" fill="#121311" points="114.173 17.064 114.706 16.531 114.173 15.996 113.639 16.531 114.173 17.064"></polyline>
                <polyline id="Fill-337" fill="#121311" points="101.416 14.796 100.882 14.262 99.148 15.996 99.682 16.531 101.416 14.796"></polyline>
                <polyline id="Fill-338" fill="#121311" points="96.88 18.265 97.413 18.799 99.148 17.064 98.614 16.531 96.88 18.265"></polyline>
                <polyline id="Fill-339" fill="#121311" points="96.88 14.796 98.614 16.531 99.148 15.996 97.413 14.262 96.88 14.796"></polyline>
                <polyline id="Fill-340" fill="#121311" points="100.882 18.799 101.416 18.265 99.682 16.531 99.148 17.064 100.882 18.799"></polyline>
                <polyline id="Fill-341" fill="#121311" points="99.148 17.064 99.682 16.531 99.148 15.996 98.614 16.531 99.148 17.064"></polyline>
                <polyline id="Fill-342" fill="#121311" points="81.854 18.265 82.389 18.799 84.123 17.064 83.589 16.531 81.854 18.265"></polyline>
                <polyline id="Fill-343" fill="#121311" points="86.392 14.796 85.857 14.262 84.123 15.996 84.657 16.531 86.392 14.796"></polyline>
                <polyline id="Fill-344" fill="#121311" points="81.854 14.796 83.589 16.531 84.123 15.996 82.389 14.262 81.854 14.796"></polyline>
                <polyline id="Fill-345" fill="#121311" points="85.857 18.799 86.392 18.265 84.657 16.531 84.123 17.064 85.857 18.799"></polyline>
                <polyline id="Fill-346" fill="#121311" points="84.123 17.064 84.657 16.531 84.123 15.996 83.589 16.531 84.123 17.064"></polyline>
                <polyline id="Fill-347" fill="#121311" points="66.83 18.265 67.364 18.799 69.098 17.064 68.564 16.531 66.83 18.265"></polyline>
                <polyline id="Fill-348" fill="#121311" points="71.367 14.796 70.832 14.262 69.098 15.996 69.632 16.531 71.367 14.796"></polyline>
                <polyline id="Fill-349" fill="#121311" points="70.832 18.799 71.367 18.265 69.632 16.531 69.098 17.064 70.832 18.799"></polyline>
                <polyline id="Fill-350" fill="#121311" points="66.83 14.796 68.564 16.531 69.098 15.996 67.364 14.262 66.83 14.796"></polyline>
                <polyline id="Fill-351" fill="#121311" points="69.098 17.064 69.632 16.531 69.098 15.996 68.564 16.531 69.098 17.064"></polyline>
                <polyline id="Fill-352" fill="#121311" points="135.105 0.534 136.782 2.211 137.316 1.676 135.639 0 135.105 0.534"></polyline>
                <polyline id="Fill-353" fill="#121311" points="124.617 0.534 124.082 0 122.348 1.734 122.882 2.268 124.617 0.534"></polyline>
                <polyline id="Fill-354" fill="#121311" points="120.08 4.002 120.614 4.536 122.348 2.802 121.814 2.268 120.08 4.002"></polyline>
                <polyline id="Fill-355" fill="#121311" points="120.614 0 120.08 0.534 121.814 2.268 122.348 1.734 120.614 0"></polyline>
                <polyline id="Fill-356" fill="#121311" points="124.617 4.002 122.882 2.268 122.348 2.802 124.082 4.536 124.617 4.002"></polyline>
                <polyline id="Fill-357" fill="#121311" points="122.348 1.734 121.814 2.268 122.348 2.802 122.882 2.268 122.348 1.734"></polyline>
                <polyline id="Fill-358" fill="#121311" points="109.592 0.534 109.058 0 107.323 1.734 107.857 2.268 109.592 0.534"></polyline>
                <polyline id="Fill-359" fill="#121311" points="105.055 4.002 105.589 4.536 107.323 2.802 106.789 2.268 105.055 4.002"></polyline>
                <polyline id="Fill-360" fill="#121311" points="109.592 4.002 107.857 2.268 107.323 2.802 109.058 4.536 109.592 4.002"></polyline>
                <polyline id="Fill-361" fill="#121311" points="105.589 0 105.055 0.534 106.789 2.268 107.323 1.734 105.589 0"></polyline>
                <polyline id="Fill-362" fill="#121311" points="107.323 1.734 106.789 2.268 107.323 2.802 107.857 2.268 107.323 1.734"></polyline>
                <polyline id="Fill-363" fill="#121311" points="90.03 4.002 90.564 4.536 92.298 2.802 91.765 2.268 90.03 4.002"></polyline>
                <polyline id="Fill-364" fill="#121311" points="94.567 0.534 94.033 0 92.298 1.734 92.832 2.268 94.567 0.534"></polyline>
                <polyline id="Fill-365" fill="#121311" points="94.567 4.002 92.832 2.268 92.298 2.802 94.033 4.536 94.567 4.002"></polyline>
                <polyline id="Fill-366" fill="#121311" points="90.564 0 90.03 0.534 91.765 2.268 92.298 1.734 90.564 0"></polyline>
                <polyline id="Fill-367" fill="#121311" points="92.298 1.734 91.765 2.268 92.298 2.802 92.832 2.268 92.298 1.734"></polyline>
                <polyline id="Fill-368" fill="#121311" points="75.005 4.002 75.539 4.536 77.274 2.802 76.74 2.268 75.005 4.002"></polyline>
                <polyline id="Fill-369" fill="#121311" points="79.542 0.534 79.008 0 77.274 1.734 77.808 2.268 79.542 0.534"></polyline>
                <polyline id="Fill-370" fill="#121311" points="79.542 4.002 77.808 2.268 77.274 2.802 79.008 4.536 79.542 4.002"></polyline>
                <polyline id="Fill-371" fill="#121311" points="75.539 0 75.005 0.534 76.74 2.268 77.274 1.734 75.539 0"></polyline>
                <polyline id="Fill-372" fill="#121311" points="77.274 1.734 76.74 2.268 77.274 2.802 77.808 2.268 77.274 1.734"></polyline>
                <polyline id="Fill-373" fill="#121311" points="64.517 0.534 63.983 0 62.249 1.734 62.783 2.268 64.517 0.534"></polyline>
                <polyline id="Fill-374" fill="#121311" points="59.98 4.002 60.515 4.536 62.249 2.802 61.715 2.268 59.98 4.002"></polyline>
                <polyline id="Fill-375" fill="#121311" points="60.515 0 59.98 0.534 61.715 2.268 62.249 1.734 60.515 0"></polyline>
                <polyline id="Fill-376" fill="#121311" points="64.517 4.002 62.783 2.268 62.249 2.802 63.983 4.536 64.517 4.002"></polyline>
                <polyline id="Fill-377" fill="#121311" points="62.249 1.734 61.715 2.268 62.249 2.802 62.783 2.268 62.249 1.734"></polyline>
                <polyline id="Fill-378" fill="#121311" points="49.078 57.499 47.864 58.713 48.398 59.247 49.611 58.033 49.078 57.499"></polyline>
                <polyline id="Fill-379" fill="#121311" points="51.924 47.089 52.458 47.623 54.192 45.889 53.659 45.355 51.924 47.089"></polyline>
                <polyline id="Fill-380" fill="#121311" points="56.461 43.621 55.927 43.087 54.192 44.821 54.726 45.355 56.461 43.621"></polyline>
                <polyline id="Fill-381" fill="#121311" points="51.924 43.621 53.659 45.355 54.192 44.821 52.458 43.087 51.924 43.621"></polyline>
                <polyline id="Fill-382" fill="#121311" points="55.927 47.623 56.461 47.089 54.726 45.355 54.192 45.889 55.927 47.623"></polyline>
                <polyline id="Fill-383" fill="#121311" points="54.192 45.889 54.726 45.355 54.192 44.821 53.659 45.355 54.192 45.889"></polyline>
                <polyline id="Fill-384" fill="#121311" points="36.899 47.089 37.433 47.623 39.167 45.889 38.633 45.355 36.899 47.089"></polyline>
                <polyline id="Fill-385" fill="#121311" points="41.436 43.621 40.902 43.087 39.167 44.821 39.702 45.355 41.436 43.621"></polyline>
                <polyline id="Fill-386" fill="#121311" points="36.899 43.621 38.633 45.355 39.167 44.821 37.433 43.087 36.899 43.621"></polyline>
                <polyline id="Fill-387" fill="#121311" points="40.902 47.623 41.436 47.089 39.702 45.355 39.167 45.889 40.902 47.623"></polyline>
                <polyline id="Fill-388" fill="#121311" points="39.167 45.889 39.702 45.355 39.167 44.821 38.633 45.355 39.167 45.889"></polyline>
                <polyline id="Fill-389" fill="#121311" points="45.075 32.678 45.609 33.211 47.343 31.477 46.809 30.943 45.075 32.678"></polyline>
                <polyline id="Fill-390" fill="#121311" points="49.611 29.209 49.078 28.675 47.343 30.409 47.877 30.943 49.611 29.209"></polyline>
                <polyline id="Fill-391" fill="#121311" points="49.078 33.211 49.611 32.678 47.877 30.943 47.343 31.477 49.078 33.211"></polyline>
                <polyline id="Fill-392" fill="#121311" points="45.075 29.209 46.809 30.943 47.343 30.409 45.609 28.675 45.075 29.209"></polyline>
                <polyline id="Fill-393" fill="#121311" points="47.343 31.477 47.877 30.943 47.343 30.409 46.809 30.943 47.343 31.477"></polyline>
                <polyline id="Fill-394" fill="#121311" points="30.05 32.678 30.584 33.211 32.318 31.477 31.784 30.943 30.05 32.678"></polyline>
                <polyline id="Fill-395" fill="#121311" points="34.586 29.209 34.053 28.675 32.318 30.409 32.852 30.943 34.586 29.209"></polyline>
                <polyline id="Fill-396" fill="#121311" points="30.05 29.209 31.784 30.943 32.318 30.409 30.584 28.675 30.05 29.209"></polyline>
                <polyline id="Fill-397" fill="#121311" points="34.053 33.211 34.586 32.678 32.852 30.943 32.318 31.477 34.053 33.211"></polyline>
                <polyline id="Fill-398" fill="#121311" points="32.318 31.477 32.852 30.943 32.318 30.409 31.784 30.943 32.318 31.477"></polyline>
                <polyline id="Fill-399" fill="#121311" points="19.028 28.675 18.427 29.276 18.961 29.809 19.561 29.209 19.028 28.675"></polyline>
                <polyline id="Fill-400" fill="#121311" points="51.924 18.265 52.458 18.799 54.192 17.064 53.659 16.531 51.924 18.265"></polyline>
                <polyline id="Fill-401" fill="#121311" points="56.461 14.796 55.927 14.262 54.192 15.996 54.726 16.531 56.461 14.796"></polyline>
                <polyline id="Fill-402" fill="#121311" points="51.924 14.796 53.659 16.531 54.192 15.996 52.458 14.262 51.924 14.796"></polyline>
                <polyline id="Fill-403" fill="#121311" points="55.927 18.799 56.461 18.265 54.726 16.531 54.192 17.064 55.927 18.799"></polyline>
                <polyline id="Fill-404" fill="#121311" points="54.192 17.064 54.726 16.531 54.192 15.996 53.659 16.531 54.192 17.064"></polyline>
                <polyline id="Fill-405" fill="#121311" points="41.436 14.796 40.902 14.262 39.167 15.996 39.702 16.531 41.436 14.796"></polyline>
                <polyline id="Fill-406" fill="#121311" points="36.899 18.265 37.433 18.799 39.167 17.064 38.633 16.531 36.899 18.265"></polyline>
                <polyline id="Fill-407" fill="#121311" points="40.902 18.799 41.436 18.265 39.702 16.531 39.167 17.064 40.902 18.799"></polyline>
                <polyline id="Fill-408" fill="#121311" points="36.899 14.796 38.633 16.531 39.167 15.996 37.433 14.262 36.899 14.796"></polyline>
                <polyline id="Fill-409" fill="#121311" points="39.167 17.064 39.702 16.531 39.167 15.996 38.633 16.531 39.167 17.064"></polyline>
                <polyline id="Fill-410" fill="#121311" points="21.874 18.265 22.408 18.799 24.143 17.064 23.608 16.531 21.874 18.265"></polyline>
                <polyline id="Fill-411" fill="#121311" points="26.411 14.796 25.877 14.262 24.143 15.996 24.677 16.531 26.411 14.796"></polyline>
                <polyline id="Fill-412" fill="#121311" points="21.874 14.796 23.608 16.531 24.143 15.996 22.408 14.262 21.874 14.796"></polyline>
                <polyline id="Fill-413" fill="#121311" points="25.877 18.799 26.411 18.265 24.677 16.531 24.143 17.064 25.877 18.799"></polyline>
                <polyline id="Fill-414" fill="#121311" points="24.143 17.064 24.677 16.531 24.143 15.996 23.608 16.531 24.143 17.064"></polyline>
                <polyline id="Fill-415" fill="#121311" points="11.386 14.796 10.852 14.262 9.118 15.996 9.652 16.531 11.386 14.796"></polyline>
                <polyline id="Fill-416" fill="#121311" points="8.583 16.531 7.133 17.981 7.666 18.515 9.118 17.064 8.583 16.531"></polyline>
                <polyline id="Fill-417" fill="#121311" points="10.852 18.799 11.386 18.265 9.652 16.531 9.118 17.064 10.852 18.799"></polyline>
                <polyline id="Fill-418" fill="#121311" points="7.383 14.262 6.849 14.796 8.583 16.531 9.118 15.996 7.383 14.262"></polyline>
                <polyline id="Fill-419" fill="#121311" points="9.652 16.531 9.118 15.996 8.583 16.531 9.118 17.064 9.652 16.531"></polyline>
                <polyline id="Fill-420" fill="#121311" points="49.611 0.534 49.078 0 47.343 1.734 47.877 2.268 49.611 0.534"></polyline>
                <polyline id="Fill-421" fill="#121311" points="45.075 4.002 45.609 4.536 47.343 2.802 46.809 2.268 45.075 4.002"></polyline>
                <polyline id="Fill-422" fill="#121311" points="45.609 0 45.075 0.534 46.809 2.268 47.343 1.734 45.609 0"></polyline>
                <polyline id="Fill-423" fill="#121311" points="49.611 4.002 47.877 2.268 47.343 2.802 49.078 4.536 49.611 4.002"></polyline>
                <polyline id="Fill-424" fill="#121311" points="47.343 1.734 46.809 2.268 47.343 2.802 47.877 2.268 47.343 1.734"></polyline>
                <polyline id="Fill-425" fill="#121311" points="30.05 4.002 30.584 4.536 32.318 2.802 31.784 2.268 30.05 4.002"></polyline>
                <polyline id="Fill-426" fill="#121311" points="34.586 0.534 34.053 0 32.318 1.734 32.852 2.268 34.586 0.534"></polyline>
                <polyline id="Fill-427" fill="#121311" points="30.584 0 30.05 0.534 31.784 2.268 32.318 1.734 30.584 0"></polyline>
                <polyline id="Fill-428" fill="#121311" points="34.586 4.002 32.852 2.268 32.318 2.802 34.053 4.536 34.586 4.002"></polyline>
                <polyline id="Fill-429" fill="#121311" points="32.318 1.734 31.784 2.268 32.318 2.802 32.852 2.268 32.318 1.734"></polyline>
                <polyline id="Fill-430" fill="#121311" points="15.025 4.002 15.559 4.536 17.293 2.802 16.759 2.268 15.025 4.002"></polyline>
                <polyline id="Fill-431" fill="#121311" points="19.561 0.534 19.028 0 17.293 1.734 17.827 2.268 19.561 0.534"></polyline>
                <polyline id="Fill-432" fill="#121311" points="15.559 0 15.025 0.534 16.759 2.268 17.293 1.734 15.559 0"></polyline>
                <polyline id="Fill-433" fill="#121311" points="19.561 4.002 17.827 2.268 17.293 2.802 19.028 4.536 19.561 4.002"></polyline>
                <polyline id="Fill-434" fill="#121311" points="17.293 1.734 16.759 2.268 17.293 2.802 17.827 2.268 17.293 1.734"></polyline>
                <polyline id="Fill-435" fill="#121311" points="-2.84217094e-14 4.002 0.534 4.536 2.268 2.802 1.734 2.268 -2.84217094e-14 4.002"></polyline>
                <polyline id="Fill-436" fill="#121311" points="4.537 0.534 4.003 0 2.268 1.734 2.803 2.268 4.537 0.534"></polyline>
                <polyline id="Fill-437" fill="#121311" points="0.534 0 -2.84217094e-14 0.534 1.734 2.268 2.268 1.734 0.534 0"></polyline>
                <polyline id="Fill-438" fill="#121311" points="4.537 4.002 2.803 2.268 2.268 2.802 4.003 4.536 4.537 4.002"></polyline>
                <polyline id="Fill-439" fill="#121311" points="2.268 1.734 1.734 2.268 2.268 2.802 2.803 2.268 2.268 1.734"></polyline>
            </g>
        </g>
    </g>
</svg>