<?xml version="1.0" encoding="UTF-8"?>
<svg width="35px" height="115px" viewBox="0 0 35 115" version="1.1" xmlns="http://www.w3.org/2000/svg" xmlns:xlink="http://www.w3.org/1999/xlink">
    <title>Fill 105</title>
    <g id="Page-1" stroke="none" stroke-width="1" fill="none" fill-rule="evenodd">
        <g id="3983643" transform="translate(-90.000000, -274.000000)" fill="#7D7CAE">
            <path d="M90.053,382.689 C90.053,373.971 98.344,370.326 105.006,367.399 C107.935,366.112 113.386,363.716 113.386,362.179 C113.386,360.643 107.936,358.247 105.007,356.96 C98.345,354.033 90.053,350.388 90.053,341.67 C90.053,332.952 98.345,329.309 105.007,326.381 C107.936,325.094 113.386,322.699 113.386,321.163 C113.386,319.626 107.935,317.231 105.006,315.944 C98.344,313.016 90.053,309.371 90.053,300.654 C90.053,291.936 98.344,288.291 105.006,285.364 C107.935,284.076 113.386,281.681 113.386,280.144 C113.386,277.107 115.849,274.644 118.886,274.644 C121.923,274.644 124.386,277.107 124.386,280.144 C124.386,288.862 116.095,292.506 109.433,295.434 C106.505,296.721 101.053,299.117 101.053,300.654 C101.053,302.191 106.505,304.586 109.433,305.873 C116.095,308.801 124.386,312.446 124.386,321.163 C124.386,329.88 116.095,333.524 109.433,336.451 C106.505,337.739 101.053,340.134 101.053,341.67 C101.053,343.207 106.505,345.603 109.433,346.89 C116.095,349.818 124.386,353.461 124.386,362.179 C124.386,370.897 116.095,374.541 109.433,377.469 C106.505,378.756 101.053,381.152 101.053,382.689 C101.053,385.726 98.59,388.189 95.553,388.189 C92.516,388.189 90.053,385.726 90.053,382.689" id="Fill-105"></path>
        </g>
    </g>
</svg>