<?xml version="1.0" encoding="UTF-8"?>
<svg width="125px" height="36px" viewBox="0 0 125 36" version="1.1" xmlns="http://www.w3.org/2000/svg" xmlns:xlink="http://www.w3.org/1999/xlink">
    <title>Group 2</title>
    <g id="Page-1" stroke="none" stroke-width="1" fill="none" fill-rule="evenodd">
        <g id="3983643" transform="translate(-583.000000, -321.000000)">
            <g id="Group-2" transform="translate(583.586000, 321.611000)">
                <path d="M108.044,34.708 C99.327,34.708 95.683,26.417 92.754,19.755 C91.467,16.826 89.072,11.375 87.535,11.375 C85.998,11.375 83.602,16.826 82.315,19.755 C79.387,26.417 75.744,34.708 67.026,34.708 C58.308,34.708 54.665,26.417 51.737,19.755 C50.45,16.826 48.055,11.375 46.519,11.375 C44.982,11.375 42.586,16.826 41.299,19.755 C38.372,26.417 34.727,34.708 26.009,34.708 C17.292,34.708 13.648,26.417 10.719,19.755 C9.432,16.826 7.037,11.375 5.5,11.375 C2.462,11.375 0,8.913 0,5.875 C0,2.838 2.462,0.375 5.5,0.375 C14.217,0.375 17.862,8.667 20.79,15.329 C22.077,18.256 24.472,23.708 26.009,23.708 C27.546,23.708 29.942,18.257 31.229,15.329 C34.157,8.667 37.8,0.375 46.519,0.375 C55.236,0.375 58.879,8.667 61.807,15.329 C63.094,18.257 65.49,23.708 67.026,23.708 C68.562,23.708 70.958,18.257 72.245,15.329 C75.172,8.667 78.817,0.375 87.535,0.375 C96.253,0.375 99.897,8.667 102.825,15.329 C104.112,18.256 106.507,23.708 108.044,23.708 C111.083,23.708 113.544,26.171 113.544,29.208 C113.544,32.246 111.083,34.708 108.044,34.708" id="Fill-103" fill="#F4C3AE"></path>
                <path d="M97.268,11 C98.913,11 100.918,15.25 102.831,19.602 C105.715,26.166 109.304,34.333 117.778,34.333 C120.604,34.333 122.903,32.034 122.903,29.208 C122.903,26.381 120.604,24.083 117.778,24.083 C116.134,24.083 114.129,19.836 112.217,15.485 C109.329,8.915 105.74,0.75 97.268,0.75 C88.794,0.75 85.206,8.917 82.322,15.478 C80.409,19.833 78.403,24.083 76.758,24.083 C75.116,24.083 73.111,19.835 71.199,15.484 C68.313,8.917 64.724,0.75 56.252,0.75 C47.78,0.75 44.191,8.915 41.306,15.476 C39.392,19.833 37.386,24.083 35.743,24.083 C34.099,24.083 32.094,19.836 30.182,15.485 C27.294,8.915 23.705,0.75 15.233,0.75 C12.407,0.75 10.108,3.048 10.108,5.875 C10.108,8.701 12.407,11 15.233,11 C16.878,11 18.882,15.25 20.795,19.602 C23.68,26.166 27.269,34.333 35.743,34.333 C44.215,34.333 47.804,26.166 50.688,19.604 C52.602,15.25 54.607,11 56.252,11 C57.895,11 59.9,15.25 61.813,19.602 C64.698,26.166 68.287,34.333 76.758,34.333 C85.232,34.333 88.821,26.166 91.705,19.604 C93.619,15.25 95.624,11 97.268,11 Z M117.778,35.083 C108.814,35.083 105.116,26.668 102.144,19.905 C101.164,17.674 98.56,11.75 97.268,11.75 C95.976,11.75 93.373,17.674 92.392,19.904 C89.42,26.668 85.722,35.083 76.758,35.083 C67.796,35.083 64.098,26.668 61.127,19.906 C60.146,17.674 57.543,11.75 56.252,11.75 C54.96,11.75 52.356,17.674 51.376,19.904 C48.404,26.668 44.706,35.083 35.743,35.083 C26.779,35.083 23.081,26.668 20.109,19.905 C19.128,17.674 16.525,11.75 15.233,11.75 C11.994,11.75 9.358,9.114 9.358,5.875 C9.358,2.635 11.994,0 15.233,0 C24.194,0 27.892,8.414 30.865,15.174 C31.848,17.412 34.452,23.333 35.743,23.333 C37.035,23.333 39.638,17.408 40.618,15.178 C43.592,8.414 47.291,0 56.252,0 C65.213,0 68.912,8.415 71.883,15.176 C72.866,17.411 75.467,23.333 76.758,23.333 C78.051,23.333 80.655,17.408 81.634,15.178 C84.607,8.415 88.305,0 97.268,0 C106.229,0 109.927,8.414 112.9,15.174 C113.883,17.412 116.487,23.333 117.778,23.333 C121.017,23.333 123.653,25.968 123.653,29.208 C123.653,32.447 121.017,35.083 117.778,35.083 L117.778,35.083 Z" id="Fill-104" fill="#121311"></path>
            </g>
        </g>
    </g>
</svg>