<?xml version="1.0" encoding="UTF-8"?>
<svg width="87px" height="78px" viewBox="0 0 87 78" version="1.1" xmlns="http://www.w3.org/2000/svg" xmlns:xlink="http://www.w3.org/1999/xlink">
    <title>Group</title>
    <g id="Page-1" stroke="none" stroke-width="1" fill="none" fill-rule="evenodd">
        <g id="3983643" transform="translate(-17.000000, -11.000000)">
            <g id="Group" transform="translate(17.048500, 11.357000)">
                <polyline id="Fill-62" fill="#7D7CAE" points="71.8935 0 48.4565 23.436 25.0205 0 10.4375 14.583 33.8735 38.019 10.4375 61.456 25.0205 76.039 48.4565 52.602 71.8935 76.039 86.4765 61.456 63.0405 38.019 86.4765 14.583 71.8935 0"></polyline>
                <path d="M5.8555,15.383 C5.4175,15.383 4.9785,15.55 4.6455,15.883 C3.9785,16.551 3.9785,17.636 4.6455,18.304 C5.2915,18.95 6.4195,18.949 7.0655,18.304 C7.7325,17.636 7.7325,16.551 7.0655,15.883 C6.7325,15.55 6.2935,15.383 5.8555,15.383 Z M5.8555,19.303 C5.2895,19.303 4.7235,19.088 4.2915,18.657 C3.4305,17.795 3.4305,16.392 4.2915,15.53 C5.1535,14.669 6.5565,14.667 7.4195,15.53 C8.2815,16.392 8.2815,17.795 7.4195,18.657 C6.9885,19.088 6.4215,19.303 5.8555,19.303 L5.8555,19.303 Z" id="Fill-63" fill="#121311"></path>
                <path d="M15.5165,5.722 C15.0595,5.722 14.6295,5.9 14.3065,6.223 C13.9825,6.547 13.8045,6.976 13.8045,7.433 C13.8045,7.89 13.9825,8.32 14.3065,8.643 C14.9745,9.311 16.0595,9.31 16.7265,8.643 C17.0495,8.32 17.2275,7.89 17.2275,7.433 C17.2275,6.976 17.0495,6.547 16.7265,6.223 C16.4025,5.9 15.9735,5.722 15.5165,5.722 Z M15.5165,9.643 C14.9505,9.643 14.3835,9.428 13.9525,8.997 C13.5345,8.579 13.3045,8.024 13.3045,7.433 C13.3045,6.842 13.5345,6.287 13.9525,5.87 C14.7885,5.033 16.2445,5.034 17.0795,5.87 C17.4975,6.287 17.7275,6.842 17.7275,7.433 C17.7275,8.024 17.4975,8.579 17.0795,8.997 C16.6485,9.428 16.0825,9.643 15.5165,9.643 L15.5165,9.643 Z" id="Fill-64" fill="#121311"></path>
                <path d="M14.9345,24.461 C14.4775,24.461 14.0475,24.639 13.7245,24.963 C13.0575,25.63 13.0575,26.716 13.7245,27.383 C14.3715,28.029 15.4985,28.029 16.1445,27.383 C16.8125,26.716 16.8125,25.63 16.1445,24.963 C15.8215,24.639 15.3925,24.461 14.9345,24.461 Z M14.9345,28.383 C14.3685,28.383 13.8025,28.167 13.3715,27.736 C12.5085,26.874 12.5085,25.471 13.3715,24.609 C14.2335,23.747 15.6365,23.748 16.4985,24.609 C17.3605,25.471 17.3605,26.874 16.4985,27.736 C16.0675,28.167 15.5005,28.383 14.9345,28.383 L14.9345,28.383 Z" id="Fill-65" fill="#121311"></path>
                <path d="M24.5955,14.802 C24.1565,14.802 23.7185,14.969 23.3855,15.302 C23.0615,15.625 22.8835,16.055 22.8835,16.513 C22.8835,16.969 23.0615,17.399 23.3855,17.722 C24.0515,18.389 25.1375,18.389 25.8055,17.722 C26.1285,17.399 26.3065,16.969 26.3065,16.513 C26.3065,16.055 26.1285,15.625 25.8055,15.302 C25.4715,14.969 25.0335,14.802 24.5955,14.802 Z M24.5955,18.722 C24.0285,18.722 23.4625,18.507 23.0315,18.076 C22.1695,17.214 22.1695,15.811 23.0315,14.948 C23.8925,14.087 25.2955,14.086 26.1585,14.948 C27.0205,15.811 27.0205,17.214 26.1585,18.076 C25.7275,18.507 25.1615,18.722 24.5955,18.722 L24.5955,18.722 Z" id="Fill-66" fill="#121311"></path>
                <path d="M24.0135,33.54 C23.5565,33.54 23.1265,33.719 22.8035,34.042 C22.4805,34.365 22.3025,34.795 22.3025,35.252 C22.3025,35.709 22.4805,36.138 22.8035,36.462 C23.4705,37.129 24.5565,37.129 25.2235,36.462 C25.5465,36.138 25.7255,35.709 25.7255,35.252 C25.7255,34.795 25.5465,34.365 25.2235,34.042 C24.9005,33.719 24.4705,33.54 24.0135,33.54 Z M24.0135,37.462 C23.4475,37.462 22.8815,37.246 22.4505,36.815 C22.0325,36.397 21.8025,35.842 21.8025,35.252 C21.8025,34.661 22.0325,34.106 22.4505,33.688 C23.2855,32.852 24.7425,32.852 25.5775,33.688 C25.9955,34.106 26.2255,34.661 26.2255,35.252 C26.2255,35.842 25.9955,36.397 25.5775,36.815 C25.1455,37.246 24.5805,37.462 24.0135,37.462 L24.0135,37.462 Z" id="Fill-67" fill="#121311"></path>
                <path d="M33.6735,23.88 C33.2165,23.88 32.7875,24.058 32.4635,24.381 C31.7965,25.049 31.7965,26.134 32.4635,26.801 C33.1095,27.448 34.2375,27.446 34.8845,26.801 C35.5515,26.134 35.5515,25.049 34.8845,24.381 C34.5605,24.058 34.1315,23.88 33.6735,23.88 Z M33.6735,27.801 C33.1075,27.801 32.5415,27.586 32.1105,27.154 C31.2485,26.293 31.2485,24.89 32.1105,24.028 C32.9725,23.166 34.3745,23.165 35.2375,24.028 C36.0995,24.89 36.0995,26.293 35.2375,27.154 C34.8065,27.586 34.2405,27.801 33.6735,27.801 L33.6735,27.801 Z" id="Fill-68" fill="#121311"></path>
                <path d="M33.0925,42.62 C32.6545,42.62 32.2165,42.787 31.8825,43.12 C31.5595,43.444 31.3815,43.873 31.3815,44.331 C31.3815,44.788 31.5595,45.217 31.8825,45.541 C32.5495,46.207 33.6355,46.208 34.3025,45.541 C34.9695,44.873 34.9695,43.788 34.3025,43.12 C33.9695,42.787 33.5305,42.62 33.0925,42.62 Z M33.0925,46.541 C32.5265,46.541 31.9595,46.325 31.5295,45.894 C30.6665,45.032 30.6665,43.629 31.5295,42.767 C32.3905,41.905 33.7935,41.904 34.6565,42.767 C35.5175,43.629 35.5175,45.032 34.6565,45.894 C34.2255,46.325 33.6585,46.541 33.0925,46.541 L33.0925,46.541 Z" id="Fill-69" fill="#121311"></path>
                <path d="M42.7525,32.959 C42.2955,32.959 41.8665,33.137 41.5425,33.46 C40.8755,34.127 40.8755,35.213 41.5425,35.88 C42.1895,36.527 43.3165,36.527 43.9625,35.88 C44.2865,35.557 44.4645,35.127 44.4645,34.67 C44.4645,34.213 44.2865,33.783 43.9625,33.46 C43.6395,33.137 43.2095,32.959 42.7525,32.959 Z M42.7525,36.882 C42.1625,36.882 41.6075,36.652 41.1895,36.234 C40.3275,35.371 40.3275,33.969 41.1895,33.107 C42.0245,32.27 43.4805,32.27 44.3165,33.107 C44.7345,33.524 44.9645,34.079 44.9645,34.67 C44.9645,35.26 44.7345,35.816 44.3165,36.234 C43.8985,36.652 43.3435,36.882 42.7525,36.882 L42.7525,36.882 Z" id="Fill-70" fill="#121311"></path>
                <path d="M42.3045,51.832 C41.8665,51.832 41.4275,51.999 41.0945,52.332 C40.4275,53 40.4275,54.085 41.0945,54.752 C41.7625,55.42 42.8485,55.419 43.5145,54.752 C44.1815,54.085 44.1815,53 43.5145,52.332 C43.1815,51.999 42.7425,51.832 42.3045,51.832 Z M42.3045,55.752 C41.7385,55.752 41.1715,55.537 40.7405,55.106 C39.8785,54.244 39.8785,52.841 40.7405,51.979 C41.6025,51.117 43.0055,51.116 43.8685,51.979 C44.7295,52.841 44.7295,54.244 43.8685,55.106 C43.4375,55.537 42.8705,55.752 42.3045,55.752 L42.3045,55.752 Z" id="Fill-71" fill="#121311"></path>
                <path d="M51.9645,42.171 C51.5075,42.171 51.0785,42.349 50.7545,42.672 C50.4315,42.995 50.2535,43.425 50.2535,43.882 C50.2535,44.339 50.4315,44.769 50.7545,45.092 C51.4225,45.76 52.5085,45.759 53.1745,45.092 C53.4975,44.769 53.6765,44.339 53.6765,43.882 C53.6765,43.425 53.4975,42.995 53.1745,42.672 C52.8515,42.349 52.4215,42.171 51.9645,42.171 Z M51.9645,46.092 C51.3985,46.092 50.8325,45.877 50.4015,45.446 C49.9835,45.028 49.7535,44.472 49.7535,43.882 C49.7535,43.291 49.9835,42.736 50.4015,42.319 C51.2375,41.482 52.6935,41.483 53.5285,42.319 C53.9465,42.736 54.1765,43.291 54.1765,43.882 C54.1765,44.472 53.9465,45.028 53.5285,45.446 C53.0975,45.877 52.5315,46.092 51.9645,46.092 L51.9645,46.092 Z" id="Fill-72" fill="#121311"></path>
                <path d="M51.3835,60.91 C50.9265,60.91 50.4965,61.088 50.1735,61.411 C49.5065,62.078 49.5065,63.164 50.1735,63.831 C50.8195,64.478 51.9465,64.478 52.5935,63.831 C52.9165,63.508 53.0945,63.078 53.0945,62.621 C53.0945,62.164 52.9165,61.735 52.5935,61.411 C52.2695,61.088 51.8405,60.91 51.3835,60.91 Z M51.3835,64.833 C50.7925,64.833 50.2375,64.603 49.8195,64.185 C48.9575,63.323 48.9575,61.92 49.8195,61.058 C50.6555,60.221 52.1115,60.222 52.9465,61.058 C53.3645,61.475 53.5945,62.031 53.5945,62.621 C53.5945,63.212 53.3645,63.767 52.9465,64.185 C52.5295,64.603 51.9745,64.833 51.3835,64.833 L51.3835,64.833 Z" id="Fill-73" fill="#121311"></path>
                <path d="M61.0435,51.251 C60.6055,51.251 60.1675,51.417 59.8335,51.751 C59.5105,52.074 59.3325,52.504 59.3325,52.961 C59.3325,53.418 59.5105,53.848 59.8335,54.171 C60.5005,54.838 61.5865,54.839 62.2535,54.171 C62.5775,53.848 62.7555,53.418 62.7555,52.961 C62.7555,52.504 62.5775,52.074 62.2535,51.751 C61.9205,51.417 61.4815,51.251 61.0435,51.251 Z M61.0435,55.171 C60.4775,55.171 59.9115,54.956 59.4805,54.525 C58.6185,53.662 58.6185,52.26 59.4805,51.397 C60.3415,50.535 61.7445,50.534 62.6075,51.397 C63.4695,52.26 63.4695,53.662 62.6075,54.525 C62.1765,54.955 61.6095,55.171 61.0435,55.171 L61.0435,55.171 Z" id="Fill-74" fill="#121311"></path>
                <path d="M60.4625,69.989 C60.0245,69.989 59.5855,70.156 59.2525,70.49 C58.9295,70.813 58.7505,71.243 58.7505,71.7 C58.7505,72.157 58.9295,72.587 59.2525,72.91 C59.9195,73.577 61.0055,73.577 61.6725,72.91 C61.9955,72.587 62.1735,72.157 62.1735,71.7 C62.1735,71.243 61.9955,70.813 61.6725,70.49 C61.3385,70.156 60.9005,69.989 60.4625,69.989 Z M60.4625,73.91 C59.8955,73.91 59.3305,73.695 58.8985,73.264 C58.0365,72.402 58.0365,70.999 58.8985,70.136 C59.7615,69.274 61.1635,69.274 62.0255,70.136 C62.8885,70.999 62.8885,72.402 62.0255,73.264 C61.5945,73.695 61.0285,73.91 60.4625,73.91 L60.4625,73.91 Z" id="Fill-75" fill="#121311"></path>
                <path d="M70.1225,60.328 C69.6655,60.328 69.2355,60.507 68.9125,60.83 C68.2455,61.497 68.2455,62.583 68.9125,63.25 C69.5585,63.896 70.6855,63.897 71.3325,63.25 C71.9995,62.583 71.9995,61.497 71.3325,60.83 C71.0095,60.507 70.5805,60.328 70.1225,60.328 Z M70.1225,64.25 C69.5565,64.25 68.9905,64.034 68.5595,63.603 C67.6975,62.741 67.6975,61.339 68.5595,60.476 C69.4205,59.614 70.8235,59.613 71.6865,60.476 C72.5485,61.339 72.5485,62.741 71.6865,63.603 C71.2555,64.034 70.6885,64.25 70.1225,64.25 L70.1225,64.25 Z" id="Fill-76" fill="#121311"></path>
                <path d="M11.8705,73.635 C11.4135,73.635 10.9835,73.813 10.6605,74.136 C10.3375,74.459 10.1595,74.889 10.1595,75.346 C10.1595,75.803 10.3375,76.233 10.6605,76.556 C11.3075,77.202 12.4345,77.202 13.0805,76.556 C13.4035,76.233 13.5815,75.803 13.5815,75.346 C13.5815,74.889 13.4035,74.459 13.0805,74.136 C12.7575,73.813 12.3275,73.635 11.8705,73.635 Z M11.8705,77.557 C11.2795,77.557 10.7245,77.327 10.3075,76.909 C9.8895,76.492 9.6595,75.937 9.6595,75.346 C9.6595,74.755 9.8895,74.2 10.3075,73.782 C11.1425,72.947 12.5975,72.946 13.4345,73.782 C13.8515,74.2 14.0815,74.755 14.0815,75.346 C14.0815,75.937 13.8515,76.492 13.4345,76.909 C13.0165,77.327 12.4605,77.557 11.8705,77.557 L11.8705,77.557 Z" id="Fill-77" fill="#121311"></path>
                <path d="M0.9995,64.475 C0.6765,64.799 0.4985,65.228 0.4985,65.685 C0.4985,66.143 0.6765,66.573 0.9995,66.896 C1.6675,67.563 2.7535,67.563 3.4195,66.896 C3.7435,66.573 3.9215,66.143 3.9215,65.685 C3.9215,65.228 3.7435,64.799 3.4195,64.475 C2.7535,63.809 1.6675,63.808 0.9995,64.475 Z M2.2095,67.896 C1.6435,67.896 1.0775,67.68 0.6465,67.249 C-0.2155,66.387 -0.2155,64.984 0.6465,64.122 C1.5095,63.26 2.9125,63.26 3.7735,64.122 C4.6355,64.984 4.6355,66.387 3.7735,67.249 C3.3425,67.68 2.7765,67.896 2.2095,67.896 L2.2095,67.896 Z" id="Fill-78" fill="#121311"></path>
                <path d="M19.7395,65.057 C19.0725,65.724 19.0725,66.81 19.7395,67.477 C20.4065,68.145 21.4935,68.144 22.1595,67.477 C22.8265,66.81 22.8265,65.724 22.1595,65.057 C21.4935,64.39 20.4065,64.391 19.7395,65.057 Z M20.9495,68.477 C20.3835,68.477 19.8165,68.262 19.3855,67.831 C18.5235,66.969 18.5235,65.566 19.3855,64.703 C20.2475,63.841 21.6505,63.841 22.5135,64.703 C23.3745,65.566 23.3745,66.969 22.5135,67.831 C22.0815,68.261 21.5155,68.477 20.9495,68.477 L20.9495,68.477 Z" id="Fill-79" fill="#121311"></path>
                <path d="M11.2885,54.895 C10.8315,54.895 10.4025,55.073 10.0795,55.397 C9.7555,55.72 9.5775,56.15 9.5775,56.607 C9.5775,57.064 9.7555,57.493 10.0795,57.817 C10.7255,58.463 11.8525,58.463 12.4985,57.817 C12.8225,57.493 13.0005,57.064 13.0005,56.607 C13.0005,56.15 12.8225,55.72 12.4985,55.397 C12.1755,55.073 11.7465,54.895 11.2885,54.895 Z M11.2885,58.818 C10.6985,58.818 10.1425,58.588 9.7255,58.17 C9.3075,57.752 9.0775,57.197 9.0775,56.607 C9.0775,56.016 9.3075,55.461 9.7255,55.043 C10.5605,54.207 12.0175,54.207 12.8525,55.043 C13.2705,55.461 13.5005,56.016 13.5005,56.607 C13.5005,57.197 13.2705,57.752 12.8525,58.17 C12.4345,58.588 11.8795,58.818 11.2885,58.818 L11.2885,58.818 Z" id="Fill-80" fill="#121311"></path>
                <path d="M30.0285,55.477 C29.5715,55.477 29.1415,55.655 28.8185,55.978 C28.4955,56.302 28.3165,56.731 28.3165,57.188 C28.3165,57.645 28.4955,58.075 28.8185,58.398 C29.4865,59.066 30.5725,59.065 31.2385,58.398 C31.5615,58.075 31.7395,57.645 31.7395,57.188 C31.7395,56.731 31.5615,56.302 31.2385,55.978 C30.9145,55.655 30.4855,55.477 30.0285,55.477 Z M30.0285,59.398 C29.4625,59.398 28.8955,59.183 28.4645,58.752 C28.0465,58.334 27.8165,57.779 27.8165,57.188 C27.8165,56.597 28.0465,56.042 28.4645,55.625 C29.3005,54.788 30.7565,54.788 31.5915,55.625 C32.0095,56.042 32.2395,56.597 32.2395,57.188 C32.2395,57.779 32.0095,58.334 31.5915,58.752 C31.1615,59.183 30.5945,59.398 30.0285,59.398 L30.0285,59.398 Z" id="Fill-81" fill="#121311"></path>
                <path d="M19.1575,46.318 C18.4905,46.985 18.4905,48.071 19.1575,48.737 C19.8035,49.384 20.9315,49.385 21.5785,48.737 C22.2455,48.071 22.2455,46.985 21.5785,46.318 C20.9305,45.671 19.8035,45.671 19.1575,46.318 Z M20.3685,49.737 C19.8015,49.737 19.2355,49.522 18.8045,49.091 C17.9425,48.229 17.9425,46.826 18.8045,45.964 C19.6655,45.102 21.0685,45.101 21.9315,45.964 C22.7935,46.826 22.7935,48.229 21.9315,49.091 C21.5005,49.522 20.9345,49.737 20.3685,49.737 L20.3685,49.737 Z" id="Fill-82" fill="#121311"></path>
                <path d="M55.0815,29.714 C54.4155,30.382 54.4155,31.467 55.0815,32.134 C55.7485,32.801 56.8345,32.802 57.5025,32.134 C58.1695,31.467 58.1695,30.382 57.5025,29.714 C56.8355,29.048 55.7485,29.048 55.0815,29.714 Z M56.2915,33.134 C55.7265,33.134 55.1595,32.919 54.7285,32.487 C53.8665,31.626 53.8665,30.223 54.7285,29.361 C55.5905,28.498 56.9935,28.498 57.8555,29.361 C58.7175,30.223 58.7175,31.626 57.8555,32.487 C57.4245,32.919 56.8585,33.134 56.2915,33.134 L56.2915,33.134 Z" id="Fill-83" fill="#121311"></path>
                <path d="M46.6315,19.552 C46.1745,19.552 45.7455,19.731 45.4215,20.054 C45.0985,20.377 44.9205,20.807 44.9205,21.264 C44.9205,21.721 45.0985,22.151 45.4215,22.474 C46.0685,23.12 47.1955,23.12 47.8415,22.474 C48.1645,22.151 48.3435,21.721 48.3435,21.264 C48.3435,20.807 48.1645,20.377 47.8415,20.054 C47.5185,19.731 47.0885,19.552 46.6315,19.552 Z M46.6315,23.475 C46.0405,23.475 45.4855,23.245 45.0685,22.827 C44.6505,22.409 44.4205,21.854 44.4205,21.264 C44.4205,20.673 44.6505,20.118 45.0685,19.7 C45.9035,18.864 47.3605,18.864 48.1955,19.7 C48.6135,20.118 48.8435,20.673 48.8435,21.264 C48.8435,21.854 48.6135,22.409 48.1955,22.827 C47.7775,23.245 47.2225,23.475 46.6315,23.475 L46.6315,23.475 Z" id="Fill-84" fill="#121311"></path>
                <path d="M64.1615,20.635 C63.8375,20.958 63.6595,21.388 63.6595,21.846 C63.6595,22.302 63.8375,22.732 64.1615,23.055 C64.8295,23.723 65.9155,23.723 66.5805,23.055 C66.9045,22.732 67.0825,22.302 67.0825,21.846 C67.0825,21.388 66.9045,20.958 66.5805,20.635 C65.9145,19.969 64.8285,19.967 64.1615,20.635 Z M65.3715,24.055 C64.8055,24.055 64.2385,23.84 63.8075,23.409 C62.9455,22.547 62.9455,21.144 63.8075,20.281 C64.6705,19.42 66.0735,19.42 66.9345,20.281 C67.7965,21.144 67.7965,22.547 66.9345,23.409 C66.5035,23.84 65.9375,24.055 65.3715,24.055 L65.3715,24.055 Z" id="Fill-85" fill="#121311"></path>
                <path d="M55.7105,10.473 C55.2535,10.473 54.8245,10.652 54.5005,10.975 C54.1775,11.298 53.9995,11.728 53.9995,12.185 C53.9995,12.642 54.1775,13.071 54.5005,13.395 C55.1475,14.041 56.2745,14.041 56.9205,13.395 C57.5875,12.728 57.5875,11.642 56.9205,10.975 C56.5975,10.652 56.1675,10.473 55.7105,10.473 Z M55.7105,14.396 C55.1205,14.396 54.5645,14.166 54.1475,13.748 C53.7295,13.331 53.4995,12.776 53.4995,12.185 C53.4995,11.594 53.7295,11.039 54.1475,10.621 C54.9825,9.786 56.4385,9.785 57.2745,10.621 C58.1365,11.484 58.1365,12.886 57.2745,13.748 C56.8565,14.166 56.3015,14.396 55.7105,14.396 L55.7105,14.396 Z" id="Fill-86" fill="#121311"></path>
                <path d="M74.4505,11.055 C73.9935,11.055 73.5635,11.233 73.2405,11.556 C72.9165,11.88 72.7385,12.309 72.7385,12.766 C72.7385,13.223 72.9165,13.653 73.2405,13.976 C73.8865,14.623 75.0135,14.623 75.6605,13.976 C75.9835,13.653 76.1615,13.223 76.1615,12.766 C76.1615,12.309 75.9835,11.88 75.6605,11.556 C75.3365,11.233 74.9075,11.055 74.4505,11.055 Z M74.4505,14.978 C73.8595,14.978 73.3045,14.748 72.8865,14.33 C72.4685,13.912 72.2385,13.357 72.2385,12.766 C72.2385,12.175 72.4685,11.62 72.8865,11.203 C73.7215,10.367 75.1785,10.367 76.0135,11.203 C76.4315,11.62 76.6615,12.175 76.6615,12.766 C76.6615,13.357 76.4315,13.912 76.0135,14.33 C75.5965,14.748 75.0415,14.978 74.4505,14.978 L74.4505,14.978 Z" id="Fill-87" fill="#121311"></path>
                <path d="M63.5795,1.896 C62.9125,2.563 62.9125,3.649 63.5795,4.316 C64.2465,4.984 65.3335,4.983 65.9995,4.316 C66.6665,3.649 66.6665,2.563 65.9995,1.896 C65.3335,1.229 64.2465,1.23 63.5795,1.896 Z M64.7895,5.316 C64.2235,5.316 63.6575,5.101 63.2265,4.67 C62.3645,3.807 62.3645,2.404 63.2265,1.542 C64.0885,0.68 65.4915,0.681 66.3535,1.542 C67.2155,2.404 67.2155,3.807 66.3535,4.67 C65.9225,5.1 65.3555,5.316 64.7895,5.316 L64.7895,5.316 Z" id="Fill-88" fill="#121311"></path>
            </g>
        </g>
    </g>
</svg>