<?xml version="1.0" encoding="UTF-8"?>
<svg width="117px" height="58px" viewBox="0 0 117 58" version="1.1" xmlns="http://www.w3.org/2000/svg" xmlns:xlink="http://www.w3.org/1999/xlink">
    <title>Group 2</title>
    <g id="Page-1" stroke="none" stroke-width="1" fill="none" fill-rule="evenodd">
        <g id="3983643" transform="translate(-23.000000, -422.000000)" fill="#121311">
            <g id="Group-2" transform="translate(23.177000, 422.115000)">
                <path d="M2.901,0.5 C1.577,0.5 0.5,1.577 0.5,2.9 C0.5,4.223 1.577,5.3 2.901,5.3 C4.224,5.3 5.301,4.223 5.301,2.9 C5.301,1.577 4.224,0.5 2.901,0.5 Z M2.901,5.8 C1.302,5.8 7.10542736e-15,4.5 7.10542736e-15,2.9 C7.10542736e-15,1.3 1.302,0 2.901,0 C4.5,0 5.801,1.3 5.801,2.9 C5.801,4.5 4.5,5.8 2.901,5.8 L2.901,5.8 Z" id="Fill-30"></path>
                <path d="M21.364,0.5 C20.04,0.5 18.963,1.577 18.963,2.9 C18.963,4.223 20.04,5.3 21.364,5.3 C22.687,5.3 23.764,4.223 23.764,2.9 C23.764,1.577 22.687,0.5 21.364,0.5 Z M21.364,5.8 C19.764,5.8 18.463,4.5 18.463,2.9 C18.463,1.3 19.764,0 21.364,0 C22.963,0 24.264,1.3 24.264,2.9 C24.264,4.5 22.963,5.8 21.364,5.8 L21.364,5.8 Z" id="Fill-31"></path>
                <path d="M39.827,0.5 C38.503,0.5 37.426,1.577 37.426,2.9 C37.426,4.223 38.503,5.3 39.827,5.3 C41.151,5.3 42.227,4.223 42.227,2.9 C42.227,1.577 41.151,0.5 39.827,0.5 Z M39.827,5.8 C38.227,5.8 36.926,4.5 36.926,2.9 C36.926,1.3 38.227,0 39.827,0 C41.426,0 42.727,1.3 42.727,2.9 C42.727,4.5 41.426,5.8 39.827,5.8 L39.827,5.8 Z" id="Fill-32"></path>
                <path d="M58.29,0.5 C56.966,0.5 55.889,1.577 55.889,2.9 C55.889,4.223 56.966,5.3 58.29,5.3 C59.614,5.3 60.69,4.223 60.69,2.9 C60.69,1.577 59.614,0.5 58.29,0.5 Z M58.29,5.8 C56.691,5.8 55.389,4.5 55.389,2.9 C55.389,1.3 56.691,0 58.29,0 C59.889,0 61.19,1.3 61.19,2.9 C61.19,4.5 59.889,5.8 58.29,5.8 L58.29,5.8 Z" id="Fill-33"></path>
                <path d="M76.753,0.5 C75.429,0.5 74.352,1.577 74.352,2.9 C74.352,4.223 75.429,5.3 76.753,5.3 C78.077,5.3 79.154,4.223 79.154,2.9 C79.154,1.577 78.077,0.5 76.753,0.5 Z M76.753,5.8 C75.154,5.8 73.852,4.5 73.852,2.9 C73.852,1.3 75.154,0 76.753,0 C78.352,0 79.654,1.3 79.654,2.9 C79.654,4.5 78.352,5.8 76.753,5.8 L76.753,5.8 Z" id="Fill-34"></path>
                <path d="M95.216,0.5 C93.892,0.5 92.816,1.577 92.816,2.9 C92.816,4.223 93.892,5.3 95.216,5.3 C96.54,5.3 97.617,4.223 97.617,2.9 C97.617,1.577 96.54,0.5 95.216,0.5 Z M95.216,5.8 C93.617,5.8 92.316,4.5 92.316,2.9 C92.316,1.3 93.617,0 95.216,0 C96.815,0 98.117,1.3 98.117,2.9 C98.117,4.5 96.815,5.8 95.216,5.8 L95.216,5.8 Z" id="Fill-35"></path>
                <path d="M113.679,0.5 C112.355,0.5 111.279,1.577 111.279,2.9 C111.279,4.223 112.355,5.3 113.679,5.3 C115.003,5.3 116.079,4.223 116.079,2.9 C116.079,1.577 115.003,0.5 113.679,0.5 Z M113.679,5.8 C112.08,5.8 110.779,4.5 110.779,2.9 C110.779,1.3 112.08,0 113.679,0 C115.278,0 116.579,1.3 116.579,2.9 C116.579,4.5 115.278,5.8 113.679,5.8 L113.679,5.8 Z" id="Fill-36"></path>
                <path d="M2.901,17.851 C1.577,17.851 0.5,18.928 0.5,20.252 C0.5,21.575 1.577,22.652 2.901,22.652 C4.224,22.652 5.301,21.575 5.301,20.252 C5.301,18.928 4.224,17.851 2.901,17.851 Z M2.901,23.152 C1.302,23.152 7.10542736e-15,21.851 7.10542736e-15,20.252 C7.10542736e-15,18.652 1.302,17.351 2.901,17.351 C4.5,17.351 5.801,18.652 5.801,20.252 C5.801,21.851 4.5,23.152 2.901,23.152 L2.901,23.152 Z" id="Fill-37"></path>
                <path d="M21.364,17.851 C20.04,17.851 18.963,18.928 18.963,20.252 C18.963,21.575 20.04,22.652 21.364,22.652 C22.687,22.652 23.764,21.575 23.764,20.252 C23.764,18.928 22.687,17.851 21.364,17.851 Z M21.364,23.152 C19.764,23.152 18.463,21.851 18.463,20.252 C18.463,18.652 19.764,17.351 21.364,17.351 C22.963,17.351 24.264,18.652 24.264,20.252 C24.264,21.851 22.963,23.152 21.364,23.152 L21.364,23.152 Z" id="Fill-38"></path>
                <path d="M39.827,17.851 C38.503,17.851 37.426,18.928 37.426,20.252 C37.426,21.575 38.503,22.652 39.827,22.652 C41.151,22.652 42.227,21.575 42.227,20.252 C42.227,18.928 41.151,17.851 39.827,17.851 Z M39.827,23.152 C38.227,23.152 36.926,21.851 36.926,20.252 C36.926,18.652 38.227,17.351 39.827,17.351 C41.426,17.351 42.727,18.652 42.727,20.252 C42.727,21.851 41.426,23.152 39.827,23.152 L39.827,23.152 Z" id="Fill-39"></path>
                <path d="M58.29,17.851 C56.966,17.851 55.889,18.928 55.889,20.252 C55.889,21.575 56.966,22.652 58.29,22.652 C59.614,22.652 60.69,21.575 60.69,20.252 C60.69,18.928 59.614,17.851 58.29,17.851 Z M58.29,23.152 C56.691,23.152 55.389,21.851 55.389,20.252 C55.389,18.652 56.691,17.351 58.29,17.351 C59.889,17.351 61.19,18.652 61.19,20.252 C61.19,21.851 59.889,23.152 58.29,23.152 L58.29,23.152 Z" id="Fill-40"></path>
                <path d="M76.753,17.851 C75.429,17.851 74.352,18.928 74.352,20.252 C74.352,21.575 75.429,22.652 76.753,22.652 C78.077,22.652 79.154,21.575 79.154,20.252 C79.154,18.928 78.077,17.851 76.753,17.851 Z M76.753,23.152 C75.154,23.152 73.852,21.851 73.852,20.252 C73.852,18.652 75.154,17.351 76.753,17.351 C78.352,17.351 79.654,18.652 79.654,20.252 C79.654,21.851 78.352,23.152 76.753,23.152 L76.753,23.152 Z" id="Fill-41"></path>
                <path d="M95.216,17.851 C93.892,17.851 92.816,18.928 92.816,20.252 C92.816,21.575 93.892,22.652 95.216,22.652 C96.54,22.652 97.617,21.575 97.617,20.252 C97.617,18.928 96.54,17.851 95.216,17.851 Z M95.216,23.152 C93.617,23.152 92.316,21.851 92.316,20.252 C92.316,18.652 93.617,17.351 95.216,17.351 C96.815,17.351 98.117,18.652 98.117,20.252 C98.117,21.851 96.815,23.152 95.216,23.152 L95.216,23.152 Z" id="Fill-42"></path>
                <path d="M113.679,17.851 C112.355,17.851 111.279,18.928 111.279,20.252 C111.279,21.575 112.355,22.652 113.679,22.652 C115.003,22.652 116.079,21.575 116.079,20.252 C116.079,18.928 115.003,17.851 113.679,17.851 Z M113.679,23.152 C112.08,23.152 110.779,21.851 110.779,20.252 C110.779,18.652 112.08,17.351 113.679,17.351 C115.278,17.351 116.579,18.652 116.579,20.252 C116.579,21.851 115.278,23.152 113.679,23.152 L113.679,23.152 Z" id="Fill-43"></path>
                <path d="M2.901,35.203 C1.577,35.203 0.5,36.28 0.5,37.603 C0.5,38.927 1.577,40.004 2.901,40.004 C4.224,40.004 5.301,38.927 5.301,37.603 C5.301,36.28 4.224,35.203 2.901,35.203 Z M2.901,40.504 C1.302,40.504 7.10542736e-15,39.203 7.10542736e-15,37.603 C7.10542736e-15,36.003 1.302,34.703 2.901,34.703 C4.5,34.703 5.801,36.003 5.801,37.603 C5.801,39.203 4.5,40.504 2.901,40.504 L2.901,40.504 Z" id="Fill-44"></path>
                <path d="M21.364,35.203 C20.04,35.203 18.963,36.28 18.963,37.603 C18.963,38.927 20.04,40.004 21.364,40.004 C22.687,40.004 23.764,38.927 23.764,37.603 C23.764,36.28 22.687,35.203 21.364,35.203 Z M21.364,40.504 C19.764,40.504 18.463,39.203 18.463,37.603 C18.463,36.003 19.764,34.703 21.364,34.703 C22.963,34.703 24.264,36.003 24.264,37.603 C24.264,39.203 22.963,40.504 21.364,40.504 L21.364,40.504 Z" id="Fill-45"></path>
                <path d="M39.827,35.203 C38.503,35.203 37.426,36.28 37.426,37.603 C37.426,38.927 38.503,40.004 39.827,40.004 C41.151,40.004 42.227,38.927 42.227,37.603 C42.227,36.28 41.151,35.203 39.827,35.203 Z M39.827,40.504 C38.227,40.504 36.926,39.203 36.926,37.603 C36.926,36.003 38.227,34.703 39.827,34.703 C41.426,34.703 42.727,36.003 42.727,37.603 C42.727,39.203 41.426,40.504 39.827,40.504 L39.827,40.504 Z" id="Fill-46"></path>
                <path d="M58.29,35.203 C56.966,35.203 55.889,36.28 55.889,37.603 C55.889,38.927 56.966,40.004 58.29,40.004 C59.614,40.004 60.69,38.927 60.69,37.603 C60.69,36.28 59.614,35.203 58.29,35.203 Z M58.29,40.504 C56.691,40.504 55.389,39.203 55.389,37.603 C55.389,36.003 56.691,34.703 58.29,34.703 C59.889,34.703 61.19,36.003 61.19,37.603 C61.19,39.203 59.889,40.504 58.29,40.504 L58.29,40.504 Z" id="Fill-47"></path>
                <path d="M76.753,35.203 C75.429,35.203 74.352,36.28 74.352,37.603 C74.352,38.927 75.429,40.004 76.753,40.004 C78.077,40.004 79.154,38.927 79.154,37.603 C79.154,36.28 78.077,35.203 76.753,35.203 Z M76.753,40.504 C75.154,40.504 73.852,39.203 73.852,37.603 C73.852,36.003 75.154,34.703 76.753,34.703 C78.352,34.703 79.654,36.003 79.654,37.603 C79.654,39.203 78.352,40.504 76.753,40.504 L76.753,40.504 Z" id="Fill-48"></path>
                <path d="M95.216,35.203 C93.892,35.203 92.816,36.28 92.816,37.603 C92.816,38.927 93.892,40.004 95.216,40.004 C96.54,40.004 97.617,38.927 97.617,37.603 C97.617,36.28 96.54,35.203 95.216,35.203 Z M95.216,40.504 C93.617,40.504 92.316,39.203 92.316,37.603 C92.316,36.003 93.617,34.703 95.216,34.703 C96.815,34.703 98.117,36.003 98.117,37.603 C98.117,39.203 96.815,40.504 95.216,40.504 L95.216,40.504 Z" id="Fill-49"></path>
                <path d="M113.679,35.203 C112.355,35.203 111.279,36.28 111.279,37.603 C111.279,38.927 112.355,40.004 113.679,40.004 C115.003,40.004 116.079,38.927 116.079,37.603 C116.079,36.28 115.003,35.203 113.679,35.203 Z M113.679,40.504 C112.08,40.504 110.779,39.203 110.779,37.603 C110.779,36.003 112.08,34.703 113.679,34.703 C115.278,34.703 116.579,36.003 116.579,37.603 C116.579,39.203 115.278,40.504 113.679,40.504 L113.679,40.504 Z" id="Fill-50"></path>
                <path d="M2.901,52.555 C1.577,52.555 0.5,53.632 0.5,54.956 C0.5,56.279 1.577,57.356 2.901,57.356 C4.224,57.356 5.301,56.279 5.301,54.956 C5.301,53.632 4.224,52.555 2.901,52.555 Z M2.901,57.856 C1.302,57.856 7.10542736e-15,56.555 7.10542736e-15,54.956 C7.10542736e-15,53.356 1.302,52.055 2.901,52.055 C4.5,52.055 5.801,53.356 5.801,54.956 C5.801,56.555 4.5,57.856 2.901,57.856 L2.901,57.856 Z" id="Fill-51"></path>
                <path d="M21.364,52.555 C20.04,52.555 18.963,53.632 18.963,54.956 C18.963,56.279 20.04,57.356 21.364,57.356 C22.687,57.356 23.764,56.279 23.764,54.956 C23.764,53.632 22.687,52.555 21.364,52.555 Z M21.364,57.856 C19.764,57.856 18.463,56.555 18.463,54.956 C18.463,53.356 19.764,52.055 21.364,52.055 C22.963,52.055 24.264,53.356 24.264,54.956 C24.264,56.555 22.963,57.856 21.364,57.856 L21.364,57.856 Z" id="Fill-52"></path>
                <path d="M39.827,52.555 C38.503,52.555 37.426,53.632 37.426,54.956 C37.426,56.279 38.503,57.356 39.827,57.356 C41.151,57.356 42.227,56.279 42.227,54.956 C42.227,53.632 41.151,52.555 39.827,52.555 Z M39.827,57.856 C38.227,57.856 36.926,56.555 36.926,54.956 C36.926,53.356 38.227,52.055 39.827,52.055 C41.426,52.055 42.727,53.356 42.727,54.956 C42.727,56.555 41.426,57.856 39.827,57.856 L39.827,57.856 Z" id="Fill-53"></path>
                <path d="M58.29,52.555 C56.966,52.555 55.889,53.632 55.889,54.956 C55.889,56.279 56.966,57.356 58.29,57.356 C59.614,57.356 60.69,56.279 60.69,54.956 C60.69,53.632 59.614,52.555 58.29,52.555 Z M58.29,57.856 C56.691,57.856 55.389,56.555 55.389,54.956 C55.389,53.356 56.691,52.055 58.29,52.055 C59.889,52.055 61.19,53.356 61.19,54.956 C61.19,56.555 59.889,57.856 58.29,57.856 L58.29,57.856 Z" id="Fill-54"></path>
                <path d="M76.753,52.555 C75.429,52.555 74.352,53.632 74.352,54.956 C74.352,56.279 75.429,57.356 76.753,57.356 C78.077,57.356 79.154,56.279 79.154,54.956 C79.154,53.632 78.077,52.555 76.753,52.555 Z M76.753,57.856 C75.154,57.856 73.852,56.555 73.852,54.956 C73.852,53.356 75.154,52.055 76.753,52.055 C78.352,52.055 79.654,53.356 79.654,54.956 C79.654,56.555 78.352,57.856 76.753,57.856 L76.753,57.856 Z" id="Fill-55"></path>
                <path d="M95.216,52.555 C93.892,52.555 92.816,53.632 92.816,54.956 C92.816,56.279 93.892,57.356 95.216,57.356 C96.54,57.356 97.617,56.279 97.617,54.956 C97.617,53.632 96.54,52.555 95.216,52.555 Z M95.216,57.856 C93.617,57.856 92.316,56.555 92.316,54.956 C92.316,53.356 93.617,52.055 95.216,52.055 C96.815,52.055 98.117,53.356 98.117,54.956 C98.117,56.555 96.815,57.856 95.216,57.856 L95.216,57.856 Z" id="Fill-56"></path>
                <path d="M113.679,52.555 C112.355,52.555 111.279,53.632 111.279,54.956 C111.279,56.279 112.355,57.356 113.679,57.356 C115.003,57.356 116.079,56.279 116.079,54.956 C116.079,53.632 115.003,52.555 113.679,52.555 Z M113.679,57.856 C112.08,57.856 110.779,56.555 110.779,54.956 C110.779,53.356 112.08,52.055 113.679,52.055 C115.278,52.055 116.579,53.356 116.579,54.956 C116.579,56.555 115.278,57.856 113.679,57.856 L113.679,57.856 Z" id="Fill-57"></path>
            </g>
        </g>
    </g>
</svg>