<?xml version="1.0" encoding="UTF-8"?>
<svg width="81px" height="45px" viewBox="0 0 81 45" version="1.1" xmlns="http://www.w3.org/2000/svg" xmlns:xlink="http://www.w3.org/1999/xlink">
    <title>Group</title>
    <g id="Page-1" stroke="none" stroke-width="1" fill="none" fill-rule="evenodd">
        <g id="3983643" transform="translate(-327.000000, -407.000000)">
            <g id="Group" transform="translate(327.000000, 407.000000)">
                <path d="M78.6051061,4.93749898 C77.3194973,4.9067225 76.2224382,5.88399416 76.1089331,7.17755336 C74.5320572,25.2381398 59.5676833,39.6154916 41.3876457,40.0430479 C22.0401946,40.4975929 6.0814789,25.4180638 4.89295912,6.29261114 C4.81228611,4.99952543 3.7344572,4 2.45166257,4 C1.02722114,4 -0.0857849556,5.22158958 0.0052066931,6.65577363 C1.38086909,28.3834962 19.517756,45.5056367 41.5044339,44.9885918 C62.1684497,44.5027969 79.1810739,28.1694813 80.9901192,7.64582937 C81.115819,6.21590668 80.0267334,4.97158985 78.6051061,4.93749898" id="Fill-9" fill="#E26141"></path>
                <path d="M51,11 C51,4.92490052 46.0755652,0 40,0 C33.9249005,0 29,4.92490052 29,11 C29,17.0750995 33.9249005,22 40,22 C46.0755652,22 51,17.0750995 51,11" id="Fill-12" fill="#F4C3AE"></path>
            </g>
        </g>
    </g>
</svg>