<?xml version="1.0" encoding="UTF-8"?>
<svg width="108px" height="100px" viewBox="0 0 108 100" version="1.1" xmlns="http://www.w3.org/2000/svg" xmlns:xlink="http://www.w3.org/1999/xlink">
    <title>Group 2</title>
    <g id="Page-1" stroke="none" stroke-width="1" fill="none" fill-rule="evenodd">
        <g id="3983643" transform="translate(-79.000000, -139.000000)">
            <g id="Group-2" transform="translate(79.271000, 139.984000)">
                <path d="M15.5,98.398 C6.939,98.398 1.42108547e-14,91.459 1.42108547e-14,82.898 C1.42108547e-14,37.395 32.108,0.376 71.573,0.376 C80.134,0.376 87.073,7.315 87.073,15.875 C87.073,24.436 80.134,31.375 71.573,31.375 C49.201,31.375 31,54.488 31,82.898 C31,91.459 24.06,98.398 15.5,98.398" id="Fill-6" fill="#E26141"></path>
                <path d="M68.746,4.883 L101.407,4.883 C98.587,2.211 94.939,0.75 91.039,0.75 C83.423,0.75 75.934,2.14 68.746,4.883 Z M103.179,5.633 L64.918,5.633 L66.651,4.912 C74.478,1.653 82.683,0 91.039,0 C95.444,0 99.545,1.776 102.584,5.001 L103.179,5.633 L103.179,5.633 Z" id="Fill-106" fill="#121311"></path>
                <path d="M50.747,15.232 L106.139,15.232 C106.079,13.827 105.823,12.44 105.376,11.099 L56.497,11.099 C54.562,12.343 52.632,13.731 50.747,15.232 Z M106.906,15.982 L48.636,15.982 L49.448,15.317 C51.646,13.516 53.912,11.864 56.185,10.408 L56.277,10.349 L105.909,10.349 L105.997,10.599 C106.567,12.214 106.871,13.896 106.9,15.601 L106.906,15.982 L106.906,15.982 Z" id="Fill-107" fill="#121311"></path>
                <path d="M40.111,25.581 L102.625,25.581 C103.662,24.344 104.487,22.957 105.085,21.448 L43.863,21.448 C42.59,22.752 41.331,24.138 40.111,25.581 Z M102.971,26.331 L38.511,26.331 L39.02,25.717 C40.446,23.995 41.933,22.344 43.438,20.811 L43.548,20.698 L106.158,20.698 L105.98,21.199 C105.322,23.044 104.347,24.727 103.083,26.2 L102.971,26.331 L102.971,26.331 Z" id="Fill-108" fill="#121311"></path>
                <path d="M32.669,35.93 L73.637,35.93 C76.921,33.968 80.359,32.586 83.909,31.797 L35.354,31.797 C34.4,33.177 33.498,34.564 32.669,35.93 Z M73.844,36.68 L31.346,36.68 L31.683,36.113 C32.646,34.498 33.711,32.847 34.849,31.208 L34.961,31.047 L89.589,31.047 L89.605,31.797 C84.128,32.043 78.855,33.668 73.934,36.626 L73.844,36.68 L73.844,36.68 Z" id="Fill-109" fill="#121311"></path>
                <path d="M27.326,46.279 L62.051,46.279 C63.202,44.816 64.43,43.43 65.713,42.146 L29.259,42.146 C28.538,43.594 27.902,44.953 27.326,46.279 Z M62.417,47.029 L26.189,47.029 L26.411,46.507 C27.079,44.939 27.825,43.335 28.692,41.603 L28.796,41.396 L67.564,41.396 L66.891,42.042 C65.353,43.518 63.885,45.147 62.529,46.884 L62.417,47.029 L62.417,47.029 Z" id="Fill-110" fill="#121311"></path>
                <path d="M23.594,56.628 L55.745,56.628 C56.422,55.171 57.134,53.784 57.869,52.495 L24.916,52.495 C24.446,53.849 24.003,55.236 23.594,56.628 Z M56.225,57.378 L22.597,57.378 L22.735,56.899 C23.209,55.247 23.735,53.597 24.295,51.996 L24.383,51.745 L59.175,51.745 L58.843,52.31 C57.968,53.797 57.121,55.428 56.325,57.159 L56.225,57.378 L56.225,57.378 Z" id="Fill-111" fill="#121311"></path>
                <path d="M21.2,66.977 L52.065,66.977 C52.417,65.597 52.823,64.211 53.277,62.844 L21.99,62.844 C21.717,64.098 21.458,65.457 21.2,66.977 Z M52.65,67.727 L20.314,67.727 L20.386,67.29 C20.691,65.457 20.997,63.854 21.322,62.388 L21.387,62.094 L54.323,62.094 L54.154,62.59 C53.608,64.19 53.125,65.823 52.721,67.443 L52.65,67.727 L52.65,67.727 Z" id="Fill-112" fill="#121311"></path>
                <path d="M20.019,77.325 L50.326,77.325 C50.442,75.965 50.605,74.578 50.813,73.193 L20.356,73.193 C20.208,74.629 20.097,75.987 20.019,77.325 Z M51.017,78.075 L19.226,78.075 L19.247,77.68 C19.333,76.098 19.463,74.494 19.645,72.778 L19.681,72.443 L51.689,72.443 L51.621,72.876 C51.365,74.504 51.172,76.136 51.045,77.73 L51.017,78.075 L51.017,78.075 Z" id="Fill-113" fill="#121311"></path>
                <path d="M20.628,87.675 L49.302,87.675 C49.749,86.334 50.006,84.946 50.065,83.542 L19.865,83.542 C19.924,84.946 20.181,86.333 20.628,87.675 Z M49.835,88.425 L20.094,88.425 L20.006,88.174 C19.437,86.558 19.133,84.875 19.104,83.173 L19.097,82.792 L50.833,82.792 L50.826,83.173 C50.797,84.877 50.493,86.56 49.923,88.175 L49.835,88.425 L49.835,88.425 Z" id="Fill-114" fill="#121311"></path>
                <path d="M24.596,93.891 C27.416,96.562 31.065,98.023 34.965,98.023 C38.865,98.023 42.514,96.562 45.334,93.891 L24.596,93.891 Z M34.965,98.773 C30.559,98.773 26.459,96.997 23.42,93.773 L22.824,93.141 L47.106,93.141 L46.51,93.773 C43.471,96.997 39.371,98.773 34.965,98.773 L34.965,98.773 Z" id="Fill-115" fill="#121311"></path>
            </g>
        </g>
    </g>
</svg>