<svg width="38px" height="22px" viewBox="0 0 38 22" version="1.1" xmlns="http://www.w3.org/2000/svg" xmlns:xlink="http://www.w3.org/1999/xlink">
    <title>Fill 30</title>
    <g id="Page-1" stroke="none" stroke-width="1" fill="none" fill-rule="evenodd">
        <g id="810" transform="translate(-350.000000, -531.000000)" fill="#FF5555">
            <path d="M355.211,549.909 C355.213,546.197 356.709,542.86 359.141,540.425 C361.576,537.994 364.914,536.498 368.626,536.496999 C372.338,536.498 375.675,537.994 378.111,540.425 C380.542,542.859 382.038,546.197 382.039,549.909 C382.039,551.289 383.159,552.409 384.539,552.409 C385.92,552.409 387.039,551.289 387.039,549.909 C387.038,539.738 378.796,531.498 368.626,531.496999 C363.549,531.495 358.93,533.561 355.606,536.889 C352.277,540.212 350.21,544.831 350.211,549.909 C350.211,551.289 351.331,552.409 352.711,552.409 C354.092,552.409 355.211,551.289 355.211,549.909" id="Fill-30"></path>
        </g>
    </g>
</svg>
