<svg viewBox="0 0 48 43">
    <g stroke="none" stroke-width="1" fill="none" fill-rule="evenodd">
        <g transform="translate(-276.000000, -369.000000)" fill="#00F4B7">
            <path d="M310.232,390.323 L312.397,389.071 L301.895,370.909 C301.447,370.136 300.622,369.66 299.728,369.660998 C298.835,369.660998 298.01,370.139 297.564,370.913 L276.617,407.26 C276.171,408.033 276.172,408.987 276.619,409.76 C277.066,410.533 277.892,411.009 278.785,411.008002 L299.758,410.991 L320.734,410.981 C321.627,410.98 322.453,410.503 322.899,409.73 C323.345,408.956 323.344,408.003 322.897,407.229 L312.397,389.071 L310.232,390.323 L308.068,391.574 L316.4,405.983 L299.755,405.991 L283.112,406.005 L299.734,377.162 L308.068,391.574 L310.232,390.323"></path>
        </g>
    </g>
</svg>
