<svg viewBox="0 0 21 21">
    <g stroke="none" stroke-width="1" fill="none" fill-rule="evenodd">
        <g transform="translate(-39.000000, -107.000000)" fill="#FFA500">
            <g transform="translate(39.134067, 107.274209)">
                <path d="M19.4619329,15.4517914 L4.20993285,1.14679138 C3.20293285,0.202791382 1.62093285,0.252791382 0.675932855,1.25979138 C-0.268067145,2.26679138 -0.217067145,3.84979138 0.789932855,4.79379138 L16.0419329,19.0987914 C17.0489329,20.0427914 18.6309329,19.9927914 19.5749329,18.9857914 C20.5199329,17.9777914 20.4689329,16.3957914 19.4619329,15.4517914"></path>
                <path d="M4.79493285,19.4617914 L19.1019329,4.20979138 C20.0459329,3.20279138 19.9959329,1.62079138 18.9879329,0.676791382 C17.9809329,-0.268208618 16.3989329,-0.217208618 15.4549329,0.789791382 L1.14793285,16.0417914 C0.202932855,17.0487914 0.253932855,18.6307914 1.26093285,19.5747914 C2.26793285,20.5197914 3.84993285,20.4687914 4.79493285,19.4617914"></path>
            </g>
        </g>
    </g>
</svg>
