<svg viewBox="0 0 38 37">
    <g stroke="none" stroke-width="1" fill="none" fill-rule="evenodd">
        <g transform="translate(-170.000000, -184.000000)" fill="#1343E6">
            <g transform="translate(170.492000, 184.006000)">
                <g>
                    <path d="M2.5,2.5 L2.5,5 L31.653,5 L31.653,31.655 L5,31.655 L5,2.5 L2.5,2.5 L2.5,5 L2.5,2.5 L0,2.5 L0,34.155 C0,34.813 0.267,35.457 0.732,35.922 C1.198,36.388 1.842,36.655 2.5,36.655 L34.153,36.655 C34.812,36.655 35.456,36.388 35.921,35.922 C36.387,35.457 36.653,34.813 36.653,34.155 L36.653,2.5 C36.653,1.842 36.387,1.198 35.921,0.733 C35.456,0.267 34.812,0 34.153,0 L2.5,0 C1.842,0 1.198,0.267 0.732,0.733 C0.267,1.198 0,1.842 0,2.5 L2.5,2.5" id="Fill-39"></path>
                </g>
                <path d="M24.817,36.655 L25.817,36.655 L25.817,31.655 L24.817,31.655 L24.817,36.655 Z M31.653,16.36 L36.653,16.36 L36.653,15.36 L31.653,15.36 L31.653,16.36 Z" id="Fill-121"></path>
            </g>
        </g>
    </g>
</svg>
