<svg width="65px" height="18px" viewBox="0 0 65 18">
    <g stroke="none" stroke-width="1" fill="none" fill-rule="evenodd">
        <g transform="translate(-419.000000, -571.000000)" fill="#7A4EF4">
            <g transform="translate(419.872000, 571.191980)">
                <path d="M17.037,12.2560202 C16.541,12.2510202 16.243,12.1620202 15.941,12.0100202 C15.679,11.8740202 15.408,11.6670202 15.107,11.3450202 C14.58,10.7890202 14.008,9.87702016 13.409,8.77802016 C12.492,7.13402016 11.533,5.08502016 9.898,3.26802016 C9.078,2.36502016 8.06,1.52502016 6.808,0.929020155 C5.559,0.329020155 4.096,-0.00297984473 2.5,0 C1.119,0 0,1.11902016 0,2.50002016 C0,3.88102016 1.119,5.00002016 2.5,5.00002016 C3.314,5.00202016 3.917,5.13502016 4.432,5.34302016 C4.881,5.52602016 5.271,5.77202016 5.655,6.10002016 C6.322,6.67002016 6.955,7.51802016 7.571,8.55502016 C8.51,10.1060202 9.348,12.0270202 10.657,13.8020202 C11.319,14.6850202 12.13,15.5490202 13.209,16.2070202 C14.282,16.8680202 15.621,17.2640202 17.037,17.2561391 C18.417,17.2561391 19.537,16.1360202 19.537,14.7560202 C19.537,13.3750202 18.417,12.2560202 17.037,12.2560202"></path>
                <path d="M46.109,12.2560202 C45.614,12.2510202 45.315,12.1620202 45.013,12.0100202 C44.752,11.8740202 44.48,11.6670202 44.179,11.3450202 C43.652,10.7890202 43.081,9.87802016 42.481,8.77902016 C41.565,7.13502016 40.606,5.08702016 38.971,3.27002016 C38.151,2.36702016 37.134,1.52702016 35.882,0.930020155 C34.633,0.331020155 33.17,-0.000979844727 31.574,0.00199999991 C30.193,0.00199999991 29.074,1.12102016 29.074,2.50202016 C29.074,3.88302016 30.193,5.00202016 31.574,5.00202016 C32.388,5.00402016 32.991,5.13702016 33.505,5.34402016 C33.954,5.52802016 34.345,5.77402016 34.728,6.10202016 C35.395,6.67102016 36.028,7.51902016 36.644,8.55602016 C37.583,10.1070202 38.42,12.0280202 39.73,13.8020202 C40.391,14.6850202 41.203,15.5490202 42.282,16.2070202 C43.354,16.8680202 44.693,17.2640202 46.109,17.2561391 C47.49,17.2561391 48.609,16.1360202 48.609,14.7560202 C48.609,13.3750202 47.49,12.2560202 46.109,12.2560202"></path>
                <path d="M17.037,17.2560606 C18.269,17.2600202 19.445,16.9670202 20.435,16.4480202 C21.304,15.9980202 22.023,15.3990202 22.62,14.7580202 C23.666,13.6310202 24.384,12.3820202 25.046,11.1870202 C26.021,9.39102016 26.889,7.69802016 27.874,6.63402016 C28.364,6.09702016 28.856,5.71202016 29.418,5.44302016 C29.982,5.17702016 30.638,5.00502016 31.574,5.00202016 C32.955,5.00202016 34.074,3.88302016 34.074,2.50202016 C34.074,1.12102016 32.955,0.00200820074 31.574,0.00200820074 C30.183,2.01552725e-05 28.895,0.249020155 27.76,0.712020155 C26.766,1.11502016 25.898,1.67502016 25.161,2.30902016 C23.868,3.42402016 22.963,4.73602016 22.209,5.99302016 C21.094,7.88202016 20.256,9.70202016 19.412,10.8080202 C18.996,11.3660202 18.611,11.7270202 18.267,11.9340202 C17.916,12.1390202 17.605,12.2480202 17.037,12.2560202 C15.656,12.2560202 14.537,13.3750202 14.537,14.7560202 C14.537,16.1360202 15.656,17.2560606 17.037,17.2560606"></path>
                <path d="M46.11,17.2560604 C47.342,17.2600202 48.518,16.9660202 49.507,16.4470202 C50.375,15.9970202 51.094,15.3980202 51.692,14.7570202 C52.737,13.6300202 53.455,12.3810202 54.117,11.1870202 C55.092,9.39002016 55.96,7.69802016 56.945,6.63402016 C57.435,6.09702016 57.926,5.71202016 58.487,5.44302016 C59.052,5.17702016 59.707,5.00502016 60.642,5.00202016 L60.643,5.00202016 L60.643,2.50902016 L60.249,4.97002016 C60.432,4.99902016 60.573,5.00202016 60.643,5.00202016 L60.643,2.50902016 L60.249,4.97002016 C61.612,5.18802016 62.894,4.26002016 63.113,2.89702016 C63.331,1.53302016 62.402,0.251020155 61.039,0.0330201553 C60.856,0.00402015527 60.714,0.00200820074 60.643,0.00200820074 L60.642,0.00200820074 C59.252,2.01552725e-05 57.964,0.249020155 56.829,0.712020155 C55.835,1.11502016 54.968,1.67502016 54.231,2.30902016 C52.939,3.42302016 52.034,4.73502016 51.28,5.99202016 C50.165,7.88102016 49.327,9.70102016 48.483,10.8080202 C48.067,11.3650202 47.682,11.7260202 47.338,11.9340202 C46.987,12.1380202 46.676,12.2480202 46.108,12.2560202 C44.727,12.2560202 43.609,13.3760202 43.609,14.7560202 C43.609,16.1370202 44.729,17.2560604 46.11,17.2560604"></path>
            </g>
        </g>
    </g>
</svg>
