<svg width="38px" height="38px" viewBox="0 0 38 38">
    <g stroke="none" stroke-width="1" fill="none" fill-rule="evenodd">
        <g transform="translate(-265.000000, -85.000000)" fill="#FDEE21">
            <path d="M299.995,104.04 L297.495,104.04 C297.494,107.753 295.998,111.09 293.566,113.525 C291.131,115.956 287.794,117.452 284.082,117.454 C280.37,117.452 277.033,115.956 274.597,113.525 C272.166,111.09 270.669,107.752 270.668,104.04 C270.669,100.328 272.166,96.991 274.597,94.556 C277.033,92.125 280.37,90.629 284.082,90.628 C287.794,90.629 291.131,92.125 293.566,94.556 C295.998,96.991 297.494,100.328 297.495,104.04 L302.495,104.04 C302.493,93.87 294.252,85.629 284.082,85.628 C273.912,85.629 265.67,93.87 265.668,104.04 C265.67,114.212 273.912,122.452 284.082,122.454 C294.252,122.452 302.493,114.211 302.495,104.04 L299.995,104.04"></path>
        </g>
    </g>
</svg>
