<?xml version="1.0" encoding="UTF-8"?>
<svg width="134px" height="55px" viewBox="0 0 134 55" version="1.1" xmlns="http://www.w3.org/2000/svg" xmlns:xlink="http://www.w3.org/1999/xlink">
    <title>Group</title>
    <g id="Page-1" stroke="none" stroke-width="1" fill="none" fill-rule="evenodd">
        <g id="Group">
            <g id="freepik" transform="translate(0.000000, 9.000000)" fill="#000000" fill-rule="nonzero">
                <path d="M5.82294806,9 C4.91041099,9.8863125 4.11791696,10.863649 3.49353567,11.9090685 L2.50902535,11.4317474 C2.36481613,10.8407079 1.76460106,10.4317165 1.11631624,10.4997995 C0.419961692,10.5678826 -0.0843765741,11.1816163 0.0117629078,11.8407388 C0.0837361813,12.4998612 0.732283672,12.9771823 1.42863822,12.8861583 C1.57284745,12.8634639 1.69289046,12.8407696 1.81293347,12.7724399 L2.77354026,13.249761 C2.24529847,14.3635102 1.86100322,15.5224014 1.64482072,16.7271746 L3.22980879,17 C3.70998085,14.3862045 5.03097935,11.9998458 7,10.0681138 L5.82294806,9 Z" id="XMLID_3728_"></path>
                <path d="M17.3666332,3.99756143 C16.988284,3.99756143 16.6096588,4.02154549 16.2313096,4.02154549 L16.0798043,2.70059765 C16.4835424,2.38828356 16.7357752,1.88383634 16.6601605,1.33142101 C16.5591571,0.490675648 15.7770698,-0.0857237333 14.8942549,0.0104731781 C14.0111641,0.10667009 13.4056949,0.851218545 13.5066985,1.69170321 C13.5823131,2.22013448 13.9355494,2.6766136 14.4149021,2.86874673 L14.5664074,4.18969456 C12.9771199,4.4297958 11.4631711,4.88627491 10,5.55887118 L10.7315855,7 C12.8002258,6.06331842 15.0457602,5.58285528 17.3669092,5.58285528 C18.4771199,5.58285528 19.5619418,5.70303623 20.6467637,5.91915342 L21,4.35784364 C19.8138987,4.1174817 18.5775715,3.99756143 17.3666332,3.99756143 L17.3666332,3.99756143 Z" id="XMLID_3727_"></path>
                <path d="M30.924292,9.6835882 C31.5953153,9.594022 32.0813072,9.01269115 31.988665,8.36412495 C31.8960228,7.7155588 31.2943546,7.2458823 30.6233314,7.3354485 C29.9986293,7.40244115 29.5356714,7.93935295 29.5356714,8.5206838 L28.6793638,9.2362426 C27.8230561,8.38645585 26.8743594,7.64832345 25.8099865,7 L25,8.2524706 C27.3140302,9.66125735 29.0957475,11.6516176 30.2066946,14 L31.6183493,13.3960955 C31.1093233,12.3001838 30.4613341,11.2938382 29.6976687,10.3547279 L30.5076552,9.66150005 C30.6466185,9.70591905 30.7855819,9.70591905 30.924292,9.6835882 L30.924292,9.6835882 Z" id="XMLID_3726_"></path>
                <path d="M16.4097084,25.0657804 C15.5905113,25.1162122 14.7710505,25.141428 13.9518533,25.141428 C12.096535,25.141428 10.2891878,25.0150747 8.69876448,24.7374263 C7.87956731,24.6110731 6.91566635,24.3838564 6,24.0807181 C8.21694581,28.1969302 12.5061337,31 17.3975949,31 C23.4458954,31 28.5300313,26.7574346 30,21 C28.5542804,21.9847883 26.8191533,22.8182815 24.7951458,23.4999315 C22.3133051,24.3589146 19.4218659,24.8889955 16.4097084,25.0657804 Z" id="XMLID_3725_"></path>
                <path d="M17.500128,7 C10.6180034,7 5,12.6824027 5,19.6757641 C5,20.5742479 5.09371447,21.4969794 5.28088737,22.3712154 C6.66202359,23.3912015 10.8520335,24.265174 16.2828641,23.9254422 C22.2050555,23.5611991 27.1678257,21.8857337 30,19.311521 C30,18.8987825 29.9531428,18.4857804 29.9062855,18.0730419 C29.1107367,11.7596711 23.7969212,7 17.500128,7 Z M13.0525313,20.890259 C10.945748,20.890259 9.2604238,19.1175392 9.2604238,16.9563285 C9.2604238,14.7708701 10.9693047,13.022398 13.0525313,13.022398 C15.1593146,13.022398 16.8446388,14.7951178 16.8446388,16.9563285 C16.8681955,19.1175392 15.1593146,20.890259 13.0525313,20.890259 Z M22.7903868,18.9475415 C21.2453783,18.9475415 20.0048137,17.6363192 20.0048137,16.0578447 C20.0048137,14.4551225 21.2689349,13.1681479 22.7903868,13.1681479 C24.3353954,13.1681479 25.5759599,14.4793703 25.5759599,16.0578447 C25.5995166,17.6605669 24.3353954,18.9475415 22.7903868,18.9475415 Z" id="XMLID_3702_"></path>
                <path d="M50.9753209,11.3051666 C50.3306816,11.0634095 49.2149702,10.6520811 47.9753209,10.7972404 C46.785301,10.9423997 46.1406617,11.5227742 46.1406617,12.925543 L46.1406617,14.763527 L51,14.763527 L51,18.4153456 L46.1406617,18.4153456 L46.1406617,30 L41.9256916,30 L41.9256916,18.4153456 L39,18.4153456 L39,14.7876765 L41.9256916,14.7876765 L41.9256916,12.901131 C41.9256916,9.32176078 43.8842885,7 47.5289278,7 C48.9174652,7 50.0578557,7.26590658 51,7.65308543 L50.9753209,11.3051666 Z" id="XMLID_3699_"></path>
                <path d="M60.7851313,17.8488895 C60.382303,17.7794404 60.0048062,17.7560391 59.6273092,17.7560391 C57.6387732,17.7560391 56.2793993,18.8687345 56.2793993,21.0480776 L56.2793993,29 L52,29 L52,14.3942998 L56.1282351,14.3942998 L56.1282351,15.9938938 C57.135169,14.6260484 58.6454317,14 60.5835794,14 C61.4897374,14 62.4462831,14.2548984 63,14.6954976 L60.7851313,17.8488895 Z" id="XMLID_3697_"></path>
                <path d="M77,21.9636644 C77,22.4222924 76.9761104,23.0014052 76.9280691,23.3392864 L66.2000943,23.3392864 C66.6322062,25.5352527 68.167962,26.5007026 70.0880498,26.5007026 C71.4080123,26.5007026 72.8240573,25.9697838 73.9040745,25.0527897 L76.2801639,27.683287 C74.5522421,29.2760436 72.3680562,30 69.8481045,30 C65.2161607,30 62,26.8385839 62,22.0364792 C62,17.2582095 65.1200777,14.0001337 69.6559384,14.0001337 C74.0001575,13.9760466 76.9761104,17.2097536 77,21.9636644 Z M66.2239839,20.5398485 L72.9198784,20.5398485 C72.5358082,18.5851137 71.3838602,17.4991791 69.6317863,17.4991791 C67.6880712,17.4991791 66.5841645,18.6576665 66.2239839,20.5398485 Z" id="XMLID_3694_"></path>
                <path d="M93,21.9636644 C93,22.4222924 92.9761104,23.0014052 92.9280691,23.3392864 L82.2000943,23.3392864 C82.6322062,25.5352527 84.167962,26.5007026 86.0880498,26.5007026 C87.4080123,26.5007026 88.8240573,25.9697838 89.9040745,25.0527897 L92.2801639,27.683287 C90.5522421,29.2760436 88.3680562,30 85.8481045,30 C81.2161607,30 78,26.8385839 78,22.0364792 C78,17.2582095 81.1200777,14.0001337 85.6559384,14.0001337 C89.999895,13.9760466 92.9761104,17.2097536 93,21.9636644 L93,21.9636644 Z M82.2239839,20.5398485 L88.9198784,20.5398485 C88.5358082,18.5851137 87.3838602,17.4991791 85.6317863,17.4991791 C83.7119604,17.4991791 82.583902,18.6576665 82.2239839,20.5398485 L82.2239839,20.5398485 Z" id="XMLID_3682_"></path>
                <path d="M110,22.0135321 C110,26.6026855 106.819441,30.0751878 102.594894,30.0751878 C100.531089,30.0751878 99.0985627,29.2740033 98.1031771,28.0840862 L98.1031771,36 L94,36 L94,14.3891018 L98.0304085,14.3891018 L98.0304085,16.0887199 C99.0257941,14.85031 100.482489,14.0001218 102.594894,14.0001218 C106.819441,13.9763864 110,17.4243788 110,22.0135321 Z M97.8846064,22.0135321 C97.8846064,24.4173492 99.4871029,26.2384627 101.817814,26.2384627 C104.245726,26.2384627 105.775454,24.3688565 105.775454,22.0135321 C105.775454,19.6582078 104.270159,17.7886016 101.817814,17.7886016 C99.4871029,17.8128479 97.8846064,19.609715 97.8846064,22.0135321 Z" id="XMLID_3679_"></path>
                <path d="M117,9.65297239 C117,11.1375592 115.916978,12.281642 114.488406,12.281642 C113.08277,12.281642 112,11.1378233 112,9.65297239 C112,8.16812149 113.083022,7 114.488406,7 C115.894042,7 117,8.16838561 117,9.65297239 Z M116.469956,30 L112.552727,30 L112.552727,14.6667547 L116.469956,14.6667547 L116.469956,30 Z" id="XMLID_3648_"></path>
                <polygon id="XMLID_3583_" points="123.174661 20.0479487 128.927166 14.5437162 133.97584 14.5437162 126.548586 21.8172615 134 30 128.927166 30 123.126341 23.7337948 123.126341 30 119 30 119 7 123.126341 7 123.126341 20.0479487"></polygon>
            </g>
            <rect id="Rectangle" fill="#D8D8D8" opacity="0" x="43" y="0" width="50" height="55"></rect>
        </g>
    </g>
</svg>