<?xml version="1.0" encoding="UTF-8"?>
<svg width="100px" height="37px" viewBox="0 0 100 37" version="1.1" xmlns="http://www.w3.org/2000/svg" xmlns:xlink="http://www.w3.org/1999/xlink">
    <title>Group</title>
    <g id="Page-1" stroke="none" stroke-width="1" fill="none" fill-rule="evenodd">
        <g id="Group">
            <g id="vecteezy" transform="translate(0.000000, 7.000000)" fill="#000000" fill-rule="nonzero">
                <path d="M15.6459925,11.2015356 C15.6718352,10.6330712 15.6718352,10.1033708 15.6718352,9.57363296 C15.6718352,8.38501873 15.3617603,7.19636704 14.573633,7.19636704 C13.9793258,7.19636704 13.6692509,7.70026217 13.6692509,8.5788015 C13.6692509,10.0129213 14.651161,10.8914607 15.6459925,11.2015356 Z M12.0801124,20.1808614 C8.42378277,20.1808614 8.07494382,16.8992135 8.07494382,13.5141948 C8.07494382,10.2583895 7.8294382,9.53486891 6.69250936,9.53486891 L5.03876404,9.53486891 L5.03876404,7.39018727 L6.69250936,7.39018727 C9.85786517,7.39018727 10.2583895,10.0129213 10.2583895,13.5271161 C10.2583895,16.8733708 10.5038577,17.9974157 12.0413483,17.9974157 C13.6692509,17.9974157 14.7932584,15.3746816 15.3229963,13.2428839 C12.9586517,12.6744195 11.4857678,10.9819101 11.4857678,8.54003745 C11.4857678,6.60205993 12.7390262,5 14.612397,5 C16.679588,5 17.8294382,6.97674157 17.8294382,9.57363296 C17.8294382,10.2325468 17.8035955,10.8526966 17.7648315,11.3307491 L20.2067041,11.3307491 L20.2067041,13.4883521 L17.41603,13.4883521 C16.77,16.77 14.961236,20.1808614 12.0801124,20.1808614 Z M12.0155056,24.0955805 C20.4650936,24.0955805 24.0310112,18.746779 24.0310112,12.1446816 C24.0310112,3.03617603 19.8966292,0 14.4573408,0 C7.44187266,0 0,5.76228464 0,12.1446816 C0,18.746779 5.387603,24.0955805 12.0155056,24.0955805 Z" id="Shape"></path>
                <path d="M33.9017603,13.1524345 C34.0309738,13.5400375 34.1859925,14.0568539 34.2505993,14.4961049 L34.3022846,14.4961049 C34.3926966,14.0568539 34.5348315,13.5529588 34.6511236,13.1653558 L36.7828839,6.18861423 L39.3411985,6.18861423 L35.607191,17.0025843 L32.8940075,17.0025843 L29.1343071,6.20153558 L31.6924719,6.20153558 L33.9017603,13.1524345 Z" id="Path"></path>
                <path d="M46.3179775,14.3152434 L47.4677903,15.6459925 C46.8992509,16.3953558 45.6719101,17.118839 43.8629213,17.118839 C41.0464419,17.118839 39.3539326,15.348839 39.3539326,12.8165169 C39.3539326,10.3100749 41.0464419,8.51419476 43.6303371,8.51419476 C46.0853933,8.51419476 47.4805243,10.1808614 47.4805243,12.4676779 C47.4805243,12.9974157 47.4029963,13.359176 47.4029963,13.359176 L41.7569288,13.359176 C41.9636704,14.4831835 42.7520599,15.2583895 44.1344569,15.2583895 C45.3359551,15.2713109 45.9561798,14.7028464 46.3179775,14.3152434 Z M41.7700375,12.1059551 L45.271161,12.1059551 C45.258427,11.1111236 44.6509363,10.3617603 43.6434457,10.3617603 C42.6745318,10.3746816 41.9509363,10.9948315 41.7700375,12.1059551 Z" id="Shape"></path>
                <path d="M56.5116105,11.4728464 C56.5116105,11.8475281 56.4599251,12.0929963 56.4599251,12.0929963 L54.3153558,12.2222097 C54.3280899,12.1834457 54.3539326,12.028427 54.3539326,11.8475281 C54.3539326,11.1369288 53.888764,10.516779 52.9715356,10.516779 C51.8734082,10.516779 51.12397,11.4211985 51.12397,12.7777528 C51.12397,14.1989513 51.8475655,15.1420974 53.2947566,15.1420974 C54.6123596,15.1420974 55.3359551,14.4702622 55.5812734,14.1601873 L56.7700375,15.6847566 C56.2404494,16.3565918 55.0131086,17.118839 53.1265918,17.118839 C50.3228464,17.118839 48.6561798,15.348839 48.6561798,12.8552809 C48.6561798,10.2842322 50.4262172,8.5271161 53.0104869,8.5271161 C55.2194757,8.5271161 56.5116105,9.83202247 56.5116105,11.4728464 Z" id="Path"></path>
                <path d="M64.3797753,16.5116105 C64.3797753,16.5116105 63.4883895,17.118839 61.8734082,17.118839 C59.676779,17.118839 58.5142322,15.9302247 58.5142322,13.5529588 L58.5142322,10.478015 L57.235206,10.478015 L57.235206,8.63048689 L58.617603,8.63048689 L58.617603,6.20153558 L60.9561798,6.20153558 L60.9561798,8.63048689 L63.9018727,8.63048689 L63.9018727,10.478015 L60.9561798,10.478015 L60.9561798,13.4366667 C60.9561798,14.5607116 61.382397,15.0516854 62.3254682,15.0516854 C63.1782772,15.0516854 63.6692884,14.612397 63.6692884,14.612397 L64.3797753,16.5116105 Z" id="Path"></path>
                <path d="M71.5891386,14.3152434 L72.7389513,15.6459925 C72.170412,16.3953558 70.9430712,17.118839 69.1344569,17.118839 C66.3048689,17.118839 64.6250936,15.348839 64.6250936,12.8165169 C64.6250936,10.3100749 66.317603,8.51419476 68.9018727,8.51419476 C71.3565543,8.51419476 72.7516854,10.1808614 72.7516854,12.4676779 C72.7516854,12.9974157 72.6745318,13.359176 72.6745318,13.359176 L67.0284644,13.359176 C67.235206,14.4831835 68.023221,15.2583895 69.405618,15.2583895 C70.6071161,15.2713109 71.2400749,14.7028464 71.5891386,14.3152434 Z M67.0411985,12.1059551 L70.5426966,12.1059551 C70.529588,11.1111236 69.9224719,10.3617603 68.9146067,10.3617603 C67.9456929,10.3746816 67.2220974,10.9948315 67.0411985,12.1059551 Z" id="Shape"></path>
                <path d="M80.8913858,14.3152434 L82.0411985,15.6459925 C81.4726592,16.3953558 80.2453184,17.118839 78.4367041,17.118839 C75.6202247,17.118839 73.9277154,15.348839 73.9277154,12.8165169 C73.9277154,10.3100749 75.6202247,8.51419476 78.2041199,8.51419476 C80.6588015,8.51419476 82.0543071,10.1808614 82.0543071,12.4676779 C82.0543071,12.9974157 81.976779,13.359176 81.976779,13.359176 L76.3307116,13.359176 C76.5374532,14.4831835 77.3254682,15.2583895 78.7078652,15.2583895 C79.9093633,15.2713109 80.5426966,14.7028464 80.8913858,14.3152434 Z M76.3438202,12.1059551 L79.8449438,12.1059551 C79.8318352,11.1111236 79.2247191,10.3617603 78.2168539,10.3617603 C77.2479401,10.3746816 76.5243446,10.9948315 76.3438202,12.1059551 Z" id="Shape"></path>
                <path d="M83.0617978,15.2583895 L87.1318352,10.9302247 C87.3385768,10.6976779 87.428839,10.6072285 87.571161,10.4909363 L87.5580524,10.4392509 C87.3644195,10.478015 87.0411985,10.4909363 86.57603,10.4909363 L83.1910112,10.4909363 L83.1910112,8.63048689 L90.3101124,8.63048689 L90.3101124,10.387603 L86.4340824,14.5994757 C86.1498127,14.9224719 86.0205993,15.038764 85.9044944,15.1679401 L85.9430712,15.2196255 C86.0981273,15.1808614 86.3692884,15.1679401 86.8602996,15.1679401 L90.4262172,15.1679401 L90.4262172,17.0155056 L83.0617978,17.0155056 L83.0617978,15.2583895 Z" id="Path"></path>
                <path d="M93.0104869,20.7364045 C92.0543071,20.7364045 91.447191,20.4004869 91.447191,20.4004869 L91.7958801,18.5400375 C91.7958801,18.5400375 92.2610487,18.7855056 92.8037453,18.7855056 C93.5659176,18.7855056 93.9794007,18.410824 94.2636704,17.7906742 L94.4187266,17.3772659 L90.9561798,8.63048689 L93.5659176,8.63048689 L95.2842697,13.6046442 C95.4262172,14.0439326 95.4779026,14.2635581 95.5554307,14.7028464 L95.594382,14.7028464 C95.6846442,14.2377154 95.7363296,14.0051685 95.8655431,13.6046442 L97.5453184,8.63048689 L100,8.63048689 L96.4340824,18.1265918 C95.8786517,19.5865543 94.8449438,20.7364045 93.0104869,20.7364045 Z" id="Path"></path>
            </g>
            <rect id="Rectangle" fill="#D8D8D8" opacity="0" x="25" y="0" width="50" height="37"></rect>
        </g>
    </g>
</svg>