<?xml version="1.0" encoding="UTF-8"?>
<svg width="1153px" height="1389px" viewBox="0 0 1153 1389" version="1.1" xmlns="http://www.w3.org/2000/svg" xmlns:xlink="http://www.w3.org/1999/xlink">
    <title>Group</title>
    <g id="Page-1" stroke="none" stroke-width="1" fill="none" fill-rule="evenodd">
        <g id="7649" transform="translate(-526.000000, -350.000000)">
            <g id="Group" transform="translate(526.749000, 350.587000)">
                <path d="M706.991,877.243 C728.241,845.353 720.801,806.583 701.021,784.243 C691.061,753.713 667.611,727.123 633.111,719.333 C619.221,667.203 541.341,644.981 473.761,676.583 C431.696,654.283 374.535,653.103 331.837,677.363 C321.589,683.183 306.3,692.663 303.246,693.303 C299.932,694.203 206.94,699.663 184.764,798.983 C173.743,848.333 183.355,903.863 213.377,921.623 C207.307,954.143 224.739,1012.653 264.867,1026.993 C290.998,1036.333 319.403,1017.803 344.951,1020.733 C429.942,1030.673 629.801,953.663 639.971,941.963 C662.731,915.783 690.061,909.583 706.991,877.243" id="Fill-302" fill="#0B0754"></path>
                <path d="M223.884,1217.843 C221.696,1247.503 212.764,1286.023 245.011,1333.493 C276.109,1379.273 331.918,1384.823 331.918,1384.823 L366.959,1196.713 L344.358,1187.403 L231.668,1187.403 C231.668,1187.403 224.462,1210.013 223.884,1217.843" id="Fill-303" fill="#4951EC"></path>
                <path d="M688.591,1321.223 C688.591,1334.013 683.391,1363.443 688.591,1368.643 C693.791,1373.843 834.831,1369.523 834.831,1369.523 C834.831,1369.523 832.611,1350.693 770.341,1326.783 C708.071,1302.873 727.351,1241.163 727.351,1241.163 L672.511,1256.013 C672.511,1256.013 688.591,1308.433 688.591,1321.223" id="Fill-304" fill="#FB9390"></path>
                <path d="M834.831,1369.523 C834.831,1369.523 832.791,1352.273 778.001,1329.823 C741.661,1341.643 706.621,1339.943 687.481,1337.543 C686.311,1350.563 685.071,1365.133 688.591,1368.643 C693.791,1373.843 834.831,1369.523 834.831,1369.523" id="Fill-305" fill="#7C9AF2"></path>
                <path d="M738.251,1276.503 C738.251,1276.503 755.481,1307.643 755.481,1320.433 C755.481,1333.213 750.281,1362.643 755.481,1367.843 C759.851,1372.213 883.191,1369.253 922.891,1368.183 C927.291,1368.073 929.011,1362.423 925.421,1359.873 C914.911,1352.393 894.381,1340.253 857.231,1325.993 C810.361,1307.993 784.281,1266.373 774.241,1246.893 C771.421,1241.413 764.551,1239.493 759.321,1242.763 L738.051,1256.053 C733.211,1259.083 731.671,1265.413 734.581,1270.323 L738.251,1276.503" id="Fill-306" fill="#FB9390"></path>
                <path d="M922.891,1368.183 C927.291,1368.073 929.011,1362.423 925.421,1359.873 C915.791,1353.023 897.761,1342.263 866.261,1329.543 C833.741,1346.813 781.731,1339.573 754.621,1334.013 C753.401,1347.653 751.721,1364.083 755.481,1367.843 C759.851,1372.213 883.191,1369.253 922.891,1368.183" id="Fill-307" fill="#92B5F9"></path>
                <path d="M568.601,996.563 C568.601,996.563 589.171,932.063 616.971,932.063 C644.771,932.063 676.771,948.803 689.001,1001.813 C696.761,1035.413 745.771,1275.703 745.771,1275.703 L660.901,1294.293 L581.191,1069.073 L579.851,1079.963 L568.601,996.563" id="Fill-308" fill="#4951EC"></path>
                <path d="M445.168,836.433 C445.168,836.433 419.622,821.493 376.596,853.113 C329.146,887.993 214.802,1189.863 214.802,1189.863 L362.881,1187.403 C362.881,1187.403 526.711,996.153 526.711,970.783 C526.711,945.413 506.331,889.813 506.331,889.813 L445.168,836.433" id="Fill-309" fill="#FA7167"></path>
                <path d="M704.101,986.083 C704.101,986.083 731.041,1008.953 731.041,1031.833 C731.041,1054.713 706.981,1058.443 689.011,1063.183 C671.051,1067.933 652.071,1071.323 652.071,1067.253 C652.071,1063.183 683.251,1052.003 683.251,1052.003 C683.251,1052.003 654.781,1063.863 645.631,1057.763 C636.481,1051.663 675.461,1036.413 675.461,1036.413 C675.461,1036.413 643.431,1050.133 638.511,1045.223 C633.601,1040.313 671.051,1020.143 671.051,1020.143 C671.051,1020.143 650.721,1021.833 650.721,1017.773 C650.721,1013.703 650.721,1013.703 650.721,1013.703 C650.721,1013.703 688.341,978.113 704.101,986.083" id="Fill-310" fill="#FB9390"></path>
                <path d="M93.476,833.373 L96.183,978.533 C96.204,979.693 94.66,980.643 92.734,980.66308 C90.808,980.673 89.23,979.743 89.207,978.583 L89.207,978.533 L91.914,833.373 C91.919,833.113 92.272,832.903 92.704,832.912657 C93.129,832.912657 93.471,833.123 93.476,833.373" id="Fill-311" fill="#BED1F9"></path>
                <path d="M619.951,513.923 L622.651,674.203 C622.671,675.363 621.131,676.313 619.201,676.32308 C617.271,676.333 615.701,675.403 615.681,674.243 L615.681,674.203 L618.381,513.923 C618.391,513.663 618.741,513.454 619.171,513.456968 C619.601,513.459 619.941,513.667 619.951,513.923" id="Fill-312" fill="#BED1F9"></path>
                <path d="M312.217,504.639 L314.924,639.163 C314.947,640.323 313.405,641.276 311.479,641.290135 C309.553,641.303 307.972,640.373 307.949,639.213 L307.949,639.163 L310.655,504.639 C310.661,504.379 311.014,504.171 311.446,504.173968 C311.871,504.177 312.212,504.384 312.217,504.639" id="Fill-313" fill="#BED1F9"></path>
                <path d="M308.729,329.572 L311.436,464.096 C311.459,465.257 309.917,466.209 307.992,466.224135 C306.064,466.237 304.485,465.308 304.462,464.147 L304.462,464.096 L307.167,329.572 C307.172,329.312 307.527,329.105 307.958,329.106986 C308.382,329.111 308.724,329.318 308.729,329.572" id="Fill-314" fill="#BED1F9"></path>
                <path d="M93.476,311.924 L96.183,446.448 C96.206,447.608 94.663,448.56 92.737,448.575156 C90.812,448.589 89.23,447.66 89.207,446.498 L89.207,446.448 L91.914,311.924 C91.919,311.664 92.273,311.455 92.704,311.458944 C93.129,311.462 93.471,311.669 93.476,311.924" id="Fill-315" fill="#BED1F9"></path>
                <path d="M157.972,932.913 L160.522,1165.453 C160.534,1166.553 159.073,1167.443 157.259,1167.453 C155.444,1167.453 153.963,1166.583 153.95,1165.483 L153.95,1165.453 L156.501,932.913 C156.503,932.663 156.834,932.473 157.241,932.473 C157.645,932.473 157.969,932.673 157.972,932.913" id="Fill-316" fill="#BED1F9"></path>
                <path d="M154.529,726.543 L157.236,850.533 C157.262,851.693 155.72,852.643 153.794,852.653317 C151.868,852.673 150.287,851.743 150.262,850.583 L150.262,850.533 L152.968,726.543 C152.974,726.283 153.328,726.073 153.758,726.073 C154.183,726.083 154.524,726.283 154.529,726.543" id="Fill-317" fill="#BED1F9"></path>
                <path d="M731.821,678.413 L734.531,774.623 C734.561,775.783 733.031,776.743 731.101,776.76332 C729.171,776.783 727.591,775.863 727.551,774.703 L727.551,774.623 L730.261,678.413 C730.271,678.153 730.621,677.943 731.051,677.943 C731.481,677.953 731.811,678.153 731.821,678.413" id="Fill-318" fill="#BED1F9"></path>
                <path d="M619.951,380.48 L622.651,476.698 C622.681,477.859 621.151,478.814 619.221,478.835288 C617.301,478.854 615.711,477.93 615.681,476.769 L615.681,476.698 L618.381,380.48 C618.391,380.22 618.751,380.012 619.181,380.016912 C619.601,380.021 619.941,380.227 619.951,380.48" id="Fill-319" fill="#BED1F9"></path>
                <path d="M786.131,410.038 L788.841,506.256 C788.871,507.417 787.341,508.374 785.411,508.393319 C783.491,508.413 781.901,507.489 781.871,506.328 L781.871,506.256 L784.571,410.038 C784.581,409.779 784.931,409.571 785.371,409.575912 C785.791,409.58 786.131,409.786 786.131,410.038" id="Fill-320" fill="#BED1F9"></path>
                <path d="M456.385,501.34 L459.076,613.846 C459.104,615 457.575,615.949 455.659,615.966205 C453.743,615.982 452.168,615.061 452.141,613.906 L452.141,613.846 L454.832,501.34 C454.838,501.081 455.19,500.874 455.62,500.877943 C456.041,500.882 456.379,501.088 456.385,501.34" id="Fill-321" fill="#BED1F9"></path>
                <path d="M385.139,340.583 L387.83,453.088 C387.858,454.243 386.328,455.192 384.412,455.209231 C382.496,455.226 380.921,454.304 380.894,453.149 L380.894,453.088 L383.585,340.583 C383.592,340.325 383.944,340.118 384.373,340.121943 C384.794,340.126 385.132,340.331 385.139,340.583" id="Fill-322" fill="#BED1F9"></path>
                <path d="M379.167,491.789 L381.874,648.038 C381.893,649.199 380.349,650.153 378.422,650.16308 C376.496,650.173 374.918,649.242 374.899,648.081 L374.899,648.038 L377.606,491.789 C377.61,491.53 377.963,491.321 378.395,491.323968 C378.82,491.327 379.163,491.535 379.167,491.789" id="Fill-323" fill="#BED1F9"></path>
                <path d="M533.611,549.014 L536.321,644.224 C536.351,645.384 534.821,646.341 532.891,646.362288 C530.961,646.381 529.381,645.456 529.341,644.295 L529.341,644.224 L532.051,549.014 C532.061,548.754 532.411,548.546 532.841,548.550912 C533.271,548.556 533.601,548.762 533.611,549.014" id="Fill-324" fill="#BED1F9"></path>
                <path d="M247.829,546.852 L250.521,646.396 C250.552,647.551 249.025,648.501 247.108,648.520289 C245.193,648.539 243.615,647.62 243.585,646.465 L243.585,646.396 L246.276,546.852 C246.284,546.594 246.637,546.388 247.065,546.391943 C247.485,546.396 247.822,546.601 247.829,546.852" id="Fill-325" fill="#BED1F9"></path>
                <path d="M731.821,420.975 L734.511,520.519 C734.541,521.674 733.011,522.625 731.101,522.64426 C729.181,522.662 727.601,521.742 727.571,520.587 L727.571,520.519 L730.261,420.975 C730.271,420.716 730.621,420.51 731.051,420.514911 C731.471,420.519 731.811,420.724 731.821,420.975" id="Fill-326" fill="#BED1F9"></path>
                <path d="M238.794,269.108 L241.486,368.652 C241.517,369.807 239.99,370.758 238.073,370.776289 C236.158,370.795 234.58,369.874 234.549,368.721 L234.549,368.652 L237.241,269.108 C237.247,268.85 237.601,268.643 238.03,268.646943 C238.45,268.651 238.786,268.857 238.794,269.108" id="Fill-327" fill="#BED1F9"></path>
                <path d="M835.601,1031.633 L838.291,1213.933 C838.311,1215.083 836.771,1216.033 834.861,1216.04308 C832.941,1216.053 831.371,1215.123 831.361,1213.963 L831.361,1213.933 L834.051,1031.633 C834.051,1031.373 834.401,1031.173 834.831,1031.173 C835.261,1031.173 835.601,1031.383 835.601,1031.633" id="Fill-328" fill="#BED1F9"></path>
                <path d="M731.821,571.988 L734.531,646.416 C734.571,647.577 733.041,648.538 731.121,648.563498 C729.191,648.588 727.601,647.668 727.551,646.508 L727.551,646.416 L730.261,571.988 C730.271,571.728 730.631,571.522 731.061,571.527872 C731.481,571.534 731.811,571.739 731.821,571.988" id="Fill-329" fill="#BED1F9"></path>
                <path d="M181.129,500.871 L183.846,656.203 C183.867,657.373 182.315,658.323 180.381,658.343079 C178.447,658.353 176.863,657.413 176.842,656.253 L176.842,656.203 L179.561,500.871 C179.565,500.61 179.92,500.401 180.353,500.403968 C180.78,500.406 181.124,500.615 181.129,500.871" id="Fill-330" fill="#BED1F9"></path>
                <path d="M164.809,301.516 L167.526,456.852 C167.547,458.017 165.995,458.973 164.062,458.984134 C162.127,458.997 160.543,458.062 160.522,456.897 L160.522,456.852 L163.241,301.516 C163.245,301.255 163.599,301.046 164.033,301.047986 C164.46,301.052 164.804,301.261 164.809,301.516" id="Fill-331" fill="#BED1F9"></path>
                <path d="M789.621,579.84 L792.331048,1033.463 C792.341,1034.623 790.781,1035.573 788.851,1035.573 C786.931,1035.573 785.361,1034.643 785.351,1033.473 L785.351,1033.463 L788.061,579.84 C788.061,579.58 788.411,579.371 788.841,579.371 C789.271,579.371 789.621,579.582 789.621,579.84" id="Fill-332" fill="#BED1F9"></path>
                <path d="M839.071,625.229 L841.781,752.363 C841.811,753.523 840.271,754.473 838.341,754.49308 C836.411,754.503 834.831,753.573 834.811,752.413 L834.811,752.363 L837.511,625.229 C837.521,624.969 837.871,624.761 838.301,624.764943 C838.731,624.768 839.071,624.975 839.071,625.229" id="Fill-333" fill="#BED1F9"></path>
                <path d="M100.427,1110.613 L103.12,1319.823 C103.134,1320.983 101.593,1321.923 99.678,1321.93308 C97.763,1321.943 96.197,1321.013 96.183,1319.863 L96.183,1319.823 L98.874,1110.613 C98.877,1110.353 99.229,1110.143 99.656,1110.143 C100.082,1110.153 100.424,1110.353 100.427,1110.613" id="Fill-334" fill="#BED1F9"></path>
                <path d="M89.989,510.03 L92.694,737.853 C92.709,739.013 91.159,739.953 89.232,739.96308 C87.306,739.973 85.734,739.043 85.72,737.883 L85.72,737.853 L88.427,510.03 C88.43,509.771 88.782,509.563986 89.213,509.563986 C89.641,509.563986 89.985,509.774 89.989,510.03" id="Fill-335" fill="#BED1F9"></path>
                <path d="M842.561,864.683 L845.271,899.763 C845.361,900.923 843.871,901.913 841.941,901.963 C840.021,902.013 838.381,901.123 838.291,899.963 L838.291,899.763 L841.001,864.683 C841.021,864.423 841.391,864.223 841.821,864.232641 C842.221,864.253 842.541,864.443 842.561,864.683" id="Fill-336" fill="#BED1F9"></path>
                <path d="M530.121,450.485 L532.831,485.563 C532.921,486.725 531.431,487.708 529.501,487.763 C527.581,487.816 525.951,486.92 525.861,485.759 L525.861,485.563 L528.561,450.485 C528.581,450.226 528.951,450.025 529.381,450.037 C529.781,450.048 530.101,450.246 530.121,450.485" id="Fill-337" fill="#BED1F9"></path>
                <path d="M226.912,46.892 C264.926,46.892 296.718,73.195 305.301,108.57 C322.732,80.074 354.046,60.993 389.897,60.993 C444.688,60.993 489.101,105.409 489.101,160.2 C489.101,163.128 488.911,166.01 488.671,168.873 C491.301,168.614 493.971,168.469 496.681,168.469 C541.281,168.469 577.431,204.622 577.431,249.219 C577.431,293.816 541.281,329.97 496.681,329.97 L131.368,329.97 C86.771,329.97 50.618,293.816 50.618,249.219 C50.618,204.622 86.771,168.469 131.368,168.469 C141.828,168.469 151.79,170.523 160.963,174.142 C151.67,160.988 146.161,144.972 146.161,127.642 C146.161,83.045 182.314,46.892 226.912,46.892" id="Fill-338" fill="#4951EC"></path>
                <path d="M499.001,127.109 C537.011,127.109 568.811,153.412 577.391,188.787 C594.821,160.29 626.131,141.209 661.981,141.209 C716.781,141.209 761.191,185.626 761.191,240.417 C761.191,243.346 761.001,246.227 760.751,249.091 C763.391,248.83 766.061,248.685 768.771,248.685 C813.371,248.685 849.521,284.839 849.521,329.436 C849.521,374.033 813.371,410.185 768.771,410.185 L403.457,410.185 C358.86,410.185 322.707,374.033 322.707,329.436 C322.707,284.839 358.86,248.685 403.457,248.685 C413.917,248.685 423.88,250.739 433.052,254.359 C423.759,241.205 418.251,225.188 418.251,207.859 C418.251,163.262 454.404,127.109 499.001,127.109" id="Fill-339" fill="#0B0754"></path>
                <polyline id="Fill-340" fill="#BED1F9" points="336.068 164.33 262.897 240.997 312.653 280.998 238.017 397.665 350.703 289.331 299.482 239.331 384.361 169.33 336.068 164.33"></polyline>
                <polyline id="Fill-341" fill="#BED1F9" points="828.751 0 711.371 107.988 791.191 164.33 671.461 328.661 852.231 176.069 770.061 105.642 906.221 7.042 828.751 0"></polyline>
                <path d="M986.191,412.785 C986.191,412.785 963.211,364.237 907.611,375.167 C852.021,386.098 820.881,424.647 832.741,447.628 C844.601,470.608 1015.111,488.401 986.191,412.785" id="Fill-342" fill="#0B0754"></path>
                <path d="M85.233,72.167 C66.607,73.108 27.149,82.151 34.77,127.11 C42.39,172.068 119.352,146.161 119.352,110.346 C119.352,74.531 98.018,71.52 85.233,72.167" id="Fill-343" fill="#0B0754"></path>
                <path d="M309.98,1220.073 C328.884,1151.123 512.051,926.873 577.661,926.873 C643.261,926.873 801.741,1251.173 801.741,1251.173 L719.791,1299.963 C719.791,1299.963 644.421,1180.313 620.921,1139.343 C611.051,1122.143 586.861,1067.733 586.861,1067.733 L505.691,1244.533 C505.691,1244.533 505.691,1244.533 490.121,1271.223 C474.551,1297.913 431.927,1371.303 347.417,1384.643 C262.906,1397.983 309.98,1220.073 309.98,1220.073" id="Fill-344" fill="#7C9AF2"></path>
                <path d="M428.998,1041.573 C428.998,1041.573 526.981,1136.283 539.641,1136.283 C552.301,1136.283 740.391,1159.553 751.701,1163.213 L762.041,1179.813 L772.001,1192.973 C772.001,1192.973 784.271,1177.053 774.271,1148.693 C764.261,1120.343 744.521,1109.673 740.491,1109.673 C736.461,1109.673 573.791,1052.863 573.791,1052.863 L482.561,961.513 L428.998,1041.573" id="Fill-345" fill="#FB9390"></path>
                <path d="M445.168,836.433 L553.031,826.433 L568.601,876.703 L506.331,902.043 C506.331,902.043 453.693,890.183 445.168,836.433" id="Fill-346" fill="#FB9390"></path>
                <path d="M553.031,826.433 L520.331,829.463 C512.711,837.223 506.241,846.523 501.651,857.553 C494.291,875.273 496.321,889.983 503.951,901.403 C505.471,901.853 506.331,902.043 506.331,902.043 L568.601,876.703 L553.031,826.433" id="Fill-347" fill="#EF7F7F"></path>
                <path d="M670.461,816.393 C662.161,807.163 653.251,801.273 624.341,797.973 C594.141,794.533 533.751,808.633 512.771,859.133 C488.671,917.153 565.251,942.853 609.171,926.703 C653.081,910.543 718.861,870.143 670.461,816.393" id="Fill-348" fill="#FB9390"></path>
                <path d="M575.381,820.983 C565.131,827.643 553.101,826.983 548.511,819.513 C543.911,812.053 548.491,800.603 558.741,793.953 C568.981,787.303 581.011,787.963 585.611,795.423 C590.201,802.893 585.621,814.333 575.381,820.983" id="Fill-349" fill="#FB9390"></path>
                <path d="M684.551,838.443 C684.551,838.443 624.731,856.173 587.391,800.913 C550.061,745.663 501.131,807.473 501.131,807.473 C501.131,807.473 511.511,747.883 581.191,750.853 C650.881,753.813 704.151,811.133 684.551,838.443" id="Fill-351" fill="#0B0754"></path>
                <path d="M1141.701,1367.303 L10.309,1367.303 C4.616,1367.303 0,1371.923 0,1377.613 C0,1383.303 4.616,1387.923 10.309,1387.923 L1141.701,1387.923 C1147.391,1387.923 1152.011,1383.303 1152.011,1377.613 C1152.011,1371.923 1147.391,1367.303 1141.701,1367.303" id="Fill-352" fill="#4951EC"></path>
            </g>
        </g>
    </g>
</svg>