<?xml version="1.0" encoding="UTF-8"?>
<svg width="801px" height="801px" viewBox="0 0 801 801" version="1.1" xmlns="http://www.w3.org/2000/svg" xmlns:xlink="http://www.w3.org/1999/xlink">
    <title>Group</title>
    <g id="Page-1" stroke="none" stroke-width="1" fill="none" fill-rule="evenodd">
        <g id="Group" transform="translate(0.662781, 0.838292)">
            <rect id="Rectangle" stroke="#979797" fill="#D8D8D8" opacity="0" x="0.5" y="0.5" width="799" height="799"></rect>
            <g id="1" transform="translate(120.689697, 30.123208)" fill-rule="nonzero">
                <path d="M371.906895,461.746193 C383.094215,444.945463 379.177337,424.520117 368.763916,412.75065 C363.520353,396.666414 351.174816,382.657903 333.011872,378.553868 C325.699312,351.090022 284.698441,339.382721 249.120129,356.031723 C226.974499,344.283329 196.881396,343.661665 174.402515,356.442653 C169.007331,359.508826 160.958252,364.50321 159.350436,364.840384 C157.605741,365.314534 108.648973,368.191047 96.9741484,420.51618 C91.1720091,446.515428 96.2323632,475.770509 112.03781,485.127077 C108.842185,502.259713 118.019473,533.084758 139.145346,540.639555 C152.902328,545.560183 167.856485,535.797953 181.30654,537.341576 C226.051084,542.578304 331.269282,502.006832 336.623402,495.842877 C348.60568,482.050368 362.993891,478.783999 371.906895,461.746193" id="Fill-302" fill="#0B0754"></path>
                <path d="M117.123471,640.07416 C115.968506,655.698919 111.25363,675.991088 128.27564,700.998079 C144.691135,725.114784 174.150662,728.0385 174.150662,728.0385 L192.647522,628.942968 L180.717282,624.0385 L121.232359,624.0385 C121.232359,624.0385 117.428576,635.94935 117.123471,640.07416" id="Fill-303" fill="#4951EC"></path>
                <path d="M362.067926,694.901998 C362.067926,701.589909 359.34491,716.978901 362.067926,719.697989 C364.790943,722.417077 438.647522,720.158143 438.647522,720.158143 C438.647522,720.158143 437.485004,710.311907 404.876884,697.809331 C372.268764,685.306755 382.364871,653.0385 382.364871,653.0385 L353.647522,660.803588 C353.647522,660.803588 362.067926,688.214087 362.067926,694.901998" id="Fill-304" fill="#FB9390"></path>
                <path d="M438.647522,720.143479 C438.647522,720.143479 437.576397,710.973179 408.808289,699.0385 C389.727562,705.322149 371.329414,704.418409 361.279741,703.142541 C360.66542,710.064124 360.014344,717.809704 361.862559,719.67566 C364.592878,722.44004 438.647522,720.143479 438.647522,720.143479" id="Fill-305" fill="#7C9AF2"></path>
                <path d="M388.346653,671.668097 C388.346653,671.668097 397.39418,688.083473 397.39418,694.82569 C397.39418,701.562636 394.663644,717.076589 397.39418,719.817757 C399.68888,722.121392 464.455097,720.561035 485.30169,719.996987 C487.612144,719.939001 488.515321,716.960617 486.630201,715.61639 C481.111367,711.673327 470.331001,705.273755 450.82342,697.756631 C426.211838,688.267974 412.517149,666.328092 407.245114,656.059258 C405.764323,653.170489 402.156865,652.158366 399.410576,653.882138 L388.241633,660.887929 C385.700134,662.485186 384.891475,665.822031 386.419525,668.410325 L388.346653,671.668097" id="Fill-306" fill="#FB9390"></path>
                <path d="M485.288,719.016955 C487.611937,718.960081 488.520386,716.038801 486.624264,714.720347 C481.538011,711.178617 472.01515,705.615259 455.377872,699.0385 C438.201863,707.967794 410.731868,704.224419 396.413246,701.349672 C395.768881,708.402108 394.88156,716.897088 396.86747,718.841161 C399.175562,721.10063 464.319748,719.570189 485.288,719.016955" id="Fill-307" fill="#92B5F9"></path>
                <path d="M299.647522,524.048659 C299.647522,524.048659 310.445118,490.0385 325.037882,490.0385 C339.630646,490.0385 356.428072,498.865323 362.847838,526.816928 C366.921214,544.533848 392.647522,671.236192 392.647522,671.236192 L348.097598,681.0385 L306.25626,562.282406 L305.552867,568.024586 L299.647522,524.048659" id="Fill-308" fill="#4951EC"></path>
                <path d="M233.772671,439.895894 C233.772671,439.895894 220.340728,432.027375 197.717899,448.680826 C172.768955,467.051236 112.647522,626.0385 112.647522,626.0385 L190.506629,624.74288 C190.506629,624.74288 276.647522,524.016362 276.647522,510.654627 C276.647522,497.292892 265.931833,468.009784 265.931833,468.009784 L233.772671,439.895894" id="Fill-309" fill="#FA7167"></path>
                <path d="M370.44933,518.646817 C370.44933,518.646817 384.647522,530.605038 384.647522,542.568489 C384.647522,554.531939 371.967177,556.482274 362.496446,558.960716 C353.030985,561.444387 343.027953,563.216943 343.027953,561.08883 C343.027953,558.960716 359.460752,553.114939 359.460752,553.114939 C359.460752,553.114939 344.456204,559.316273 339.633879,556.126717 C334.811553,552.937161 355.355187,544.96327 355.355187,544.96327 C355.355187,544.96327 338.474412,552.137157 335.881424,549.569826 C333.293706,547.002495 353.030985,536.456044 353.030985,536.456044 C353.030985,536.456044 342.316462,537.339708 342.316462,535.216823 C342.316462,533.088709 342.316462,533.088709 342.316462,533.088709 C342.316462,533.088709 362.143336,514.479479 370.44933,518.646817" id="Fill-310" fill="#FB9390"></path>
                <path d="M49.0952691,438.281691 L50.6474008,514.913956 C50.6594418,515.526338 49.7741475,516.027858 48.6698232,516.0385 C47.565499,516.043695 46.6607099,515.552734 46.6475222,514.940351 L46.6475222,514.913956 L48.199654,438.281691 C48.2025209,438.144433 48.404923,438.033571 48.6526219,438.0385 C48.8963072,438.0385 49.0924022,438.149712 49.0952691,438.281691" id="Fill-311" fill="#BED1F9"></path>
                <path d="M326.097957,270.2846 L327.647412,354.91897 C327.658889,355.531497 326.775126,356.033136 325.667552,356.0385 C324.559979,356.043697 323.659,355.552619 323.647522,354.940092 L323.647522,354.91897 L325.196977,270.2846 C325.202716,270.14731 325.403571,270.036949 325.650336,270.0385 C325.897101,270.039589 326.092218,270.149422 326.097957,270.2846" id="Fill-312" fill="#BED1F9"></path>
                <path d="M164.095032,265.282706 L165.647377,335.921469 C165.660566,336.530587 164.776297,337.031008 163.671821,337.0385 C162.567345,337.045186 161.660712,336.556842 161.647522,335.947724 L161.647522,335.921469 L163.199294,265.282706 C163.202734,265.146179 163.405164,265.036958 163.652897,265.0385 C163.896616,265.040109 164.092164,265.148805 164.095032,265.282706" id="Fill-313" fill="#BED1F9"></path>
                <path d="M162.094809,173.282685 L163.647377,243.920952 C163.660568,244.53059 162.776172,245.030483 161.672112,245.0385 C160.56633,245.045186 159.660714,244.55737 159.647522,243.947732 L159.647522,243.920952 L161.198943,173.282685 C161.20181,173.14616 161.405416,173.037465 161.652611,173.0385 C161.895791,173.040615 162.091941,173.14931 162.094809,173.282685" id="Fill-314" fill="#BED1F9"></path>
                <path d="M49.0952543,164.28273 L50.6473767,234.921448 C50.6605643,235.530565 49.7758488,236.030461 48.6715312,236.0385 C47.5677869,236.045689 46.6607098,235.55787 46.6475222,234.947703 L46.6475222,234.921448 L48.1996447,164.28273 C48.2025115,164.146204 48.4054858,164.036458 48.6526098,164.0385 C48.8962936,164.040134 49.0923874,164.148829 49.0952543,164.28273" id="Fill-315" fill="#BED1F9"></path>
                <path d="M83.4834725,490.27069 L84.6474887,612.983091 C84.6529665,613.563566 83.9860536,614.033223 83.1580045,614.0385 C82.3294988,614.0385 81.6534564,613.579397 81.6475222,612.998922 L81.6475222,612.983091 L82.8119949,490.27069 C82.8129079,490.138764 82.9640017,490.0385 83.1497879,490.0385 C83.3342046,490.0385 83.4821031,490.144041 83.4834725,490.27069" id="Fill-316" fill="#BED1F9"></path>
                <path d="M81.0947845,382.287274 L82.6473364,447.916039 C82.6622482,448.530035 81.7778615,449.032877 80.6732383,449.0385 C79.5686151,449.048756 78.6618605,448.556501 78.6475222,447.942505 L78.6475222,447.916039 L80.1995006,382.287274 C80.2029418,382.149654 80.4059722,382.0385 80.6525911,382.0385 C80.8963423,382.043793 81.0919168,382.149654 81.0947845,382.287274" id="Fill-317" fill="#BED1F9"></path>
                <path d="M385.094362,357.285817 L386.647274,407.912088 C386.664465,408.522487 385.787728,409.027644 384.68178,409.0385 C383.575831,409.048693 382.670443,408.564583 382.647522,407.954184 L382.647522,407.912088 L384.200434,357.285817 C384.206165,357.149003 384.406725,357.0385 384.653128,357.0385 C384.899531,357.043762 385.088631,357.149003 385.094362,357.285817" id="Fill-318" fill="#BED1F9"></path>
                <path d="M326.097872,200.282229 L327.647273,250.913678 C327.664489,251.524615 326.786495,252.027151 325.67896,252.0385 C324.577163,252.0482 323.664738,251.561976 323.647522,250.951039 L323.647522,250.913678 L325.196924,200.282229 C325.202662,200.145413 325.409249,200.03596 325.656006,200.0385 C325.897024,200.040696 326.092133,200.149097 326.097872,200.282229" id="Fill-319" fill="#BED1F9"></path>
                <path d="M413.092133,215.281705 L414.647273,265.913635 C414.664489,266.524578 413.786495,267.028172 412.67896,267.0385 C411.577163,267.048694 410.664738,266.562466 410.647522,265.951523 L410.647522,265.913635 L412.196924,215.281705 C412.202662,215.145414 412.403511,215.03596 412.656006,215.0385 C412.897024,215.040696 413.092133,215.149098 413.092133,215.281705" id="Fill-320" fill="#BED1F9"></path>
                <path d="M240.095262,263.283432 L241.647304,322.914628 C241.663453,323.526279 240.781598,324.029275 239.676539,324.0385 C238.57148,324.046766 237.663095,323.558611 237.647522,322.94643 L237.647522,322.914628 L239.199564,263.283432 C239.203025,263.146155 239.406042,263.036439 239.654046,263.0385 C239.896859,263.04068 240.091801,263.149865 240.095262,263.283432" id="Fill-321" fill="#BED1F9"></path>
                <path d="M203.095486,179.282904 L204.647304,238.914062 C204.663451,239.526248 203.781146,240.029248 202.676247,240.0385 C201.571347,240.047269 200.663092,239.55858 200.647522,238.946394 L200.647522,238.914062 L202.199341,179.282904 C202.203377,179.146156 202.406365,179.036439 202.653757,179.0385 C202.896535,179.04068 203.091449,179.149336 203.095486,179.282904" id="Fill-322" fill="#BED1F9"></path>
                <path d="M199.09506,258.284442 L200.647423,340.914638 C200.658319,341.528618 199.772893,342.033128 198.66783,342.0385 C197.563342,342.043705 196.658418,341.551358 196.647522,340.937378 L196.647522,340.914638 L198.199885,258.284442 C198.202179,258.147474 198.404611,258.036947 198.652347,258.0385 C198.896068,258.04012 199.092766,258.150118 199.09506,258.284442" id="Fill-323" fill="#BED1F9"></path>
                <path d="M281.094362,289.280003 L282.647274,338.92343 C282.664465,339.528266 281.787728,340.027255 280.68178,340.0385 C279.575831,340.048111 278.670443,339.565807 278.647522,338.96045 L278.647522,338.92343 L280.200434,289.280003 C280.206165,289.144437 280.406725,289.035983 280.653128,289.0385 C280.899531,289.041197 281.088631,289.148608 281.094362,289.280003" id="Fill-324" fill="#BED1F9"></path>
                <path d="M130.094879,287.281782 L131.647255,339.915145 C131.665131,340.525845 130.784567,341.028153 129.679105,341.0385 C128.574796,341.048245 127.664822,340.562329 127.647522,339.951628 L127.647522,339.915145 L129.199322,287.281782 C129.203935,287.145366 129.407497,287.036445 129.654308,287.0385 C129.896507,287.040675 130.090842,287.149067 130.094879,287.281782" id="Fill-325" fill="#BED1F9"></path>
                <path d="M385.096937,221.281813 L386.647272,273.914658 C386.664562,274.525352 385.782773,275.028183 384.681977,275.0385 C383.575418,275.047746 382.664812,274.561306 382.647522,273.950612 L382.647522,273.914658 L384.197858,221.281813 C384.203621,221.144869 384.405337,221.035949 384.653161,221.0385 C384.89522,221.040707 385.091174,221.149099 385.096937,221.281813" id="Fill-326" fill="#BED1F9"></path>
                <path d="M126.095103,141.282308 L127.647255,193.915156 C127.665129,194.52585 126.784692,195.028682 125.679389,195.0385 C124.575239,195.048245 123.665396,194.561276 123.647522,193.951639 L123.647522,193.915156 L125.199674,141.282308 C125.203134,141.145894 125.407243,141.036444 125.654596,141.0385 C125.896759,141.040674 126.09049,141.149595 126.095103,141.282308" id="Fill-327" fill="#BED1F9"></path>
                <path d="M439.094785,542.279859 L440.647411,637.931315 C440.658955,638.534712 439.770091,639.03317 438.667668,639.0385 C437.559474,639.043664 436.653294,638.5557 436.647522,637.947056 L436.647522,637.931315 L438.200149,542.279859 C438.200149,542.143439 438.402163,542.0385 438.650353,542.0385 C438.898542,542.0385 439.094785,542.148685 439.094785,542.279859" id="Fill-328" fill="#BED1F9"></path>
                <path d="M385.094245,300.283453 L386.647083,339.89531 C386.670003,340.513214 385.793308,341.024675 384.693143,341.0385 C383.587247,341.051286 382.676172,340.561646 382.647522,339.944274 L382.647522,339.89531 L384.20036,300.283453 C384.20609,300.145077 384.412371,300.03544 384.658763,300.0385 C384.899424,300.041827 385.088515,300.150931 385.094245,300.283453" id="Fill-329" fill="#BED1F9"></path>
                <path d="M95.0957639,263.28395 L96.6474019,344.913808 C96.6593947,345.528665 95.7730707,346.027907 94.6685922,346.0385 C93.5641137,346.043673 92.659515,345.549685 92.6475222,344.940084 L92.6475222,344.913808 L94.2003025,263.28395 C94.2025868,263.14679 94.405322,263.036957 94.6526019,263.0385 C94.8964552,263.039584 95.0929084,263.149418 95.0957639,263.28395" id="Fill-330" fill="#BED1F9"></path>
                <path d="M87.0957639,158.284462 L88.6474019,239.917934 C88.6593947,240.530175 87.7730707,241.03258 86.6691633,241.0385 C85.5641137,241.045192 84.659515,240.553823 84.6475222,239.941583 L84.6475222,239.917934 L86.2003025,158.284462 C86.2025868,158.147299 86.4047509,158.037464 86.6526019,158.0385 C86.8964552,158.040617 87.0929084,158.150452 87.0957639,158.284462" id="Fill-331" fill="#BED1F9"></path>
                <path d="M415.09448,305.285233 L416.647522,543.928465 C416.653198,544.538721 415.759228,545.0385 414.653225,545.0385 C413.552954,545.0385 412.653253,544.549243 412.647522,543.933726 L412.647522,543.928465 L414.20051,305.285233 C414.20051,305.148451 414.40108,305.0385 414.647495,305.0385 C414.89391,305.0385 415.09448,305.149503 415.09448,305.285233" id="Fill-332" fill="#BED1F9"></path>
                <path d="M441.092134,329.281775 L442.647275,395.921929 C442.66449,396.529969 441.780757,397.027933 440.673222,397.0385 C439.565686,397.043659 438.658999,396.556178 438.647522,395.948138 L438.647522,395.921929 L440.196924,329.281775 C440.202663,329.14549 440.403511,329.036462 440.650268,329.0385 C440.897024,329.040131 441.092134,329.148635 441.092134,329.281775" id="Fill-333" fill="#BED1F9"></path>
                <path d="M53.0946562,584.284829 L54.6474677,693.932558 C54.6555402,694.540518 53.7669838,695.033176 52.6627751,695.0385 C51.5585665,695.043658 50.6555948,694.556241 50.6475222,693.953522 L50.6475222,693.932558 L52.1991805,584.284829 C52.2009103,584.148562 52.4038771,584.0385 52.6500897,584.0385 C52.8957257,584.043741 53.0929264,584.148562 53.0946562,584.284829" id="Fill-334" fill="#BED1F9"></path>
                <path d="M47.0960074,268.283239 L48.6474603,387.930296 C48.6560636,388.5395 47.767061,389.033165 46.66183,389.0385 C45.5571726,389.043668 44.6555519,388.555255 44.6475222,387.946052 L44.6475222,387.930296 L46.2001222,268.283239 C46.2018429,268.147219 46.4037325,268.0385 46.6509326,268.0385 C46.896412,268.0385 47.0937132,268.148794 47.0960074,268.283239" id="Fill-335" fill="#BED1F9"></path>
                <path d="M443.093157,454.277387 L444.645305,472.871339 C444.696852,473.48619 443.843457,474.010934 442.738053,474.037436 C441.638377,474.063938 440.69907,473.592199 440.647522,472.977348 L440.647522,472.871339 L442.19967,454.277387 C442.211125,454.139576 442.423042,454.033567 442.669323,454.0385 C442.898423,454.049468 443.081702,454.150177 443.093157,454.277387" id="Fill-336" fill="#BED1F9"></path>
                <path d="M279.090928,237.276255 L280.645302,255.871096 C280.696923,256.487072 279.842304,257.00816 278.735315,257.037315 C277.634062,257.06541 276.699143,256.590441 276.647522,255.974995 L276.647522,255.871096 L278.19616,237.276255 C278.207631,237.13896 278.419852,237.032409 278.666487,237.038771 C278.895915,237.044602 279.079457,237.149562 279.090928,237.276255" id="Fill-337" fill="#BED1F9"></path>
                <path d="M119.343485,25.0385 C139.33137,25.0385 156.047708,38.8832601 160.560677,57.5031281 C169.725954,42.5040678 186.190958,32.4606557 205.041531,32.4606557 C233.850818,32.4606557 257.203319,55.8393146 257.203319,84.6789242 C257.203319,86.2200966 257.103416,87.7370566 256.977224,89.2440158 C258.360086,89.1076894 259.763981,89.0313677 261.188908,89.0313677 C284.639734,89.0313677 303.647522,108.060741 303.647522,131.534671 C303.647522,155.0086 284.639734,174.0385 261.188908,174.0385 L69.1061366,174.0385 C45.656888,174.0385 26.6475222,155.0086 26.6475222,131.534671 C26.6475222,108.060741 45.656888,89.0313677 69.1061366,89.0313677 C74.6060388,89.0313677 79.844091,90.1125043 84.6672845,92.0173892 C79.7809946,85.0936933 76.8843444,76.6635645 76.8843444,67.541803 C76.8843444,44.0678735 95.8937102,25.0385 119.343485,25.0385" id="Fill-338" fill="#4951EC"></path>
                <path d="M262.343309,67.0385 C282.329053,67.0385 299.049565,80.8833579 303.560949,99.5033575 C312.725683,84.5036648 329.188552,74.4601818 348.038563,74.4601818 C376.852528,74.4601818 400.203407,97.8395322 400.203407,126.679346 C400.203407,128.221055 400.103505,129.7375 399.972054,131.244996 C401.360172,131.107616 402.764064,131.031293 404.188988,131.031293 C427.63977,131.031293 446.647522,150.061328 446.647522,173.535423 C446.647522,197.009518 427.63977,216.0385 404.188988,216.0385 L212.106056,216.0385 C188.656852,216.0385 169.647522,197.009518 169.647522,173.535423 C169.647522,150.061328 188.656852,131.031293 212.106056,131.031293 C217.605948,131.031293 222.844516,132.112438 227.667174,134.017862 C222.780894,127.094118 219.884775,118.663403 219.884775,109.542103 C219.884775,86.068008 238.894105,67.0385 262.343309,67.0385" id="Fill-339" fill="#0B0754"></path>
                <polyline id="Fill-340" fill="#BED1F9" points="177.237796 86.0385 138.738322 126.452673 164.917817 147.538764 125.647522 209.0385 184.938112 151.931414 157.987796 125.574459 202.647522 88.6741955 177.237796 86.0385"></polyline>
                <polyline id="Fill-341" fill="#BED1F9" points="436.057941 0.0385 374.557941 56.8810338 416.37878 86.5382368 353.647522 173.0385 448.360037 92.717391 405.307941 55.6461504 476.647522 3.74525559 436.057941 0.0385"></polyline>
                <path d="M518.90835,217.505231 C518.90835,217.505231 506.787149,192.171311 477.45996,197.874939 C448.138045,203.579089 431.712709,223.695206 437.968473,235.687437 C444.224237,247.679145 534.162708,256.964109 518.90835,217.505231" id="Fill-342" fill="#0B0754"></path>
                <path d="M44.6999854,38.0768783 C34.9021946,38.5777052 14.1461962,43.3906464 18.1550528,67.3191023 C22.1633834,91.2470259 62.6475222,77.4585852 62.6475222,58.3968257 C62.6475222,39.3350662 51.4252487,37.7325265 44.6999854,38.0768783" id="Fill-343" fill="#0B0754"></path>
                <path d="M162.535427,642.157602 C172.496068,605.914382 269.007962,488.0385 303.578301,488.0385 C338.143371,488.0385 421.647522,658.50516 421.647522,658.50516 L378.46753,684.151378 C378.46753,684.151378 338.754583,621.257959 326.372278,599.722285 C321.171711,590.681191 308.425841,562.080849 308.425841,562.080849 L265.656836,655.014878 C265.656836,655.014878 265.656836,655.014878 257.452901,669.044342 C249.248966,683.073806 226.790101,721.650889 182.261227,728.662993 C137.731827,735.675097 162.535427,642.157602 162.535427,642.157602" id="Fill-344" fill="#7C9AF2"></path>
                <path d="M225.647522,548.237238 C225.647522,548.237238 277.277085,598.157829 283.947938,598.157829 C290.618792,598.157829 389.727866,610.423188 395.687373,612.352334 L401.135764,621.10201 L406.383924,628.0385 C406.383924,628.0385 412.849277,619.647244 407.58004,604.699003 C402.305534,589.756032 391.904061,584.131993 389.780559,584.131993 C387.657056,584.131993 301.942382,554.188072 301.942382,554.188072 L253.871135,506.0385 L225.647522,548.237238" id="Fill-345" fill="#FB9390"></path>
                <path d="M233.647522,440.328806 L290.448337,435.0385 L298.647522,461.632866 L265.856048,475.0385 C265.856048,475.0385 238.1368,468.764198 233.647522,440.328806" id="Fill-346" fill="#FB9390"></path>
                <path d="M291.376851,435.0385 L274.006848,436.641463 C269.959159,440.74674 266.522342,445.666724 264.084167,451.501931 C260.174588,460.876352 261.252909,468.658392 265.30591,474.69992 C266.113323,474.937984 266.570149,475.0385 266.570149,475.0385 L299.647522,461.632866 L291.376851,435.0385" id="Fill-347" fill="#EF7F7F"></path>
                <path d="M352.725742,429.919205 C348.374257,425.096287 343.702964,422.018607 328.546164,420.29427 C312.71305,418.49678 281.052064,425.864401 270.052768,452.251979 C257.417733,482.568956 297.566736,495.997882 320.592908,487.559082 C343.613837,479.115057 378.100667,458.004994 352.725742,429.919205" id="Fill-348" fill="#FB9390"></path>
                <path d="M302.444974,431.628055 C297.15249,435.122652 290.940922,434.77634 288.570922,430.856726 C286.195758,426.942358 288.560595,420.934381 293.853078,417.445032 C299.140399,413.955682 305.351967,414.301994 307.727131,418.216361 C310.097131,422.135976 307.732294,428.138706 302.444974,431.628055" id="Fill-349" fill="#FB9390"></path>
                <path d="M360.4813,441.600288 C360.4813,441.600288 328.900248,451.013795 309.187167,421.674235 C289.479366,392.339984 263.647522,425.15718 263.647522,425.15718 C263.647522,425.15718 269.127484,393.518663 305.913972,395.095545 C342.705739,396.667118 370.828819,427.100408 360.4813,441.600288" id="Fill-351" fill="#0B0754"></path>
                <path d="M600.224084,719.0385 L5.07043399,719.0385 C2.07570738,719.0385 -0.352477767,721.503097 -0.352477767,724.5385 C-0.352477767,727.573903 2.07570738,730.0385 5.07043399,730.0385 L600.224084,730.0385 C603.217233,730.0385 605.647522,727.573903 605.647522,724.5385 C605.647522,721.503097 603.217233,719.0385 600.224084,719.0385" id="Fill-352" fill="#4951EC"></path>
            </g>
        </g>
    </g>
</svg>