<?xml version="1.0" encoding="UTF-8"?>
<svg width="802px" height="801px" viewBox="0 0 802 801" version="1.1" xmlns="http://www.w3.org/2000/svg" xmlns:xlink="http://www.w3.org/1999/xlink">
    <title>Group</title>
    <g id="Page-1" stroke="none" stroke-width="1" fill="none" fill-rule="evenodd">
        <g id="Group" transform="translate(0.000000, 0.838292)">
            <rect id="Rectangle" stroke="#979797" fill="#D8D8D8" opacity="0" x="2.162781" y="0.5" width="799" height="799"></rect>
            <g id="2" transform="translate(0.000000, 40.161708)">
                <path d="M796,662.499579 C796,694.255693 652.283573,720 475,720 C297.716427,720 154,694.255693 154,662.499579 C154,630.744309 297.716427,605 475,605 C652.283573,605 796,630.744309 796,662.499579" id="Fill-45" fill="#34396D" fill-rule="nonzero"></path>
                <path d="M238.935304,261.165575 C141.371386,285.949305 -54.827933,187.134222 14.5315424,64.5343797 C71.4044559,-35.9940659 204.833492,-6.85011797 264.937725,68.6410764 C313.508763,129.638787 337.191046,236.203876 238.935304,261.165575" id="Fill-46" fill="#00B0B5" fill-rule="nonzero"></path>
                <polyline id="Fill-47" fill="#00B0B5" fill-rule="nonzero" points="240.536614 222 265 298 193 238.072771 240.536614 222"></polyline>
                <path d="M196.313368,80.9609854 C212.723235,94.4178397 217.593476,114.201972 214.095606,134.671137 C210.647943,154.881306 200.581105,175.146311 184.95784,188.479995 C177.903522,194.499345 169.384784,198.833952 160.171494,200.024324 C150.640214,201.25519 141.460396,197.702635 133.72826,192.331198 C115.343519,179.565282 100.707691,154.925175 107.904268,132.199281 C111.469083,120.935883 119.987821,111.553795 128.523295,103.776305 C136.849566,96.1911646 148.891279,87.7109255 160.581531,91.5629722 C177.485116,97.1335072 182.56456,120.997468 183.434844,136.498455 C184.179606,149.672691 182.029002,167.468371 169.769718,175.127751 C156.112959,183.66114 137.485543,171.88481 125.987757,164.329197 C112.121796,155.217073 96.2391198,141.506285 94.6910189,123.721572 C93.9797294,115.529013 97.1847164,106.390736 103.176284,100.776332 C108.632293,95.6689533 116.247275,94.7637306 123.201176,96.6897539 C140.15497,101.389656 148.615131,119.950514 149.828507,136.30695 C151.225982,155.170673 141.267929,171.94049 123.878993,179.109718 C107.502598,185.857971 88.2224686,177.843419 78.7330297,163.545458 C68.0636878,147.477547 72.5155231,126.920644 81.2769359,111.170784 C90.7412704,94.1554688 106.305958,79.745304 124.222085,72.2782731 C131.761754,69.1340378 140.171707,67.6737021 148.138149,69.9236819 C155.71129,72.0648327 162.037582,77.4016807 167.200707,83.192405 C178.213143,95.5483136 184.715165,112.546756 187.92852,128.632383 C190.648156,142.252059 190.187911,156.394791 186.263266,169.74366 C183.024807,180.769996 175.376352,196.07779 161.727962,193.869148 C153.510477,192.539576 146.09633,186.613026 140.347437,180.916789 C133.636211,174.264711 128.389405,165.938013 125.242995,157.008115 C122.322524,148.745534 122.046376,139.414064 126.163488,131.5404 C130.23039,123.79075 137.443702,117.610266 144.472916,112.707891 C158.389086,103.010283 179.86166,95.3188441 194.66485,107.227625 C209.116579,118.847881 211.86132,139.804668 209.166788,157.064639 C206.221212,175.935112 195.911699,194.222632 179.602249,204.405331 C169.267631,210.85578 157.979048,211.313031 147.828529,204.19864 C139.945767,198.675348 135.360043,189.41137 132.263841,180.527872 C125.468934,161.01286 127.201133,140.191054 135.493932,121.420974 C143.694682,102.842399 158.514608,87.618969 176.832404,79.134511 C184.815583,75.439381 193.300848,72.988615 201.928371,75.6933154 C209.300677,78.0040378 215.158356,84.0571331 219.459565,90.2671457 C237.626736,116.538003 236.739716,155.141147 220.363322,181.991582 C216.597671,188.153507 211.560068,193.670893 205.158462,197.060627 C198.338451,200.668863 191.108403,200.167742 183.945299,197.979348 C165.083575,192.216463 150.464484,174.859475 143.728154,156.748275 C138.129887,141.718037 140.012712,126.686112 146.021017,112.259076 C151.820118,98.3289407 160.037604,84.51101 171.033303,74.1308996 C175.34288,70.0662567 180.648263,66.0817589 186.656568,65.3224856 C192.664871,64.5640558 198.221298,70.3269406 201.593646,74.5476567 C212.539137,88.2550713 214.070501,107.85529 213.007751,124.728875 C211.869688,142.740526 207.041288,159.80899 196.723406,174.664595 C185.702603,190.524127 167.786476,203.873839 147.845265,197.795435 C140.004344,195.403724 132.431203,190.259225 125.326676,186.149869 C117.82048,181.804295 110.540223,176.979535 104.071673,171.154221 C98.4399331,166.089868 93.1178144,159.596393 92.3897882,151.756475 C92.080168,148.511846 92.9169794,145.076557 94.3479267,142.182038 C94.7663321,141.323215 95.4106768,140.35472 96.2391198,139.838414 C96.942041,139.398879 96.1303346,139.552421 96.9587777,139.780203 C105.176263,142.045369 115.971128,158.398429 108.607189,165.975977 C104.130249,170.575486 93.6450049,156.399853 91.4023512,152.881886 C84.7497026,142.431754 80.9673157,129.979671 82.8919815,117.563021 C84.0969895,109.793125 90.0550853,101.766762 94.7077556,95.7592227 C100.456648,88.3284675 107.661592,81.6283021 115.669875,76.7394258 C122.230475,72.7363677 130.489801,69.2006851 138.280513,71.0355955 C145.167469,72.6587532 151.159037,76.7773892 155.552296,82.304899 C164.941317,94.1115993 167.167235,110.500936 167.066818,125.159129 C166.974769,139.17869 164.581489,154.046106 158.322141,166.67957 C153.89541,175.606094 148.941488,183.429983 140.824419,189.398715 C133.82031,194.545745 125.075633,196.854779 116.48995,195.91328 C96.1972794,193.68861 80.9338436,176.884203 78.1388944,157.022457 C75.661933,139.377788 81.74555,121.109672 90.0801897,105.807783 C96.925305,93.2477148 106.582106,80.9685778 118.464824,72.9447463 C122.581936,70.164962 127.661379,67.6424876 132.389363,70.163275 C138.154992,73.2383318 141.276297,81.0478801 143.067073,86.9929898 C147.075398,100.291241 146.046121,115.604097 143.527319,129.061794 C140.983413,142.694969 135.661294,157.80029 124.548442,166.72597 C120.096606,170.305522 114.448131,172.36484 108.841496,170.778802 C100.841581,168.51448 93.8793119,161.961108 88.7580282,155.632143 C83.5195902,149.153854 79.2351165,141.255724 78.707926,132.779703 C78.0803173,122.575913 86.9170432,112.905302 93.2935443,105.934329 C100.649115,97.8885621 109.042331,90.4257495 117.694958,83.8344132 C125.318308,78.0318775 135.209416,72.4394075 145.041947,75.1036132 C159.510413,79.0282125 167.560536,96.3025249 172.162998,109.211015 C177.133656,123.171521 180.338643,139.264741 178.430714,154.106847 C176.447471,169.493943 169.727877,187.324212 156.564837,196.408496 C140.380909,207.57825 121.971063,184.69122 115.284942,172.096564 C105.23484,153.194876 109.427264,131.861826 122.397837,115.646278 C132.657142,102.828901 145.753237,90.9310877 159.78656,82.5141211 C166.539626,78.4629759 174.263393,74.8589589 182.271677,74.9399475 C189.535198,75.0133444 196.079061,80.415152 200.137595,86.0666769 C209.618666,99.2603161 208.371817,117.840579 205.451346,132.961085 C203.158483,144.788876 199.049741,156.334893 193.669045,167.079454 C187.560323,179.259042 178.957904,191.672317 165.368091,195.765644 C156.924666,198.310897 147.217656,195.49568 138.908122,193.613526 C131.251299,191.880696 123.66979,190.560403 115.82887,190.122556 C109.251534,189.75473 99.9629296,190.52244 94.3395584,186.409709 C88.4400397,182.089444 91.1429398,171.468897 92.0215916,165.490042 C92.4316292,162.723756 83.762265,162.343276 83.3020192,165.490042 C82.1472193,173.394921 79.1095953,185.06917 87.9212168,189.890555 C96.7077339,194.698443 107.268291,194.427636 116.975301,194.967564 C128.682289,195.618008 139.878823,199.676745 151.50213,201.006318 C162.213313,202.232122 172.916128,200.556659 181.970425,194.396421 C196.003748,184.857417 204.070608,168.154248 209.652138,152.530933 C215.216933,136.922805 218.790116,119.548943 216.237843,102.974006 C213.953348,88.0804384 204.388596,74.2296056 189.08332,71.0128176 C172.087685,67.4391709 155.560664,76.4753671 142.305575,86.2868662 C129.134167,96.0317173 115.51925,108.642404 107.067456,122.878779 C96.8332558,140.119345 97.8876375,160.796046 108.20552,177.670473 C117.544332,192.928493 134.916532,207.622962 153.861937,203.679803 C169.619092,200.398899 179.041586,185.610785 184.137766,171.314512 C189.426412,156.485904 189.526829,141.804932 186.564518,126.504731 C183.593839,111.207061 178.196406,95.1231205 167.920365,83.1890309 C156.514629,69.9532094 140.054553,66.7693229 123.954306,72.9784914 C113.92094,76.8482548 105.519355,84.5118536 97.6198584,91.6059974 C89.2935871,99.0856833 81.2267271,106.806649 74.8418583,116.09678 C69.7038372,123.578998 67.4611835,130.905985 69.9214082,139.805512 C72.239375,148.158362 77.067776,155.381582 82.9421903,161.623653 C94.0550426,173.43879 109.720148,179.852962 125.326676,173.768652 C138.02947,168.819877 145.376672,155.319997 149.502151,143.033268 C154.20503,129.005271 155.853548,113.608051 154.581595,98.8747741 C153.535581,86.8242624 149.435206,71.1005557 137.226131,65.9796787 C123.837153,60.3627434 110.180394,69.322169 100.824845,78.3651141 C78.5824041,99.8635167 60.9256882,136.139066 70.9172135,167.26421 C76.9673585,186.102625 95.0843206,197.974286 113.946044,200.471451 C132.205264,202.890159 149.468678,194.8832 160.414169,180.210665 C169.326208,168.269826 173.652521,152.871762 175.468402,138.247314 C177.342859,123.152961 176.480943,107.160977 170.941254,92.8917003 C165.560558,79.0349621 154.481178,69.4141255 139.954136,66.5752863 C122.766034,63.2142366 105.569564,74.2802239 93.7788951,85.7039129 C87.4274983,91.8531829 81.8878079,99.0089123 77.6870163,106.80918 C72.8669837,115.760169 71.7958653,124.935566 73.9632065,134.925072 C76.1556515,145.008222 81.5363473,153.968491 88.3981993,161.479391 C93.9629934,167.56792 101.670024,173.23463 110.347756,171.196403 C124.757645,167.811731 118.791181,151.352372 111.987906,143.692148 C105.218104,136.070731 90.1220301,130.242887 85.1430036,143.004584 C79.0342822,158.654894 93.1847591,171.60641 104.531918,179.908643 C111.151095,184.751119 118.280726,188.892533 125.44383,192.839067 C133.443744,197.241165 141.04199,201.477067 150.104655,203.196399 C169.100269,206.796198 187.100077,197.184641 199.434674,183.203045 C211.493123,169.535282 217.852888,153.275021 220.647837,135.408476 C223.325633,118.259022 222.882123,99.6036763 215.995167,83.4649003 C210.338324,70.2358277 198.689912,59.322539 183.652415,61.2139732 C169.953816,62.9375237 159.426731,74.8572712 151.778278,85.4339488 C143.502215,96.884634 136.724044,110.1213 133.058812,123.832932 C123.602845,159.185542 153.000022,198.019842 187.543587,203.780196 C221.785901,209.489088 238.379866,173.054935 241.534644,144.63449 C244.722895,115.917086 231.660272,73.2737646 198.279874,70.0072018 C179.443255,68.164699 160.112917,79.1733185 146.707202,91.6287753 C132.330786,104.995361 122.891556,123.175739 119.527574,142.531304 C116.289115,161.2263 120.238864,182.758448 131.502342,198.226533 C144.32229,215.845049 168.179776,218.276411 186.179585,207.654177 C216.187634,189.945392 230.731412,142.09683 209.46804,112.534945 C186.773721,80.9803892 136.849566,101.186339 118.841389,127.737285 C108.448195,143.046765 115.761924,162.496818 125.820395,175.901366 C135.686399,189.045231 151.19251,199.950927 168.171408,198.54121 C182.162891,197.379521 190.405481,184.868384 194.438911,172.589248 C198.715016,159.574459 199.509987,145.627451 197.359382,132.146975 C192.639767,102.590995 174.171344,64.7817142 140.029449,64.6408268 C122.130058,64.5674304 105.126054,74.8024353 92.281003,86.5500807 C78.507091,99.1379886 67.2854529,116.020853 64.4905038,134.821305 C61.8712848,152.471878 69.9046722,168.648619 84.6911255,178.046735 C99.0005964,187.145361 118.197045,187.668416 133.159229,180.01241 C148.908015,171.959051 157.326336,155.936696 156.790776,138.382297 C156.297058,122.202182 148.439401,105.494794 134.196875,97.3950347 C122.33926,90.6543747 105.669982,90.6290656 95.8792909,101.027736 C84.0049404,113.643484 87.0509334,132.023804 96.4148504,144.885894 C106.314326,158.469294 121.72002,168.411557 136.648731,175.509075 C149.485415,181.609415 166.179798,184.843919 178.070885,174.975053 C188.81554,166.055278 190.656525,149.545302 190.020548,136.498455 C189.250682,120.642297 184.288391,101.885715 170.73205,92.3340561 C152.556512,79.529333 131.368453,93.6610971 118.188677,106.947537 C110.540223,114.659223 103.435696,123.459201 100.590538,134.190264 C97.8792699,144.413458 99.176327,154.572535 103.234861,164.238084 C111.142727,183.086623 128.514927,199.810884 148.891279,203.235207 C166.514522,206.197216 183.602206,197.848584 195.694128,185.36613 C209.534985,171.072388 217.802679,150.863063 220.179223,131.186916 C222.580871,111.27877 215.827805,92.3914233 200.070651,79.874381 C199.033004,79.049304 194.823844,79.743617 196.313368,80.9609854" id="Fill-48" fill="#007A7E" fill-rule="nonzero"></path>
                <polyline id="Fill-49" fill="#EEA289" fill-rule="nonzero" points="478.944587 637 515 651.784363 505.726212 680 469 667.519182 478.944587 637"></polyline>
                <path d="M494.456301,677.196648 C509.137324,686.6336 556.03083,697.108827 574.621746,695.905138 C597.139374,694.449517 608.171162,653.303564 581.003703,651.249914 C556.383982,649.391365 529.317423,651.364429 505.27788,646 C505.27788,646 487.965036,652.589324 494.456301,677.196648" id="Fill-50" fill="#1C3552" fill-rule="nonzero"></path>
                <path d="M556.620065,662.279569 C558.320637,668.714579 555.591219,676.335966 552.037022,681.671699 C551.781936,682.054756 552.921319,682.064059 553.125388,681.895784 C557.580888,678.167537 560.879999,667.407285 557.79346,662.20262 C557.631906,661.93203 556.51803,661.908349 556.620065,662.279569" id="Fill-51" fill="#FFFFFE" fill-rule="nonzero"></path>
                <path d="M542.783683,659.237251 C543.239132,662.321585 542.98133,665.245609 541.9845,668.206366 C541.159536,670.675334 539.397896,673.079178 539.002601,675.630806 C538.933855,676.122601 540.248639,676.0558 540.463474,675.818677 C544.218775,671.698991 546.573358,664.192722 543.763327,659.173794 C543.634426,658.950025 542.732122,658.913287 542.783683,659.237251" id="Fill-52" fill="#FFFFFE" fill-rule="nonzero"></path>
                <path d="M528.89692,656.434154 C528.453324,658.838954 528.347246,661.27072 527.884364,663.676359 C527.296116,666.642335 526.273917,668.417707 524.075224,670.559614 C523.834139,670.796386 524.229519,670.932051 524.46096,670.960696 C530.999179,671.7696 531.394557,659.862724 530.806311,656.434154 C530.709877,655.853598 529.002997,655.856968 528.89692,656.434154" id="Fill-53" fill="#FFFFFE" fill-rule="nonzero"></path>
                <path d="M499.308301,514 C499.308301,514 552.201282,516.214068 620.872309,514.431748 C647.843615,555.615426 664.150677,591.030455 659.07886,632.914152 C659.07886,632.914152 648.364232,666.813453 595.975074,670 L490.382243,653.591922 L397.074288,657.025781 C397.074288,657.025781 306.226667,557.697036 364.518948,540.299709 L477.131707,554.857563 L499.308301,514" id="Fill-54" fill="#346AA5" fill-rule="nonzero"></path>
                <polyline id="Fill-55" fill="#EEA289" fill-rule="nonzero" points="429.418531 636 391 639.329838 391.60639 668 430 666.991602 429.418531 636"></polyline>
                <path d="M402.32373,669.007229 C385.4195,673.566773 337.196713,669.738782 319.648835,663.213757 C298.40845,655.307006 299.873596,613.610972 326.618865,619.58297 C350.865765,624.991978 376.340676,634.705608 401.07031,636.675238 C401.07031,636.675238 415.789524,647.86526 402.32373,669.007229" id="Fill-56" fill="#1C3552" fill-rule="nonzero"></path>
                <path d="M501.697991,639.80805 C498.132639,637.009702 494.096392,634.948339 490.203094,632.651175 C484.291674,629.156408 478.481159,625.492609 472.620191,621.918396 C460.662808,614.637281 447.965446,607.658736 437.000308,598.893506 C431.164567,594.225648 425.917445,588.789532 420.308743,583.845304 C412.858502,577.274129 405.332583,570.798458 398.243923,563.825829 C391.172082,556.875174 383.923654,550.592201 375.607302,545.17637 C367.644122,539.997185 358.840057,534.2847 349.893042,531.070529 C349.094201,530.781481 344.629103,531.386621 346.420188,532.780302 C349.876224,535.461172 354.156329,537.198836 357.982355,539.296541 C362.615631,541.833733 367.173226,544.506152 371.587872,547.394088 C379.954677,552.853023 387.177878,559.407295 394.333809,566.334285 C401.464513,573.230004 409.024067,579.65243 416.45749,586.205011 C422.074601,591.160226 427.431038,596.388431 433.174281,601.205039 C443.391033,609.787711 454.532758,617.244622 465.867886,624.23838 C471.888622,627.957961 478.085943,631.436669 484.367353,634.713383 C489.168806,637.222684 493.995485,639.794528 499.318287,640.979452 C499.772365,641.080873 502.984545,640.824787 501.697991,639.80805" id="Fill-57" fill="#095587" fill-rule="nonzero"></path>
                <path d="M345,573 C346.333333,573 346.333333,571 345,571 C343.666667,571 343.666667,573 345,573" id="Fill-58" fill="#346AA5" fill-rule="nonzero"></path>
                <path d="M312.489484,526.072614 C273.391648,531.182809 283.505045,567.655671 297.205708,580.287727 C334.114133,614.296459 387.342093,639.908359 433.782878,657.934933 C435.365991,658.551812 479.364741,675.04507 486.724531,678 C477.587949,655.799127 498,640.332305 498,640.332305 C498,640.332305 446.01832,615.055499 411.156153,578.212848 C411.156153,578.212848 359.056582,516.16024 312.489484,526.072614" id="Fill-59" fill="#346AA5" fill-rule="nonzero"></path>
                <path d="M382.279171,348 C373.799893,339.737149 362.663552,331.065669 361.522431,329.769585 C356.516492,324.038736 355.400359,324.22425 353.501267,321.797538 C349.811365,317.097875 351.735445,317.903436 347.837309,313.311571 C337.517245,301.152948 328.546535,270.002637 335.40159,275.685853 C354.86728,291.814623 365.695435,296.098135 368.827271,298.605904 C368.827271,298.605904 365.437225,283.326149 370.942926,285.448685 C370.942926,285.448685 373.899845,285.448685 377.28989,298.181396 C378.57261,303.006406 381.321295,305.734785 383.120435,312.777595 C383.120435,312.777595 388.667782,328.727536 391,342.972764 C391,342.972764 387.618284,346.427317 382.279171,348" id="Fill-60" fill="#F0AA93" fill-rule="nonzero"></path>
                <path d="M362.63155,533.965149 C380.111319,553.407072 400.746343,545.433384 418.091848,523.483177 C458.959097,471.784595 466.243034,431.119625 464.841631,409.713533 C466.201076,405.432482 452.312924,371.476609 423.848508,398.094015 C423.848508,398.094015 414.181347,390.899308 385.129515,466.676086 C385.129515,466.676086 377.870754,482.868355 368.656741,476.604748 C368.656741,476.604748 337.876234,506.435868 362.63155,533.965149" id="Fill-61" fill="#F0AA93" fill-rule="nonzero"></path>
                <path d="M449.111062,493 C449.111062,493 392.396804,484.114729 379,443.129487 L418.176013,348.469956 C418.176013,348.469956 429.284127,310.180349 462.457566,331.413829 C462.457566,331.413829 504.802536,359.949282 480.44852,404.699683 L449.111062,493" id="Fill-62" fill="#3C447F" fill-rule="nonzero"></path>
                <path d="M458.554457,318 L496,281.612083 L452.445543,237 L415,273.386236 C415,273.386236 453.31343,304.657063 458.554457,318" id="Fill-63" fill="#F0AA93" fill-rule="nonzero"></path>
                <path d="M450.117094,307 C437.209649,294.079999 415,274.282127 415,274.282127 L452.787014,238 L465.983559,251.358408 C466.264156,270.470588 463.033043,291.625592 450.117094,307" id="Fill-64" fill="#EA8A74" fill-rule="nonzero"></path>
                <path d="M371.106926,286.476333 C388.07268,296.168882 419.459747,310.315244 436.974964,304.738061 C458.218083,297.969988 458.95352,246.943158 452.266967,227.695632 C443.906663,203.608584 414.244067,184.816822 390.786186,176.745606 C364.056883,167.548488 335.138176,182.157363 327.293523,210.1032 C319.457323,238.028781 348.874773,273.763092 371.106926,286.476333" id="Fill-65" fill="#ED9E86" fill-rule="nonzero"></path>
                <path d="M388.213803,176.300626 C383.148108,174.713746 378.023898,173.974301 373,174.000681 L422.812668,212.666146 L443.393099,224.919333 L451,227 C450.740864,226.161633 450.473369,225.354591 450.197514,224.615146 C441.361805,201.295017 411.586218,183.636546 388.213803,176.300626" id="Fill-66" fill="#EA8A74" fill-rule="nonzero"></path>
                <path d="M422.936932,184.103698 C433.645554,182.516603 448.817503,199.422071 445.547759,215.971066 C439.874038,216.497882 430.78768,209.693317 425.988133,206.75179 C421.264235,203.870091 416.91018,200.899482 415.153429,195.458489 C414.632287,193.784145 415.035751,185.29028 422.936932,184.103698" id="Fill-67" fill="#ED9E86" fill-rule="nonzero"></path>
                <path d="M428.092832,203.134109 C429.881003,205.119726 431.050481,206.864463 433.532793,205.534421 C434.928622,204.787216 435.328508,203.419388 434.732452,201.700156 C434.06849,199.77405 432.62739,198.15495 431.412642,196.76634 C430.409154,195.611999 429.307581,194.49261 427.964567,194.034463 C427.821212,193.984397 426.915809,193.922996 427.006349,194.373586 C427.134614,195.043331 427.662766,195.680958 428.055107,196.137215 C429.00578,197.249048 430.046993,198.226743 430.959941,199.397142 C431.759713,200.412622 432.68775,201.713382 432.861286,203.177562 C432.951826,203.907763 432.58212,204.359297 432.099239,204.654023 C431.307012,205.132007 430.069628,203.344762 429.330216,202.689187 C429.013325,202.406741 427.587316,202.574887 428.092832,203.134109" id="Fill-68" fill="#EA8A74" fill-rule="nonzero"></path>
                <path d="M426.807887,197.196852 C426.176314,195.241659 427.821725,192.877537 430.007298,193.07641 C431.444956,193.206597 432.841062,194.338341 433.879832,195.21051 C435.84103,196.863 436.613875,199.62487 437.777297,201.778138 C437.9435,202.07605 438.915789,202.096017 438.957339,201.702262 C439.455949,197.384544 435.500313,193.383107 431.461576,192.21063 C428.220614,191.269773 423.35086,193.568403 425.553052,197.360584 C425.744186,197.69843 426.965779,197.678462 426.807887,197.196852" id="Fill-69" fill="#EA8A74" fill-rule="nonzero"></path>
                <path d="M346,177.039606 C346.32015,179.402136 347.406978,181.720507 348.62018,183.520004 C350.68431,188.92444 361.459907,207.593692 362.92586,210.751091 C366.894043,219.312927 375.495986,217.238282 382.800476,215.185718 C385.100505,214.542009 387.400535,213.861784 389.717415,213.224869 C396.676479,211.313275 403.728219,209.831386 410.990584,211.000762 C415.784419,211.775251 427.276142,217.005596 431,211.552755 C425.540589,207.880728 415.211518,198.997038 418.615225,189.670055 C418.8427,188.386034 421.22698,184.985757 429.289722,185.726277 C429.289722,185.726277 384.038953,136.436702 346,177.039606" id="Fill-70" fill="#9A4A3E" fill-rule="nonzero"></path>
                <path d="M363.530864,212.816754 L345.155867,176 C331.342702,177.387373 318.363605,203.717166 318.355094,203.720533 C313.869859,212.823489 307.605849,245.567359 330.083092,269.513023 C330.083092,269.513023 363.045743,312.258948 400,299.685032 C372.620487,289.005286 356.211504,279.58832 345.743117,260.263585 C351.632649,255.262137 359.130737,239.08004 359.803097,232.573359 C360.535033,225.431078 362.72233,216.735579 361.913796,209.583197" id="Fill-71" fill="#9A4A3E" fill-rule="nonzero"></path>
                <path d="M402.24326,256.707845 C404.360789,258.026523 408.420051,254.757748 411.320666,249.391114 C414.229272,244.036508 414.868526,238.616612 412.750997,237.293639 C410.633468,235.969806 406.574205,239.247172 403.67359,244.608651 C400.772976,249.970989 400.133722,255.384871 402.24326,256.707845" id="Fill-72" fill="#EA9387" fill-rule="nonzero"></path>
                <path d="M382.674845,292.648888 C385.087999,293.938832 389.194915,291.56399 391.853938,287.336167 C394.522067,283.117587 394.73151,278.64354 392.318356,277.352756 C389.914308,276.05861 385.807392,278.436813 383.139263,282.661275 C380.48024,286.887418 380.270796,291.354741 382.674845,292.648888" id="Fill-73" fill="#EA9387" fill-rule="nonzero"></path>
                <path d="M380.431799,261.451993 C382.470354,261.436078 384.749752,264.197826 385.876548,265.626028 C387.158172,267.251078 387.794683,269.240509 388.336577,271.188057 C389.102111,273.89452 389.695615,276.815423 392.774951,277.733493 C397.832633,279.239596 403.845082,274.018493 406.855606,270.688814 C407.21687,270.28674 406.838403,269.986859 406.399727,269.867074 C405.943848,269.741427 405.582585,269.675252 405.1009,269.701219 C404.920269,269.712109 404.455788,269.732212 404.378374,269.965081 C404.369773,270.002775 404.35257,270.041307 404.343969,270.079839 C404.283758,270.255747 404.309563,270.36883 404.455788,270.496154 C404.533202,270.560653 404.602014,270.624315 404.679427,270.688814 C404.679427,270.486939 404.679427,270.285065 404.679427,270.082352 C401.926947,273.166598 394.288815,280.645182 391.15787,274.482554 C389.514983,271.256745 389.360156,267.850839 386.951736,264.926586 C385.377661,263.02092 382.995046,260.765116 380.302776,261.019763 C379.778085,261.070022 380.010325,261.455344 380.431799,261.451993" id="Fill-74" fill="#EA8A74" fill-rule="nonzero"></path>
                <path d="M393.559114,231.035142 C386.476651,233.626883 379.574947,241.131749 382.828607,249.451853 C383.132611,250.227039 385.474261,250.192828 385.56464,249.267445 C385.901509,245.680229 385.145608,242.688796 386.608112,239.174175 C388.070616,235.650376 391.422872,233.321481 394.717614,231.778619 C395.646058,231.340543 394.027444,230.865753 393.559114,231.035142" id="Fill-75" fill="#9A4A3E" fill-rule="nonzero"></path>
                <path d="M364.963213,279.477837 C365.278802,276.176898 366.250481,273.076992 368.185535,270.433979 C370.178724,267.712641 373.126982,266.789283 375.743042,265.002617 C376.822686,264.259406 374.173406,263.925221 373.816293,264.013989 C367.039452,265.665764 362.546472,272.385127 363.036464,279.477837 C363.086294,280.175794 364.896774,280.172313 364.963213,279.477837" id="Fill-76" fill="#9A4A3E" fill-rule="nonzero"></path>
                <path d="M397.999628,239 C397.999628,239 398.130892,244.814379 393.45946,247.666667 M378.540169,272.333333 C378.540169,272.333333 378.671432,278.147158 374,281" id="Stroke-77" stroke="#6C4634" stroke-width="2.646" stroke-linecap="round" stroke-linejoin="round"></path>
                <path d="M414.025125,273.185074 C413.525822,274.145466 412.868011,274.967196 412.186422,275.80941 C411.385952,276.802104 410.839097,277.941339 410.18921,279.03409 C409.016244,281.019479 408.263327,283.086016 408.065191,285.384181 C407.96216,286.651836 407.922533,288.166088 408.405985,289.36126 C408.730928,290.177475 410.252614,290.134931 410.807395,289.66222 C410.918351,289.564526 410.965903,289.447136 410.9025,289.306898 C410.878724,289.261991 410.862873,289.217083 410.839097,289.172176 C410.72814,288.923214 410.260539,288.930305 410.046552,288.952365 C410.862873,288.868852 410.522079,289.092602 410.371495,288.266145 C410.284316,287.744587 410.27639,287.202545 410.252614,286.675471 C410.197136,285.06195 410.387346,283.525637 410.894575,281.988537 C411.901106,278.957669 414.112305,276.390058 414.992029,273.314282 C415.09506,272.932173 414.167783,272.910113 414.025125,273.185074" id="Fill-78" fill="#EA8A74" fill-rule="nonzero"></path>
                <path d="M430,328.50589 C436.8242,374.723092 432.560125,384.136724 433.416297,416.661906 C433.894746,434.899397 460.805428,432.509128 468.37668,449.184561 C475.452696,464.783235 479.297079,478.856922 483.376489,495.120356 C487.271236,510.643202 487.262842,516.377489 503.647636,522.251636 C519.318954,527.864597 529.618207,526.802162 545.969426,528.212563 C562.765519,529.662565 581.10608,536.203156 598.019687,534.805392 C624.745704,532.593741 626.466443,511.030768 627.540856,490.622067 C630.831245,428.361333 631.956021,363.449987 592.16078,311.153903 C578.974043,293.835616 560.541149,279.861348 539.91746,272.832929 C524.623867,267.624384 500.944817,265.972175 485.432983,271.161342 C482.872859,272.017356 468.37668,313.100156 446.208524,303.685681 L430,328.50589" id="Fill-79" fill="#455091" fill-rule="nonzero"></path>
                <path d="M354.021159,523.779876 C345.259436,426.205275 367.085587,395.740503 379.29441,342.176917 C379.29441,342.176917 386.205064,340.861088 391.305785,345.406452 C404.238581,407.870151 396.957713,485.882808 396.957713,485.882808 C396.957713,485.882808 394.481395,537.133826 354.021159,523.779876" id="Fill-80" fill="#F0AA93" fill-rule="nonzero"></path>
                <path d="M521.844311,539.738333 C419.581792,552.388809 407.300223,553.759985 354.138813,546.945708 C358.073277,551.197627 347.150734,541.965326 350.732858,534.870022 C426.611815,528.637328 485.880454,499.04795 485.880454,499.04795 C485.880454,499.04795 524.755311,495.941367 521.844311,539.738333" id="Fill-81" fill="#F0AA93" fill-rule="nonzero"></path>
                <path d="M370.527525,536.146177 L347.34384,524.161762 C347.34384,524.161762 339.181286,521.233543 330.163527,522.193133 L288.089117,529.361155 C288.089117,529.361155 282.187353,532.152769 290.222897,535.633278 C290.222897,535.633278 346.463232,554.759733 373,548.875637 L370.527525,536.146177" id="Fill-82" fill="#F0AA93" fill-rule="nonzero"></path>
                <path d="M575.099517,313.429694 C581.112671,318.936876 583.226734,328.288741 585.423057,335.92055 C587.273892,342.346152 588.960207,349.965449 586.303232,356.334326 C585.965969,357.145973 587.792125,357.065058 588.14584,356.869029 C593.690115,353.848504 589.667637,341.728033 588.425521,337.167632 C587.380828,333.327954 585.867258,329.603391 584.551109,325.854637 C582.798986,320.883825 580.652019,316.138239 576.242921,313.097695 C575.955013,312.899163 574.630639,313 575.099517,313.429694" id="Fill-83" fill="#3C447F" fill-rule="nonzero"></path>
                <path d="M492.667018,537.209245 C514.978069,551.407803 532.93388,538.139193 543.902632,512.173083 C569.736927,451.012977 565.814664,409.564575 558.649319,389.152041 C558.810624,384.628651 536.066597,355.372343 515.529903,388.845428 C515.529903,388.845428 500.9615,399.266914 493.176403,480.646656 C493.176403,480.646656 494.042357,493.482301 473.344358,502.893815 C473.344358,502.893815 461.076676,517.10164 492.667018,537.209245" id="Fill-84" fill="#F0AA93" fill-rule="nonzero"></path>
                <path d="M576.507303,474.990269 C576.507303,474.990269 511.722343,476.698302 487,434.856539 L500.552812,340.707111 C500.552812,340.707111 507.593561,303.612873 546.98483,305.040157 C546.98483,305.040157 589.288066,311.277167 591,362.27691 L576.507303,474.990269" id="Fill-85" fill="#455091" fill-rule="nonzero"></path>
                <path d="M393.802422,207.427048 C400.310661,210.323195 404.842885,212.361847 409.602141,217.67243 C417.043733,225.974996 421.542323,237.28468 429.07641,245.28376 C434.466308,251.007958 441.403386,252.696046 447.129628,257.526599 C452.780193,262.283173 457.009708,269.159104 460.432,275.607129 C466.536628,287.129504 470.942723,301.170561 474.27252,313.135975 C477.560275,324.992942 481.470264,342.132748 493.536574,347.956987 C499.515074,350.846408 507.780707,351.666913 514.465527,350.46642 C524.539005,348.654752 522.411634,345.631663 524.412876,336.708674 C525.699388,330.943283 528.566714,324.10266 534.393859,320.528925 C541.372979,316.252379 545.106388,320.562552 550.992393,313.522688 C555.314403,308.352499 569.29787,290.171929 568.995161,284.667149 C568.129077,268.748011 554.6249,260.708578 544.366433,254.964203 C530.172752,247.025652 508.747694,241.32079 498.245379,229.091401 C491.400796,221.111656 482.605422,215.050345 475.920602,206.913392 C469.12647,198.653701 464.720375,188.713486 457.858975,180.493307 C446.196276,166.522868 427.251748,158.519583 409.568507,156.000903 C392.599995,153.579741 372.057837,155.107258 357.788479,165.531705 C351.179335,170.362258 347.378658,179.708951 352.112688,187.561754 C356.737406,195.238013 393.802422,207.427048 393.802422,207.427048" id="Fill-86" fill="#9A4A3E" fill-rule="nonzero"></path>
                <path d="M506.205165,360.434587 C502.667672,374.47326 498.343109,388.319728 495.393756,402.500429 C492.418457,416.788289 491.043245,431.38657 491,445.965291 C492.340615,445.877693 493.67258,445.790945 495.013195,445.703347 C494.918055,445.067197 494.632633,444.529701 494.148282,444.089158 C493.707176,443.515943 492.38386,443.515943 491.942755,444.089158 C491.458404,444.529701 491.164333,445.067197 491.069193,445.703347 C490.567543,447.314133 495.082388,447.450207 495.082388,445.965291 C495.125633,432.064394 495.445651,417.782486 497.945249,404.072094 C500.626479,389.384513 505.297007,375.122167 507.995535,360.434587 C508.099324,359.880932 506.36085,359.829904 506.205165,360.434587" id="Fill-87" fill="#3C447F" fill-rule="nonzero"></path>
                <path d="M589.397447,364.315328 C583.465193,385.470135 583.424168,408.109076 579.493948,429.704063 C578.115499,437.314465 577.098072,444.701403 576.211926,452.408778 C575.809878,455.928536 574.332969,474.616814 568.490971,473.367949 C568.080718,473.281093 565.077669,473.522266 566.283812,474.478519 C573.028366,479.79273 577.393454,469.876862 578.665238,464.796234 C580.962652,455.597979 580.626245,446.035436 582.267256,436.746952 C584.326724,425.016394 586.074401,413.433405 587.272338,401.546844 C588.511301,389.20661 589.266166,376.699411 590.997432,364.424108 C591.071278,363.908035 589.528728,363.85238 589.397447,364.315328" id="Fill-88" fill="#3C447F" fill-rule="nonzero"></path>
                <path d="M551.943038,642.110582 C547.841858,635.305678 539.949814,627.427918 531.068119,629.272507 C526.086319,630.30834 522.085782,632.505885 517.909122,635.302387 C515.527251,636.892748 513.204088,638.524247 510.688027,639.906454 C508.146806,641.304294 505.42946,641.855531 502.745662,642.863391 C500.925711,643.546267 502.888238,644.783672 503.861115,644.89721 C511.702838,645.816213 518.227823,640.383645 524.165726,636.153925 C528.19981,633.274327 532.720333,630.277898 537.744067,632.349564 C542.583291,634.345537 546.650923,638.279892 549.670196,642.411705 C550.097926,642.99832 552.387541,642.849404 551.943038,642.110582" id="Fill-89" fill="#095587" fill-rule="nonzero"></path>
                <path d="M402.565476,669.760789 C396.572237,657.373245 399.946581,631.535964 399.946581,631.535964 L420.880947,620.49786 C446.717347,600.335463 477.380234,587.231928 502.679424,566.403236 C522.262374,550.271466 541.434023,523.350926 569.89771,526.210691 C589.144905,528.143876 602.415648,542.664238 613.462009,557.237668 C631.86142,581.52419 658,601.332801 658,634.630743 C658,662.754154 620.831847,683.859135 600.778839,680.683491 C585.955226,678.329976 563.68623,659.59367 555.451823,648.294439 L533.342312,620.918191 C533.342312,620.918191 524.553906,649.665779 439.171238,667.695353 C439.171238,667.695353 413.796503,673.14365 402.565476,669.760789" id="Fill-90" fill="#346AA5" fill-rule="nonzero"></path>
                <path d="M553.334537,527.015565 C547.440481,528.622151 542.50358,531.965496 537.566679,535.445732 C530.707072,540.283966 524.03218,545.180988 516.895503,549.621985 C506.072942,556.364942 495.989237,564.55324 486.224584,572.72978 C475.183725,581.971218 464.780968,591.813132 453.118799,600.308805 C446.401926,605.203308 439.441567,609.763559 432.472812,614.290218 C425.352927,618.911777 418.191061,623.262073 412.171064,629.230712 C411.381832,630.015109 413.556419,630.109169 413.967828,629.910971 C428.501461,622.989969 442.111523,613.539415 455.318574,604.321491 C467.383757,595.893004 477.929246,586.056129 488.902937,576.321713 C498.314954,567.966291 507.953667,559.720045 518.21369,552.415244 C523.83907,548.415155 529.607185,544.753517 535.047851,540.488044 C540.815965,535.973983 546.785586,529.902885 553.787926,527.397686 C554.35886,527.194448 553.6284,526.933263 553.334537,527.015565" id="Fill-91" fill="#095587" fill-rule="nonzero"></path>
                <path d="M648.914121,589.032362 C642.709922,578.50517 632.993913,569.40077 624.398338,560.747359 C619.899875,556.212 615.367968,551.961692 610.451433,547.865821 C606.086754,544.233262 600.42605,541.887131 596.328937,538.03031 C596.262045,537.968699 595.935948,538.006487 596.011202,538.094385 C598.962795,541.583186 602.767257,543.649193 606.044946,546.814334 C610.259119,550.867488 613.837821,555.611503 618.010187,559.729553 C627.717835,569.32273 636.154542,580.071721 645.820383,589.66079 C646.388962,590.225143 649.557953,590.130673 648.914121,589.032362" id="Fill-92" fill="#095587" fill-rule="nonzero"></path>
                <path d="M376.240119,641.10828 C370.726479,647.647339 370.113852,654.551006 371.886757,662.551067 C372.016708,663.145368 373.845305,663.153906 373.798894,662.551067 C373.576121,659.191878 372.954212,655.913808 373.065599,652.534127 C373.186267,648.551603 374.931326,644.644221 376.982697,641.200499 C377.12193,640.958849 376.379352,640.945188 376.240119,641.10828" id="Fill-93" fill="#FFFFFE" fill-rule="nonzero"></path>
                <path d="M361.001441,639.07476 C357.412258,641.22871 356.124085,644.868554 355.612749,648.472655 C355.327581,650.465761 355.347249,652.498866 355.278415,654.503886 C355.229248,656.032332 354.481911,657.636518 355.661916,658.841573 C355.858584,659.043266 356.320753,659.044117 356.556754,658.890933 C358.965932,657.320787 357.88426,652.918422 357.953093,650.527886 C358.080928,646.194455 359.349433,642.878001 361.965111,639.247518 C362.201113,638.92583 361.168608,638.97604 361.001441,639.07476" id="Fill-94" fill="#FFFFFE" fill-rule="nonzero"></path>
            </g>
        </g>
    </g>
</svg>