<?xml version="1.0" encoding="UTF-8"?>
<svg width="1208px" height="1093px" viewBox="0 0 1208 1093" version="1.1" xmlns="http://www.w3.org/2000/svg" xmlns:xlink="http://www.w3.org/1999/xlink">
    <title>Group</title>
    <g id="Page-1" stroke="none" stroke-width="1" fill="none" fill-rule="evenodd">
        <g id="Group" transform="translate(0.687938, 0.058016)">
            <path d="M1206.54026,1004.85652 C1206.54026,1052.98379 988.321325,1092 719.134057,1092 C449.94679,1092 231.727855,1052.98379 231.727855,1004.85652 C231.727855,956.730529 449.94679,917.714315 719.134057,917.714315 C988.321325,917.714315 1206.54026,956.730529 1206.54026,1004.85652" id="Fill-45" fill="#34396D" fill-rule="nonzero"></path>
            <path d="M361.131568,396.712623 C213.671523,434.35931 -82.8680277,284.258399 21.9632621,98.0282454 C107.922114,-54.6752776 309.589411,-10.4053847 400.432144,104.266351 C473.843376,196.922368 509.637249,358.795601 361.131568,396.712623" id="Fill-46" fill="#00B0B5" fill-rule="nonzero"></path>
            <polyline id="Fill-47" fill="#00B0B5" fill-rule="nonzero" points="364.574513 337.825517 401.375766 453.618123 293.063277 362.31378 364.574513 337.825517"></polyline>
            <path d="M297.42434,123.333889 C322.43032,143.674041 329.851778,173.577928 324.52159,204.517249 C319.267911,235.065095 303.92768,265.695826 280.120355,285.849804 C269.370717,294.948104 256.38954,301.4999 242.349977,303.299158 C227.825851,305.159623 213.837294,299.789905 202.054772,291.670931 C174.039404,272.375139 151.736773,235.131403 162.70319,200.781017 C168.135391,183.756293 181.116568,169.575186 194.123248,157.819443 C206.811137,146.354437 225.160757,133.536482 242.974808,139.358884 C268.733134,147.778796 276.473384,183.84938 277.799555,207.279256 C278.934452,227.192228 275.657279,254.090552 256.976116,265.667772 C236.165428,278.566063 207.780262,260.766039 190.259499,249.345664 C169.13002,235.57261 144.927394,214.848634 142.568339,187.966887 C141.484449,175.583762 146.36833,161.771178 155.498509,153.284957 C163.812583,145.56511 175.416582,144.196858 186.013201,147.108059 C211.848037,154.212002 224.739952,182.2669 226.588941,206.989794 C228.718466,235.502476 213.544006,260.8502 187.046084,271.68655 C162.091111,281.886592 132.711316,269.772528 118.250948,248.161036 C101.992599,223.874249 108.776475,192.802311 122.127449,168.996261 C136.549562,143.277465 160.267625,121.496376 187.568901,110.209894 C199.058135,105.457355 211.873541,103.250045 224.013109,106.650909 C235.553349,109.887277 245.193594,117.953969 253.06136,126.706699 C269.842528,145.382762 279.750557,171.076055 284.64719,195.38962 C288.791475,215.975879 288.090135,237.35274 282.109612,257.529671 C277.174725,274.196074 265.519719,297.333937 244.721783,293.995556 C232.199666,291.985897 220.901707,283.027865 212.141325,274.417953 C201.914504,264.363279 193.919222,251.777403 189.124602,238.279785 C184.674278,225.790822 184.253473,211.686225 190.527284,199.785113 C196.724584,188.07145 207.716504,178.729594 218.427887,171.319612 C239.633876,156.661593 272.354602,145.035917 294.912266,163.036142 C316.93436,180.60026 321.1169,212.276626 317.01087,238.365221 C312.52229,266.888105 296.812261,294.52985 271.959301,309.921088 C256.211017,319.670997 239.009045,320.362137 223.541298,309.608673 C211.529246,301.260169 204.541344,287.257586 199.823234,273.830102 C189.468897,244.332992 192.108488,212.860652 204.74537,184.489513 C217.241984,156.407836 239.825151,133.397489 267.738506,120.573157 C279.903577,114.987936 292.833747,111.283582 305.980695,115.37176 C317.214896,118.864437 326.141049,128.013743 332.695396,137.400231 C360.379221,177.108859 359.027547,235.457846 334.072574,276.042512 C328.334332,285.356315 320.657841,293.695892 310.902831,298.819504 C300.510239,304.273384 289.492816,303.515936 278.577406,300.208159 C249.835194,291.497509 227.558066,265.26227 217.292991,237.887034 C208.762139,215.1687 211.631259,192.447815 220.786942,170.641224 C229.623833,149.585704 242.145951,128.699782 258.901615,113.010155 C265.468713,106.866412 273.553257,100.843809 282.70894,99.6961608 C291.864622,98.5497877 300.331716,107.260438 305.470629,113.640087 C322.149784,134.358963 324.483335,163.984864 322.863876,189.489433 C321.129652,216.7142 313.771952,242.513332 298.049171,264.967707 C281.255252,288.939528 253.953976,309.117734 223.566801,299.930173 C211.618508,296.315081 200.078267,288.539126 189.252119,282.327799 C177.813892,275.759426 166.719959,268.466759 156.862936,259.661747 C148.281077,252.006933 140.17103,242.19199 139.061636,230.341885 C138.589825,225.437601 139.86499,220.245131 142.045522,215.870041 C142.683104,214.571923 143.664981,213.108034 144.927394,212.327633 C145.998532,211.663272 144.761623,211.895352 146.024036,212.239647 C158.546153,215.663464 174.995778,240.381256 163.774328,251.834786 C156.952197,258.786984 140.974383,237.360391 137.556942,232.042954 C127.419383,216.247489 121.655638,197.426058 124.588517,178.658184 C126.424754,166.913918 135.503927,154.782001 142.593843,145.701553 C151.354224,134.469902 162.333392,124.342544 174.536718,116.952965 C184.534009,110.902308 197.119885,105.558093 208.991668,108.331576 C219.486274,110.784993 228.616453,117.010347 235.311068,125.365226 C249.618416,143.211156 253.010354,167.983781 252.857334,190.139767 C252.717066,211.330454 249.070095,233.802682 239.531863,252.898273 C232.786242,266.390791 225.237267,278.216668 212.868169,287.238458 C202.195041,295.018238 188.869569,298.508364 175.78638,297.08528 C144.863636,293.722671 121.604632,268.322665 117.345582,238.301463 C113.571094,211.631393 122.841541,184.018977 135.542182,160.890039 C145.973029,141.905387 160.68843,123.345365 178.795768,111.217274 C185.069579,107.015606 192.809828,103.202864 200.014509,107.013056 C208.800394,111.661031 213.556758,123.465231 216.28561,132.451316 C222.393649,152.551738 220.825197,175.697252 216.986951,196.038679 C213.11045,216.645341 205.000403,239.477165 188.066216,252.968407 C181.282339,258.378931 172.674978,261.491608 164.131374,259.094298 C151.9408,255.671756 141.331429,245.766277 133.527422,236.199991 C125.544891,226.408002 119.016047,214.46991 118.212694,201.65833 C117.25632,186.235213 130.722059,171.618 140.438814,161.081314 C151.647512,148.920068 164.437414,137.639962 177.622617,127.6771 C189.239367,118.906517 204.311814,110.45345 219.294999,114.48042 C241.342597,120.412486 253.609681,146.522759 260.623087,166.034054 C268.197565,187.135479 273.081446,211.460521 270.174071,233.894494 C267.15193,257.152223 256.912358,284.102828 236.854017,297.833802 C212.192332,314.716982 184.138708,280.123039 173.950142,261.086106 C158.635414,232.516041 165.02399,200.270951 184.789042,175.76101 C200.422562,156.387433 220.378889,138.403785 241.763401,125.681467 C252.05398,119.558126 263.82375,114.110623 276.027077,114.233038 C287.095506,114.343978 297.067294,122.508857 303.251843,131.051186 C317.699459,150.993486 315.799463,179.077714 311.349139,201.93249 C307.855187,219.8103 301.594129,237.262204 293.39482,253.502701 C284.086117,271.912254 270.977424,290.675027 250.26875,296.862126 C237.402338,300.709298 222.610427,296.454074 209.948042,293.609181 C198.280285,290.989993 186.727293,288.99436 174.779,288.33255 C164.756205,287.776578 150.601877,288.936978 142.03277,282.72055 C133.042859,276.190431 137.161641,260.137383 138.500564,251.100291 C139.125395,246.919026 125.914688,246.343927 125.213348,251.100291 C123.45362,263.048584 118.824773,280.694313 132.252257,287.981879 C145.641486,295.249043 161.734065,294.839715 176.525975,295.655821 C194.365529,296.638973 211.427233,302.77379 229.139271,304.78345 C245.461379,306.636264 261.770735,304.103787 275.568017,294.792534 C296.952529,280.374247 309.245117,255.127261 317.750465,231.512486 C326.230311,207.920664 331.675264,181.659922 327.786012,156.606761 C324.304812,134.095004 309.72968,113.15935 286.406917,108.297147 C260.508322,102.895549 235.323819,116.553838 215.125211,131.384004 C195.054118,146.113431 174.307189,165.174593 161.428025,186.692997 C145.832761,212.752263 147.439468,244.005275 163.162249,269.511119 C177.393087,292.573748 203.865506,314.784566 232.735235,308.824446 C256.746586,303.865331 271.104941,281.512969 278.870694,259.904028 C286.929735,237.490458 287.082754,215.300042 282.568671,192.173655 C278.041837,169.051094 269.817024,144.740079 254.158002,126.701599 C236.777507,106.69554 211.695018,101.883068 187.160849,111.26828 C171.871624,117.117461 159.06897,128.701057 147.031416,139.423917 C134.343527,150.729527 122.050939,162.399834 112.321433,176.441948 C104.491921,187.751384 101.07448,198.826189 104.823464,212.277902 C108.35567,224.903307 115.713371,235.821267 124.665027,245.256211 C141.599214,263.114893 165.470297,272.80997 189.252119,263.613482 C208.609119,256.133366 219.805065,235.72818 226.091627,217.156682 C233.258053,195.953243 235.770127,172.680212 233.831877,150.410736 C232.237921,132.196283 225.989614,108.429764 207.384961,100.689514 C186.982326,92.1994675 166.171638,105.741717 151.915296,119.410207 C118.021419,151.905229 91.1154437,206.736036 106.34091,253.781962 C115.560351,282.25639 143.167667,300.200508 171.909879,303.974995 C199.733973,307.630892 226.04062,295.528304 242.719775,273.35064 C256.300279,255.301959 262.89288,232.027652 265.659988,209.922672 C268.516356,187.107426 267.202937,162.935404 258.761347,141.367268 C250.562038,120.422688 233.678857,105.88071 211.541998,101.58978 C185.350115,96.5095242 159.14548,113.23586 141.17841,130.502865 C131.49991,139.79754 123.058319,150.613487 116.656993,162.40366 C109.312044,175.933157 107.679833,189.801849 110.98251,204.901074 C114.323441,220.141842 122.52275,233.685367 132.979101,245.038158 C141.458946,254.241022 153.203213,262.806303 166.426671,259.725505 C188.385007,254.609544 179.293083,229.731081 168.925994,218.152585 C158.609911,206.632748 135.60594,197.82391 128.01871,217.113326 C118.710008,240.768906 140.273043,260.345235 157.564276,272.894131 C167.650829,280.213576 178.515232,286.47336 189.430642,292.43858 C201.621216,299.092389 213.199712,305.494991 227.009746,308.093777 C255.955984,313.534905 283.384777,299.006953 302.180705,277.873649 C320.555828,257.214706 330.24708,232.637181 334.50613,205.631743 C338.586657,179.710195 337.910819,151.512478 327.416214,127.118578 C318.796101,107.12272 301.045808,90.6271895 278.131098,93.4861087 C257.256652,96.0912702 241.21508,114.108072 229.560075,130.094812 C216.948696,147.402622 206.619862,167.409957 201.034641,188.135208 C186.62528,241.570985 231.421815,300.269366 284.060614,308.976191 C336.240354,317.605231 361.52687,262.534693 366.33424,219.576944 C371.192618,176.170338 351.287297,111.714588 300.420977,106.77715 C271.71702,103.992191 242.260715,120.631815 221.832577,139.458346 C199.925247,159.662056 185.54139,187.141855 180.415227,216.397959 C175.48034,244.655608 181.499117,277.201637 198.662834,300.581782 C218.198357,327.212321 254.553303,330.887346 281.982096,314.831747 C327.709502,288.064765 349.871864,215.741249 317.469929,171.058203 C282.887463,123.363218 206.811137,153.904687 179.369592,194.036671 C163.532047,217.177084 174.676986,246.576007 190.004466,266.837098 C205.038658,286.704164 228.66746,303.188218 254.540551,301.057418 C275.861305,299.301516 288.421677,280.390824 294.567971,261.830802 C301.084063,242.158836 302.295469,221.077813 299.018296,200.701957 C291.826367,156.027836 263.683482,98.8787802 211.656763,98.6658277 C184.38099,98.5548884 158.469643,114.025187 138.895865,131.781855 C117.906654,150.808587 100.806695,176.327183 96.5476453,204.744229 C92.5563798,231.423224 104.797961,255.874508 127.330121,270.079842 C149.135437,283.832494 178.387716,284.623096 201.18766,273.050976 C225.18626,260.878254 238.014417,236.660326 237.198311,210.126699 C236.445964,185.670315 224.472168,160.416953 202.768865,148.174097 C184.699781,137.985531 159.2985,137.947276 144.379073,153.664956 C126.284486,172.733769 130.926086,200.515782 145.195179,219.956943 C160.280377,240.48837 183.756159,255.516186 206.505097,266.244147 C226.066124,275.464863 251.505659,280.353844 269.62575,265.436968 C285.998864,251.954651 288.804227,226.999678 287.835102,207.279256 C286.66195,183.312536 279.100223,154.961799 258.442555,140.524384 C230.745978,121.169934 198.458808,142.530218 178.374964,162.612787 C166.719959,174.269067 155.89381,187.57031 151.55825,203.790405 C147.426717,219.242851 149.403222,234.598385 155.587771,249.207946 C167.638077,277.697676 194.110496,302.976541 225.160757,308.152435 C252.015725,312.629538 278.054588,300.010508 296.480718,281.143171 C317.571942,259.538056 330.17057,228.991485 333.792037,199.250819 C337.45176,169.159483 327.161181,140.611095 303.14983,121.691477 C301.568625,120.444366 295.154547,121.493826 297.42434,123.333889" id="Fill-48" fill="#007A7E" fill-rule="nonzero"></path>
            <polyline id="Fill-49" fill="#EEA289" fill-rule="nonzero" points="725.560888 966.350371 780.39297 988.684881 766.289648 1031.30981 710.437434 1012.45523 725.560888 966.350371"></polyline>
            <path d="M750.031298,1026.43358 C772.295674,1040.61979 843.411609,1056.3668 871.6055,1054.55734 C905.754411,1052.36916 922.484572,990.516018 881.284,987.428844 C843.947178,984.634958 802.899626,987.600991 766.442668,979.536849 C766.442668,979.536849 740.187027,989.442329 750.031298,1026.43358" id="Fill-50" fill="#1C3552" fill-rule="nonzero"></path>
            <path d="M844.061943,1003.46914 C846.612272,1013.17314 842.518994,1024.6662 837.188805,1032.71249 C836.806256,1033.29014 838.514976,1033.30417 838.821016,1033.05041 C845.502879,1027.42821 850.450518,1011.20174 845.82167,1003.3531 C845.579389,1002.94505 843.908923,1002.90934 844.061943,1003.46914" id="Fill-51" fill="#FFFFFE" fill-rule="nonzero"></path>
            <path d="M823.493536,1000.01982 C824.169374,1004.73028 823.786824,1009.19591 822.307633,1013.71764 C821.083475,1017.4883 818.469387,1021.1595 817.882812,1025.0564 C817.780799,1025.80748 819.7318,1025.70546 820.050592,1025.34332 C825.623061,1019.05165 829.117013,1007.58792 824.947224,999.922907 C824.755949,999.581163 823.417026,999.525056 823.493536,1000.01982" id="Fill-52" fill="#FFFFFE" fill-rule="nonzero"></path>
            <path d="M803.103653,995.697012 C802.517077,999.336332 802.376809,1003.01646 801.76473,1006.65705 C800.986879,1011.14563 799.635205,1013.8324 796.727829,1017.07387 C796.409038,1017.43219 796.931856,1017.6375 797.237895,1017.68085 C805.883512,1018.90501 806.406329,1000.88566 805.628479,995.697012 C805.500962,994.818423 803.243921,994.823524 803.103653,995.697012" id="Fill-53" fill="#FFFFFE" fill-rule="nonzero"></path>
            <path d="M755.425245,779.758071 C755.425245,779.758071 835.747869,783.125781 940.030838,780.414781 C980.989128,843.057247 1005.75283,896.925304 998.050832,960.632533 C998.050832,960.632533 981.77973,1012.19509 902.222205,1017.04199 L741.870244,992.08447 L600.173943,997.307545 C600.173943,997.307545 462.213874,846.223481 550.735807,819.761263 L721.748145,841.904498 L755.425245,779.758071" id="Fill-54" fill="#346AA5" fill-rule="nonzero"></path>
            <polyline id="Fill-55" fill="#EEA289" fill-rule="nonzero" points="651.065766 963.585814 592.089399 968.798688 593.020269 1013.68193 651.958381 1012.10328 651.065766 963.585814"></polyline>
            <path d="M610.005463,1013.81328 C584.553175,1020.81521 511.945297,1014.9367 485.523885,1004.91645 C453.542754,992.774334 455.748789,928.743214 496.01849,937.914199 C532.526456,946.220621 570.88341,961.137498 608.118219,964.162189 C608.118219,964.162189 630.280581,981.346308 610.005463,1013.81328" id="Fill-56" fill="#1C3552" fill-rule="nonzero"></path>
            <path d="M760.449394,970.129959 C755.042695,965.907889 748.921905,962.797762 743.017892,959.331865 C734.053484,954.059059 725.242096,948.53122 716.354198,943.138548 C698.221356,932.153004 678.966369,921.62397 662.338222,908.399236 C653.488579,901.356502 645.531551,893.154642 637.026203,885.694929 C625.728243,875.780523 614.315519,866.010212 603.565881,855.490103 C592.841746,845.003148 581.849826,835.523574 569.238447,827.352319 C557.162638,819.538109 543.811663,810.919271 530.243911,806.06982 C529.032504,805.633713 522.26138,806.546731 524.977481,808.649478 C530.218407,812.6943 536.708996,815.316039 542.510995,818.480998 C549.537153,822.309042 556.448545,826.341113 563.14316,830.698351 C575.831049,838.93464 586.784713,848.823542 597.636365,859.274792 C608.449762,869.67886 619.913492,879.368837 631.185948,889.255189 C639.704048,896.731479 647.826848,904.619648 656.536222,911.886812 C672.029474,924.836109 688.925406,936.086888 706.114626,946.638875 C715.244805,952.250875 724.642769,957.499453 734.168249,962.443267 C741.44944,966.229231 748.768885,970.109557 756.840678,971.897338 C757.529267,972.050358 762.400396,971.663983 760.449394,970.129959" id="Fill-57" fill="#095587" fill-rule="nonzero"></path>
            <path d="M522.631177,867.93061 C525.219762,867.93061 525.219762,865.812561 522.631177,865.812561 C520.042593,865.812561 520.042593,867.93061 522.631177,867.93061" id="Fill-58" fill="#346AA5" fill-rule="nonzero"></path>
            <path d="M472.861499,798.599905 C413.655602,806.300625 428.97033,861.262773 449.71726,880.298432 C505.607729,931.547301 586.210889,970.142711 656.536222,997.307545 C658.933532,998.23714 725.560888,1023.09137 736.705827,1027.54425 C722.87029,994.089029 753.780282,970.781569 753.780282,970.781569 C753.780282,970.781569 675.064365,932.691124 622.272547,877.171728 C622.272547,877.171728 543.378107,783.662626 472.861499,798.599905" id="Fill-59" fill="#346AA5" fill-rule="nonzero"></path>
            <path d="M580.421642,528.982907 C567.440465,516.374078 550.391513,503.141694 548.644537,501.163914 C540.980798,492.418834 539.272077,492.701921 536.364701,488.998842 C530.715722,481.827316 533.661352,483.056575 527.693581,476.049545 C511.894291,457.495899 498.160767,409.961584 508.655372,418.633979 C538.455971,443.245933 555.033112,449.782427 559.827732,453.609197 C559.827732,453.609197 554.637811,430.29281 563.06665,433.531728 C563.06665,433.531728 567.593485,433.531728 572.783405,452.961413 C574.747159,460.324214 578.955202,464.487627 581.709558,475.234715 C581.709558,475.234715 590.202155,499.573783 593.772616,521.311516 C593.772616,521.311516 588.595447,526.583047 580.421642,528.982907" id="Fill-60" fill="#F0AA93" fill-rule="nonzero"></path>
            <path d="M549.639166,809.945045 C576.200846,839.606651 607.557146,827.44158 633.914801,793.953205 C696.015321,715.079168 707.083751,653.03858 704.954226,620.380336 C707.019993,613.848943 685.916017,562.044102 642.662431,602.652997 C642.662431,602.652997 627.972533,591.676379 583.826331,707.285361 C583.826331,707.285361 572.796157,731.989127 558.794848,722.433042 C558.794848,722.433042 512.021807,767.944946 549.639166,809.945045" id="Fill-61" fill="#F0AA93" fill-rule="nonzero"></path>
            <path d="M681.465692,748.355866 C681.465692,748.355866 595.2008,734.859522 574.823669,672.604707 L634.412115,528.820961 C634.412115,528.820961 651.308047,470.660699 701.766314,502.91344 C701.766314,502.91344 766.174883,546.257563 729.131349,614.231492 L681.465692,748.355866" id="Fill-62" fill="#3C447F" fill-rule="nonzero"></path>
            <path d="M695.734785,483.229997 L752.403104,428.034493 L686.489841,360.364053 L629.821522,415.557007 C629.821522,415.557007 687.803261,462.990583 695.734785,483.229997" id="Fill-63" fill="#F0AA93" fill-rule="nonzero"></path>
            <path d="M682.485824,465.32796 C663.128824,445.673847 629.821522,415.557007 629.821522,415.557007 L686.489841,360.364053 L706.280397,380.685078 C706.701202,409.758833 701.855576,441.940164 682.485824,465.32796" id="Fill-64" fill="#EA8A74" fill-rule="nonzero"></path>
            <path d="M561.510949,433.126226 C587.103505,447.770217 634.45037,469.143253 660.871782,460.716965 C692.916671,450.491419 694.026065,373.397512 683.939512,344.317381 C671.328133,307.925455 626.582604,279.533913 591.196783,267.339513 C550.876076,253.444044 507.252691,275.515869 495.419163,317.737848 C483.598386,359.929222 527.974118,413.91842 561.510949,433.126226" id="Fill-65" fill="#ED9E86" fill-rule="nonzero"></path>
            <path d="M589.0035,267.461929 C581.276002,265.007237 573.459242,263.863414 565.795503,263.90422 L641.782567,323.714545 L673.177122,342.668593 L684.78112,345.887108 C684.385819,344.590266 683.977767,343.34188 683.556962,342.198057 C670.078472,306.124923 624.657105,278.80962 589.0035,267.461929" id="Fill-66" fill="#EA8A74" fill-rule="nonzero"></path>
            <path d="M640.545657,280.036328 C656.791255,277.600764 679.807978,303.543989 674.847588,328.94017 C666.240226,329.748624 652.455695,319.3063 645.174505,314.792217 C638.008079,310.369946 631.402726,305.811232 628.737632,297.461454 C627.94703,294.891997 628.559109,281.857263 640.545657,280.036328" id="Fill-67" fill="#ED9E86" fill-rule="nonzero"></path>
            <path d="M647.903357,308.049146 C650.925498,310.729542 652.902003,313.084772 657.097295,311.28934 C659.45635,310.280685 660.132187,308.434246 659.124807,306.113446 C658.002662,303.513385 655.567097,301.327753 653.514082,299.453261 C651.818113,297.89501 649.956373,296.38394 647.686579,295.765485 C647.444298,295.697901 645.914101,295.615015 646.06712,296.223269 C646.283898,297.127361 647.176514,297.988097 647.839599,298.604001 C649.446307,300.10487 651.206034,301.424666 652.748983,303.004595 C654.100658,304.375397 655.66911,306.131299 655.962398,308.107804 C656.115418,309.093506 655.490587,309.703035 654.674482,310.100886 C653.335559,310.74612 651.244289,308.333508 649.994628,307.448544 C649.459058,307.067269 647.048997,307.294249 647.903357,308.049146" id="Fill-68" fill="#EA8A74" fill-rule="nonzero"></path>
            <path d="M645.659068,299.866414 C644.689942,296.744811 647.214768,292.970324 650.568452,293.28784 C652.774487,293.495692 654.916763,295.3026 656.510719,296.69508 C659.520108,299.333396 660.706011,303.742915 662.491242,307.180759 C662.746275,307.656396 664.238217,307.688275 664.301975,307.059618 C665.067074,300.166078 658.99729,293.777503 652.79999,291.905561 C647.826848,290.403417 640.354382,294.073341 643.733569,300.127823 C644.026857,300.667218 645.901349,300.635339 645.659068,299.866414" id="Fill-69" fill="#EA8A74" fill-rule="nonzero"></path>
            <path d="M523.090237,267.532063 C523.574799,271.079571 525.219762,274.560771 527.055999,277.262845 C530.180153,285.377993 546.489509,313.411214 548.708296,318.152276 C554.714321,331.008487 567.733753,327.893259 578.789431,324.811186 C582.27063,323.844611 585.75183,322.823204 589.258533,321.866831 C599.791393,318.996435 610.464522,316.771273 621.456442,318.527175 C628.712129,319.690125 646.105375,327.543864 651.741603,319.356032 C643.478536,313.84222 627.845017,300.502722 632.996682,286.497588 C633.340977,284.569539 636.949693,279.463779 649.153019,280.575723 C649.153019,280.575723 580.663923,206.563889 523.090237,267.532063" id="Fill-70" fill="#9A4A3E" fill-rule="nonzero"></path>
            <path d="M551.641174,323.039982 L524.110369,267.273205 C503.414445,269.374676 483.968184,309.256727 483.955432,309.261828 C477.235314,323.050184 467.850102,372.647715 501.527202,408.918499 C501.527202,408.918499 550.91433,473.666262 606.281982,454.620402 C565.259933,438.443663 540.674758,424.179671 524.990232,394.908265 C533.814372,387.332511 545.048573,362.821296 546.055953,352.965548 C547.152595,342.14705 550.429768,328.975874 549.218361,318.142075" id="Fill-71" fill="#9A4A3E" fill-rule="nonzero"></path>
            <path d="M610.439019,390.354652 C613.818205,392.31203 620.296042,387.460028 624.92489,379.494074 C629.566489,371.545972 630.586621,363.500958 627.207434,361.537205 C623.828248,359.572176 617.350411,364.436929 612.721563,372.395232 C608.092716,380.35481 607.072584,388.390898 610.439019,390.354652" id="Fill-72" fill="#EA9387" fill-rule="nonzero"></path>
            <path d="M579.733053,443.134994 C583.112239,445.092372 588.863232,441.488756 592.586713,435.073403 C596.322945,428.672076 596.616233,421.883099 593.237047,419.924446 C589.870612,417.960692 584.119619,421.569408 580.383387,427.979661 C576.659906,434.392465 576.366618,441.17124 579.733053,443.134994" id="Fill-73" fill="#EA9387" fill-rule="nonzero"></path>
            <path d="M578.279365,395.550948 C581.301505,395.52672 584.680692,399.730938 586.351157,401.905094 C588.251153,404.378913 589.194775,407.407429 589.998128,410.372187 C591.133025,414.492244 592.012889,418.938744 596.577978,420.336324 C604.075947,422.62907 612.989348,414.680969 617.452424,409.612189 C617.987994,409.00011 617.426921,408.543601 616.776587,408.361252 C616.10075,408.169978 615.565181,408.06924 614.851088,408.10877 C614.583304,408.125347 613.894715,408.155951 613.77995,408.510447 C613.767198,408.567829 613.741695,408.626487 613.728944,408.685144 C613.639682,408.952929 613.677937,409.125076 613.894715,409.318901 C614.00948,409.417089 614.111493,409.514001 614.226258,409.612189 C614.226258,409.304874 614.226258,408.99756 614.226258,408.68897 C610.145731,413.384126 598.822268,424.768797 594.180669,415.38741 C591.745104,410.476751 591.515574,405.291931 587.945113,400.840331 C585.611562,397.939331 582.079356,394.505313 578.08809,394.892963 C577.31024,394.969473 577.654534,395.556049 578.279365,395.550948" id="Fill-74" fill="#EA8A74" fill-rule="nonzero"></path>
            <path d="M596.935024,349.664146 C585.943105,353.624808 575.231721,365.093639 580.281373,377.808306 C580.753184,378.992934 584.387404,378.940653 584.527672,377.526495 C585.050489,372.044562 583.877338,367.473096 586.147131,362.102103 C588.416924,356.717082 593.619596,353.158097 598.733007,350.800318 C600.173943,350.130856 597.661868,349.405288 596.935024,349.664146" id="Fill-75" fill="#9A4A3E" fill-rule="nonzero"></path>
            <path d="M553.120365,423.800947 C553.604928,418.964247 555.096871,414.42211 558.068004,410.549435 C561.1284,406.561995 565.655234,405.209045 569.672003,402.591132 C571.329717,401.502142 567.261942,401.012478 566.713621,401.142545 C556.308277,403.562808 549.409636,413.408354 550.161983,423.800947 C550.238493,424.823629 553.018352,424.818528 553.120365,423.800947" id="Fill-76" fill="#9A4A3E" fill-rule="nonzero"></path>
            <path d="M603.311489,363.941984 C603.311489,363.941984 603.513853,372.663552 596.312062,376.941984 M573.311489,413.941984 C573.311489,413.941984 573.513853,422.662721 566.312062,426.941984" id="Stroke-77" stroke="#6C4634" stroke-width="2.646" stroke-linecap="round" stroke-linejoin="round"></path>
            <path d="M629.745012,414.294594 C628.941658,415.84902 627.883272,417.179016 626.78663,418.542167 C625.498714,420.148875 624.61885,421.992763 623.573215,423.761416 C621.685971,426.974832 620.474565,430.319589 620.155774,434.039244 C619.990002,436.090984 619.926244,438.541851 620.704094,440.476275 C621.226912,441.797346 623.675228,441.728487 624.567843,440.963388 C624.746367,440.805268 624.822876,440.615268 624.720863,440.388289 C624.682608,440.315605 624.657105,440.24292 624.61885,440.170236 C624.440327,439.767284 623.68798,439.77876 623.343685,439.814465 C624.657105,439.679297 624.108784,440.041444 623.866503,438.703796 C623.726235,437.859637 623.713483,436.982324 623.675228,436.129239 C623.585967,433.517702 623.892006,431.03113 624.708112,428.543284 C626.327571,423.637726 629.88528,419.481964 631.300713,414.503721 C631.466484,413.885266 629.974542,413.849561 629.745012,414.294594" id="Fill-78" fill="#EA8A74" fill-rule="nonzero"></path>
            <path d="M653.832873,499.028013 C664.199962,568.977172 657.722126,583.224587 659.022794,632.451045 C659.749637,660.053261 700.631418,656.435618 712.133403,681.673678 C722.883042,705.282077 728.723296,726.582428 734.920596,751.196932 C740.837361,774.690567 740.824609,783.369338 765.715824,792.259786 C789.523149,800.754933 805.16942,799.146951 830.009628,801.281576 C855.525674,803.476135 883.388022,813.375238 909.082591,811.25974 C949.683835,807.912433 952.297922,775.277143 953.930133,744.388828 C958.928779,650.157982 960.6375,551.915469 900.181941,472.765996 C880.149104,446.554985 852.146487,425.405104 820.81569,414.76768 C797.58219,406.884612 761.609794,404.384014 738.04475,412.237753 C734.155498,413.53332 712.133403,475.711626 678.456304,461.462936 L653.832873,499.028013" id="Fill-79" fill="#455091" fill-rule="nonzero"></path>
            <path d="M537.308323,793.399783 C523.727819,645.225645 557.557939,598.96267 576.481383,517.622464 C576.481383,517.622464 587.192766,515.624281 595.098787,522.526748 C615.144376,617.382424 603.859169,735.850325 603.859169,735.850325 C603.859169,735.850325 600.020923,813.678728 537.308323,793.399783" id="Fill-80" fill="#F0AA93" fill-rule="nonzero"></path>
            <path d="M789.421136,818.551132 C633.978559,837.551086 615.310148,839.610477 534.502961,829.376005 C540.483483,835.76203 523.880839,821.895889 529.325792,811.239337 C644.664439,801.878353 734.754825,757.437589 734.754825,757.437589 C734.754825,757.437589 793.845957,752.771761 789.421136,818.551132" id="Fill-81" fill="#F0AA93" fill-rule="nonzero"></path>
            <path d="M561.077393,813.213292 L526.163384,794.978437 C526.163384,794.978437 513.870796,790.523012 500.290292,791.983075 L436.927358,802.889559 C436.927358,802.889559 428.03946,807.137133 440.140773,812.432892 C440.140773,812.432892 524.837212,841.5347 564.800874,832.581769 L561.077393,813.213292" id="Fill-82" fill="#F0AA93" fill-rule="nonzero"></path>
            <path d="M871.873285,473.374249 C881.194739,481.792887 884.471912,496.088758 887.876602,507.75524 C890.745723,517.577834 893.35981,529.225188 889.241028,538.96107 C888.718211,540.201806 891.549076,540.078115 892.097397,539.778451 C900.692007,535.16108 894.456452,516.632937 892.530953,509.661611 C890.911494,503.792028 888.565191,498.098418 886.524927,492.367828 C883.808827,484.769121 880.480647,477.514709 873.645764,472.866734 C873.199456,472.563245 871.146441,472.717397 871.873285,473.374249" id="Fill-83" fill="#3C447F" fill-rule="nonzero"></path>
            <path d="M747.633988,812.636918 C781.145317,834.131094 808.11505,814.0447 824.590178,774.736473 C863.39344,682.15059 857.502179,619.404835 846.739789,588.503769 C846.98207,581.656135 812.820408,537.367115 781.974174,588.039609 C781.974174,588.039609 760.092348,603.815947 748.399087,727.010884 C748.399087,727.010884 749.699755,746.441843 718.61124,760.689258 C718.61124,760.689258 700.18511,782.197461 747.633988,812.636918" id="Fill-84" fill="#F0AA93" fill-rule="nonzero"></path>
            <path d="M875.341733,719.24003 C875.341733,719.24003 776.899018,721.831165 739.332666,658.356016 L759.926576,515.528644 C759.926576,515.528644 770.625208,459.255626 830.481439,461.420856 C830.481439,461.420856 894.762491,470.882578 897.363827,548.250645 L875.341733,719.24003" id="Fill-85" fill="#455091" fill-rule="nonzero"></path>
            <path d="M596.603482,315.16584 C606.473256,319.558783 613.346394,322.651057 620.563826,330.706273 C631.849034,343.299799 638.671165,360.45459 650.096641,372.587782 C658.270446,381.270378 668.790555,383.830909 677.474427,391.158005 C686.043534,398.372887 692.457612,408.802459 697.647532,418.582973 C706.905228,436.06038 713.587091,457.358181 718.636743,475.5076 C723.622637,493.492523 729.552153,519.490581 747.850766,528.324922 C756.917187,532.707663 769.452056,533.952224 779.589616,532.131288 C794.866089,529.383308 791.639922,524.797816 794.674814,511.263218 C796.625816,502.518139 800.974128,492.142123 809.811019,486.721398 C820.394886,480.234635 826.056617,486.772405 834.98277,476.094176 C841.537117,468.251913 862.743106,440.675201 862.284046,432.325423 C860.970627,408.178904 840.491482,395.984504 824.934472,387.271303 C803.409692,375.229923 770.918496,366.576656 754.991689,348.026835 C744.611848,335.922971 731.273625,326.729034 721.136066,314.386715 C710.832735,301.858222 704.150872,286.780674 693.745528,274.312114 C676.058994,253.121427 647.329533,240.981859 620.51282,237.161466 C594.779996,233.488991 563.627723,235.805965 541.988178,251.618008 C531.965383,258.945104 526.201639,273.122385 533.380816,285.033699 C540.394222,296.677228 596.603482,315.16584 596.603482,315.16584" id="Fill-86" fill="#9A4A3E" fill-rule="nonzero"></path>
            <path d="M767.807094,546.956353 C762.59167,568.005497 756.215847,588.766453 751.867535,610.028549 C747.480969,631.451316 745.453457,653.339518 745.389699,675.198392 C747.366204,675.06705 749.329958,674.936983 751.306463,674.805641 C751.166195,673.851818 750.74539,673.045914 750.031298,672.385378 C749.380964,671.525917 747.429962,671.525917 746.779628,672.385378 C746.065536,673.045914 745.63198,673.851818 745.491712,674.805641 C744.752116,677.220803 751.408476,677.424829 751.408476,675.198392 C751.472234,654.355825 751.944045,632.941984 755.629271,612.385054 C759.582282,590.362959 766.468171,568.978447 770.446685,546.956353 C770.599705,546.126221 768.036624,546.049711 767.807094,546.956353" id="Fill-87" fill="#3C447F" fill-rule="nonzero"></path>
            <path d="M894.851753,551.974126 C885.632312,583.964183 885.568554,618.19853 879.460515,650.854222 C877.318238,662.362584 875.737034,673.533027 874.359856,685.188032 C873.735025,690.510569 871.439729,718.770769 862.360556,716.88225 C861.722974,716.750908 857.055871,717.115606 858.930363,718.561642 C869.412217,726.59773 876.196093,711.603069 878.172599,703.920201 C881.74306,690.010705 881.220242,675.550337 883.770572,661.504398 C886.971235,643.765582 889.687336,626.24992 891.549076,608.275198 C893.474575,589.614438 894.647726,570.701195 897.338324,552.138622 C897.453089,551.358222 895.055779,551.274061 894.851753,551.974126" id="Fill-88" fill="#3C447F" fill-rule="nonzero"></path>
            <path d="M837.571355,974.443842 C831.335799,963.896954 819.336499,951.687252 805.832505,954.546172 C798.258027,956.151604 792.175491,959.557569 785.825171,963.891854 C782.203703,966.356747 778.671497,968.885399 774.846003,971.027675 C770.982254,973.19418 766.85072,974.048541 762.770193,975.610617 C760.003086,976.669004 762.986971,978.586852 764.466162,978.762824 C776.388952,980.187183 786.309734,971.767271 795.3379,965.211649 C801.471442,960.748573 808.34458,956.104423 815.982816,959.315288 C823.340517,962.408837 829.525065,968.506675 834.115658,974.910552 C834.765992,975.819744 838.247192,975.58894 837.571355,974.443842" id="Fill-89" fill="#095587" fill-rule="nonzero"></path>
            <path d="M610.005463,1013.81328 C600.900787,995.060704 606.026949,955.947578 606.026949,955.947578 L637.829556,939.23782 C677.079126,908.715477 723.660892,888.879015 762.094356,857.348018 C791.843949,832.927339 820.96871,792.17435 864.209545,796.503534 C893.449072,799.430037 913.609426,821.411326 930.390593,843.472951 C958.342203,880.238499 998.050832,910.225272 998.050832,960.632533 C998.050832,1003.20646 941.586539,1035.15571 911.122854,1030.34834 C888.603446,1026.78553 854.773326,998.422039 842.263961,981.316979 L808.676123,939.874127 C808.676123,939.874127 795.325148,983.392948 665.615395,1010.68657 C665.615395,1010.68657 627.067166,1018.93434 610.005463,1013.81328" id="Fill-90" fill="#346AA5" fill-rule="nonzero"></path>
            <path d="M839.54786,798.543798 C830.596204,800.983188 823.098235,806.059618 815.600267,811.343901 C805.182171,818.690125 795.044612,826.12561 784.205712,832.868681 C767.768839,843.106978 752.454111,855.539834 737.623946,867.954838 C720.85553,881.98675 705.056239,896.930405 687.344202,909.829971 C677.142884,917.261631 666.571769,924.185775 655.987902,931.058913 C645.174505,938.076144 634.29735,944.681498 625.154419,953.744093 C623.955764,954.935097 627.258441,955.077915 627.883272,954.776977 C649.956373,944.268344 670.626792,929.918916 690.685133,915.922708 C709.00925,903.125155 725.025318,888.189151 741.691721,873.408717 C755.986317,860.722104 770.625208,848.201261 786.207721,837.109879 C794.751324,831.036269 803.511706,825.476551 811.774773,818.99999 C820.535154,812.14598 829.601575,802.927814 840.236449,799.123998 C841.103561,798.815408 839.994168,798.418832 839.54786,798.543798" id="Fill-91" fill="#095587" fill-rule="nonzero"></path>
            <path d="M984.738112,894.150546 C975.27639,877.809311 960.458977,863.67666 947.350283,850.244075 C940.489897,843.203891 933.578505,836.606189 926.080536,830.248218 C919.424177,824.609439 910.791312,820.967569 904.543005,814.980671 C904.440991,814.885033 903.943677,814.943691 904.058442,815.080134 C908.559773,820.495758 914.361773,823.702797 919.360418,828.616007 C925.787248,834.907669 931.244953,842.271746 937.608025,848.664146 C952.412687,863.55552 965.279099,880.24105 980.020003,895.126047 C980.887115,896.002085 985.719989,895.855441 984.738112,894.150546" id="Fill-92" fill="#095587" fill-rule="nonzero"></path>
            <path d="M570.692135,974.038339 C563.117657,983.803551 562.276048,994.113257 564.711613,1006.06028 C564.890136,1006.94779 567.40221,1006.96054 567.338452,1006.06028 C567.032412,1001.04378 566.178052,996.14842 566.331072,991.101318 C566.496843,985.15395 568.894153,979.318796 571.712267,974.176057 C571.903541,973.815185 570.88341,973.794783 570.692135,974.038339" id="Fill-93" fill="#FFFFFE" fill-rule="nonzero"></path>
            <path d="M547.292863,968.754057 C542.638512,971.981499 540.968046,977.435378 540.30496,982.835701 C539.935162,985.822136 539.960666,988.868505 539.871404,991.872793 C539.807646,994.162989 538.838521,996.566674 540.368718,998.372307 C540.623751,998.674521 541.223079,998.675796 541.529118,998.446267 C544.653272,996.093588 543.250591,989.497161 543.339852,985.915223 C543.505624,979.422085 545.150586,974.452768 548.542524,969.012915 C548.848564,968.530903 547.509641,968.606138 547.292863,968.754057" id="Fill-94" fill="#FFFFFE" fill-rule="nonzero"></path>
        </g>
    </g>
</svg>