<?xml version="1.0" encoding="UTF-8"?>
<svg width="801px" height="801px" viewBox="0 0 801 801" version="1.1" xmlns="http://www.w3.org/2000/svg" xmlns:xlink="http://www.w3.org/1999/xlink">
    <title>Group</title>
    <g id="Page-1" stroke="none" stroke-width="1" fill="none" fill-rule="evenodd">
        <g id="Group" transform="translate(0.662781, 0.838292)">
            <rect id="Rectangle" stroke="#979797" fill="#D8D8D8" opacity="0" x="0.5" y="0.5" width="799" height="799"></rect>
            <g id="3" transform="translate(85.337219, 22.161708)">
                <path d="M652,712 C652,737.401314 507.838458,758 330.00056,758 C152.16602,758 8,737.401314 8,712 C8,686.598686 152.16602,666 330.00056,666 C507.838458,666 652,686.598686 652,712" id="Fill-141" fill="#514F84" fill-rule="nonzero"></path>
                <polyline id="Fill-143" fill="#F0AA93" fill-rule="nonzero" points="496 579 495.011559 688.944117 470.069485 689 453 579.078236 496 579"></polyline>
                <path d="M464,708.705797 L577,708.5496 C575.453577,695.027407 564.862036,692.037351 564.862036,692.037351 L531.251457,681.962649 L500.886348,664 L489.44304,669.500364 C489.44304,669.500364 487.134627,669.087558 489.450895,674.66602 C489.450895,674.66602 475.154897,677.644919 468.344125,674.677177 L464.003367,710" id="Fill-144" fill="#006C89" fill-rule="nonzero"></path>
                <polyline id="Fill-145" fill="#254864" fill-rule="nonzero" points="464.014588 714 577 713.818548 576.992145 708 464 708.169355 464.014588 714"></polyline>
                <path d="M528.920588,681.225687 C527.630616,684.321299 524.138047,687.015628 524.000252,690.581314 C523.979053,691.154575 525.302943,691.085784 525.493736,690.695966 C526.250548,689.136695 526.817627,687.565959 527.698454,686.064014 C528.573981,684.573534 529.499327,683.071589 529.989028,681.3862 C530.118344,680.927591 529.064743,680.88173 528.920588,681.225687" id="Fill-147" fill="#FFFFFE" fill-rule="nonzero"></path>
                <path d="M521.021936,677.107243 C518.102175,679.790548 516.011163,682.692008 515,686.509718 C515.678988,686.466087 516.359102,686.422456 517.03809,686.378825 C516.90522,686.073408 516.716049,685.800715 516.470577,685.571652 C516.281407,685.353497 515.794968,685.353497 515.604671,685.571652 C515.359199,685.800715 515.170028,686.073408 515.037159,686.378825 C514.701606,686.978751 516.841037,687.349614 517.075248,686.509718 C517.998582,683.193764 519.577257,679.943256 521.935135,677.358121 C522.263932,676.998166 521.247139,676.899996 521.021936,677.107243" id="Fill-148" fill="#FFFFFE" fill-rule="nonzero"></path>
                <path d="M510.803242,671.094885 C508.856102,672.43714 507.465287,674.484079 506.445356,676.620502 C506.019931,677.515339 505.722133,678.454917 505.586869,679.439238 C505.558508,679.640576 505.131991,680.557784 505,681.094686 C505.008727,681.20654 505.055633,681.296024 505.142899,681.363137 C505.233439,681.497362 505.323978,681.631588 505.415608,681.754628 C505.724314,681.732257 506.034112,681.721071 506.343909,681.6987 C506.330819,681.676329 506.316638,681.665144 506.303548,681.642773 C506.170466,681.474991 505.526873,681.351951 505.446152,681.642773 C505.441788,681.665144 505.436334,681.676329 505.431971,681.6987 C505.330523,682.056635 506.132287,682.067821 506.295912,681.877668 C506.941686,681.128242 506.973321,681.228911 507.357295,680.233405 C507.577643,679.662947 507.722724,679.025376 507.916893,678.331877 C508.595392,675.893447 510.058202,673.119453 511.903895,671.419263 C512.356592,670.994216 511.078133,670.904732 510.803242,671.094885" id="Fill-149" fill="#FFFFFE" fill-rule="nonzero"></path>
                <path d="M318.962787,707.705539 C340.302437,706.730951 360.759516,698.262113 374.26354,681.828535 C401.575113,648.614111 401.127107,599.795069 399.247721,558.257435 C397.048011,509.550415 365.714464,433.801365 305.148518,476.660854 C275.546515,497.608906 266.232468,537.174958 256.740338,570.098125 C249.214956,596.199173 239.893069,631.172337 240,658.438411 C240.083471,679.184823 243.375196,691.921687 262.652899,700.144077 C280.657144,707.817561 299.597723,708.601713 318.962787,707.705539" id="Fill-150" fill="#253754" fill-rule="nonzero"></path>
                <polyline id="Fill-151" fill="#F0AA93" fill-rule="nonzero" points="406 579 405.014914 688.944117 380.072187 689 363 579.078236 406 579"></polyline>
                <path d="M373,708.705797 L486,708.5496 C484.449149,695.027407 473.86364,692.037351 473.86364,692.037351 L440.249908,681.962649 L409.890493,664 L398.446518,669.500364 C398.446518,669.500364 396.137075,669.087558 398.454373,674.66602 C398.454373,674.66602 384.158942,677.644919 377.346197,674.677177 L373.007855,710" id="Fill-152" fill="#007592" fill-rule="nonzero"></path>
                <polyline id="Fill-153" fill="#254864" fill-rule="nonzero" points="373.014587 714 486 713.818548 485.992145 708 373 708.169355 373.014587 714"></polyline>
                <path d="M450.468454,685.004327 C446.349232,684.820762 443.957089,690.522089 443.406931,693.556318 C443.733079,693.405147 444.060389,693.253975 444.386537,693.113602 C444.147439,693.113602 443.914144,693.1244 443.677367,693.156794 C444.063871,693.286369 444.450374,693.426743 444.838038,693.556318 C444.769559,693.297167 444.59894,693.199985 444.37493,692.994824 C444.185741,692.822057 443.639065,692.822057 443.452197,692.994824 C443.245597,693.199985 443.061051,693.297167 443.004178,693.556318 C442.946144,693.81547 443.50907,693.945045 443.677367,693.966641 C443.914144,693.988237 444.147439,693.999035 444.386537,693.999035 C444.723132,694.009833 445.286057,693.934247 445.366144,693.556318 C445.712024,691.925825 446.236647,690.41411 447.082776,688.945586 C447.800071,687.70382 449.196358,685.868165 450.743533,685.457842 C451.318065,685.317469 450.793442,685.015125 450.468454,685.004327" id="Fill-154" fill="#FFFFFE" fill-rule="nonzero"></path>
                <path d="M437.9195,681.225687 C436.630545,684.321299 433.1318,687.027093 433.000252,690.581314 C432.979035,691.154575 434.302999,691.085784 434.495016,690.695966 C435.250355,689.136695 435.81898,687.565959 436.701623,686.064014 C437.57684,684.584999 438.499795,683.071589 438.988856,681.3862 C439.119343,680.927591 438.063778,680.88173 437.9195,681.225687" id="Fill-155" fill="#FFFFFE" fill-rule="nonzero"></path>
                <path d="M430.021936,677.107243 C427.102175,679.790548 425.012289,682.692008 424,686.509718 C424.678988,686.466087 425.359102,686.422456 426.03809,686.378825 C425.90522,686.073408 425.716049,685.800715 425.470577,685.571652 C425.281407,685.353497 424.793842,685.353497 424.604671,685.571652 C424.359199,685.800715 424.170028,686.073408 424.037159,686.378825 C423.701606,686.978751 425.841037,687.349614 426.075248,686.509718 C426.999708,683.193764 428.577257,679.943256 430.935135,677.358121 C431.263932,676.998166 430.247139,676.899996 430.021936,677.107243" id="Fill-156" fill="#FFFFFE" fill-rule="nonzero"></path>
                <path d="M419.652688,670.209275 C417.961794,672.449107 416.048875,675.013715 414.922391,677.567124 C414.558971,678.384663 414.64895,679.280596 414.208406,680.042139 C413.758513,680.82608 414.151147,681.050064 414.325261,681.778009 C414.638433,681.733212 414.950436,681.699615 415.262439,681.654818 C415.249585,681.643619 415.235563,681.63242 415.222709,681.610022 C415.053269,681.430835 414.389531,681.442034 414.334609,681.722013 C414.332272,681.744412 414.328767,681.755611 414.325261,681.778009 C414.258654,682.125183 415.170124,682.001992 415.312687,681.834005 C415.84321,681.218051 416.082763,681.083661 416.369058,680.322118 C416.733646,679.35899 416.9323,678.239074 417.348304,677.208751 C417.737432,676.245623 418.404675,675.383287 418.960905,674.509753 C419.783565,673.21065 420.26384,671.74356 420.970814,670.388461 C421.211536,669.918096 419.891072,669.895698 419.652688,670.209275" id="Fill-157" fill="#FFFFFE" fill-rule="nonzero"></path>
                <path d="M293.889893,80.4495097 C333.802406,144.228974 390.082812,201.298937 390.082812,201.298937 C395.659375,212.309687 376.863879,217.955077 376.863879,217.955077 C289.574031,239.013277 296.099749,250.651293 296.099749,250.651293 C262.861468,278.071758 298.166673,298.133054 303.059844,297.259363 C326.354334,301.840642 372.018724,299.656413 434.545684,262.1997 C461.092983,246.305239 470.137868,226.837605 453.89839,202.8671 C393.213906,113.324945 352.945181,102.963862 304.852072,66 C304.852072,66 295.146128,72.9111221 293.889893,80.4495097" id="Fill-158" fill="#F0AA93" fill-rule="nonzero"></path>
                <path d="M289.957884,43.6212878 C288.270633,40.3748063 286.732324,36.1927068 284.056954,33.6113031 C281.426044,31.0749894 279.084123,31.379347 275.920806,30.4211841 C268.76611,28.2455906 262.072684,22.699518 255.644905,18.8217761 C251.841367,16.522185 247.55544,13.3771561 244.295424,19.8475741 C242.334746,23.7365884 242.11467,37.2410498 247.103062,43.2492951 C251.384543,48.4121025 249.838452,47.1383094 254.58565,51.7825816 C257.03094,54.1836253 258.221352,53.8116326 264.564657,59.3802502 C266.004043,60.6427708 264.008909,59.7409704 274.538106,67.5979066 C279.449805,71.2614708 287.839373,77.6642538 292.954476,81.0234604 C297.272636,83.8528592 295.764336,79.9412999 299.670132,76.8188159 C301.310699,75.5112053 304.12056,73.7301494 305.369881,72.1069087 C308.688806,67.8233567 306.655881,70.4385779 301.834213,61.4769362 C298.44304,55.1756057 293.261248,50.0015258 289.957884,43.6212878" id="Fill-159" fill="#F0AA93" fill-rule="nonzero"></path>
                <path d="M434,268.629621 C434,268.629621 420.524826,225.023215 386.87609,198 L295.499809,233.31481 C295.499809,233.31481 260.911439,256.544705 279.476761,295.932579 C279.476761,295.932579 299.672723,335.544249 352.181326,315.178927 L434,268.629621" id="Fill-160" fill="#38B9C9" fill-rule="nonzero"></path>
                <path d="M179.465821,0.753448781 C164.427349,4.72869188 155.052088,16.3063067 147.25532,28.928265 C139.989971,40.6743222 136.258782,55.1716071 145.388599,67.8609424 C154.893337,81.0556052 172.973957,80.2695401 184.965779,71.8137264 C194.658541,64.9861903 203.956116,55.7892296 210.291482,45.8286629 C216.088674,36.7103086 220.263463,22.2804008 213.549799,13.5775381 C206.264184,4.15598737 190.917218,-2.26728678 179.465821,0.753448781" id="Fill-161" fill="#C57E44" fill-rule="nonzero"></path>
                <path d="M392,449.817089 C409.600856,528.810606 431.178989,652.100387 445.741428,652 C491.858807,651.709275 513,631.94134 513,631.94134 L474.026037,442.609448 C474.026037,442.609448 448.989352,371.415829 392,449.817089" id="Fill-162" fill="#253754" fill-rule="nonzero"></path>
                <polyline id="Fill-163" fill="#F0AA93" fill-rule="nonzero" points="207.108384 212 110 247.722848 163.469091 487 291.449883 487 299 233.721994 252.558901 212 207.108384 212"></polyline>
                <path d="M258,215 L200,215 L200,146 L258,146 C258,146 251.819173,200.361251 258,215" id="Fill-164" fill="#F0AA93" fill-rule="nonzero"></path>
                <path d="M255.804655,199 C255.915269,178.798257 258,146 258,146 L200,146 L200,166.765094 C214.656327,182.21216 233.660452,196.622662 255.804655,199" id="Fill-165" fill="#EA8A74" fill-rule="nonzero"></path>
                <path d="M190.570892,218 C176.746687,223.073573 152.083023,232.505502 138.258818,237.601425 C129.762995,240.730501 120.419832,243.066133 112.216544,246.809848 C102.983221,251.022926 101.665136,262.265248 104.023343,271.585424 C106.241448,280.358012 113.993045,290.460457 114.000891,299.4789 C114.008736,316.454137 116.491355,324.634435 120.154197,341.151486 C123.756516,357.411505 123.63883,378.868025 131.560792,393.351176 C135.812066,401.129165 135.649547,409.734124 136.356784,418.372608 C137.066264,427.044618 138.878632,431.481201 138.583856,440.164386 C138.28908,448.814046 144.088207,469.130689 141.994514,480.73062 C139.423351,495.023791 202.502031,490.218425 215.315255,490.240775 C255.410382,490.285477 269.499101,493.32515 295.430413,480.183032 L300,234.226493 L268.592356,219.575713 C268.592356,219.575713 239.986765,260.410153 190.570892,218" id="Fill-166" fill="#38B9C9" fill-rule="nonzero"></path>
                <path d="M306.620822,237.398292 C308.76333,282.747081 318.600206,310.658328 319.937868,340.916936 C320.43359,352.02778 317.920134,361.350159 313.929629,371.62266 C303.827469,397.644839 299.50311,429.636024 297.677595,442.300598 C289.267184,500.694011 279.985606,499.486796 249.227243,492.914184 C231.02492,489.02427 227.210897,420.280111 223.952171,403.513243 C218.934252,377.681088 223.04953,346.606493 242.634479,327.414018 C256.616984,313.69872 274.767599,309.853518 282.032567,290.113325 C287.35399,275.660285 263.04788,255.316485 278.950323,249.258057 C279.232469,249.872842 288.802936,228.355361 288.633199,229.014858" id="Fill-167" fill="#38B9C9" fill-rule="nonzero"></path>
                <path d="M286.998333,104.48337 C286.85135,125.902414 282.963596,163.450054 267.965727,176.972573 C249.775748,193.358421 200.794529,165.888357 186.173655,148.920895 C167.864744,127.703179 166.38145,89.2160093 171.662738,62.551257 C177.69016,32.1507549 207.588282,12.8120985 238.525383,20.8092872 C269.442288,28.7952911 287.19805,76.3981376 286.998333,104.48337" id="Fill-168" fill="#F0AA93" fill-rule="nonzero"></path>
                <path d="M172.38815,60.9199701 C173.67804,55.1533283 175.834999,49.8130142 178.682003,45 L188.56252,114.794316 L189,141.518325 L186.760732,150 C186.086471,149.281975 185.449419,148.563949 184.87889,147.879581 C167.005337,126.170531 166.442702,87.5430067 172.38815,60.9199701" id="Fill-169" fill="#EA8A74" fill-rule="nonzero"></path>
                <path d="M161.760878,97.7321887 C154.419961,107.014279 162.172981,130.860226 179.620848,137 C183.212183,131.907665 181.717625,119.483258 181.550586,113.287769 C181.39124,107.192567 180.943972,101.398224 176.744923,96.6958928 C175.452569,95.2584503 167.179751,90.9015507 161.760878,97.7321887" id="Fill-170" fill="#F0AA93" fill-rule="nonzero"></path>
                <path d="M175.253967,113.567149 C175.339723,114.786712 175.582895,115.98469 175.488915,117.204253 C175.450149,117.711505 174.907418,118.056868 174.531501,118.35906 C173.958227,118.812349 173.662192,118.510156 174.406978,118.769179 C173.234586,118.35906 172.673059,116.416394 172.338258,115.455853 C171.562928,113.243372 171.811973,110.145898 170.128568,108.300364 C169.804339,107.944209 168.781139,107.857868 168.48393,108.300364 C167.672183,109.519927 168.062197,111.074061 168.358232,112.369172 C168.803459,114.333423 169.366161,116.373223 170.500961,118.100038 C171.454852,119.557038 173.236935,120.323312 175.066008,119.870023 C176.036345,119.632586 176.815199,119.092956 177.450734,118.380645 C178.668941,117.031571 177.532966,115.088905 177.168796,113.567149 C177.027827,112.984349 175.211676,112.962764 175.253967,113.567149" id="Fill-171" fill="#EA8A74" fill-rule="nonzero"></path>
                <path d="M172.962197,108.083762 C171.07031,104.875657 166.531589,105.748534 164.478088,108.163114 C160.602771,112.72021 165.101937,120.496746 169.310651,122.933998 C169.51182,123.047359 170.766297,123.058695 170.481497,122.605252 C169.15582,120.451401 167.538561,118.569616 166.54176,116.211716 C165.90661,114.715356 165.945036,112.946931 165.992503,111.359883 C166.072744,108.650565 169.010029,105.499141 171.572101,108.367163 C171.826387,108.650565 173.248128,108.571212 172.962197,108.083762" id="Fill-172" fill="#EA8A74" fill-rule="nonzero"></path>
                <path d="M196.426304,19 C198.466542,20.5924638 200.046224,22.9026578 201.064118,25.0558484 C204.991075,30.0014579 216.583942,50.5352697 218.740988,53.6641247 C224.591375,62.1647415 217.906648,69.2186834 211.968377,75.050241 C210.09612,76.8894246 208.186039,78.7061791 206.321568,80.5677918 C200.704796,86.1414152 195.431771,92.0514746 192.534945,99.6212851 C190.625977,104.622967 189.2076,118.450488 182.038956,119 C181.608437,111.77784 178.953013,97.0419423 168.333542,95.146686 C167.001937,94.6644611 162.497617,95.0681843 158.759776,103.153863 C158.759776,103.153863 137.418489,32.9060222 196.426304,19" id="Fill-173" fill="#E08E4C" fill-rule="nonzero"></path>
                <path d="M221.543924,57.7589901 L197,19.7498576 C205.988985,7.56988763 238.046423,10.2503782 238.054235,10.2503782 C249.134772,11.1812599 292.663377,31.7615958 306.604451,63.8265442 C306.604451,63.8265442 326.013247,110.998693 283.262556,141 C288.392103,109.293946 288.618669,88.5902399 276.204406,67.8528878 C268.213205,70.5558093 248.775391,68.4585217 242.25966,65.4079215 C235.105527,62.0657198 225.690196,59.2169976 219.387639,54.4167885" id="Fill-174" fill="#E08E4C" fill-rule="nonzero"></path>
                <path d="M500,603.671257 C500,603.671257 479.900538,298.864895 403.375628,295.037048 C365.729957,293.156701 348.788791,363.479412 348.788791,363.479412 L323.740513,527.853011 L295.814652,476.266608 C295.814652,476.266608 229.190729,479.075935 142.714505,476.815042 C108.735991,528.815569 106.431017,568.627424 112.823657,621.500969 C114.854629,638.289775 129.247015,660.092837 139.893959,672.348665 C159.647843,695.114285 191.787746,710.392098 221.411302,714.052058 C260.263701,718.864849 280.157382,705.120413 305.495319,678.079244 C305.495319,678.079244 329.949739,535.631824 344.394689,526.118168 C372.722047,507.449016 427.699198,619.676585 500,603.671257" id="Fill-175" fill="#253754" fill-rule="nonzero"></path>
                <path d="M307,519 C307,519 251.162183,503.25 138,519" id="Stroke-176" stroke="#0E243C" stroke-width="4.534"></path>
                <path d="M299.7593,500.968313 C293.267242,500.635804 286.605135,500.325462 280.286482,498.718334 C273.687025,497.033621 267.054005,497.543468 260.299043,496.645693 C247.150471,494.905562 233.674109,494.528718 220.422613,494.063206 C206.583778,493.575525 192.967573,496.069344 179.137688,496.091512 C176.373277,496.091512 173.625648,496.235599 170.87578,496.51269 C167.645973,496.834115 164.479934,498.297156 161.268027,498.46341 C155.596006,498.773752 150.25849,497.964647 145.085428,500.846393 C147.259143,501.123484 149.431739,501.400575 151.605455,501.677666 C151.510362,501.345156 151.416387,501.012647 151.321294,500.691222 C150.795486,498.851338 144.891886,498.851338 144.366077,500.691222 C144.272103,501.012647 144.17701,501.345156 144.083035,501.677666 C143.235029,504.636997 149.127442,504.160401 150.601943,503.51755 C155.758224,501.289738 161.290402,503.417797 166.541775,501.821753 C173.154657,499.804531 179.588541,500.281127 186.39049,499.826698 C199.600593,498.962174 212.671971,497.48805 225.923466,498.197403 C232.483767,498.540996 239.009388,498.784836 245.576402,498.95109 C252.18369,499.117345 258.851391,500.835309 265.425117,500.779891 C277.006331,500.680138 288.075162,503.960895 299.7593,503.39563 C302.748578,503.251542 302.745222,501.123484 299.7593,500.968313" id="Fill-177" fill="#0E243C" fill-rule="nonzero"></path>
                <path d="M161.943056,514.826614 C159.397822,523.10945 160.262729,531.91553 158.185378,540.209499 C155.478184,551.008359 152.270492,561.406436 148.100042,571.815645 C144.617919,580.510397 135.77877,586.177015 127.982234,590.77488 C124.48324,592.834456 120.141833,593.847545 116.866658,595.985051 C115.304427,596.99814 110.730204,595.673331 111.012508,598.968653 C111.061995,599.547561 111.844798,599.714554 112.299184,599.792484 C118.833788,600.883503 126.464991,597.465719 132.328139,594.370788 C140.855742,589.873119 149.724133,584.729745 155.002429,576.41351 C157.973931,571.737715 159.461931,565.826175 161.102893,560.593738 C162.694367,555.528294 164.676118,550.473982 164.895438,545.130217 C164.978667,543.104039 165.909932,540.621415 166.326078,538.595237 C166.860318,536.012417 166.73435,533.59659 166.676989,530.946973 C166.55552,525.324886 167.796082,520.415302 166.092136,514.826614 C165.756971,513.724462 162.279347,513.724462 161.943056,514.826614" id="Fill-178" fill="#0E243C" fill-rule="nonzero"></path>
                <path d="M128.65862,409.905606 C126.187221,428.835036 117.25552,461.386057 113.019476,479.767941 C108.697325,498.563279 107.43926,503.949338 105.212765,523.716848 C102.88898,544.37831 97.9338816,564.134645 99.2053658,585.801803 C111.623863,592.07064 138.981461,572.001421 150.412518,565.799631 C167.286242,556.647799 181.977084,547.495967 199.989218,540.478445 C222.141223,531.829461 235.823377,546.277957 259.615899,543.976031 C273.651429,542.612755 303.07449,539.137517 312.669331,528.231305 C316.308213,530.924335 319.499784,529.918639 323,531.270741 C317.529375,507.960947 308.221932,488.338704 309.544857,462.916949 C310.8689,437.372276 306.971695,412.017567 309.507954,386.528765 C315.463912,326.689865 242.801443,310.945138 195.614507,322.544163 C176.514287,327.23741 146.141807,329.036488 132.900255,346.16684 C119.607263,363.34189 131.247438,390.059875 128.65862,409.905606" id="Fill-179" fill="#38B9C9" fill-rule="nonzero"></path>
                <path d="M293.324402,290.59355 C297.772819,303.191377 305.786072,313.460007 312.682984,324.781255 C316.226352,330.604251 319.814915,337.009546 320.878151,343.784378 C321.962856,350.704785 318.192378,357.278052 315.198142,363.235424 C312.922523,367.759444 311.522576,372.462633 308.459417,376.583523 C305.914881,380.010132 302.553428,382.832045 299.215702,385.452394 C294.863326,388.890201 288.164147,391.342578 285.117935,395.933786 C284.371071,397.064791 287.399204,397.064791 287.821787,396.952811 C297.184141,394.433245 307.352114,386.213862 313.495382,378.789542 C317.218404,374.287919 318.783316,369.159203 321.368528,364.064082 C324.099497,358.67781 326.56381,353.257945 326.964924,347.188591 C327.429313,340.145006 323.188797,333.213401 319.793447,327.368009 C312.346274,314.557418 302.451737,303.258566 295.177438,290.335994 C294.888184,289.832081 293.072434,289.876873 293.324402,290.59355" id="Fill-180" fill="#00A0B3" fill-rule="nonzero"></path>
                <path d="M220.530352,513.148448 C228.929946,511.837994 234.180392,505.055819 243.256162,506.987015 C251.199001,508.676811 257.431247,514.757778 265.282287,516.918877 C271.126067,518.528207 277.729986,518.390264 283.399124,516.171688 C288.791746,514.068065 295.847942,509.653904 294.91652,502.929205 C294.732922,501.607256 292.234202,501.929122 291.517724,502.469397 C285.639239,506.941034 282.073638,512.918544 274.294246,513.999094 C266.560753,515.079643 259.762042,509.837827 253.062965,506.849072 C247.556155,504.400592 241.598186,503.46948 235.636859,503.986765 C229.416928,504.515545 225.427036,510.470064 219.583257,512.021917 C218.135746,512.401259 219.742225,513.274895 220.530352,513.148448" id="Fill-181" fill="#00A0B3" fill-rule="nonzero"></path>
                <path d="M182.096556,235.359156 C187.567749,243.398689 197.855749,247.765281 206.64946,250.881027 C217.044276,254.565339 227.720184,255.202134 238.638957,254.951964 C248.329916,254.724538 256.977458,251.665649 265.260704,246.719118 C270.069642,243.853542 282.29381,236.348462 278.16062,229.662117 C277.564703,228.706925 275.496984,228.854752 274.85834,229.662117 C270.415948,235.268185 266.202928,240.271572 260.041371,244.137826 C252.915104,248.595389 245.232272,251.210795 236.830967,251.460965 C217.097121,252.075017 200.736389,246.082324 184.644383,234.836074 C184.208126,234.529048 181.45454,234.426706 182.096556,235.359156" id="Fill-182" fill="#00A0B3" fill-rule="nonzero"></path>
                <path d="M305.660171,382.267607 C304.311368,393.228362 305.441446,404.456725 305.475756,415.484381 C305.510066,426.623541 305.885329,439.189941 309.557548,449.749284 C309.679776,450.106094 310.712286,450.083794 310.750885,449.671232 C311.81556,438.45402 309.140469,426.746195 308.857414,415.484381 C308.579719,404.378672 307.222338,393.362166 306.647649,382.267607 C306.629422,381.910798 305.70413,381.910798 305.660171,382.267607" id="Fill-183" fill="#00A0B3" fill-rule="nonzero"></path>
                <path d="M177.2323,89.437867 C137.316405,153.16594 71.9184789,225.37766 71.9184789,225.37766 C66.3463781,236.379538 85.1396559,242.020379 85.1396559,242.020379 C172.42399,263.061612 165.897151,274.69025 165.897151,274.69025 C199.139924,302.088621 163.834692,322.133753 158.94375,321.260765 C135.647008,325.838353 89.9781154,323.655884 27.449988,286.229352 C0.908251784,270.347698 -8.14110789,250.89575 8.10620002,226.94456 C68.7829159,137.474553 116.35682,129.449785 166.268996,75 C166.268996,75 175.976065,81.9055534 177.2323,89.437867" id="Fill-184" fill="#F0AA93" fill-rule="nonzero"></path>
                <path d="M182.04234,52.6166164 C183.727425,49.370138 185.264675,45.1880426 187.940136,42.6066414 C190.570023,40.0703301 192.917581,40.3746875 196.081005,39.4165254 C203.235944,37.2522065 209.928486,31.6948668 216.353147,27.8171287 C220.160149,25.5175398 224.442886,22.3837864 227.703013,28.8429257 C229.664869,32.7432088 229.887176,46.2363846 224.896392,52.2446241 C220.613654,57.4074265 222.163132,56.1449071 217.412439,60.7891748 C214.972623,63.1789437 213.779948,62.8069513 207.43754,68.3755636 C205.993658,69.638083 207.993306,68.7362834 197.458195,76.593212 C192.551887,80.2567727 184.157588,86.6595495 179.043424,90.0187528 C174.72734,92.8594214 176.232356,88.9365934 172.330875,85.8141124 C170.685806,84.5065031 167.880296,82.725449 166.626486,81.1022098 C163.313006,76.8186619 165.344889,79.4451531 170.167831,70.4722475 C173.558008,64.1709232 178.738864,59.0081207 182.04234,52.6166164" id="Fill-185" fill="#F0AA93" fill-rule="nonzero"></path>
                <path d="M246.463145,150.997282 C249.595584,151.083598 254.016685,149.087542 256.022371,148.828594 C259.303502,148.407804 263.093489,150.878597 266.105874,148.850173 C268.133588,147.490697 268.531201,143.887008 267.308625,142.009637 C263.546173,136.258839 253.491307,137.650683 248.371906,140.272529 C246.032489,141.459373 243.143464,144.04885 243.009091,146.940433 C242.868109,149.961491 244.382562,150.943334 246.463145,150.997282" id="Fill-186" fill="#FFFFFE" fill-rule="nonzero"></path>
                <path d="M242,119 C242,121.755991 236.629479,124 230,124 C223.369413,124 218,121.755991 218,119 C218,116.233115 223.369413,114 230,114 C236.629479,114 242,116.233115 242,119" id="Fill-187" fill="#EA9387" fill-rule="nonzero"></path>
                <path d="M286,119 C286,121.755991 281.522953,124 275.999427,124 C270.475901,124 266,121.755991 266,119 C266,116.233115 270.475901,114 275.999427,114 C281.522953,114 286,116.233115 286,119" id="Fill-188" fill="#EA9387" fill-rule="nonzero"></path>
                <path d="M255.849196,100.160702 C253.953651,102.745339 255.5329,107.087078 256.759102,109.683052 C258.414084,113.185917 262.182899,115.215084 263.626275,118.774629 C266.029675,124.714762 254.785597,127.900215 251.021236,128.637064 C251.5948,128.79577 252.16725,128.954475 252.7397,129.124517 C252.606054,128.625728 252.558164,128.625728 252.163909,128.285644 C251.805292,127.979568 251.086945,128.00224 250.723874,128.285644 C250.288411,128.614391 250.250544,128.625728 250.045621,129.124517 C249.709278,129.940719 251.328622,130.065416 251.764085,129.974727 C256.466194,129.022492 264.110742,126.789274 265.796908,121.563318 C266.79257,118.47989 263.901363,115.917924 262.028093,113.990782 C260.261739,112.177001 258.768246,110.317875 257.752536,107.971296 C256.886065,105.964801 255.766781,102.405256 256.835948,100.296735 C257.021939,99.9339789 256.029618,99.9226428 255.849196,100.160702" id="Fill-189" fill="#EA8A74" fill-rule="nonzero"></path>
                <path d="M222.046881,97.2377505 C225.515124,94.9325995 229.166774,93.1660353 233.477367,93.5969046 C236.840179,93.9308283 239.510002,96.1713489 242.275371,97.8409675 C242.898073,98.2072065 245.811705,97.9594566 244.781556,96.9038267 C237.981251,89.9345152 227.175664,90.871656 220.165595,96.7099355 C219.390238,97.3562395 221.562557,97.5609025 222.046881,97.2377505" id="Fill-190" fill="#E08E4C" fill-rule="nonzero"></path>
                <path d="M284.690051,94.7023212 C278.164241,90.576409 268.767868,91.0768565 263.223191,96.8820485 C262.175839,97.9719121 265.120345,98.2054543 265.740589,97.8384594 C267.598012,96.7374747 269.315272,95.4807952 271.267608,94.5466264 C275.224149,92.6671677 279.398108,93.6680629 283.142751,95.4696742 C283.703399,95.7365796 285.776031,95.3918268 284.690051,94.7023212" id="Fill-191" fill="#E08E4C" fill-rule="nonzero"></path>
                <path d="M228,105 C228,105 233.343937,107.25 238.820913,105 M270.176852,105 C270.176852,105 275.524142,107.25 281,105" id="Stroke-192" stroke="#6C4634" stroke-width="2.267" stroke-linecap="round" stroke-linejoin="round"></path>
                <path d="M29,292.359913 C29,292.359913 42.4570211,248.920024 76.0889427,222 L139.186424,241.228588 C139.186424,241.228588 202.285026,265.618241 189.218566,314.174607 C189.218566,314.174607 163.219937,359.01902 110.753781,338.731465 L29,292.359913" id="Fill-193" fill="#38B9C9" fill-rule="nonzero"></path>
                <path d="M135.020472,254.918933 C136.212954,260.117512 139.067479,264.92311 141.087604,269.852216 C143.384736,275.455005 145.255097,281.259897 146.724586,287.132158 C149.181617,296.956687 149.651178,307.005776 149.318994,317.077321 C148.866324,330.831661 148.350596,344.552316 146.770754,358.22806 C145.987027,365.009792 144.842965,371.735383 143.436534,378.404834 C142.071768,384.883409 139.636132,391.844789 139.441326,398.446872 C139.416553,399.25529 141.313939,399.064414 141.634862,398.592837 C148.815652,388.038486 150.74119,372.599941 152.590156,360.249106 C154.624919,346.674415 155.502109,332.886391 155.910863,319.176963 C156.219399,308.847173 155.797132,298.7644 153.528151,288.647943 C150.988919,277.318858 146.488117,263.598202 138.937984,254.660689 C138.373835,253.987007 134.693919,253.492973 135.020472,254.918933" id="Fill-194" fill="#00A0B3" fill-rule="nonzero"></path>
                <path d="M430,649.403196 C430,649.403196 400.207806,672.626446 362.26496,661.641267 L330.279435,551.49863 L252.193704,672 C252.193704,672 163.762871,670.120662 160,574.095433 L269.128861,348.160958 C269.128861,348.160958 299.861214,292.306581 338.745337,297.31815 C338.745337,297.31815 388.921428,301.088012 397.073198,383.309055 C397.073198,383.309055 423.730783,546.475875 430,649.403196" id="Fill-195" fill="#253754" fill-rule="nonzero"></path>
                <path d="M368.062477,318.33046 C386.638656,336.4863 391.202366,364.558537 396.047108,388.986192 C399.023149,403.989355 401.034047,419.216112 403.19274,434.342253 C409.386666,477.764225 416.143778,521.096759 421.550587,564.630528 C422.441831,571.807898 423.361067,578.683417 425.436906,585.626013 C425.603734,586.184998 427.210437,586.095561 427.306728,585.503036 C428.564099,577.733142 427.865435,570.287459 427.13766,562.495205 C426.19827,552.45583 425.052864,542.461174 423.785416,532.466518 C420.887751,509.615203 417.824378,486.763887 414.241486,464.013188 C408.521173,427.690328 403.075176,389.679333 390.290967,355.01107 C385.279396,341.416549 379.621785,328.202139 368.885423,318.095686 C368.673808,317.894451 367.754572,318.028608 368.062477,318.33046" id="Fill-196" fill="#0E243C" fill-rule="nonzero"></path>
                <path d="M310.057634,466.715078 C317.144458,479.023173 318.734694,493.401266 321.19822,507.141576 C324.415544,525.077828 328.878032,542.890998 332.707329,560.704169 C339.590907,592.738784 347.045138,625.634966 364.524332,653.74218 C364.767781,654.133802 366.210608,654.089045 365.973859,653.540775 C359.421953,638.457764 353.360295,622.983131 348.495781,607.251148 C343.331982,590.556895 339.790803,573.48221 336.089931,556.418714 C332.322054,539.041921 328.01591,521.687507 324.870057,504.187633 C322.568458,491.387214 319.954173,477.266472 312.422887,466.390592 C311.984009,465.752808 309.602005,465.920646 310.057634,466.715078" id="Fill-197" fill="#0E243C" fill-rule="nonzero"></path>
                <path d="M301.194739,486.777373 C305.277137,487.614828 309.42679,489.855585 312.695399,492.413218 C314.473181,493.793887 315.866487,495.536698 317.006465,497.471898 C318.187917,499.486316 318.018658,500.504843 320.171949,501.636538 C321.1337,502.134484 322.937264,502.179752 323.789164,501.398882 C324.042493,501.172543 324.296942,500.934887 324.55027,500.708548 C324.991914,500.301137 325.106248,499.927678 324.90224,499.373147 C321.476702,489.946121 311.072304,485.170365 301.680098,485.00061 C299.960603,484.96666 299.184925,486.358645 301.194739,486.777373" id="Fill-198" fill="#0E243C" fill-rule="nonzero"></path>
                <path d="M327.156765,538.561854 C327.640084,542.485534 325.821722,545.973248 324.454008,549.550392 C322.907161,553.597035 322.01488,557.777821 321.08204,562.003322 C319.114964,570.901466 318.158466,579.989645 315.897343,588.831897 C313.199092,599.395648 311.367211,610.171792 309.210864,620.847329 C304.197413,645.652582 298.834711,670.81555 285.164326,692.479624 C284.009542,694.31291 289.287748,694.257017 290.198056,693.519231 C298.789646,686.487909 302.481574,673.47605 305.695815,663.359442 C309.976964,649.878083 313.001934,636.005474 315.824113,622.166401 C318.085235,611.088435 319.866419,599.887505 322.285268,588.831897 C324.224178,579.978467 325.288832,570.957359 326.668939,562.003322 C327.378709,557.39775 328.286763,552.971035 329.260161,548.432534 C329.982323,545.067784 330.43973,541.736569 329.352544,538.416533 C329.155386,537.81289 327.071142,537.868783 327.156765,538.561854" id="Fill-199" fill="#0E243C" fill-rule="nonzero"></path>
            </g>
        </g>
    </g>
</svg>