<?xml version="1.0" encoding="UTF-8"?>
<svg width="602px" height="740px" viewBox="0 0 602 740" version="1.1" xmlns="http://www.w3.org/2000/svg" xmlns:xlink="http://www.w3.org/1999/xlink">
    <title>Group 2</title>
    <g id="Page-1" stroke="none" stroke-width="1" fill="none" fill-rule="evenodd">
        <g id="1534_U1RVRElPIEtBVCAzMTEtMDU" transform="translate(-1408.000000, -1163.000000)">
            <g id="Group-2" transform="translate(1408.660000, 1165.670000)">
                <line x1="131.99" y1="0" x2="131.99" y2="40.12" id="Stroke-125" stroke="#FFFFFE" stroke-width="4.989" stroke-linecap="round" stroke-linejoin="round"></line>
                <line x1="112.11" y1="20.05" x2="151.87" y2="20.05" id="Stroke-128" stroke="#FFFFFE" stroke-width="4.989" stroke-linecap="round" stroke-linejoin="round"></line>
                <path d="M600.88,693.91 C600.88,717.35 466.37,736.36 300.44,736.36 C134.52,736.36 0,717.35 0,693.91 C0,670.46 134.52,651.46 300.44,651.46 C466.37,651.46 600.88,670.46 600.88,693.91" id="Fill-257" fill="#514F84"></path>
                <polyline id="Fill-258" fill="#F0AA93" points="417.79 579.52 416.97 672.32 396.09 672.37 381.81 579.59 417.79 579.52"></polyline>
                <path d="M390.73,689.3 L485.71,689.16 C484.41,677.73 475.51,675.2 475.51,675.2 L447.26,666.69 L421.74,651.5 L412.11,656.15 C412.11,656.15 410.17,655.8 412.12,660.52 C412.12,660.52 400.11,663.04 394.38,660.52 L390.73,690.39" id="Fill-259" fill="#303157"></path>
                <polyline id="Fill-260" fill="#2D2E53" points="390.74 693.84 485.72 693.71 485.71 689.16 390.73 689.3 390.74 693.84"></polyline>
                <path d="M445.25,665.86 C444.1,668.41 440.98,670.64 440.87,673.57 C440.85,674.04 442.04,673.99 442.22,673.66 C442.9,672.38 443.4,671.08 444.19,669.85 C444.96,668.63 445.78,667.39 446.22,665.99 C446.34,665.62 445.38,665.58 445.25,665.86" id="Fill-262" fill="#FFFFFE"></path>
                <path d="M438.47,662.41 C436.02,664.73 434.26,667.23 433.42,670.53 C434,670.49 434.57,670.46 435.15,670.42 C435.04,670.15 434.88,669.92 434.67,669.72 C434.5,669.53 434.1,669.53 433.93,669.72 C433.72,669.92 433.56,670.15 433.45,670.42 C433.16,670.94 434.98,671.28 435.19,670.53 C435.96,667.67 437.28,664.86 439.25,662.63 C439.53,662.31 438.66,662.22 438.47,662.41" id="Fill-263" fill="#FFFFFE"></path>
                <path d="M431.38,658.62 C430.95,662.11 428.35,663.99 425.79,665.95 C425.71,666.01 425.67,666.08 425.66,666.18 C425.69,666.34 425.65,666.39 425.75,666.34 C425.97,666.35 426.19,666.36 426.41,666.38 C426.39,666.36 426.37,666.35 426.36,666.34 C426.23,666.25 425.62,666.15 425.63,666.44 C425.63,666.45 425.63,666.47 425.63,666.48 C425.63,666.61 425.83,666.67 425.93,666.68 C427.27,666.82 428.61,665.6 429.57,664.8 C431.43,663.23 432.69,661.11 432.5,658.62 C432.47,658.23 431.43,658.23 431.38,658.62" id="Fill-264" fill="#FFFFFE"></path>
                <path d="M287.76,350.38 L260.84,310.07 L308.98,277.91 L335.91,318.22 C335.91,318.22 295.11,339.26 287.76,350.38" id="Fill-265" fill="#F0AA93"></path>
                <path d="M297.99,341.34 C312.1,332.03 335.91,318.22 335.91,318.22 L308.98,277.91 L294.52,287.57 C290.57,304.94 289.36,324.85 297.99,341.34" id="Fill-266" fill="#EA8A74"></path>
                <path d="M356.01,497.5 C339.73,515.68 320.52,508.23 304.36,487.7 C266.3,439.37 259.52,401.35 260.83,381.34 C259.56,377.33 272.49,345.59 299,370.47 C299,370.47 308,363.74 335.06,434.6 C335.06,434.6 341.82,449.73 350.4,443.87 C350.4,443.87 379.06,471.77 356.01,497.5" id="Fill-267" fill="#F0AA93"></path>
                <path d="M262.51,511.12 C262.51,511.12 315.94,514.03 336.09,479.31 L318.71,385.53 C318.71,385.53 316,348.51 281.64,361.41 C281.64,361.41 237.51,379.18 251.04,424.65 L262.51,511.12" id="Fill-268" fill="#0082BD"></path>
                <path d="M268.11,688.13 C286.08,687.3 303.3,680.17 314.68,666.34 C337.68,638.37 337.3,597.26 335.72,562.28 C333.87,521.26 307.48,457.48 256.47,493.57 C231.55,511.21 223.7,544.53 215.7,572.25 C209.36,594.23 201.52,623.68 201.609232,646.64 C201.67,664.11 204.45,674.84 220.69,681.76 C235.84,688.22 251.8,688.89 268.11,688.13" id="Fill-269" fill="#004E79"></path>
                <polyline id="Fill-270" fill="#F0AA93" points="341.36 579.52 340.53 672.32 319.65 672.37 305.37 579.59 341.36 579.52"></polyline>
                <path d="M314.29,689.3 L409.27,689.16 C407.97,677.73 399.07,675.2 399.07,675.2 L370.82,666.69 L345.29,651.5 L335.67,656.15 C335.67,656.15 333.73,655.8 335.68,660.52 C335.68,660.52 323.67,663.04 317.94,660.52 L314.29,690.39" id="Fill-271" fill="#3C406F"></path>
                <polyline id="Fill-272" fill="#2D2E53" points="314.3 693.84 409.28 693.71 409.27 689.16 314.29 689.3 314.3 693.84"></polyline>
                <path d="M378.83,669.12 C375.48,668.96 373.53,673.95 373.08,676.6 C373.35,676.47 373.62,676.34 373.89,676.2 C373.7,676.21 373.5,676.22 373.31,676.25 C373.63,676.37 373.95,676.49 374.27,676.6 C374.21,676.37 374.08,676.3 373.89,676.11 C373.73,675.96 373.28,675.95 373.12,676.11 C372.95,676.29 372.8,676.38 372.75,676.6 C372.71,676.84 373.17,676.95 373.31,676.96 C373.5,676.98 373.7,676.99 373.89,677 C374.17,677 374.63,676.93 374.7,676.6 C374.98,675.17 375.41,673.86 376.1,672.58 C376.68,671.49 377.81,669.89 379.06,669.53 C379.53,669.4 379.1,669.14 378.83,669.12" id="Fill-273" fill="#FFFFFE"></path>
                <path d="M368.81,665.86 C367.66,668.41 364.54,670.64 364.42,673.57 C364.41,674.04 365.6,673.99 365.78,673.66 C366.46,672.39 366.96,671.08 367.74,669.85 C368.52,668.63 369.34,667.39 369.77,665.99 C369.89,665.62 368.94,665.58 368.81,665.86" id="Fill-274" fill="#FFFFFE"></path>
                <path d="M362.02,662.41 C359.57,664.73 357.82,667.23 356.97,670.53 C357.55,670.49 358.13,670.46 358.71,670.42 C358.59,670.15 358.43,669.92 358.22,669.72 C358.06,669.53 357.65,669.53 357.49,669.72 C357.28,669.92 357.12,670.15 357,670.42 C356.71,670.94 358.54,671.28 358.74,670.53 C359.52,667.67 360.83,664.86 362.8,662.63 C363.08,662.31 362.22,662.22 362.02,662.41" id="Fill-275" fill="#FFFFFE"></path>
                <path d="M353.48,656.74 C352.1,658.61 350.56,660.78 349.65,662.93 C349.35,663.62 349.42,664.37 349.07,665.02 C348.7,665.68 349.03,665.86 349.18,666.48 C349.43,666.44 349.69,666.41 349.95,666.38 C349.94,666.36 349.93,666.35 349.91,666.34 C349.77,666.19 349.23,666.19 349.19,666.44 C349.18,666.45 349.18,666.47 349.18,666.48 C349.12,666.78 349.87,666.67 349.99,666.53 C350.42,666.01 350.61,665.9 350.84,665.26 C351.13,664.44 351.3,663.5 351.64,662.63 C351.95,661.82 352.49,661.1 352.93,660.36 C353.59,659.26 353.99,658.03 354.56,656.88 C354.76,656.49 353.67,656.47 353.48,656.74" id="Fill-276" fill="#FFFFFE"></path>
                <path d="M426.98,632.02 C426.98,632.02 406.34,652.66 375.3,641.22 C363.79,636.98 344.87,537.23 330.05,470.55 C330.13,363.71 374.59,373.23 374.59,373.23 C374.59,373.23 425.4,419.28 426.98,632.02" id="Fill-277" fill="#004E79"></path>
                <path d="M421.34,600.74 C421.34,600.74 418.19,353.37 355.54,337.51 C312.67,326.66 293.8,398.31 293.8,398.31 L272.67,536.84 L249.12,493.37 C249.12,493.37 192.92,495.73 119.99,493.83 C91.33,537.65 89.38,571.2 94.78,615.76 C96.48,629.91 108.62,648.29 117.6,658.63 C134.27,677.81 161.38,690.68 186.36,693.77 C219.13,697.82 235.92,686.24 257.28,663.45 C257.28,663.45 277.91,543.4 290.1,535.38 C313.99,519.65 360.36,614.23 421.34,600.74" id="Fill-278" fill="#004E79"></path>
                <path d="M138.1,522.99 C135.56,529.44 136.13,537.54 134.95,544.36 C133.53,552.48 131.07,560.22 127.69,567.73 C124.5,574.81 119.87,581.03 113.64,585.7 C110.3,588.19 106.62,589.83 102.6,590.91 C100.95,591.35 95,591.63 95.39,594.29 C95.46,594.79 96.07,594.92 96.49,595 C99.48,595.55 102.22,594.37 105.09,593.8 C109.11,593 112.93,591.56 116.56,589.68 C124.01,585.81 129.52,579.06 133.52,571.83 C137.59,564.5 139.67,556.08 141.08,547.87 C142.34,540.48 144.43,530.21 141.64,522.99 C141.27,522.04 138.47,522.05 138.1,522.99" id="Fill-279" fill="#003E61"></path>
                <path d="M310.86,365.19 C295.73,405.8 297.8,415.17 290.74,444.51 C286.78,460.96 262.74,453.58 252.64,467.24 C243.18,480.02 236.96,492.04 230.1,506.01 C223.56,519.33 222.47,524.54 206.41,526.69 C191.06,528.75 184.13,533.69 168.98,531.8 C153.4,529.86 133.18,524.35 118.06,519.8 C94.15,512.62 96.74,492.72 99.7,474 C108.72,416.88 120.22,357.77 166.56,318.04 C181.9,304.88 201.39,295.78 221.52,293.39 C236.45,291.63 258.34,294.72 271.46,302.43 C273.63,303.71 278.89,343.78 300.9,339.54 L310.86,365.19" id="Fill-280" fill="#00A3DA"></path>
                <path d="M361.8,639.64 C361.8,639.64 336.66,659.22 304.65,649.95 L277.66,557.08 L211.77,658.69 C211.77,658.69 137.15,657.1 133.97,576.13 L226.06,385.61 C226.06,385.61 265.57,320.84 315.05,339.89 C315.05,339.89 344.43,346.77 344.42,414.51 C344.42,414.51 356.51,552.84 361.8,639.64" id="Fill-281" fill="#004E79"></path>
                <path d="M260.43,484.89 C266.4,495.29 267.75,507.38 269.83,518.97 C272.54,534.07 276.3,549.06 279.53,564.06 C285.37,591.15 291.73,618.76 306.44,642.57 C306.65,642.9 307.89,642.86 307.69,642.4 C296.04,615.83 288.57,588.59 282.42,560.3 C279.34,546.11 275.8,531.93 273.2,517.64 C271.17,506.46 269.06,494.13 262.47,484.62 C262.09,484.07 260.04,484.21 260.43,484.89" id="Fill-282" fill="#003E61"></path>
                <path d="M253.87,502 C257.28,502.7 260.77,504.58 263.51,506.69 C265,507.85 266.17,509.29 267.12,510.91 C268.13,512.6 267.97,513.45 269.81,514.38 C270.66,514.81 272.16,514.84 272.91,514.19 C273.13,513.99 273.35,513.8 273.57,513.61 C273.95,513.27 274.04,512.95 273.87,512.48 C270.98,504.6 262.2,500.62 254.28,500.49 C252.81,500.47 252.14,501.64 253.87,502" id="Fill-283" fill="#003E61"></path>
                <path d="M275.38,545.96 C275.78,549.58 274,552.93 272.72,556.22 C271.47,559.41 270.88,562.89 270.18,566.23 C268.64,573.62 267.77,581.13 265.91,588.46 C263.68,597.24 262.16,606.19 260.39,615.07 C256.17,636.15 251.63,657.4 240.2,675.85 C239.22,677.43 243.72,677.37 244.49,676.73 C251.59,670.9 254.66,660.14 257.34,651.72 C260.91,640.51 263.43,628.96 265.78,617.44 C267.7,608.01 269.24,598.51 271.21,589.11 C272.81,581.53 273.81,573.88 274.96,566.23 C275.58,562.12 276.11,558.13 277.24,554.12 C278,551.44 278.09,548.49 277.25,545.84 C277.09,545.32 275.31,545.36 275.38,545.96" id="Fill-284" fill="#003E61"></path>
                <path d="M309.82,356.03 C325.77,371.69 329.74,396.24 333.69,417.33 C336.38,431.71 338.22,446.25 340.37,460.72 C343.38,480.96 346.43,501.2 349.25,521.47 C350.59,531.1 351.76,540.76 353.08,550.4 C354.16,558.26 354.65,566.36 356.22,574.13 C356.73,576.66 357.4,579.1 358.14,581.57 C358.29,582.05 359.66,581.97 359.75,581.46 C360.91,574.47 360.17,567.71 359.51,560.69 C358.65,551.59 357.57,542.53 356.4,533.46 C353.78,513.04 351.03,492.61 347.69,472.3 C345,455.94 342.11,439.61 338.66,423.4 C334.88,405.62 330.15,387.39 321.92,371.13 C319.02,365.4 315.19,360.24 310.52,355.83 C310.34,355.66 309.56,355.77 309.82,356.03" id="Fill-285" fill="#003E61"></path>
                <path d="M247.95,618.4 C223.98,599 195.55,567.79 176.08,520.06 C210.82,499.42 230.92,521.04 230.92,521.04 C230.92,521.04 234.45,535.86 246.9,558.37 C246.9,558.37 251.34,570.02 247.95,618.4" id="Fill-286" fill="#F0AA93"></path>
                <path d="M213.15,544.18 C189.24,549.05 178.22,534.34 173.36,508.68 C161.9,448.24 173.43,411.38 183.82,394.23 C184.55,390.09 210.67,367.9 222.71,402.21 C222.71,402.21 233.81,414.46 225.11,489.79 C225.11,489.79 224.69,500.1 231.45,524.26 C231.45,524.26 241.64,538.37 213.15,544.18" id="Fill-287" fill="#F0AA93"></path>
                <path d="M150.01,468.94 C150.01,468.94 208.69,483.05 239.3,449.79 L245.18,361.56 C245.18,361.56 245.93,326.46 209.78,320.13 C209.78,320.13 170.04,317.6 158.62,363.64 L150.01,468.94" id="Fill-288" fill="#00A3DA"></path>
                <path d="M186.81,324.72 C178.97,327.93 172.4,335.18 167.34,341.78 C163.35,346.98 159.19,353.6 159.17,360.33 C159.17,361.09 161.06,361 161.34,360.47 C163.27,356.84 163.78,352.62 165.54,348.87 C166.4,347.05 167.66,345.46 168.77,343.79 C173.53,336.66 180.17,329.38 187.75,325.18 C188.43,324.8 187.14,324.59 186.81,324.72" id="Fill-289" fill="#0082BD"></path>
                <path d="M244.71,363.86 C243.6,392.91 241.4,422.31 236.87,451.03 C236.67,452.3 240.85,452.34 240.67,451.03 C240.55,450.15 240.55,450.14 240.15,449.34 C239.87,448.79 238.54,448.83 238.16,449.21 C237.48,449.89 237.4,449.97 236.94,450.79 C238.18,450.87 239.43,450.95 240.67,451.03 C243.74,438.77 243.63,425.42 244.21,412.86 C244.97,396.53 246.82,380.23 246.41,363.86 C246.39,363.27 244.73,363.27 244.71,363.86" id="Fill-290" fill="#0082BD"></path>
                <path d="M158.08,366.14 C156.46,388.77 152.46,411.07 152.18,433.8 C152.1,439.81 144.19,477.1 159.86,470.54 C161.26,469.96 159.31,469.2 158.71,469.19 C152.67,469.09 154.7,453.22 154.97,449.71 C155.53,442.42 156.34,435.37 156.4,428.06 C156.56,407.44 161.27,386.75 159.71,366.14 C159.67,365.57 158.12,365.57 158.08,366.14" id="Fill-291" fill="#0082BD"></path>
                <path d="M374.6,337.46 C357.4,342.98 326.3,349.75 311.53,341.33 C293.63,331.12 302.79,284.77 312.55,268.62 C324.75,248.41 355.19,237.1 377.96,234.3 C403.89,231.12 427.24,249.91 428.94,276.73 C430.64,303.52 397.17,330.23 374.6,337.46" id="Fill-292" fill="#ED9E86"></path>
                <path d="M379.26,234.66 C384.2,234.17 389.03,234.48 393.62,235.48 L340.45,261.64 L319.21,269 L311.85,269.45 C312.25,268.73 312.65,268.03 313.05,267.4 C325.72,247.49 356.44,236.91 379.26,234.66" id="Fill-293" fill="#EA8A74"></path>
                <path d="M346.76,235.62 C337.33,232.09 320.23,244.71 319.96,260.56 C325.02,262.14 334.61,257.64 339.55,255.87 C344.41,254.13 348.95,252.24 351.61,247.57 C352.42,246.13 353.71,238.24 346.76,235.62" id="Fill-294" fill="#ED9E86"></path>
                <path d="M337.64,250.89 C336.65,251.32 335.69,251.96 334.61,252.14 C334.96,252.19 335.3,252.23 335.64,252.28 C334.63,251.87 333.55,251.25 334.13,250.03 C334.64,248.99 335.77,248.24 336.69,247.61 C337.76,246.88 338.94,246.36 340.05,245.7 C340.48,245.44 341.18,245.05 341.41,244.57 C341.61,244.16 340.74,244.14 340.55,244.15 C339.23,244.25 338,244.87 336.86,245.51 C335.27,246.4 333.57,247.42 332.39,248.84 C331.5,249.92 331.28,251.11 332.4,252.11 C334.6,254.06 336.62,252.61 338.74,251.43 C339.54,250.99 338.03,250.72 337.64,250.89" id="Fill-295" fill="#EA8A74"></path>
                <path d="M342.35,247.14 C345.09,243.95 341.32,240.98 338.14,241.19 C334.14,241.46 329.4,244.6 329.03,248.91 C328.99,249.36 330.02,249.2 330.2,248.99 C331.81,247.01 333.06,244.72 335.3,243.34 C336.75,242.44 338.73,241.82 340.33,242.85 C341.47,243.59 341.72,245.86 341.1,246.97 C340.85,247.43 342.12,247.41 342.35,247.14" id="Fill-296" fill="#EA8A74"></path>
                <path d="M418.75,243.1 C418.02,245.17 416.59,247.05 415.14,248.43 C412.23,252.9 398.88,267.62 396.95,270.18 C391.71,277.12 384.29,273.59 378.07,270.33 C376.1,269.31 374.15,268.26 372.17,267.24 C366.22,264.17 360.1,261.48 353.29,261.13 C348.79,260.9 337.37,263.39 335.03,257.76 C340.68,255.51 351.77,249.51 350.47,240.46 C350.5,239.26 348.99,235.74 341.53,234.85 C341.53,234.85 392.02,199.22 418.75,243.1" id="Fill-297" fill="#A26C42"></path>
                <path d="M394.56,272.74 L418.18,242.82 C430.32,246.71 436.89,273.1 436.89,273.11 C439.16,282.23 438.46,313.16 413.65,330.6 C413.65,330.6 375.79,363.12 345.04,344.64 C371.69,340.17 388.23,334.76 401.37,319.21 C397.05,313.55 393.45,297.42 394.1,291.39 C394.82,284.76 394.54,276.45 396.64,270.11" id="Fill-298" fill="#A26C42"></path>
                <path d="M350.74,305.59 C348.46,306.33 345.2,302.59 343.44,297.23 C341.68,291.87 342.09,286.92 344.36,286.17 C346.63,285.43 349.9,289.17 351.66,294.53 C353.42,299.89 353,304.84 350.74,305.59" id="Fill-299" fill="#EA9387"></path>
                <path d="M362.41,341.14 C360.14,341.88 357.15,338.99 355.73,334.67 C354.31,330.36 355,326.25 357.28,325.5 C359.55,324.76 362.53,327.65 363.95,331.97 C365.37,336.29 364.68,340.39 362.41,341.14" id="Fill-300" fill="#EA9387"></path>
                <path d="M369.62,312.42 C367.58,311.82 365.62,312.91 363.95,314.04 C361.24,315.89 359.78,318.28 358.24,321.11 C357.36,322.73 356.16,324.85 353.97,324.25 C352.65,323.9 351.53,322.81 350.57,321.89 C348.82,320.21 347.43,318.12 346.26,316.01 C346.16,316.2 346.06,316.39 345.95,316.58 C346.04,316.54 346.12,316.5 346.2,316.45 C347.22,315.91 345.57,315.54 345.15,315.57 C347.42,315.39 345.35,315.55 344.78,315.6 C344.49,315.62 343.69,315.87 343.94,316.32 C346.14,320.18 349.94,325.13 354.77,325.32 C357.33,325.43 358.79,323.33 359.85,321.33 C360.68,319.76 361.44,318.19 362.52,316.77 C363.75,315.15 367.04,312.4 369.28,312.81 C369.57,312.86 370.13,312.56 369.62,312.42" id="Fill-301" fill="#EA8A74"></path>
                <path d="M362.67,283.43 C365.55,285.66 367.88,288.34 368.8,291.92 C369.67,295.28 368.27,298.23 367.81,301.48 C367.67,302.43 370.18,302.27 370.54,301.66 C374.85,294.53 370.44,286.72 364.17,282.87 C363.77,282.63 362.01,282.92 362.67,283.43" id="Fill-302" fill="#A26C42"></path>
                <path d="M382.63,333.26 C384.4,327.11 381.8,320.37 375.79,317.55 C375.28,317.32 372.65,317.41 373.6,318.38 C375.7,320.53 377.98,321.91 379.49,324.66 C380.88,327.18 381.05,330.33 380.76,333.13 C380.7,333.73 382.48,333.78 382.63,333.26" id="Fill-303" fill="#A26C42"></path>
                <path d="M358.48,290.62 C358.48,290.62 357.26,295.77 361.33,299.29 M369.59,324.43 C369.59,324.43 368.35,329.58 372.43,333.1" id="Stroke-304" stroke="#6C4634" stroke-width="2.177" stroke-linecap="round" stroke-linejoin="round"></path>
                <path d="M335.11,317.44 C335.32,320.32 336.49,323.13 337.1,325.94 C337.47,327.62 337.34,329.29 337.03,330.96 C336.92,331.52 336.75,332.09 336.58,332.63 C336.33,333.46 335.93,333.33 336.81,333.56 C336.57,333.5 335.96,333.45 335.82,333.76 C335.79,333.83 335.76,333.9 335.74,333.97 C335.67,334.11 335.71,334.25 335.84,334.35 C335.87,334.37 335.9,334.39 335.93,334.42 C336.47,334.83 337.4,334.8 337.95,334.42 C339.61,333.26 339.6,329.19 339.51,327.53 C339.31,323.83 337.17,320.79 336.13,317.37 C336.04,317.09 335.09,317.11 335.11,317.44" id="Fill-305" fill="#EA8A74"></path>
                <path d="M278.27,366.35 C287.91,362.89 280.39,342.01 301.77,308.08 C312.32,291.35 328.26,278.14 346.03,269.44 C354.72,265.18 363.2,262.13 373,262.1 C385.22,262.05 392.23,264.54 401.66,254.89 C402.07,253.74 405.95,245.65 406.36,241.46 C409.54,208.77 356.59,209.7 327.48,214.47 C308.18,217.63 281.32,231.37 265.57,243.05 C254.89,250.96 240.16,259.45 233.81,277.97 C233.81,277.97 220.58,328.25 278.27,366.35" id="Fill-306" fill="#A26C42"></path>
            </g>
        </g>
    </g>
</svg>