<?xml version="1.0" encoding="UTF-8"?>
<svg width="801px" height="801px" viewBox="0 0 801 801" version="1.1" xmlns="http://www.w3.org/2000/svg" xmlns:xlink="http://www.w3.org/1999/xlink">
    <title>Group</title>
    <g id="Page-1" stroke="none" stroke-width="1" fill="none" fill-rule="evenodd">
        <g id="Group" transform="translate(1.162781, 1.338292)">
            <g id="5" fill="#D8D8D8" fill-rule="nonzero" opacity="0" stroke="#979797">
                <g id="Page-1">
                    <rect id="Rectangle" x="4.6629367e-15" y="1.95399252e-14" width="799" height="799"></rect>
                </g>
            </g>
            <path d="M695.377219,697.241708 C695.377219,720.681708 560.867219,739.691708 394.937219,739.691708 C229.017219,739.691708 94.497219,720.681708 94.497219,697.241708 C94.497219,673.791708 229.017219,654.791708 394.937219,654.791708 C560.867219,654.791708 695.377219,673.791708 695.377219,697.241708" id="Fill-257" fill="#514F84" fill-rule="nonzero"></path>
            <polyline id="Fill-258" fill="#F0AA93" fill-rule="nonzero" points="512.287219 582.851708 511.467219 675.651708 490.587219 675.701708 476.307219 582.921708 512.287219 582.851708"></polyline>
            <path d="M485.227219,692.631708 L580.207219,692.491708 C578.907219,681.061708 570.007219,678.531708 570.007219,678.531708 L541.757219,670.021708 L516.237219,654.831708 L506.607219,659.481708 C506.607219,659.481708 504.667219,659.131708 506.617219,663.851708 C506.617219,663.851708 494.607219,666.371708 488.877219,663.851708 L485.227219,693.721708" id="Fill-259" fill="#303157" fill-rule="nonzero"></path>
            <polyline id="Fill-260" fill="#2D2E53" fill-rule="nonzero" points="485.237219 697.171708 580.217219 697.041708 580.207219 692.491708 485.227219 692.631708 485.237219 697.171708"></polyline>
            <path d="M539.747219,669.191708 C538.597219,671.741708 535.477219,673.971708 535.367219,676.901708 C535.347219,677.371708 536.537219,677.321708 536.717219,676.991708 C537.397219,675.711708 537.897219,674.411708 538.687219,673.181708 C539.457219,671.961708 540.277219,670.721708 540.717219,669.321708 C540.837219,668.951708 539.877219,668.911708 539.747219,669.191708" id="Fill-262" fill="#FFFFFE" fill-rule="nonzero"></path>
            <path d="M532.967219,665.741708 C530.517219,668.061708 528.757219,670.561708 527.917219,673.861708 C528.497219,673.821708 529.067219,673.791708 529.647219,673.751708 C529.537219,673.481708 529.377219,673.251708 529.167219,673.051708 C528.997219,672.861708 528.597219,672.861708 528.427219,673.051708 C528.217219,673.251708 528.057219,673.481708 527.947219,673.751708 C527.657219,674.271708 529.477219,674.611708 529.687219,673.861708 C530.457219,671.001708 531.777219,668.191708 533.747219,665.961708 C534.027219,665.641708 533.157219,665.551708 532.967219,665.741708" id="Fill-263" fill="#FFFFFE" fill-rule="nonzero"></path>
            <path d="M525.877219,661.951708 C525.447219,665.441708 522.847219,667.321708 520.287219,669.281708 C520.207219,669.341708 520.167219,669.411708 520.157219,669.511708 C520.187219,669.671708 520.147219,669.721708 520.247219,669.671708 C520.467219,669.681708 520.687219,669.691708 520.907219,669.711708 C520.887219,669.691708 520.867219,669.681708 520.857219,669.671708 C520.727219,669.581708 520.117219,669.481708 520.127219,669.771708 C520.127219,669.781708 520.127219,669.801708 520.127219,669.811708 C520.127219,669.941708 520.327219,670.001708 520.427219,670.011708 C521.767219,670.151708 523.107219,668.931708 524.067219,668.131708 C525.927219,666.561708 527.187219,664.441708 526.997219,661.951708 C526.967219,661.561708 525.927219,661.561708 525.877219,661.951708" id="Fill-264" fill="#FFFFFE" fill-rule="nonzero"></path>
            <path d="M382.257219,353.711708 L355.337219,313.401708 L403.477219,281.241708 L430.407219,321.551708 C430.407219,321.551708 389.607219,342.591708 382.257219,353.711708" id="Fill-265" fill="#F0AA93" fill-rule="nonzero"></path>
            <path d="M392.487219,344.671708 C406.597219,335.361708 430.407219,321.551708 430.407219,321.551708 L403.477219,281.241708 L389.017219,290.901708 C385.067219,308.271708 383.857219,328.181708 392.487219,344.671708" id="Fill-266" fill="#EA8A74" fill-rule="nonzero"></path>
            <path d="M450.507219,500.831708 C434.227219,519.011708 415.017219,511.561708 398.857219,491.031708 C360.797219,442.701708 354.017219,404.681708 355.327219,384.671708 C354.057219,380.661708 366.987219,348.921708 393.497219,373.801708 C393.497219,373.801708 402.497219,367.071708 429.557219,437.931708 C429.557219,437.931708 436.317219,453.061708 444.897219,447.201708 C444.897219,447.201708 473.557219,475.101708 450.507219,500.831708" id="Fill-267" fill="#F0AA93" fill-rule="nonzero"></path>
            <path d="M357.007219,514.451708 C357.007219,514.451708 410.437219,517.361708 430.587219,482.641708 L413.207219,388.861708 C413.207219,388.861708 410.497219,351.841708 376.137219,364.741708 C376.137219,364.741708 332.007219,382.511708 345.537219,427.981708 L357.007219,514.451708" id="Fill-268" fill="#0082BD" fill-rule="nonzero"></path>
            <path d="M362.607219,691.461708 C380.577219,690.631708 397.797219,683.501708 409.177219,669.671708 C432.177219,641.701708 431.797219,600.591708 430.217219,565.611708 C428.367219,524.591708 401.977219,460.811708 350.967219,496.901708 C326.047219,514.541708 318.197219,547.861708 310.197219,575.581708 C303.857219,597.561708 296.017219,627.011708 296.105696,649.971708 C296.167219,667.441708 298.947219,678.171708 315.187219,685.091708 C330.337219,691.551708 346.297219,692.221708 362.607219,691.461708" id="Fill-269" fill="#004E79" fill-rule="nonzero"></path>
            <polyline id="Fill-270" fill="#F0AA93" fill-rule="nonzero" points="435.857219 582.851708 435.027219 675.651708 414.147219 675.701708 399.867219 582.921708 435.857219 582.851708"></polyline>
            <path d="M408.787219,692.631708 L503.767219,692.491708 C502.467219,681.061708 493.567219,678.531708 493.567219,678.531708 L465.317219,670.021708 L439.787219,654.831708 L430.167219,659.481708 C430.167219,659.481708 428.227219,659.131708 430.177219,663.851708 C430.177219,663.851708 418.167219,666.371708 412.437219,663.851708 L408.787219,693.721708" id="Fill-271" fill="#3C406F" fill-rule="nonzero"></path>
            <polyline id="Fill-272" fill="#2D2E53" fill-rule="nonzero" points="408.797219 697.171708 503.777219 697.041708 503.767219 692.491708 408.787219 692.631708 408.797219 697.171708"></polyline>
            <path d="M473.327219,672.451708 C469.977219,672.291708 468.027219,677.281708 467.577219,679.931708 C467.847219,679.801708 468.117219,679.671708 468.387219,679.531708 C468.197219,679.541708 467.997219,679.551708 467.807219,679.581708 C468.127219,679.701708 468.447219,679.821708 468.767219,679.931708 C468.707219,679.701708 468.577219,679.631708 468.387219,679.441708 C468.227219,679.291708 467.777219,679.281708 467.617219,679.441708 C467.447219,679.621708 467.297219,679.711708 467.247219,679.931708 C467.207219,680.171708 467.667219,680.281708 467.807219,680.291708 C467.997219,680.311708 468.197219,680.321708 468.387219,680.331708 C468.667219,680.331708 469.127219,680.261708 469.197219,679.931708 C469.477219,678.501708 469.907219,677.191708 470.597219,675.911708 C471.177219,674.821708 472.307219,673.221708 473.557219,672.861708 C474.027219,672.731708 473.597219,672.471708 473.327219,672.451708" id="Fill-273" fill="#FFFFFE" fill-rule="nonzero"></path>
            <path d="M463.307219,669.191708 C462.157219,671.741708 459.037219,673.971708 458.917219,676.901708 C458.907219,677.371708 460.097219,677.321708 460.277219,676.991708 C460.957219,675.721708 461.457219,674.411708 462.237219,673.181708 C463.017219,671.961708 463.837219,670.721708 464.267219,669.321708 C464.387219,668.951708 463.437219,668.911708 463.307219,669.191708" id="Fill-274" fill="#FFFFFE" fill-rule="nonzero"></path>
            <path d="M456.517219,665.741708 C454.067219,668.061708 452.317219,670.561708 451.467219,673.861708 C452.047219,673.821708 452.627219,673.791708 453.207219,673.751708 C453.087219,673.481708 452.927219,673.251708 452.717219,673.051708 C452.557219,672.861708 452.147219,672.861708 451.987219,673.051708 C451.777219,673.251708 451.617219,673.481708 451.497219,673.751708 C451.207219,674.271708 453.037219,674.611708 453.237219,673.861708 C454.017219,671.001708 455.327219,668.191708 457.297219,665.961708 C457.577219,665.641708 456.717219,665.551708 456.517219,665.741708" id="Fill-275" fill="#FFFFFE" fill-rule="nonzero"></path>
            <path d="M447.977219,660.071708 C446.597219,661.941708 445.057219,664.111708 444.147219,666.261708 C443.847219,666.951708 443.917219,667.701708 443.567219,668.351708 C443.197219,669.011708 443.527219,669.191708 443.677219,669.811708 C443.927219,669.771708 444.187219,669.741708 444.447219,669.711708 C444.437219,669.691708 444.427219,669.681708 444.407219,669.671708 C444.267219,669.521708 443.727219,669.521708 443.687219,669.771708 C443.677219,669.781708 443.677219,669.801708 443.677219,669.811708 C443.617219,670.111708 444.367219,670.001708 444.487219,669.861708 C444.917219,669.341708 445.107219,669.231708 445.337219,668.591708 C445.627219,667.771708 445.797219,666.831708 446.137219,665.961708 C446.447219,665.151708 446.987219,664.431708 447.427219,663.691708 C448.087219,662.591708 448.487219,661.361708 449.057219,660.211708 C449.257219,659.821708 448.167219,659.801708 447.977219,660.071708" id="Fill-276" fill="#FFFFFE" fill-rule="nonzero"></path>
            <path d="M521.477219,635.351708 C521.477219,635.351708 500.837219,655.991708 469.797219,644.551708 C458.287219,640.311708 439.367219,540.561708 424.547219,473.881708 C424.627219,367.041708 469.087219,376.561708 469.087219,376.561708 C469.087219,376.561708 519.897219,422.611708 521.477219,635.351708" id="Fill-277" fill="#004E79" fill-rule="nonzero"></path>
            <path d="M515.837219,604.071708 C515.837219,604.071708 512.687219,356.701708 450.037219,340.841708 C407.167219,329.991708 388.297219,401.641708 388.297219,401.641708 L367.167219,540.171708 L343.617219,496.701708 C343.617219,496.701708 287.417219,499.061708 214.487219,497.161708 C185.827219,540.981708 183.877219,574.531708 189.277219,619.091708 C190.977219,633.241708 203.117219,651.621708 212.097219,661.961708 C228.767219,681.141708 255.877219,694.011708 280.857219,697.101708 C313.627219,701.151708 330.417219,689.571708 351.777219,666.781708 C351.777219,666.781708 372.407219,546.731708 384.597219,538.711708 C408.487219,522.981708 454.857219,617.561708 515.837219,604.071708" id="Fill-278" fill="#004E79" fill-rule="nonzero"></path>
            <path d="M232.597219,526.321708 C230.057219,532.771708 230.627219,540.871708 229.447219,547.691708 C228.027219,555.811708 225.567219,563.551708 222.187219,571.061708 C218.997219,578.141708 214.367219,584.361708 208.137219,589.031708 C204.797219,591.521708 201.117219,593.161708 197.097219,594.241708 C195.447219,594.681708 189.497219,594.961708 189.887219,597.621708 C189.957219,598.121708 190.567219,598.251708 190.987219,598.331708 C193.977219,598.881708 196.717219,597.701708 199.587219,597.131708 C203.607219,596.331708 207.427219,594.891708 211.057219,593.011708 C218.507219,589.141708 224.017219,582.391708 228.017219,575.161708 C232.087219,567.831708 234.167219,559.411708 235.577219,551.201708 C236.837219,543.811708 238.927219,533.541708 236.137219,526.321708 C235.767219,525.371708 232.967219,525.381708 232.597219,526.321708" id="Fill-279" fill="#003E61" fill-rule="nonzero"></path>
            <path d="M405.357219,368.521708 C390.227219,409.131708 392.297219,418.501708 385.237219,447.841708 C381.277219,464.291708 357.237219,456.911708 347.137219,470.571708 C337.677219,483.351708 331.457219,495.371708 324.597219,509.341708 C318.057219,522.661708 316.967219,527.871708 300.907219,530.021708 C285.557219,532.081708 278.627219,537.021708 263.477219,535.131708 C247.897219,533.191708 227.677219,527.681708 212.557219,523.131708 C188.647219,515.951708 191.237219,496.051708 194.197219,477.331708 C203.217219,420.211708 214.717219,361.101708 261.057219,321.371708 C276.397219,308.211708 295.887219,299.111708 316.017219,296.721708 C330.947219,294.961708 352.837219,298.051708 365.957219,305.761708 C368.127219,307.041708 373.387219,347.111708 395.397219,342.871708 L405.357219,368.521708" id="Fill-280" fill="#00A3DA" fill-rule="nonzero"></path>
            <path d="M456.297219,642.971708 C456.297219,642.971708 431.157219,662.551708 399.147219,653.281708 L372.157219,560.411708 L306.267219,662.021708 C306.267219,662.021708 231.647219,660.431708 228.467219,579.461708 L320.557219,388.941708 C320.557219,388.941708 360.067219,324.171708 409.547219,343.221708 C409.547219,343.221708 438.927219,350.101708 438.917219,417.841708 C438.917219,417.841708 451.007219,556.171708 456.297219,642.971708" id="Fill-281" fill="#004E79" fill-rule="nonzero"></path>
            <path d="M354.927219,488.221708 C360.897219,498.621708 362.247219,510.711708 364.327219,522.301708 C367.037219,537.401708 370.797219,552.391708 374.027219,567.391708 C379.867219,594.481708 386.227219,622.091708 400.937219,645.901708 C401.147219,646.231708 402.387219,646.191708 402.187219,645.731708 C390.537219,619.161708 383.067219,591.921708 376.917219,563.631708 C373.837219,549.441708 370.297219,535.261708 367.697219,520.971708 C365.667219,509.791708 363.557219,497.461708 356.967219,487.951708 C356.587219,487.401708 354.537219,487.541708 354.927219,488.221708" id="Fill-282" fill="#003E61" fill-rule="nonzero"></path>
            <path d="M348.367219,505.331708 C351.777219,506.031708 355.267219,507.911708 358.007219,510.021708 C359.497219,511.181708 360.667219,512.621708 361.617219,514.241708 C362.627219,515.931708 362.467219,516.781708 364.307219,517.711708 C365.157219,518.141708 366.657219,518.171708 367.407219,517.521708 C367.627219,517.321708 367.847219,517.131708 368.067219,516.941708 C368.447219,516.601708 368.537219,516.281708 368.367219,515.811708 C365.477219,507.931708 356.697219,503.951708 348.777219,503.821708 C347.307219,503.801708 346.637219,504.971708 348.367219,505.331708" id="Fill-283" fill="#003E61" fill-rule="nonzero"></path>
            <path d="M369.877219,549.291708 C370.277219,552.911708 368.497219,556.261708 367.217219,559.551708 C365.967219,562.741708 365.377219,566.221708 364.677219,569.561708 C363.137219,576.951708 362.267219,584.461708 360.407219,591.791708 C358.177219,600.571708 356.657219,609.521708 354.887219,618.401708 C350.667219,639.481708 346.127219,660.731708 334.697219,679.181708 C333.717219,680.761708 338.217219,680.701708 338.987219,680.061708 C346.087219,674.231708 349.157219,663.471708 351.837219,655.051708 C355.407219,643.841708 357.927219,632.291708 360.277219,620.771708 C362.197219,611.341708 363.737219,601.841708 365.707219,592.441708 C367.307219,584.861708 368.307219,577.211708 369.457219,569.561708 C370.077219,565.451708 370.607219,561.461708 371.737219,557.451708 C372.497219,554.771708 372.587219,551.821708 371.747219,549.171708 C371.587219,548.651708 369.807219,548.691708 369.877219,549.291708" id="Fill-284" fill="#003E61" fill-rule="nonzero"></path>
            <path d="M404.317219,359.361708 C420.267219,375.021708 424.237219,399.571708 428.187219,420.661708 C430.877219,435.041708 432.717219,449.581708 434.867219,464.051708 C437.877219,484.291708 440.927219,504.531708 443.747219,524.801708 C445.087219,534.431708 446.257219,544.091708 447.577219,553.731708 C448.657219,561.591708 449.147219,569.691708 450.717219,577.461708 C451.227219,579.991708 451.897219,582.431708 452.637219,584.901708 C452.787219,585.381708 454.157219,585.301708 454.247219,584.791708 C455.407219,577.801708 454.667219,571.041708 454.007219,564.021708 C453.147219,554.921708 452.067219,545.861708 450.897219,536.791708 C448.277219,516.371708 445.527219,495.941708 442.187219,475.631708 C439.497219,459.271708 436.607219,442.941708 433.157219,426.731708 C429.377219,408.951708 424.647219,390.721708 416.417219,374.461708 C413.517219,368.731708 409.687219,363.571708 405.017219,359.161708 C404.837219,358.991708 404.057219,359.101708 404.317219,359.361708" id="Fill-285" fill="#003E61" fill-rule="nonzero"></path>
            <path d="M342.447219,621.731708 C318.477219,602.331708 290.047219,571.121708 270.577219,523.391708 C305.317219,502.751708 325.417219,524.371708 325.417219,524.371708 C325.417219,524.371708 328.947219,539.191708 341.397219,561.701708 C341.397219,561.701708 345.837219,573.351708 342.447219,621.731708" id="Fill-286" fill="#F0AA93" fill-rule="nonzero"></path>
            <path d="M307.647219,547.511708 C283.737219,552.381708 272.717219,537.671708 267.857219,512.011708 C256.397219,451.571708 267.927219,414.711708 278.317219,397.561708 C279.047219,393.421708 305.167219,371.231708 317.207219,405.541708 C317.207219,405.541708 328.307219,417.791708 319.607219,493.121708 C319.607219,493.121708 319.187219,503.431708 325.947219,527.591708 C325.947219,527.591708 336.137219,541.701708 307.647219,547.511708" id="Fill-287" fill="#F0AA93" fill-rule="nonzero"></path>
            <path d="M244.507219,472.271708 C244.507219,472.271708 303.187219,486.381708 333.797219,453.121708 L339.677219,364.891708 C339.677219,364.891708 340.427219,329.791708 304.277219,323.461708 C304.277219,323.461708 264.537219,320.931708 253.117219,366.971708 L244.507219,472.271708" id="Fill-288" fill="#00A3DA" fill-rule="nonzero"></path>
            <path d="M281.307219,328.051708 C273.467219,331.261708 266.897219,338.511708 261.837219,345.111708 C257.847219,350.311708 253.687219,356.931708 253.667219,363.661708 C253.667219,364.421708 255.557219,364.331708 255.837219,363.801708 C257.767219,360.171708 258.277219,355.951708 260.037219,352.201708 C260.897219,350.381708 262.157219,348.791708 263.267219,347.121708 C268.027219,339.991708 274.667219,332.711708 282.247219,328.511708 C282.927219,328.131708 281.637219,327.921708 281.307219,328.051708" id="Fill-289" fill="#0082BD" fill-rule="nonzero"></path>
            <path d="M339.207219,367.191708 C338.097219,396.241708 335.897219,425.641708 331.367219,454.361708 C331.167219,455.631708 335.347219,455.671708 335.167219,454.361708 C335.047219,453.481708 335.047219,453.471708 334.647219,452.671708 C334.367219,452.121708 333.037219,452.161708 332.657219,452.541708 C331.977219,453.221708 331.897219,453.301708 331.437219,454.121708 C332.677219,454.201708 333.927219,454.281708 335.167219,454.361708 C338.237219,442.101708 338.127219,428.751708 338.707219,416.191708 C339.467219,399.861708 341.317219,383.561708 340.907219,367.191708 C340.887219,366.601708 339.227219,366.601708 339.207219,367.191708" id="Fill-290" fill="#0082BD" fill-rule="nonzero"></path>
            <path d="M252.577219,369.471708 C250.957219,392.101708 246.957219,414.401708 246.677219,437.131708 C246.597219,443.141708 238.687219,480.431708 254.357219,473.871708 C255.757219,473.291708 253.807219,472.531708 253.207219,472.521708 C247.167219,472.421708 249.197219,456.551708 249.467219,453.041708 C250.027219,445.751708 250.837219,438.701708 250.897219,431.391708 C251.057219,410.771708 255.767219,390.081708 254.207219,369.471708 C254.167219,368.901708 252.617219,368.901708 252.577219,369.471708" id="Fill-291" fill="#0082BD" fill-rule="nonzero"></path>
            <path d="M469.097219,340.791708 C451.897219,346.311708 420.797219,353.081708 406.027219,344.661708 C388.127219,334.451708 397.287219,288.101708 407.047219,271.951708 C419.247219,251.741708 449.687219,240.431708 472.457219,237.631708 C498.387219,234.451708 521.737219,253.241708 523.437219,280.061708 C525.137219,306.851708 491.667219,333.561708 469.097219,340.791708" id="Fill-292" fill="#ED9E86" fill-rule="nonzero"></path>
            <path d="M473.757219,237.991708 C478.697219,237.501708 483.527219,237.811708 488.117219,238.811708 L434.947219,264.971708 L413.707219,272.331708 L406.347219,272.781708 C406.747219,272.061708 407.147219,271.361708 407.547219,270.731708 C420.217219,250.821708 450.937219,240.241708 473.757219,237.991708" id="Fill-293" fill="#EA8A74" fill-rule="nonzero"></path>
            <path d="M441.257219,238.951708 C431.827219,235.421708 414.727219,248.041708 414.457219,263.891708 C419.517219,265.471708 429.107219,260.971708 434.047219,259.201708 C438.907219,257.461708 443.447219,255.571708 446.107219,250.901708 C446.917219,249.461708 448.207219,241.571708 441.257219,238.951708" id="Fill-294" fill="#ED9E86" fill-rule="nonzero"></path>
            <path d="M432.137219,254.221708 C431.147219,254.651708 430.187219,255.291708 429.107219,255.471708 C429.457219,255.521708 429.797219,255.561708 430.137219,255.611708 C429.127219,255.201708 428.047219,254.581708 428.627219,253.361708 C429.137219,252.321708 430.267219,251.571708 431.187219,250.941708 C432.257219,250.211708 433.437219,249.691708 434.547219,249.031708 C434.977219,248.771708 435.677219,248.381708 435.907219,247.901708 C436.107219,247.491708 435.237219,247.471708 435.047219,247.481708 C433.727219,247.581708 432.497219,248.201708 431.357219,248.841708 C429.767219,249.731708 428.067219,250.751708 426.887219,252.171708 C425.997219,253.251708 425.777219,254.441708 426.897219,255.441708 C429.097219,257.391708 431.117219,255.941708 433.237219,254.761708 C434.037219,254.321708 432.527219,254.051708 432.137219,254.221708" id="Fill-295" fill="#EA8A74" fill-rule="nonzero"></path>
            <path d="M436.847219,250.471708 C439.587219,247.281708 435.817219,244.311708 432.637219,244.521708 C428.637219,244.791708 423.897219,247.931708 423.527219,252.241708 C423.487219,252.691708 424.517219,252.531708 424.697219,252.321708 C426.307219,250.341708 427.557219,248.051708 429.797219,246.671708 C431.247219,245.771708 433.227219,245.151708 434.827219,246.181708 C435.967219,246.921708 436.217219,249.191708 435.597219,250.301708 C435.347219,250.761708 436.617219,250.741708 436.847219,250.471708" id="Fill-296" fill="#EA8A74" fill-rule="nonzero"></path>
            <path d="M513.247219,246.431708 C512.517219,248.501708 511.087219,250.381708 509.637219,251.761708 C506.727219,256.231708 493.377219,270.951708 491.447219,273.511708 C486.207219,280.451708 478.787219,276.921708 472.567219,273.661708 C470.597219,272.641708 468.647219,271.591708 466.667219,270.571708 C460.717219,267.501708 454.597219,264.811708 447.787219,264.461708 C443.287219,264.231708 431.867219,266.721708 429.527219,261.091708 C435.177219,258.841708 446.267219,252.841708 444.967219,243.791708 C444.997219,242.591708 443.487219,239.071708 436.027219,238.181708 C436.027219,238.181708 486.517219,202.551708 513.247219,246.431708" id="Fill-297" fill="#A26C42" fill-rule="nonzero"></path>
            <path d="M489.057219,276.071708 L512.677219,246.151708 C524.817219,250.041708 531.387219,276.431708 531.387219,276.441708 C533.657219,285.561708 532.957219,316.491708 508.147219,333.931708 C508.147219,333.931708 470.287219,366.451708 439.537219,347.971708 C466.187219,343.501708 482.727219,338.091708 495.867219,322.541708 C491.547219,316.881708 487.947219,300.751708 488.597219,294.721708 C489.317219,288.091708 489.037219,279.781708 491.137219,273.441708" id="Fill-298" fill="#A26C42" fill-rule="nonzero"></path>
            <path d="M445.237219,308.921708 C442.957219,309.661708 439.697219,305.921708 437.937219,300.561708 C436.177219,295.201708 436.587219,290.251708 438.857219,289.501708 C441.127219,288.761708 444.397219,292.501708 446.157219,297.861708 C447.917219,303.221708 447.497219,308.171708 445.237219,308.921708" id="Fill-299" fill="#EA9387" fill-rule="nonzero"></path>
            <path d="M456.907219,344.471708 C454.637219,345.211708 451.647219,342.321708 450.227219,338.001708 C448.807219,333.691708 449.497219,329.581708 451.777219,328.831708 C454.047219,328.091708 457.027219,330.981708 458.447219,335.301708 C459.867219,339.621708 459.177219,343.721708 456.907219,344.471708" id="Fill-300" fill="#EA9387" fill-rule="nonzero"></path>
            <path d="M464.117219,315.751708 C462.077219,315.151708 460.117219,316.241708 458.447219,317.371708 C455.737219,319.221708 454.277219,321.611708 452.737219,324.441708 C451.857219,326.061708 450.657219,328.181708 448.467219,327.581708 C447.147219,327.231708 446.027219,326.141708 445.067219,325.221708 C443.317219,323.541708 441.927219,321.451708 440.757219,319.341708 C440.657219,319.531708 440.557219,319.721708 440.447219,319.911708 C440.537219,319.871708 440.617219,319.831708 440.697219,319.781708 C441.717219,319.241708 440.067219,318.871708 439.647219,318.901708 C441.917219,318.721708 439.847219,318.881708 439.277219,318.931708 C438.987219,318.951708 438.187219,319.201708 438.437219,319.651708 C440.637219,323.511708 444.437219,328.461708 449.267219,328.651708 C451.827219,328.761708 453.287219,326.661708 454.347219,324.661708 C455.177219,323.091708 455.937219,321.521708 457.017219,320.101708 C458.247219,318.481708 461.537219,315.731708 463.777219,316.141708 C464.067219,316.191708 464.627219,315.891708 464.117219,315.751708" id="Fill-301" fill="#EA8A74" fill-rule="nonzero"></path>
            <path d="M457.167219,286.761708 C460.047219,288.991708 462.377219,291.671708 463.297219,295.251708 C464.167219,298.611708 462.767219,301.561708 462.307219,304.811708 C462.167219,305.761708 464.677219,305.601708 465.037219,304.991708 C469.347219,297.861708 464.937219,290.051708 458.667219,286.201708 C458.267219,285.961708 456.507219,286.251708 457.167219,286.761708" id="Fill-302" fill="#A26C42" fill-rule="nonzero"></path>
            <path d="M477.127219,336.591708 C478.897219,330.441708 476.297219,323.701708 470.287219,320.881708 C469.777219,320.651708 467.147219,320.741708 468.097219,321.711708 C470.197219,323.861708 472.477219,325.241708 473.987219,327.991708 C475.377219,330.511708 475.547219,333.661708 475.257219,336.461708 C475.197219,337.061708 476.977219,337.111708 477.127219,336.591708" id="Fill-303" fill="#A26C42" fill-rule="nonzero"></path>
            <path d="M452.977219,293.951708 C452.977219,293.951708 451.757219,299.101708 455.827219,302.621708 M464.087219,327.761708 C464.087219,327.761708 462.847219,332.911708 466.927219,336.431708" id="Stroke-304" stroke="#6C4634" stroke-width="2.177" stroke-linecap="round" stroke-linejoin="round"></path>
            <path d="M429.607219,320.771708 C429.817219,323.651708 430.987219,326.461708 431.597219,329.271708 C431.967219,330.951708 431.837219,332.621708 431.527219,334.291708 C431.417219,334.851708 431.247219,335.421708 431.077219,335.961708 C430.827219,336.791708 430.427219,336.661708 431.307219,336.891708 C431.067219,336.831708 430.457219,336.781708 430.317219,337.091708 C430.287219,337.161708 430.257219,337.231708 430.237219,337.301708 C430.167219,337.441708 430.207219,337.581708 430.337219,337.681708 C430.367219,337.701708 430.397219,337.721708 430.427219,337.751708 C430.967219,338.161708 431.897219,338.131708 432.447219,337.751708 C434.107219,336.591708 434.097219,332.521708 434.007219,330.861708 C433.807219,327.161708 431.667219,324.121708 430.627219,320.701708 C430.537219,320.421708 429.587219,320.441708 429.607219,320.771708" id="Fill-305" fill="#EA8A74" fill-rule="nonzero"></path>
            <path d="M372.767219,369.681708 C382.407219,366.221708 374.887219,345.341708 396.267219,311.411708 C406.817219,294.681708 422.757219,281.471708 440.527219,272.771708 C449.217219,268.511708 457.697219,265.461708 467.497219,265.431708 C479.717219,265.381708 486.727219,267.871708 496.157219,258.221708 C496.567219,257.071708 500.447219,248.981708 500.857219,244.791708 C504.037219,212.101708 451.087219,213.031708 421.977219,217.801708 C402.677219,220.961708 375.817219,234.701708 360.067219,246.381708 C349.387219,254.291708 334.657219,262.781708 328.307219,281.301708 C328.307219,281.301708 315.077219,331.581708 372.767219,369.681708" id="Fill-306" fill="#A26C42" fill-rule="nonzero"></path>
        </g>
    </g>
</svg>