<?xml version="1.0" encoding="UTF-8"?>
<svg width="801px" height="801px" viewBox="0 0 801 801" version="1.1" xmlns="http://www.w3.org/2000/svg" xmlns:xlink="http://www.w3.org/1999/xlink">
    <title>Group 2</title>
    <g id="Page-1" stroke="none" stroke-width="1" fill="none" fill-rule="evenodd">
        <g id="Group-2" transform="translate(0.662781, 0.838292)">
            <rect id="Rectangle" stroke="#979797" fill="#D8D8D8" opacity="0" x="0.5" y="0.5" width="799" height="799"></rect>
            <g id="6" transform="translate(3.337219, 40.161708)" fill-rule="nonzero">
                <g id="Group" transform="translate(291.000000, 0.000000)">
                    <g id="Path" transform="translate(0.000000, 213.197461)">
                        <g id="Group">
                            <path d="M92.1524559,61.2448804 C90.6616934,55.3669298 85.7753054,53.1316528 81.5514781,49.4889792 C78.487133,46.839762 75.8368887,44.2733329 76.7479102,40.2167191 C78.6527733,31.3583992 78.1558525,21.7549869 71.1161409,14.9663679 C63.3310481,7.51544461 51.5705887,4.03834708 41.0524314,6.52198818 C35.4206622,7.84659676 30.7827345,12.2343627 26.0619868,15.3803081 C23.0804618,17.367221 17.8627933,20.2648023 17.117412,23.8246879 C15.87511,29.6198504 15.4610093,34.5871326 17.697153,40.3822952 C18.7738148,43.1970884 20.5958578,46.0118817 21.5068793,48.9094629 C21.5068793,48.992251 21.5896994,49.1578271 21.5896994,49.2406151 C21.5896994,49.8201313 21.7553397,50.6480117 22.0038001,51.4758921 C22.1694403,53.462805 22.0038001,55.5325059 21.9209799,57.4366307 C21.8381598,59.9202718 21.1755987,63.8113095 21.8381598,66.1293746 C22.7491813,69.1097439 24.7368646,67.4539831 26.3932673,65.6326463 C26.4760874,65.5498583 26.4760874,65.5498583 26.5589076,65.4670703 C28.2153103,69.7720482 30.7827345,73.1663577 33.9298997,77.4713356 C35.7519427,80.0377647 38.1537267,83.2664985 41.6321724,83.5148626 C45.1934382,83.7632267 48.7547041,80.8656451 51.3221283,78.8787322 C53.8067324,76.8918193 56.2085164,74.6565423 59.7697822,75.2360586 C64.4077099,75.8983629 69.5425583,79.2926724 73.4351047,81.3623733 C73.1866443,81.1967972 73.4351047,81.2795852 73.1866443,81.1967972 C76.7479102,82.0246776 80.888917,80.617281 83.8704422,78.7131561 C88.2599095,75.7327868 93.477578,66.5433147 92.1524559,61.2448804 Z" id="Path" fill="#F9A01B"></path>
                            <path d="M79.6466149,30.1993667 C79.066874,24.238628 78.4043129,18.3606774 75.422788,12.9794551 C74.180486,10.7441781 72.1928027,7.2670805 69.2940979,7.2670805 C66.9751341,-7.46919001 41.1352516,4.36949922 32.8532379,6.77035229 C27.3871089,8.34332501 10.2433407,9.6679336 10.2433407,9.6679336 C6.18515401,10.66139 2.04414719,12.731091 0.71902501,16.9532808 C-1.68275894,24.4869921 2.12696733,31.8551274 9.24949908,35.1666489 C11.7341032,36.3256814 13.8046066,36.7396216 16.4548509,36.3256814 C16.3720308,33.096948 17.7799731,29.7026385 20.4302175,27.7985136 C25.3994257,24.238628 24.2399438,30.861671 23.3289223,33.9248283 C22.1694403,37.8986541 25.4822458,40.7962354 27.1386485,44.6872731 C28.8778714,48.9094629 30.6999144,53.2972289 29.6232526,58.016147 C29.0435117,60.4997881 28.629411,60.5825761 29.871713,62.9834292 C31.2796553,65.8810104 32.9360581,68.4474396 34.0127198,71.5105969 C32.1078567,69.6064721 29.1263318,68.1990755 26.807368,66.9572549 C28.1324902,69.1097439 28.7950513,70.6827166 30.7827345,72.3384773 C31.8593963,73.2491457 32.0250366,73.0835696 32.4391373,74.2426021 C33.0188782,75.8983629 32.4391373,78.7959442 32.4391373,80.617281 C32.4391373,83.5976506 32.4391373,86.826384 33.8470796,89.5583892 C38.2365468,98.085557 49.8313659,92.4559705 53.0613512,86.0812917 C54.7177539,82.9353463 56.8710775,79.0443083 56.7882573,75.4844227 C49.6657256,79.4582484 46.2701,65.1359181 44.3652369,61.4104565 C42.626014,58.016147 40.7211509,54.7874135 38.8162877,51.5586801 C37.5739857,49.4889792 35.5034823,46.756974 35.1722017,44.2733329 C34.7581011,41.3757516 36.3316837,40.1339311 38.981928,41.9552679 C41.5493522,43.7766047 41.7978127,46.839762 42.2119133,49.5717672 C42.626014,52.1381964 45.3590785,58.3472991 49.0031645,57.4366307 C49.9970061,57.1882666 50.5767471,55.6980819 51.2393082,55.0357776 C53.3098116,53.1316528 56.3741566,52.3037724 58.8587607,50.9791639 C62.8341273,48.9094629 66.6438535,46.756974 71.0333208,45.4323654 C73.4351047,44.6872731 76.8307303,44.7700611 78.5699532,42.7003602 C81.1373774,39.7199909 79.9778955,33.7592522 79.6466149,30.1993667 Z" id="Path" fill="#514E2B"></path>
                        </g>
                        <path d="M113.768511,266.642 C119.814381,277.238868 122.795906,287.173433 126.191532,298.763758 C128.510496,306.711409 133.728164,313.41724 136.709689,321.03374 C140.105315,329.892059 138.697372,342.061901 142.589919,350.423493 C144.163501,353.817802 147.559127,355.721927 149.13271,359.033448 C151.865774,364.580247 148.304508,366.153219 155.59268,370.044257 C154.847299,369.795893 154.019098,369.464741 153.273716,369.133589 C166.939039,369.133589 188.223814,364.828611 180.852822,346.615243 C179.77616,343.883238 176.380534,342.061901 175.386693,339.495472 C173.150549,334.114249 174.724132,327.077266 173.48183,321.03374 C169.423643,301.330187 162.963672,283.944699 162.383931,263.413266 C152.031414,260.681261 132.817143,254.637734 122.216165,258.032044 C120.311302,258.61156 117.578238,260.764049 116.335936,262.005869 C113.851332,264.241146 111.946468,266.393635 113.768511,266.642 Z" fill="#514E2B"></path>
                        <path d="M44.3652369,200.494358 C54.138013,204.385396 63.3310481,215.147841 70.4535798,222.681552 C74.5117665,226.98653 78.9840539,231.20872 82.71096,235.84485 C85.1127443,238.825219 90.6616934,244.040866 91.7383552,247.600751 C92.9806572,251.574577 87.1004275,253.809854 83.704802,255.382827 C77.9902122,257.949256 75.0086873,251.740153 70.2879395,248.759784 C63.0825877,244.206442 55.7115956,240.06704 48.671884,235.265334 C42.7088342,231.20872 35.5863024,228.228351 32.5219574,221.191367 C29.871713,215.230629 34.5096407,193.540163 44.3652369,200.494358 Z" fill="#F9A01B"></path>
                        <path d="M89.0881108,345.704574 C87.5973484,342.475841 84.0360825,340.571716 82.4624996,336.432314 C79.9778955,329.974847 80.0607156,322.358348 79.1496941,315.569729 C78.0730324,307.208137 70.2879395,286.097188 72.7725436,277.818384 C75.2571477,269.208429 88.6740101,275.665895 96.2934627,276.162624 C108.302382,276.907716 122.464626,278.149537 136.709689,278.977417 C151.368853,275.500319 166.939039,278.315113 181.681023,275.003591 C193.689943,272.271586 204.539381,264.572299 209.757049,253.727066 C210.502431,247.104023 209.508589,239.239159 207.106805,230.132475 C203.297079,215.727357 200.398374,197.845141 191.70226,185.344148 C182.674865,172.429214 159.402407,177.479284 145.902724,181.287534 C135.218927,184.267903 125.28051,187.33106 116.832856,194.53362 C113.934152,197.017261 105.569318,218.376574 105.072397,228.145562 C77.6589317,230.380839 48.7547041,210.925651 24.985325,231.705448 C9.16667895,245.448262 18.2768939,262.41981 24.8196847,278.729053 C31.9422164,296.528481 36.5801441,315.238577 42.8744744,333.286369 C46.6013806,343.883238 49.9970061,356.798171 50.6595672,367.80898 C50.9080276,371.865594 49.0859846,376.584512 50.6595672,380.723914 C52.31597,385.194468 58.4446601,387.595321 60.6808037,391.817511 C61.8402856,394.052788 61.5090051,399.599586 63.1654078,400.841407 C68.134616,404.566868 71.9443423,398.688918 75.0086873,396.453641 C79.8950754,392.976543 84.2845429,388.754353 90.413233,387.015805 C96.6247432,385.277256 99.6890883,388.257625 102.008052,381.137854 C104.409836,374.018083 98.8608869,370.623773 96.0450023,365.822067 C92.1524559,359.033448 91.9039955,351.748101 89.0881108,345.704574 Z" fill="#737144"></path>
                        <path d="M133.396884,193.871315 C127.351014,196.023804 121.387964,198.590233 115.673375,201.653391 C113.18877,202.977999 112.69185,206.537885 114.099792,208.773162 C115.093634,210.263347 116.501576,211.008439 118.075159,211.091227 C118.406439,211.339591 118.90336,211.505167 119.400281,211.505167 C121.967705,211.422379 124.038208,209.849406 126.274352,208.773162 C128.924596,207.531341 131.574841,206.289521 134.307905,205.213276 C135.136107,204.882124 135.964308,204.63376 136.792509,204.302608 C135.715848,200.82551 134.556366,197.348413 133.396884,193.871315 Z" fill="#35331D"></path>
                        <path d="M187.809713,182.860506 C175.635153,182.612142 163.626234,183.357235 151.700134,186.254816 C147.310667,187.33106 143.00402,188.655669 138.780193,190.228642 C140.270955,193.291799 141.430437,196.603321 142.507099,199.749266 C142.589919,200.080418 142.755559,200.328782 142.838379,200.659934 C146.151185,199.666478 149.54681,199.086962 153.108076,198.424657 C164.951356,196.272168 176.711815,193.871315 188.472274,191.470462 C194.021224,190.394218 193.441483,183.026083 187.809713,182.860506 Z" fill="#35331D"></path>
                        <path d="M126.025892,202.646847 C128.179215,200.494358 130.663819,198.590233 133.065603,196.934473 C143.749401,189.400761 156.752162,184.102327 169.672103,181.949838 C175.800794,180.956382 185.90485,180.128501 192.282001,183.853963 C193.193022,158.934764 159.319586,102.307747 155.758321,98.3339211 C147.476307,88.978873 140.188135,79.0443083 131.906121,69.6064721 C126.108712,63.0662172 108.385203,52.5521366 104.741117,52.1381964 C101.759592,45.4323654 85.7753054,41.7896918 79.7294351,43.1143004 C69.1284576,45.3495774 60.1838829,52.3037724 54.2208331,61.3276684 C52.2331498,64.3908258 50.1626464,66.7916788 50.9908478,70.7655046 C51.2393082,71.8417491 51.9846894,72.2556893 52.6472505,72.7524175 C15.0469086,74.4081782 35.0893816,115.057105 29.3747922,137.492662 C27.3871089,145.440314 30.451454,155.954395 27.2214687,163.488106 C24.9025048,168.78654 21.0927786,189.649125 18.6909946,194.94756 C12.6451247,208.276434 25.9791666,224.171737 39.3132086,225.247981 C60.5151635,226.98653 64.3248897,168.289812 66.7266737,153.222389 C74.5945866,163.405318 86.4378665,171.849698 90.7445135,183.936751 C94.1401391,193.457375 95.299621,218.624938 112.277749,215.147841 C117.081317,214.071596 121.222324,206.041157 126.025892,202.646847 Z" fill="#FFF197"></path>
                        <g id="Group" transform="translate(70.867681, 381.327055)">
                            <path d="M33.2108747,7.26172128 C26.9993644,3.03953142 24.8460409,-1.34823452 16.6468474,0.390314246 C12.17456,1.30098265 1.73922286,5.60596055 0.0828201363,10.8216068 C0.0828201363,10.8216068 0.0828201363,10.8216068 0.0828201363,10.9043949 C0,11.6494872 0,12.4773676 0,13.2224599 C0.414100682,16.1200412 0.662561091,19.1831985 0.911021499,22.3291439 C1.32512218,24.5644209 1.73922286,26.8824859 2.23614368,29.1177629 C3.47844573,34.9957135 4.14100682,40.6253 4.05818668,46.5860386 C3.80972627,59.0870322 2.81588463,72.333118 7.78509281,84.0890191 C16.0671064,88.6423611 23.4380986,81.274226 27.2478248,72.25033 C30.8090907,63.7231622 31.1403713,51.5533208 32.796774,42.5294248 C37.7659822,42.6950009 40.6646869,25.3095132 41.5757084,20.6733832 C43.0664709,12.1462154 39.4223849,11.4839111 33.2108747,7.26172128 Z" id="Path" fill="#514E2B"></path>
                            <path d="M38.5941835,10.8216068 C31.4716518,9.99372646 27.4134651,17.7758019 25.4257818,23.9849046 C24.1006597,28.0415184 23.4380986,32.3464963 22.5270771,36.4858982 C22.3614368,37.3965666 22.1129764,38.307235 21.864516,39.2179034 C25.3429617,40.1285718 28.8214074,41.2048163 32.217033,42.0326966 C32.6311337,42.1154847 33.0452344,42.2810607 33.4593351,42.3638488 C38.0144426,40.8736641 40.5818668,25.0611491 41.4100682,20.5905951 C42.4867299,15.0437967 41.2444279,12.8913077 38.5941835,10.8216068 Z" id="Path" fill="#CFA85E"></path>
                            <path d="M20.7050341,42.6122129 C20.042473,44.5163377 19.2142716,46.3376745 18.3032501,48.1590113 C15.5701856,53.5402337 11.0150781,61.3223091 8.77893445,69.0215965 C8.61329418,69.9322649 8.4476539,70.8429334 8.36483377,71.6708137 C8.28201363,72.1675419 8.11637336,72.5814821 7.86791295,72.8298462 C7.61945254,74.1544548 7.45381227,75.5618514 7.37099213,76.803672 C8.11637336,79.6184652 9.19303513,82.4332585 10.352517,85.0824756 C17.5578689,86.9866004 23.8521993,80.2807695 27.2478248,72.1675419 C30.39499,64.6338306 30.974731,54.202538 32.217033,45.5925822 C28.3244866,44.6819138 24.5147603,43.6056693 20.7050341,42.6122129 Z" id="Path" fill="#CFA85E"></path>
                        </g>
                        <g id="Group" transform="translate(155.841141, 356.407856)">
                            <path d="M33.2108747,7.26172128 C26.9993644,3.03953142 24.8460409,-1.34823452 16.6468474,0.390314246 C12.17456,1.30098265 1.73922286,5.60596055 0.0828201363,10.8216068 C0.0828201363,10.8216068 0.0828201363,10.8216068 0.0828201363,10.9043949 C0,11.6494872 0,12.4773676 0,13.2224599 C0.414100682,16.1200412 0.662561091,19.1831985 0.911021499,22.3291439 C1.32512218,24.5644209 1.73922286,26.8824859 2.23614368,29.1177629 C3.47844573,34.9957135 4.14100682,40.6253 4.05818668,46.5860386 C3.80972627,59.0870322 2.81588463,72.333118 7.78509281,84.0890191 C16.0671064,88.6423611 23.4380986,81.274226 27.2478248,72.25033 C30.8090907,63.7231622 31.1403713,51.5533208 32.796774,42.5294248 C37.7659822,42.6950009 40.6646869,25.3095132 41.5757084,20.6733832 C42.9836507,12.2290034 39.3395647,11.4839111 33.2108747,7.26172128 Z" id="Path" fill="#35331D"></path>
                            <g transform="translate(7.288172, 10.760721)" fill="#AA962E" id="Path">
                                <path d="M31.2231914,0.0608856807 C24.1006597,-0.766994685 20.042473,7.01508076 18.0547897,13.2241835 C16.7296675,17.2807973 16.0671064,21.5857752 15.1560849,25.7251771 C14.9904447,26.6358455 14.7419843,27.5465139 14.4935239,28.4571823 C17.9719696,29.3678507 21.4504153,30.4440951 24.8460409,31.2719755 C25.2601416,31.3547635 25.6742423,31.5203396 26.0883429,31.6031277 C30.6434504,30.112943 33.2108747,14.300428 34.039076,9.82987403 C35.1157378,4.36586359 33.9562559,2.1305866 31.2231914,0.0608856807 Z"></path>
                                <path d="M10.932258,37.4810783 C8.19919349,42.8623006 3.644086,50.6443761 1.40794232,58.3436635 C1.24230204,59.2543319 1.07666177,60.1650003 0.993841636,60.9928806 C0.911021499,61.4896089 0.745381227,61.903549 0.496920818,62.1519132 C0.248460409,63.4765217 0.0828201363,64.8839184 0,66.1257389 C0.745381227,68.9405322 1.822043,71.7553254 2.98152491,74.4045426 C10.1868768,76.3086674 16.4812071,69.6028365 19.8768327,61.4896089 C23.0239979,53.9558975 23.6037388,43.5246049 24.8460409,34.9146491 C21.0363146,33.9211927 17.2265884,32.8449482 13.4168621,31.8514918 C12.6714809,33.7556166 11.9260996,35.5769534 10.932258,37.4810783 Z"></path>
                            </g>
                        </g>
                    </g>
                    <ellipse id="Oval" fill="#2C2A18" transform="translate(129.341099, 324.509234) rotate(-30.000728) translate(-129.341099, -324.509234) " cx="129.341099" cy="324.509234" rx="25.3399508" ry="44.8744783"></ellipse>
                    <path d="M151.286033,311.862534 C138.863013,290.420432 118.98618,278.664531 106.89444,285.618726 C105.238037,286.529395 103.830095,287.771215 102.670613,289.2614 C114.762353,282.389993 134.556366,294.145894 146.979386,315.587995 C157.746004,334.215304 159.319586,354.001644 151.700134,363.522269 C151.700134,363.522269 151.782954,363.522269 151.782954,363.439481 C163.874694,356.402498 163.709054,333.304635 151.286033,311.862534 Z" id="Path" fill="#CFA85E"></path>
                    <ellipse id="Oval" fill="#2C2A18" transform="translate(62.409260, 232.049154) rotate(-30.000728) translate(-62.409260, -232.049154) " cx="62.40926" cy="232.049154" rx="10.5169077" ry="18.6287041"></ellipse>
                    <path d="M71.5302416,226.83922 C66.3953931,217.9809 58.1961996,213.096406 53.1441713,215.993987 C52.4816102,216.407928 51.9018693,216.904656 51.4049485,217.484172 C56.4569768,214.669379 64.6561703,219.471085 69.7081986,228.412193 C74.180486,236.11148 74.843047,244.307496 71.6958819,248.281322 C71.6958819,248.281322 71.6958819,248.281322 71.778702,248.281322 C76.7479102,245.218164 76.66509,235.69754 71.5302416,226.83922 Z" id="Path" fill="#CFA85E"></path>
                    <path d="M125.528971,0.993456439 L125.528971,343.156412 C126.357172,344.812172 127.433834,346.302357 129.007417,347.130237 C130.498179,347.87533 131.492021,347.213025 132.154582,346.219569 L132.154582,0.24836411 C130.001258,0.49672822 127.765114,0.745092329 125.528971,0.993456439 Z" id="Path" fill="#FFFFFF"></path>
                    <path d="M60.1010628,0 L60.1010628,233.876203 C60.9292641,234.952448 61.7574655,236.11148 62.668487,237.187725 C63.3310481,237.932817 64.3248897,239.174638 65.3187314,239.340214 C66.1469327,239.423002 66.4782133,238.760698 66.7266737,238.015605 L66.7266737,1.5729727 C64.49053,1.15903251 62.2543863,0.579516256 60.1010628,0 Z" id="Path" fill="#FFFFFF"></path>
                </g>
                <path d="M472.366042,356 C487.861892,356.331731 503.440607,356.829327 518.936457,357.492788 C534.432307,358.239183 550.011023,359.06851 565.506872,360.229567 C596.498572,362.46875 627.490272,365.620192 658.316241,369.932692 C673.729225,372.171875 689.059344,374.742788 704.389463,377.811298 C719.636716,380.96274 734.883969,384.528846 749.799761,389.338942 C757.257656,391.74399 764.632686,394.480769 771.841986,397.88101 C775.405202,399.622596 778.968419,401.447115 782.365905,403.686298 C785.763391,405.925481 788.995146,408.496394 791.729707,411.813702 C793.055555,413.472356 794.298538,415.46274 795.044328,417.61899 C795.872983,419.77524 796.204445,422.263221 795.872983,424.668269 C795.541521,427.073317 794.63,429.229567 793.552748,431.137019 C792.97269,432.049279 792.309766,433.044471 791.646842,433.790865 C790.983918,434.620192 790.238128,435.449519 789.492339,436.195913 C786.50918,439.18149 783.111694,441.503606 779.714209,443.659856 C776.233857,445.733173 772.670641,447.557692 769.107424,449.216346 C761.898125,452.533654 754.440229,455.1875 746.982333,457.592548 C739.524438,459.997596 731.983677,462.070913 724.36005,463.978365 C709.195662,467.793269 693.865543,470.861779 678.535424,473.515625 C647.792321,478.823317 616.883487,482.638221 585.891787,485.623798 C570.395937,487.116587 554.900087,488.360577 539.321372,489.355769 C523.825522,490.350962 508.246807,491.263221 492.668091,491.926683 C461.593526,493.253606 430.436095,493.917067 399.36153,494 C368.2041,494 337.129534,493.336538 306.054969,492.092548 C274.980404,490.765625 243.905839,488.858173 212.914139,485.955529 C181.922439,483.052885 150.930739,479.320913 120.187636,474.096154 C104.857517,471.442308 89.5273985,468.456731 74.280145,464.72476 C66.6565184,462.817308 59.1157572,460.826923 51.6578615,458.504808 C44.1999659,456.182692 36.7420702,453.528846 29.4499056,450.460337 C25.8038233,448.884615 22.2406065,447.143029 18.7602551,445.235577 C15.2799038,443.245192 11.7995525,441.088942 8.65066326,438.352163 C7.90487373,437.605769 7.07621865,437.02524 6.33042909,436.195913 L5.25317749,435.034856 C4.92171546,434.620192 4.59025344,434.205529 4.25879141,433.790865 C3.51300184,432.961538 3.0158088,431.966346 2.35288474,431.054087 C1.85569169,430.058894 1.27563314,429.063702 0.944171115,427.902644 C0.198381551,425.746394 -0.215945986,423.258413 0.115516043,420.936298 C0.446978073,418.53125 1.35849865,416.375 2.51861575,414.467548 C3.67873285,412.560096 5.08744648,410.901442 6.57902561,409.408654 C7.32481518,408.66226 8.15347025,407.998798 8.89925978,407.252404 C9.72791485,406.588942 10.4737044,405.925481 11.3023595,405.344952 C14.6169798,402.939904 18.0973311,400.949519 21.6605479,399.125 C28.7869815,395.558894 36.1620117,392.739183 43.5370418,390.251202 C50.9949375,387.763221 58.5356986,385.606971 66.0764598,383.699519 C73.617221,381.792067 81.2408476,380.050481 88.8644745,378.47476 C104.111728,375.323317 119.524712,372.752404 134.937697,370.513221 C165.763665,366.117788 196.755365,363.049279 227.747065,360.810096 C243.242915,359.731971 258.738764,358.819712 274.31748,358.073317 C289.81333,357.409856 305.392045,356.91226 320.887895,356.580529 C305.392045,357.326923 289.896195,358.15625 274.400345,359.234375 C258.904495,360.229567 243.408646,361.473558 227.995661,362.883413 C197.086827,365.703125 166.177993,369.269231 135.600621,374.16226 C120.270502,376.65024 105.023248,379.387019 89.9417261,382.704327 C82.4009647,384.362981 74.8602036,386.1875 67.4023079,388.177885 C59.9444123,390.168269 52.5693821,392.407452 45.2772175,394.895433 C37.9850528,397.466346 30.8586192,400.286058 24.1465131,403.769231 C20.8318928,405.510817 17.5172725,407.418269 14.6169798,409.657452 C13.8711902,410.155048 13.2082662,410.81851 12.4624766,411.399038 C11.7995525,411.979567 11.053763,412.560096 10.4737044,413.223558 C9.23072181,414.467548 8.15347025,415.877404 7.24194967,417.28726 C6.4132946,418.697115 5.83323604,420.189904 5.66750503,421.682692 C5.50177402,423.175481 5.75037054,424.668269 6.24756358,426.161058 C6.4961601,426.907452 6.91048764,427.570913 7.24194967,428.317308 C7.73914271,428.980769 8.15347025,429.727163 8.73352877,430.390625 C8.98212529,430.722356 9.23072181,431.054087 9.56218384,431.385817 L10.4737044,432.298077 C11.053763,432.961538 11.7995525,433.459135 12.4624766,434.122596 C15.1970383,436.444712 18.4287931,438.435096 21.6605479,440.259615 C24.9751682,442.084135 28.372654,443.659856 31.9358708,445.152644 C38.9794389,448.138221 46.2716036,450.626202 53.5637682,452.782452 C60.9387984,455.021635 68.396694,456.929087 75.9374552,458.753606 C90.9361122,462.319712 106.183365,465.222356 121.430619,467.710337 C152.007991,472.769231 182.83396,476.252404 213.659928,478.989183 C275.394731,484.46274 337.460996,486.61899 399.527261,486.61899 C461.593526,486.61899 523.659791,484.296875 585.394594,478.740385 C616.303428,475.920673 647.046532,472.354567 677.623904,467.21274 C692.871157,464.641827 708.035545,461.65625 723.034202,458.007212 C730.492097,456.182692 737.949993,454.192308 745.325023,451.870192 C752.617188,449.548077 759.909352,447.060096 766.870055,443.908654 C770.350406,442.332933 773.747892,440.674279 776.979647,438.766827 C780.211402,436.859375 783.277426,434.703125 785.763391,432.215144 C786.343449,431.551683 787.006373,430.971154 787.503566,430.307692 C788.083625,429.644231 788.497952,428.980769 788.995146,428.234375 C789.823801,426.824519 790.403859,425.331731 790.652456,423.838942 C790.901052,422.346154 790.735321,420.853365 790.155263,419.360577 C789.65807,417.867788 788.746549,416.457933 787.752163,415.13101 C785.59766,412.477163 782.697367,410.072115 779.631343,407.998798 C776.565319,405.925481 773.250699,404.100962 769.770348,402.442308 C762.975376,399.125 755.766077,396.388221 748.473912,393.90024 C733.889583,389.007212 718.890926,385.192308 703.726539,381.875 C688.562151,378.557692 673.314897,375.820913 657.984778,373.415865 C627.324541,368.522837 596.498572,364.956731 565.589738,362.137019 C550.093888,360.727163 534.680904,359.483173 519.185054,358.487981 C503.357742,357.575721 487.861892,356.746394 472.366042,356 Z" id="Path" fill="#F9DA61"></path>
                <path d="M478.163736,364.584451 C502.198705,365.335888 526.233675,366.504789 550.268644,368.258141 C574.303614,370.011494 598.255704,372.182311 622.124915,375.438537 C634.05952,377.024903 645.994126,378.945242 657.762973,381.283045 C663.647396,382.451946 669.53182,383.787834 675.416244,385.290707 C681.300667,386.793581 687.102211,388.546933 692.737997,390.71775 C695.55589,391.803159 698.373783,393.055554 701.108797,394.558427 C703.760932,396.144794 706.495945,397.814653 708.402167,400.569921 C709.396718,401.905808 710.14263,403.659161 709.976872,405.496006 C709.893993,407.332852 709.065201,409.002711 707.987771,410.255106 C705.915791,412.843388 703.180777,414.513247 700.528643,416.01612 C695.141494,418.938374 689.33995,421.025699 683.538406,422.862544 C677.736861,424.615896 671.852438,426.202263 665.968014,427.53815 C642.43032,432.8817 618.47823,436.221419 594.52614,438.893194 C570.574049,441.564969 546.53908,443.485308 522.50411,444.988181 C474.434172,447.910435 426.281354,449.079337 378.128535,448.995844 C329.975717,448.745365 281.822899,447.158998 233.75296,443.652294 C209.717991,441.898941 185.765901,439.644631 161.813811,436.471898 C149.879205,434.885532 137.9446,433.048686 126.092873,430.794376 C120.125571,429.625475 114.241147,428.456573 108.356723,427.037193 C102.4723,425.617812 96.5878763,424.031446 90.8692112,422.1946 C85.150546,420.274262 79.3490015,418.103445 74.0447324,414.847219 C72.7186651,414.012289 71.4754771,413.093867 70.3151682,411.924965 C69.1548593,410.839556 68.0774297,409.503669 67.414396,407.833809 C67.2486376,407.416345 67.1657584,406.99888 67.0828792,406.497922 C67,406.080457 67,405.579499 67,405.162034 C67.0828792,404.243612 67.2486376,403.325189 67.5801544,402.490259 C68.2431881,400.8204 69.4034969,399.568005 70.5638058,398.482597 C71.7241147,397.397188 73.050182,396.478765 74.3762492,395.643836 C75.7023165,394.808906 77.0283838,394.057469 78.4373303,393.389526 C81.172344,392.053638 83.9902372,390.884736 86.8910093,389.882821 C92.6096745,387.878989 98.4112188,386.20913 104.295642,384.706257 C116.064489,381.784003 127.916216,379.613185 139.767942,377.692847 C151.702548,375.772509 163.637153,374.269635 175.571759,372.850255 C199.523849,370.17848 223.558818,368.258141 247.510908,366.838761 C259.528393,366.087324 271.545878,365.502873 283.563363,365.085409 C295.580847,364.584451 307.598332,364.250479 319.615817,364 C271.545878,365.836845 223.475939,368.675606 175.654638,374.520114 C163.720032,375.939495 151.785427,377.609354 139.9337,379.529692 C128.081974,381.533524 116.230248,383.704341 104.627159,386.710088 C98.8256149,388.212961 93.0240705,389.882821 87.4711638,391.886652 C84.6532708,392.888568 81.9182569,394.057469 79.2661223,395.393357 C77.940055,396.061301 76.6139878,396.729244 75.4536789,397.564174 C74.2104908,398.315611 73.050182,399.234033 72.0556315,400.152456 C71.061081,401.154372 70.1494098,402.23978 69.7350138,403.408682 C69.2377385,404.577584 69.2377385,405.829978 69.6521346,406.99888 C70.0665306,408.167781 70.9782018,409.25319 71.9727523,410.171613 C72.9673028,411.173528 74.1276116,412.008458 75.3707997,412.759895 C80.343552,415.849135 85.9793381,417.936459 91.615124,419.773304 C97.3337892,421.610149 103.135334,423.113023 108.936878,424.44891 C114.738422,425.784798 120.622846,426.9537 126.590149,428.039108 C138.358996,430.209925 150.293601,431.963278 162.228207,433.549644 C186.097418,436.638884 210.049508,438.893194 234.001598,440.563054 C281.988658,443.986266 330.058597,445.405646 378.128535,445.656125 C426.198474,445.906604 474.351292,444.821195 522.338352,441.982434 C546.373321,440.563054 570.325412,438.642715 594.194623,436.054433 C606.129228,434.718546 618.063834,433.215672 629.91556,431.46232 C641.767286,429.708968 653.619013,427.705136 665.304981,425.033361 C671.189404,423.697474 676.990948,422.278093 682.709614,420.524741 C688.428279,418.771388 694.064065,416.767557 699.285455,414.012289 C701.85471,412.592909 704.341086,411.006542 706.081549,408.835725 C706.910341,407.750316 707.490496,406.581415 707.573375,405.32902 C707.656254,404.076626 707.158979,402.907724 706.413066,401.822316 C704.838361,399.568005 702.351985,397.898146 699.865609,396.478765 C697.296354,395.059385 694.56134,393.80699 691.826326,392.721582 C686.273419,390.550765 680.554754,388.797412 674.75321,387.294539 C668.951666,385.708172 663.067242,384.455778 657.265698,383.203383 C645.496851,380.782087 633.645124,378.861749 621.710519,377.108396 C597.924187,373.685185 573.972097,371.180395 550.020006,369.176564 C538.002522,368.174649 526.067916,367.339719 514.050432,366.588282 C502.198705,365.836845 490.181221,365.168902 478.163736,364.584451 Z" id="Path" fill="#FFEC5F"></path>
            </g>
        </g>
    </g>
</svg>