<?xml version="1.0" encoding="UTF-8"?>
<svg width="1464px" height="2266px" viewBox="0 0 1464 2266" version="1.1" xmlns="http://www.w3.org/2000/svg" xmlns:xlink="http://www.w3.org/1999/xlink">
    <title>Group 2</title>
    <g id="Page-1" stroke="none" stroke-width="1" fill="none" fill-rule="evenodd">
        <g id="Group-2" transform="translate(0.666635, 0.327644)" fill-rule="nonzero">
            <g id="Group">
                <path d="M1434.43337,2072.77236 C1407.03337,2039.57236 1364.83337,2025.37236 1323.23337,2020.97236 C1300.83337,2018.57236 1278.23337,2018.87236 1255.73337,2019.67236 C1230.63337,2020.57236 1205.63337,2021.87236 1180.63337,2022.97236 C1091.73337,2026.87236 1002.83337,2030.77236 913.933365,2034.77236 L867.933365,2032.17236 C820.033365,2029.47236 772.233365,2026.27236 724.333365,2024.97236 C677.733365,2023.67236 630.833365,2024.27236 584.433365,2029.67236 C561.533365,2032.27236 538.733365,2036.17236 516.233365,2041.57236 C495.033365,2046.67236 473.033365,2052.37236 453.533365,2062.27236 C422.233365,2078.17236 384.733365,2110.17236 392.033365,2149.57236 C396.033365,2170.87236 412.533365,2185.57236 430.633365,2195.57236 C451.133365,2206.87236 472.933365,2215.97236 495.233365,2223.17236 C539.933365,2237.57236 586.633365,2244.77236 633.233365,2249.67236 C682.233365,2254.87236 731.533365,2258.27236 780.733365,2260.97236 C880.833365,2266.27236 981.133365,2266.97236 1081.23337,2263.07236 C1132.03337,2261.07236 1182.83337,2257.97236 1233.43337,2253.67236 C1258.23337,2251.57236 1283.03337,2249.17236 1307.73337,2246.47236 C1328.53337,2244.27236 1349.53337,2242.27236 1369.93337,2238.07236 C1406.83337,2230.37236 1445.13337,2212.27236 1458.13337,2174.07236 C1470.13337,2138.97236 1457.13337,2100.27236 1434.43337,2072.77236 Z" id="Path" fill="#E4ECEF"></path>
                <g transform="translate(0.000000, -0.000000)">
                    <g transform="translate(0.000000, 0.000000)" id="Path">
                        <path d="M1361.03337,356.872356 C1341.03337,345.972356 1318.43337,340.872356 1295.83337,342.872356 C1305.33337,300.372356 1294.53337,254.772356 1269.83337,219.072356 C1241.93337,178.972356 1197.43337,153.372356 1149.83337,144.072356 C1137.83337,141.672356 1125.53337,140.272356 1113.23337,139.872356 C1107.03337,139.672356 1100.83337,139.672356 1094.63337,139.972356 C1088.73337,140.272356 1081.53337,141.972356 1075.63337,140.572356 C1069.03337,138.872356 1067.13337,131.872356 1064.43337,126.372356 C1061.93337,121.172356 1059.13337,116.172356 1056.03337,111.272356 C1050.03337,101.672356 1043.03337,92.4723558 1035.33337,84.1723558 C1004.03337,50.4723558 960.033365,28.8723558 913.933365,26.4723558 C863.233365,23.7723558 811.933365,43.9723558 776.333365,80.0723558 C755.033365,40.3723558 714.933365,11.3723558 670.733365,2.67235584 C623.133365,-6.72764416 574.333365,9.17235584 539.433365,42.4723558 C523.233365,57.8723558 510.533365,76.7723558 502.433365,97.5723558 C473.833365,57.9723558 428.633365,31.6723558 380.033365,25.5723558 C327.333365,18.9723558 274.733365,39.0723558 237.633365,76.5723558 C219.233365,95.1723558 204.933365,117.772356 196.433365,142.472356 C181.333365,130.372356 161.533365,124.972356 142.133365,126.072356 C117.433365,127.372356 95.0333654,138.872356 76.4333654,154.772356 C41.1333654,184.772356 14.2333654,230.872356 12.8333654,277.872356 C12.1333654,300.672356 18.8333654,322.872356 33.9333654,339.772356 C0.433365384,386.472356 -8.86663462,448.372356 8.73336538,503.072356 C26.7333654,559.072356 73.1333654,601.072356 129.133365,617.472356 C155.433365,625.172356 183.233365,627.072356 210.133365,622.472356 C209.833365,622.872356 209.533365,623.372356 209.333365,623.972356 C193.033365,666.172356 194.833365,714.072356 212.933365,755.472356 C230.533365,795.672356 264.333365,826.472356 304.733365,842.872356 C326.133365,851.572356 349.233365,855.772356 372.333365,855.272356 C382.033365,888.472356 408.733365,913.972356 440.133365,927.272356 C477.933365,943.272356 520.233365,940.072356 557.933365,925.372356 C579.033365,917.172356 598.733365,905.872356 617.033365,892.572356 C641.633365,944.372356 703.533365,971.672356 759.333365,961.472356 C773.433365,958.872356 786.933365,953.672356 799.033365,945.972356 C814.633365,983.172356 839.733365,1016.97236 874.433365,1038.27236 C909.233365,1059.57236 952.733365,1065.27236 991.333365,1051.07236 C1010.53337,1044.07236 1027.23337,1032.57236 1040.03337,1016.97236 C1076.23337,1034.77236 1117.83337,1012.37236 1146.23337,988.772356 C1175.93337,964.172356 1207.03337,928.172356 1196.33337,886.672356 C1193.03337,873.772356 1185.83337,861.972356 1175.33337,854.172356 C1227.93337,837.472356 1280.53337,815.072356 1320.33337,775.972356 C1358.73337,738.372356 1380.03337,684.872356 1372.13337,631.072356 C1368.53337,606.772356 1358.33337,583.872356 1341.43337,566.172356 C1382.03337,552.872356 1413.43337,515.072356 1420.43337,472.972356 C1428.63337,425.272356 1402.93337,379.672356 1361.03337,356.872356 Z" fill="#F7BBBA"></path>
                        <path d="M805.033365,608.272356 C770.633365,567.272356 716.733365,546.472356 663.933365,546.072356 C608.633365,545.672356 556.333365,568.772356 514.433365,603.972356 C493.933365,621.172356 476.033365,641.272356 460.633365,663.172356 C445.033365,632.872356 420.033365,607.672356 389.533365,592.072356 C353.133365,573.472356 310.633365,569.772356 271.333365,581.172356 C248.933365,587.672356 228.233365,598.872356 210.533365,613.972356 C207.533365,616.472356 207.933365,621.572356 210.533365,624.172356 C213.433365,627.072356 217.733365,626.672356 220.733365,624.172356 C249.233365,599.772356 287.133365,587.472356 324.433365,589.072356 C360.233365,590.672356 394.233365,606.372356 419.733365,631.372356 C433.633365,645.072356 445.233365,661.572356 452.633365,679.472356 C454.933365,685.072356 462.233365,686.772356 465.833365,681.172356 C494.133365,637.172356 533.733365,599.672356 581.733365,578.072356 C627.933365,557.272356 680.533365,554.472356 728.133365,571.972356 C753.833365,581.372356 777.133365,597.172356 794.933365,618.372356 C797.433365,621.372356 802.533365,620.972356 805.133365,618.372356 C807.933365,615.572356 807.533365,611.272356 805.033365,608.272356 Z" fill="#F3999B"></path>
                        <path d="M1109.63337,471.672356 C1102.03337,427.972356 1072.53337,388.272356 1035.53337,364.572356 C1001.03337,342.472356 955.133365,333.472356 917.733365,354.072356 C885.433365,371.872356 862.233365,409.272356 868.633365,446.772356 C869.333365,451.072356 870.633365,455.372356 872.233365,459.472356 C873.633365,463.072356 877.033365,465.572356 881.133365,464.472356 C884.533365,463.572356 887.633365,459.272356 886.133365,455.572356 C880.133365,440.172356 880.833365,424.772356 886.733365,409.372356 C892.333365,394.972356 903.133365,381.472356 915.833365,372.272356 C930.133365,361.972356 946.533365,356.872356 964.233365,356.772356 C983.133365,356.672356 1001.73337,362.172356 1018.23337,371.072356 C1053.43337,389.972356 1081.83337,423.872356 1092.73337,462.472356 C1098.03337,481.272356 1098.73337,500.972356 1093.33337,519.872356 C1088.73337,535.872356 1080.03337,550.472356 1068.93337,562.872356 C1045.13337,589.272356 1012.33337,606.772356 979.133365,618.372356 C974.933365,619.872356 970.733365,621.172356 966.433365,622.472356 C963.633365,623.372356 960.933365,626.272356 961.133365,629.372356 C965.233365,680.272356 934.533365,727.372356 892.433365,754.072356 C869.933365,768.372356 844.433365,776.772356 817.733365,778.672356 C788.533365,780.772356 759.333365,776.072356 731.733365,766.572356 C700.233365,755.672356 670.733365,738.472356 644.833365,717.472356 C640.733365,714.172356 634.333365,715.072356 632.833365,720.672356 C624.633365,749.672356 604.933365,774.772356 579.133365,790.272356 C552.033365,806.472356 519.333365,810.372356 488.933365,802.172356 C471.833365,797.572356 455.833365,789.372356 442.433365,777.672356 C439.533365,775.072356 435.133365,774.772356 432.233365,777.672356 C429.633365,780.272356 429.333365,785.272356 432.233365,787.872356 C459.133365,811.272356 495.333365,823.272356 530.833365,820.372356 C565.133365,817.572356 597.233365,800.772356 619.533365,774.572356 C629.633365,762.672356 637.733365,749.172356 643.233365,734.572356 C690.233365,770.372356 748.033365,794.972356 807.733365,793.672356 C837.033365,792.972356 865.633365,785.872356 891.233365,771.572356 C915.333365,758.072356 936.233365,738.972356 951.533365,715.972356 C967.433365,692.072356 976.633365,663.472356 975.533365,634.672356 C1010.63337,623.372356 1045.13337,606.272356 1071.73337,580.472356 C1085.43337,567.172356 1096.53337,551.472356 1103.53337,533.772356 C1111.73337,514.072356 1113.23337,492.472356 1109.63337,471.672356 Z" fill="#F3999B"></path>
                        <path d="M904.833365,184.772356 C888.233365,183.172356 870.733365,186.772356 854.833365,191.272356 C837.633365,196.172356 820.933365,203.472356 805.733365,212.872356 C792.733365,220.872356 780.633365,230.372356 769.933365,241.272356 C762.333365,208.772356 731.133365,184.772356 698.633365,178.872356 C677.933365,175.172356 657.533365,178.472356 639.133365,188.572356 C620.033365,198.972356 604.633365,215.472356 593.933365,234.272356 C586.333365,247.672356 580.833365,262.172356 577.633365,277.272356 C559.633365,248.172356 525.133365,230.072356 490.933365,228.572356 C468.533365,227.572356 446.233365,234.272356 428.233365,247.672356 C409.133365,261.772356 395.233365,281.372356 386.833365,303.472356 C381.033365,318.872356 378.133365,335.472356 378.533365,352.072356 C357.033365,329.072356 326.233365,313.572356 294.833365,317.072356 C284.633365,318.172356 274.933365,321.172356 266.333365,326.072356 C266.133365,325.772356 265.833365,325.472356 265.533365,325.172356 C242.733365,304.772356 208.733365,300.272356 180.833365,312.172356 C175.533365,314.372356 170.633365,317.272356 166.033365,320.572356 C156.233365,307.472356 140.933365,298.772356 124.833365,295.672356 C103.733365,291.572356 82.5333654,296.672356 63.8333654,306.672356 C52.8333654,312.572356 42.8333654,320.172356 33.5333654,328.372356 C30.6333654,330.972356 30.9333654,335.972356 33.5333654,338.572356 C36.4333654,341.472356 40.8333654,341.172356 43.7333654,338.572356 C57.9333654,325.972356 74.3333654,315.272356 92.8333654,310.672356 C109.133365,306.572356 126.133365,308.372356 140.333365,316.572356 C148.033365,321.072356 153.933365,326.972356 158.133365,334.872356 C160.433365,339.072356 166.233365,339.372356 169.433365,336.372356 C192.133365,315.172356 231.033365,314.472356 254.533365,334.672356 C252.333365,336.672356 250.333365,338.772356 248.333365,341.072356 C237.433365,354.072356 230.833365,370.172356 229.533365,387.072356 C228.133365,405.272356 234.633365,424.172356 249.033365,435.772356 C252.033365,438.172356 256.233365,438.772356 259.233365,435.772356 C261.733365,433.272356 262.233365,428.072356 259.233365,425.572356 C253.633365,421.072356 250.233365,416.772356 247.233365,410.172356 C247.233365,410.072356 247.133365,409.872356 247.033365,409.672356 C246.933365,409.372356 246.833365,409.072356 246.733365,408.772356 C246.533365,408.072356 246.233365,407.372356 246.033365,406.672356 C245.533365,404.972356 245.033365,403.272356 244.733365,401.572356 C244.033365,398.272356 243.833365,396.372356 243.833365,392.472356 C243.633365,378.772356 248.233365,365.472356 256.533365,353.972356 C259.933365,349.272356 265.633365,343.572356 270.433365,340.372356 C277.033365,335.972356 283.033365,333.672356 290.933365,332.172356 C307.833365,328.872356 325.533365,332.972356 340.533365,340.972356 C358.533365,350.472356 373.433365,365.172356 383.333365,382.972356 C387.333365,390.172356 398.633365,385.272356 396.533365,377.472356 C385.933365,337.772356 399.033365,292.172356 430.133365,264.772356 C444.933365,251.672356 463.833365,243.872356 483.033365,243.172356 C502.433365,242.472356 521.733365,247.772356 538.233365,258.172356 C556.333365,269.472356 569.933365,286.772356 574.533365,307.772356 C576.333365,315.872356 588.433365,313.772356 588.633365,305.872356 C589.633365,268.272356 606.233365,228.072356 638.133365,206.472356 C653.333365,196.072356 670.233365,190.872356 688.433365,192.372356 C704.433365,193.672356 721.533365,200.572356 734.033365,210.972356 C748.533365,223.172356 757.833365,239.672356 757.333365,258.372356 C757.233365,264.272356 765.533365,268.372356 769.633365,263.472356 C790.333365,238.672356 817.633365,219.572356 848.233365,208.872356 C874.533365,199.672356 905.933365,193.572356 931.233365,207.572356 C936.633365,210.572356 941.733365,214.572356 944.633365,219.272356 C946.333365,221.972356 946.733365,223.072356 947.433365,226.372356 C947.433365,226.572356 947.533365,226.772356 947.533365,226.872356 C947.533365,226.972356 947.533365,227.172356 947.533365,227.472356 C947.533365,228.272356 947.633365,228.972356 947.633365,229.772356 C947.633365,231.872356 947.533365,232.072356 946.933365,234.272356 C944.733365,243.272356 958.633365,247.072356 960.833365,238.072356 C968.733365,204.672356 931.633365,187.272356 904.833365,184.772356 Z" fill="#F3999B"></path>
                        <path d="M716.233365,421.072356 C699.333365,400.772356 672.133365,386.072356 645.133365,388.872356 C632.333365,390.172356 620.833365,394.972356 611.333365,403.672356 C602.933365,411.372356 596.633365,421.672356 593.733365,432.672356 C590.433365,445.372356 591.733365,459.072356 598.833365,470.272356 C600.933365,473.572356 605.233365,474.872356 608.733365,472.872356 C612.033365,470.972356 613.433365,466.272356 611.333365,462.972356 C610.633365,461.872356 610.033365,460.872356 609.433365,459.772356 C609.233365,459.372356 609.033365,458.872356 608.833365,458.472356 C608.733365,458.372356 608.733365,458.272356 608.633365,458.172356 C608.633365,458.072356 608.633365,458.072356 608.533365,457.872356 C607.633365,455.572356 607.033365,453.272356 606.633365,450.872356 C606.633365,450.772356 606.633365,450.672356 606.533365,450.572356 C606.533365,450.472356 606.533365,450.372356 606.533365,450.272356 C606.533365,449.772356 606.433365,449.272356 606.433365,448.872356 C606.333365,447.672356 606.333365,446.472356 606.333365,445.272356 C606.333365,444.172356 606.433365,443.072356 606.533365,441.972356 C606.533365,441.772356 606.533365,441.672356 606.533365,441.672356 C606.533365,441.572356 606.533365,441.472356 606.533365,441.372356 C606.633365,440.672356 606.733365,439.872356 606.933365,439.172356 C608.833365,430.272356 613.033365,422.472356 619.233365,416.072356 C622.833365,412.372356 625.533365,410.272356 630.133365,407.872356 C634.133365,405.772356 639.033365,404.172356 644.333365,403.472356 C654.533365,402.072356 665.633365,404.072356 675.633365,408.272356 C687.333365,413.272356 697.833365,421.472356 706.033365,431.372356 C708.533365,434.372356 713.633365,433.972356 716.233365,431.372356 C719.133365,428.272356 718.733365,424.072356 716.233365,421.072356 Z" fill="#F3999B"></path>
                        <path d="M1169.43337,858.672356 C1168.43337,855.172356 1164.23337,852.272356 1160.53337,853.672356 C1159.83337,853.972356 1159.13337,854.172356 1158.33337,854.372356 C1158.13337,854.472356 1156.93337,854.572356 1156.93337,854.672356 C1155.33337,854.872356 1153.63337,854.772356 1152.03337,854.672356 C1148.63337,854.372356 1145.23337,853.772356 1141.83337,853.472356 C1134.13337,852.672356 1126.13337,854.172356 1121.13337,860.672356 C1118.43337,864.172356 1117.23337,868.472356 1116.23337,872.772356 C1115.83337,874.472356 1115.43337,876.072356 1114.93337,877.672356 C1114.73337,878.472356 1114.43337,879.172356 1114.13337,879.872356 C1113.83337,880.772356 1114.03337,880.272356 1113.43337,881.372356 C1110.53337,887.672356 1107.33337,891.872356 1102.33337,896.472356 C1097.83337,900.572356 1092.53337,903.972356 1086.53337,906.872356 C1081.23337,909.372356 1074.13337,911.572356 1067.63337,912.672356 C1061.83337,913.672356 1054.53337,913.872356 1047.83337,913.272356 C1039.23337,912.472356 1030.83337,910.372356 1022.63337,907.672356 C1003.73337,901.372356 986.333365,891.272356 969.133365,881.372356 C964.833365,878.872356 957.733365,881.972356 958.333365,887.572356 C959.533365,899.172356 957.133365,909.672356 951.433365,919.572356 C945.733365,929.472356 937.233365,937.872356 927.633365,943.972356 C904.933365,958.272356 877.133365,958.172356 851.633365,950.772356 C835.533365,946.072356 820.533365,938.672356 806.233365,930.072356 C798.233365,925.272356 791.033365,937.672356 798.933365,942.472356 C826.333365,959.072356 858.233365,971.972356 890.933365,970.072356 C919.333365,968.372356 946.233365,954.172356 961.933365,930.072356 C967.833365,921.072356 971.633365,910.672356 972.833365,900.072356 C1000.23337,915.572356 1030.43337,930.572356 1062.33337,927.772356 C1091.03337,925.272356 1121.23337,908.872356 1129.43337,879.472356 C1130.43337,876.072356 1130.53337,871.472356 1133.13337,868.772356 C1133.13337,868.772356 1133.33337,868.572356 1133.53337,868.472356 C1133.73337,868.372356 1134.13337,868.172356 1134.23337,868.072356 C1134.33337,868.072356 1134.33337,868.072356 1134.53337,867.972356 C1135.03337,867.872356 1135.43337,867.772356 1135.93337,867.672356 C1135.93337,867.672356 1136.03337,867.672356 1136.03337,867.672356 C1136.43337,867.672356 1136.83337,867.572356 1137.33337,867.572356 C1138.23337,867.572356 1139.13337,867.572356 1140.03337,867.672356 C1148.23337,868.172356 1156.53337,870.672356 1164.53337,867.572356 C1168.03337,866.072356 1170.53337,862.672356 1169.43337,858.672356 Z" fill="#F3999B"></path>
                        <path d="M1046.23337,1013.07236 C1028.33337,1009.87236 1012.73337,999.172356 1003.53337,983.372356 C998.933365,975.372356 986.433365,982.572356 991.133365,990.672356 C1001.93337,1009.37236 1021.03337,1023.07236 1042.43337,1026.97236 C1046.23337,1027.67236 1050.23337,1025.97236 1051.33337,1021.97236 C1052.23337,1018.47236 1050.13337,1013.77236 1046.23337,1013.07236 Z" fill="#F3999B"></path>
                        <path d="M1307.93337,358.872356 C1305.53337,349.972356 1291.63337,353.672356 1294.03337,362.672356 C1304.43337,401.472356 1290.63337,444.872356 1261.43337,472.672356 C1253.23337,480.472356 1244.13337,486.672356 1233.63337,491.572356 C1230.23337,493.172356 1229.13337,498.372356 1231.03337,501.472356 C1243.43337,520.872356 1246.93337,544.972356 1240.83337,567.072356 C1234.93337,588.472356 1220.03337,605.872356 1200.63337,616.072356 C1190.13337,621.572356 1178.33337,624.872356 1166.63337,625.272356 C1162.73337,625.372356 1159.43337,628.472356 1159.43337,632.472356 C1159.43337,636.272356 1162.73337,639.872356 1166.63337,639.672356 C1191.83337,638.672356 1216.23337,627.472356 1233.33337,608.972356 C1251.23337,589.672356 1260.03337,563.172356 1257.63337,536.972356 C1256.43337,524.372356 1253.03337,511.972356 1247.13337,500.772356 C1284.63337,480.172356 1308.83337,438.872356 1311.53337,396.472356 C1312.43337,383.872356 1311.13337,371.072356 1307.93337,358.872356 Z" fill="#F3999B"></path>
                    </g>
                    <path d="M148.933365,176.872356 C147.533365,167.472356 140.033365,160.972356 130.633365,160.172356 C122.133365,159.472356 114.133365,163.372356 106.533365,166.772356 C92.5333654,172.972356 78.6333654,181.072356 68.4333654,192.672356 C59.8333654,202.372356 51.6333654,217.072356 55.1333654,229.872356 C54.8333654,232.572356 54.7333654,235.172356 55.0333654,237.872356 C56.0333654,246.672356 61.4333654,255.072356 71.0333654,255.672356 C79.0333654,256.172356 87.5333654,251.272356 94.4333654,247.572356 C107.933365,240.372356 120.333365,230.372356 130.133365,218.672356 C139.433365,207.372356 151.233365,192.272356 148.933365,176.872356 Z M113.333365,194.972356 C113.133365,193.972356 112.833365,192.972356 112.333365,191.972356 C112.333365,191.972356 112.433365,191.872356 112.433365,191.872356 C114.933365,191.072356 116.733365,189.572356 117.833365,187.772356 C118.133365,187.572356 118.533365,187.372356 118.833365,187.172356 C117.033365,189.772356 115.233365,192.372356 113.333365,194.972356 Z" id="Shape" fill="#F7D1D0"></path>
                    <path d="M98.9333654,465.072356 C98.8333654,457.472356 97.9333654,449.872356 96.3333654,442.472356 C95.5333654,424.172356 89.9333654,406.172356 79.5333654,390.772356 C75.9333654,385.472356 66.1333654,383.572356 62.8333654,390.372356 C60.1333654,390.972356 57.7333654,392.572356 56.4333654,394.972356 C45.1333654,415.372356 44.0333654,440.272356 52.3333654,461.672356 C52.9333654,464.572356 53.7333654,467.372356 54.5333654,470.172356 C56.0333654,476.972356 58.0333654,483.672356 60.7333654,490.172356 C63.9333654,498.072356 69.9333654,505.072356 79.2333654,504.372356 C88.3333654,503.672356 94.0333654,495.672356 96.5333654,487.672356 C98.7333654,480.672356 99.0333654,472.372356 98.9333654,465.072356 Z" id="Path" fill="#F7D1D0"></path>
                    <path d="M377.933365,73.6723558 C375.533365,71.3723558 372.533365,69.9723558 369.333365,69.3723558 C368.733365,69.1723558 368.133365,69.0723558 367.533365,69.0723558 C364.233365,68.5723558 360.733365,68.6723558 357.433365,68.8723558 C356.033365,68.9723558 354.533365,69.0723558 353.133365,69.1723558 C352.333365,68.5723558 351.333365,68.1723558 350.233365,67.9723558 C334.433365,65.3723558 320.033365,70.9723558 307.333365,80.2723558 C296.133365,88.4723558 278.633365,100.672356 280.833365,116.672356 C281.933365,124.572356 287.833365,130.672356 295.533365,132.472356 C302.333365,134.072356 309.333365,132.672356 315.733365,130.572356 C330.433365,125.772356 344.633365,119.072356 357.633365,110.772356 C364.033365,106.572356 370.733365,102.172356 376.333365,96.9723558 C382.933365,90.6723558 384.933365,80.4723558 377.933365,73.6723558 Z" id="Path" fill="#F7D1D0"></path>
                </g>
                <g transform="translate(118.167148, 835.746866)" fill="#F4BAAB">
                    <circle id="Oval" transform="translate(68.988117, 232.150890) rotate(-17.818889) translate(-68.988117, -232.150890) " cx="68.9881173" cy="232.15089" r="1"></circle>
                    <path d="M1184.16622,1113.12549 C1180.76622,1092.92549 1177.26622,1072.82549 1173.46622,1052.72549 C1166.06622,1012.82549 1157.96622,973.02549 1149.16622,933.32549 C1131.46622,853.72549 1111.06622,774.82549 1087.76622,696.62549 C1086.26622,691.72549 1084.86622,686.82549 1083.36622,681.92549 C1077.26622,649.62549 1070.56622,617.52549 1063.36622,585.42549 C1057.76622,560.62549 1051.86622,535.92549 1045.66622,511.32549 C1039.86622,488.22549 1034.06622,465.02549 1025.36622,442.72549 C1016.86622,420.92549 1005.66622,400.72549 990.366217,382.82549 C975.666217,365.62549 958.066217,351.22549 939.866217,337.92549 C918.466217,322.32549 896.066217,308.12549 874.066217,293.52549 C849.466217,277.22549 824.966217,260.92549 800.366217,244.62549 C797.666217,242.82549 794.066217,242.92549 791.166217,244.32549 C760.566217,219.92549 726.966217,199.32549 692.266217,181.02549 C671.666217,170.12549 650.566217,160.02549 629.266217,150.42549 C604.666217,139.22549 579.866217,128.32549 554.666217,118.72549 C504.266217,99.5254897 450.066217,86.2254897 395.966217,94.7254897 C351.466217,101.72549 307.966217,123.82549 281.666217,161.32549 C279.366217,164.52549 277.366217,167.82549 275.366217,171.22549 C265.766217,168.22549 256.366217,164.62549 247.266217,160.22549 C246.666217,159.92549 246.066217,159.72549 245.466217,159.52549 C245.266217,153.92549 244.366217,148.42549 243.066217,143.12549 C242.266217,139.72549 241.166217,136.42549 239.866217,133.22549 C238.566217,112.52549 230.466217,92.0254897 218.366217,75.5254897 C197.866217,47.5254897 167.366217,29.6254897 136.066217,16.2254897 C117.666217,8.32548967 97.7662173,-1.07451033 77.4662173,1.62548967 C74.0662173,-0.57451033 69.4662173,-0.87451033 65.6662173,2.82548967 C34.3662173,33.6254897 20.5662173,80.4254897 30.7662173,123.22549 C40.6662173,165.12549 72.0662173,199.02549 112.066217,214.02549 C132.566217,221.72549 155.966217,226.92549 177.966217,226.82549 C192.266217,226.72549 206.366217,223.62549 218.066217,216.32549 C218.666217,216.92549 219.266217,217.52549 219.966217,218.12549 C224.366217,276.62549 220.666217,335.62549 208.666217,393.02549 C202.666217,421.82549 194.666217,450.12549 184.766217,477.82549 C179.866217,491.42549 174.566217,504.92549 168.666217,518.12549 C163.966217,528.62549 158.666217,539.22549 150.866217,547.22549 C147.466217,550.72549 143.566217,553.72549 139.966217,554.82549 C135.666217,556.12549 131.966217,556.32549 127.466217,554.42549 C117.666217,550.22549 111.566217,538.22549 106.766217,528.82549 C95.0662173,505.72549 88.6662173,480.02549 85.9662173,454.42549 C80.7662173,406.12549 86.1662173,357.62549 88.7662173,309.32549 C89.0662173,309.12549 89.3662173,309.02549 89.6662173,308.82549 C105.466217,298.22549 117.066217,283.42549 123.766217,265.62549 C125.266217,261.62549 122.766217,256.62549 119.266217,254.62549 C115.266217,252.22549 110.866217,253.42549 107.466217,256.12549 C101.666217,260.72549 95.8662173,265.32549 90.0662173,269.92549 C90.0662173,262.62549 90.0662173,255.32549 89.7662173,248.02549 C89.2662173,234.62549 89.2662173,216.42549 72.6662173,213.22549 C57.6662173,210.22549 46.5662173,220.92549 41.5662173,233.92549 C39.0662173,240.42549 37.7662173,247.42549 36.1662173,254.12549 C34.3662173,261.92549 32.4662173,269.62549 30.7662173,277.42549 C23.6662173,308.22549 17.1662173,339.22549 11.6662173,370.42549 C6.46621727,400.22549 1.76621727,430.32549 0.366217268,460.62549 C-2.13378273,515.92549 7.66621727,573.72549 45.2662173,616.42549 C77.6662173,653.22549 129.266217,676.02549 177.766217,659.72549 C227.266217,643.02549 258.766217,596.22549 280.966217,551.62549 C307.266217,498.72549 323.566217,441.32549 329.266217,382.52549 C329.866217,376.32549 330.366217,370.12549 330.666217,363.82549 C331.366217,364.22549 332.066217,364.62549 332.866217,364.82549 C420.566217,395.72549 508.166217,427.02549 595.566217,458.72549 C617.166217,466.52549 638.666217,474.42549 660.166217,482.22549 C669.266217,485.52549 679.066217,488.22549 687.266217,493.52549 C694.266217,498.02549 696.566217,505.22549 696.966217,513.22549 C697.566217,524.12549 696.766217,535.12549 696.466217,545.92549 C696.166217,557.22549 695.766217,568.42549 695.366217,579.72549 C694.466217,602.22549 693.366217,624.72549 692.066217,647.22549 C686.866217,738.12549 678.166217,828.92549 665.966217,919.12549 C653.766217,1009.32549 638.066217,1099.02549 619.066217,1188.02549 C616.766217,1198.92549 614.566217,1209.82549 611.866217,1220.52549 C609.766217,1228.72549 606.266217,1237.92549 601.666217,1243.32549 C594.066217,1252.02549 583.166217,1257.42549 572.766217,1261.42549 C549.066217,1270.52549 519.466217,1275.22549 503.266217,1296.82549 C499.466217,1301.82549 496.866217,1307.52549 495.366217,1313.52549 C493.966217,1319.12549 498.266217,1326.52549 504.766217,1325.92549 C535.966217,1322.92549 567.066217,1319.92549 598.266217,1316.92549 C614.166217,1315.42549 630.066217,1313.82549 645.966217,1312.32549 C660.366217,1310.92549 675.266217,1310.42549 689.566217,1307.72549 C703.766217,1305.02549 714.166217,1296.62549 719.366217,1283.12549 C724.266217,1270.42549 725.866217,1256.02549 728.566217,1242.62549 C734.866217,1211.92549 741.166217,1181.22549 747.466217,1150.52549 C772.566217,1028.42549 797.666217,906.32549 822.866217,784.22549 L860.266217,602.62549 C897.266217,698.92549 933.066217,795.82549 967.366217,893.12549 C985.366217,944.02549 1002.96622,995.02549 1020.26622,1046.12549 C1028.96622,1071.82549 1037.56622,1097.62549 1046.06622,1123.42549 C1050.16622,1136.02549 1054.36622,1148.62549 1058.46622,1161.22549 C1062.56622,1173.62549 1067.36622,1186.52549 1066.36622,1199.82549 C1064.66622,1223.62549 1042.96622,1241.62549 1030.16622,1260.02549 C1016.26622,1280.02549 1006.76622,1308.42549 1021.36622,1330.62549 C1024.16622,1334.92549 1030.06622,1337.12549 1034.76622,1334.12549 C1066.46622,1313.62549 1096.26622,1290.02549 1123.46622,1263.62549 C1136.76622,1250.72549 1149.66622,1237.32549 1161.26622,1222.92549 C1172.86622,1208.42549 1183.06622,1192.42549 1186.66622,1173.92549 C1190.36622,1153.72549 1187.46622,1133.22549 1184.16622,1113.12549 Z" id="Path"></path>
                </g>
                <path d="M1328.03337,1994.57236 C1323.83337,1976.47236 1316.93337,1958.87236 1309.93337,1941.87236 C1307.83337,1936.67236 1299.33337,1934.57236 1295.03337,1937.87236 C1271.83337,1955.27236 1248.63337,1972.77236 1225.33337,1990.17236 C1220.03337,1994.17236 1214.63337,1998.17236 1209.03337,2001.77236 C1203.73337,2005.17236 1198.03337,2007.97236 1193.13337,2011.77236 C1184.53337,2018.37236 1180.43337,2028.57236 1181.63337,2038.77236 C1181.13337,2039.57236 1180.73337,2040.47236 1180.43337,2041.57236 C1174.03337,2064.17236 1158.03337,2081.97236 1145.53337,2101.07236 C1132.23337,2121.37236 1119.43337,2149.37236 1126.73337,2174.37236 C1128.93337,2181.77236 1134.73337,2186.87236 1142.33337,2186.7738 C1148.73337,2186.67236 1155.23337,2183.27236 1160.63337,2179.97236 C1171.03337,2173.67236 1179.63337,2164.57236 1188.13337,2155.77236 C1206.63337,2136.37236 1225.43337,2117.27236 1244.43337,2098.37236 C1266.03337,2076.97236 1287.83337,2055.97236 1310.03337,2035.27236 C1310.63337,2034.67236 1311.13337,2034.07236 1311.53337,2033.37236 C1316.53337,2029.47236 1321.23337,2025.17236 1324.73337,2019.67236 C1329.63337,2011.97236 1330.03337,2003.17236 1328.03337,1994.57236 Z" id="Path" fill="#6B2F24"></path>
                <path d="M843.333365,2071.57236 C812.333365,2065.17236 781.233365,2059.07236 750.033365,2053.47236 C745.733365,2052.67236 741.233365,2053.97236 738.633365,2057.17236 C737.233365,2057.67236 735.833365,2058.47236 734.533365,2059.47236 C712.033365,2076.97236 685.633365,2089.07236 659.833365,2100.77236 C634.133365,2112.37236 604.833365,2125.37236 597.033365,2155.27236 C595.533365,2160.97236 598.933365,2167.07236 604.633365,2168.67236 C622.533365,2173.47236 640.733365,2171.97236 658.833365,2169.57236 C678.433365,2166.97236 698.133365,2164.27236 717.733365,2161.57236 C736.833365,2158.97236 755.833365,2156.37236 774.933365,2153.77236 C784.433365,2152.47236 794.033365,2151.17236 803.533365,2149.87236 C812.033365,2148.67236 822.233365,2148.87236 829.833365,2144.57236 C839.233365,2139.27236 840.333365,2126.57236 842.733365,2117.17236 C845.433365,2106.37236 848.233365,2095.67236 850.933365,2084.87236 C852.333365,2079.57236 849.233365,2072.77236 843.333365,2071.57236 Z" id="Path" fill="#6B2F24"></path>
                <path d="M1298.23337,1886.27236 C1293.83337,1863.77236 1289.23337,1841.27236 1284.43337,1818.77236 C1265.63337,1729.87236 1244.33337,1641.37236 1222.03337,1553.27236 C1199.73337,1465.57236 1177.03337,1377.87236 1152.93337,1290.67236 C1147.33337,1270.27236 1140.73337,1249.87236 1130.53337,1231.17236 C1121.03337,1213.87236 1108.03337,1198.57236 1093.63337,1185.17236 C1079.33337,1171.67236 1063.73337,1158.97236 1047.63337,1147.67236 C1037.23337,1140.47236 1026.03337,1140.17236 1015.13337,1146.57236 C1005.83337,1151.97236 996.933365,1158.27236 987.933365,1164.27236 C952.033365,1188.07236 917.133365,1213.17236 883.033365,1239.57236 C865.533365,1253.07236 848.133365,1266.97236 831.133365,1281.17236 C817.533365,1292.47236 798.833365,1304.47236 794.933365,1323.07236 C793.133365,1331.87236 795.733365,1339.97236 802.533365,1345.37236 C796.133365,1436.87236 788.333365,1528.27236 779.233365,1619.57236 C769.733365,1714.07236 758.833365,1808.37236 746.533365,1902.57236 C739.633365,1955.27236 732.233365,2007.97236 724.333365,2060.57236 C723.233365,2068.07236 727.233365,2073.57236 734.833365,2074.37236 C770.933365,2077.97236 806.933365,2081.57236 843.033365,2085.17236 C847.833365,2085.67236 852.233365,2081.47236 853.533365,2077.17236 C879.233365,1994.87236 901.833365,1911.57236 921.333365,1827.57236 C940.733365,1744.17236 957.033365,1659.97236 970.233365,1575.37236 C974.733365,1546.47236 978.833365,1517.47236 982.633365,1488.37236 C999.133365,1550.27236 1017.33337,1611.67236 1037.33337,1672.57236 C1063.23337,1751.77236 1092.03337,1830.17236 1123.63337,1907.27236 C1141.53337,1950.87236 1160.23337,1994.17236 1179.73337,2037.07236 C1182.83337,2043.97236 1192.03337,2043.37236 1196.83337,2039.27236 C1214.53337,2024.07236 1232.23337,2008.87236 1249.93337,1993.67236 L1276.43337,1970.87236 C1284.03337,1964.27236 1291.93337,1958.07236 1297.83337,1949.77236 C1310.93337,1931.37236 1302.23337,1906.37236 1298.23337,1886.27236 Z" id="Path" fill="#29AEC4"></path>
                <path d="M1117.53337,1187.17236 C1028.03337,1127.47236 938.333365,1067.67236 844.333365,1015.07236 C797.233365,988.672356 749.133365,964.172356 699.733365,942.472356 C674.733365,931.472356 649.433365,920.572356 623.433365,912.172356 C598.533365,904.172356 572.433365,899.472356 546.133365,901.872356 C490.633365,906.772356 440.333365,936.372356 401.033365,974.672356 C399.533365,976.072356 398.633365,977.672356 398.133365,979.272356 C397.633365,979.672356 397.133365,980.072356 396.733365,980.572356 C389.333365,987.772356 395.633365,997.972356 403.533365,998.972356 C403.533365,999.072356 403.533365,999.072356 403.533365,999.072356 C404.133365,1002.27236 404.333365,1005.67236 404.633365,1008.87236 C405.233365,1015.77236 405.633365,1022.77236 405.433365,1029.67236 C405.233365,1042.87236 403.233365,1056.67236 397.533365,1068.77236 C388.433365,1088.27236 367.533365,1105.47236 346.533365,1102.47236 C341.633365,1101.77236 336.733365,1103.27236 334.233365,1107.37236 C328.133365,1109.07236 325.633365,1114.97236 326.633365,1120.77236 C331.233365,1146.87236 324.533365,1173.17236 316.633365,1197.87236 C312.433365,1210.97236 307.633365,1223.97236 303.333365,1237.07236 C301.233365,1243.47236 299.133365,1249.87236 297.333365,1256.37236 C295.433365,1263.27236 292.333365,1271.27236 294.333365,1278.37236 C296.433365,1286.07236 303.133365,1289.57236 309.833365,1292.77236 C316.433365,1295.97236 323.033365,1299.07236 329.633365,1302.07236 C343.433365,1308.47236 357.233365,1314.57236 371.233365,1320.47236 C378.233365,1323.47236 385.333365,1326.37236 392.433365,1329.27236 C399.433365,1332.07236 406.733365,1334.57236 414.433365,1333.67236 C426.933365,1332.17236 435.933365,1323.17236 441.133365,1312.17236 C447.833365,1297.87236 451.633365,1281.97236 456.333365,1266.97236 C460.733365,1252.77236 465.233365,1238.67236 469.633365,1224.47236 C513.733365,1228.67236 557.633365,1239.97236 598.533365,1257.37236 C642.233365,1275.97236 683.133365,1301.47236 718.833365,1332.67236 C736.933365,1348.57236 753.833365,1365.87236 769.133365,1384.47236 C776.933365,1393.87236 784.333365,1409.27236 798.333365,1409.17284 C805.833365,1409.07236 813.233365,1404.87236 819.933365,1401.97236 C825.933365,1399.37236 831.933365,1396.77236 837.933365,1394.07236 C886.633365,1372.07236 933.533365,1346.17236 978.033365,1316.77236 C1022.93337,1287.17236 1065.53337,1253.87236 1105.13337,1217.57236 C1109.93337,1213.17236 1114.73337,1208.67236 1119.43337,1204.17236 C1125.03337,1199.17236 1123.13337,1190.87236 1117.53337,1187.17236 Z" id="Path" fill="#C7DBED"></path>
                <path d="M838.233365,1453.37236 C836.933365,1397.87236 830.633365,1342.57236 819.733365,1288.17236 C808.933365,1234.47236 793.433365,1181.67236 773.333365,1130.67236 C768.133365,1117.57236 762.733365,1104.57236 757.033365,1091.67236 C754.133365,1085.17236 751.133365,1078.67236 748.133365,1072.27236 C745.333365,1066.37236 742.833365,1060.07236 738.833365,1054.87236 C728.933365,1041.87236 714.833365,1043.47236 700.333365,1045.17236 C685.433365,1046.97236 670.533365,1048.77236 655.633365,1050.47236 C648.133365,1051.37236 640.733365,1052.27236 633.233365,1053.17236 C627.433365,1053.87236 622.333365,1057.67236 622.333365,1064.07236 C622.333365,1066.57236 623.433365,1069.27236 625.233365,1071.37236 C625.433365,1071.77236 625.633365,1072.17236 625.933365,1072.57236 C668.333365,1134.67236 699.533365,1203.77236 719.333365,1276.27236 C739.133365,1348.87236 747.533365,1424.37236 744.633365,1499.57236 C743.233365,1535.47236 740.533365,1576.67236 713.833365,1603.57236 C703.933365,1613.57236 719.233365,1628.87236 729.233365,1618.97236 C734.333365,1613.97236 739.333365,1608.97236 744.433365,1603.97236 C746.233365,1612.17236 748.133365,1620.37236 749.933365,1628.57236 C752.833365,1641.47236 755.433365,1656.37236 769.833365,1661.17236 C781.933365,1665.17236 794.733365,1657.97236 802.833365,1649.37236 C812.033365,1639.67236 817.533365,1626.47236 822.233365,1614.07236 C831.533365,1588.97236 834.733365,1561.97236 836.533365,1535.47236 C838.433365,1507.97236 838.933365,1480.67236 838.233365,1453.37236 Z" id="Path" fill="#F4BAAB"></path>
                <path d="M1277.13337,1971.27236 C1241.83337,1879.27236 1218.73337,1783.27236 1197.63337,1687.17236 C1176.43337,1590.57236 1157.13337,1493.37236 1128.93337,1398.47236 C1114.73337,1350.57236 1098.73337,1300.97236 1064.43337,1263.37236 C1060.93337,1259.57236 1055.33337,1265.27236 1058.73337,1269.07236 C1080.23337,1292.57236 1094.13337,1321.07236 1105.03337,1350.77236 C1104.03337,1350.37236 1102.93337,1350.27236 1101.73337,1350.87236 C1083.93337,1358.67236 1063.73337,1345.87236 1048.43337,1337.67236 C1032.43337,1328.97236 1016.73337,1319.47236 1004.73337,1305.57236 C1001.33337,1301.67236 995.733365,1307.37236 999.033365,1311.27236 C1012.53337,1326.97236 1030.63337,1337.37236 1048.73337,1346.97236 C1066.13337,1356.17236 1086.03337,1366.47236 1105.73337,1357.87236 C1106.33337,1357.57236 1106.83337,1357.27236 1107.13337,1356.87236 C1109.53337,1363.67236 1111.83337,1370.57236 1113.93337,1377.37236 C1112.93337,1375.67236 1110.83337,1374.57236 1108.53337,1375.87236 C1085.83337,1388.87236 1059.53337,1378.37236 1039.33337,1365.47236 C1018.83337,1352.37236 997.533365,1337.37236 983.133365,1317.47236 C980.133365,1313.37236 973.233365,1317.37236 976.233365,1321.47236 C992.133365,1343.37236 1015.53337,1360.17236 1038.33337,1374.27236 C1060.33337,1387.77236 1088.43337,1396.57236 1112.53337,1382.77236 C1114.03337,1381.97236 1114.53337,1380.57236 1114.43337,1379.27236 C1115.53337,1382.57236 1116.53337,1385.97236 1117.53337,1389.27236 C1131.83337,1436.07236 1143.93337,1483.67236 1154.93337,1531.37236 C1176.93337,1626.27236 1195.03337,1721.97236 1219.63337,1816.27236 C1233.53337,1869.57236 1249.53337,1922.27236 1269.23337,1973.67236 C1271.23337,1978.17236 1278.93337,1976.07236 1277.13337,1971.27236 Z" id="Path" fill="#F0F7FA"></path>
                <path d="M861.533365,1388.77236 C860.433365,1383.77236 852.733365,1385.87236 853.833365,1390.87236 C858.633365,1413.07236 853.733365,1436.17236 840.733365,1454.67236 C837.733365,1458.87236 844.733365,1462.87236 847.633365,1458.67236 C861.833365,1438.47236 866.733365,1412.97236 861.533365,1388.77236 Z" id="Path" fill="#F0F7FA"></path>
                <path d="M886.433365,1377.57236 C885.333365,1372.57236 877.633365,1374.67236 878.733365,1379.67236 C882.633365,1398.37236 881.633365,1417.67236 875.933365,1435.87236 C873.133365,1444.77236 869.133365,1453.37236 864.133365,1461.27236 C859.333365,1468.67236 852.533365,1476.47236 843.133365,1476.67236 C838.033365,1476.77236 837.933365,1484.77236 843.133365,1484.67329 C864.133365,1484.27236 875.933365,1459.67236 882.133365,1442.77236 C889.633365,1421.97236 891.033365,1399.27236 886.433365,1377.57236 Z" id="Path" fill="#F0F7FA"></path>
                <path d="M991.733365,1485.17236 C981.933365,1469.07236 972.033365,1452.87236 962.233365,1436.77236 C974.133365,1428.27236 976.233365,1411.87236 972.833365,1398.27236 C968.033365,1379.07236 951.733365,1365.47236 943.133365,1348.07236 C940.833365,1343.47236 933.933365,1347.47236 936.233365,1352.07236 C943.733365,1367.37236 957.333365,1379.37236 963.533365,1395.37236 C967.733365,1406.17236 968.033365,1421.37236 958.733365,1429.27236 C944.233365,1406.07236 931.333365,1382.07236 919.933365,1357.27236 C917.833365,1352.57236 910.933365,1356.67236 913.033365,1361.27236 C924.433365,1386.07236 937.333365,1410.07236 951.733365,1433.17236 C951.633365,1433.97236 951.733365,1434.87236 952.333365,1435.67236 L961.133365,1450.17236 C960.633365,1450.47236 960.233365,1450.97236 959.833365,1451.77236 C943.833365,1488.77236 936.733365,1528.47236 930.733365,1568.17236 C924.433365,1609.97236 917.933365,1651.77236 910.733365,1693.47236 C896.133365,1777.87236 879.333365,1861.77236 860.233365,1945.27236 C849.533365,1992.27236 838.133365,2039.07236 826.033365,2085.67236 C824.733365,2090.67236 832.433365,2092.77236 833.733365,2087.77236 C855.133365,2005.17236 874.433365,1922.07236 891.533365,1838.57236 C908.533365,1755.37236 923.333365,1671.67236 935.933365,1587.57236 C942.533365,1543.77236 948.533365,1499.07236 965.933365,1457.97236 L984.933365,1489.07236 C987.533365,1493.67236 994.433365,1489.57236 991.733365,1485.17236 Z" id="Path" fill="#F0F7FA"></path>
                <path d="M1106.63337,1281.67236 C1103.43337,1276.07236 1100.23337,1270.37236 1097.03337,1264.77236 C1094.43337,1260.27236 1087.53337,1264.37236 1090.13337,1268.77236 C1093.33337,1274.37236 1096.53337,1280.07236 1099.73337,1285.67236 C1102.23337,1290.17236 1109.23337,1286.17236 1106.63337,1281.67236 Z" id="Path" fill="#F0F7FA"></path>
                <path d="M1130.83337,1329.87236 C1128.23337,1324.37236 1125.63337,1318.77236 1123.03337,1313.27236 C1120.83337,1308.57236 1113.93337,1312.67236 1116.13337,1317.27236 C1118.73337,1322.77236 1121.33337,1328.37236 1123.93337,1333.87236 C1126.13337,1338.47236 1133.03337,1334.47236 1130.83337,1329.87236 Z" id="Path" fill="#F0F7FA"></path>
                <path d="M1149.73337,1387.87236 C1146.93337,1383.27236 1145.43337,1378.37236 1145.23337,1373.07236 C1145.03337,1367.97236 1137.03337,1367.87236 1137.23337,1373.07236 C1137.53337,1379.77236 1139.33337,1386.17236 1142.83337,1391.87236 C1145.53337,1396.27236 1152.43337,1392.27236 1149.73337,1387.87236 Z" id="Path" fill="#F0F7FA"></path>
                <path d="M1167.33337,1453.87236 C1164.93337,1445.07236 1162.63337,1436.17236 1160.23337,1427.37236 C1158.93337,1422.37236 1151.13337,1424.47236 1152.53337,1429.47236 C1154.93337,1438.27236 1157.23337,1447.17236 1159.63337,1455.97236 C1160.93337,1460.97236 1168.63337,1458.87236 1167.33337,1453.87236 Z" id="Path" fill="#F0F7FA"></path>
                <path d="M1185.33337,1519.17236 C1184.03337,1512.67236 1182.63337,1506.17236 1181.33337,1499.77236 C1180.33337,1494.77236 1172.53337,1496.87236 1173.63337,1501.87236 C1174.93337,1508.37236 1176.33337,1514.87236 1177.63337,1521.27236 C1178.63337,1526.37236 1186.33337,1524.27236 1185.33337,1519.17236 Z" id="Path" fill="#F0F7FA"></path>
                <path d="M1205.03337,1586.67236 C1203.63337,1581.77236 1202.33337,1576.87236 1200.93337,1571.97236 C1199.53337,1566.97236 1191.83337,1569.17236 1193.23337,1574.07236 C1194.63337,1578.97236 1195.93337,1583.87236 1197.33337,1588.77236 C1198.73337,1593.67236 1206.43337,1591.57236 1205.03337,1586.67236 Z" id="Path" fill="#F0F7FA"></path>
                <path d="M1215.33337,1658.77236 C1213.43337,1652.47236 1211.53337,1646.07236 1209.63337,1639.77236 C1208.13337,1634.87236 1200.43337,1636.97236 1201.93337,1641.87236 C1203.83337,1648.17236 1205.73337,1654.57236 1207.63337,1660.87236 C1209.03337,1665.77236 1216.83337,1663.67236 1215.33337,1658.77236 Z" id="Path" fill="#F0F7FA"></path>
                <path d="M1234.03337,1743.27236 C1231.53337,1736.87236 1229.03337,1730.47236 1226.53337,1724.07236 C1224.73337,1719.37236 1216.93337,1721.37236 1218.83337,1726.17236 C1221.33337,1732.57236 1223.83337,1738.97236 1226.33337,1745.37236 C1228.23337,1750.17236 1235.93337,1748.07236 1234.03337,1743.27236 Z" id="Path" fill="#F0F7FA"></path>
                <path d="M1253.43337,1796.27236 C1251.73337,1790.67236 1250.03337,1785.07236 1248.23337,1779.47236 C1246.73337,1774.57236 1239.03337,1776.67236 1240.53337,1781.57236 C1242.23337,1787.17236 1243.93337,1792.77236 1245.73337,1798.37236 C1247.23337,1803.27236 1254.93337,1801.17236 1253.43337,1796.27236 Z" id="Path" fill="#F0F7FA"></path>
                <path d="M1260.43337,1838.67236 C1257.73337,1834.27236 1250.83337,1838.27236 1253.53337,1842.67236 C1256.33337,1847.27236 1257.83337,1852.07236 1258.13337,1857.47236 C1258.33337,1862.57236 1266.33337,1862.67236 1266.13337,1857.47236 C1265.83337,1850.77236 1263.93337,1844.47236 1260.43337,1838.67236 Z" id="Path" fill="#F0F7FA"></path>
                <path d="M1280.03337,1916.77236 C1279.13337,1911.97236 1278.33337,1907.17236 1277.43337,1902.37236 C1276.53337,1897.27236 1268.83337,1899.47236 1269.73337,1904.47236 C1270.63337,1909.27236 1271.43337,1914.07236 1272.33337,1918.87236 C1273.23337,1923.87236 1280.93337,1921.77236 1280.03337,1916.77236 Z" id="Path" fill="#F0F7FA"></path>
                <path d="M1291.83337,1942.27236 C1290.53337,1940.57236 1288.33337,1939.67236 1286.33337,1940.87236 C1284.63337,1941.87236 1283.63337,1944.57236 1284.93337,1946.37236 C1286.33337,1948.27236 1287.33337,1950.47236 1287.03337,1952.87236 C1286.73337,1954.97236 1287.53337,1957.17236 1289.83337,1957.77236 C1291.73337,1958.27236 1294.43337,1957.17236 1294.73337,1954.97236 C1295.33337,1950.47236 1294.63337,1945.97236 1291.83337,1942.27236 Z" id="Path" fill="#F0F7FA"></path>
                <path d="M1322.53337,1992.37236 C1288.63337,2031.17236 1253.33337,2068.87236 1216.93337,2105.37236 C1216.83337,2105.17236 1216.73337,2105.07236 1216.63337,2104.87236 C1202.63337,2087.57236 1180.33337,2079.27236 1158.43337,2082.17236 C1153.33337,2082.87236 1155.53337,2090.57236 1160.53337,2089.87236 C1179.63337,2087.27236 1198.93337,2095.57236 1210.93337,2110.47236 C1211.03337,2110.57236 1211.13337,2110.77236 1211.33337,2110.87236 C1200.73337,2121.47236 1190.03337,2131.87236 1179.23337,2142.27236 C1172.53337,2148.67236 1165.93337,2155.27236 1158.93337,2161.37236 C1151.93337,2167.37236 1143.03337,2173.27236 1133.63337,2169.87236 C1128.83337,2168.07236 1126.73337,2175.87236 1131.53337,2177.57236 C1134.03337,2178.47236 1136.63337,2178.97236 1139.03337,2178.97236 L1139.03337,2185.47236 C1139.03337,2190.57236 1147.03337,2190.67236 1147.03337,2185.47236 L1147.03337,2177.67236 C1151.03337,2176.37236 1154.83337,2174.27236 1158.43337,2171.77236 C1159.63337,2173.87236 1160.73337,2175.97236 1161.93337,2178.07236 C1164.43337,2182.57236 1171.33337,2178.57236 1168.83337,2174.07236 C1167.53337,2171.67236 1166.13337,2169.27236 1164.83337,2166.77236 C1167.03337,2164.87236 1169.13337,2162.87236 1171.13337,2160.97236 C1175.23337,2157.07236 1179.43337,2153.17236 1183.53337,2149.17236 C1184.53337,2150.57236 1185.63337,2151.97236 1186.63337,2153.27236 C1187.23337,2154.17236 1187.93337,2154.77236 1189.03337,2155.07236 C1190.03337,2155.37236 1191.23337,2155.17236 1192.13337,2154.67236 C1193.83337,2153.57236 1194.93337,2150.97236 1193.53337,2149.17236 C1192.33337,2147.57236 1191.23337,2146.07236 1190.03337,2144.47236 C1189.83337,2144.17236 1189.53337,2143.87236 1189.23337,2143.57236 C1193.83337,2139.17236 1198.43337,2134.67236 1203.03337,2130.17236 C1203.83337,2131.57236 1204.73337,2132.87236 1205.53337,2134.27236 C1206.63337,2136.07236 1209.13337,2136.87236 1211.03337,2135.67236 C1212.83337,2134.57236 1213.63337,2132.07236 1212.43337,2130.17236 C1211.23337,2128.27236 1210.03337,2126.27236 1208.83337,2124.37236 C1209.23337,2123.97236 1209.73337,2123.47236 1210.13337,2123.07236 C1215.83337,2117.47236 1221.53337,2111.77236 1227.13337,2106.07236 C1228.03337,2107.67236 1229.03337,2109.27236 1229.93337,2110.77236 C1231.03337,2112.57236 1233.53337,2113.37236 1235.43337,2112.17236 C1237.23337,2110.97236 1238.03337,2108.57236 1236.83337,2106.67236 C1235.63337,2104.67236 1234.53337,2102.77236 1233.33337,2100.77236 C1233.23337,2100.57236 1233.03337,2100.37236 1232.83337,2100.17236 C1236.13337,2096.77236 1239.53337,2093.37236 1242.83337,2089.97236 C1243.93337,2091.77236 1245.13337,2093.67236 1246.23337,2095.47236 C1247.33337,2097.27236 1249.83337,2098.07236 1251.73337,2096.87236 C1253.53337,2095.77236 1254.33337,2093.27236 1253.13337,2091.37236 C1251.93337,2089.47236 1250.73337,2087.47236 1249.53337,2085.57236 C1249.23337,2085.07236 1248.73337,2084.67236 1248.23337,2084.27236 C1252.03337,2080.37236 1255.83337,2076.47236 1259.53337,2072.47236 C1259.63337,2072.57236 1259.63337,2072.67236 1259.73337,2072.77236 C1261.33337,2074.37236 1262.83337,2075.87236 1264.43337,2077.47236 C1265.93337,2078.97236 1268.63337,2079.07236 1270.13337,2077.47236 C1271.63337,2075.87236 1271.73337,2073.37236 1270.13337,2071.77236 C1268.53337,2070.17236 1267.03337,2068.67236 1265.43337,2067.07236 C1265.33337,2066.97236 1265.13337,2066.87236 1265.03337,2066.67236 C1268.53337,2062.97236 1272.03337,2059.27236 1275.53337,2055.57236 C1276.33337,2056.67236 1277.23337,2057.77236 1278.03337,2058.87236 C1278.73337,2059.77236 1279.33337,2060.37236 1280.43337,2060.67236 C1281.43337,2060.97236 1282.63337,2060.77236 1283.53337,2060.27236 C1285.13337,2059.17236 1286.33337,2056.57236 1284.93337,2054.77236 C1283.73337,2053.17236 1282.53337,2051.67236 1281.43337,2050.07236 C1281.33337,2049.87236 1281.13337,2049.77236 1281.03337,2049.57236 C1282.73337,2047.77236 1284.43337,2045.87236 1286.13337,2044.07236 C1287.93337,2042.17236 1289.63337,2040.17236 1291.43337,2038.27236 C1292.43337,2039.67236 1293.43337,2040.97236 1294.43337,2042.37236 C1295.73337,2044.07236 1297.93337,2044.97236 1299.93337,2043.77236 C1301.63337,2042.77236 1302.63337,2040.07236 1301.33337,2038.27236 C1299.83337,2036.27236 1298.33337,2034.27236 1296.93337,2032.27236 C1299.83337,2029.07236 1302.83337,2025.77236 1305.73337,2022.57236 C1306.83337,2025.07236 1308.43337,2027.27236 1310.43337,2029.07236 C1312.03337,2030.47236 1314.53337,2030.67236 1316.13337,2029.07236 C1317.53337,2027.67236 1317.73337,2024.87236 1316.13337,2023.37236 C1314.23337,2021.77236 1313.23337,2020.17236 1312.63337,2017.97236 C1312.43337,2017.27236 1312.03337,2016.67236 1311.53337,2016.17236 C1317.13337,2009.87236 1322.73337,2003.57236 1328.23337,1997.27236 C1331.63337,1994.17236 1325.93337,1988.47236 1322.53337,1992.37236 Z" id="Path" fill="#F0F7FA"></path>
                <path d="M1215.03337,2017.07236 C1209.53337,2014.57236 1202.03337,2019.37236 1197.53337,2022.27236 C1193.23337,2025.07236 1189.53337,2028.27236 1186.13337,2031.97236 C1181.53337,2028.67236 1175.73337,2025.77236 1169.93337,2026.07236 C1165.13337,2026.37236 1160.53337,2029.67236 1159.73337,2034.67236 C1158.93337,2039.97236 1162.93337,2044.07236 1167.63337,2045.77236 C1169.53337,2046.47236 1171.63337,2046.77236 1173.63337,2046.87236 C1172.13337,2048.07236 1170.53337,2049.37236 1169.13337,2050.67236 C1167.93337,2051.77236 1167.73337,2053.07236 1168.03337,2054.27236 C1167.73337,2054.27236 1167.43337,2054.27236 1167.13337,2054.27236 C1162.03337,2054.57236 1161.93337,2062.57236 1167.13337,2062.27236 C1179.23337,2061.67236 1190.83337,2064.17236 1201.43337,2069.97236 C1205.93337,2072.47236 1210.03337,2065.57236 1205.43337,2063.07236 C1203.23337,2061.87236 1201.03337,2060.77236 1198.73337,2059.87236 C1201.03337,2059.27236 1202.83337,2056.77236 1201.23337,2054.17236 C1199.83337,2051.97236 1198.53337,2049.77236 1197.13337,2047.57236 C1199.63337,2047.77236 1202.33337,2047.37236 1205.13337,2046.07236 C1211.23337,2043.27236 1216.03337,2037.87236 1218.73337,2031.77236 C1220.83337,2026.77236 1220.83337,2019.77236 1215.03337,2017.07236 Z M1171.43337,2034.17236 C1173.33337,2034.27236 1175.33337,2035.07236 1177.03337,2035.87236 C1178.23337,2036.47236 1179.43337,2037.17236 1180.43337,2037.87236 C1177.33337,2038.97236 1172.23337,2039.97236 1169.43337,2038.07236 C1166.53337,2035.97236 1168.23337,2034.07236 1171.43337,2034.17236 Z M1176.83337,2054.57236 C1179.43337,2052.37236 1182.13337,2050.47236 1185.03337,2048.77236 C1186.03337,2048.17236 1186.63337,2047.37236 1186.83337,2046.47236 C1187.13337,2046.97236 1187.43337,2047.47236 1187.53337,2047.57236 L1194.23337,2058.27236 C1194.23337,2058.27236 1194.23337,2058.27236 1194.23337,2058.27236 C1188.73337,2056.37236 1182.83337,2055.07236 1176.83337,2054.57236 Z M1211.63337,2027.87236 C1211.03337,2030.97236 1208.13337,2034.17236 1205.83337,2036.17236 C1202.73337,2038.87236 1198.93337,2040.87236 1194.93337,2038.97236 C1193.93337,2038.47236 1193.03337,2037.87236 1192.13337,2037.17236 C1195.83337,2033.17236 1200.13337,2029.77236 1204.93337,2027.17236 C1207.63337,2025.77236 1212.83337,2022.17236 1211.63337,2027.87236 Z" id="Shape" fill="#F0F7FA"></path>
                <path d="M752.333365,2059.27236 C749.833365,2053.87236 744.033365,2050.97236 738.533365,2054.07236 C732.433365,2057.47236 727.733365,2064.47236 724.333365,2070.27236 C724.033365,2070.77236 723.933365,2071.17236 723.833365,2071.67236 C718.533365,2065.87236 714.833365,2057.47236 707.433365,2055.07236 C696.533365,2051.67236 688.033365,2063.97236 692.333365,2073.67236 C697.633365,2085.97236 711.833365,2085.57236 722.933365,2082.67236 C724.433365,2091.17236 725.833365,2099.77236 727.333365,2108.27236 C728.233365,2113.37236 735.933365,2111.17236 735.033365,2106.17236 C733.833365,2099.07236 732.633365,2091.87236 731.433365,2084.77236 C733.933365,2085.37236 736.633365,2085.37236 739.233365,2084.77236 C749.833365,2082.37236 757.033365,2069.57236 752.333365,2059.27236 Z M700.633365,2072.47236 C698.633365,2069.87236 698.233365,2065.47236 701.133365,2063.37236 C703.833365,2061.37236 706.633365,2063.57236 708.633365,2065.47236 C711.933365,2068.77236 714.233365,2072.57236 717.133365,2075.97236 C711.133365,2077.27236 704.633365,2077.47236 700.633365,2072.47236 Z M735.933365,2077.17236 C733.633365,2077.37236 731.633365,2076.97236 729.833365,2076.17236 C729.833365,2076.07236 729.733365,2075.87236 729.733365,2075.77236 C730.333365,2075.47236 730.833365,2074.97236 731.233365,2074.27236 C733.333365,2070.67236 735.733365,2067.37236 738.633365,2064.37236 C741.233365,2061.67236 744.333365,2058.97236 745.633365,2064.17236 C747.033365,2070.17236 741.833365,2076.77236 735.933365,2077.17236 Z" id="Shape" fill="#F0F7FA"></path>
                <path d="M715.933365,2107.47236 C710.133365,2097.77236 702.033365,2089.87236 692.033365,2084.57236 C687.533365,2082.17236 683.433365,2089.07236 688.033365,2091.47236 C696.833365,2096.17236 703.933365,2102.87236 709.033365,2111.47236 C711.733365,2115.97236 718.633365,2111.97236 715.933365,2107.47236 Z" id="Path" fill="#F0F7FA"></path>
                <path d="M688.933365,2113.77236 C685.733365,2106.17236 681.233365,2099.37236 675.233365,2093.67236 C671.433365,2090.17236 665.833365,2095.77236 669.533365,2099.37236 C674.533365,2104.07236 678.533365,2109.57236 681.233365,2115.87236 C683.233365,2120.57236 690.933365,2118.57236 688.933365,2113.77236 Z" id="Path" fill="#F0F7FA"></path>
                <path d="M836.333365,2121.97236 C798.433365,2124.87236 760.633365,2129.57236 723.233365,2135.97236 C721.633365,2135.27236 719.533365,2135.47236 718.333365,2136.77236 C718.333365,2136.77236 718.233365,2136.77236 718.233365,2136.77236 C701.633365,2139.67236 685.033365,2143.47236 668.433365,2146.37236 C662.833365,2129.77236 650.433365,2115.87236 634.233365,2108.67236 C629.533365,2106.57236 625.533365,2113.47236 630.233365,2115.57236 C644.333365,2121.77236 655.233365,2133.27236 660.433365,2147.67236 C640.933365,2150.77236 621.233365,2152.27236 601.233365,2149.67236 C596.133365,2148.97236 596.233365,2156.97236 601.233365,2157.67236 C605.233365,2158.17236 609.233365,2158.57236 613.233365,2158.77236 C613.433365,2162.77236 614.633365,2166.57236 616.733365,2169.97236 C619.433365,2174.37236 626.333365,2170.37236 623.633365,2165.97236 C622.233365,2163.77236 621.533365,2161.47236 621.233365,2158.97236 C625.733365,2158.97236 630.233365,2158.87236 634.633365,2158.57236 L634.633365,2167.67236 C634.633365,2172.77236 642.633365,2172.87236 642.633365,2167.67236 L642.633365,2157.97236 C647.233365,2157.57236 651.933365,2156.97236 656.533365,2156.27236 C656.433365,2159.57236 657.233365,2162.77236 658.533365,2165.77236 C659.333365,2167.77236 662.333365,2168.17236 664.033365,2167.17236 C666.133365,2165.97236 666.333365,2163.67236 665.433365,2161.67236 C664.533365,2159.57236 664.433365,2157.17236 664.633365,2154.87236 C665.033365,2154.77236 665.433365,2154.77236 665.733365,2154.67236 C666.033365,2154.67236 666.433365,2154.57236 666.733365,2154.47236 C669.433365,2153.97236 672.033365,2153.57236 674.733365,2153.07236 C675.133365,2157.07236 675.633365,2160.97236 676.033365,2164.97236 C676.233365,2167.17236 677.733365,2168.97236 680.033365,2168.97236 C682.033365,2168.97236 684.233365,2167.07236 684.033365,2164.97236 C683.533365,2160.47236 683.033365,2156.07236 682.533365,2151.57236 C686.333365,2150.87236 690.133365,2150.07236 693.933365,2149.27236 C693.933365,2149.67236 693.933365,2150.07236 693.933365,2150.57236 C694.433365,2154.47236 695.033365,2158.27236 695.533365,2162.17236 C695.833365,2164.27236 698.533365,2165.47236 700.433365,2164.97236 C702.733365,2164.37236 703.533365,2162.17236 703.233365,2160.07236 C702.733365,2156.17236 702.133365,2152.37236 701.633365,2148.47236 C701.633365,2148.27236 701.533365,2148.07236 701.433365,2147.87236 C706.433365,2146.87236 711.433365,2145.87236 716.433365,2144.97236 C716.733365,2144.87236 717.033365,2144.87236 717.333365,2144.77236 C717.733365,2148.47236 718.533365,2152.17236 719.733365,2155.77236 C721.433365,2160.57236 729.233365,2158.47236 727.433365,2153.67236 C726.233365,2150.27236 725.533365,2146.97236 725.233365,2143.47236 C731.533365,2142.37236 737.733365,2141.37236 744.033365,2140.47236 C744.033365,2140.47236 744.033365,2140.57236 744.033365,2140.57236 C744.533365,2144.87236 745.133365,2149.17236 745.633365,2153.47236 C745.933365,2155.57236 747.233365,2157.47236 749.633365,2157.47236 C751.533365,2157.47236 753.933365,2155.67236 753.633365,2153.47236 C753.133365,2149.17236 752.533365,2144.87236 752.033365,2140.57236 C751.933365,2140.17236 751.833365,2139.67236 751.733365,2139.27236 C756.533365,2138.57236 761.433365,2137.87236 766.233365,2137.27236 L766.233365,2150.87236 C766.233365,2155.97236 774.233365,2156.07236 774.233365,2150.87236 L774.233365,2136.67236 C774.233365,2136.47236 774.233365,2136.37236 774.233365,2136.17236 C780.433365,2135.37236 786.633365,2134.67236 792.833365,2133.97236 C792.133365,2134.57236 791.733365,2135.47236 791.733365,2136.67236 L791.433365,2149.57236 C791.333365,2154.77236 799.333365,2154.67236 799.433365,2149.57236 L799.733365,2136.67236 C799.733365,2135.07236 799.033365,2133.97236 798.033365,2133.37236 C804.733365,2132.67236 811.333365,2131.97236 818.033365,2131.37236 C817.533365,2131.87236 817.233365,2132.37236 817.133365,2133.07236 C816.633365,2136.47236 816.033365,2139.97236 815.533365,2143.37236 C815.233365,2145.47236 816.033365,2147.67236 818.333365,2148.27236 C820.233365,2148.77236 822.933365,2147.67236 823.233365,2145.47236 C823.733365,2142.07236 824.333365,2138.57236 824.833365,2135.17236 C825.133365,2133.47236 824.633365,2131.77236 823.333365,2130.87236 C827.733365,2130.47236 832.133365,2130.07236 836.433365,2129.77236 C841.433365,2129.57236 841.433365,2121.57236 836.333365,2121.97236 Z" id="Path" fill="#F0F7FA"></path>
                <path d="M821.833365,1093.07236 C807.133365,1068.27236 791.633365,1043.97236 775.333365,1020.17236 C767.733365,1009.07236 760.333365,997.572356 751.733365,987.172356 C744.133365,978.072356 735.033365,974.672356 724.133365,980.072356 C697.633365,993.372356 671.733365,1007.87236 645.533365,1021.77236 C628.533365,1030.77236 602.233365,1042.47236 602.733365,1065.57236 C602.933365,1072.47236 605.733365,1078.87236 609.033365,1084.87236 C612.733365,1091.57236 616.633365,1098.07236 620.433365,1104.67236 C628.933365,1119.27236 637.633365,1133.77236 646.533365,1148.17236 C648.933365,1152.17236 654.833365,1149.17236 653.933365,1145.37236 C681.833365,1145.97236 708.933365,1134.87236 735.033365,1126.37236 C763.133365,1117.27236 791.333365,1108.17236 819.433365,1098.97236 C821.833365,1098.17236 823.233365,1095.37236 821.833365,1093.07236 Z" id="Path" fill="#C7DBED"></path>
                <path d="M762.133365,956.272356 C758.333365,950.672356 752.033365,946.772356 746.933365,942.572356 C736.433365,934.072356 725.933365,925.472356 715.433365,916.972356 C706.433365,909.772356 697.333365,902.472356 686.733365,897.572356 C675.433365,892.372356 663.333365,890.172356 650.933365,891.072356 C642.033365,891.772356 633.233365,893.772356 624.533365,895.972356 C617.333365,896.772356 610.233365,897.672356 603.033365,898.272356 C601.933365,898.372356 600.733365,898.372356 599.633365,898.472356 C598.133365,897.972356 596.633365,897.472356 595.133365,896.972356 C571.433365,889.772356 546.533365,888.272356 522.433365,882.872356 C510.833365,880.272356 499.533365,876.872356 489.233365,871.272356 C479.133365,865.772356 470.633365,858.872356 461.833365,851.572356 C443.533365,836.172356 424.533365,818.872356 400.333365,813.972356 C371.233365,808.072356 344.233365,820.572356 316.233365,826.272356 C289.533365,831.672356 262.633365,824.372356 236.133365,821.472356 C209.033365,818.472356 181.733365,821.772356 160.433365,840.272356 C142.133365,856.172356 132.233365,880.072356 129.033365,903.572356 C125.133365,933.272356 132.733365,963.172356 142.433365,990.972356 C144.833365,997.972356 147.433365,1004.97236 150.033365,1011.87236 C150.333365,1012.77236 150.733365,1013.57236 151.233365,1014.27236 C153.233365,1019.57236 155.833365,1024.67236 159.033365,1029.37236 C161.533365,1033.17236 164.233365,1036.87236 168.733365,1038.37236 C173.933365,1040.07236 178.633365,1038.27236 182.633365,1034.87236 C188.233365,1030.07236 193.333365,1024.77236 198.533365,1019.57236 C215.033365,1003.27236 231.033365,986.372356 248.933365,971.572356 C257.133365,968.372356 265.433365,965.672356 274.033365,963.672356 C300.333365,957.372356 329.133365,957.872356 353.933365,968.872356 C355.333365,976.672356 356.633365,984.672356 359.033365,992.172356 C362.333365,1002.07236 369.833365,1008.87236 380.233365,1010.27236 C389.233365,1011.47236 396.633365,1008.77236 402.733365,1004.07236 C405.933365,1006.27236 409.233365,1008.27236 412.733365,1009.97236 C426.733365,1016.87236 441.633365,1021.27236 456.033365,1027.17236 C460.933365,1029.17236 468.233365,1032.87236 473.633365,1036.47236 C477.933365,1039.47236 482.933365,1044.17236 485.733365,1048.67236 C495.233365,1063.67236 494.433365,1082.97236 496.833365,1099.97236 C502.233365,1138.57236 525.733365,1173.37236 559.133365,1193.17236 C563.433365,1195.77236 568.733365,1194.67236 572.333365,1191.47236 C598.833365,1167.67236 624.333365,1142.77236 648.633365,1116.87236 C660.633365,1104.07236 672.333365,1091.07236 683.733365,1077.77236 C693.233365,1066.77236 702.733365,1055.57236 711.033365,1043.67236 C714.133365,1040.57236 717.133365,1037.47236 720.033365,1034.27236 C728.333365,1025.27236 736.033365,1015.77236 743.433365,1005.97236 C750.333365,996.772356 758.233365,986.972356 763.133365,976.472356 C766.233365,969.872356 766.433365,962.572356 762.133365,956.272356 Z" id="Path" fill="#6B2F24"></path>
                <path d="M354.933365,944.972356 C352.233365,934.572356 343.333365,926.072356 332.233365,925.872356 C322.033365,925.672356 312.233365,932.172356 308.233365,941.472356 C303.933365,951.472356 305.833365,963.072356 311.833365,971.872356 C315.133365,976.672356 321.433365,978.872356 326.733365,975.772356 C327.433365,975.372356 328.133365,974.772356 328.733365,974.172356 C329.033365,974.072356 329.333365,973.972356 329.533365,973.872356 C330.733365,977.172356 333.033365,979.872356 336.733365,980.872356 C341.133365,982.072356 346.933365,980.172356 349.033365,975.872356 C353.833365,966.272356 357.733365,955.772356 354.933365,944.972356 Z" id="Path" fill="#F4BAAB"></path>
                <path d="M1050.93337,1223.77236 C1012.13337,1202.57236 975.133365,1178.17236 940.533365,1150.67236 C908.733365,1125.47236 879.933365,1096.77236 847.233365,1072.77236 C829.333365,1059.57236 810.133365,1048.37236 789.233365,1040.47236 C786.033365,1039.27236 784.033365,1042.27236 784.433365,1044.97236 C780.833365,1033.67236 776.733365,1022.57236 772.133365,1011.57236 C770.233365,1006.87236 762.433365,1008.97236 764.433365,1013.67236 C775.733365,1041.07236 784.333365,1069.47236 789.933365,1098.67236 C764.333365,1109.77236 738.933365,1121.47236 712.933365,1131.67236 C700.733365,1136.47236 688.233365,1140.67236 675.333365,1143.47236 C668.633365,1144.87236 661.833365,1146.07236 655.033365,1146.37236 C649.833365,1146.57236 639.433365,1145.17236 640.733365,1137.57236 C641.633365,1132.57236 633.933365,1130.37236 633.033365,1135.47236 C630.633365,1149.67236 645.033365,1155.07236 656.733365,1154.27236 C672.533365,1153.27236 688.133365,1149.07236 703.033365,1143.87236 C734.533365,1132.87236 764.833365,1118.17236 795.433365,1104.87236 C796.433365,1104.47236 797.033365,1103.77236 797.333365,1103.07236 C798.133365,1102.17236 798.633365,1100.97236 798.333365,1099.57236 C794.933365,1081.47236 790.433365,1063.57236 784.833365,1046.07236 C785.233365,1046.97236 785.933365,1047.67236 787.133365,1048.07236 C824.733365,1062.37236 855.933365,1088.47236 885.833365,1114.67236 C917.433365,1142.37236 949.433365,1169.07236 984.333365,1192.57236 C1004.53337,1206.17236 1025.43337,1218.87236 1046.83337,1230.57236 C1051.33337,1233.07236 1055.43337,1226.17236 1050.93337,1223.77236 Z" id="Path" fill="#F0F7FA"></path>
                <path d="M799.133365,1214.67236 C797.533365,1207.37236 793.633365,1200.77236 787.833365,1196.07236 C783.933365,1192.87236 778.233365,1198.47236 782.133365,1201.77236 C786.933365,1205.77236 790.033365,1210.77236 791.433365,1216.87236 C792.433365,1221.87236 800.133365,1219.77236 799.133365,1214.67236 Z" id="Path" fill="#F0F7FA"></path>
                <path d="M745.333365,1585.27236 C744.133365,1592.27236 742.833365,1599.17236 741.633365,1606.17236 C740.733365,1611.17236 748.433365,1613.37236 749.333365,1608.27236 C750.533365,1601.27236 751.833365,1594.37236 753.033365,1587.37236 C753.933365,1582.37236 746.233365,1580.27236 745.333365,1585.27236 Z" id="Path" fill="#F0F7FA"></path>
                <path d="M774.633365,1594.27236 C773.833365,1589.17236 766.033365,1591.37236 766.933365,1596.37236 C770.133365,1615.47236 767.733365,1635.37236 760.133365,1653.17236 C758.133365,1657.87236 765.033365,1661.97236 767.033365,1657.17236 C775.633365,1637.27236 778.233365,1615.77236 774.633365,1594.27236 Z" id="Path" fill="#F0F7FA"></path>
                <path d="M800.433365,1598.27236 C800.033365,1593.17236 792.033365,1593.17236 792.433365,1598.27236 C794.333365,1620.37236 788.733365,1642.17236 776.533365,1660.67236 C773.733365,1664.97236 780.633365,1668.97236 783.433365,1664.67236 C796.433365,1645.17236 802.433365,1621.67236 800.433365,1598.27236 Z" id="Path" fill="#F0F7FA"></path>
                <path d="M821.333365,1593.77236 C820.733365,1588.77236 812.733365,1588.67236 813.333365,1593.77236 C815.333365,1609.47236 813.033365,1625.17236 806.233365,1639.57236 C804.033365,1644.17236 810.933365,1648.27236 813.133365,1643.57236 C820.533365,1627.97236 823.533365,1610.97236 821.333365,1593.77236 Z" id="Path" fill="#F0F7FA"></path>
                <path d="M206.733365,1099.77236 C204.733365,1103.27236 202.733365,1106.77236 200.733365,1110.27236 C198.133365,1114.77236 205.133365,1118.77236 207.633365,1114.27236 C209.633365,1110.77236 211.633365,1107.27236 213.633365,1103.77236 C216.133365,1099.37236 209.233365,1095.27236 206.733365,1099.77236 Z" id="Path" fill="#F0F7FA"></path>
                <path d="M195.933365,1048.27236 C189.333365,1064.77236 186.733365,1082.57236 188.333365,1100.27236 C188.833365,1105.37236 196.833365,1105.37236 196.333365,1100.27236 C194.833365,1083.17236 197.233365,1066.37236 203.633365,1050.37236 C205.533365,1045.57236 197.733365,1043.57236 195.933365,1048.27236 Z" id="Path" fill="#F0F7FA"></path>
                <path d="M178.233365,1049.87236 C173.533365,1066.77236 171.333365,1084.27236 171.733365,1101.87236 C171.833365,1106.97236 179.833365,1107.07236 179.733365,1101.87236 C179.333365,1084.97236 181.433365,1068.37236 185.933365,1052.07236 C187.333365,1046.97236 179.533365,1044.87236 178.233365,1049.87236 Z" id="Path" fill="#F0F7FA"></path>
                <path d="M158.333365,1056.77236 C157.633365,1071.27236 157.033365,1085.77236 156.333365,1100.27236 C156.133365,1105.37236 164.133365,1105.37236 164.333365,1100.27236 C165.033365,1085.77236 165.633365,1071.27236 166.333365,1056.77236 C166.533365,1051.67236 158.533365,1051.67236 158.333365,1056.77236 Z" id="Path" fill="#F0F7FA"></path>
                <path d="M431.833365,1313.87236 C420.733365,1311.47236 409.633365,1308.97236 398.733365,1305.67236 C387.733365,1302.27236 377.233365,1297.57236 366.733365,1292.77236 C344.333365,1282.57236 322.033365,1272.27236 299.633365,1262.07236 C295.033365,1259.97236 290.933365,1266.87236 295.633365,1268.97236 C318.633365,1279.47236 341.533365,1289.97236 364.533365,1300.57236 C374.433365,1305.07236 384.433365,1309.57236 394.933365,1312.87236 C406.333365,1316.47236 418.133365,1319.07236 429.833365,1321.67236 C434.733365,1322.77236 436.933365,1314.97236 431.833365,1313.87236 Z" id="Path" fill="#F0F7FA"></path>
                <path d="M473.933365,1219.47236 C454.633365,1214.47236 436.133365,1207.07236 418.733365,1197.47236 C414.233365,1194.97236 410.133365,1201.87236 414.733365,1204.37236 C432.733365,1214.37236 451.933365,1221.97236 471.833365,1227.17236 C476.833365,1228.47236 478.933365,1220.77236 473.933365,1219.47236 Z" id="Path" fill="#F0F7FA"></path>
                <path d="M429.833365,1021.47236 C429.733365,1024.37236 429.533365,1027.17236 429.233365,1029.97236 L405.833365,1024.07236 C400.833365,1022.77236 398.733365,1030.47236 403.733365,1031.77236 C411.533365,1033.77236 419.333365,1035.77236 427.133365,1037.67236 C427.433365,1037.77236 427.633365,1037.77236 427.933365,1037.77236 C426.433365,1044.57236 424.133365,1050.97236 421.133365,1057.17236 C415.533365,1056.37236 410.433365,1054.17236 405.733365,1051.07236 C401.433365,1048.17236 397.433365,1055.07236 401.733365,1057.97236 C406.533365,1061.17236 411.633365,1063.37236 417.233365,1064.57236 C413.233365,1071.27236 408.533365,1077.57236 403.333365,1083.57236 C399.533365,1081.47236 396.433365,1078.67236 393.733365,1075.27236 C392.433365,1073.57236 389.433365,1073.87236 388.033365,1075.27236 C386.333365,1076.97236 386.733365,1079.27236 388.033365,1080.97236 C390.733365,1084.37236 394.033365,1087.37236 397.733365,1089.67236 C396.933365,1090.47236 396.133365,1091.37236 395.233365,1092.17236 C390.433365,1096.87236 385.333365,1101.27236 379.933365,1105.27236 C379.833365,1105.07236 379.733365,1104.77236 379.633365,1104.57236 C377.833365,1100.57236 376.133365,1096.57236 374.333365,1092.57236 C373.433365,1090.57236 370.533365,1090.17236 368.833365,1091.17236 C366.833365,1092.37236 366.533365,1094.67236 367.433365,1096.67236 C369.233365,1100.67236 370.933365,1104.67236 372.733365,1108.67236 C372.933365,1109.07236 373.233365,1109.37236 373.533365,1109.67236 C367.333365,1113.57236 360.733365,1116.77236 353.733365,1119.07236 L353.733365,1104.07236 C353.733365,1098.97236 345.733365,1098.87236 345.733365,1104.07236 L345.733365,1120.47236 C345.733365,1120.77236 345.733365,1120.97236 345.833365,1121.27236 C341.433365,1122.27236 336.833365,1122.77236 332.133365,1122.87236 C327.033365,1122.97236 326.933365,1130.97236 332.133365,1130.87329 C358.733365,1130.37236 382.333365,1116.27236 400.833365,1097.87236 C421.833365,1077.07236 437.233365,1051.97236 437.834295,1021.77236 C437.933365,1016.37236 429.933365,1016.37236 429.833365,1021.47236 Z" id="Path" fill="#F0F7FA"></path>
                <path d="M1103.23337,1186.77236 C1046.53337,1253.17236 962.033365,1284.07236 892.133365,1333.47236 C872.633365,1347.17236 854.233365,1362.37236 837.933365,1379.87236 C834.433365,1383.67236 840.033365,1389.27236 843.633365,1385.57236 C903.133365,1321.77236 987.633365,1291.77236 1056.53337,1240.57236 C1075.63337,1226.37236 1093.43337,1210.67236 1108.83337,1192.57236 C1112.13337,1188.57236 1106.53337,1182.87236 1103.23337,1186.77236 Z" id="Path" fill="#F0F7FA"></path>
                <path d="M188.333365,1019.57236 C186.933365,1018.57236 185.533365,1018.67236 184.533365,1019.37236 C183.833365,1018.47236 182.833365,1017.57236 182.133365,1016.77236 C180.433365,1014.77236 178.733365,1012.67236 177.233365,1010.47236 C174.433365,1006.47236 171.833365,1002.27236 169.633365,997.872356 C165.133365,988.872356 162.233365,979.272356 160.733365,969.372356 C159.933365,964.272356 152.233365,966.472356 153.033365,971.472356 C155.433365,987.172356 161.533365,1002.17236 170.833365,1015.07236 C173.933365,1019.37236 179.133365,1028.27236 184.933365,1028.97236 C190.633365,1029.97236 192.833365,1022.77236 188.333365,1019.57236 Z" id="Path" fill="#F0F7FA"></path>
                <path d="M217.933365,999.572356 C200.433365,990.072356 188.433365,973.072356 185.133365,953.472356 C184.233365,948.372356 176.533365,950.572356 177.433365,955.572356 C181.133365,977.072356 194.733365,996.072356 213.933365,1006.47236 C218.333365,1008.97236 222.433365,1002.07236 217.933365,999.572356 Z" id="Path" fill="#F0F7FA"></path>
                <path d="M236.833365,977.872356 C226.033365,968.472356 217.633365,956.772356 212.633365,943.372356 C210.833365,938.572356 203.133365,940.672356 204.933365,945.472356 C210.433365,960.172356 219.233365,973.272356 231.233365,983.572356 C235.033365,986.972356 240.733365,981.272356 236.833365,977.872356 Z" id="Path" fill="#F0F7FA"></path>
                <path d="M596.033365,1143.67236 C577.933365,1134.87236 563.233365,1119.67236 555.533365,1100.87236 C547.733365,1081.87236 550.133365,1059.77236 539.933365,1041.67236 C520.633365,1007.37236 472.233365,1014.97236 439.733365,1007.07236 C415.133365,1001.17236 391.933365,989.672356 372.233365,973.772356 C368.233365,970.572356 362.533365,976.172356 366.533365,979.472356 C383.333365,993.072356 402.333365,1003.67236 422.933365,1010.57236 C442.733365,1017.27236 462.833365,1018.67236 483.433365,1021.17236 C501.133365,1023.27236 521.433365,1027.47236 531.833365,1043.67236 C537.533365,1052.67236 539.333365,1063.47236 540.933365,1073.87236 C542.633365,1084.37236 544.333365,1094.67236 548.433365,1104.47236 C556.833365,1124.47236 572.433365,1141.07236 592.033365,1150.67236 C596.533365,1152.87236 600.633365,1145.97236 596.033365,1143.67236 Z" id="Path" fill="#F0F7FA"></path>
                <path d="M651.733365,1083.27236 C633.033365,1076.27236 616.333365,1063.97236 604.233365,1048.07236 C591.633365,1031.47236 586.933365,1010.27236 573.133365,994.372356 C547.733365,964.972356 506.233365,959.572356 470.833365,949.872356 C449.133365,943.972356 427.433365,935.772356 411.533365,919.172356 C407.933365,915.472356 402.333365,921.072356 405.833365,924.872356 C434.433365,954.772356 477.533365,957.972356 514.933365,969.672356 C533.233365,975.372356 551.633365,983.272356 565.033365,997.372356 C579.933365,1012.87236 584.433365,1035.07236 597.333365,1052.07236 C610.633365,1069.77236 628.833365,1083.17236 649.633365,1090.97236 C654.433365,1092.77236 656.533365,1085.07236 651.733365,1083.27236 Z" id="Path" fill="#F0F7FA"></path>
                <path d="M729.633365,999.872356 C707.933365,970.772356 683.633365,940.772356 645.233365,935.872356 C623.733365,933.072356 602.233365,936.972356 580.633365,935.872356 C560.433365,934.872356 540.733365,929.472356 522.033365,921.972356 C500.333365,913.172356 480.033365,901.272356 460.333365,888.772356 C455.933365,885.972356 451.933365,892.972356 456.333365,895.672356 C489.333365,916.572356 524.933365,936.272356 564.133365,942.172356 C584.533365,945.272356 604.733365,943.072356 625.133365,942.872356 C645.633365,942.672356 664.533365,946.572356 681.333365,958.772356 C697.933365,970.872356 710.633365,987.672356 722.733365,1003.97236 C725.733365,1007.97236 732.733365,1004.07236 729.633365,999.872356 Z" id="Path" fill="#F0F7FA"></path>
                <path d="M340.533365,959.172356 C339.633365,958.972356 338.733365,958.772356 337.833365,958.672356 C337.433365,955.072356 337.033365,951.472356 336.533365,947.872356 C336.233365,945.772356 334.833365,943.872356 332.533365,943.872356 C330.533365,943.872356 328.233365,945.672356 328.533365,947.872356 L329.633365,957.072356 C329.333365,956.972356 329.033365,956.972356 328.633365,956.872356 C323.633365,955.872356 321.433365,963.572356 326.533365,964.572356 C330.533365,965.372356 334.433365,966.172356 338.433365,966.972356 C343.433365,967.972356 345.633365,960.272356 340.533365,959.172356 Z" id="Path" fill="#F0F7FA"></path>
                <path d="M286.333365,1482.17236 C283.633365,1477.77236 276.733365,1481.77236 279.433365,1486.17236 C280.733365,1488.37236 280.233365,1491.67236 277.833365,1492.87236 C275.233365,1494.17236 272.133365,1492.07236 271.433365,1489.57236 C270.033365,1484.57236 262.333365,1486.67236 263.733365,1491.67236 C265.733365,1498.97236 274.233365,1503.47236 281.233365,1500.07236 C287.833365,1497.07236 290.033365,1488.27236 286.333365,1482.17236 Z" id="Path" fill="#F0F7FA"></path>
                <path d="M268.533365,1406.57236 C264.433365,1401.77236 261.533365,1396.17236 259.733365,1390.17236 C258.233365,1385.27236 250.533365,1387.37236 252.033365,1392.27236 C254.233365,1399.67236 257.933365,1406.27236 262.933365,1412.27236 C266.233365,1416.17236 271.833365,1410.47236 268.533365,1406.57236 Z" id="Path" fill="#F0F7FA"></path>
                <path d="M1141.73337,201.172356 C1135.73337,197.172356 1129.73337,193.172356 1123.73337,189.172356 C1119.43337,186.272356 1115.43337,193.272356 1119.73337,196.072356 C1125.73337,200.072356 1131.73337,204.072356 1137.73337,208.072356 C1142.03337,210.972356 1146.03337,204.072356 1141.73337,201.172356 Z" id="Path" fill="#F0F7FA"></path>
                <path d="M1191.93337,202.772356 C1187.73337,199.672356 1183.83337,196.172356 1180.33337,192.272356 C1176.93337,188.472356 1171.23337,194.072356 1174.63337,197.972356 C1178.63337,202.372356 1183.03337,206.272356 1187.83337,209.772356 C1189.63337,211.072356 1192.33337,210.072356 1193.33337,208.372356 C1194.63337,206.272356 1193.73337,204.072356 1191.93337,202.772356 Z" id="Path" fill="#F0F7FA"></path>
                <path d="M1210.33337,255.272356 C1206.53337,250.872356 1202.63337,246.372356 1198.83337,241.972356 C1195.43337,238.072356 1189.83337,243.772356 1193.13337,247.672356 C1196.93337,252.072356 1200.83337,256.572356 1204.63337,260.972356 C1208.03337,264.872356 1213.73337,259.172356 1210.33337,255.272356 Z" id="Path" fill="#F0F7FA"></path>
                <path d="M1255.73337,273.372356 C1253.73337,267.172356 1251.73337,260.972356 1249.73337,254.672356 C1248.13337,249.772356 1240.43337,251.872356 1242.03337,256.772356 C1244.03337,262.972356 1246.03337,269.172356 1248.03337,275.472356 C1249.63337,280.372356 1257.33337,278.272356 1255.73337,273.372356 Z" id="Path" fill="#F0F7FA"></path>
                <path d="M1261.03337,317.372356 C1258.93337,315.472356 1258.13337,313.172356 1258.33337,310.372356 C1258.53337,308.172356 1256.33337,306.372356 1254.33337,306.372356 C1252.03337,306.372356 1250.53337,308.172356 1250.33337,310.372356 C1249.93337,315.072356 1251.83337,319.772356 1255.33337,322.972356 C1259.13337,326.472356 1264.83337,320.872356 1261.03337,317.372356 Z" id="Path" fill="#F0F7FA"></path>
                <path d="M1354.33337,443.272356 L1345.03337,416.372356 C1343.33337,411.572356 1335.63337,413.572356 1337.33337,418.472356 C1340.43337,427.472356 1343.53337,436.372356 1346.63337,445.372356 C1348.23337,450.172356 1356.03337,448.072356 1354.33337,443.272356 Z" id="Path" fill="#F0F7FA"></path>
                <path d="M1377.43337,422.472356 C1376.23337,417.472356 1368.53337,419.572356 1369.73337,424.572356 C1371.13337,430.672356 1370.73337,436.972356 1368.13337,442.772356 C1366.03337,447.472356 1372.93337,451.472356 1375.03337,446.772356 C1378.53337,438.972356 1379.43337,430.872356 1377.43337,422.472356 Z" id="Path" fill="#F0F7FA"></path>
                <path d="M1367.23337,485.472356 C1365.23337,490.472356 1363.33337,495.472356 1361.33337,500.572356 C1359.43337,505.372356 1367.23337,507.472356 1369.03337,502.672356 C1371.03337,497.672356 1372.93337,492.672356 1374.93337,487.572356 C1376.83337,482.772356 1369.13337,480.672356 1367.23337,485.472356 Z" id="Path" fill="#F0F7FA"></path>
                <path d="M1323.53337,653.472356 C1322.43337,647.472356 1321.43337,641.472356 1320.33337,635.472356 C1319.43337,630.372356 1311.73337,632.572356 1312.63337,637.572356 C1313.73337,643.572356 1314.73337,649.572356 1315.83337,655.572356 C1316.73337,660.672356 1324.43337,658.472356 1323.53337,653.472356 Z" id="Path" fill="#F0F7FA"></path>
                <path d="M1347.53337,644.472356 C1346.63337,639.372356 1338.83337,641.572356 1339.83337,646.572356 C1341.23337,654.072356 1340.33337,661.472356 1337.53337,668.572356 C1335.63337,673.372356 1343.33337,675.472356 1345.23337,670.672356 C1348.53337,662.272356 1349.23337,653.372356 1347.53337,644.472356 Z" id="Path" fill="#F0F7FA"></path>
                <path d="M1316.13337,709.272356 C1313.13337,714.272356 1310.23337,719.272356 1307.23337,724.372356 C1304.63337,728.772356 1311.53337,732.872356 1314.13337,728.372356 C1317.13337,723.372356 1320.03337,718.372356 1323.03337,713.272356 C1325.73337,708.872356 1318.83337,704.872356 1316.13337,709.272356 Z" id="Path" fill="#F0F7FA"></path>
            </g>
            <path d="M95.9333654,974.472356 C93.7333654,971.272356 91.5333654,967.972356 89.3333654,964.772356 C87.5333654,962.172356 85.6333654,957.972356 83.2333654,955.872356 C79.9333654,953.072356 75.4333654,954.672356 72.4333654,956.972356 C70.8333654,958.172356 69.4333654,959.672356 67.8333654,960.872356 C65.5333654,962.572356 65.7333654,961.872356 64.3333654,959.272356 C60.6333654,952.372356 57.1333654,945.372356 53.5333654,938.472356 C52.0333654,935.572356 48.2333654,936.172356 46.6333654,938.472356 C43.6333654,942.572356 40.7333654,946.672356 37.7333654,950.872356 C31.8333654,943.072356 27.4333654,934.272356 24.5333654,924.872356 C23.0333654,919.972356 15.3333654,922.072356 16.8333654,926.972356 C20.5333654,939.372356 26.6333654,950.472356 35.0333654,960.272356 C36.8333654,962.372356 39.9333654,961.372356 41.3333654,959.472356 C44.0333654,955.672356 46.7333654,951.872356 49.4333654,948.172356 C51.3333654,951.872356 53.2333654,955.572356 55.1333654,959.172356 C57.1333654,963.072356 59.0333654,968.372356 63.6333654,969.772356 C66.5333654,970.572356 69.4333654,969.372356 71.7333654,967.772356 C73.1333654,966.772356 75.9333654,963.272356 78.0333654,962.672356 C81.6333654,967.972356 85.2333654,973.272356 88.9333654,978.572356 C91.9333654,982.772356 98.8333654,978.772356 95.9333654,974.472356 Z" id="Path" fill="#E8C221"></path>
            <path d="M101.533365,1008.07236 C99.4333654,1014.47236 97.4333654,1020.87236 95.3333654,1027.27236 C91.5333654,1024.27236 87.6333654,1021.27236 83.8333654,1018.27236 C80.1333654,1015.37236 75.3333654,1010.07236 70.1333654,1010.67236 C65.6333654,1011.27236 63.6333654,1015.07236 61.9333654,1018.87236 C59.5333654,1023.97236 57.2333654,1029.07236 54.9333654,1034.17236 L38.0333654,1018.77236 C35.9333654,1016.87236 32.1333654,1017.47236 31.3333654,1020.57236 L23.9333654,1050.77236 C22.7333654,1055.77236 30.4333654,1057.87236 31.6333654,1052.87236 C33.5333654,1044.97236 35.5333654,1037.07236 37.4333654,1029.07236 C42.7333654,1033.87236 48.1333654,1038.77236 53.4333654,1043.57236 C55.1333654,1045.17236 58.6333654,1045.27236 59.7333654,1042.77236 C61.6333654,1038.57236 63.6333654,1034.37236 65.5333654,1030.07236 C66.6333654,1027.57236 69.2333654,1019.07236 71.6333654,1018.97236 C73.1333654,1018.87236 76.2333654,1022.27236 77.4333654,1023.27236 C79.2333654,1024.67236 81.0333654,1026.17236 82.9333654,1027.57236 C86.8333654,1030.67236 90.7333654,1033.67236 94.6333654,1036.77236 C97.0333654,1038.67236 100.333365,1038.07236 101.333365,1034.97236 C104.033365,1026.67236 106.633365,1018.47236 109.333365,1010.17236 C110.833365,1005.27236 103.133365,1003.17236 101.533365,1008.07236 Z" id="Path" fill="#E8C221"></path>
            <path d="M135.633365,1053.17236 C135.133365,1058.27236 134.633365,1063.47236 134.133365,1068.57236 C129.133365,1066.47236 124.033365,1064.27236 119.033365,1062.17236 C116.633365,1061.17236 113.933365,1061.87236 113.133365,1064.57236 C110.933365,1072.27236 109.433365,1080.07236 108.833365,1088.07236 C102.133365,1084.47236 95.5333654,1080.87236 88.8333654,1077.27236 C86.6333654,1076.07236 83.6333654,1077.07236 82.9333654,1079.67236 C80.9333654,1088.07236 79.3333654,1096.57236 78.2333654,1105.27236 C77.5333654,1110.37236 85.5333654,1110.27236 86.2333654,1105.27236 C87.0333654,1099.07236 88.1333654,1092.87236 89.5333654,1086.77236 C96.5333654,1090.57236 103.533365,1094.27236 110.433365,1098.07236 C113.133365,1099.57236 116.333365,1097.67236 116.433365,1094.57236 C116.633365,1086.57236 117.733365,1078.77236 119.633365,1071.07236 C124.933365,1073.27236 130.233365,1075.57236 135.533365,1077.77236 C138.433365,1078.97236 141.233365,1077.57236 141.533365,1074.27236 C142.233365,1067.17236 142.933365,1060.17236 143.533365,1053.07236 C144.033365,1048.07236 136.033365,1048.07236 135.633365,1053.17236 Z" id="Path" fill="#E8C221"></path>
        </g>
    </g>
</svg>