<?xml version="1.0" encoding="UTF-8"?>
<svg width="801px" height="801px" viewBox="0 0 801 801" version="1.1" xmlns="http://www.w3.org/2000/svg" xmlns:xlink="http://www.w3.org/1999/xlink">
    <title>Group 2</title>
    <g id="Page-1" stroke="none" stroke-width="1" fill="none" fill-rule="evenodd">
        <g id="Group-2" transform="translate(0.662781, 0.838292)">
            <rect id="Rectangle" stroke="#979797" fill="#D8D8D8" opacity="0" x="0.5" y="0.5" width="799" height="799"></rect>
            <g id="9" transform="translate(7.337219, 126.161708)" fill-rule="nonzero">
                <g id="Path" transform="translate(139.000000, 0.000000)">
                    <path d="M156.533044,21.52687 C158.717226,17.0395788 161.022752,12.6129267 163.388949,8.18627451 C159.141928,7.39796659 154.834236,6.79157589 150.526544,6.48838054 C140.758397,10.4299201 131.172264,14.9172113 121.889491,19.828976 C133.417118,18.4342774 145.187432,18.980029 156.533044,21.52687 Z" fill="#FF6319"></path>
                    <path d="M9.58613218,118.610022 C6.24918743,123.339869 3.03358613,128.190995 0,133.10276 C10.9815818,132.860203 22.5698808,132.193174 34.1581798,132.193174 C62.6738895,125.947349 92.524377,125.765432 121.040087,131.829339 C122.496208,123.521786 124.195016,115.274873 126.136511,107.027959 C87.0032503,103.510893 47.2026002,107.452433 9.58613218,118.610022 Z" fill="#FF2300"></path>
                    <path d="M168,0 C162.114843,2.00108932 156.290358,4.12345679 150.587216,6.48838054 C154.894908,6.85221496 159.2026,7.39796659 163.449621,8.18627451 C164.905742,5.45751634 166.422535,2.72875817 168,0 Z" fill="#FF2300"></path>
                    <path d="M34.0975081,132.193174 C44.1690141,132.193174 54.1798483,132.738925 63.5839653,134.558097 C83.7269772,138.438998 102.47454,151.840232 116.307692,167 C117.399783,155.296659 118.916576,143.593319 120.979415,131.829339 C92.4637053,125.826071 62.6132178,126.007988 34.0975081,132.193174 Z" fill="#FF6319"></path>
                    <path d="M30.2751896,92.2320261 C22.8732394,100.660857 15.9566631,109.453522 9.52546046,118.670661 C47.2026002,107.513072 86.9425785,103.510893 126.07584,107.149237 C128.078007,98.5384895 130.383532,89.9883805 132.992416,81.5595497 C98.5308776,78.345679 63.4019502,82.0446623 30.2751896,92.2320261 Z" fill="#FF6319"></path>
                    <path d="M121.889491,19.828976 C107.206934,27.5907771 93.1310943,36.5047204 79.843987,46.3888889 C101.685807,39.1728395 125.226436,36.9291939 148.039003,39.9611474 C150.708559,33.7153232 153.56013,27.530138 156.533044,21.4662309 C145.187432,18.980029 133.417118,18.4342774 121.889491,19.828976 Z" fill="#FF2300"></path>
                    <path d="M79.843987,46.3888889 C70.9859155,52.9985476 62.4312026,60.0933188 54.3011918,67.6125635 C82.3921993,60.275236 111.63597,57.3039216 140.637053,58.8198983 C142.942579,52.4527959 145.430119,46.2069717 148.099675,39.9611474 C125.226436,36.989833 101.685807,39.1728395 79.843987,46.3888889 Z" fill="#FF6319"></path>
                    <path d="M54.3011918,67.6125635 C45.8678223,75.3743646 37.8591549,83.5606391 30.3358613,92.1713871 C63.4626219,81.9840232 98.5308776,78.2850399 133.053088,81.4382716 C135.358613,73.7977487 137.906826,66.278504 140.637053,58.8198983 C111.575298,57.3039216 82.3921993,60.275236 54.3011918,67.6125635 Z" fill="#FF2300"></path>
                </g>
                <g id="Path" transform="translate(484.000000, 223.000000)">
                    <g id="Group" transform="translate(23.100889, 171.688085)">
                        <path d="M13.2575032,0.312444792 C11.62526,-0.171065866 9.87211,-0.110627034 8.30032031,0.614638953 C5.4590082,1.94429326 3.8872185,4.96623487 2.79905641,7.86729879 C-0.525883325,16.812246 -0.888604024,26.8450921 1.71089431,35.9713558 C2.01316156,37.0592548 2.67814951,38.3889091 3.70585816,38.5702256 C-0.223616076,25.454999 1.34817362,8.29037062 13.2575032,0.312444792 Z" id="Path" fill="#FF2300"></path>
                        <path d="M14.9501998,1.09814961 C14.4061187,0.735516618 13.8620377,0.493761288 13.2575032,0.312444792 C1.34817362,8.29037062 -0.223616076,25.454999 3.70585816,38.6306644 C3.8872185,38.6911032 4.0081254,38.6911032 4.18948575,38.6306644 C5.5799151,38.4493479 5.88218235,36.6361829 6.00308925,35.2460898 C6.36580992,28.5373794 8.78394791,21.9495467 12.8947825,16.5704906 C15.1920136,13.6089879 18.0937792,10.6474851 18.0937792,6.90027748 C18.1542326,4.66404071 16.8847102,2.36736509 14.9501998,1.09814961 Z" id="Path" fill="#FF6319"></path>
                        <path d="M18.2751395,5.75193969 C17.0056171,5.57062319 15.6756412,5.75193969 14.4665722,6.29588916 C11.62526,7.62554347 10.0534704,10.6474851 8.96530826,13.548549 C5.64036855,22.4934962 5.27764785,32.5263423 7.87714616,41.652606 C8.23986686,42.8613826 8.96530826,44.3119146 10.1743773,44.2514758 C4.91492715,31.3780045 9.44893586,16.2078576 18.2751395,5.75193969 Z" id="Path" fill="#FF2300"></path>
                        <path d="M21.1164517,6.77939981 C20.2701034,6.23545032 19.3028482,5.87281736 18.2751395,5.75193969 C9.38848241,16.2078576 4.8544737,31.3175657 10.1743773,44.3119146 C10.2348307,44.3119146 10.2952842,44.3119146 10.3557376,44.3119146 C11.7461669,44.1305981 12.0484342,42.3174332 12.1693411,40.92734 C12.5320618,34.2186296 14.9501998,27.6307969 19.0610344,22.2517409 C21.3582655,19.2902381 24.260031,16.3287353 24.260031,12.5815277 C24.3204845,10.3452909 23.050962,8.04861529 21.1164517,6.77939981 Z" id="Path" fill="#FF6319"></path>
                        <path d="M29.5194812,4.54316305 C27.6454242,3.63658056 25.4086466,3.57614173 23.5345896,4.42228538 C20.6932775,5.75193969 19.1214878,8.77388128 18.0333257,11.6749452 C14.708386,20.6198924 14.3456653,30.6527385 16.9451636,39.7790022 C17.0660705,40.202074 17.2474309,40.6855847 17.4892447,41.1086565 C14.5874791,27.6307969 19.0005809,13.185916 29.5194812,4.54316305 Z" id="Path" fill="#FF2300"></path>
                        <path d="M30.1844691,4.90579604 C30.0031088,4.78491838 29.761295,4.66404071 29.5194812,4.54316305 C18.9401275,13.185916 14.5270256,27.6307969 17.4287912,41.1086565 C17.8519654,41.8943613 18.5169533,42.5591885 19.3633016,42.4383108 C20.753731,42.2569943 21.0559982,40.4438294 21.1769051,39.0537362 C21.5396258,32.3450258 23.9577638,25.7571931 28.0685984,20.3781371 C30.3658295,17.4166343 33.2675951,14.4551315 33.2675951,10.7079239 C33.388502,8.47168712 32.1189795,6.17501149 30.1844691,4.90579604 Z" id="Path" fill="#FF6319"></path>
                    </g>
                    <g id="Group">
                        <path d="M99.3508866,116.63856 C102.494466,106.484836 104.48943,96.0289185 104.912604,85.3312452 C106.182126,55.4744619 93.6078088,23.8045138 68.0359996,8.27173395 C57.3357389,1.74434009 44.3382472,-1.70067334 32.0661969,0.837757608 C15.4414983,4.22233221 1.89992552,19.2716014 0.207228929,36.1340356 C-1.66682801,54.8700736 9.51706018,72.0951409 19.7336932,87.930115 C21.8495639,91.1938119 23.9654347,94.5783865 25.9603985,98.0234 C51.4113009,98.1442776 76.8622032,104.611233 99.3508866,116.63856 Z" id="Path" fill="#00061D"></path>
                        <path d="M25.9603985,97.9629611 C33.5775332,111.199065 39.3206109,125.764824 36.0561246,140.330582 C34.363428,147.824998 30.4339538,154.654586 28.0762693,162.028123 C25.7185847,169.401661 25.355864,178.104853 30.19214,184.088297 C35.8747643,191.15964 46.998199,191.643151 55.0385078,187.472872 C63.0788167,183.302592 68.761441,175.747738 73.7790773,168.192884 C84.4188845,152.237032 93.6682623,134.891088 99.2904331,116.63856 C76.8622032,104.611233 51.4113009,98.1442776 25.9603985,97.9629611 Z" id="Path" fill="#002856"></path>
                    </g>
                </g>
                <g id="Path" transform="translate(139.000000, 261.000000)">
                    <g id="Group" transform="translate(13.359148, 245.583463)">
                        <path d="M5.70895205,0.250394783 C3.82621255,0.432121983 1.88273951,0.67442492 0,0.977303587 C0.911002987,12.4866929 3.27961075,24.056658 8.50269455,34.4151084 C13.6650448,44.6524074 21.8033382,53.6781917 32.1887722,58.5848261 C15.7299849,44.3495287 6.01261971,21.9970831 5.70895205,0.250394783 Z" id="Path" fill="#FF2300"></path>
                        <path d="M32.1887722,58.5848261 C32.2495057,58.6454018 32.3709728,58.6454018 32.4317063,58.7059775 C34.7395806,59.7963407 38.0191913,60.4020981 39.4160626,58.3425231 C40.9344009,56.1617967 38.9909278,53.2541615 37.2903889,51.1945866 C30.791901,43.2591655 27.0871555,33.143018 26.9656884,22.9057191 C26.9049549,17.5750545 27.6944908,11.8203598 25.0222154,7.21660411 C22.7143411,3.27918146 18.2200597,0.977303587 13.6650448,0.310970516 C10.9927694,-0.113059618 8.32049395,-0.0524838843 5.64821852,0.189819049 C6.01261971,21.9970831 15.7299849,44.3495287 32.1887722,58.5848261 Z" id="Path" fill="#FF6319"></path>
                        <path d="M51.0769008,66.0962169 C53.2025744,66.6413985 55.5711822,66.6413985 56.6643858,64.8847022 C58.061257,62.5828243 55.9355834,59.8569165 54.1135774,57.8579173 C47.1899547,50.2859506 42.999341,40.3515303 42.3312721,30.1748071 C41.9668709,24.8441425 42.5134727,19.0894479 39.5375296,14.6068436 C37.0474548,10.7905724 32.3709728,8.73099744 27.8159579,8.30696731 C25.4473501,8.06466437 23.0180088,8.18581584 20.649401,8.48869451 C24.2326795,29.8719284 32.2495057,55.2531607 51.0769008,66.0962169 Z" id="Path" fill="#FF6319"></path>
                        <path d="M20.7101346,8.48869451 C18.5237274,8.79157318 16.3980538,9.21560331 14.2723801,9.63963344 C15.7907184,21.0884471 18.7666615,32.5372607 24.4756136,42.5928324 C30.1845656,52.6484042 38.8694608,61.3107339 49.619296,65.611611 C50.0444308,65.7933382 50.530299,65.9750654 51.0161673,66.0962169 C32.2495057,55.2531607 24.2326795,29.8719284 20.7101346,8.48869451 Z" id="Path" fill="#FF2300"></path>
                        <path d="M64.0738768,58.827129 C65.5314815,58.8877047 66.8068857,58.4636746 67.5356881,57.3127357 C68.9325593,55.0108578 66.8068857,52.2849498 64.9848797,50.2859506 C58.061257,42.7139839 53.8706433,32.7795636 53.2025744,22.6028404 C52.8381732,17.2721759 53.384775,11.5174812 50.4088319,7.03487691 C47.9187571,3.21860572 43.2422751,1.15903079 38.6872602,0.735000653 C36.6830536,0.55327345 34.678847,0.613849186 32.6139069,0.795576387 C38.5050596,22.1788103 46.0360176,46.4091036 64.0738768,58.827129 Z" id="Path" fill="#FF6319"></path>
                        <path d="M32.7961075,0.795576387 C30.2452992,1.03787932 27.6944908,1.58306092 25.204416,2.06766679 C26.7227543,13.5164804 29.6986974,24.965294 35.4076494,35.0208658 C41.1166015,45.0764375 49.8014966,53.7387674 60.5513319,58.0396445 C61.6445355,58.4636746 62.8592061,58.827129 64.0738768,58.827129 C46.0360176,46.4091036 38.5050596,22.1788103 32.7961075,0.795576387 Z" id="Path" fill="#FF2300"></path>
                    </g>
                    <g id="Group">
                        <path d="M85.3891171,0.865592046 C67.351258,25.8227942 50.1029349,51.5674809 35.7698212,78.826561 C55.1438181,83.3091653 74.9429495,85.8533461 94.8028147,86.3985277 C102.394506,56.5346911 114.905614,27.8823691 131,1.53192511 C118.671093,0.865592046 97.4750901,-1.13340716 85.3891171,0.865592046 Z" id="Path" fill="#00061D"></path>
                        <path d="M23.2587135,104.995278 C7.22506096,142.188778 -2.31010365,182.713944 0.483638843,223.117958 C1.3339083,235.172529 3.33811487,247.408827 9.22926753,258.009581 C15.1204202,268.610334 25.4451207,277.272664 37.4703601,278.60533 C54.0506145,280.483178 69.3554645,268.186304 77.3722908,253.587552 C93.7703446,223.66314 86.8467219,187.196548 86.5430542,153.09241 C86.3608536,130.558237 89.2760632,108.145216 94.8635482,86.3985277 C75.0036831,85.8533461 55.2045516,83.3091653 35.8305547,78.826561 C31.2755398,87.4283152 27.0849261,96.1512208 23.2587135,104.995278 Z" id="Path" fill="#002856"></path>
                    </g>
                </g>
                <g id="Path" transform="translate(0.000000, 149.000000)">
                    <path d="M710.344071,69.1273446 C720.624889,66.1586856 725.523397,55.7986717 724.797692,45.6204123 C724.253413,38.1684725 721.411069,31.4435511 717.963972,25.0215542 C706.231744,32.2311545 694.136663,38.895491 681.799681,45.0751485 C683.734894,48.5890713 685.851533,52.0424093 688.028648,55.4351624 C692.806204,62.8265174 700.305154,72.0354187 710.344071,69.1273446 Z" fill="#1D5FF4"></path>
                    <path d="M291.007634,168.425958 C321.30581,169.455901 351.664462,169.092392 381.962639,167.396015 C370.593263,161.579867 358.13533,157.944774 345.314545,157.036001 C326.506695,155.581964 307.63837,159.701736 291.007634,168.425958 Z" fill="#1D5FF4"></path>
                    <path d="M348.39879,114.444833 C324.934335,115.232436 301.348928,115.595945 277.823996,114.747757 C239.180215,131.105674 196.121728,136.921822 154.575127,130.56041 C96.9420693,121.775603 43.8446664,89.8473725 8.46655627,43.6211114 C3.44709791,54.2234649 0.483803215,65.8557612 2.48689958e-14,77.9121518 C58.6006645,131.590353 138.911998,154.067342 218.497627,163.215659 C241.659706,151.643947 266.575572,143.646743 292.156667,139.769311 C342.532676,132.075032 394.17867,140.37516 439.535221,162.48864 C474.550479,158.550623 509.323835,152.79506 543.734339,145.282535 C515.068998,137.89118 487.915543,124.562507 464.753464,106.023535 C426.170157,110.749155 387.223998,113.17255 348.39879,114.444833 Z" fill="#1D5FF4"></path>
                    <path d="M468.986742,105.478271 C492.935001,124.017243 520.935112,137.103577 550.386633,143.767913 C560.969828,141.405103 571.553024,138.799953 582.075743,136.073634 C552.684698,132.438541 524.442685,120.018641 501.945836,100.692065 C490.999788,102.509612 479.993265,104.084819 468.986742,105.478271 Z" fill="#1D5FF4"></path>
                    <path d="M117.080378,97.1781426 C137.218687,102.267272 158.082701,103.842479 178.583862,101.843178 C178.039583,101.722008 177.55578,101.600839 177.011501,101.479669 C121.313656,87.1816379 67.853401,57.9797272 33.6243235,11.6928813 C27.2744063,16.7820109 21.7711447,22.5981591 17.0540633,29.0201561 C22.1339971,35.9874169 27.6372587,42.5911685 33.6847989,48.7102411 C56.6049762,71.9748338 85.5122183,89.1809389 117.080378,97.1781426 Z" fill="#1D5FF4"></path>
                    <path d="M118.229411,118.685774 C167.758765,135.225445 222.186627,133.226144 270.445997,114.505417 C242.445886,113.233135 214.566726,110.143306 187.29232,103.963649 C182.333337,104.690667 177.313878,105.175346 172.29442,105.478271 C138.186293,107.416987 103.836265,99.965047 73.9614165,83.2436209 C50.9807638,70.399627 30.9029304,52.7694278 15.3002767,31.6253058 C13.3650638,34.5333799 11.5508018,37.5020388 9.91796591,40.6524524 C37.1318968,76.7004542 75.4128262,104.387743 118.229411,118.685774 Z" fill="#1D5FF4"></path>
                    <path d="M224.24279,163.882092 C231.136986,164.609111 238.031182,165.275544 244.864902,165.820808 C258.290442,166.911336 271.776456,167.698939 285.262471,168.244203 C303.284141,157.581265 324.511007,152.249796 345.435496,154.006757 C360.37292,155.27904 374.826541,159.822905 387.707802,167.093091 C403.189505,166.123733 418.671207,164.85145 434.092435,163.155074 C421.453076,157.217756 408.329914,152.370966 394.843899,148.735873 C337.997021,133.16556 277.037816,138.921123 224.24279,163.882092 Z" fill="#1D5FF4"></path>
                    <path d="M754.612065,0 C753.160655,1.09052779 751.709246,2.18105557 750.257836,3.27158336 C759.752474,24.9609693 762.655294,49.3160898 758.724392,72.5806826 C766.828096,68.7638353 774.871325,64.8864032 782.854078,60.8878013 C784.426438,39.0772456 773.178014,11.4505417 754.612065,0 Z" fill="#1D5FF4"></path>
                    <path d="M747.778345,5.08912966 C744.452198,7.51252474 741.065575,9.93591982 737.678953,12.29873 C741.670329,25.8697425 743.24269,40.1677734 741.912231,54.2234649 C740.944624,64.2199696 738.707034,73.9741348 735.259937,83.2436209 C742.033182,80.274962 748.745951,77.2457181 755.458721,74.1558894 C759.691999,51.0124664 757.091557,26.7179307 747.778345,5.08912966 Z" fill="#1D5FF4"></path>
                    <path d="M734.95756,14.1162763 C730.180003,17.3272748 725.402446,20.4776884 720.503938,23.5069323 C724.797692,31.3223814 728.24479,39.7436793 727.821462,48.7102411 C727.337659,58.8885004 721.773922,69.6120236 711.130251,72.0960036 C700.547056,74.5799835 692.503827,67.4915529 686.879615,59.2520097 C684.037271,55.132238 681.436829,50.8307118 679.017813,46.4686006 C641.462588,64.9469881 601.548823,78.76034 560.909353,88.7568447 C542.706257,93.2401256 524.38221,96.9358031 505.937212,100.086217 C529.764521,119.836887 559.76032,131.832692 590.663251,133.892578 C638.68072,120.987999 685.791058,104.630082 731.449986,84.8794126 C735.622789,74.4588138 738.283707,63.4323662 739.009411,52.2241639 C739.856067,39.2590003 738.465133,26.4150064 734.95756,14.1162763 Z" fill="#1D5FF4"></path>
                    <path d="M73.9614165,83.2436209 C103.836265,99.9044621 138.246769,107.356402 172.29442,105.478271 C177.313878,105.175346 182.333337,104.690667 187.29232,103.963649 C184.3895,103.297215 181.486681,102.630782 178.583862,101.903763 C158.022225,103.842479 137.158212,102.267272 117.080378,97.2387275 C85.4517429,89.2415238 56.5445008,72.0354187 33.7452743,48.7708259 C27.6977341,42.6517534 22.1944725,36.0480018 17.1145387,29.0807409 C16.5097847,29.9289292 15.9050307,30.8377024 15.3002767,31.6858906 C30.9029304,52.7694278 51.0412392,70.399627 73.9614165,83.2436209 Z" fill="#231F20"></path>
                    <path d="M154.575127,130.620995 C196.121728,136.921822 239.24069,131.166259 277.823996,114.808342 C275.344505,114.747757 272.925489,114.626587 270.445997,114.505417 C222.186627,133.286729 167.758765,135.28603 118.229411,118.685774 C75.4128262,104.387743 37.1318968,76.7004542 9.97844132,40.6524524 C9.4341627,41.6218105 8.95035948,42.6517534 8.46655627,43.6816963 C43.8446664,89.9079574 96.9420693,121.836188 154.575127,130.620995 Z" fill="#231F20"></path>
                    <path d="M292.156667,139.769311 C266.575572,143.646743 241.659706,151.643947 218.497627,163.215659 C220.43284,163.457998 222.307577,163.639753 224.24279,163.821507 C277.098292,138.860538 337.997021,133.104975 394.843899,148.614703 C408.329914,152.310381 421.453076,157.157171 434.092435,163.033904 C435.906697,162.852149 437.720959,162.60981 439.595697,162.428055 C394.17867,140.37516 342.532676,132.075032 292.156667,139.769311 Z" fill="#231F20"></path>
                    <path d="M285.201995,168.183618 C287.137208,168.244203 289.072421,168.304788 291.007634,168.425958 C307.577894,159.701736 326.506695,155.642549 345.314545,157.036001 C358.074855,158.005359 370.532788,161.640452 381.962639,167.396015 C383.837376,167.274845 385.712113,167.153676 387.647326,167.032506 C374.70559,159.762321 360.251969,155.218455 345.37502,153.946172 C324.450531,152.189211 303.223665,157.52068 285.201995,168.183618 Z" fill="#231F20"></path>
                    <path d="M464.753464,106.023535 C487.855067,124.562507 515.008523,137.89118 543.734339,145.282535 C545.971929,144.797856 548.209518,144.313177 550.386633,143.828498 C520.935112,137.164161 492.874526,124.077828 468.986742,105.538856 C467.595808,105.660025 466.144398,105.84178 464.753464,106.023535 Z" fill="#231F20"></path>
                    <path d="M502.006311,100.75265 C524.503161,120.079226 552.745174,132.499126 582.136219,136.134219 C584.978563,135.4072 587.820907,134.619597 590.663251,133.892578 C559.76032,131.832692 529.764521,119.836887 505.937212,100.086217 C504.606754,100.267971 503.33677,100.510311 502.006311,100.75265 Z" fill="#231F20"></path>
                    <path d="M737.678953,12.29873 C736.771822,12.9045788 735.925166,13.5104276 735.018035,14.1162763 C738.525608,26.4150064 739.916542,39.3195851 739.009411,52.2241639 C738.283707,63.4323662 735.622789,74.4588138 731.449986,84.8794126 C732.71997,84.3341487 733.989953,83.7888848 735.199461,83.2436209 C738.646559,73.9741348 740.884149,64.2199696 741.851755,54.2234649 C743.182214,40.1071885 741.670329,25.8091576 737.678953,12.29873 Z" fill="#231F20"></path>
                    <path d="M750.257836,3.27158336 C749.411181,3.87743213 748.564525,4.48328089 747.778345,5.08912966 C757.091557,26.7179307 759.691999,51.0124664 755.398245,74.0953045 C756.486803,73.5500406 757.635835,73.0653616 758.724392,72.5200977 C762.655294,49.255505 759.752474,24.9003844 750.257836,3.27158336 Z" fill="#231F20"></path>
                    <path d="M711.130251,72.0960036 C721.773922,69.6120236 727.398134,58.8885004 727.821462,48.7102411 C728.24479,39.7436793 724.797692,31.3223814 720.503938,23.5069323 C719.657283,24.0521962 718.750152,24.59746 717.903496,25.0821391 C721.411069,31.504136 724.192938,38.2290574 724.737217,45.6809972 C725.523397,55.8592566 720.564414,66.2192705 710.283596,69.1879295 C700.244679,72.0960036 692.745729,62.8871023 687.968172,55.4957473 C685.791058,52.1029942 683.674419,48.6496562 681.739206,45.1357333 C680.832075,45.5598275 679.924944,46.0445065 679.017813,46.4686006 C681.436829,50.8307118 684.037271,55.132238 686.879615,59.2520097 C692.503827,67.430968 700.547056,74.5193987 711.130251,72.0960036 Z" fill="#231F20"></path>
                </g>
                <g id="Path" transform="translate(639.000000, 387.000000)">
                    <path d="M17.1169691,0.370830105 C15.0317441,-0.229268815 12.7011985,-0.109249031 10.7386337,0.790899351 C7.05882482,2.47117633 5.03492991,6.25179952 3.6243365,9.97241283 C-0.668773875,21.2542725 -1.15941506,33.9163597 2.21374309,45.4982689 C2.64305413,46.8784964 3.44034606,48.4987635 4.78960932,48.798813 C-0.300792982,32.116063 1.72310191,10.452492 17.1169691,0.370830105 Z" fill="#FF2300"></path>
                    <path d="M19.3248545,1.33098838 C18.6502228,0.910919135 17.9142611,0.550859781 17.1169691,0.370830105 C1.78443205,10.452492 -0.239462834,32.116063 4.78960932,48.798813 C4.97359976,48.8588229 5.21892036,48.8588229 5.4029108,48.798813 C7.18148511,48.5587734 7.61079615,46.2783975 7.73345645,44.5381106 C8.22409763,36.016706 11.3519352,27.7353409 16.6263279,20.9542231 C19.5701751,17.2336098 23.3113141,13.4529866 23.3726442,8.77221499 C23.3726442,5.83173028 21.7780604,2.95125546 19.3248545,1.33098838 Z" fill="#FF6319"></path>
                    <path d="M23.6179648,7.27196769 C21.9620508,7.09193801 20.2448067,7.27196769 18.711553,7.99208639 C15.0317441,9.67236337 13.0078492,13.4529866 11.5972558,17.1735999 C7.30414541,28.4554596 6.81350422,41.1175468 10.1866624,52.6994559 C10.6159734,54.1997032 11.5972558,56 13.1305095,56 C6.32286304,39.5572896 12.1492271,20.414134 23.6179648,7.27196769 Z" fill="#FF2300"></path>
                    <path d="M27.2977737,8.53217542 C26.1938311,7.81205672 24.905898,7.39198747 23.6179648,7.2119578 C12.1492271,20.414134 6.32286304,39.4972797 13.1305095,55.9399901 C13.1918396,55.9399901 13.3144999,55.9399901 13.3758301,55.9399901 C15.1544044,55.6999505 15.5837154,53.4195746 15.7063757,51.6792878 C16.1970169,43.1578831 19.3248545,34.876518 24.5992472,28.0954002 C27.5430943,24.3747869 31.2842334,20.5941637 31.3455635,15.9133921 C31.3455635,13.0329173 29.7509797,10.1524425 27.2977737,8.53217542 Z" fill="#FF6319"></path>
                    <path d="M38.15321,5.7117105 C35.7613342,4.57152255 32.8174871,4.51151266 30.4256113,5.59169071 C26.7458024,7.27196769 24.7219075,11.0525909 23.3113141,14.7732042 C19.0182037,26.0550639 18.5275625,38.7171511 21.9007207,50.2990603 C22.0847111,50.8391493 22.2687016,51.4392482 22.5753523,51.9193273 C18.7728831,34.876518 24.4765869,16.6335108 38.15321,5.7117105 Z" fill="#FF2300"></path>
                    <path d="M38.9505019,6.13177974 C38.7051813,5.95175006 38.3985306,5.83173028 38.0918798,5.6517006 C24.4152568,16.5735009 18.7728831,34.876518 22.5140222,51.8593175 C23.0659935,52.8794856 23.9246156,53.6596142 25.0285582,53.5395944 C26.8071325,53.2995549 27.2364436,51.019179 27.3591039,49.2788921 C27.8497451,40.7574874 30.9775826,32.4761223 36.2519754,25.6950045 C39.1958225,21.9743912 42.9369615,18.193768 42.9982917,13.5129965 C43.0596218,10.6325216 41.465038,7.75204682 38.9505019,6.13177974 Z" fill="#FF6319"></path>
                </g>
                <g id="Path" transform="translate(266.000000, 516.000000)">
                    <path d="M7.29154385,0.314700731 C4.86102923,0.554472717 2.43051462,0.8541877 0,1.21384568 C1.15449444,15.7799938 4.19263771,30.406085 10.8765529,43.5336012 C17.4997052,56.4812884 27.8901552,67.9304007 41.1364599,74.1045294 C20.1125084,56.1216304 7.71688391,27.8285361 7.29154385,0.314700731 Z" fill="#FF2300"></path>
                    <path d="M41.1364599,74.1045294 C41.2579856,74.1644724 41.3187485,74.2244154 41.4402742,74.2843584 C44.4176546,75.6630473 48.5495295,76.4423062 50.4331783,73.8048144 C52.37759,70.9874936 49.8863125,67.3909138 47.6988493,64.7534219 C39.3743368,54.7429415 34.6955961,41.9151403 34.5133075,28.967453 C34.4525447,22.1938944 35.4855134,15.0007349 32.0220301,9.12632121 C29.0446497,4.15105251 23.2721774,1.27378867 17.4997052,0.374643728 C14.0969848,-0.16484324 10.6942643,-0.0449572474 7.29154385,0.254757735 C7.71688391,27.8285361 20.1125084,56.1216304 41.1364599,74.1045294 Z" fill="#FF6319"></path>
                    <path d="M65.3200803,83.5755228 C68.0544093,84.2948388 71.0317897,84.2948388 72.4293356,82.0170049 C74.2522215,79.1397411 71.5178926,75.6630473 69.2089037,73.1454414 C60.3982882,63.554562 54.9903932,51.0264757 54.2004759,38.0787885 C53.7751359,31.3651729 54.3827645,24.0521273 50.6762297,18.4174857 C47.4557979,13.562103 41.5617999,11.0444971 35.7285649,10.4450671 C32.6904216,10.1453522 29.5915155,10.3251811 26.5533722,10.6848391 C30.9890614,37.7790735 41.1972227,69.9085196 65.3200803,83.5755228 Z" fill="#FF6319"></path>
                    <path d="M26.4926093,10.7447821 C23.7582804,11.1044401 20.9631886,11.6439271 18.2288596,12.183414 C20.1732713,26.6896192 23.940569,41.1358813 31.2928757,53.8437966 C38.6451824,66.5517118 49.7040239,77.5212802 63.4971943,82.9760929 C64.0440601,83.2158648 64.6516888,83.3956938 65.3200803,83.5755228 C41.1972227,69.9085196 30.9890614,37.7790735 26.4926093,10.7447821 Z" fill="#FF2300"></path>
                    <path d="M81.9691054,74.4042444 C83.7919914,74.4641874 85.4933516,73.9846434 86.4047946,72.4860685 C88.2276806,69.6088047 85.4933516,66.1321109 83.1843627,63.614505 C74.3737473,54.0236256 68.9658522,41.4955393 68.175935,28.5478521 C67.7505949,21.8342365 68.3582236,14.5211909 64.6516888,8.88654923 C61.4312569,4.03116651 55.537259,1.51356066 49.7040239,0.914130696 C47.1519836,0.67435871 44.5391803,0.734301707 41.98714,0.974073693 C49.217921,28.0083651 58.8792166,58.6392363 81.9691054,74.4042444 Z" fill="#FF6319"></path>
                    <path d="M41.9263771,0.974073693 C38.7059453,1.33373167 35.4247505,1.93316164 32.2043187,2.5925346 C34.1487304,17.0987397 37.916028,31.5450019 45.2683347,44.2529171 C52.6206414,56.9608324 63.6794829,67.9304007 77.4726534,73.3852134 C78.8701993,73.9247004 80.4500338,74.3443014 81.9691054,74.4042444 C58.8792166,58.6392363 49.217921,28.0083651 41.9263771,0.974073693 Z" fill="#FF2300"></path>
                </g>
                <g id="Path" transform="translate(82.000000, 1.000000)">
                    <path d="M254.912868,270.787762 C328.508368,270.425384 402.345959,262.513451 474.912575,249.950993 C474.912575,249.950993 481.570063,231.771667 492.464133,212.867584 C412.574281,202.419001 310.291061,225.732024 254.912868,270.787762 Z" fill="#00061D"></path>
                    <path d="M600.073344,281.236345 C594.989444,273.02243 597.531394,252.246058 605.338811,244.877693 C611.33055,239.200428 616.596018,232.798407 620.34842,225.490438 C639.836702,187.501083 637.899978,139.183937 618.109083,100.771806 C595.231534,56.3804285 551.534206,24.9742839 503.902908,9.69398658 C468.5577,-1.60014622 429.278523,-4.55957139 394.841155,9.15041869 C331.595022,34.3961273 301.515282,106.267882 247.831722,148.062212 C235.908767,157.363263 221.564907,165.395988 206.555298,163.886078 C186.945971,161.953392 172.904724,144.921598 156.926753,133.325483 C129.933667,113.696643 92.772781,108.985721 61.7246793,121.1858 C30.6765777,133.385879 6.70962194,162.134581 0.354747338,194.869447 C-3.15556436,212.92798 20.1456426,225.732024 36.6683166,233.885542 C90.5334443,260.761955 151.721808,272.841241 211.820766,268.613491 C223.925289,289.027485 220.657067,318.863322 215.63369,342.055552 C210.610313,365.247782 200.079378,386.809308 190.274714,408.431231 C180.470051,430.053154 171.089045,452.279041 168.607618,475.894046 C166.126191,499.50905 171.391658,524.875552 187.611719,542.209328 C203.83178,559.543104 232.337932,566.126315 252.370918,553.261875 C268.772547,542.752896 276.095783,522.459695 278.153552,503.132836 C280.211321,483.805978 278.093029,464.177138 280.816547,444.971072 C284.024246,422.5036 293.768387,401.123263 295.22093,378.474601 C297.76288,339.579298 275.914215,303.703818 254.912868,270.848159 C310.291061,225.732024 412.574281,202.419001 492.464133,212.867584 C481.570063,231.771667 474.912575,249.950993 474.912575,249.950993 C467.952474,271.270934 475.759892,295.852282 493.916676,309.0791 C505.052837,317.172222 518.791471,320.675215 531.319652,326.292083 C543.908356,331.969348 556.315493,341.149606 559.402146,354.497217 C563.033503,370.381479 552.926226,389.285562 562.851935,402.210398 C570.901443,412.719378 588.150388,411.451053 598.439233,403.116345 C608.728078,394.842034 613.811977,381.856801 618.472219,369.475532 C626.158591,349.121935 633.54235,325.265344 622.103576,306.784036 C616.232882,297.2414 606.00456,290.839378 600.073344,281.236345 Z" fill="#002856"></path>
                </g>
                <g id="Path" transform="translate(101.000000, 136.000000)">
                    <path d="M21.5543807,56.4638052 C27.7142001,54.7772885 34.2363619,54.5965903 40.3961813,52.9100735 C46.5560007,51.2235568 52.7762106,47.4891269 54.7690933,41.4658528 C56.8827568,35.2016478 53.621676,27.9737189 48.2469316,24.239289 C42.8117968,20.4446263 35.7461216,19.7218334 29.2239598,20.986721 C23.8492154,22.0106776 18.8368133,24.1790562 14.0055824,26.7088313 C13.8848016,26.8292968 13.7640209,26.9497623 13.7036305,27.0702278 C3.43726476,38.5746812 -3.4472393,55.3193832 1.80672433,69.4740772 C6.87951678,63.2701049 13.8244112,58.5719512 21.5543807,56.4638052 Z" fill="#FF6319"></path>
                    <path d="M111.777618,76.039446 C104.711943,71.5219904 96.076118,68.1489569 92.331914,60.6198643 C88.4669292,52.7896081 91.9091813,42.6705076 98.9748565,37.5507247 C106.040532,32.4309417 115.763384,31.9490798 123.976477,34.8402513 C132.189569,37.7314229 139.013683,43.6944642 144.569598,50.3802984 C147.649508,54.1749611 150.367075,58.2105547 153.024252,62.3666138 C152.299568,58.4514857 151.15215,54.5965903 149.702781,50.9223931 C139.496806,25.4439438 115.521822,5.92853577 88.4065389,1.17014926 C61.4724265,-3.58823726 32.4246503,6.41039772 14.0659728,26.7088313 C18.8972037,24.1790562 23.9096058,22.0106776 29.2843502,20.986721 C35.7461216,19.7820662 42.8721872,20.504859 48.307322,24.239289 C53.7424567,28.0339516 56.9431472,35.2016478 54.8294837,41.4658528 C52.8366009,47.4891269 46.6163911,51.2837895 40.4565717,52.9100735 C34.2967523,54.5965903 27.7745905,54.7170558 21.6147711,56.4638052 C13.8848016,58.5719512 6.93990717,63.2701049 1.86711471,69.4740772 C2.22945703,70.4378011 2.65218974,71.4015249 3.13531283,72.305016 C8.08732451,82.1831855 18.3536902,88.1462268 28.4388848,92.7841479 C51.0852797,103.204412 75.5433865,109.589083 100.424226,111.576763 C112.139961,112.540487 124.821942,112.17909 135.088308,107.059307 C131.223323,94.4706646 122.94984,83.1469094 111.777618,76.039446 Z" fill="#FFCCCB"></path>
                    <path d="M144.509208,50.3802984 C139.013683,43.6342315 132.129179,37.7314229 123.916086,34.8402513 C115.702994,31.9490798 105.980141,32.4309417 98.9144661,37.5507247 C91.8487909,42.6705076 88.4669292,52.8498408 92.2715236,60.6198643 C95.9553372,68.1489569 104.591162,71.5219904 111.717228,76.039446 C122.88945,83.1469094 131.162933,94.4104319 134.967527,107.059307 C137.685094,105.673954 140.281881,103.987438 142.637106,101.879292 C153.326204,92.2420532 155.681429,76.7622388 152.963862,62.3666138 C150.367075,58.2105547 147.589118,54.1749611 144.509208,50.3802984 Z" fill="#FF6319"></path>
                </g>
                <path d="M152.399127,188.042612 C158.131443,184.532399 165.130902,183.200939 171.768321,184.471878 C178.345399,185.742817 184.439755,189.495114 188.482547,194.881475 C191.680575,199.17846 193.49078,205.351592 190.413432,209.709098 C188.723907,212.069414 185.887919,213.400874 182.991591,213.82452 C180.095263,214.248166 177.198935,213.82452 174.302607,213.400874 C168.328931,212.432539 162.415595,211.1616 156.622939,209.588056 C152.278447,208.377638 147.390893,206.622532 145.641029,202.386068 C144.494565,199.723148 144.977287,196.57606 146.365111,194.034182 C147.752934,191.492304 149.92518,189.555635 152.399127,188.042612 Z" id="Path" fill="#00061D"></path>
                <path d="M134,171 C134.477193,174.863924 137.4,178.12411 141.336842,178.848596 C145.273684,179.573082 149.150877,177.64112 151,174.260186 L134,171 Z" id="Path" fill="#00061D"></path>
                <path d="M198,189 C198.061151,192.846582 200.629496,196.39265 204.604317,197.594707 C208.579137,198.796764 212.676259,197.23409 215,194.108742 L198,189 Z" id="Path" fill="#00061D"></path>
                <path d="M127.48492,218.52154 C148.170473,236.416441 176.696032,242.541541 202.929897,234.554891 C204.799437,234.014441 204.015437,231.071991 202.145897,231.672491 C176.997571,239.298841 149.497244,233.594091 129.655999,216.41979 C128.148305,215.09869 126.037535,217.20044 127.48492,218.52154 L127.48492,218.52154 Z" id="Path" fill="#00061D" transform="translate(165.500000, 227.000000) rotate(-180.000000) translate(-165.500000, -227.000000) "></path>
            </g>
        </g>
    </g>
</svg>