<?xml version="1.0" encoding="UTF-8"?>
<svg width="1296px" height="993px" viewBox="0 0 1296 993" version="1.1" xmlns="http://www.w3.org/2000/svg" xmlns:xlink="http://www.w3.org/1999/xlink">
    <title>Group</title>
    <g id="Page-1" stroke="none" stroke-width="1" fill="none" fill-rule="evenodd">
        <g id="Group" transform="translate(0.600000, 0.100000)" fill-rule="nonzero">
            <g transform="translate(229.700000, -0.000000)" id="Path">
                <path d="M258,35.5 C261.6,28.1 265.4,20.8 269.3,13.5 C262.3,12.2 255.2,11.2 248.1,10.7 C232,17.2 216.2,24.6 200.9,32.7 C219.9,30.4 239.3,31.3 258,35.5 Z" fill="#FF6319"></path>
                <path d="M15.8,195.6 C10.3,203.4 5,211.4 5.68434189e-14,219.5 C18.1,219.1 37.2,218 56.3,218 C103.3,207.7 152.5,207.4 199.5,217.4 C201.9,203.7 204.7,190.1 207.9,176.5 C143.4,170.7 77.8,177.2 15.8,195.6 Z" fill="#FF2300"></path>
                <path d="M276.9,0 C267.2,3.3 257.6,6.8 248.2,10.7 C255.3,11.3 262.4,12.2 269.4,13.5 C271.8,9 274.3,4.5 276.9,0 Z" fill="#FF2300"></path>
                <path d="M56.2,218 C72.8,218 89.3,218.9 104.8,221.9 C138,228.3 168.9,250.4 191.7,275.4 C193.5,256.1 196,236.8 199.4,217.4 C152.4,207.5 103.2,207.8 56.2,218 Z" fill="#FF6319"></path>
                <path d="M49.9,152.1 C37.7,166 26.3,180.5 15.7,195.7 C77.8,177.3 143.3,170.7 207.8,176.7 C211.1,162.5 214.9,148.4 219.2,134.5 C162.4,129.2 104.5,135.3 49.9,152.1 Z" fill="#FF6319"></path>
                <path d="M200.9,32.7 C176.7,45.5 153.5,60.2 131.6,76.5 C167.6,64.6 206.4,60.9 244,65.9 C248.4,55.6 253.1,45.4 258,35.4 C239.3,31.3 219.9,30.4 200.9,32.7 Z" fill="#FF2300"></path>
                <path d="M131.6,76.5 C117,87.4 102.9,99.1 89.5,111.5 C135.8,99.4 184,94.5 231.8,97 C235.6,86.5 239.7,76.2 244.1,65.9 C206.4,61 167.6,64.6 131.6,76.5 Z" fill="#FF6319"></path>
                <path d="M89.5,111.5 C75.6,124.3 62.4,137.8 50,152 C104.6,135.2 162.4,129.1 219.3,134.3 C223.1,121.7 227.3,109.3 231.8,97 C183.9,94.5 135.8,99.4 89.5,111.5 Z" fill="#FF2300"></path>
            </g>
            <g transform="translate(799.657209, 368.413875)" id="Path">
                <g transform="translate(38.212689, 284.069164)">
                    <path d="M21.930102,0.516960339 C19.230102,-0.283039661 16.330102,-0.183039661 13.730102,1.01696034 C9.03010204,3.21696034 6.43010204,8.21696034 4.63010204,13.0169603 C-0.869897959,27.8169603 -1.46989796,44.4169603 2.83010204,59.5169603 C3.33010204,61.3169603 4.43010204,63.5169603 6.13010204,63.8169603 C-0.369897959,42.1169603 2.23010204,13.7169603 21.930102,0.516960339 Z" fill="#FF2300"></path>
                    <path d="M24.730102,1.81696034 C23.830102,1.21696034 22.930102,0.816960339 21.930102,0.516960339 C2.23010204,13.7169603 -0.369897959,42.1169603 6.13010204,63.9169603 C6.43010204,64.0169603 6.63010204,64.0169603 6.93010204,63.9169603 C9.23010204,63.6169603 9.73010204,60.6169603 9.93010204,58.3169603 C10.530102,47.2169603 14.530102,36.3169603 21.330102,27.4169603 C25.130102,22.5169603 29.930102,17.6169603 29.930102,11.4169603 C30.030102,7.71696034 27.930102,3.91696034 24.730102,1.81696034 Z" fill="#FF6319"></path>
                    <path d="M30.230102,9.51696034 C28.130102,9.21696034 25.930102,9.51696034 23.930102,10.4169603 C19.230102,12.6169603 16.630102,17.6169603 14.830102,22.4169603 C9.33010204,37.2169603 8.73010204,53.8169603 13.030102,68.9169603 C13.630102,70.9169603 14.830102,73.3169603 16.830102,73.2169603 C8.13010204,51.9169603 15.630102,26.8169603 30.230102,9.51696034 Z" fill="#FF2300"></path>
                    <path d="M34.930102,11.2169603 C33.530102,10.3169603 31.930102,9.71696034 30.230102,9.51696034 C15.530102,26.8169603 8.03010204,51.8169603 16.830102,73.3169603 C16.930102,73.3169603 17.030102,73.3169603 17.130102,73.3169603 C19.430102,73.0169603 19.930102,70.0169603 20.130102,67.7169603 C20.730102,56.6169603 24.730102,45.7169603 31.530102,36.8169603 C35.330102,31.9169603 40.130102,27.0169603 40.130102,20.8169603 C40.230102,17.1169603 38.130102,13.3169603 34.930102,11.2169603 Z" fill="#FF6319"></path>
                    <path d="M48.830102,7.51696034 C45.730102,6.01696034 42.030102,5.91696034 38.930102,7.31696034 C34.230102,9.51696034 31.630102,14.5169603 29.830102,19.3169603 C24.330102,34.1169603 23.730102,50.7169603 28.030102,65.8169603 C28.230102,66.5169603 28.530102,67.3169603 28.930102,68.0169603 C24.130102,45.7169603 31.430102,21.8169603 48.830102,7.51696034 Z" fill="#FF2300"></path>
                    <path d="M49.930102,8.11696034 C49.630102,7.91696034 49.230102,7.71696034 48.830102,7.51696034 C31.330102,21.8169603 24.030102,45.7169603 28.830102,68.0169603 C29.530102,69.3169603 30.630102,70.4169603 32.030102,70.2169603 C34.330102,69.9169603 34.830102,66.9169603 35.030102,64.6169603 C35.630102,53.5169603 39.630102,42.6169603 46.430102,33.7169603 C50.230102,28.8169603 55.030102,23.9169603 55.030102,17.7169603 C55.230102,14.0169603 53.130102,10.2169603 49.930102,8.11696034 Z" fill="#FF6319"></path>
                </g>
                <g transform="translate(0.000000, 0.000000)">
                    <path d="M164.342791,192.986125 C169.542791,176.186125 172.842791,158.886125 173.542791,141.186125 C175.642791,91.7861247 154.842791,39.3861247 112.542791,13.6861247 C94.8427909,2.88612474 73.3427909,-2.81387526 53.0427909,1.38612474 C25.5427909,6.98612474 3.14279091,31.8861247 0.342790908,59.7861247 C-2.75720909,90.7861247 15.7427909,119.286125 32.6427909,145.486125 C36.1427909,150.886125 39.6427909,156.486125 42.9427909,162.186125 C85.0427909,162.386125 127.142791,173.086125 164.342791,192.986125 Z" fill="#00061D"></path>
                    <path d="M42.9427909,162.086125 C55.5427909,183.986125 65.0427909,208.086125 59.6427909,232.186125 C56.8427909,244.586125 50.3427909,255.886125 46.4427909,268.086125 C42.5427909,280.286125 41.9427909,294.686125 49.9427909,304.586125 C59.3427909,316.286125 77.7427909,317.086125 91.0427909,310.186125 C104.342791,303.286125 113.742791,290.786125 122.042791,278.286125 C139.642791,251.886125 154.942791,223.186125 164.242791,192.986125 C127.142791,173.086125 85.0427909,162.386125 42.9427909,162.086125 Z" fill="#002856"></path>
                </g>
            </g>
            <g transform="translate(229.603671, 431.371058)" id="Path">
                <g transform="translate(21.996329, 405.415584)">
                    <path d="M9.4,0.413358235 C6.3,0.713358235 3.1,1.11335824 0,1.61335824 C1.5,20.6133582 5.4,39.7133582 14,56.8133582 C22.5,73.7133582 35.9,88.6133582 53,96.7133582 C25.9,73.2133582 9.9,36.3133582 9.4,0.413358235 Z" fill="#FF2300"></path>
                    <path d="M53,96.7133582 C53.1,96.8133582 53.3,96.8133582 53.4,96.9133582 C57.2,98.7133582 62.6,99.7133582 64.9,96.3133582 C67.4,92.7133582 64.2,87.9133582 61.4,84.5133582 C50.7,71.4133582 44.6,54.7133582 44.4,37.8133582 C44.3,29.0133582 45.6,19.5133582 41.2,11.9133582 C37.4,5.41335824 30,1.61335824 22.5,0.513358235 C18.1,-0.186641765 13.7,-0.0866417647 9.3,0.313358235 C9.9,36.3133582 25.9,73.2133582 53,96.7133582 Z" fill="#FF6319"></path>
                    <path d="M84.1,109.113358 C87.6,110.013358 91.5,110.013358 93.3,107.113358 C95.6,103.313358 92.1,98.8133582 89.1,95.5133582 C77.7,83.0133582 70.8,66.6133582 69.7,49.8133582 C69.1,41.0133582 70,31.5133582 65.1,24.1133582 C61,17.8133582 53.3,14.4133582 45.8,13.7133582 C41.9,13.3133582 37.9,13.5133582 34,14.0133582 C39.9,49.3133582 53.1,91.2133582 84.1,109.113358 Z" fill="#FF6319"></path>
                    <path d="M34.1,14.0133582 C30.5,14.5133582 27,15.2133582 23.5,15.9133582 C26,34.8133582 30.9,53.7133582 40.3,70.3133582 C49.7,86.9133582 64,101.213358 81.7,108.313358 C82.4,108.613358 83.2,108.913358 84,109.113358 C53.1,91.2133582 39.9,49.3133582 34.1,14.0133582 Z" fill="#FF2300"></path>
                    <path d="M105.5,97.1133582 C107.9,97.2133582 110,96.5133582 111.2,94.6133582 C113.5,90.8133582 110,86.3133582 107,83.0133582 C95.6,70.5133582 88.7,54.1133582 87.6,37.3133582 C87,28.5133582 87.9,19.0133582 83,11.6133582 C78.9,5.31335824 71.2,1.91335824 63.7,1.21335824 C60.4,0.913358235 57.1,1.01335824 53.7,1.31335824 C63.4,36.6133582 75.8,76.6133582 105.5,97.1133582 Z" fill="#FF6319"></path>
                    <path d="M54,1.31335824 C49.8,1.71335824 45.6,2.61335824 41.5,3.41335824 C44,22.3133582 48.9,41.2133582 58.3,57.8133582 C67.7,74.4133582 82,88.7133582 99.7,95.8133582 C101.5,96.5133582 103.5,97.1133582 105.5,97.1133582 C75.8,76.6133582 63.4,36.6133582 54,1.31335824 Z" fill="#FF2300"></path>
                </g>
                <g>
                    <path d="M140.596329,1.42894192 C110.896329,42.6289419 82.4963292,85.1289419 58.8963292,130.128942 C90.7963292,137.528942 123.396329,141.728942 156.096329,142.628942 C168.596329,93.3289419 189.196329,46.0289419 215.696329,2.52894192 C195.396329,1.42894192 160.496329,-1.87105808 140.596329,1.42894192 Z" fill="#00061D"></path>
                    <path d="M38.2963292,173.328942 C11.8963292,234.728942 -3.80367081,301.628942 0.796329185,368.328942 C2.19632919,388.228942 5.49632919,408.428942 15.1963292,425.928942 C24.8963292,443.428942 41.8963292,457.728942 61.6963292,459.928942 C88.9963292,463.028942 114.196329,442.728942 127.396329,418.628942 C154.396329,369.228942 142.996329,309.028942 142.496329,252.728942 C142.196329,215.528942 146.996329,178.528942 156.196329,142.628942 C123.496329,141.728942 90.8963292,137.528942 58.9963292,130.128942 C51.4963292,144.328942 44.5963292,158.728942 38.2963292,173.328942 Z" fill="#002856"></path>
                </g>
            </g>
            <g transform="translate(0.000000, 246.400000)" id="Path">
                <path d="M1174.6,114.1 C1191.6,109.2 1199.7,92.1 1198.5,75.3 C1197.6,63 1192.9,51.9 1187.2,41.3 C1167.8,53.2 1147.8,64.2 1127.4,74.4 C1130.6,80.2 1134.1,85.9 1137.7,91.5 C1145.6,103.7 1158,118.9 1174.6,114.1 Z" fill="#1D5FF4"></path>
                <path d="M481.2,278 C531.3,279.7 581.5,279.1 631.6,276.3 C612.8,266.7 592.2,260.7 571,259.2 C539.9,256.8 508.7,263.6 481.2,278 Z" fill="#1D5FF4"></path>
                <path d="M576.1,188.9 C537.3,190.2 498.3,190.8 459.4,189.4 C395.5,216.4 324.3,226 255.6,215.5 C160.3,201 72.5,148.3 14,72 C5.7,89.5 0.8,108.7 -8.52651283e-14,128.6 C96.9,217.2 229.7,254.3 361.3,269.4 C399.6,250.3 440.8,237.1 483.1,230.7 C566.4,218 651.8,231.7 726.8,268.2 C784.7,261.7 842.2,252.2 899.1,239.8 C851.7,227.6 806.8,205.6 768.5,175 C704.7,182.8 640.3,186.8 576.1,188.9 Z" fill="#1D5FF4"></path>
                <path d="M775.5,174.1 C815.1,204.7 861.4,226.3 910.1,237.3 C927.6,233.4 945.1,229.1 962.5,224.6 C913.9,218.6 867.2,198.1 830,166.2 C811.9,169.2 793.7,171.8 775.5,174.1 Z" fill="#1D5FF4"></path>
                <path d="M193.6,160.4 C226.9,168.8 261.4,171.4 295.3,168.1 C294.4,167.9 293.6,167.7 292.7,167.5 C200.6,143.9 112.2,95.7 55.6,19.3 C45.1,27.7 36,37.3 28.2,47.9 C36.6,59.4 45.7,70.3 55.7,80.4 C93.6,118.8 141.4,147.2 193.6,160.4 Z" fill="#1D5FF4"></path>
                <path d="M195.5,195.9 C277.4,223.2 367.4,219.9 447.2,189 C400.9,186.9 354.8,181.8 309.7,171.6 C301.5,172.8 293.2,173.6 284.9,174.1 C228.5,177.3 171.7,165 122.3,137.4 C84.3,116.2 51.1,87.1 25.3,52.2 C22.1,57 19.1,61.9 16.4,67.1 C61.4,126.6 124.7,172.3 195.5,195.9 Z" fill="#1D5FF4"></path>
                <path d="M370.8,270.5 C382.2,271.7 393.6,272.8 404.9,273.7 C427.1,275.5 449.4,276.8 471.7,277.7 C501.5,260.1 536.6,251.3 571.2,254.2 C595.9,256.3 619.8,263.8 641.1,275.8 C666.7,274.2 692.3,272.1 717.8,269.3 C696.9,259.5 675.2,251.5 652.9,245.5 C558.9,219.8 458.1,229.3 370.8,270.5 Z" fill="#1D5FF4"></path>
                <path d="M1247.8,0 C1245.4,1.8 1243,3.6 1240.6,5.4 C1256.3,41.2 1261.1,81.4 1254.6,119.8 C1268,113.5 1281.3,107.1 1294.5,100.5 C1297.1,64.5 1278.5,18.9 1247.8,0 Z" fill="#1D5FF4"></path>
                <path d="M1236.5,8.4 C1231,12.4 1225.4,16.4 1219.8,20.3 C1226.4,42.7 1229,66.3 1226.8,89.5 C1225.2,106 1221.5,122.1 1215.8,137.4 C1227,132.5 1238.1,127.5 1249.2,122.4 C1256.2,84.2 1251.9,44.1 1236.5,8.4 Z" fill="#1D5FF4"></path>
                <path d="M1215.3,23.3 C1207.4,28.6 1199.5,33.8 1191.4,38.8 C1198.5,51.7 1204.2,65.6 1203.5,80.4 C1202.7,97.2 1193.5,114.9 1175.9,119 C1158.4,123.1 1145.1,111.4 1135.8,97.8 C1131.1,91 1126.8,83.9 1122.8,76.7 C1060.7,107.2 994.7,130 927.5,146.5 C897.4,153.9 867.1,160 836.6,165.2 C876,197.8 925.6,217.6 976.7,221 C1056.1,199.7 1134,172.7 1209.5,140.1 C1216.4,122.9 1220.8,104.7 1222,86.2 C1223.4,64.8 1221.1,43.6 1215.3,23.3 Z" fill="#1D5FF4"></path>
                <path d="M122.3,137.4 C171.7,164.9 228.6,177.2 284.9,174.1 C293.2,173.6 301.5,172.8 309.7,171.6 C304.9,170.5 300.1,169.4 295.3,168.2 C261.3,171.4 226.8,168.8 193.6,160.5 C141.3,147.3 93.5,118.9 55.8,80.5 C45.8,70.4 36.7,59.5 28.3,48 C27.3,49.4 26.3,50.9 25.3,52.3 C51.1,87.1 84.4,116.2 122.3,137.4 Z" fill="#231F20"></path>
                <path d="M255.6,215.6 C324.3,226 395.6,216.5 459.4,189.5 C455.3,189.4 451.3,189.2 447.2,189 C367.4,220 277.4,223.3 195.5,195.9 C124.7,172.3 61.4,126.6 16.5,67.1 C15.6,68.7 14.8,70.4 14,72.1 C72.5,148.4 160.3,201.1 255.6,215.6 Z" fill="#231F20"></path>
                <path d="M483.1,230.7 C440.8,237.1 399.6,250.3 361.3,269.4 C364.5,269.8 367.6,270.1 370.8,270.4 C458.2,229.2 558.9,219.7 652.9,245.3 C675.2,251.4 696.9,259.4 717.8,269.1 C720.8,268.8 723.8,268.4 726.9,268.1 C651.8,231.7 566.4,218 483.1,230.7 Z" fill="#231F20"></path>
                <path d="M471.6,277.6 C474.8,277.7 478,277.8 481.2,278 C508.6,263.6 539.9,256.9 571,259.2 C592.1,260.8 612.7,266.8 631.6,276.3 C634.7,276.1 637.8,275.9 641,275.7 C619.6,263.7 595.7,256.2 571.1,254.1 C536.5,251.2 501.4,260 471.6,277.6 Z" fill="#231F20"></path>
                <path d="M768.5,175 C806.7,205.6 851.6,227.6 899.1,239.8 C902.8,239 906.5,238.2 910.1,237.4 C861.4,226.4 815,204.8 775.5,174.2 C773.2,174.4 770.8,174.7 768.5,175 Z" fill="#231F20"></path>
                <path d="M830.1,166.3 C867.3,198.2 914,218.7 962.6,224.7 C967.3,223.5 972,222.2 976.7,221 C925.6,217.6 876,197.8 836.6,165.2 C834.4,165.5 832.3,165.9 830.1,166.3 Z" fill="#231F20"></path>
                <path d="M1219.8,20.3 C1218.3,21.3 1216.9,22.3 1215.4,23.3 C1221.2,43.6 1223.5,64.9 1222,86.2 C1220.8,104.7 1216.4,122.9 1209.5,140.1 C1211.6,139.2 1213.7,138.3 1215.7,137.4 C1221.4,122.1 1225.1,106 1226.7,89.5 C1228.9,66.2 1226.4,42.6 1219.8,20.3 Z" fill="#231F20"></path>
                <path d="M1240.6,5.4 C1239.2,6.4 1237.8,7.4 1236.5,8.4 C1251.9,44.1 1256.2,84.2 1249.1,122.3 C1250.9,121.4 1252.8,120.6 1254.6,119.7 C1261.1,81.3 1256.3,41.1 1240.6,5.4 Z" fill="#231F20"></path>
                <path d="M1175.9,119 C1193.5,114.9 1202.8,97.2 1203.5,80.4 C1204.2,65.6 1198.5,51.7 1191.4,38.8 C1190,39.7 1188.5,40.6 1187.1,41.4 C1192.9,52 1197.5,63.1 1198.4,75.4 C1199.7,92.2 1191.5,109.3 1174.5,114.2 C1157.9,119 1145.5,103.8 1137.6,91.6 C1134,86 1130.5,80.3 1127.3,74.5 C1125.8,75.2 1124.3,76 1122.8,76.7 C1126.8,83.9 1131.1,91 1135.8,97.8 C1145.1,111.3 1158.4,123 1175.9,119 Z" fill="#231F20"></path>
            </g>
            <g transform="translate(1056.290449, 639.782052)" id="Path">
                <path d="M27.9095512,0.617948297 C24.5095512,-0.382051703 20.7095512,-0.182051703 17.5095512,1.3179483 C11.5095512,4.1179483 8.20955118,10.4179483 5.90955118,16.6179483 C-1.09044882,35.4179483 -1.89044882,56.5179483 3.60955118,75.8179483 C4.30955118,78.1179483 5.60955118,80.8179483 7.80955118,81.3179483 C-0.490448815,53.5179483 2.80955118,17.4179483 27.9095512,0.617948297 Z" fill="#FF2300"></path>
                <path d="M31.5095512,2.2179483 C30.4095512,1.5179483 29.2095512,0.917948297 27.9095512,0.617948297 C2.90955118,17.4179483 -0.390448815,53.5179483 7.80955118,81.3179483 C8.10955118,81.4179483 8.50955118,81.4179483 8.80955118,81.3179483 C11.7095512,80.9179483 12.4095512,77.1179483 12.6095512,74.2179483 C13.4095512,60.0179483 18.5095512,46.2179483 27.1095512,34.9179483 C31.9095512,28.7179483 38.0095512,22.4179483 38.1095512,14.6179483 C38.1095512,9.7179483 35.5095512,4.9179483 31.5095512,2.2179483 Z" fill="#FF6319"></path>
                <path d="M38.5095512,12.1179483 C35.8095512,11.8179483 33.0095512,12.1179483 30.5095512,13.3179483 C24.5095512,16.1179483 21.2095512,22.4179483 18.9095512,28.6179483 C11.9095512,47.4179483 11.1095512,68.5179483 16.6095512,87.8179483 C17.3095512,90.3179483 18.9095512,93.3179483 21.4095512,93.3179483 C10.3095512,65.9179483 19.8095512,34.0179483 38.5095512,12.1179483 Z" fill="#FF2300"></path>
                <path d="M44.5095512,14.2179483 C42.7095512,13.0179483 40.6095512,12.3179483 38.5095512,12.0179483 C19.8095512,34.0179483 10.3095512,65.8179483 21.4095512,93.2179483 C21.5095512,93.2179483 21.7095512,93.2179483 21.8095512,93.2179483 C24.7095512,92.8179483 25.4095512,89.0179483 25.6095512,86.1179483 C26.4095512,71.9179483 31.5095512,58.1179483 40.1095512,46.8179483 C44.9095512,40.6179483 51.0095512,34.3179483 51.1095512,26.5179483 C51.1095512,21.7179483 48.5095512,16.9179483 44.5095512,14.2179483 Z" fill="#FF6319"></path>
                <path d="M62.2095512,9.5179483 C58.3095512,7.6179483 53.5095512,7.5179483 49.6095512,9.3179483 C43.6095512,12.1179483 40.3095512,18.4179483 38.0095512,24.6179483 C31.0095512,43.4179483 30.2095512,64.5179483 35.7095512,83.8179483 C36.0095512,84.7179483 36.3095512,85.7179483 36.8095512,86.5179483 C30.6095512,58.1179483 39.9095512,27.7179483 62.2095512,9.5179483 Z" fill="#FF2300"></path>
                <path d="M63.5095512,10.2179483 C63.1095512,9.9179483 62.6095512,9.7179483 62.1095512,9.4179483 C39.8095512,27.6179483 30.6095512,58.1179483 36.7095512,86.4179483 C37.6095512,88.1179483 39.0095512,89.4179483 40.8095512,89.2179483 C43.7095512,88.8179483 44.4095512,85.0179483 44.6095512,82.1179483 C45.4095512,67.9179483 50.5095512,54.1179483 59.1095512,42.8179483 C63.9095512,36.6179483 70.0095512,30.3179483 70.1095512,22.5179483 C70.2095512,17.7179483 67.6095512,12.9179483 63.5095512,10.2179483 Z" fill="#FF6319"></path>
            </g>
            <g transform="translate(439.100000, 852.375000)" id="Path">
                <path d="M12,0.525 C8,0.925 4,1.425 5.68434189e-14,2.025 C1.9,26.325 6.9,50.725 17.9,72.625 C28.8,94.225 45.9,113.325 67.7,123.625 C33.1,93.625 12.7,46.425 12,0.525 Z" fill="#FF2300"></path>
                <path d="M67.7,123.625 C67.9,123.725 68,123.825 68.2,123.925 C73.1,126.225 79.9,127.525 83,123.125 C86.2,118.425 82.1,112.425 78.5,108.025 C64.8,91.325 57.1,69.925 56.8,48.325 C56.7,37.025 58.4,25.025 52.7,15.225 C47.8,6.925 38.3,2.125 28.8,0.625 C23.2,-0.275 17.6,-0.075 12,0.425 C12.7,46.425 33.1,93.625 67.7,123.625 Z" fill="#FF6319"></path>
                <path d="M107.5,139.425 C112,140.625 116.9,140.625 119.2,136.825 C122.2,132.025 117.7,126.225 113.9,122.025 C99.4,106.025 90.5,85.125 89.2,63.525 C88.5,52.325 89.5,40.125 83.4,30.725 C78.1,22.625 68.4,18.425 58.8,17.425 C53.8,16.925 48.7,17.225 43.7,17.825 C51,63.025 67.8,116.625 107.5,139.425 Z" fill="#FF6319"></path>
                <path d="M43.6,17.925 C39.1,18.525 34.5,19.425 30,20.325 C33.2,44.525 39.4,68.625 51.5,89.825 C63.6,111.025 81.8,129.325 104.5,138.425 C105.4,138.825 106.4,139.125 107.5,139.425 C67.8,116.625 51,63.025 43.6,17.925 Z" fill="#FF2300"></path>
                <path d="M134.9,124.125 C137.9,124.225 140.7,123.425 142.2,120.925 C145.2,116.125 140.7,110.325 136.9,106.125 C122.4,90.125 113.5,69.225 112.2,47.625 C111.5,36.425 112.5,24.225 106.4,14.825 C101.1,6.725 91.4,2.525 81.8,1.525 C77.6,1.125 73.3,1.225 69.1,1.625 C81,46.725 96.9,97.825 134.9,124.125 Z" fill="#FF6319"></path>
                <path d="M69,1.625 C63.7,2.225 58.3,3.225 53,4.325 C56.2,28.525 62.4,52.625 74.5,73.825 C86.6,95.025 104.8,113.325 127.5,122.425 C129.8,123.325 132.4,124.025 134.9,124.125 C96.9,97.825 81,46.725 69,1.625 Z" fill="#FF2300"></path>
            </g>
            <g transform="translate(134.713860, 1.149405)" id="Path">
                <path d="M421.18614,448.350595 C542.78614,447.750595 664.78614,434.650595 784.68614,413.850595 C784.68614,413.850595 795.68614,383.750595 813.68614,352.450595 C681.68614,335.150595 512.68614,373.750595 421.18614,448.350595 Z" fill="#00061D"></path>
                <path d="M991.48614,465.650595 C983.08614,452.050595 987.28614,417.650595 1000.18614,405.450595 C1010.08614,396.050595 1018.78614,385.450595 1024.98614,373.350595 C1057.18614,310.450595 1053.98614,230.450595 1021.28614,166.850595 C983.48614,93.3505948 911.28614,41.3505948 832.58614,16.0505948 C774.18614,-2.64940522 709.28614,-7.54940522 652.38614,15.1505948 C547.88614,56.9505948 498.18614,175.950595 409.48614,245.150595 C389.78614,260.550595 366.08614,273.850595 341.28614,271.350595 C308.88614,268.150595 285.68614,239.950595 259.28614,220.750595 C214.68614,188.250595 153.28614,180.450595 101.98614,200.650595 C50.6861401,220.850595 11.0861401,268.450595 0.586140132,322.650595 C-5.21385987,352.550595 33.2861401,373.750595 60.5861401,387.250595 C149.58614,431.750595 250.68614,451.750595 349.98614,444.750595 C369.98614,478.550595 364.58614,527.950595 356.28614,566.350595 C347.98614,604.750595 330.58614,640.450595 314.38614,676.250595 C298.18614,712.050595 282.68614,748.850595 278.58614,787.950595 C274.48614,827.050595 283.18614,869.050595 309.98614,897.750595 C336.78614,926.450595 383.88614,937.350595 416.98614,916.050595 C444.08614,898.650595 456.18614,865.050595 459.58614,833.050595 C462.98614,801.050595 459.48614,768.550595 463.98614,736.750595 C469.28614,699.550595 485.38614,664.150595 487.78614,626.650595 C491.98614,562.250595 455.88614,502.850595 421.18614,448.450595 C512.68614,373.750595 681.68614,335.150595 813.68614,352.450595 C795.68614,383.750595 784.68614,413.850595 784.68614,413.850595 C773.18614,449.150595 786.08614,489.850595 816.08614,511.750595 C834.48614,525.150595 857.18614,530.950595 877.88614,540.250595 C898.68614,549.650595 919.18614,564.850595 924.28614,586.950595 C930.28614,613.250595 913.58614,644.550595 929.98614,665.950595 C943.28614,683.350595 971.78614,681.250595 988.78614,667.450595 C1005.78614,653.750595 1014.18614,632.250595 1021.88614,611.750595 C1034.58614,578.050595 1046.78614,538.550595 1027.88614,507.950595 C1018.18614,492.150595 1001.28614,481.550595 991.48614,465.650595 Z" fill="#002856"></path>
            </g>
            <g transform="translate(165.408258, 225.057287)" id="Path">
                <path d="M35.6917416,93.742713 C45.8917416,90.942713 56.6917416,90.642713 66.8917416,87.842713 C77.0917416,85.042713 87.3917416,78.842713 90.6917416,68.842713 C94.1917416,58.442713 88.7917416,46.442713 79.8917416,40.242713 C70.8917416,33.942713 59.1917416,32.742713 48.3917416,34.842713 C39.4917416,36.542713 31.1917416,40.142713 23.1917416,44.342713 C22.9917416,44.542713 22.7917416,44.742713 22.6917416,44.942713 C5.69174162,64.042713 -5.70825838,91.842713 2.99174162,115.342713 C11.3917416,105.042713 22.8917416,97.242713 35.6917416,93.742713 Z" fill="#FF6319"></path>
                <path d="M185.091742,126.242713 C173.391742,118.742713 159.091742,113.142713 152.891742,100.642713 C146.491742,87.642713 152.191742,70.842713 163.891742,62.342713 C175.591742,53.842713 191.691742,53.042713 205.291742,57.842713 C218.891742,62.642713 230.191742,72.542713 239.391742,83.642713 C244.491742,89.942713 248.991742,96.642713 253.391742,103.542713 C252.191742,97.042713 250.291742,90.642713 247.891742,84.542713 C230.991742,42.242713 191.291742,9.84271296 146.391742,1.94271296 C101.791742,-5.95728704 53.6917416,10.642713 23.2917416,44.342713 C31.2917416,40.142713 39.5917416,36.542713 48.4917416,34.842713 C59.1917416,32.842713 70.9917416,34.042713 79.9917416,40.242713 C88.9917416,46.542713 94.2917416,58.442713 90.7917416,68.842713 C87.4917416,78.842713 77.1917416,85.142713 66.9917416,87.842713 C56.7917416,90.642713 45.9917416,90.842713 35.7917416,93.742713 C22.9917416,97.242713 11.4917416,105.042713 3.09174162,115.342713 C3.69174162,116.942713 4.39174162,118.542713 5.19174162,120.042713 C13.3917416,136.442713 30.3917416,146.342713 47.0917416,154.042713 C84.5917416,171.342713 125.091742,181.942713 166.291742,185.242713 C185.691742,186.842713 206.691742,186.242713 223.691742,177.742713 C217.291742,156.842713 203.591742,138.042713 185.091742,126.242713 Z" fill="#FFCCCB"></path>
                <path d="M239.291742,83.642713 C230.191742,72.442713 218.791742,62.642713 205.191742,57.842713 C191.591742,53.042713 175.491742,53.842713 163.791742,62.342713 C152.091742,70.842713 146.491742,87.742713 152.791742,100.642713 C158.891742,113.142713 173.191742,118.742713 184.991742,126.242713 C203.491742,138.042713 217.191742,156.742713 223.491742,177.742713 C227.991742,175.442713 232.291742,172.642713 236.191742,169.142713 C253.891742,153.142713 257.791742,127.442713 253.291742,103.542713 C248.991742,96.642713 244.391742,89.942713 239.291742,83.642713 Z" fill="#FF6319"></path>
            </g>
            <path d="M250.4,310.7 C259.9,304.9 271.5,302.7 282.5,304.8 C293.4,306.9 303.5,313.1 310.2,322 C315.5,329.1 318.5,339.3 313.4,346.5 C310.6,350.4 305.9,352.6 301.1,353.3 C296.3,354 291.5,353.3 286.7,352.6 C276.8,351 267,348.9 257.4,346.3 C250.2,344.3 242.1,341.4 239.2,334.4 C237.3,330 238.1,324.8 240.4,320.6 C242.7,316.4 246.3,313.2 250.4,310.7 Z" id="Path" fill="#00061D"></path>
            <path d="M219.7,282.3 C220.5,288.7 225.4,294.1 232,295.3 C238.6,296.5 245.1,293.3 248.2,287.7 L219.7,282.3 Z" id="Path" fill="#00061D"></path>
            <path d="M327,310.6 C327.1,317 331.3,322.9 337.8,324.9 C344.3,326.9 351,324.3 354.8,319.1 L327,310.6 Z" id="Path" fill="#00061D"></path>
            <path d="M209.9,361.8 C244.2,391.6 291.5,401.8 335,388.5 C338.1,387.6 336.8,382.7 333.7,383.7 C292,396.4 246.4,386.9 213.5,358.3 C211,356.1 207.5,359.6 209.9,361.8 L209.9,361.8 Z" id="Path" fill="#00061D" transform="translate(272.935164, 375.919000) rotate(-180.000000) translate(-272.935164, -375.919000) "></path>
        </g>
    </g>
</svg>