<?xml version="1.0" encoding="UTF-8"?>
<svg width="295px" height="295px" viewBox="0 0 295 295" version="1.1" xmlns="http://www.w3.org/2000/svg" xmlns:xlink="http://www.w3.org/1999/xlink">
    <title>Group 2</title>
    <g id="Page-1" stroke="none" stroke-width="1" fill="none" fill-rule="evenodd">
        <g id="76" transform="translate(-3197.000000, -1326.000000)">
            <g id="Group-545" transform="translate(131.595000, 311.547000)">
                <g id="Group-2" transform="translate(3065.575000, 1014.815000)">
                    <polygon id="Fill-524" fill="#F2F3ED" points="9.09494702e-13 294.588 294.59 294.588 294.59 2.27373675e-13 9.09494702e-13 2.27373675e-13"></polygon>
                    <polyline id="Fill-525" fill="#FE4F64" points="229.32 1.13686838e-13 150.53 1.13686838e-13 294.59 144.058 294.59 1.13686838e-13 229.32 1.13686838e-13"></polyline>
                    <polyline id="Fill-529" fill="#1E309B" points="4.54747351e-13 75.258 219.33 294.588 256.96 294.588 4.54747351e-13 37.631 4.54747351e-13 75.258"></polyline>
                    <polyline id="Fill-530" fill="#1E309B" points="9.09494702e-13 1.13686838e-13 294.59 294.588 294.59 256.958 37.63 1.13686838e-13 9.09494702e-13 1.13686838e-13"></polyline>
                    <polyline id="Fill-531" fill="#1E309B" points="75.27 3.41060513e-13 294.59 219.328 294.59 181.688 112.9 3.41060513e-13 75.27 3.41060513e-13"></polyline>
                    <polyline id="Fill-532" fill="#0062FF" points="4.54747351e-13 294.588 4.54747351e-13 112.888 181.7 294.588 4.54747351e-13 294.588"></polyline>
                </g>
            </g>
        </g>
    </g>
</svg>
