<?xml version="1.0" encoding="UTF-8"?>
<svg width="2000px" height="1962px" viewBox="0 0 2000 1962" version="1.1" xmlns="http://www.w3.org/2000/svg" xmlns:xlink="http://www.w3.org/1999/xlink">
    <title>Group</title>
    <defs>
        <polygon id="path-1" points="0 0 1999.94 0 1999.94 140 0 140"></polygon>
        <polygon id="path-3" points="0 0 1999.94 0 1999.94 140 0 140"></polygon>
    </defs>
    <g id="Page-1" stroke="none" strokeWidth="1" fill="none" fillRule="evenodd" opacity="0.195062682">
        <g id="Group" transform="translate(0.060000, 0.000000)">
            <path d="M1302.01,1898.84 L1410.34,1917.95 L1429.44,1809.62 L1321.11,1790.52 L1302.01,1898.84 Z M1422.5,1935.33 L1284.63,1911.01 L1308.95,1773.14 L1446.82,1797.45 L1422.5,1935.33 L1422.5,1935.33 Z" id="Fill-4" fill="#B899CF" fillRule="nonzero"></path>
            <path d="M926.689,552.208 L1030.06,514.589 L992.437,411.222 L889.07,448.841 L926.689,552.208 Z M1049.28,523.555 L917.723,571.434 L869.844,439.875 L1001.4,391.997 L1049.28,523.555 L1049.28,523.555 Z" id="Fill-5" fill="#B899CF" fillRule="nonzero"></path>
            <polyline id="Fill-7" fill="#B899CF" fillRule="nonzero" points="1098.1 1961.77 734.379 1751.76 944.391 1388.03 1308.12 1598.04 1098.1 1961.77"></polyline>
            <path d="M121.733,179.75 L199.512,257.534 L277.296,179.754 L199.517,101.97 L121.733,179.75 Z M199.511,278.747 L100.519,179.749 L199.518,80.757 L298.509,179.755 L199.511,278.747 L199.511,278.747 Z" id="Fill-8" fill="#B899CF" fillRule="nonzero"></path>
            <g id="Group-12" transform="translate(0.000000, 1250.000000)">
                <g id="Fill-9-Clipped">
                    <mask id="mask-2" fill="white">
                        <use xlink:href="#path-1"></use>
                    </mask>
                    <g id="path-1"></g>
                    <polyline id="Fill-9" fill="#B899CF" fillRule="nonzero" mask="url(#mask-2)" points="1947.44 15 1947.44 125 1999.94 125 1999.94 140 1932.44 140 1932.44 0 1999.94 0 1999.94 15 1947.44 15"></polyline>
                </g>
                <g id="Fill-11-Clipped">
                    <mask id="mask-4" fill="white">
                        <use xlink:href="#path-3"></use>
                    </mask>
                    <g id="path-3"></g>
                    <polyline id="Fill-11" fill="#B899CF" fillRule="nonzero" mask="url(#mask-4)" points="-0.06 125 57.441 125 57.444 15 -0.06 15 -0.06 0 72.445 0 72.44 140 -0.06 140 -0.06 125"></polyline>
                </g>
            </g>
            <path d="M270.673,1422.63 C251.568,1411.6 244.999,1387.09 256.029,1367.98 C267.059,1348.88 291.575,1342.31 310.68,1353.34 C329.786,1364.37 336.355,1388.89 325.324,1407.99 C314.294,1427.1 289.778,1433.66 270.673,1422.63" id="Fill-14" fill="#FFCC71" fillRule="nonzero"></path>
            <path d="M488.94,175 C392.443,175 313.94,96.497 313.94,0 L663.94,0 C663.94,96.497 585.437,175 488.94,175" id="Fill-15" fill="#16D6C8" fillRule="nonzero"></path>
            <path d="M538.315,1257.89 C514.434,1244.1 506.222,1213.46 520.01,1189.57 C533.798,1165.69 564.443,1157.48 588.325,1171.27 C612.206,1185.06 620.417,1215.7 606.63,1239.58 C592.842,1263.46 562.196,1271.68 538.315,1257.89" id="Fill-21" fill="#16D6C8" fillRule="nonzero"></path>
            <path d="M958.614,1898.81 C940.69,1929.86 900.851,1940.53 869.805,1922.61 C838.76,1904.68 828.085,1864.85 846.009,1833.8 C863.933,1802.75 903.772,1792.08 934.818,1810 C965.864,1827.93 976.539,1867.77 958.614,1898.81" id="Fill-22" fill="#FFCC71" fillRule="nonzero"></path>
            <path d="M1937.37,1116.81 C1919.45,1147.86 1879.61,1158.53 1848.56,1140.61 C1817.52,1122.68 1806.84,1082.85 1824.77,1051.8 C1842.69,1020.75 1882.53,1010.08 1913.57,1028 C1944.62,1045.93 1955.3,1085.77 1937.37,1116.81" id="Fill-23" fill="#16D6C8" fillRule="nonzero"></path>
            <path d="M701.911,140.006 C685.366,168.664 648.592,178.517 619.934,161.972 C591.277,145.426 581.423,108.652 597.969,79.994 C614.514,51.337 651.288,41.483 679.946,58.029 C708.603,74.574 718.457,111.348 701.911,140.006" id="Fill-24" fill="#FFCC71" fillRule="nonzero"></path>
            <path d="M285.687,1737.32 C258.112,1785.08 196.821,1801.5 149.059,1773.93 C101.296,1746.35 84.874,1685.06 112.449,1637.3 C140.025,1589.53 201.316,1573.11 249.078,1600.69 C296.841,1628.26 313.264,1689.55 285.687,1737.32" id="Fill-25" fill="#393939" fillRule="nonzero"></path>
            <path d="M1780.72,1272.31 C1769.69,1291.42 1745.17,1297.98 1726.06,1286.95 C1706.96,1275.92 1700.39,1251.41 1711.42,1232.3 C1722.45,1213.2 1746.97,1206.63 1766.07,1217.66 C1785.18,1228.69 1791.75,1253.21 1780.72,1272.31" id="Fill-26" fill="#393939" fillRule="nonzero"></path>
            <path d="M1266.7,1095.31 C1247.4,1128.75 1204.5,1140.24 1171.06,1120.94 C1137.63,1101.64 1126.13,1058.73 1145.44,1025.3 C1164.74,991.866 1207.64,980.37 1241.08,999.673 C1274.51,1018.98 1286.01,1061.88 1266.7,1095.31" id="Fill-27" fill="#393939" fillRule="nonzero"></path>
            <path d="M974.716,135.31 C963.686,154.416 939.17,160.984 920.065,149.954 C900.96,138.924 894.391,114.408 905.421,95.302 C916.451,76.197 940.967,69.628 960.072,80.659 C979.177,91.689 985.747,116.205 974.716,135.31" id="Fill-28" fill="#393939" fillRule="nonzero"></path>
            <path d="M338.776,657.169 C337.503,651.795 332.114,648.471 326.74,649.744 C321.366,651.017 318.042,656.406 319.315,661.78 C320.588,667.154 325.977,670.479 331.351,669.205 C336.725,667.932 340.049,662.543 338.776,657.169" id="Fill-30" fill="#393939" fillRule="nonzero"></path>
            <path d="M347.755,764.508 C346.482,759.134 341.093,755.809 335.719,757.083 C330.345,758.355 327.021,763.744 328.294,769.119 C329.567,774.493 334.956,777.817 340.33,776.544 C345.704,775.271 349.028,769.882 347.755,764.508" id="Fill-31" fill="#393939" fillRule="nonzero"></path>
            <path d="M815.002,596.023 C813.729,590.649 808.34,587.325 802.966,588.598 C797.592,589.871 794.268,595.26 795.541,600.634 C796.814,606.008 802.203,609.333 807.577,608.06 C812.951,606.786 816.275,601.397 815.002,596.023" id="Fill-32" fill="#393939" fillRule="nonzero"></path>
            <path d="M676.129,469.133 C670.755,470.406 667.431,475.795 668.704,481.169 C669.977,486.543 675.366,489.867 680.74,488.594 C686.114,487.321 689.439,481.932 688.165,476.558 C686.892,471.184 681.504,467.859 676.129,469.133" id="Fill-33" fill="#393939" fillRule="nonzero"></path>
            <path d="M289.963,502.096 C288.689,496.721 283.301,493.397 277.927,494.67 C272.552,495.943 269.228,501.332 270.501,506.706 C271.775,512.08 277.163,515.405 282.537,514.131 C287.911,512.858 291.236,507.47 289.963,502.096" id="Fill-34" fill="#393939" fillRule="nonzero"></path>
            <path d="M481.339,405.244 C475.965,406.517 472.64,411.906 473.914,417.28 C475.187,422.654 480.575,425.978 485.95,424.705 C491.324,423.432 494.648,418.043 493.375,412.669 C492.102,407.295 486.713,403.971 481.339,405.244" id="Fill-35" fill="#393939" fillRule="nonzero"></path>
            <path d="M580.558,478.896 C579.285,473.522 573.896,470.197 568.522,471.471 C563.148,472.744 559.824,478.133 561.097,483.507 C562.37,488.881 567.759,492.205 573.133,490.932 C578.507,489.659 581.831,484.27 580.558,478.896" id="Fill-36" fill="#393939" fillRule="nonzero"></path>
            <path d="M542.405,700.153 C537.031,701.426 533.706,706.815 534.98,712.189 C536.253,717.563 541.642,720.888 547.016,719.614 C552.39,718.341 555.714,712.953 554.441,707.578 C553.168,702.204 547.779,698.88 542.405,700.153" id="Fill-37" fill="#393939" fillRule="nonzero"></path>
            <path d="M603.267,251.98 C597.893,253.254 594.569,258.643 595.842,264.017 C597.115,269.391 602.504,272.715 607.878,271.442 C613.252,270.168 616.576,264.78 615.303,259.406 C614.03,254.032 608.641,250.708 603.267,251.98" id="Fill-38" fill="#393939" fillRule="nonzero"></path>
            <path d="M764.168,432.302 C762.895,426.928 757.506,423.604 752.132,424.877 C746.758,426.15 743.434,431.539 744.707,436.913 C745.98,442.287 751.369,445.612 756.743,444.338 C762.117,443.065 765.441,437.676 764.168,432.302" id="Fill-39" fill="#393939" fillRule="nonzero"></path>
            <path d="M504.51,593.499 C499.136,594.771 495.812,600.16 497.085,605.535 C498.358,610.909 503.747,614.233 509.121,612.959 C514.495,611.687 517.819,606.298 516.546,600.924 C515.273,595.55 509.884,592.225 504.51,593.499" id="Fill-40" fill="#393939" fillRule="nonzero"></path>
            <path d="M204.284,611.695 C203.01,606.321 197.622,602.997 192.248,604.27 C186.873,605.543 183.549,610.932 184.822,616.306 C186.096,621.68 191.484,625.004 196.858,623.731 C202.232,622.458 205.557,617.069 204.284,611.695" id="Fill-41" fill="#393939" fillRule="nonzero"></path>
            <path d="M754.329,714.924 C753.056,709.55 747.667,706.226 742.293,707.499 C736.919,708.772 733.595,714.161 734.868,719.535 C736.141,724.909 741.53,728.233 746.904,726.96 C752.278,725.687 755.602,720.298 754.329,714.924" id="Fill-42" fill="#393939" fillRule="nonzero"></path>
            <path d="M396.987,715.699 C391.613,716.973 388.289,722.361 389.562,727.735 C390.835,733.109 396.224,736.434 401.598,735.161 C406.972,733.888 410.297,728.499 409.023,723.125 C407.75,717.75 402.361,714.426 396.987,715.699" id="Fill-43" fill="#393939" fillRule="nonzero"></path>
            <path d="M499.977,271.385 C498.703,266.011 493.315,262.686 487.941,263.959 C482.567,265.232 479.242,270.621 480.515,275.995 C481.789,281.37 487.177,284.694 492.551,283.42 C497.926,282.147 501.25,276.759 499.977,271.385" id="Fill-44" fill="#393939" fillRule="nonzero"></path>
            <path d="M615.521,362.738 C610.147,364.011 606.822,369.4 608.096,374.774 C609.369,380.148 614.758,383.473 620.132,382.199 C625.506,380.926 628.83,375.538 627.557,370.163 C626.284,364.789 620.895,361.465 615.521,362.738" id="Fill-45" fill="#393939" fillRule="nonzero"></path>
            <path d="M360.796,303.644 C359.523,298.27 354.134,294.945 348.76,296.218 C343.386,297.492 340.062,302.88 341.335,308.254 C342.608,313.628 347.997,316.953 353.371,315.68 C358.745,314.406 362.069,309.018 360.796,303.644" id="Fill-46" fill="#393939" fillRule="nonzero"></path>
            <path d="M229.942,436.246 C228.669,430.872 223.28,427.548 217.906,428.821 C212.532,430.094 209.208,435.483 210.481,440.857 C211.754,446.231 217.143,449.556 222.517,448.282 C227.891,447.009 231.216,441.621 229.942,436.246" id="Fill-47" fill="#393939" fillRule="nonzero"></path>
            <path d="M148.249,325.981 C142.875,327.254 139.55,332.643 140.824,338.017 C142.097,343.391 147.486,346.715 152.86,345.442 C158.234,344.169 161.558,338.78 160.285,333.406 C159.012,328.032 153.623,324.708 148.249,325.981" id="Fill-48" fill="#393939" fillRule="nonzero"></path>
            <path d="M294.878,706.158 C289.504,707.431 286.18,712.82 287.453,718.194 C288.726,723.568 294.115,726.892 299.489,725.619 C304.863,724.346 308.188,718.957 306.914,713.583 C305.641,708.209 300.253,704.884 294.878,706.158" id="Fill-49" fill="#393939" fillRule="nonzero"></path>
            <path d="M299.486,595.682 C298.213,590.308 292.824,586.983 287.45,588.256 C282.076,589.529 278.752,594.918 280.025,600.292 C281.298,605.667 286.687,608.991 292.061,607.718 C297.435,606.444 300.759,601.056 299.486,595.682" id="Fill-50" fill="#393939" fillRule="nonzero"></path>
            <path d="M437.189,583.9 C431.814,585.173 428.49,590.563 429.763,595.937 C431.036,601.311 436.425,604.635 441.799,603.362 C447.173,602.088 450.498,596.7 449.225,591.326 C447.951,585.952 442.563,582.627 437.189,583.9" id="Fill-51" fill="#393939" fillRule="nonzero"></path>
            <path d="M39.673,661.862 C38.4,656.488 33.011,653.163 27.637,654.437 C22.263,655.709 18.938,661.098 20.212,666.473 C21.485,671.847 26.874,675.171 32.248,673.898 C37.622,672.625 40.946,667.236 39.673,661.862" id="Fill-52" fill="#393939" fillRule="nonzero"></path>
            <path d="M614.426,570.469 C609.052,571.742 605.728,577.131 607.001,582.505 C608.274,587.879 613.663,591.204 619.037,589.93 C624.411,588.657 627.735,583.269 626.462,577.895 C625.189,572.52 619.8,569.196 614.426,570.469" id="Fill-53" fill="#393939" fillRule="nonzero"></path>
            <path d="M392.178,439.478 C390.905,434.104 385.516,430.779 380.142,432.052 C374.768,433.326 371.444,438.714 372.717,444.088 C373.99,449.462 379.379,452.787 384.753,451.514 C390.127,450.24 393.452,444.852 392.178,439.478" id="Fill-54" fill="#393939" fillRule="nonzero"></path>
            <path d="M493.488,523.905 C492.215,518.531 486.826,515.207 481.452,516.48 C476.078,517.753 472.754,523.142 474.027,528.516 C475.3,533.89 480.689,537.214 486.063,535.941 C491.437,534.668 494.761,529.279 493.488,523.905" id="Fill-55" fill="#393939" fillRule="nonzero"></path>
            <path d="M364.452,505.179 C359.078,506.452 355.754,511.841 357.027,517.215 C358.3,522.589 363.689,525.914 369.063,524.64 C374.437,523.367 377.762,517.979 376.488,512.604 C375.215,507.23 369.826,503.906 364.452,505.179" id="Fill-56" fill="#393939" fillRule="nonzero"></path>
            <path d="M394.234,601.421 C392.961,596.047 387.572,592.723 382.198,593.996 C376.824,595.269 373.5,600.658 374.773,606.032 C376.046,611.406 381.435,614.73 386.809,613.457 C392.183,612.184 395.508,606.795 394.234,601.421" id="Fill-57" fill="#393939" fillRule="nonzero"></path>
            <path d="M175.58,717.633 C170.206,718.907 166.882,724.295 168.155,729.669 C169.428,735.043 174.817,738.368 180.191,737.095 C185.565,735.821 188.889,730.433 187.616,725.059 C186.343,719.685 180.954,716.36 175.58,717.633" id="Fill-58" fill="#393939" fillRule="nonzero"></path>
            <path d="M129.725,476.025 C128.452,470.651 123.063,467.327 117.689,468.6 C112.315,469.873 108.99,475.262 110.264,480.636 C111.537,486.01 116.925,489.334 122.3,488.062 C127.674,486.788 130.998,481.399 129.725,476.025" id="Fill-59" fill="#393939" fillRule="nonzero"></path>
            <path d="M502.247,662.927 C500.974,657.553 495.586,654.228 490.211,655.501 C484.837,656.775 481.513,662.164 482.786,667.538 C484.059,672.912 489.448,676.236 494.822,674.963 C500.196,673.689 503.521,668.301 502.247,662.927" id="Fill-60" fill="#393939" fillRule="nonzero"></path>
            <path d="M777.916,1284.72 C779.805,1279.53 777.129,1273.79 771.941,1271.91 C766.753,1270.02 761.016,1272.69 759.127,1277.88 C757.239,1283.07 759.914,1288.81 765.102,1290.69 C770.291,1292.58 776.028,1289.91 777.916,1284.72" id="Fill-79" fill="#393939" fillRule="nonzero"></path>
            <path d="M987.335,1519.42 C989.223,1514.23 986.548,1508.49 981.359,1506.61 C976.171,1504.72 970.434,1507.39 968.546,1512.58 C966.657,1517.77 969.332,1523.51 974.521,1525.39 C979.709,1527.28 985.446,1524.61 987.335,1519.42" id="Fill-80" fill="#393939" fillRule="nonzero"></path>
            <path d="M943.855,1155.37 C938.666,1153.48 932.929,1156.16 931.041,1161.34 C929.152,1166.53 931.828,1172.27 937.016,1174.16 C942.204,1176.05 947.941,1173.37 949.83,1168.18 C951.718,1162.99 949.043,1157.26 943.855,1155.37" id="Fill-81" fill="#393939" fillRule="nonzero"></path>
            <path d="M1075.39,1498.56 C1070.21,1496.67 1064.47,1499.34 1062.58,1504.53 C1060.69,1509.72 1063.37,1515.46 1068.56,1517.34 C1073.74,1519.23 1079.48,1516.56 1081.37,1511.37 C1083.26,1506.18 1080.58,1500.44 1075.39,1498.56" id="Fill-82" fill="#393939" fillRule="nonzero"></path>
            <path d="M866.063,1338.13 C867.952,1332.95 865.276,1327.21 860.088,1325.32 C854.9,1323.43 849.163,1326.11 847.274,1331.3 C845.386,1336.48 848.061,1342.22 853.249,1344.11 C858.438,1346 864.175,1343.32 866.063,1338.13" id="Fill-83" fill="#393939" fillRule="nonzero"></path>
            <path d="M1057.89,1576.27 C1052.7,1574.38 1046.96,1577.05 1045.08,1582.24 C1043.19,1587.43 1045.86,1593.17 1051.05,1595.06 C1056.24,1596.95 1061.98,1594.27 1063.86,1589.08 C1065.75,1583.89 1063.08,1578.16 1057.89,1576.27" id="Fill-84" fill="#393939" fillRule="nonzero"></path>
            <path d="M1267.36,1512.61 C1262.17,1510.72 1256.43,1513.39 1254.55,1518.58 C1252.66,1523.77 1255.33,1529.51 1260.52,1531.39 C1265.71,1533.28 1271.45,1530.61 1273.33,1525.42 C1275.22,1520.23 1272.55,1514.49 1267.36,1512.61" id="Fill-85" fill="#393939" fillRule="nonzero"></path>
            <path d="M1049.4,1679.46 C1051.29,1674.27 1048.61,1668.53 1043.42,1666.65 C1038.23,1664.76 1032.5,1667.43 1030.61,1672.62 C1028.72,1677.81 1031.4,1683.55 1036.58,1685.43 C1041.77,1687.32 1047.51,1684.65 1049.4,1679.46" id="Fill-86" fill="#393939" fillRule="nonzero"></path>
            <path d="M1059.72,1367.75 C1054.53,1365.86 1048.79,1368.53 1046.9,1373.72 C1045.01,1378.91 1047.69,1384.65 1052.88,1386.54 C1058.07,1388.42 1063.8,1385.75 1065.69,1380.56 C1067.58,1375.37 1064.91,1369.63 1059.72,1367.75" id="Fill-87" fill="#393939" fillRule="nonzero"></path>
            <path d="M963.359,1408.61 C958.171,1406.72 952.434,1409.39 950.546,1414.58 C948.657,1419.77 951.332,1425.51 956.521,1427.39 C961.709,1429.28 967.446,1426.61 969.335,1421.42 C971.223,1416.23 968.548,1410.49 963.359,1408.61" id="Fill-88" fill="#393939" fillRule="nonzero"></path>
            <path d="M838.738,1716.8 C840.627,1711.61 837.952,1705.88 832.763,1703.99 C827.575,1702.1 821.838,1704.77 819.949,1709.96 C818.061,1715.15 820.736,1720.89 825.924,1722.78 C831.113,1724.66 836.85,1721.99 838.738,1716.8" id="Fill-89" fill="#393939" fillRule="nonzero"></path>
            <path d="M764.897,1434.01 C766.786,1428.82 764.111,1423.08 758.922,1421.19 C753.734,1419.3 747.997,1421.98 746.109,1427.17 C744.22,1432.35 746.895,1438.09 752.084,1439.98 C757.272,1441.87 763.009,1439.19 764.897,1434.01" id="Fill-90" fill="#393939" fillRule="nonzero"></path>
            <path d="M1250.61,1693.1 C1252.5,1687.91 1249.82,1682.17 1244.64,1680.28 C1239.45,1678.39 1233.71,1681.07 1231.82,1686.26 C1229.93,1691.45 1232.61,1697.18 1237.8,1699.07 C1242.99,1700.96 1248.72,1698.28 1250.61,1693.1" id="Fill-91" fill="#393939" fillRule="nonzero"></path>
            <path d="M987.335,1595.42 C989.223,1590.23 986.548,1584.49 981.359,1582.61 C976.171,1580.72 970.434,1583.39 968.546,1588.58 C966.657,1593.77 969.332,1599.51 974.521,1601.39 C979.709,1603.28 985.446,1600.61 987.335,1595.42" id="Fill-92" fill="#393939" fillRule="nonzero"></path>
            <path d="M1103.36,1430.61 C1098.17,1428.72 1092.43,1431.39 1090.55,1436.58 C1088.66,1441.77 1091.33,1447.51 1096.52,1449.39 C1101.71,1451.28 1107.45,1448.61 1109.33,1443.42 C1111.22,1438.23 1108.55,1432.49 1103.36,1430.61" id="Fill-93" fill="#393939" fillRule="nonzero"></path>
            <path d="M769.151,1503.05 C763.963,1501.17 758.226,1503.84 756.337,1509.03 C754.449,1514.22 757.124,1519.96 762.312,1521.84 C767.501,1523.73 773.238,1521.06 775.126,1515.87 C777.015,1510.68 774.339,1504.94 769.151,1503.05" id="Fill-94" fill="#393939" fillRule="nonzero"></path>
            <path d="M879.245,1544.24 C881.133,1539.05 878.458,1533.31 873.269,1531.43 C868.081,1529.54 862.344,1532.21 860.456,1537.4 C858.567,1542.59 861.242,1548.33 866.431,1550.22 C871.619,1552.1 877.356,1549.43 879.245,1544.24" id="Fill-95" fill="#393939" fillRule="nonzero"></path>
            <path d="M802.542,1602.11 C797.353,1600.23 791.616,1602.9 789.728,1608.09 C787.839,1613.28 790.515,1619.01 795.703,1620.9 C800.891,1622.79 806.628,1620.12 808.517,1614.93 C810.405,1609.74 807.73,1604 802.542,1602.11" id="Fill-96" fill="#393939" fillRule="nonzero"></path>
            <path d="M1148.47,1376.26 C1150.36,1371.07 1147.68,1365.34 1142.49,1363.45 C1137.31,1361.56 1131.57,1364.23 1129.68,1369.42 C1127.79,1374.61 1130.47,1380.35 1135.66,1382.24 C1140.84,1384.13 1146.58,1381.45 1148.47,1376.26" id="Fill-97" fill="#393939" fillRule="nonzero"></path>
            <path d="M1223.36,1608.61 C1218.17,1606.72 1212.43,1609.39 1210.55,1614.58 C1208.66,1619.77 1211.33,1625.51 1216.52,1627.39 C1221.71,1629.28 1227.45,1626.61 1229.33,1621.42 C1231.22,1616.23 1228.55,1610.49 1223.36,1608.61" id="Fill-98" fill="#393939" fillRule="nonzero"></path>
            <path d="M1141.42,1253.21 C1136.23,1251.32 1130.49,1254 1128.6,1259.19 C1126.71,1264.37 1129.39,1270.11 1134.58,1272 C1139.76,1273.89 1145.5,1271.21 1147.39,1266.02 C1149.28,1260.84 1146.6,1255.1 1141.42,1253.21" id="Fill-99" fill="#393939" fillRule="nonzero"></path>
            <path d="M1130.05,1518.58 C1124.86,1516.69 1119.12,1519.36 1117.23,1524.55 C1115.34,1529.74 1118.02,1535.48 1123.21,1537.37 C1128.4,1539.25 1134.13,1536.58 1136.02,1531.39 C1137.91,1526.2 1135.23,1520.47 1130.05,1518.58" id="Fill-100" fill="#393939" fillRule="nonzero"></path>
            <path d="M870.745,1431.46 C872.633,1426.27 869.958,1420.53 864.77,1418.65 C859.581,1416.76 853.844,1419.43 851.956,1424.62 C850.068,1429.81 852.743,1435.55 857.931,1437.43 C863.12,1439.32 868.856,1436.65 870.745,1431.46" id="Fill-101" fill="#393939" fillRule="nonzero"></path>
            <path d="M912.755,1604.02 C907.567,1602.13 901.83,1604.81 899.941,1610 C898.053,1615.18 900.728,1620.92 905.916,1622.81 C911.105,1624.7 916.842,1622.02 918.73,1616.83 C920.619,1611.65 917.943,1605.91 912.755,1604.02" id="Fill-102" fill="#393939" fillRule="nonzero"></path>
            <path d="M990.58,1315.06 C992.469,1309.87 989.793,1304.13 984.605,1302.24 C979.417,1300.35 973.68,1303.03 971.791,1308.22 C969.903,1313.41 972.578,1319.14 977.766,1321.03 C982.955,1322.92 988.692,1320.24 990.58,1315.06" id="Fill-103" fill="#393939" fillRule="nonzero"></path>
            <path d="M934.877,1686.19 C929.689,1684.3 923.952,1686.97 922.063,1692.16 C920.175,1697.35 922.85,1703.09 928.038,1704.97 C933.227,1706.86 938.964,1704.19 940.852,1699 C942.74,1693.81 940.065,1688.07 934.877,1686.19" id="Fill-104" fill="#393939" fillRule="nonzero"></path>
            <path d="M634.447,1563.54 C636.335,1558.35 633.66,1552.61 628.471,1550.72 C623.283,1548.83 617.546,1551.51 615.658,1556.7 C613.769,1561.89 616.445,1567.62 621.633,1569.51 C626.821,1571.4 632.558,1568.73 634.447,1563.54" id="Fill-105" fill="#393939" fillRule="nonzero"></path>
            <path d="M1147.88,1579.36 C1142.69,1577.47 1136.96,1580.15 1135.07,1585.33 C1133.18,1590.52 1135.86,1596.26 1141.04,1598.15 C1146.23,1600.04 1151.97,1597.36 1153.86,1592.17 C1155.75,1586.99 1153.07,1581.25 1147.88,1579.36" id="Fill-106" fill="#393939" fillRule="nonzero"></path>
            <path d="M610.392,1422.13 C605.204,1420.24 599.467,1422.92 597.579,1428.1 C595.69,1433.29 598.365,1439.03 603.554,1440.92 C608.742,1442.81 614.479,1440.13 616.367,1434.94 C618.256,1429.75 615.581,1424.02 610.392,1422.13" id="Fill-107" fill="#393939" fillRule="nonzero"></path>
            <path d="M713.529,1652.73 C715.417,1647.54 712.742,1641.8 707.554,1639.91 C702.365,1638.03 696.628,1640.7 694.74,1645.89 C692.852,1651.08 695.527,1656.81 700.715,1658.7 C705.904,1660.59 711.64,1657.92 713.529,1652.73" id="Fill-108" fill="#393939" fillRule="nonzero"></path>
            <path d="M684.683,1802.6 C679.495,1800.71 673.758,1803.39 671.869,1808.58 C669.981,1813.77 672.656,1819.5 677.844,1821.39 C683.033,1823.28 688.77,1820.6 690.658,1815.42 C692.547,1810.23 689.871,1804.49 684.683,1802.6" id="Fill-109" fill="#393939" fillRule="nonzero"></path>
            <path d="M1161.22,1691.43 C1163.11,1686.24 1160.43,1680.5 1155.24,1678.61 C1150.05,1676.72 1144.32,1679.4 1142.43,1684.59 C1140.54,1689.78 1143.22,1695.51 1148.4,1697.4 C1153.59,1699.29 1159.33,1696.62 1161.22,1691.43" id="Fill-110" fill="#393939" fillRule="nonzero"></path>
            <path d="M1233.33,1431.42 C1235.22,1426.23 1232.55,1420.49 1227.36,1418.61 C1222.17,1416.72 1216.43,1419.39 1214.55,1424.58 C1212.66,1429.77 1215.33,1435.51 1220.52,1437.39 C1225.71,1439.28 1231.45,1436.61 1233.33,1431.42" id="Fill-111" fill="#393939" fillRule="nonzero"></path>
            <path d="M1075.47,1788.24 C1077.35,1783.05 1074.68,1777.31 1069.49,1775.43 C1064.3,1773.54 1058.57,1776.21 1056.68,1781.4 C1054.79,1786.59 1057.46,1792.33 1062.65,1794.21 C1067.84,1796.1 1073.58,1793.43 1075.47,1788.24" id="Fill-112" fill="#393939" fillRule="nonzero"></path>
            <path d="M1273.36,1340.61 C1268.17,1338.72 1262.43,1341.39 1260.55,1346.58 C1258.66,1351.77 1261.33,1357.51 1266.52,1359.39 C1271.71,1361.28 1277.45,1358.61 1279.33,1353.42 C1281.22,1348.23 1278.55,1342.49 1273.36,1340.61" id="Fill-113" fill="#393939" fillRule="nonzero"></path>
            <path d="M1817.33,1697.72 C1826.65,1688.4 1824.64,1672.63 1813.13,1666.2 C1784.57,1650.26 1753.76,1654.66 1728.02,1658.34 C1695.81,1662.94 1675.12,1664.83 1656.62,1646.32 C1638.11,1627.82 1639.99,1607.13 1644.6,1574.91 C1649.16,1542.93 1654.85,1503.13 1621.26,1469.55 C1587.67,1435.96 1547.88,1441.65 1515.9,1446.21 C1483.68,1450.82 1462.99,1452.7 1444.49,1434.2 C1425.98,1415.69 1427.86,1395 1432.47,1362.78 C1437.03,1330.8 1442.72,1291 1409.13,1257.41 C1375.54,1223.83 1335.75,1229.51 1303.77,1234.07 C1278.17,1237.73 1259.85,1239.67 1244.12,1231.04 C1236.23,1226.71 1226.47,1227.92 1220.11,1234.28 C1210.78,1243.61 1212.8,1259.37 1224.31,1265.8 C1252.87,1281.75 1283.68,1277.35 1309.42,1273.67 C1341.65,1269.07 1362.34,1267.19 1380.84,1285.7 C1399.35,1304.2 1397.47,1324.89 1392.87,1357.12 C1388.3,1389.1 1382.62,1428.89 1416.21,1462.48 C1449.79,1496.07 1489.59,1490.38 1521.56,1485.81 C1553.78,1481.21 1574.47,1479.33 1592.98,1497.83 C1611.48,1516.34 1609.6,1537.02 1605,1569.25 C1600.43,1601.22 1594.74,1641.02 1628.33,1674.61 C1661.92,1708.19 1701.71,1702.5 1733.68,1697.94 C1759.28,1694.28 1777.59,1692.34 1793.32,1700.97 C1801.21,1705.29 1810.97,1704.08 1817.33,1697.72" id="Fill-114" fill="#16D6C8" fillRule="nonzero"></path>
        </g>
    </g>
</svg>
