<?xml version="1.0" encoding="UTF-8"?>
<svg width="53px" height="53px" viewBox="0 0 53 53" version="1.1" xmlns="http://www.w3.org/2000/svg" xmlns:xlink="http://www.w3.org/1999/xlink">
    <title>Group</title>
    <g id="Page-1" stroke="none" stroke-width="1" fill="none" fill-rule="evenodd">
        <g id="5264721" transform="translate(-1079.000000, -280.000000)">
            <g id="Group" transform="translate(1080.430000, 281.735000)">
                <polygon id="Fill-58" fill="#E15871" points="25.12 25.124 50.25 25.124 50.25 0 25.12 0"></polygon>
                <polygon id="Stroke-59" stroke="#15101D" stroke-width="2" points="25.12 25.124 50.25 25.124 50.25 0 25.12 0"></polygon>
                <polygon id="Fill-60" fill="#FBD879" points="0 25.124 25.12 25.124 25.12 0 0 0"></polygon>
                <polygon id="Stroke-61" stroke="#15101D" stroke-width="2" points="0 25.124 25.12 25.124 25.12 0 0 0"></polygon>
                <polygon id="Fill-62" fill="#EA8A50" points="25.12 50.248 50.25 50.248 50.25 25.124 25.12 25.124"></polygon>
                <polygon id="Stroke-63" stroke="#15101D" stroke-width="2" points="25.12 50.248 50.25 50.248 50.25 25.124 25.12 25.124"></polygon>
                <polygon id="Fill-64" fill="#7B5995" points="0 50.248 25.12 50.248 25.12 25.124 0 25.124"></polygon>
                <polygon id="Stroke-65" stroke="#15101D" stroke-width="2" points="0 50.248 25.12 50.248 25.12 25.124 0 25.124"></polygon>
            </g>
        </g>
    </g>
</svg>