<?xml version="1.0" encoding="UTF-8"?>
<svg width="53px" height="78px" viewBox="0 0 53 78" version="1.1" xmlns="http://www.w3.org/2000/svg" xmlns:xlink="http://www.w3.org/1999/xlink">
    <title>Group</title>
    <g id="Page-1" stroke="none" stroke-width="1" fill="none" fill-rule="evenodd">
        <g id="5264721" transform="translate(-335.000000, -113.000000)">
            <g id="Group" transform="translate(336.016000, 114.146000)">
                <polygon id="Fill-50" fill="#E15871" points="5.68434189e-14 25.124 25.124 25.124 25.124 0 5.68434189e-14 0"></polygon>
                <polygon id="Stroke-51" stroke="#15101D" stroke-width="2" points="5.68434189e-14 25.124 25.124 25.124 25.124 0 5.68434189e-14 0"></polygon>
                <polygon id="Fill-52" fill="#FBD879" points="5.68434189e-14 50.248 25.124 50.248 25.124 25.124 5.68434189e-14 25.124"></polygon>
                <polygon id="Stroke-53" stroke="#15101D" stroke-width="2" points="5.68434189e-14 50.248 25.124 50.248 25.124 25.124 5.68434189e-14 25.124"></polygon>
                <polygon id="Fill-54" fill="#EA8A50" points="25.124 75.372 50.248 75.372 50.248 50.248 25.124 50.248"></polygon>
                <polygon id="Stroke-55" stroke="#15101D" stroke-width="2" points="25.124 75.372 50.248 75.372 50.248 50.248 25.124 50.248"></polygon>
                <polygon id="Fill-56" fill="#7B5995" points="5.68434189e-14 75.372 25.124 75.372 25.124 50.248 5.68434189e-14 50.248"></polygon>
                <polygon id="Stroke-57" stroke="#15101D" stroke-width="2" points="5.68434189e-14 75.372 25.124 75.372 25.124 50.248 5.68434189e-14 50.248"></polygon>
            </g>
        </g>
    </g>
</svg>