<?xml version="1.0" encoding="UTF-8"?>
<svg width="80px" height="80px" viewBox="0 0 80 80" version="1.1" xmlns="http://www.w3.org/2000/svg" xmlns:xlink="http://www.w3.org/1999/xlink">
    <title>Group 2</title>
    <g id="Page-1" stroke="none" stroke-width="1" fill="none" fill-rule="evenodd">
        <g id="5264721" transform="translate(-169.000000, -338.000000)">
            <g id="Group" transform="translate(170.051500, 339.190500)">
                <path d="M52.2524634,39.0001333 C52.2524634,46.3191732 46.3191732,52.2524634 39.0001333,52.2524634 C31.6810934,52.2524634 25.7475366,46.3191732 25.7475366,39.0001333 C25.7475366,31.6808268 31.6810934,25.7475366 39.0001333,25.7475366 C46.3191732,25.7475366 52.2524634,31.6808268 52.2524634,39.0001333" id="Fill-3" fill="#E15871"></path>
                <path d="M38.9485,57.8095 C28.455152,57.8095 19.9485,49.3025831 19.9485,38.8095 C19.9485,28.315887 28.455152,19.8095 38.9485,19.8095 C49.441848,19.8095 57.9485,28.315887 57.9485,38.8095 C57.9485,49.3025831 49.441848,57.8095 38.9485,57.8095 Z M38.9486333,-0.1905 C17.4095313,-0.1905 -0.0515,17.2705313 -0.0515,38.8096333 C-0.0515,60.3487353 17.4095313,77.8095 38.9486333,77.8095 C60.4877353,77.8095 77.9485,60.3487353 77.9485,38.8096333 C77.9485,17.2705313 60.4877353,-0.1905 38.9486333,-0.1905 L38.9486333,-0.1905 Z" id="Fill-4" stroke="#979797" fill="#7B5995"></path>
            </g>
        </g>
    </g>
</svg>