<?xml version="1.0" encoding="UTF-8"?>
<svg width="79px" height="54px" viewBox="0 0 79 54" version="1.1" xmlns="http://www.w3.org/2000/svg" xmlns:xlink="http://www.w3.org/1999/xlink">
    <title>Group</title>
    <g id="Page-1" stroke="none" stroke-width="1" fill="none" fill-rule="evenodd">
        <g id="5264721" transform="translate(-478.000000, -487.000000)">
            <g id="Group" transform="translate(479.648000, 488.775000)">
                <polygon id="Fill-42" fill="#E15871" points="0 50.248 25.124 50.248 25.124 25.124 0 25.124"></polygon>
                <polygon id="Stroke-43" stroke="#15101D" stroke-width="2" points="0 50.248 25.124 50.248 25.124 25.124 0 25.124"></polygon>
                <polygon id="Fill-44" fill="#FBD879" points="25.124 50.248 50.249 50.248 50.249 25.124 25.124 25.124"></polygon>
                <polygon id="Stroke-45" stroke="#15101D" stroke-width="2" points="25.124 50.248 50.249 50.248 50.249 25.124 25.124 25.124"></polygon>
                <polygon id="Fill-46" fill="#EA8A50" points="25.124 25.124 50.249 25.124 50.249 0 25.124 0"></polygon>
                <polygon id="Stroke-47" stroke="#15101D" stroke-width="2" points="25.124 25.124 50.249 25.124 50.249 0 25.124 0"></polygon>
                <polygon id="Fill-48" fill="#7B5995" points="50.249 50.248 75.372 50.248 75.372 25.124 50.249 25.124"></polygon>
                <polygon id="Stroke-49" stroke="#15101D" stroke-width="2" points="50.249 50.248 75.372 50.248 75.372 25.124 50.249 25.124"></polygon>
            </g>
        </g>
    </g>
</svg>