<?xml version="1.0" encoding="UTF-8"?>
<svg width="174px" height="35px" viewBox="0 0 174 35" version="1.1" xmlns="http://www.w3.org/2000/svg" xmlns:xlink="http://www.w3.org/1999/xlink">
    <title>Group</title>
    <g id="Page-1" stroke="none" stroke-width="1" fill="none" fill-rule="evenodd">
        <g id="5264721" transform="translate(-1066.000000, -626.000000)">
            <g id="Group" transform="translate(1067.780000, 627.963000)">
                <path d="M162.39,4.493 C162.36,4.493 162.34,4.498 162.31,4.498 C153.03,4.523 148,8.284 144.33,11.04 C141.62,13.076 140.49,13.919 137.26,13.919 C134.04,13.919 132.91,13.076 130.19,11.034 C126.51,8.276 121.47,4.495 112.13,4.495 C102.8,4.495 97.75,8.276 94.07,11.04 C91.36,13.076 90.23,13.919 87,13.919 C83.78,13.919 82.65,13.076 79.93,11.04 C76.25,8.276 71.21,4.495 61.87,4.495 C52.54,4.495 47.5,8.276 43.82,11.04 C41.1,13.076 39.97,13.919 36.75,13.919 C33.52,13.919 32.4,13.076 29.68,11.04 C26,8.276 20.95,4.495 11.62,4.495 L11.62,4.53 C11.38,4.511 11.13,4.493 10.88,4.493 C5.82,4.493 1.72,8.596 1.72,13.656 C1.72,18.717 5.82,22.82 10.88,22.82 C11.13,22.82 11.38,22.802 11.62,22.782 L11.62,22.82 C14.85,22.82 15.97,23.662 18.69,25.698 C22.37,28.457 27.41,32.242 36.75,32.242 C46.08,32.242 51.12,28.457 54.81,25.698 C57.52,23.662 58.65,22.82 61.87,22.82 C65.1,22.82 66.23,23.662 68.94,25.698 C72.63,28.457 77.67,32.242 87,32.242 C96.34,32.242 101.38,28.457 105.06,25.698 C107.78,23.662 108.91,22.82 112.13,22.82 C115.36,22.82 116.49,23.662 119.2,25.698 C122.88,28.457 127.93,32.242 137.26,32.242 C146.6,32.242 151.64,28.457 155.33,25.698 C158.04,23.662 159.16,22.82 162.39,22.82 C167.45,22.82 171.56,18.717 171.56,13.656 C171.56,8.596 167.45,4.493 162.39,4.493" id="Fill-35" fill="#7B5995"></path>
                <path d="M9.9,0.033 L9.9,0.002 C19.24,0.002 24.28,3.782 27.96,6.546 C30.68,8.582 31.8,9.426 35.03,9.426 C38.25,9.426 39.38,8.582 42.1,6.546 C45.78,3.782 50.82,0.002 60.15,0.002 C69.49,0.002 74.53,3.782 78.21,6.546 C80.93,8.582 82.06,9.426 85.28,9.426 C88.51,9.426 89.64,8.582 92.35,6.546 C96.04,3.782 101.08,0.002 110.41,0.002 C119.75,0.002 124.79,3.782 128.47,6.541 C131.19,8.582 132.32,9.426 135.55,9.426 C138.77,9.426 139.9,8.582 142.61,6.546 C146.29,3.782 151.34,0.002 160.67,0.002 L9.9,0.033 Z M9.9,18.294 L9.9,18.325 C13.13,18.325 14.25,19.168 16.97,21.205 C20.65,23.964 25.69,27.749 35.03,27.749 C44.36,27.749 49.41,23.964 53.09,21.205 C55.8,19.168 56.93,18.325 60.15,18.325 C63.38,18.325 64.51,19.168 67.22,21.205 C70.91,23.964 75.95,27.749 85.28,27.749 C94.62,27.749 99.66,23.964 103.34,21.205 C106.06,19.168 107.19,18.325 110.41,18.325 C113.64,18.325 114.77,19.168 117.48,21.205 C121.16,23.964 126.21,27.749 135.55,27.749 C144.88,27.749 149.92,23.964 153.61,21.205 C156.32,19.168 157.44,18.325 160.67,18.325 L9.9,18.294 Z M169.84,9.162 C169.84,14.223 165.74,18.325 160.67,18.325 C155.62,18.325 151.51,14.223 151.51,9.162 C151.51,4.103 155.62,0 160.67,0 C165.74,0 169.84,4.103 169.84,9.162 Z M18.33,9.162 C18.33,14.223 14.23,18.325 9.16,18.325 C4.1,18.325 0,14.223 0,9.162 C0,4.103 4.1,0 9.16,0 C14.23,0 18.33,4.103 18.33,9.162 Z" id="Stroke-36" stroke="#15101D" stroke-width="2"></path>
            </g>
        </g>
    </g>
</svg>