<?xml version="1.0" encoding="UTF-8"?>
<svg width="198px" height="39px" viewBox="0 0 198 39" version="1.1" xmlns="http://www.w3.org/2000/svg" xmlns:xlink="http://www.w3.org/1999/xlink">
    <title>Group 2</title>
    <g id="Page-1" stroke="none" stroke-width="1" fill="none" fill-rule="evenodd">
        <g id="5264721" transform="translate(-52.000000, -29.000000)">
            <g id="Group-2" transform="translate(53.287000, 30.359000)">
                <path d="M185.988,5.146 C185.953,5.146 185.92,5.151 185.886,5.151 C175.261,5.179 169.503,9.488 165.301,12.643 C162.189,14.976 160.9,15.941 157.207,15.941 C153.507,15.941 152.218,14.976 149.106,12.637 C144.891,9.478 139.117,5.149 128.42,5.149 C117.73,5.149 111.956,9.478 107.735,12.643 C104.629,14.976 103.34,15.941 99.64,15.941 C95.947,15.941 94.657,14.976 91.546,12.643 C87.331,9.478 81.557,5.149 70.86,5.149 C60.169,5.149 54.395,9.478 50.18,12.643 C47.069,14.976 45.78,15.941 42.086,15.941 C38.387,15.941 37.103,14.976 33.992,12.643 C29.776,9.478 23.996,5.149 13.305,5.149 L13.305,5.189 C13.027,5.166 12.748,5.146 12.464,5.146 C6.668,5.146 1.969,9.844 1.969,15.64 C1.969,21.436 6.668,26.134 12.464,26.134 C12.748,26.134 13.027,26.114 13.305,26.092 L13.305,26.134 C17.005,26.134 18.288,27.1 21.4,29.432 C25.615,32.592 31.389,36.927 42.086,36.927 C52.777,36.927 58.551,32.592 62.772,29.432 C65.877,27.1 67.167,26.134 70.86,26.134 C74.559,26.134 75.848,27.1 78.954,29.432 C83.176,32.592 88.949,36.927 99.64,36.927 C110.337,36.927 116.111,32.592 120.326,29.432 C123.438,27.1 124.727,26.134 128.42,26.134 C132.12,26.134 133.409,27.1 136.515,29.432 C140.736,32.592 146.51,36.927 157.207,36.927 C167.897,36.927 173.672,32.592 177.892,29.432 C181.004,27.1 182.287,26.134 185.985,26.134 C185.986,26.134 185.987,26.134 185.988,26.134 C191.783,26.134 196.482,21.436 196.482,15.64 C196.482,9.844 191.783,5.146 185.988,5.146" id="Fill-33" fill="#EA8A50"></path>
                <path d="M11.337,0.038 L11.337,0.002 C22.027,0.002 27.807,4.331 32.022,7.497 C35.134,9.829 36.417,10.795 40.117,10.795 C43.81,10.795 45.099,9.829 48.211,7.497 C52.426,4.331 58.2,0.002 68.891,0.002 C79.588,0.002 85.362,4.331 89.577,7.497 C92.689,9.829 93.978,10.795 97.671,10.795 C101.37,10.795 102.66,9.829 105.765,7.497 C109.987,4.331 115.761,0.002 126.451,0.002 C137.148,0.002 142.922,4.331 147.137,7.491 C150.249,9.829 151.538,10.795 155.238,10.795 C158.931,10.795 160.22,9.829 163.332,7.497 C167.547,4.331 173.327,0.002 184.018,0.002 L11.337,0.038 Z M11.337,20.952 L11.337,20.987 C15.036,20.987 16.319,21.953 19.431,24.285 C23.646,27.445 29.42,31.78 40.117,31.78 C50.807,31.78 56.581,27.445 60.802,24.285 C63.908,21.953 65.198,20.987 68.891,20.987 C72.591,20.987 73.88,21.953 76.985,24.285 C81.206,27.445 86.981,31.78 97.671,31.78 C108.368,31.78 114.142,27.445 118.357,24.285 C121.469,21.953 122.758,20.987 126.451,20.987 C130.151,20.987 131.44,21.953 134.546,24.285 C138.767,27.445 144.541,31.78 155.238,31.78 C165.928,31.78 171.702,27.445 175.924,24.285 C179.035,21.953 180.318,20.987 184.018,20.987 L11.337,20.952 Z M194.512,10.494 C194.512,16.289 189.814,20.988 184.018,20.988 C178.222,20.988 173.524,16.289 173.524,10.494 C173.524,4.698 178.222,0 184.018,0 C189.814,0 194.512,4.698 194.512,10.494 Z M20.989,10.494 C20.989,16.289 16.29,20.988 10.494,20.988 C4.698,20.988 0,16.289 0,10.494 C0,4.698 4.698,0 10.494,0 C16.29,0 20.989,4.698 20.989,10.494 Z" id="Stroke-34" stroke="#15101D" stroke-width="2"></path>
            </g>
        </g>
    </g>
</svg>